/* XPM */
static char *result[] = {
/* columns rows colors chars-per-pixel */
"44 44 83 1 ",
"  c black",
". c #070707",
"X c #170F07",
"o c #1F170B",
"O c #1B1B1B",
"+ c #2B230F",
"@ c #332B13",
"# c #3F2F17",
"$ c #430000",
"% c #4F0000",
"& c #730000",
"* c #7F0000",
"= c #43331B",
"- c #4B371B",
"; c #533F1F",
": c #473323",
"> c #4F3B23",
", c #533F2F",
"< c #5F4323",
"1 c #5B472B",
"2 c #574333",
"3 c #5F4B37",
"4 c #6B4727",
"5 c #774F2B",
"6 c #675333",
"7 c #67533F",
"8 c #775F3F",
"9 c gray28",
"0 c #6F5743",
"q c #775F4B",
"w c #7B634F",
"e c #6F7357",
"r c #8B0000",
"t c #9B0000",
"y c #A70000",
"u c #B30000",
"i c #BF0000",
"p c #CB0000",
"a c #D70000",
"s c #E30000",
"d c #EF0000",
"f c red",
"g c #FF1F1F",
"h c #FF3F3F",
"j c #9B5B13",
"k c #AF4300",
"l c #B74700",
"z c #AF7B1F",
"x c #875733",
"c c #8F5F37",
"v c #9B633B",
"b c #A36B3F",
"n c #C34F00",
"m c #CB5707",
"M c #D75F0B",
"N c #EB6F0F",
"B c #F37317",
"V c #FF7F1B",
"C c #836B4B",
"Z c #836B57",
"A c #8F7753",
"S c #8B735B",
"D c #937B63",
"F c #9B7F6B",
"G c #FF5F5F",
"H c #FF8F3B",
"J c #9F8363",
"K c #9F876F",
"L c #A78F77",
"P c #AF977F",
"I c #D7BB43",
"U c #FFA35B",
"Y c #FFB37B",
"T c #EBDB57",
"R c #FFFF73",
"E c #B79F87",
"W c #BFA78F",
"Q c #A7A7A7",
"! c #B7B7B7",
"~ c #FFB383",
"^ c #FFC7A7",
"/ c #FFEBDB",
"( c #00FF00",
/* pixels */
"(((((((((((((((((((((*((((((((((((((((((((((",
"((((((((((((((((((((((((((((((((((((((((((((",
"(((((((((((((((((((((*((((((((((((((((((((((",
"((((((((((((((((((((((u*((((((((((((((((((((",
"(((((((((((((((((((((t*(((((((((((((((((((((",
"(((((((((((((((((((((ut*((((((((((((((((((((",
"(((((((((((((((((((at*itu(((((((((((((((((((",
"(((((((((((((((((ypi*uit&%((((((((((((((((((",
"((((((((((((((((((itupis%(((((((((((((((((((",
"((((((((((((((((iidudfait**(((((((((((((((((",
"((((((((((((((((tyydmBBmdyyt((((((((((((((((",
"((((((((((((((((tuspMIIMpsut((((((((((((((((",
"((((((((((((((*u*ydMBTTBMdy*u(((((((((((((((",
"(((((((((((((*ut*lNBYTTYBNl*tu*(((((((((((((",
"((((((((((((tlu*nVHY////YHVn*ult((((((((((((",
"((((((((((((*atkNNLPPPPPPLNNkta*((((((((((((",
"(((((((((((tmt0DFKLPWWWWPLKFD0tmt(((((((((((",
"(((((((((*pt16SDFKLPEEEEPLKFDA61tp*(((((((((",
"((((((((ttm->6SDFKLEEEEEELKFDS6>-mtt((((((((",
"72(((((aium=>8SDFKPLFDDFLPKFDS8>=muia(((((27",
"2777qqqqqqq=>CKPPKDZ0qq0ZPKPPKC>=qqqqqqq7772",
"(277qZSFLDZ=<,,,5cFWF;;FWFc5,,,<=ZDLFSZq772(",
"(((7000qw0w-@,&t*#<=@ee@=<#*t&,@-w0wq0007(((",
"(((((03;<<-O8gigpt$@;;;;@$tpgig8O-<<;30(((((",
"((((((ty@@@;8GgGRI-J-  -J-IRGgG8;@@@yt((((((",
"((((((mm*l@;<-yjzjJ<    <Jjzjy-<;@l*mm((((((",
"((((((duln@AJ55CAx8>    >8xAC55JA@nlud((((((",
"((((((sfNk@AJ<5CAx81    18xAC5<JA@kNfs((((((",
"(((((dmNUk@xcx-@+-88SQQS88-+@-xcx@kUNmd(((((",
"(((((imNUk+-#oX.+6AC5xx5CA6+.Xo#-+kUNmi(((((",
"(((((tyMNk-oX.XX@CE!LLLL!EC@XX.Xo-kNMyt(((((",
"((((((tpMuk-XXX+;#--<--<--#;+XXX-kuMpt((((((",
"((((((tiuppi&*ki<  b^  ^b  <ik*&ippuit((((((",
"((((((tttupfp&o4 % ;b  b; % 4o&pfputtt((((((",
"(((((((pitt&rlnUBt        tBUnlr&ttip(((((((",
"(((((((&iputtruphp        phpurttupi&(((((((",
"((((((((&ttpdio4v 0      0 v4oidptt&((((((((",
"(((((((((&&tttumsuF 0  0 Fusmuttt&&(((((((((",
"(((((((((((&&&oo5&~bF  Fb~&5oo&&&(((((((((((",
"((((((((((((((o@9&:&~bb~&:&9@o((((((((((((((",
"(((((((((((((((o@;&ru&&ur&;@o(((((((((((((((",
"((((((((((((((((o<;;<<<<;;<o((((((((((((((((",
"(((((((((((((((((@<5xccx5<@(((((((((((((((((",
"(((((((((((((((((((<<<<<<((((((((((((((((((("
};
