/* XPM */
static char *result[] = {
/* columns rows colors chars-per-pixel */
"44 47 77 1 ",
"  c black",
". c #170F07",
"X c #1F170B",
"o c #2B230F",
"O c #332B13",
"+ c #3F2F17",
"@ c #430000",
"# c #5B0000",
"$ c #670000",
"% c #670B0B",
"& c #730000",
"* c #7F0000",
"= c #4B371B",
"- c #533F1F",
"; c #732B00",
": c #4F3B23",
"> c #533F2F",
", c #5F4323",
"< c #5B472B",
"1 c #574333",
"2 c #5F4B37",
"3 c #6B4727",
"4 c #774F2B",
"5 c #7F532F",
"6 c #67533F",
"7 c #775F3F",
"8 c gray28",
"9 c #6F5743",
"0 c #775F4B",
"q c #7B634F",
"w c #8B0000",
"e c #9B0000",
"r c #A70000",
"t c #B30000",
"y c #BF0000",
"u c #872300",
"i c #932F00",
"p c #9F3700",
"a c #CB0000",
"s c #D70000",
"d c #E30000",
"f c #EF0000",
"g c red",
"h c #874307",
"j c #9B5B13",
"k c #AF4300",
"l c #B74700",
"z c #875733",
"x c #8F5F37",
"c c #9B633B",
"v c #A36B3F",
"b c #C34F00",
"n c #CB5707",
"m c #D75F0B",
"M c #DF670F",
"N c #F37317",
"B c #FF7F1B",
"V c #836B4B",
"C c #836B57",
"Z c #8F7753",
"A c #8B735B",
"S c #AB6F43",
"D c #937B63",
"F c #9B7F6B",
"G c #FF8F3B",
"H c #9F8363",
"J c #9F876F",
"K c #A78F77",
"L c #AF977F",
"P c #CF8353",
"I c #FFA35B",
"U c #F7AB7B",
"Y c #EBDB57",
"T c #B79F87",
"R c #BFA78F",
"E c #FFCFB3",
"W c #00FF00",
/* pixels */
"WWWWWWWWWWWWWWWWWWWWWWyWWWWWWWWWWWWWWWWWWWWW",
"WWWWWWWWWWWWWWWWWWWWWWyWWWWWWWWWWWWWWWWWWWWW",
"WWWWWWWWWWWWWWWWWWWWyytWWWWWWWWWWWWWWWWWWWWW",
"WWWWWWWWWWWWWWWWWWWdytWWWWWWWWWWWWWWWWWWWWWW",
"WWWWWWWWWWWWWWWWWaayyyWWWWWWWWWWWWWWWWWWWWWW",
"WWWWWWWWWWWWWWWWW*eytnWWWWWWWWWWWWWWWWWWWWWW",
"WWWWWWWWWWWWWWWWt*wltM*WWWWWWWWWWWWWWWWWWWWW",
"WWWWWWWWWWWWWWWWee*nlMntdWWWWWWWWWWWWWWWWWWW",
"WWWWWWWWWWWWWWWW*t*mlnMeyttWWWWWWWWWWWWWWWWW",
"WWWWWWWWWWWWWWsebyblyddygyttWWWWWWWWWWWWWWWW",
"WWWWWWWWWWWWWasN*bMbdbddsaetdWWWWWWWWWWWWWWW",
"WWWWWWWWWWWWrsneerbfnNmdfyreyWWWWWWWWWWWWWWW",
"WWWWWWWWWWWWttN*rldamINmadbrnW*WWWWWWWWWWWWW",
"WWWWWWWWWWWWW*tramfmNYINmfbaNt*WWWWWWWWWWWWW",
"WWWWWWWWWWWse*yrsNfNGYYGNflsrMeesWWWWWWWWWWW",
"WWWWWWWWWWaae*nrrGgNIYYINnmrrateaWWWWWWWWWWW",
"WWWWWWWWWray*tNyrGfMIIIIMMBryya*yaWWWWWWWWWW",
"WWWWWWWWWtalrgnrDbmBRRRRBNIDnbsrlaWWWWWWWWWW",
"WWWWWWWWWeemy-yJLTRRRRRRRRTLbnbsmeeWWWWWWWWW",
"9qWWWWWWyt*NgyAJKLTRRRRRRTLKJAmsN*tyWWWWWWq9",
"19qFDAC00qCCxyAJKLTRRRRRRTLKJAmxCCq00CADFq91",
"W19qqCq0962290CFJKLTTTTTTLKJFC0922690qCqq91W",
"WW1269909622=90CAFJKLLLLKJFAC09=2269099621WW",
"WWWW222ipkpuu2260CADFHHFDAC0622uupkpi222WWWW",
"WWWWWWW>OOO&&>1290qqCCCCqq0921>&&OOO>WWWWWWW",
"WWWWWWWWWr-w&+::>1122222211>::+rw-k**WWWWWWW",
"WWWWWWWW**jbtX3====------====3Xtlny*WWWWWWWW",
"WWWWWWWW*yk*$X5::,,------,,:,5X#rar*WWWWWWWW",
"WWWWWWWWW**$#Xz,,3,,,,,,,,3,3zX##**WWWWWWWWW",
"WWWWWWWWWWt#XOzz544444444445zzOX#tWWWWWWWWWW",
"WWWWWWWWW*d$-zooo=,,zzzz,,=oooz-$d*WWWWWWWWW",
"WWWWWWWWW*$wO4#h;....oo....;h#4Owt*WWWWWWWWW",
"WWWWWWWWWW$y+<#;jYy.oS3o.yYj;#<+O$WWWWWWWWWW",
"WWWWWWWWWW*yOV&*yd%3xoO=x%dy*&VOO*WWWWWWWWWW",
"WWWWWWWWWW**o7Zvxx35O OO=5xxvZ7oOWWWWWWWWWWW",
"WWWWWWWWWW*&o3=+=+O<oo3o<O+=+=3oOWWWWWWWWWWW",
"WWWWWWWWWW*a*3=OOo+,3xv3,+oOO=3rdWWWWWWWWWWW",
"WWWWWWWWWWWta@ooOO,,,4,4,,OOo@enwWWWWWWWWWWW",
"WWWWWWWWWWW&de&.O+,vzvzvzx+O.edy*WWWWWWWWWWW",
"WWWWWWWWWWWW#tbmc3laU  Ual3cmb**WWWWWWWWWWWW",
"WWWWWWWWWWWWW#$3=ll      ln=3XXWWWWWWWWWWWWW",
"WWWWWWWWWWWWWWX-$&E      E&$-XWWWWWWWWWWWWWW",
"WWWWWWWWWWWWWWXX4&P&U&&U&P&4XXWWWWWWWWWWWWWW",
"WWWWWWWWWWWWWWWO8-&wt&&tw&-8OWWWWWWWWWWWWWWW",
"WWWWWWWWWWWWWWWWO,--,,,,--,OWWWWWWWWWWWWWWWW",
"WWWWWWWWWWWWWWWWWO=4zxxz4=OWWWWWWWWWWWWWWWWW",
"WWWWWWWWWWWWWWWWWWOOOOOOOOWWWWWWWWWWWWWWWWWW"
};
