/* XPM */
static char *result[] = {
/* columns rows colors chars-per-pixel */
"44 44 89 1 ",
"  c black",
". c #070707",
"X c #170F07",
"o c #1F170B",
"O c #1B1B1B",
"+ c #2B230F",
"@ c #332B13",
"# c #3F2F17",
"$ c #430000",
"% c #4F0000",
"& c #670000",
"* c #730000",
"= c #7F0000",
"- c #43331B",
"; c #4B371B",
": c #533F1F",
"> c #473323",
", c #4F3B23",
"< c #533F2F",
"1 c #5F4323",
"2 c #5B472B",
"3 c #574333",
"4 c #5F4B37",
"5 c #6B4727",
"6 c #774F2B",
"7 c #675333",
"8 c #67533F",
"9 c #775F3F",
"0 c gray28",
"q c #6F5743",
"w c #775F4B",
"e c #7B634F",
"r c #6F7357",
"t c #8B0000",
"y c #9B0000",
"u c #A70000",
"i c #B30000",
"p c #BF0000",
"a c #CB0000",
"s c #D70000",
"d c #E30000",
"f c #EF0000",
"g c #FF1F1F",
"h c #FF3F3F",
"j c #874307",
"k c #9B5B13",
"l c #AF4300",
"z c #B74700",
"x c #AF7B1F",
"c c #875733",
"v c #8F5F37",
"b c #9B633B",
"n c #A36B3F",
"m c #C34F00",
"M c #CB5707",
"N c #D75F0B",
"B c #DF670F",
"V c #EB6F0F",
"C c #F37317",
"Z c #FF7F1B",
"A c #836B4B",
"S c #836B57",
"D c #8F7753",
"F c #8B735B",
"G c #B37347",
"H c #937B63",
"J c #9B7F6B",
"K c #FF5F5F",
"L c #CB7F4F",
"P c #FF7B7B",
"I c #C39B2F",
"U c #FF8F3B",
"Y c #9F8363",
"T c #9F876F",
"R c #A78F77",
"E c #AF977F",
"W c #CF8353",
"Q c #D78B5B",
"! c #D7BB43",
"~ c #FFA35B",
"^ c #FFB37B",
"/ c #EBDB57",
"( c #FFFF73",
") c #B79F87",
"_ c #BFA78F",
"` c #FFB383",
"' c #FFC7A7",
"] c #FFEBDB",
"[ c #00FF00",
/* pixels */
"[[[[[[[[[[[[[[[[[[[[[[=[[[[[[[[[[[[[[[[[[[[[",
"[[[[[[[[[[[[[[[[[[[[[[[[[[[[[[[[[[[[[[[[[[[[",
"[[[[[[[[[[[[[[[[[[[[[[=[[[[[[[[[[[[[[[[[[[[[",
"[[[[[[[[[[[[[[[[[[[[=i%[[[[[[[[[[[[[[[[[[[[[",
"[[[[[[[[[[[[[[[[[[[[%=y[[[[[[[[[[[[[[[[[[[[[",
"[[[[[[[[[[[[[[[[[[[i=yi[[[[[[[[[[[[[[[[[[[[[",
"[[[[[[[[[[[[[[[[[[[iyp=yss[[[[[[[[[[[[[[[[[[",
"[[[[[[[[[[[[[[[[[[[*yNi=pauu[[[[[[[[[[[[[[[[",
"[[[[[[[[[[[[[[[[[[[[%NUaiyp[[[[[[[[[[[[[[[[[",
"[[[[[[[[[[[[[[[[[uufMUUMfuuy[[[[[[[[[[[[[[[[",
"[[[[[[[[[[[[[[[=idaNU!^adiy[=[[[[[[[[[[[[[[[",
"[[[[[[[[[[[[[[=Mi=ufNU//CNfu=[[[[[[[[[[[[[[[",
"[[[[[[[[[[[[[[=BM=zVC^//^CVx=y[[[[[[[[[[[[[[",
"[[[[[[[[[[[[[&iBNZU^]]]]^UxIxi[[[[[[[[[[[[[[",
"[[[[[[[[[[[[=MNBWBLEEEEEQIxxIzs==[[[[[[[[[[[",
"[[[[[[[[[[aymMxGJTRE____ERTJnbyMy=[[[[[[[[[[",
"[[[[[[[[[ylmk7FHJTRE))))ERTJHD76ja=[[[[[[[[[",
"8[[[[[[[plMj,7FHJTR))))))RTJHF7,kMyp[[[[[[[8",
"388[[[[splV;,7FHJTR))))))RTJHF7,;Vip[[[[[883",
"[3888wwwwwV-,9FHJTERJHHJRETJHF9,-~wwwww8883[",
"[[53wwFJRHw-,ATEETHSqwwqSETEETA,-VHRJFww35[[",
"[[[[wqqweqS-1<<<6vJTH::HTJv6<<<1-eqewqqw[[[[",
"[[[[[e4:11e;@<*y=#1-@rr@-1#=y*<@;;11:4e[[[[[",
"[[[[[[yu@@;O9gpgay$@::::@$yagpg9O@@@uy[[[[[[",
"[[[[[[MM=z@:9KgK(!;Y;  ;Y;!(KgK9:@==Md[[[[[[",
"[[[[[[dizm@:1;ukxkY1    1Ykxku;1:@lMVf[[[[[[",
"[[[[[fMVVl@DY66ADc9,    ,9cDA66YD@l~Kff[[[[[",
"[[[[[puV~~@DY16ADc92    29cDA61YD@N!Pgp[[[[[",
"[[[[[yyNVU@cvc;@+;99F))F99;+@;cvc+ZZBfy[[[[[",
"[[[[[[yaNU+;#oX.+7DA6cc6AD7+.Xo#;;ZVMy[[[[[[",
"[[[[[[ypiZUoX.XX@AE)TTTT)EA@XX.Xolmzpy[[[[[[",
"[[[[[[yyypa;XXX+:#;;1;;1;;#:+XXX;zzyy[[[[[[[",
"[[[[[[[apdVp*=lp1  n'  'n  1pl=*Mzy[a[[[[[[[",
"[[[[[[[*pyymV*o5 % :n  n: % C~UVziM*[[[[[[[[",
"[[[[[[[[**Mpmzm~Cy        y/~CBtyyy[[[[[[[[[",
"[[[[[[[[[*dMptiaha        ahagtyg*[[[[[[[[[[",
"[[[[[[[[[[*dfpo5b q      q b5opfy[[[[[[[[[[[",
"[[[[[[[[[[[*yyix/xJ q  q JidMiy*[[[[[[[[[[[[",
"[[[[[[[[[[[[**oo6*`nJ  Jn`*6oo*[[[[[[[[[[[[[",
"[[[[[[[[[[[[[[o@0*>*`nn`*>*0@o[[[[[[[[[[[[[[",
"[[[[[[[[[[[[[[[o@:*ti**it*:@o[[[[[[[[[[[[[[[",
"[[[[[[[[[[[[[[[[o1::1111::1o[[[[[[[[[[[[[[[[",
"[[[[[[[[[[[[[[[[[@16cvvc61@[[[[[[[[[[[[[[[[[",
"[[[[[[[[[[[[[[[[[[[111111[[[[[[[[[[[[[[[[[[["
};
