/* XPM */
static char *result[] = {
/* columns rows colors chars-per-pixel */
"143 114 23 1 ",
"  c #27531B",
". c #2F6323",
"X c #37732B",
"o c #3F832F",
"O c #439337",
"+ c #4B9F3F",
"@ c #53AF47",
"# c #5BBF4F",
"$ c #5FCF57",
"% c #67DF5F",
"& c #6FEF67",
"* c #77FF6F",
"= c #D7BB43",
"- c #EBDB57",
"; c #FFFF47",
": c #FFFF6B",
"> c #FFFF73",
", c #FFFF8F",
"< c #FFFFB3",
"1 c #FFFFD7",
"2 c #EFEFEF",
"3 c white",
"4 c #00FF00",
/* pixels */
"4444444444444444444444444444444444444444444444444444444444444444444444#=#4444444444444444444444444444444444444444444444444444444444444444444444",
"4444444444444444444444444444444444444444444444444444444444444444444444#=#4444444444444444444444444444444444444444444444444444444444444444444444",
"4444444444444444444444444444444444444444444444444444444444444444444444#=#4444444444444444444444444444444444444444444444444444444444444444444444",
"444444444444444444444444444444444444444444444444444444444444444444444#=-=#444444444444444444444444444444444444444444444444444444444444444444444",
"444444444444444444444444444444444444444444444444444444444444444444444#=>=#444444444444444444444444444444444444444444444444444444444444444444444",
"444444444444444444444444444444444444444444444444444444444444444444444#->-#444444444444444444444444444444444444444444444444444444444444444444444",
"4444444444444444444444444444444444444444444444444444444444444444444+@#->-#@+4444444444444444444444444444444444444444444444444444444444444444444",
"4444444444444444444444444444444444444444444444444444444444444444444+@#->-#@+4444444444444444444444444444444444444444444444444444444444444444444",
"444444444444444444444444444444444444444444444444444444444444444444++@@->-@@++444444444444444444444444444444444444444444444444444444444444444444",
"444444444444444444444444444444444444444444444444444444444444444444++@@>>>@@++444444444444444444444444444444444444444444444444444444444444444444",
"44444444444444444444444444444444444444444444444444444444444444444o++@$>>>$@++o44444444444444444444444444444444444444444444444444444444444444444",
"444444444444444444444444444444444444444444444444444444444444444444+@#->>>-#@+444444444444444444444444444444444444444444444444444444444444444444",
"44444444444444444444444444444444444444444444444444444444444444444++@@%>>>%@@++44444444444444444444444444444444444444444444444444444444444444444",
"444444444444444444444444444444444444444444444444444444444444444oo4@##->>>-##@4oo444444444444444444444444444444444444444444444444444444444444444",
"4444444444444444444444444444444444444444444444444444444444444444++@##>>>>>##@++4444444444444444444444444444444444444444444444444444444444444444",
"44444444444444444444444444444444444444444444444444++44444444444o+#@@%>>1>>%@@#+o44444444444++44444444444444444444444444444444444444444444444444",
"4444444444444444444444444444444444444444444444444@@+o4444444444O+@@+%>>1>>%+@@+O4444444444o+@@4444444444444444444444444444444444444444444444444",
"4444444444444444444444444444444444444444444444444@@4+O44444444XO+#@#%>>3>>%#@#+OX444444444+@@@4444444444444444444444444444444444444444444444444",
"444444444444444444444444444444444444444444444444@+#@@4+4444444O++@@#%>131>%#@@++O444444444@@#+@444444444444444444444444444444444444444444444444",
"444444444444444444444444444444444444444444444444@#%#4@+4444444O+++@#%>111>%#@+++O44444444@@#%#@444444444444444444444444444444444444444444444444",
"44444444444444444444444444444444444444444X44444@@#-#@@4444444XO++@+#%>131>%#+@++OX4444444@@#-#@444444444444444444444444444444444444444444444444",
"44444444444444444444444444444444444444444XX4444+@#%@@++4444XXO++@@#%*>333>*%#@@++OX44444++@@%#@44444XX44444444444444444444444444444444444444444",
"4444444444444444444444444444444444444444XXO4+444#%>#@@+4444oOO+@@@#%>>333>>%#@@@+OOo4444+@@#>%#444+4OXX44.4444444444444444444444444444444444444",
"4444444444444444444444444444444444444X44XXOO+++@#%>$@@@44XXoO++@#$%%>>131>>%%$#@++OoX444@@@$>%#@+++OOXX44X..44444444444444444444444444444444444",
"444444444444444444444444444444444444Xo.44.OO4+@@#%>$#+@+ooX+@++@#%%*>>111>>*%%#@++@+Xoo+@+#$>%#@@+@OO.44.oX444444444444444444444444444444444444",
"44444444444444444444444444444444444.4oX4XOO+++@@$>2%@+@+OoXO+@+@%**>>33133>>**%@+@+OXoO+@+@%2>$@@+++OOX4Xo4.44444444444444444444444444444444444",
"444444444444444444444444444444444..XXXoXXOOO+++#$>3-$@@++OO+@#@#%*>>1313131>>*%#@#@+OO++@@$-3>$#+++OOOXXoXXX..44..44444444444444444444444444444",
"444444444444444444444444444444..X4XoXoOOoO+O@+@#%><%#@@+++O+@##%%*>>1111111>>*%%##@+O+++@@#%<>%#@+@O+OoOOoXoX4X..XX4444444444444444444444444444",
"4444444444444444444444444444XXX.4.XXoOOOOO++@+@%%><>#@@@@@+@#%%*&*>>1113111>>*&*%%#@+@@@@@#><>%%@+@++OOOOOoXX.4.XXX.444444444444444444444444444",
"4444444444444444444444444444ooXXXoXoOOOOO++@@#$*&31&##@@##@@#%***>>111131111>>***%#@@##@@##&13&*$#@@++OOO+OoXoXXXoo4444444444444444444444444444",
"44444444444444444444444444444o.oXXoOOO++OO+@@@%&*<<*%#####@#%%**>>>111111111>>>**%%#@#####%*<<*&%@@@+OO++O++oXXo.o4X.44444444444444444444444444",
"44444444444444444444444444444...XoOOO@+++O+#$%%**<1>*$%%%###%**>>3311111111133>>**%###%%%$*>1<**%%$#+O+++@O+OoX...4oX.4444444444444444444444444",
"4444444444444444444444444444o4oXo+OO@@++@+@$%%*&*<1>*&*%%%$$%*1>>1313111113131>>1*%$$%%%*&*>1<*&*%%$@+@++@@+++oXo4oX444444444444444444444444444",
"44444444444444444444444444XX44XoX+++##%%+@@%%***231<>**&&&&&*>>111333131313331<<>>*&&&&&**><132***%%@@+$$##+++XoX44XX44444444444444444444444444",
"44444444444444444444444444..4XXXO+@@#$**%+#%**>>1311>>*******>1111131331331311<<<>*******>>1131>>**%#+$**$#@@+OXXX4..44444444444444444444444444",
"444444444444444444444444444.XoXXO+@##*>2*%%%*>>>1311>>****>111>11111113331111<<<><11>****>>1131>>>*%$$*2>*$#@+OXXoX.4..444444444444444444444444",
"4444444444444444444444444o44XXXOo@+#%*>1*****>>11311>>>>>>>>11111111113331111<1<<<<<>>>>>>>11311>>*****1>*%#+@oOXXX4 o.444444444444444444444444",
"444444444444444444444444ooXoXXOOOO+@#*111>*>>>1113111>>>>>>1111111311133311131<<<1<<>>>>><<113111>>>*>111*%@+OOOOXXoXoo444444444444444444444444",
"44444444444444444444444.XoOOOo+O+@$%*>>111>>>1113311111>>>111111133313333313331111<<<<<<<<<1133111>>>111>>*%$@+O+oOOOoX.44444444444444444444444",
"44444444444444444444444.XoO+OO+++@##*>>111111111331111111111111111331333331331111111111<<<11133111111111>>*%#@+++OO+OoX.44444444444444444444444",
"444444444444444444444444X4O++@@@@##%**>2131111113311111113313311133111333111331113313311<11113311111131>>**%##@@@@++O4X444444444444444444444444",
"444444444444444444444444OOO+@@$$@#%*>>>>133333313311111113333331313331333133313133333311111113313333331>>>>*%#$$@@@+OOO444444444444444444444444",
"44444444444444444444444XXO+@@#$$$%**>>>1133333333313111113333333333333333333333333333311111313333333331<>>>**%%$$#@@+OXX44444444444444444444444",
"444444444444444444444.4XXoO+@#$$$*>>>>>1113333333333111333333311113333333333311113333333111333333333311<>>>>>**%##@+OoXX4.444444444444444444444",
"44444444444444444444XX.XXXOO+@@@#%*>>>11133333333333111133333331111333333333111133333331111333333333331<,>>>**%@@@+OOXXX.XX44444444444444444444",
"444444444444444444444XXo+O++@@###*>>1,,1133333333133333333333333333333333333333333333333333331333333331,<<>>>**%#@@++O+oXX444444444444444444444",
"444444444444444444444XoO@+@@##%***>>>,,<11333333333333333333333333333333333333333333333333333333333331<<<<>>>***%##@@+@OoX444444444444444444444",
"44444444444444444444XOO++@##%%*:>>>,,,<<111333333333333333333333333333333333333333333333333333333333111<<<<<>>>:*%%##@@+OOX44444444444444444444",
"44444444444444OoOOOOO+++++@#**>>>>>>,<<11133333333333333333333333333333333333333333333333333333333333111<<,<>>>>>**#@#+@++OOOOOoO44444444444444",
"4444444444444oo+OO+++++@@@#*>>><>>>,,<131313333333333333333333333333333333333333333333333333333333331313<<<<<>>>>>>*#@#@@++++OO+oo4444444444444",
"444444444444O4o++++++@@##%**,><<<<,<<<33333333333333333333333333333333333333333333333333333333333333333331<<<<:>>>>>*%###@#+++++o4O444444444444",
"444444444ooOo@+#@#@+@@@$%*>>,,<<<<<11113313333333333333333333333333333333333333333333333333333333333313311<<1<<<<<>>>*%$@#@+@#@#+@oOoo444444444",
"4444444+OOO++++@@@@@+##%*>>>>><<331111111133333333333333333333333333333333333333333333333333333333333111111113<<:<<>>>*%##+@#@@#++++OOO+4444444",
"444444+O+++@+##@+####%%*>>>>,,<<3331111331133333333333333333333333333333333333333333333333333333333311331131333<31<>>>>*%%####+@###@#++O+444444",
"444444@@@@@@@##%%%%%%>>>>,,,,,,<333133333333333333333333333333333333333333333333333333333333333333333333333133<<11<><<>>>>*&%%%%##@@@#@@@444444",
"44444+@@@@$-%->>>>>>>>>>>,,,,,,<<3333333333333333333333333333333333333333333333333333333333333333333333333333311111<<><<<>>><>>>>-%$$$$##+XX444",
"444==---->>>>>>>>,,,<<<13<,,1,,<<33333333333333333333333333333333333333333333333333333333333333333333333333333<<111<<<<<<<,,1<,>>>>-------==444",
"===--->>>:>>>>>,,,1<<<<333,,3:,<<11333333333333333333333333333333333333333333333333333333333333333333333333311113<3<<<<,,,<,<<,,,>>>>>>>>>--===",
"===--->>>>>>>>>,,<<<<<1<<3<,1,,<1333333333333333333333333333333333333333333333333333333333333333333333333333333<<113<<,,<<>,>,,<,>>>>>>>>>--===",
"444==---->>>>>>>>,,<<<<<<<<,,:,1<333333333333333333333333333333333333333333333333333333333333333333333333333331111<1<<<,<<,,,<<<,>>-------==444",
"44444+@@@@$-%->>>>>>>>>>><,,,,,<<333311331133333333333333333333333333333333333333333333333333333333311331133331111<<<,<,>>>>>>>>>-%$$$$$#+XX444",
"444444@@@@@@@##%%%%%%>>>>>,,:,1<333111111133333333333333333333333333333333333333333333333333333333333111111131111<1<<<<>>>>*%%%%##@@@@@@@444444",
"444444+O+++@+##@+####%%*>>>,,,,<<33111133133333333333333333333333333333333333333333333333333333333333133111131111<<<<>>>*%$###+@##+@+++O+444444",
"4444444+OOO++++@@@@@+##%*>>>>><<331111333333333333333333333333333333333333333333333333333333333333333333313,11<<<<>>>>*%%$+@@@@@++++OOO+4444444",
"444444444ooOo@+#@#@+@@@$%*>>>><<<<1<<113131333333333333333333333333333333333333333333333333333333333131311<<<<<<>>>>>*%$@#@+@#@#+@oOoo444444444",
"444444444444O4o++++++@@##%***>>><,,<<111113333333333333333333333333333333333333333333333333311333333311113<,,,<<>>>>*%###@++++++o4O444444444444",
"4444444444444oo+OO+++++@@@#*>>>>>>,<<<,111133333333333333333333333333333333333333333333333333113333311133<<;>>>>>>>*#@#@+#+++OO+oo4444444444444",
"44444444444444OoOOOOO+++++@#**>>>>,,,<111111133333333333333333333333333333333333333333333333331333333111<,:,>>>>>**#@#+#++OOOOOoO44444444444444",
"44444444444444444444XOO++@##%%*:>>>,,1<1133333333133333333333333333333333333333333333333333331133333311,,,,>>>>:*%%##@++OOX44444444444444444444",
"444444444444444444444XoO@+@@##%***>>>><<<33333333333333333333333333333333333333333333333333333133333311,,,,>>>**%%##@+@OoX.44444444444444444444",
"444444444444444444444XXo+O++@@###*>>>>>11133333333333333333333333333333333333333333333333333331133333111,>>>>*%%$@@++O+oXX.44444444444444444444",
"44444444444444444444XXXXXXOO+@@@#%*>*>>11333333333133333333333333333333333333333333333333333133113333311>>*>*%%%%#+OOXXXX.444444444444444444444",
"444444444444444444444.4XXoO+@####*>>*>>>1333333133133333333333333333333333333333333333333333133111333311>>*>>*%%##@+OoXX..444444444444444444444",
"44444444444444444444444XXO+@@##$$%**%*><1311111133111111133133111331113331113311133133111111133111111311>*%**%$$$#@@+OX.44444444444444444444444",
"444444444444444444444444OOO+@@@#@#%%%*>,,,,<111133111111111111111133133333133111111111111111133111111111>*%%%#@$@@@+OOO444444444444444444444444",
"444444444444444444444444X4O++@@@@##$%*>,<<,,,1113311111>2>1111111333133333133311111111111111133111>>>111>*%$##@@@@++OXX444444444444444444444444",
"44444444444444444444444.XoO+OO+++@###*<<<>>,,>1113111>>>>>>111111131113331113111111111>1>11113111>>>>>111**##@+++OO+OoX.44444444444444444444444",
"44444444444444444444444.XoOOOo+O+@#$%*>******>>11311>>>>>>>>111111111133311111111111>11>1>>11311>>******>*%$#@+O+oOOOoX.44444444444444444444444",
"444444444444444444444444ooXoXXOOOO+@@%**%$#%*>>>1311>>>>>>>111>11111113331111111>1>1>>11>>11131>>>*&%%&**%@@+OOOOXXoXoo444444444444444444444444",
"444444444444444444444444.o 4XXXOX+O@##$$#+@$%**>1311>>>>>>>>*>1111131331331311111>***>>>>>>1131>**&$%$#$###@O+XOXXX. o.444444444444444444444444",
"444444444444444444444444..4.XoXXXO+@@#@+$@$#%%%*231<>>>>>>>**>>11133313131333111>>****>>>>><132*&%%$#@#@@#@@+OXXXoX....444444444444444444444444",
"44444444444444444444444444..4XXXOO++++++++@##%%&*<1>*>>******>1>>1313111113131>>>**%%***>>*>1<**%%##@@+@+++++OOXXXX..44444444444444444444444444",
"44444444444444444444444444XX44XoXOOOO++OOO+@$#$&&<<<%**%%###%*>>>111111111111>>>>*%###%&**&<<<*&$##@+OOO++OOOOXoXXXXX44444444444444444444444444",
"444444444444444444444444444Xo4oXo+ooOOOOOO+@@@#&&<1>%###$#$#%%*>>231111311113>>>*%%#@#$$&&%>1<&&#@@@+OOOOOOoo+oXoXoX444444444444444444444444444",
"44444444444444444444444444Xo4...ooooOOOOO++@@#$-&31&##$@$#@@$%%>>>>111131111>>>>%%#@@$#@$$#&13&-$#@@++OOOOOoooo...XoX44444444444444444444444444",
"44444444444444444444444444.X4o.oXoooXOOoOO++@+@%%><>#@@@@@$$#%%*&>>>1113111>>>&*%%#@+@@####><>%%@+@++OOoOOXoooXo.oXX.44444444444444444444444444",
"4444444444444444444444444444ooXXXooooXoXoO+O@+@#%><%#@@+++O+@$#%%*>>1111111>>>%%##@+O#O#+@#%<>%#@+@O+OoXoXooooXXXoo.444444444444444444444444444",
"444444444444444444444444444.X4X.4.XXXoXXXOOO+++#$>3-$@@++OO+@#@#%*>>1313131>>*%#@#@+Oo+###$-3>$#+++OOOXXXoXXX...XXX.444444444444444444444444444",
"444444444444444444444444444444X4.X4X4oo4XOO+++@@$>2%@+@+OoXO+@+@%%*>>33133>>*%%@+@+OXoo+O+@%2>$@@+++OOX.oo.X.X.4XX44444444444444444444444444444",
"4444444444444444444444444444.4..44.4Xo.44.OO4+@@#%>$#+@+ooX+@++@#%%*>>111>>*%%#@++@+XooO+O#$>*#@@+oOO....oX..4444444444444444444444444444444444",
"444444444444444444444444444444444444.X44XXOO+++@#%>$@@@44XXoO++@#$%%>>131>>%%$#@++OoXX44@+@$>&#@+++OOXX44X4444444444444444444444444444444444444",
"4444444444444444444444444444444444444.44XXO4+444#%>#@@+44444OO+@@@#%>>333>>%#@@@+O444444+@@#>%#++o+4OXX44.4444444444444444444444444444444444444",
"44444444444444444444444444444444444444444XX444++@#%@@++444444O++@@#%>>333>>%#@@++O444444++@@*#@++oo4XX44444444444444444444444444444444444444444",
"444444444444444444444444444444444444444444444+4@@#-#@@44444444O++@+#%>131>%#+@++OX4444444@@#&#@@o+444X44444444444444444444444444444444444444444",
"444444444444444444444444444444444444444444444444@#%#4@+4444444O+++@#%>111>%#@+++O4444444+@+#%#@oo4444444444444444444444444444444444444444444444",
"44444444444444444444444444444444444444444444444+4+#@@4+4444444O++@@#%>131>%#@@++O4444444++@@#+@+44444444444444444444444444444444444444444444444",
"4444444444444444444444444444444444444444444444444@#4+O444444444O+#@#%>>3>>%#@#+OX44444444O++@@4444444444444444444444444444444444444444444444444",
"44444444444444444444444444444444444444444444444444@+o4444444444O+@@+%>>1>>%+@@+O4444444444o+@@4444444444444444444444444444444444444444444444444",
"44444444444444444444444444444444444444444444444444+444444444444o+#@@%>>1>>%@@#+o44444444444++44444444444444444444444444444444444444444444444444",
"4444444444444444444444444444444444444444444444444444444444444444++@##>>>>>##@++4444444444444444444444444444444444444444444444444444444444444444",
"44444444444444444444444444444444444444444444444444444444444444444@@##->>>-##@@44444444444444444444444444444444444444444444444444444444444444444",
"44444444444444444444444444444444444444444444444444444444444444444@+@@%>>>%@@+@44444444444444444444444444444444444444444444444444444444444444444",
"444444444444444444444444444444444444444444444444444444444444444444+@#->>>-#@+444444444444444444444444444444444444444444444444444444444444444444",
"444444444444444444444444444444444444444444444444444444444444444444++@$>>>$@++444444444444444444444444444444444444444444444444444444444444444444",
"444444444444444444444444444444444444444444444444444444444444444444++@@>>>@@++444444444444444444444444444444444444444444444444444444444444444444",
"4444444444444444444444444444444444444444444444444444444444444444444+@@->-@@+4444444444444444444444444444444444444444444444444444444444444444444",
"4444444444444444444444444444444444444444444444444444444444444444444+@#->-#@+4444444444444444444444444444444444444444444444444444444444444444444",
"4444444444444444444444444444444444444444444444444444444444444444444+@#->-#@+4444444444444444444444444444444444444444444444444444444444444444444",
"44444444444444444444444444444444444444444444444444444444444444444444@#->-#@44444444444444444444444444444444444444444444444444444444444444444444",
"44444444444444444444444444444444444444444444444444444444444444444444+#=>=#+44444444444444444444444444444444444444444444444444444444444444444444",
"444444444444444444444444444444444444444444444444444444444444444444444@=-=@444444444444444444444444444444444444444444444444444444444444444444444",
"444444444444444444444444444444444444444444444444444444444444444444444+#=#+444444444444444444444444444444444444444444444444444444444444444444444",
"4444444444444444444444444444444444444444444444444444444444444444444444#=#4444444444444444444444444444444444444444444444444444444444444444444444",
"4444444444444444444444444444444444444444444444444444444444444444444444#=#4444444444444444444444444444444444444444444444444444444444444444444444"
};
