/* XPM */
static char *result[] = {
/* columns rows colors chars-per-pixel */
"133 7 19 1 ",
"  c #27531B",
". c #2F6323",
"X c #37732B",
"o c #3F832F",
"O c #439337",
"+ c #4B9F3F",
"@ c #53AF47",
"# c #5BBF4F",
"$ c #5FCF57",
"% c #67DF5F",
"& c #6FEF67",
"* c #77FF6F",
"= c #D7BB43",
"- c #EBDB57",
"; c #FFFF73",
": c #FFFFD7",
"> c #EFEFEF",
", c white",
"< c #00FF00",
/* pixels */
"<<<<<<<<<<<<<<<<<<<<<<<<<<<<<<<<<<<<<<<<<<<<<<<<<<<<<<<<<<<<<+@$$$@O<<<<<<<<<<<<<<<<<<<<<<<<<<<<<<<<<<<<<<<<<<<<<<<<<<<<<<<<<<<<<<<<<",
"<<<<<<<<<<<<<<<<<<<<<<<<<<<<<<<<.@@@@+X++++++@$oOoo<ooO++++@$;;,:,,;;$@++++Ooo<<<<o+O+##@O@OXXXX....<<<<<<<<<<<<<<<<<<<<<<<<<<<<<<<<<",
"<<<<<<<<<<<<<<<<<<<<..oO+oXoXo+@@$:::;;;;;:::,::::::::::::,,,:,,,,,,:,,,:::::::;>;:::::,,:::;;;;;;;*#@@OOOOO+o<<<<<<<<<<<<<<<<<<<<<<<",
"==---;;;;;;;;;;:::,,:,,,::::::,,,,,,,,,,,,,,,,,,,,,,:,::,,,,,,,,,,,,,,,,,,::,:,,,:,,,,,,,,,,,,,,,,,,,,,,,:::,,,,,::::::;;;;;;;;;;;;--",
"<<<<<<<<<<<<<<<<<.<.XXoOO@@O@&*;;;;:,,,,,,:,,:::::,,,,,,,,,,,,,,,,,,,,,,,,,,,,,:::*:,:,,,,,,,,;;;;;*%#@OOOooOXX<<<<<<<<<<<<<<<<<<<<<<",
"<<<<<<<<<<<<<<<<<<<<<<..<..<<..Xo.@@ ooooOO+$@@+oOXo++o+#-;;;,,::,,;;;-#+o++oXXooOoO###@o+ooOOoX<oo<X<X.<XX<<<<<<<<<<<<<<<<<<<<<<<<<<",
"<<<<<<<<<<<<<<<<<<<<<<<<<<<<<<<<<<<<<<<<<<<<<<<<<<<<<<<<<<oooo@$$@@ooo<<<<<<<<<<<<<<<<<<<<<<<<<<<<<<<<<<<<<<<<<<<<<<<<<<<<<<<<<<<<<<<"
};
