/* XPM */
static char *result[] = {
/* columns rows colors chars-per-pixel */
"81 70 39 1 ",
"  c #27531B",
". c #2F6323",
"X c #37732B",
"o c #53573B",
"O c #675333",
"+ c #775F3F",
"@ c #AF7B1F",
"# c #8F5F37",
"$ c #9B633B",
"% c #8B735B",
"& c #AB6F43",
"* c #937B63",
"= c #3F832F",
"- c #439337",
"; c #4B9F3F",
": c #53AF47",
"> c #5BBF4F",
", c #5FCF57",
"< c #67DF5F",
"1 c #6FEF67",
"2 c #77FF6F",
"3 c #C39B2F",
"4 c yellow",
"5 c #9F8363",
"6 c #D7BB43",
"7 c #EBDB57",
"8 c #FFFF47",
"9 c #FFFF6B",
"0 c #FFFF73",
"q c #FFFF8F",
"w c #FFD3BB",
"e c #FFFFB3",
"r c #FFDBC7",
"t c #FFEBDB",
"y c #FFEBDF",
"u c #FFFFD7",
"i c #EFEFEF",
"p c white",
"a c #00FF00",
/* pixels */
"aaaaaaaaaaaaaaaaaaaaaaaaaaaaaaaaaaaaaaaaa.aaaaaaaaaaaaaaaaaaaaaaaaaaaaaaaaaaaaaaa",
"aaaaaaaaaaaaaaaaaaaaaaaaaaaaaaaaaaaaaaaaa=aaaaaaaaaaaaaaaaaaaaaaaaaaaaaaaaaaaaaaa",
"aaaaaaaaaaaaaaaaaaaaaaaaaaaaaaaaaaaaaaaaX=aaaaaaaaaaaaaaaaaaaaaaaaaaaaaaaaaaaaaaa",
"aaaaaaaaaaaaaaaaaaaaaaaaa===aaaaaaaX.aaX==Xaa.Xaaaaaaa===aaaaaaaaaaaaaaaaaaaaaaaa",
"aaaaaaaaaaaaaaaaaaaaaaaaa==-=Xaaaaa.X =X=-X=-X=aaaaaX=-==aaaaaaaaaaaaaaaaaaaaaaaa",
"aaaaaaaaaaaaaaaaaaaaaaa.===--==aa.aXX-==--===-Xa=aa==-;===aaaaaaaaaaaaaaaaaaaaaaa",
"aaaaaaaaaaaaaaaaaaaaaaaX-=---===X==-==-=-==;=;=-=X==;-;-=-aaaaaaaaaaaaaaaaaaaaaaa",
"aaaaaaaaaaaaaaaaaaaaaaaa==---===---==--=--=--==---;==;;-==aaaaaaaaaaaaaaaaaaaaaaa",
"aaaaaaaaaaaaaaaaa.a=.aa.=-=---==-;-==-;-;>-;-;=-;-==-:;;-==aa-==aaaaaaaaaaaaaaaaa",
"aaaaaaaaaaaaaaaaa=====a.==--;-=-=-;=----:>--;-=--;-=-;;:===a=-=-===aaaaaaaaaaaaaa",
"aaaaaaaaaaaaaa. ----=-=-;==-;;-==-==;--;>1;---==-==-;>-==;-=-=----X.aaaaaaaaaaaaa",
"aaaaaaaaaaaaaaXX =====;==;--;;-=-==-=-;>>4>;-=-==-=-;:--;==;=====-XXaaaaaaaaaaaaa",
"aaaaaaaa.XaaaXXXXX-;====;=-;->;-=;=;=-;>>8>;-=;=;=-;;>;-=;==-=;-XXX=X%a.aaaaaaaaa",
"aaaaaaaaaaXX.X======--;;=:---;;-==;==;:,89,:;==;==-;>:--:=;;--======X.=a.aaaaaaaa",
"aaaaa%.XaaX.X=-==;==:-:-;-:-;:>;;;=-;;>8qq8>;;-=;;;>:;-:-;-:-:==;==-=X-XXaXaaaaaa",
"aaaaaaXXXXXX-=====--;:;:::-:>,>:;-:-::,qqq4,::-:>;:><>:-:::;:;--=====-X=XXXaaaaaa",
"aaaaaaXaX-=-==-=-=-;:;:,:,,-:>>>::-:;>4qqqq4>;:<::<><:>,,:,:;:;-=-=-==-=-XXXaaaaa",
"Xa.aao.XX===;=-=;=-:-,:<,<,,:,<<>,:>:>4qqqq4>:<:,><<>1,,<,<:,-:-=;=-=;===XXaaaaaa",
"a=+#OXXX=-====;;==;=>:<,<,<:,>,,,>,:>4qqupuq4>:<>,2,<111,<,<:>=;==;;==-=--XXXaaaa",
"aaa$#======--=;=;=;:,>,<2q22,,22<,,,9eupuupqq92<2222,2221,<<>,:;=;=;=--======aaaa",
"aaa@33;-=-;=;=;-;,:>:><q22qqq<244q999ueepppeqqq9qqr2<qqq221<>:>:,;-;=;=;-=-;33@aa",
"aaa@336:-----:-:;:,>,,22q2q9eqqq9q9yuupupuupeuqqqeqqqeu99922<,>,:;:-:-----:633@aa",
"aa.X@366::3&3-:,:,>,<,2eeepyyy9pupiuuppppppppeeeeepueeee00922<,>,:,:-33336663@X.a",
"aaXX=-36776666,:,><1,12uiyipuuupupupuuppppppuupupupuuupeee0222,<>,:,66667763-=XXa",
"aaaa.==379999766671rruuiuppuppuppppppppppppppppppppuppupeu00000776660999973==-aaa",
"aaaaa==;679pqq07771yeuuuipuppppuppppppppupppppppppuppppupuuuue007700qqp976;==XXaa",
"aaaa X-;369eeppqqeeeypuippppppppppppppppppppppppppppppppppuuuueeeqqppee963;-X=aaa",
"aa. .==-367qpeepppeuyppuppppppppppppppppppppppppppppppppppuupuue0ppeepq763-==X .a",
"aaaX XX--367qqpepeppupuppppppppppppppppppppppppppppppppppppupuppepepqq763--XX=Xaa",
"aaaaaX==-;367tppepppuppppppppppppppppppppppppppppppppppppppppupppeppt763;-==X .aa",
"aaaa.===-;;56qqpepppppppuppppppppppppppppppppppppppppppppupppppppepqq63;::===.aaa",
"aaa.XX==-;;:>1qqppppppppppppppppppppppppppppppppppppppppppppppppppqq1>:;:-=-XXaaa",
"aaaa.=X=-;;;:,qquuppppppppppppppppppppppppppppppppppppppppppppppuuq4,>>>;-=X=a.aa",
"aaa. =-;=--;:,qeupeppppppppppppppppppppppppppppppppppppppppppppepue81>;:-=;-=XXaa",
"aa..XX==;---::etuyppppppppppppppppppppppppppppppppppppppppppppppyueq2,>->;====...",
"a..XX---=-;;>,euupuppppppppppppppppppppppppppppppppppppppppppppupueq2,>>-=---XX.a",
"aaaX =-;=--;:,qeupeppppppppppppppppppppppppppppppppppppppppppppepue81>>:-=;-=X.aa",
"aa.a.=X=-;;;:,qquuppppppppppppppppppppppppppppppppppppppppppppppuuq4,>;:;:=X=.a.a",
"aaaaXX==-;;:>1qqppppppppppppppppppppppppppppppppppppppppppppppppppqq13:>:-==X..aa",
"aaa..===-;;56qqpepppppppuppppppppppppppppppppppppppppppppupppppppepqq63;;-:==aXXa",
"aaa. X==-;367tppepppuppppppppppppppppppppppppppppppppppppppppupppeppt763::==XX. a",
"aa.a XX--367qqpepeppupuppppppppppppppppppppppppppppppppppppupuppepepqq763--XXXXaa",
"aaa..==-367qpeepppeuyppuppppppppppppppppppppppppppppppppppuppyuepppeepq763-==.X.a",
"aaa. X-;369eeppqqeeeypuippppppppppppppppppppppppppppppppppeupyeeeqqppee963;-XXaaa",
"aaa.X==;679pqq07771yeuueepuppppuppppppppupppppppppuppppupeuuuey17770qqp976;==XXaa",
"aaa*.==379999766671rruueeppuppuppppppppppppppppppppuppuppueuurr176667999973==.aaa",
"aaXX=-36776666,:,><1,12ueeipuuupupupuuppppppuupupupuuupieeu21,1<1,:,66667763-=XXa",
"aa.X@366::3&3-:,:,>,<,2eeeeeeeepueeeepppppppppuipupeeeepeee2,11>,:,:-333::663@X.a",
"aaa@336:-----:-:;:,>,,22q2qeeqqeeq9qqepupuupiqy9qqqqqe1q2q221,1,:;:-:-----:633@aa",
"aaa@33;-=-;=;=;-;,:>:><q22qqq<2rqq9q9qeppppyq929qq22<qqq222<>:>:,;-;=;=;-=-;33@aa",
"aa.$#======--=;=;=;:,>,<2q222<222,119eepuupuu922<222,222<2<,>,:;=;=;=--======#$.a",
"a=+#OXXX=-====;;==;=>:<,<,<:,<2<,>1114ry9pyr4<<<,<2,>,:<,<,<:>=;==;;====-=XXXO#+a",
"Xaaaao.XX===;=-=;=-:-,:<,<,,:><<>,:>11799u97<,,,,><<>:,,<,<:,-:-=;=-=;===XX.oaa.a",
"aaaaaaXXX-=-==-=-=-;:;:,:,,-:<>>::-:,148iu84,,:-::><>:-,,:,:;:;-=-=-==-=-XXXaaaaa",
"aaaaaaXXXXXX-=====--;:;:::-:>>>:;-:-::118p7,,:-:-;:>>>:-:::;:;--=====-XXXXXXaaaaa",
"aaaaaa.XaaX.X=-==;==:-:-;-:-;::;;;=-;;>1w9u>;;-=;;;::;-:-;-:-:==;==-=X.XXaa.%aaaa",
"aaaaaaaaa.XX.X======--;;=:---;;-==;==;:,19,:;==;==-;;---:=;;--======X.XX.aaaaaaaa",
"aaaaaaaaaX.aaXXaXX-;====;=-;-;;-=;=;=-;>1e>;-=;=;=-;;-;-=;====;-XXXXX%a.Xaaaaaaaa",
"aaaaaaaaaaaaaaXX =====;==;--;;-=-==-=-;>11,;-=-==-=-;;--;=======. XXaaaaaaaaaaaaa",
"aaaaaaaaaaaaaaa ----=-=-;==-;;-==-==-=-;>,;---==;==-;;-==;-XX=--...aaaaaaaaaaaaaa",
"aaaaaaaaaaaaaa========a.==--;-=-=--=-==-:>>---;--=-=-;--==.aX=XXX==aaaaaaaaaaaaaa",
"aaaaaaaaaaaaaaaaa.==.aa.=-=---==---X==--;>--X=----==---=-=.aaX==X.aaaaaaaaaaaaaaa",
"aaaaaaaaaaaaaaaaaaaaaaaa==---===--===--=--=---=---===---==aaaaaaaaaaaaaaaaaaaaaaa",
"aaaaaaaaaaaaaaaaaaaaaaaX-=---===X=a=X===-=-=X=-==X===---=-Xaaaaaaaaaaaaaaaaaaaaaa",
"aaaaaaaaaaaaaaaaaaaaaaa.===--==aa.aaX.==--=-XXXa.aa==--===.aaaaaaaaaaaaaaaaaaaaaa",
"aaaaaaaaaaaaaaaaaaaaaaaaa==-=Xaaaaa.Xa X=-XXaX.aaaaaX=-==aaaaaaaaaaaaaaaaaaaaaaaa",
"aaaaaaaaaaaaaaaaaaaaaaaaa===aaaaaaaa.aaa==Xaa.Xaaaaaaa===aaaaaaaaaaaaaaaaaaaaaaaa",
"aaaaaaaaaaaaaaaaaaaaaaaaaaaaaaaaaaaaaaaaX=aaaaaaaaaaaaaaaaaaaaaaaaaaaaaaaaaaaaaaa",
"aaaaaaaaaaaaaaaaaaaaaaaaaaaaaaaaaaaaaaaaa=aaaaaaaaaaaaaaaaaaaaaaaaaaaaaaaaaaaaaaa",
"aaaaaaaaaaaaaaaaaaaaaaaaaaaaaaaaaaaaaaaaa.aaaaaaaaaaaaaaaaaaaaaaaaaaaaaaaaaaaaaaa"
};
