/* XPM */
static char *result[] = {
/* columns rows colors chars-per-pixel */
"42 45 18 1 ",
"  c #3F832F",
". c #439337",
"X c #4B9F3F",
"o c #53AF47",
"O c #5BBF4F",
"+ c #5FCF57",
"@ c #67DF5F",
"# c #6FEF67",
"$ c #77FF6F",
"% c yellow",
"& c #FFFF23",
"* c #FFFF47",
"= c #FFFF6B",
"- c #FFFF8F",
"; c #FFFFB3",
": c #FFFFD7",
"> c white",
", c #00FF00",
/* pixels */
",,,,,,,,,,,,,,,,,oo,,,,,,,,,,,,,,,,,,,,,,,",
",,,,,,,,,,,,oo,,,,,o,,,,,,,,,,,,,,,,,,,,,,",
",,,,,,,,,,,,,,oO,,oOo,,,,,,,,,,,,,,,,,,,,,",
",,,,,,,,,,,,,,o+O@@@%,,,,,,,,,,,,,,,,,,,,,",
",,,,,,,ooo,,,,,@@+O+@=Oo,,,,,,,,,,,,,,,,,,",
",,,,,ooOOoo,,,,@+OXO@=OOo,,,,,,,,,,,,,,,,,",
",,,,oOoo,ooOO@@+ooO+@@&OOOO,,,,,,,,,,,,,,,",
",,,,oOOo,,,O,,oOOO+++&+OOO,O,,,,,,,,,,,,,,",
",,,,XooX,,,+,oOO+++++&+oO+,OO,,,,,,o,,,,,,",
",..,,oo,,,,+oo+&&+++++&+++ooO,,,,,o,,,,,,,",
".oo.,,,,,oo+&&&++&;+O++&&&++,O,,o@@,,,,,,,",
".o@o.,,,oo+&+++++++&;+&###&+o,OO@+,,,,,,,,",
",.o##$o,o++&++@@+++@;&#@++&+++O$@o,,,,,,,,",
",,,..##+++&+@@@@@@#@&$@@$+&+++>OOo,,,,,,,,",
",,,,oo$&&&++@@##$##$;$###@#&&&$+OOXX,,oO,,",
",,,,o+&+++@@@#$$#$$$&>$$#####>$++XXXO@@+O.",
",,,oo&++++@@##$$$;;&&$**$$$##>$@,,OO#Oo..,",
",,oXo&+++@@###$;::>;&:>**::@#>;&@,@##OO,,,",
",.XX+&+++&;;@$$:;;;;&>*>*$:&>:@@&@#&Oo.Xo,",
",.Xo++&+&@@@;-::::*>*>>*$$;&>$+@@&&OOo...o",
",X.o+++;+@@#->::>>>;-=>>>;&&:+@#OOOOo..o,,",
",,oo+++&,@@->-;>>>>>;>>::$:&:#@@OoXo.,,,,,",
",,Oooo+&+-@->-:::>:>::-::::$&@+Ooo..,,,,,,",
",,OOO,+&@@--->>:>>::>>-::$$@&:+OOo.,,,,,,,",
",,Ooo,+&+@@-->:>:>:::::>>--&&:+++Oooo,,,,,",
",,,ooXX+&&@$->::::::>:>-$-$$&&+>++O+oo,,,,",
",,,oXX,XX@&$@->->>*;;>--$$$$$&&&>>#..,,,,,",
",,,,X,,,X@&@@-->&->>;&-$$##@$&++&&o.,,,,,,",
",,,,X,,,X@&@>-#-&;;;;&---@#$&@+@Ooo.,,,,,,",
",,,,+,,,++>@>--;;;--$$@>-;$>&@@+oo.,,,,,,,",
",,,,,+o,o#+@>-;;$#$$$##@+*>+@@++o.,,,,,,,,",
",,,,,,+,,#++>+@&$$#$$@#@@*>++++OX.,,,,,,,,",
",,,,,,O+XXX&+++@&&+$@$#@@*>+o+,,. ,,,,,,,,",
",,,,,,,OX,,#+XXX++;;$#@++**>+,,. ,,,,,,,,,",
",,,,,,,OO,,##,,,Xo+;$@+++++$OOO.,,,,,,,,,,",
",,,,,,,,OO++#XX,,X+;;++OOoo$O..,,,,,,,,,,,",
",,,,,,,,,,,oO#+XXX++*+++O ,O$O,,,,,,,,,,,,",
",,,,,,,,,,,,O#++o+++;+OOX.,,O$O,,,,,,,,,,,",
",,,,,,,,,,,,@OOOooOO*;OOoo.,,#o,,,,,,,,,,,",
",,,,,,,,,,+@O,,O,,oOO*;OOOoo.o.,,,,,,,,,,,",
",,,,,,,Oo++,,,,OO,,OOO#ooOOXX. ,,,,,,,,,,,",
",,,,,,,,++o,,oo,OOO,,,O#O,,,.  ,,,,,,,,,,,",
",,,,,,,,,,ooo,,,oOo,,,,#o,,,,,,,,,,,,,,,,,",
",,,,,,,,,,,,o,,,o,,,,,,oo,,,,,,,,,,,,,,,,,",
",,,,,,,,,,,,,,,,oo,,,,o,,,,,,,,,,,,,,,,,,,"
};
