/* XPM */
static char *result[] = {
/* columns rows colors chars-per-pixel */
"139 67 49 1 ",
"  c #17330F",
". c #1F4317",
"X c #27531B",
"o c #2F6323",
"O c #37732B",
"+ c #B37347",
"@ c #BF7B4B",
"# c #CB7F4F",
"$ c #3F832F",
"% c #439337",
"& c #4B9F3F",
"* c #53AF47",
"= c #5BBF4F",
"- c #5FCF57",
"; c #67DF5F",
": c #6FEF67",
"> c #77FF6F",
", c #C39B2F",
"< c #FF8F3B",
"1 c #CF8353",
"2 c #D78B5B",
"3 c #D7BB43",
"4 c #FFA35B",
"5 c #DF9363",
"6 c #EFA373",
"7 c #F7AB7B",
"8 c #BFA78F",
"9 c gray67",
"0 c #B7B7B7",
"q c #E78F8F",
"w c #FFB383",
"e c #FFBB93",
"r c #FFBF9B",
"t c #F7ABAB",
"y c #FFB7B7",
"u c #FFC79B",
"i c #FFC7A7",
"p c #FFCFB3",
"a c #FFD3BB",
"s c #FFFFB3",
"d c gray78",
"f c #FFDBC7",
"g c #FFE3D3",
"h c #FFEBDB",
"j c #FFEBDF",
"k c #FFFFD7",
"l c #EFEFEF",
"z c white",
"x c #00FF00",
/* pixels */
"xxxxxxxxxxxxxxxxxxxxxxxxxxxxxxxxxxxxxxxxxxxxxxxxxxxxxxxxxxxxxxxxxxxx@xxxxxxxxxxxxxxxxxxxxxxxxxxxxxxxxxxxxxxxxxxxxxxxxxxxxxxxxxxxxxxxxxxxxxx",
"xxxxxxxxxxxxxxxxxxxxxxxxxxxxxxxxxxxxxxxxxxxxxxxxxxxxxxxxxxxxxxxxxxx+@xxxxxxxxxxxxxxxxxxxxxxxxxxxxxxxxxxxxxxxxxxxxxxxxxxxxxxxxxxxxxxxxxxxxxx",
"xxxxxxxxxxxxxxxxxxxxxxxxxxxxxxxxxxxxxxxxxxxxxxxxxxxxxxxxxxxxxxxxxxx@@xxxxxxxxxxxxxxxxxxxxxxxxxxxxxxxxxxxxxxxxxxxxxxxxxxxxxxxxxxxxxxxxxxxxxx",
"xxxxxxxxxxxxxxxxxxxxxxxxxxxxxxxxxxxxxxxxxxxxxxxxxxxxxxxxxxxxxxxxxx@##@xxxxxxxxxxxxxxxxxxxxxxxxxxxxxxxxxxxxxxxxxxxxxxxxxxxxxxxxxxxxxxxxxxxxx",
"xxxxxxxxxxxxxxxxxxxxxxxxxxxxxxxxxxxxxxxxxxxxxxxxxxxxxxxxxxxxxxxxxx@#4@xxxxxxxxxxxxxxxxxxxxxxxxxxxxxxxxxxxxxxxxxxxxxxxxxxxxxxxxxxxxxxxxxxxxx",
"xxxxxxxxxxxxxxxxxxxxxxxxxxxxxxxxxxxxxxxxxxxxxxxxxxxxxxxxxxxxxxxxx%2,42%xxxxxxxxxxxxxxxxxxxxxxxxxxxxxxxxxxxxxxxxxxxxxxxxxxxxxxxxxxxxxxxxxxxx",
"xxxxxxxxxxxxxxxxxxxxxxxxxxxxxxxxxxxxxxxxxxxxxxxxxxxxxxxxxxxxxxxO$%2342%$Oxxxxxxxxxxxxxxxxxxxxxxxxxxxxxxxxxxxxxxxxxxxxxxxxxxxxxxxxxxxxxxxxxx",
"xxxxxxxxxxxxxxxxxxxxxxxxxxxxxxxxxxxxxxxxxxxxxxxxxxxxxxxxxxxxxxxO$%1441%$Oxxxxxxxxxxxxxxxxxxxxxxxxxxxxxxxxxxxxxxxxxxxxxxxxxxxxxxxxxxxxxxxxxx",
"xxxxxxxxxxxxxxxxxxxxxxxxxxxxxxxxxxxxxxxxxxxxxxxxxxxxxxxxxxxxxx$O$&1441$$O$xxxxxxxxxxxxxxxxxxxxxxxxxxxxxxxxxxxxxxxxxxxxxxxxxxxxxxxxxxxxxxxxx",
"xxxxxxxxxxxxxxxxxxxxxxxxxxxxxxxxxxxxxxxxxxxxxxxxxxxxxxxxxxxxxx$$$&<44<$$$$xxxxxxxxxxxxxxxxxxxxxxxxxxxxxxxxxxxxxxxxxxxxxxxxxxxxxxxxxxxxxxxxx",
"xxxxxxxxxxxxxxxxxxxxxxxxxxxxxxxxxxxxxxxxxxxxxxxxxxxxxxxxxxxxxx$$%&<4w<&%$$xxxxxxxxxxxxxxxxxxxxxxxxxxxxxxxxxxxxxxxxxxxxxxxxxxxxxxxxxxxxxxxxx",
"xxxxxxxxxxxxxxxxxxxxxxxxxxxxxxxxxxxxxxxxxxxxxxxxxxxxxxxxxxxxxx$%%*4wu4*%%$xxxxxxxxxxxxxxxxxxxxxxxxxxxxxxxxxxxxxxxxxxxxxxxxxxxxxxxxxxxxxxxxx",
"xxxxxxxxxxxxxxxxxxxxxxxxxxxxxxxxxxxxxxxxxxxxxxxxxxxxxxxxxxxxxx$%%-7rp7-%%$$xxxxxxxxxxxxxxxxxxxxxxxxxxxxxxxxxxxxxxxxxxxxxxxxxxxxxxxxxxxxxxxx",
"xxxxxxxxxxxxxxxxxxxxxxxxxxxxxxxxxxxxxxxxxxxxxxxx%xxxxxxxxxxxx%%&*-7if7-&&%xxxxxxxxxxxxxxxxxxxxxxxxxxxxxxxxxxxxxxxxxxxxxxxxxxxxxxxxxxxxxxxxx",
"xxxxxxxxxxxxxxxxxxxxxxxxxxxxxxxxxxxxxxxxxxxxxxxx%xxxxxxxxxxxx$%&*-7pg7-*&%$%xxxxxxxxxxxxxxxxxxxxxxxxxxxxxxxxxxxxxxxxxxxxxxxxxxxxxxxxxxxxxxx",
"xxxxxxxxxxxxxxxxxxxxxxxxxxxxxxxxxxxxxxxxxxxxxxx%%%xxxxxxxxxx$*&%=-igki-=%&*$xxxxxxxxxxxx%%xx%xxxxxxxxxxxxxxxxxxxxxxxxxxxxxxxxxxxxxxxxxxxxxx",
"xxxxxxxxxxxxxxxxxxxxxxxxxxxxxxxxxxxxxxxxxxxxx%x%$%%xxxxxxxxx$%%&=-fjkf-=*%%$$xxxxxxxxxxx%&&xxxxxxxxxxxxxxxxxxxxxxxxxxxxxxxxxxxxxxxxxxxxxxxx",
"xxxxxxxxxxxxxxxxxxxxxxxxxxxxxxxxxxxxxxxxxxxxx%%&&&%xxxxxxxx$%*&&=-fkzf-=*&*%$xxxxxxxxx$%x&&xx%xxxxxxxxxxxxxxxxxxxxxxxxxxxxxxxxxxxxxxxxxxxxx",
"xxxxxxxxxxxxxxxxxxxxxxxxxxxxxxxxxxxxxxxxxxxxxx%x&&%%$xxxxx$%%&&*-ykkzky=**&%%$xxxxxxx%x%&*$&%xxxxxxxxxxxxxxxxxxxxxxxxxxxxxxxxxxxxxxxxxxxxxx",
"xxxxxxxxxxxxxxxxxxxxxxxxxxxxxxxxxxxxxxxxxxxxx%%&$*&%%%xxxx$%%$&*-akkkka-=*=%%$xxxxxxx%%x&=&%xxxxxxxxxxxxxxxxxxxxxxxxxxxxxxxxxxxxxxxxxxxxxxx",
"xxxxxxxxxxxxxxxxxxxxxxxxxxxxxxxxxxxxxxxxxxxxxxx%&=&%%%xxxx%%%&*-:fkkzkf-*=;*%%xxxxxxxx%$%q&$%x%xxxOxxxxxxxxxxxxxxxxxxxxxxxxxxxxxxxxxxxxxxxx",
"xxxxxxxxxxxxxxxxxxxxxxxxxxxxxxxxxxxxxxxxOxxxxx%$&;%$%$xxx$%%%*-:yfzkzzfy=&=;*%$Oxxxxx$$%$a*&$%xxxOOxxxxoxxxxxxxxxxxxxxxxxxxxxxxxxxxxxxxxxxx",
"xxxxxxxxxxxxxxxxxxxxxxxxxxxxxxxxxxxxxxxxOOxx$x$&*-$%$$xx$%&&*=>-ffzkzzff-*&==&%$$xxxx$&%&a=*xxx%x$OOxxoxxxxxxxxxxxxxxxxxxxxxxxxxxxxxxxxxxxx",
"xxxxxxxxxxxxxxxxxxxxxxxxxxxxxxxxxxxxxxxOO$xxxx$*=;&%&$x$$&&&->;;fhkzzkhf--=*;&&$$oxxx%&%*a=*%%$%$$OoxxOoxxxxxxxxxxxxxxxxxxxxxxxxxxxxxxxxxxx",
"xxxxxxxxxxxxxxxxxxxxxxxxxxxxxxxxxxxoOxxoO$xx$$%*=a*%&%x&*&%*>;-yfhkzkkhfy--;;=&*&OOxx%$&*f-&%%%x$%Xxxo$Oxoxxooxoxxxxxxxxxxxxxxxxxxxxxxxxxxx",
"xxxxxxxxxxxxxxxxxxxxxxxxxxxxxxxxxoxO$oxxX%xx$%%&-f*&$%O$&&$;;-;fhzzkkzzhfy;-;-&&$OOOO%$%=ly*$&%$%%$Ox$$xOxOoxOOxxoxxxxxxxxxxxxxxxxxxxxxxxxx",
"xxxxxxxxxxxxxxxxxxxxxxxxxxxxOOxxOxO$$$xO$%%$$&$*yl=%$%%&&**;>>agkzkkzkzkga>=*;=&&%$$O&%*azf*&$$%%$$oO$$OOoxoOOxxoxxxxxxxxxxxxxxxxxxxxxxxxxx",
"xxxxxxxxxxxxxxxxxxxxxxxxxxxxOOOoxoOO$$Oo$$$$$$&*fz;*%&$%&=;->;fhkkkzkkkkhf>-=*==%$%&$%&&asj=*&$&$&$$$$$$$xxOOx$xxxxxxxxxxxxxxxxxxxxxxxxxxxx",
"xxxxxxxxxxxxxxxxxxxxxxxxxxxx$$OOO$$$$$$$$&$*&&*=js--=%$%=-;>;fghkkkkzkkkhgf;;==-=&&*&&%&asj-=%$&%*%$$$%$$$O$o$xOxoxxxxxxxxxxxxxxxxxxxxxxxxx",
"xxxxxxxxxxxxxxxxxxxxxxxxxxxxx$o$O$$$%$$$$%**$%=-js;-=-==--;;ghzkkkkkzkkkkjhg>;---=**&&=;akz;==***%*%%$%%$$$ooox$Oxxoxxxxxxxxxxxxxxxxxxxxxxx",
"xxxxxxxxxxxxxxxxxxxxxxxxxxxxxooo$$$%%$%%***&&*;;zk:*------zzzzzkkkkkzkkkkzlha>;--==**=;=jks:;*=&&%=*&%&**&$O$x$Oxxxxxxxxxxxxxxxxxxxxxxxxxxx",
"xxxxxxxxxxxxxxxxxxxxxxxxxxxO$x$O$&%$$$%*&%&*&*;:skj==--==;azzzzkkkkkkkkkkzzjfgf----=-;;-jks:;-*-==$-**&$*&o$oXxOOxxxxxxxxxxxxxxxxxxxxxxxxxx",
"xxxxxxxxxxxxxxxxxxxxxxxxxxxOxxo$o&&$&%*&$%*=*=;:skj-*--*=>fgzkzkzkkkkkkzkzkhhkh:::-;>;;;jksj>>->=*=*$$%&=&%OoXXooxxxxxxxxxxxxxxxxxxxxxxxxxx",
"xxxxxxxxxxxxxxxxxxxxxxxxxxxoxooo$&&&%%**$&==-;:jskj;;-gu-yfhkkzzzkzzkzkzzzkkkgy:ug>;;:yfskzl:;>;*-*$$%*==$OOOXXXooxxxxxxxxxxxxxxxxxxxxxxxxx",
"xxxxxxxxxxxxxxxxxxxxxxxxxxxoO$Oo$&&**%**&&=->::lzksfy>hh:fghkkkzkzzzkzzkzkkkkkfhhhf88rfgkkzkhf;:-:-:=*==*&oOoXXXo$oxxxxxxxxxxxxxxxxxxxxxxxx",
"xxxxxxxxxxxxxxxxxxxxxxxxx$Xxooo%&&&***=*&&=:;fhkzkkgfafkkkhkkkkkkkzzzzkkkkkkkhkkkfy99pghkkzkhhf:;;:->:;*$OOOooXXXxxxxxxxxxxxxxxxxxxxxxxxxxx",
"xxxxxxxxxxxxxxxxxxxxxxxxx$O$oo$%$&&&=;l=*&=>fhhkzkkhgfghkkkkkkkkkkzzzzkkkkkkkkkkhgf0dfhhkkzkkhha:-->gf:=*&$O$OoXXXXoxxxxxxxxxxxxxxxxxxxxxxx",
"xxxxxxxxxxxxxxxxxxxxxxxxO%%$$o%&$&===fk;-:>ahhkkzkkhhkhkkkkkkkzkkkzzzzkkkzkkkkkkkhggghhkkkzkkkhgf>fgkg-;*&$O$O$OoXXxxxxxxxxxxxxxxxxxxxxxxxx",
"xxxxxxxxxxxxxxxxxxxxxxxxx$%&$%&$$&**-kkkfffghkkkzkkkkkkkkkkkkzzzkzzzzzzkzzzkkkkkkkjlhkkkkkzzkkkhhjkkkf>:-**&%%%$ooXxxxxxxxxxxxxxxxxxxxxxxxx",
"xxxxxxxxxxxxxxxxxxxxxxxxox$&%%%****=>fkkkjhhkkkzzkkkkkkkkkkkkkzzkzzzzzzkzzkkkkkkkkkkkkkkkkzzkkkkkkkkkf>s;==*&%%$Oo$xxxxxxxxxxxxxxxxxxxxxxxx",
"xxxxxxxxxxxxxxxxxxxxxxxx$$$$%%**--==>fkkkkkkkkkzzkkkkkzkzzkkkzzkkkzzzzkkkzzkkkzzkzzkkkkkkkzzkkkkkkzklg>s:-*=*&&%$OXxxxxxxxxxxxxxxxxxxxxxxxx",
"xxxxxxxxxxxxxxxxxxxxxxxoo$$%%&*-*--:;glkzkkkkkkzzkkkkkzzzzzkzkzzzkzzzzkzzzkzkzzzzzzkkkkkkkzzkzzzzzzkjg>>:;-*==&$$OoXxxxxxxxxxxxxxxxxxxxxxxx",
"xxxxxxxxxxxxxxxxxxxxxoxoOO$%%*-**-;yfgjkzzzzzzkzzkkkkkzzzzzzzzzzzzzzzzzzzzzzzzzzzzzkkkkkzkzzzzzzzzzkkh>>>-*-*%$&%OoooXxxxxxxxxxxxxxxxxxxxxx",
"xxxxxxxxxxxxxxxxxxxxOXooOO%$*=;%*=;fghkkzzzzzzzzzkzkkkzzzzkkkkzzzzzzzzzzzzkkkkzzzzzzzkkkzzzzzzzzzzkkkhh>::-&-=%&&$OOooXxxxxxxxxxxxxxxxxxxxx",
"xxxxxxxxxxxxxxxxxxxxxX$$%&&%*==&*;>fhhkkkzzzzzzzzzzkkkzzzzzkkkkzzzzzzzzzzkkkkzzzzzzzkkkkzzzzzzzzzzzkkkhgg::---*&%&&$$OXxxxxxxxxxxxxxxxxxxxx",
"xxxxxxxxxxxxxxxxxxxxXX$%&*===*-=;>yghkkkzzzzzzzzzzzkkkzzzzzzkzzzzzzzzzzzzzzkzzzzzzzzzkkkzzkzzzzzzzzkkkkkfygs::-&%%&&%$OXXxxxxxxxxxxxxxxxxxx",
"xxxxxxxxxxxxxxxxooooOOO&*==*=;:>>yf:kkkkzzzzzzzzkzzkkkzzzzzzkkzzzzzzzzzzzzkkzzzzzzzzzzzkzzzzzzzzzzkkkkkhgffgs-:*%$%&=%%OoXXXoxxxxxxxxxxxxxx",
"xxxxxxxxxxxxxxXoOOOO%O&*;***=;>affghkkkkkzzzzzzzzzzkzzzzzzzzkzzzzzzzzzzzzzzkzzzzzzzkzzzzkzzzzzzzzkkkkkkkhhgfss>::=$$&=%%o..Xooxxxxxxxxxxxxx",
"xxxxxxxxxxxx.oOO$$%%%%&=;&*=:yafghhkkkkkkkzzzzzzzzkzzzzzzkkzzzzzzzzzzzzzzzzzzkkzzzkzkzzkzzzzzzzzzzkkkkkkkkhjgss>::=====*%$O. Xoxxxxxxxxxxxx",
"xxxxxxxxxxxoOOO$$%*%%%&*--=-;g:jhkkkkkkkkzzzzzzzzzzkzzzzzzzzzzzzzzzzzzzzzzzzzzzzzzzzkkzkzzzzzzzzzkzkzkkkkkkklffgs::*-**=-*%Oo Xoooxxxxxxxxx",
"xxxxxxxooooOO%$*%*&$&%*>::>;f:lzkkkkkkzkzkzzzzzzzzzkzkzkzkkzzzkzzzzzzzzzzkzzzkkzkzzkzzzzzzzzzzzzzzzzzzkkkzzzzjgfay;;*-**=-%&$OoOooo$xxxxxxx",
"xxxxxxXoOOOOo$$&%&&&$*->>yafgjzzzzkxxxxxxxxxxxxxxxxxxxxxxxxxxxxxxxxxxxxxxxxxxxxxxxxxxxxxxxxxxxxxxxxxxxxkzzzzzkhhgkk;;=-*==&%$OoXO$$oOxxxxxx",
"xxxxxooXO$$o$&&%O&**-;:kkkghhkzzzxxxxxxxxxxxxxxxxxxxxxxxxxxxxxxxxxxxxxxxxxxxxxxxxxxxxxxxxxxxxxxxxxxxxxxxxzzzkkkkkkfff>;-=**=&OX..O%%%xxxxxx",
"xxxxXoO%OXo$%&&===;::>>kkkkkkkkzxxxxxxxxxxxxxxxxxxxxxxxxxxxxxxxxxxxxxxxxxxxxxxxxxxxxxxxxxxxxxxxxxxxxxxxxxxkkkkkkzzhhfffay;;----=*$$$$oxxxxx",
"xxxXXX$O$$*2-5>::>yaff:hhzzkkkkxxxxxxxxxxxxxxxxxxxxxxxxxxxxxxxxxxxxxxxxxxxxxxxxxxxxxxxxxxxxxxxxxxxxxxxxxxxxkkkkkzzzkzzkkkffi7774<<1122@@xxx",
"xxx@@2211<<4777iffkkkzzkzzzkkkkxxxxxxxxxxxxxxxxxxxxxxxxxxxxxxxxxxxxxxxxxxxxxxxxxxxxxxxxxxxxxxxxxxxxxxxxxxxxzkkkzzzzzkkkkkkjgpirw44444,##@+x",
"x+@##,44444wripgjkkkkkkzzzzzkkkxxxxxxxxxxxxxxxxxxxxxxxxxxxxxxxxxxxxxxxxxxxxxxxxxxxxxxxxxxxxxxxxxxxxxxxxxxxxkzzzzzzzzzzzkkkkkgfpuw644433#@@+",
"+@@#334446wupfgkkkkkzzzzzzzzzzxxxxxxxxxxxxxxxxxxxxxxxxxxxxxxxxxxxxxxxxxxxxxxxxxxxxxxxxxxxxxxxxxxxxxxxxxxxxxxzzzzzzzzzzzkzzkkgfpuw444444#@@@",
"@@@#444444wupfgkkzzkzzzzzzzzzzxxxxxxxxxxxxxxxxxxxxxxxxxxxxxxxxxxxxxxxxxxxxxxxxxxxxxxxxxxxxxxxxxxxxxxxxxxxxxxkkkzzzzzkkkkkkjgpirw44443,##@+x",
"x+@##,34444wripgjkkkkkkzzzzzkkxxxxxxxxxxxxxxxxxxxxxxxxxxxxxxxxxxxxxxxxxxxxxxxxxxxxxxxxxxxxxxxxxxxxxxxxxxxxxxkkkkzzzkzzkkkffi7774<<1122@@xxx",
"xxx@@2211<<4777iffkkkzzkzzzkkxxxxxxxxxxxxxxxxxxxxxxxxxxxxxxxxxxxxxxxxxxxxxxxxxxxxxxxxxxxxxxxxxxxxxxxxxxxxxxxxkkkzzhhfffayttet;--=*&&%%xxxxx",
"xxxxx%%%$$*2-5tettyaff:hhzzkxxxxxxxxxxxxxxxxxxxxxxxxxxxxxxxxxxxxxxxxxxxxxxxxxxxxxxxxxxxxxxxxxxxxxxxxxxxxxxxxxxkkkhff;---====&&%%%$$$$xxxxxx",
"xxxxxx$$$$%%%&xxxxxxxxxxxxxxxxxxxxxxxxxxxxxxxxxxxxxxxxxxxxxxxxxxxxxxxxxxxxxxxxxxxxxxxxxxxxxxxxxxxxxxxxxxxxxxxxxxxxxxxxxxxxxx&&%%$$OOxxxxxxx",
"xxxxxxxOO$$%%xxxxxxxxxxxxxxxxxxxxxxxxxxxxxxxxxxxxxxxxxxxxxxxxxxxxxxxxxxxxxxxxxxxxxxxxxxxxxxxxxxxxxxxxxxxxxxxxxxxxxxxxxxxxxxxx%$$$$$xxxxxxxx",
"xxxxxxxx$$$$$xxxxxxxxxxxxxxxxxxxxxxxxxxxxxxxxxxxxxxxxxxxxxxxxxxxxxxxxxxxxxxxxxxxxxxxxxxxxxxxxxxxxxxxxxxxxxxxxxxxxxxxxxxxxxxxx%$ooxxxxxxxxxx",
"xxxxxxxxxxoo$xxxxxxxxxxxxxxxxxxxxxxxxxxxxxxxxxxxxxxxxxxxxxxxxxxxxxxxxxxxxxxxxxxxxxxxxxxxxxxxxxxxxxxxxxxxxxxxxxxxxxxxxxxxxxxxxooxxxxxxxxxxxx",
"xxxxxxxxxxxxoxxxxxxxxxxxxxxxxxxxxxxxxxxxxxxxxxxxxxxxxxxxxxxxxxxxxxxxxxxxxxxxxxxxxxxxxxxxxxxxxxxxxxxxxxxxxxxxxxxxxxxxxxxxxxxxxoxxxxxxxxxxxxx"
};
