/* XPM */
static char *result[] = {
/* columns rows colors chars-per-pixel */
"82 40 40 1 ",
"  c #27531B",
". c #2F6323",
"X c #37732B",
"o c #53573B",
"O c #675333",
"+ c #775F3F",
"@ c #AF7B1F",
"# c #8F5F37",
"$ c #9B633B",
"% c #8B735B",
"& c #AB6F43",
"* c #937B63",
"= c #3F832F",
"- c #439337",
"; c #4B9F3F",
": c #53AF47",
"> c #5BBF4F",
", c #5FCF57",
"< c #67DF5F",
"1 c #6FEF67",
"2 c #77FF6F",
"3 c #C39B2F",
"4 c yellow",
"5 c #D7BB43",
"6 c #EFA373",
"7 c #EBDB57",
"8 c #FFFF47",
"9 c #FFFF6B",
"0 c #FFFF73",
"q c #FFB383",
"w c #FFFF8F",
"e c #FFD3BB",
"r c #FFFFB3",
"t c #FFDBC7",
"y c #FFEBDB",
"u c #FFEBDF",
"i c #FFFFD7",
"p c #EFEFEF",
"a c white",
"s c #00FF00",
/* pixels */
"sssssssssssssssssssssssssssssssssssss.sss.ss.sssssssssssssssssssssssssssssssssssss",
"sssssssssssssssssssssssssssssssssssssssss=ssssssssssssssssssssssssssssssssssssssss",
"ssssssssssssssssssssssssssssssssssssss.sX=s.ssssssssssssssssssssssssssssssssssssss",
"sssssssssssssssssssssssss===sssssssX.ssX==Xss.Xsssssss===sssssssssssssssssssssssss",
"sssssssssssssssssssssssss==-=Xsssss.X  X=-X  X.sssssX=-==sssssssssssssssssssssssss",
"sssssssssssssssssssssss.===--==ss.sXX.==--==.XXs.ss==--===.sssssssssssssssssssssss",
"ssssssssss*ssssssssssssX-=---===X=======-========X===---=-Xssssssssssss*ssssssssss",
"ssssssssssssss.sssssssss==---===---==--=--=--==---===---==sssssssss.ssssssssssssss",
"ssssssssssssss....==.ss.=-=---==---==---;8---==---==---=-=.ss.==....ssssssssssssss",
"ssssssssssssss========s.==--;-=-=--=----:8----=--=-=-;--==.s========ssssssssssssss",
"sssssssssssss.. ----=-=-;==-;;-==-==---;>1;---==-==-;;-==;-=-=---- ..sssssssssssss",
"sssssssssssss..X =====;==;--;;-=-==-=-;>68>;-=-==-=-;;--;==;===== XXssssssssssssss",
"ssssssssssssssXXXX-;====;=-;-;;-=;=;=-;>qr>;-=;=;=-;;-;-=;====;-XXXXXsssssssssssss",
"ssssssssssss*X======--;;=:---;;-==;==;:,89,:;==;==-;;---:=;;--======%sssssssssssss",
"ssssss%s.Xs.ss*==;==:-:-;-:-;::;;;=-;;>ie9i>;;-=;;;::;-:-;-:-:==;==X.Xsssss.%sssss",
"ssssssXsXsXXs...==--;:;:::-:>>>:;-:-::,78a7,::-:-;:>>>:-:::;:;--===.s.Xs%ssXssssss",
"ssssssXXXs-s=XX.==-;:;:,:,,-:>>>::-:;>48pi84>;:-::>>>:-,,:,:;:;-=-=--X=s-XXXssssss",
"Xs.sso.XX==s=s-.X--:-,:<,<,,:>7<>,:>:>799i97>:>:,><7>:,,<,<:,-:-=;==;X===XX.oss.sX",
"s=+#OXXX=-===X=XX=;=>:<,<,<:,>,,,>,:>4tu9aut4>:,>,,,>,:<,<,<:>=;==;;====-=XXXO#+=s",
"ss.$#======--=;;=-;:,>,<2w222,222,,,9iiaiiaii9,,,222,222w2<,>,:;=;=;=--======#$.ss",
"s.*@33;-=-;=;=;-;,:>:><w22www<2tww9291uaaaau1929wwt2<www22w<>:>:,;-;=;=;-=-;33@*.s",
"sss@335:-----:-:;:,>,,22w2w1rwww2w9u2paiaiiap2u9w2wwwr1w2w22,,>,:;:-:-----:533@sss",
"% .X@355::3&3-:,:,>,<,2rrrauuu2aiapiaaaaaaaaaaipaia2uuuarrr2,<,>,:,:-3&3::553@X. %",
"ssXX=-35775555,:,><1,12ipupaiiiaiaiaiiaaaaaaiiaiaiaiiiapupi21,1<>,:,55557753-=XXss",
"sss*.==379999755571ttiipiaaiaaiaaaaaaaaaaaaaaaaaaaaiaaiaaipiitt175557999973==.*sss",
"sssXX==;579aww07771uriiipaiaaaaiaaaaaaaaiaaaaaaaaaiaaaaiapiiiru17770wwa975;==XXsss",
"sss* X-;359rraawwrrruaipaaaaaaaaaaaaaaaaaaaaaaaaaaaaaaaaaapiaurrrwwaarr953;-X *sss",
"ss. .==-357warraaariuaaiaaaaaaaaaaaaaaaaaaaaaaaaaaaaaaaaaaiaauiraaarraw753-==. .ss",
"ss*X XX--357wwararaaiaiaaaaaaaaaaaaaaaaaaaaaaaaaaaaaaaaaaaaiaiaararaww753--XX X*ss",
"s*** X==-;357yaaraaaiaaaaaaaaaaaaaaaaaaaaaaaaaaaaaaaaaaaaaaaaiaaaraay753;-==X ***s",
"ss***==ssssssssssssssssssssssssssssssssssssssssssssssssssssssssssssssssssss==***ss",
"sss*XssssssssssssssssssssssssssssssssssssssssssssssssssssssssssssssssssssssssX*sss",
"ss**ssssssssssssssssssssssssssssssssssssssssssssssssssssssssssssssssssssssssss**ss",
"%ssssssssssssssssssssssssssssssssssssssssssssssssssssssssssssssssssssssssssssssss%",
"ss.ssssssssssssssssssssssssssssssssssssssssssssssssssssssssssssssssssssssssssss.ss",
"ssssssssssssssssssssssssssssssssssssssssssssssssssssssssssssssssssssssssssssssssss",
"ssssssssssssssssssssssssssssssssssssssssssssssssssssssssssssssssssssssssssssssssss",
"ssssssssssssssssssssssssssssssssssssssssssssssssssssssssssssssssssssssssssssssssss",
".*ssssssssssssssssssssssssssssssssssssssssssssssssssssssssssssssssssssssssssssss*.",
"*ssssssssssssssssssssssssssssssssssssssssssssssssssssssssssssssssssssssssssssssss*"
};
