/* XPM */
static char *result[] = {
/* columns rows colors chars-per-pixel */
"170 84 83 1 ",
"  c black",
". c #070707",
"X c #0B0B0B",
"o c #170F07",
"O c #1F170B",
"+ c #131313",
"@ c #1B1B1B",
"# c #13230B",
"$ c #2B230F",
"% c #332B13",
"& c #3F2F17",
"* c #000023",
"= c #00002F",
"- c #00003B",
"; c #232323",
": c #272727",
"> c #2F2F2F",
", c #373F27",
"< c #373737",
"1 c gray23",
"2 c #5B0000",
"3 c #670000",
"4 c #7F0000",
"5 c #4B371B",
"6 c #3F472B",
"7 c #5F4323",
"8 c #53573B",
"9 c #6B4727",
"0 c #774F2B",
"q c #7F532F",
"w c #434343",
"e c gray28",
"r c #4B4B4B",
"t c gray31",
"y c gray34",
"u c #5B5B5B",
"i c #5B6347",
"p c gray39",
"a c gray42",
"s c #6F6F6F",
"d c #777777",
"f c gray50",
"g c #8B0000",
"h c #9B0000",
"j c #A70000",
"k c #B30000",
"l c #BF0000",
"z c #CB0000",
"x c #D70000",
"c c #E30000",
"v c #EF0000",
"b c red",
"n c #FF3F3F",
"m c #875733",
"M c #8F5F37",
"N c #9B633B",
"B c #A36B3F",
"V c #AB6F43",
"C c #B37347",
"Z c #BF7B4B",
"A c #CB7F4F",
"S c #CF8353",
"D c #DF9363",
"F c #E79B6B",
"G c #838383",
"H c #8B8B8B",
"J c #939393",
"K c #979797",
"L c #9F9F9F",
"P c #A7A7A7",
"I c gray67",
"U c gray70",
"Y c #B7B7B7",
"T c gray75",
"R c gray78",
"E c #CBCBCB",
"W c LightGray",
"Q c gray86",
"! c #DFDFDF",
"~ c #C7C7FF",
"^ c #E7E7E7",
"/ c #EFEFEF",
"( c #00FF00",
/* pixels */
"((((((((((((((((((((((((((((((((((((((((((((((((((((((((((((((((((((((((((((((((ettte<ettte(((((((((((((((((((((((((((((((((((((((((((((((((((((((((((((((((((((((((((((((",
"(((((((((((((((((((((((((((((((((((((((((((((((((((((((((((((((((((((((<::>>>><e%;;;;;;;;;%e<>>>>::<((((((((((((((((((((((((((((((((((((((((((((((((((((((((((((((((((((((",
"(((((((((((((((((((((((((((((((((((((((((((((((((((((((((((((((((w:;;;>%:%%%%;>w%+++;>;+++%w>;%%%%:%>>;;:w((((((((((((((((((((((((((((((((((((((((((((((((((((((((((((((((",
"((((((((((((((((((((((((((((((((((((((((((((((((((((((((((((((<<>%>+@@oO++++++++%++O;>;O++%++++++++Ooo@+>%><<(((((((((((((((((((((((((((((((((((((((((((((((((((((((((((((",
"(((((((((((((((((((((((((((((((((((((((((((((((((((((((((((((X+++ #>11ew<>>>>>,t%++O;>;O++%t,>>>>><wee1># +++X((((((((((((((((((((((((((((((((((((((((((((((((((((((((((((",
"(((((((((((((((((((((((((((((((((((((((((((((((((((((((((((;  @@>wwOoo .++++++++;+++;%;+++;++++++++.  oOww>@@  ;((((((((((((((((((((((((((((((((((((((((((((((((((((((((((",
"((((((((((((((((((((((((((((((((((((((((((((((((((((((((((+ +>ww+ +<88ttyttttte<>++O:>:O++><etttttyttt8<+ +ww>+ +(((((((((((((((((((((((((((((((((((((((((((((((((((((((((",
"((((((((((((((((((((((((((((((((((((((((((((((((((((((((oo.%;@++%6>;++ X++OOOO+OO;;;;;;;;;OO+OOOO++X  +;>6%++@;%.oo(((((((((((((((((((((((((((((((((((((((((((((((((((((((",
"(((((((((((((((((((((((((((((((((((((((((((((((((((((((.++;+O>>>@ +;%%etippyye1w;:::::::::;w1eyyppitee%;+ @>>>O+;++.((((((((((((((((((((((((((((((((((((((((((((((((((((((",
"((((((((((((((((((((((((((((((((((((((((((((((((((((((+ OO+;> ++;<6<$$O   .....;:>>>>>>>>>:;.....   OO$<6<;++ >;+OO +(((((((((((((((((((((((((((((((((((((((((((((((((((((",
"(((((((((((((((((((((((((((((((((((((((((((((((((((((( +++;+++>><; o++O::>>>>>>>><<<<<<<<<>>>>>>>>::OO+o ;<>>+++;+++ (((((((((((((((((((((((((((((((((((((((((((((((((((((",
"(((((((((((((((((((((((((((((((((((((((((((((((((((((@ O##+;;+..+;O>wwtuaapppppuuyyyyyyyyyuupppppaauttw>O;+..+;;+##O @((((((((((((((((((((((((((((((((((((((((((((((((((((",
"(((((((((((((((((((((((((((((((((((((((((((((((((((:aKYWYUWWYuuppddKuIPK*LPKJKtHYW^////^WYHtKJKPL*KPIuKddppuuYWWUYWYKa:(((((((((((((((((((((((((((((((((((((((((((((((((((",
"(((((((((((((((((((((((((((((((((((((((((((((((((<GIRWWW^^^RY;yLJLKKHKd<@G^^^Y W/G1>YY>1G/W Y^^^G@<dKHKKLJLy;//^^^WWWRIG<(((((((((((((((((((((((((((((((((((((((((((((((((",
"((((((((((((((((((((((((((((((((((((((((((((((((1uHYW/^^^!^YI fLKPKKKKd>;:I^d;*ePy d^^d yPe*;d^I:;>dKKKKPKLf R/^!^^^/WYHu1((((((((((((((((((((((((((((((((((((((((((((((((",
"((((((((((((((((((((((((((((((((((((((((((((((( waKR/^^^///IK*LPL!IHLLdyws^/Ws:yPe;d!!d;ePy:sW/^swydLLHI!LPL*K////^^^/RKaw (((((((((((((((((((((((((((((((((((((((((((((((",
"((((((((((((((((((((((((((((((((((((((((((((((( tsI^^!!WQ^^Lp:PYP!KdKIKKIJKKKLYIe>yLTTLy>eIYLKKKJIKKIKdK!PYP:pI^^QW!!^^Ist (((((((((((((((((((((((((((((((((((((((((((((((",
"(((((((((((((((((((((((((((((((((((((((((((((((+rGREYRWWW!/JpwPYYPfJKIPfYbnnnbIW :TTIITT: WIbnnnbYfPIKJfPYYPwpK/!WWWRYERGr+(((((((((((((((((((((((((((((((((((((((((((((((",
"((((((((((((((((((((((((((((((((((((((((((((((::<wysGGffK^^f:uPYYULLKPUKILLUPKTI >TWUUWT> ITKPULLIKUPKLLUYYPu:f^^KffGGsyw<::((((((((((((((((((((((((((((((((((((((((((((((",
"((((((((((((((((((((((((((((((((((((((((((((((*<wysGLJGf1wRs sPEYUPIIRd @:1r>;;* :U////U: *;;>r1:@ dRIIPUYEPs sRw1fGJLGsyw<*((((((((((((((((((((((((((((((((((((((((((((((",
"(((((((((((((((((((((((((((((((((((((((((((((( >1uT^!YHw1;;p:fYYYUUUPTp ;LYRpr:+ w<p11p<w +:rpRYL; pTPUUUYYYf:p;;1wHY!^Tu1> ((((((((((((((((((((((((((((((((((((((((((((((",
"(((((((((((((((((((((((((((((((((((((((((((((  wpfLIKfdy>;+paKRYEEYEYYp rKQ/Hda  deeeeeed  adH/QKr pYYEYEEYRKap+;>ydfKILfpw  (((((((((((((((((((((((((((((((((((((((((((((",
"((((((((((((((((((((((((((((((((((((((((((((e ;eaHPIKHdu<+ GdYWWW^^/^EJ PLPWKeHatJdappadJtaHeKWPLP JE^/^^WWWYdG +<udHKIPHae; e((((((((((((((((((((((((((((((((((((((((((((",
"((((((((((((((((((((((((((((((dPJsdKWKKPIPJe>+<taHUIKayu1XXKY^//!EULPpK;E/^^^//^^^^^^^^^^^^//^^^/E;KpPLUE!//^YKXX1uyaKIUHat<+>eJPIPKKWKdsJPd((((((((((((((((((((((((((((((",
"(((((((((((((((((((((((((((((IKJsGPGEW!YKddf>:yedKYIGptr< :^JhxxxxkkUJJ<ue<:;*<eeeeeeeeeeee<*;:<eu<JJUkkxxxxxg^: <rtpGIYKdey:>fddKY!WEGPGsJKI(((((((((((((((((((((((((((((",
"(((((((((((((((((((((((((((((HYp1QEYYYYILKLR;<yuHIEYGutw: u/slbbbbcz/KdwU/^UYM9BBNBM77MBNBB9MAY^/UwdK/zcbbbbbl/u :wtuGYEIHuy<;RLKLIYYYYEQ1pYH(((((((((((((((((((((((((((((",
"(((((((((((((((((((((((((((((fI1yEULJGJGGddP uwpHYWYdye1: p/QWULJHUUdpYtLRPdC 7FSSSS99SSSSF7 CdYRLtYpdUUHJLUWQ/p :1eydYWYHpwu PddGGJGJLUEy1If(((((((((((((((((((((((((((((",
"(((((((((((((((((((((((((((((Jd>GULdfddddsaG+uesKYEPdre>; eYWEWEYPLfEuIwLYR;D5&mSFFVooVFFSm&5D;RRLwIuEfLPYEWEWYe ;>erdPEYKseu+GasddddfdLUG>dJ(((((((((((((((((((((((((((((",
"((((((((((((((((((((((((((((JY1 PKfHHfddfddK:trdHKLHar1:+ KQ24kbbbbkWpW+eKf@&mCCSSm9559mSSCCm1@fKe+WpWkbbbbk42QK +:1raHLKHdrt:KddfddfHHfKP 1YJ((((((((((((((((((((((((((((",
"(((((((((((((((((((((((((((JJe 1ELKKHHHdddssswyfJPKsye<:+ YRJWTE^Q!!/pW+G/^y*:=-:<<t==t<<:-=:*y^/G+Wp/!!Q^ETWJRY +:<eysKPJfywsssdddHHHKKLE1 eJJ(((((((((((((((((((((((((((",
"((((((((((((((((((((((((((JLe* +<:<<<>:::++ puJE//EGy<::X U/!GaeU/K; WW d^EUpKPy:rrKrrKrr:yPKpUE^d WW ;K/UeaG!/U X::<yGE//EJup ++:::><<<:<+ *eLJ((((((((((((((((((((((((((",
"(((((((((((((((((((((((((JIt X+;>wppHLrX##+:upU///!WK<:; ;T/^d  R/Y> WR K/WRRT^pyQf^pp^fQyp^TRRW/K RW >Y/R  d^/T; ;:<KW!///Upu:+##XrLHppw>;+X tIG(((((((((((((((((((((((((",
"((((((((((((((((((((((((JTp.++;U!QQY^^d+>++rwaI^^^^E^L:* <Y/Wp  T/J:;WY Y/^QQ!^LyYd^TT^dYyL^!QQ^/Y YW;:J/T  pW/Y< *:L^E^^^^Iawr++>+d^^YQQ!U;++.pTd((((((((((((((((((((((((",
"(((((((((((((((((((((((rpfKy+Gp/YKYIY!1>RUw;rsKEEEKPU/p XeY/We +W/d*+^K Q^EEEYYYPYIIIIIIYPYYYEEE^Q K^+*d/W+ eW/YeX p/UPKEEEKsr;wUR>1!YIYKY/pG+yKfpr(((((((((((((((((((((((",
"(((((((((((((((((((((((r+;GKsdp/UPEIEW+rfUw:aKUWWEKpspp  yR/Tw ;W/f ;/G+/!REEREEYYYUPPUYYYEEREER!/+G/; f/W; wT/Ry  ppspKEWWUKa:wUfr+WEIEPU/pdsKG;+r(((((((((((((((((((((((",
"(((((((((((((((((((((((u:s>;Ppd/^Q!!!^ Lyw<wsKYWWYJptw; +pW/U: w!^e :/d>/WREEEERRREEEEEERRREEEERW/>d/: e^!w :U/Wp+ ;wtpJYWWYKsw<wyL ^!!!Q^/dpP;>s:u(((((((((((((((((((((((",
"(((((((((((((((((((((((p+dp+pu@e<**X;p i:;refPWWWYGpr<+ ;d^/L@ p^!u u/tr/^W!^^^/////^^/////^^^!W^/rt/u u!^p @L/^d; +<rpGYWWWPfer;:i p;X**<e@up+pd+p(((((((((((((((((((((((",
"(((((((((((((((((((((((f+w>yt1;::::@::X@ srrJYW!WYdut:+ <sWEd+ s/Qt d/>y/^WTILJfspypddpypsfJLITW^/y>/d tQ/s +dEWs< +:tudYW!WYJrrs @X::@::::;1ty>w+f(((((((((((((((((((((((",
"(((((((((((((((((((((((K+w:rue:::::::1w>:uepUW!WEPdye:X eH//J  s^U: K/+t!EWIKUUppupassapuppUUKIWE!t+/K :U^s  J//He X:eydPEW!WUpeu:>w1:::::::eur:w+K(((((((((((((((((((((((",
"((((((((((((((((((((((KY prawfKGGHGGGKLLs:sL////^Tfpr;  rI/^a +sYf  Y/ wLp<<f/^^//^^^^^^//^^/f<<pLw /Y  fYs+ a^/Ir  ;rpfT^////Ls:sZZM<<MZZM<<warp YK((((((((((((((((((((((",
"(((((((((((((((((((((KIWGYYWpHRIIUIPPUUf1ppp//KIHaKGaw  yT/!pX s^s  QW epe< d/W==dI:rr:Id==W/d <epe WQ  s^s Xp!/Ty  waGKaHIK//ppp1f0;;0MM0;;MpWYYGWIK(((((((((((((((((((((",
"(((((((((((((((((((((IWI!!W/pdILYYYUYEJ@>:yp^/W/YR^u<<  p^/WyX s/p +/L <e<+ H/YrKeR+RR+ReKrY/H +<e< L/+ p/s XyW/^p  <<u^RY/W/^py:>@ @9qq9@@mmp/W!!IWI(((((((((((((((((((((",
"((((((((((((((((((((KI^WTY!/>GLLIPKKIT+rQ@wwrer1raYp:  XH!^Ep  s^y </G ++++ K/Y</WWWWWWWW/<Y/K ++++ G/< y^s  pE^!HX  :pYar1rerww@Qr+5999++99G>/!YTW^IK((((((((((((((((((((",
"((((((((((((((((((((IR^!^!!^yEWWWUdLYu wwX<P/^^^Rf :s: wpd/Kp+ JWy y/y ++++ P/Y:^WWW//WWW^:Y/P ++++ y/y yWJ +pK/d:w :s: fR^^^/P<Xww 557 UWWWEy^!!^!^RI((((((((((((((((((((",
"(((((((((((((((((((KI<ptrwwYYWRWQH UU X<<<pLEW^QPKK@X;:>+p^Tpp+E/e J/e ++++ U/Lu/^^!^^!^^/uL/U ++++ e/J e/E+ppT^p+>:;X@KKPQ^WELp<<<X    HQWRWYYwwrtp<IK(((((((((((((((((((",
"(((((((((((((((((((IeX;;;*+!!WWE^f fU <d<pI^^^^WTKdp+ ;;+L/WE!tW^t T/: @+++ K/J1HappuuppaH1J/K +++@ :/T t^Wt!EW/L+;; +pdKTW^^^^Ip<d<  f f^EWW!!+*;;;XeI(((((((((((((((((((",
"((((((((((((((((((K<y>:;@ e/WWRR^p >s >re1pPWWIHPLUp;++ :E/!!E1^^r;QE pPLp1W=w LJ @;;;;@ JL w=W1pLPp EQ;r^^1E!!/E: ++;pULPHIWWPp1er> s> p^RRWW/e @;:>y<K((((((((((((((((((",
"((((((((((((((((((I*Y:;;+ f/WEWR/: ;W+::yPW////IdJpe1 w:1d^EKP+KJwpKJ pKKPff+++pru=;::;=urp+++ffPKKp JKpwJK+PKE^d1:w 1epJdI////WPy::+W; :/RWEW/f +;;:Y*I((((((((((((((((((",
"(((((((((((((((((KKeW+ur  Y^WWW!W  +U+:rpp1:===uHPse:+dLLURRYREPKfd++# XXXX*+:;;:u.@::@.u:;;:+*XXXX #++dfKPERYRRULLd+:esPHu===:1ppr:+U+  W!WWW^Y  ru+WeKK(((((((((((((((((",
"(((((((((((((((((IYL^;WarXW^UUW^Y  :G:>;@:;;>:>;*>serJPYWW!!WWWYLTWH+;++@@@++::;;e+;;;;+e;;::++@@@++;+HWTLYWWW!!WWYPJres>*;>:>;;:@;>:G:  Y^WUU^WXraW;^LYI(((((((((((((((((",
"((((((((((((((((KE!/!aWYIXWRYRR/a  pd;>>:>:::::<1; PEpKRW!!!!WWRPt^!+ +++++++:;;:1++;;++1:;;:+++++++ +!^tPRWW!!!!WRKpEP ;1<:::::>:>>;dp  a/RRYRWXIYWa!/!EK((((((((((((((((",
"((((((((((((((((IUR/T*UYd sptw<ye .:rKETUYYPYYR!y, !W>UW!^^//!WRYUYK>X+++++++;;@;1+#++#+1;@;;+++++++X>KYUYRW!//^^!WU>W! ,y!RYYPYYUTEKr:. ey<wtps dYU*T/RUI((((((((((((((((",
"((((((((((((((((IY!/P*PTtX1w1<>1:#+ :^//!WRYP^//y:+KIfPW^/////^WEEEKw+;+@@@@+;;;:>>:;;:>>:;;;+@@@@+;+wKEEEW^/////^WPfIK+:yW/^PYRW!//^: +#:1><1w1XtTP*P/!YI((((((((((((((((",
"((((((((((((((((IEW/t+Gp :1<<<<<<;++ W//1   ;///; rJUfYW^^^^^^!WEI^R<@;1udadu<>>wttttttttw>><udadu1;@<R^IEW!^^^^^^WYfUJr ;W//;   1//W ++;<<<<<<1: pG+t/WEI((((((((((((((((",
"((((((((((((((((IPW^: +X:1:::::::;+X+///@ @ <//^  aEfpY!^^^!!^!WRdPW:*<pLWRWWKadfHYEEEEYHfdaKWWRWLp<*:WPdRW!^!!^^^!YpfEa  W//< @ @///+X+;:::::::1:X+ :^WPI((((((((((((((((",
"((((((((((((((((d :e +t>@;@@;;;@;;+ 1//! X+ u//W  J/:aR!^^///^!!EYYKw;erd^a=e<dHY/^^^^^^/YHd<e=a^dre;wKYYE!!^///^^!Ra:/J  W//u +X !//1 +;;@;;;@@;@>t+ e: d((((((((((((((((",
"((((((((((((((((f tdXrYe;t>>>>>++@+ p//R +@ d//Y +sKdJW^^////^^!WYYJw>1:*JRpu+pE/^ELGGLE^/Ep+upRJ*:1>wJYYW!^^////^^WJdKs+ Y//d @+ R//p +@++>>>>>t;eYrXdt f((((((((((((((((",
"((((((((((((((((J rp G^t;p11e1a> +@1P//Y <<+T//L :sJJU!^^////^^!WRYK<re::1Y/KXW/^RPp<<pPR^/WXK/Y1::er<KYRW!^^////^^!UJJs: L//T+<< Y//P1@+ >a1e11p;t^G pr J((((((((((((((((",
"((((((((((((((((P <w: X +::@;;;@+ t///W!^/^^WY^^y+uJKR!^/////^^^EYRL<ye1e1pW:u//!Rdw@@wdR!//u:Wp1e1ey<LRYE^^^/////^!RKJu+e^^YW^^/^!W///t +@;;;@::+ X :w< P((((((((((((((((",
"(((((((((((((((far<:<>+KK +;s;++r P^/y  *+ +  QWp+pLKR!////////^Te!^:e1e11Hu>K^/^Yp:@@:pY^/^K>uH11e1e:^!eT^////////!RKLp+yWQ  + +*  y/^P r++;s;+ KK+><:<raf(((((((((((((((",
"(((((((((((((rwysJLypdusH>@1/w +/:E^/: <yupy+:/Ws WayW//////////!LGE*:1111H;wdW//Wd<++<dW//Wdw;H1111:*EGL!//////////WyaW sW/:+ypuy< :/^E:/+ w/1@>HsudpyLJsywr(((((((((((((",
"(((((((((((y>ussssUIHdJdddsuaprwsrW//GQ/^QQ^/E//L+RdJW//////////!WPp@@1<>ed+1uL^//Ua;;aU//^Lu1+de><1@@pPW!//////////WJdR+L//E/^QQ^/QG//WrswrpausdddJdHIUssssu>y(((((((((((",
"(((((((((w>tpdfGfP///!^QWWWRRYYYGs//QGe:*XX+>p!/W::HJR///WU//////Wp;:::::es >wyP!//WWWW//!Pyw> se:::::;pW//////UW///RJH::W/!p>+XX*:eGQ//sGYYYRRWWWQ^!///PfGfdpt>w(((((((((",
"((((((((=ypadHdH^/////////////WRKP/T+ 344443X ;Q/@ ;wdI!/!pK^WW^P< *<:;::1p ;:wyJYE////EYJyw:; p1::;:<* <P^WW^Kp!/!Idw; @/Q; X344443 +T/PKRW/////////////^HdHdapy=((((((((",
"((((((( ypsffsP///////////////WRdT/u34jzvvzj43X!/+X@+X*>yHJ;::;=++@::;;;;>y++::<wufJJJJfuw<::++y>;;;;::@++=;::;JHy>*X+@X+/!X34jzvvzj43u/TdRW///////////////Psffspy (((((((",
"((((((w@paffJ!////////////////WR1E/W:jzvnnvzjuW/Q+ ;@;:>>>:;::::::::;+;;;:w@@@;::1wssssw1::;@@@w:;;;+;::::::::;:>>>:;@; +Q/Wujzvnnvzj:W/E1RuupdE/uudddWEdeudWJffap@w((((((",
"(((((( epadY//////////////////WRwf///TUKJKIT///Y; @@;@;<<11::::::>;;;+;;+;e:;;;;::1rrrr1::;;;;:e;+;;+;;;>::::::11<<;@;@@ ;Y///TIKJKUT///fwRuu/GP/uGW///JuE////Ydape ((((((",
"(((((( ppHQ///////////////////WRt wdIRQ^^!EYJfLsfHKLLG;w><1<<:;;::;;;+@;+;p>:>edLE!^^^^!ELde>:>p;+;@+;;;::;;:<<1<>w;GLLKHfsLfJYE!^^QRIdw tRpfdIE/KdIGd/JuI/ddW/QHpp ((((((",
"(((((::sU/////^^^^^^//////////WRp+1@X   ypsJe@Kdpr!KedeQQQQ!/d +;;;>;+;;+@sryLJy:::=::=:::yJLyrs@+;;+;>;;;+ d/!QQQQedeK!rpdK@eJspy   X@1+pRdJ/IP/UdIW/^Udd^^GWQ//Us::(((((",
"((((( pE///^^^/^^^^^//////////WRwX<:@; >WTYYd 1re YW  :Hsuyypd  >y+:+<p+@:yK/UIKKKIPWWPIKKKIU/Ky:@+p<+:+y>  dpyyusH:  WY er1 dYYTW> ;@:<XwRdIaKL/RdIW/Q^LdddIWQQQWEp (((((",
"(((((<PT^^^^^^^!^^^^^/////^^Rd:  @:;;@++=+**=;<er*:/K ;;==;;;@+e:+dT>tf+@rwE^YT^^<K////K<^^TY^Ewr@+ft>Td+:e+@;;;==;; K/:*re<;=**+=++@;;:@  :dR^^Q////QQQ^^//^QQQQWTP<(((((",
"((((epPUW!^^^!!^^^^^^^^WRJy; XX+@;;;@@;;;;;;@+tY^E P/1X#@++++@+++ :!E dUfpdWwtt>X QLTTLQ X>ttwWdpfUd E!: +++@++++@#X1/P E^Yt+@;;;;;;@@;;;@+XX ;yJRW^QQQQQQQQQQQQWEUPpe((((",
"((((;uKPUT!!!^^^^//QYHp:  X@@@@++;;;@@@;;;;@+;L///d:/R +@@+++@+++X f/a R/Ls/Q^/P  !ERRE!  P/^Q/sL/R a/f X+++@+++@@+ R/:d///L;+@;;;;@@@;;;++@@@@X  :pHUEQQQQQQQQETUPKu;((((",
"(((( pHKPUT!!^^^WKp1=* *@@@@@@+@@+;;@@+;;;;+::Y///^ G/1 :++@+++++X :/Y y/JGG:1sy *^RTTR^* ys1:GGJ/y Y/: X+++++@++: 1/G ^///Y::+;;;;+@@;;+@@+@@@@@@* *=1pKUEQQQETUPKHp ((((",
"(((( GGHKPURRUGe;*XXX@@@@@@+@+@@@+@@+>>;;yw+<s^////d !U a;++++++++X+/^  ^dH!YWWEYKQ/^^/QKYEWWY!Hd^  ^/+X++++++++;a U! d////^s<+wy;;>>+@@+@@@+@+@@@@@@XXX*;eGURRUPKHGG ((((",
"((((u^/!!WGw;X*++@@;+@@@+++++@#+@;;+ T/JT//dE/^^^^^WW//L/u+>:+;;@eGI/W+ WtLLW/^=   *::*   =^/WLLtW +W/IGe@;;+:>+u/L//WW^^^^^/Ed//TJ/T +;;@+#@+++++@@@+;@@++*X;wGW!!/^u((((",
"(((+Y^^^^Up*+@@@@@@@#@@++++++++++;>> E/^^/fU//////^eEQEE!:dWwX;:a^//^J< Y1TJQ/R *@@@;;@@@* R/QJT1Y <J^//^a:;XwWd:!EEQEe^//////Uf/^^/E >>;++++++++++@@#@@@@@@@+*pU^^^^Y+(((",
"(((eQQQ/E  +@@@@@@++#+#+#++@+@++++wf<;r=te>/W////~/<:w *  K/u :esar1>>e@r>!P//Y:JTTTWWTTTJ:Y//P!>r@e>>1rase: u/K  * w:</~////W/>et=r;<fw++++@+@++#+#+#++@@@@@@+  E/QQQe(((",
"((>LQEQ/f +@@@@@++++@+++++++@###+:H/KY/sEsH!*!//uK^yr/LWHsY/pXwu;dJft ep 1/K//LX11,::::,11XL//K/1 pe tfJd;uwXp/YsHWL/ry^Ku//!*!HsEs/YK/H:+###@+++++++@++++@@@@@+ f/QEQL>((",
"((<WQE^/: @@+@@+@++++@+++++++@@+:WR^^^^w <//;!/P ^/t <EYUIITJXweH!WYUpwe y/G//JsYUUIPPIUUYsJ//G/y ewpUYW!HewXJTIIUYE< t/^ P/!;//< w^^^^RW:+@@+++++++@++++@+@@+@@ :/^EQW<((",
"(sfWE!/Y  @@++@#+#+#++++++@@;; :^WKW^^R* f/^*//a1//: :YIILJKI+<e+==*+yp> d/p//J:ppsddddspp:J//p/d >py+*==+e<+IKJLIIY: ://1a//*^/f *R^^WKW^: ;;@@++++++#+#+#@++@@  Y/!EWfs(",
"(:WUR!/p +@++++#++##++++@@@;;@ dQsL^!^P  Y/Iw//<J/^  wTILIPUY:@adYWEK>s> K/y//fafadaaaadafaf//y/K >s>KEWYda@:YUPILITw  ^/J<//wI/Y  P^!^LsQd @;;@@@++++##++#++++@+ p/!RUW:(",
"(yWU//^+ +++@++++++++++@#@@@@@ HWpR/!/d  Q/sd/^ W/E  tWYYEIUPXU>>+++:pp: I/u//ddYTRWWWWRTYdd//u/I :pp:+++>>UXPUIEYYWt  E/W ^/ds/Q  d/!/RpWH @@@@@#@++++++++++@+++ +^//UWy(",
"tIYR//H X@++@++@+@+++@+@@@@;+taXYHKeryar;@te:yde>:@:eWa>speew<>;:reyaddpr>:uuyyyyyyyyyyryut://J/Y ::XtEWfXrWX:IfdKUTp  f/^=T/T>//@ :Q!~KHYXat+;@@@@+@+++@+@++@++@X H//RYIt"
};
