/* XPM */
static char *result[] = {
/* columns rows colors chars-per-pixel */
"170 84 81 1 ",
"  c black",
". c #070707",
"X c #0B0B0B",
"o c #170F07",
"O c #1F170B",
"+ c #131313",
"@ c #1B1B1B",
"# c #13230B",
"$ c #2B230F",
"% c #332B13",
"& c #3F2F17",
"* c #000023",
"= c #00002F",
"- c #00003B",
"; c #232323",
": c #272727",
"> c #2F2F2F",
", c #373F27",
"< c #373737",
"1 c gray23",
"2 c #430000",
"3 c #470000",
"4 c #4F0000",
"5 c #5B0000",
"6 c #670000",
"7 c #730000",
"8 c #4B371B",
"9 c #3F472B",
"0 c #5F4323",
"q c #53573B",
"w c #6B4727",
"e c #774F2B",
"r c #7F532F",
"t c #434343",
"y c gray28",
"u c #4B4B4B",
"i c gray31",
"p c gray34",
"a c #5B5B5B",
"s c #5B6347",
"d c gray39",
"f c gray42",
"g c #6F6F6F",
"h c #777777",
"j c gray50",
"k c #9B0000",
"l c #A70000",
"z c #B30000",
"x c #BF0000",
"c c #CB0000",
"v c #D70000",
"b c #875733",
"n c #8F5F37",
"m c #9B633B",
"M c #A36B3F",
"N c #AB6F43",
"B c #B37347",
"V c #BF7B4B",
"C c #CB7F4F",
"Z c #CF8353",
"A c #DF9363",
"S c #E79B6B",
"D c #838383",
"F c #8B8B8B",
"G c #939393",
"H c #979797",
"J c #9F9F9F",
"K c #A7A7A7",
"L c gray67",
"P c gray70",
"I c #B7B7B7",
"U c gray75",
"Y c gray78",
"T c #CBCBCB",
"R c LightGray",
"E c gray86",
"W c #DFDFDF",
"Q c #C7C7FF",
"! c #E7E7E7",
"~ c #EFEFEF",
"^ c #00FF00",
/* pixels */
"^^^^^^^^^^^^^^^^^^^^^^^^^^^^^^^^^^^^^^^^^^^^^^^^^^^^^^^^^^^^^^^^^^^^^^^^^^^^^^^^yiiiy<yiiiy^^^^^^^^^^^^^^^^^^^^^^^^^^^^^^^^^^^^^^^^^^^^^^^^^^^^^^^^^^^^^^^^^^^^^^^^^^^^^^^",
"^^^^^^^^^^^^^^^^^^^^^^^^^^^^^^^^^^^^^^^^^^^^^^^^^^^^^^^^^^^^^^^^^^^^^^^<::>>>><y%;;;;;;;;;%y<>>>>::<^^^^^^^^^^^^^^^^^^^^^^^^^^^^^^^^^^^^^^^^^^^^^^^^^^^^^^^^^^^^^^^^^^^^^^",
"^^^^^^^^^^^^^^^^^^^^^^^^^^^^^^^^^^^^^^^^^^^^^^^^^^^^^^^^^^^^^^^^^t:;;;>%:%%%%;>t%+++;>;+++%t>;%%%%:%>>;;:t^^^^^^^^^^^^^^^^^^^^^^^^^^^^^^^^^^^^^^^^^^^^^^^^^^^^^^^^^^^^^^^^",
"^^^^^^^^^^^^^^^^^^^^^^^^^^^^^^^^^^^^^^^^^^^^^^^^^^^^^^^^^^^^^^<<>%>+@@oO++++++++%++O;>;O++%++++++++Ooo@+>%><<^^^^^^^^^^^^^^^^^^^^^^^^^^^^^^^^^^^^^^^^^^^^^^^^^^^^^^^^^^^^^",
"^^^^^^^^^^^^^^^^^^^^^^^^^^^^^^^^^^^^^^^^^^^^^^^^^^^^^^^^^^^^^X+++ #>11yt<>>>>>,i%++O;>;O++%i,>>>>><tyy1># +++X^^^^^^^^^^^^^^^^^^^^^^^^^^^^^^^^^^^^^^^^^^^^^^^^^^^^^^^^^^^^",
"^^^^^^^^^^^^^^^^^^^^^^^^^^^^^^^^^^^^^^^^^^^^^^^^^^^^^^^^^^^;  @@>ttOoo .++++++++;+++;%;+++;++++++++.  oOtt>@@  ;^^^^^^^^^^^^^^^^^^^^^^^^^^^^^^^^^^^^^^^^^^^^^^^^^^^^^^^^^^",
"^^^^^^^^^^^^^^^^^^^^^^^^^^^^^^^^^^^^^^^^^^^^^^^^^^^^^^^^^^+ +>tt+ +<qqiipiiiiiy<>++O:>:O++><yiiiiipiiiq<+ +tt>+ +^^^^^^^^^^^^^^^^^^^^^^^^^^^^^^^^^^^^^^^^^^^^^^^^^^^^^^^^^",
"^^^^^^^^^^^^^^^^^^^^^^^^^^^^^^^^^^^^^^^^^^^^^^^^^^^^^^^^oo.%;@++%9>;++ X++OOOO+OO;;;;;;;;;OO+OOOO++X  +;>9%++@;%.oo^^^^^^^^^^^^^^^^^^^^^^^^^^^^^^^^^^^^^^^^^^^^^^^^^^^^^^^",
"^^^^^^^^^^^^^^^^^^^^^^^^^^^^^^^^^^^^^^^^^^^^^^^^^^^^^^^.++;+O>>>@ +;%%yisddppy1t;:::::::::;t1yppddsiyy%;+ @>>>O+;++.^^^^^^^^^^^^^^^^^^^^^^^^^^^^^^^^^^^^^^^^^^^^^^^^^^^^^^",
"^^^^^^^^^^^^^^^^^^^^^^^^^^^^^^^^^^^^^^^^^^^^^^^^^^^^^^+ OO+;> ++;<9<$$O   .....;:>>>>>>>>>:;.....   OO$<9<;++ >;+OO +^^^^^^^^^^^^^^^^^^^^^^^^^^^^^^^^^^^^^^^^^^^^^^^^^^^^^",
"^^^^^^^^^^^^^^^^^^^^^^^^^^^^^^^^^^^^^^^^^^^^^^^^^^^^^^ +++;+++>><; o++O::>>>>>>>><<<<<<<<<>>>>>>>>::OO+o ;<>>+++;+++ ^^^^^^^^^^^^^^^^^^^^^^^^^^^^^^^^^^^^^^^^^^^^^^^^^^^^^",
"^^^^^^^^^^^^^^^^^^^^^^^^^^^^^^^^^^^^^^^^^^^^^^^^^^^^^@ O##+;;+..+;O>ttiaffdddddaapppppppppaadddddffaiit>O;+..+;;+##O @^^^^^^^^^^^^^^^^^^^^^^^^^^^^^^^^^^^^^^^^^^^^^^^^^^^^",
"^^^^^^^^^^^^^^^^^^^^^^^^^^^^^^^^^^^^^^^^^^^^^^^^^^^:fHIKIPKGjaaddhhhhLKH*JKHGHiFIR!~~~~!RIFiHGHKJ*HKLahhhddaajGKPIKIHf:^^^^^^^^^^^^^^^^^^^^^^^^^^^^^^^^^^^^^^^^^^^^^^^^^^^",
"^^^^^^^^^^^^^^^^^^^^^^^^^^^^^^^^^^^^^^^^^^^^^^^^^<DLYRRR!!!TG;pJGJHHFHh<@D!!!I R~D1>II>1D~R I!!!D@<hHFHHJGJp;GT!!!RRRYLD<^^^^^^^^^^^^^^^^^^^^^^^^^^^^^^^^^^^^^^^^^^^^^^^^^",
"^^^^^^^^^^^^^^^^^^^^^^^^^^^^^^^^^^^^^^^^^^^^^^^^1aFIR~!!!WETK jJHKHHHHh>;:L!h;*yKp h!!h pKy*;h!L:;>hHHHHKHJj KTEW!!!~RIFa1^^^^^^^^^^^^^^^^^^^^^^^^^^^^^^^^^^^^^^^^^^^^^^^^",
"^^^^^^^^^^^^^^^^^^^^^^^^^^^^^^^^^^^^^^^^^^^^^^^<tfHY~!!!~~TPH*JKJWLFJJhptg!~Rg:pKy;hWWh;yKp:gR~!gtphJJFLWJKJ*HPT~~!!!~YHft<^^^^^^^^^^^^^^^^^^^^^^^^^^^^^^^^^^^^^^^^^^^^^^^",
"^^^^^^^^^^^^^^^^^^^^^^^^^^^^^^^^^^^^^^^^^^^^^^^ igL!!WWREEULd:KIKWHhHLHHLGHHHJILy>pJUUJp>yLIJHHHGLHHLHhHWKIK:dLUEERWW!!Lgi ^^^^^^^^^^^^^^^^^^^^^^^^^^^^^^^^^^^^^^^^^^^^^^^",
"^^^^^^^^^^^^^^^^^^^^^^^^^^^^^^^^^^^^^^^^^^^^^^^+uDYTIYRRRULHdtKIIKjGHLKjI47kckLR :UULLUU: RLkck74IjKLHGjKIIKtdHLURRRYITYDu+^^^^^^^^^^^^^^^^^^^^^^^^^^^^^^^^^^^^^^^^^^^^^^^",
"^^^^^^^^^^^^^^^^^^^^^^^^^^^^^^^^^^^^^^^^^^^^^^::<tpgDDjjHPGj:aKIIPJJHKPHLJJPKHUL >URPPRU> LUHKPJJLHPKHJJPIIKa:jGPHjjDDgpt<::^^^^^^^^^^^^^^^^^^^^^^^^^^^^^^^^^^^^^^^^^^^^^^",
"^^^^^^^^^^^^^^^^^^^^^^^^^^^^^^^^^^^^^^^^^^^^^^*<tpgDJGDj1tDg gKTIPKLLYh @:1u>;;* :P~~~~P: *;;>u1:@ hYLLKPITKg gDt1dDGJDgpt<*^^^^^^^^^^^^^^^^^^^^^^^^^^^^^^^^^^^^^^^^^^^^^^",
"^^^^^^^^^^^^^^^^^^^^^^^^^^^^^^^^^^^^^^^^^^^^^^ >1aU!WIFt1;;d:jIIIPPPKJd ;JIYdu:+ t<d11d<t +:udYIJ; dUKPPPIIIj:d;;1tFIW!Ua1> ^^^^^^^^^^^^^^^^^^^^^^^^^^^^^^^^^^^^^^^^^^^^^^",
"^^^^^^^^^^^^^^^^^^^^^^^^^^^^^^^^^^^^^^^^^^^^^  tdjJLHjhp>;+dfHYITTITIhd uHE~Fhf  hyyyyyyh  fhF~EHu dIITITTIYHfd+;>phjHLJjdt  ^^^^^^^^^^^^^^^^^^^^^^^^^^^^^^^^^^^^^^^^^^^^^",
"^^^^^^^^^^^^^^^^^^^^^^^^^^^^^^^^^^^^^^^^^^^^y ;yfFKLHFha<+ DhIRRR!!~!TG KJKRHyFfiGhfddfhGifFyHRKJK GT!~!!RRRIhD +<ahFHLKFfy; y^^^^^^^^^^^^^^^^^^^^^^^^^^^^^^^^^^^^^^^^^^^^",
"^^^^^^^^^^^^^^^^^^^^^^^^^^^^^^hKGghHRHHKLKGy>+<ifFPLHfpa1XXHI!~~WTPJKdH;T~!!!~~!!!!!!!!!!!!~~!!!~T;HdKJPTW~~!IHXX1apfHLPFfi<+>yGKLKHHRHhgGKh^^^^^^^^^^^^^^^^^^^^^^^^^^^^^^",
"^^^^^^^^^^^^^^^^^^^^^^^^^^^^^LHGgDKDTRWIHhhj>:pyhHILDdiu< :!G2222234PGG<ay<:;*<yyyyyyyyyyyy<*;:<ya<GGP4322222k!: <uidDLIHhyp:>jhhHIWRTDKDgGHL^^^^^^^^^^^^^^^^^^^^^^^^^^^^^",
"^^^^^^^^^^^^^^^^^^^^^^^^^^^^^FId1ETIIIILJHJY;<paFLTIDait: a~glxzzvcx~HhtP~!PInwMMmMn00nMmMMwnCI!~PthH~xcvzzxl7~a :tiaDITLFap<;YJHJLIIIITE1dIF^^^^^^^^^^^^^^^^^^^^^^^^^^^^^",
"^^^^^^^^^^^^^^^^^^^^^^^^^^^^^jL1pTPJGDGDDhhK atdFIRIhpy1: d~ERPJGFPPhdIiJYKhB 0SZZZNwwNZZZS0 BhIYJiIdhPPFGJPRE~d :1yphIRIFdta KhhDDGGJJPTp1Lj^^^^^^^^^^^^^^^^^^^^^^^^^^^^^",
"^^^^^^^^^^^^^^^^^^^^^^^^^^^^^Gh>DPJhjhhhhgfD+aygHITKhuy>; yIRTRTIKJjTaLtJIY;A8&bZSSNooNSSZb&8A;YYJtLaTjJKITRTRIy ;>yuhKTIHgya+DfghhDFGHJPD>hG^^^^^^^^^^^^^^^^^^^^^^^^^^^^^",
"^^^^^^^^^^^^^^^^^^^^^^^^^^^^HI1 KHjFFjhhjhhH:iuhFHJFfu1:+ HE5546k774RdR+yHj@&bBBZZbw88wbZZBBb1@jHy+RdR477k6455EH +:1ufFJHFhui:HhhjhDjFFFHK 1IG^^^^^^^^^^^^^^^^^^^^^^^^^^^^",
"^^^^^^^^^^^^^^^^^^^^^^^^^^^KIy 1TJHHFFFhhhgggtpjGKHgpy<:+ IYGRUT!EWW~dR+D~!p*:=-:<<i==i<<:-=:*p!~D+Rd~WWE!TURGYI +:<ypgHKGjptggghhhFFFHHJT1 yIG^^^^^^^^^^^^^^^^^^^^^^^^^^^",
"^^^^^^^^^^^^^^^^^^^^^^^^^^HIy* +<:<<<>:::++ daGT~~KDp<::X P~WDfyP~H; RR h!TPdHKp:uuHuuHuu:pKHdPT!h RR ;H~PyfDW~P X::<pHT~~TGad ++:::><<<:<+ *yIG^^^^^^^^^^^^^^^^^^^^^^^^^^",
"^^^^^^^^^^^^^^^^^^^^^^^^^GLi X+;>tddFJuX##+:adP~~~WRG<:; ;U~!h  Y~I> RY H~RYYU!dpEj!dd!jEpd!UYYR~H YR >I~Y  h!~U; ;:<HRW~~~Pda:+##XuJFddt>;+X iLG^^^^^^^^^^^^^^^^^^^^^^^^^",
"^^^^^^^^^^^^^^^^^^^^^^^^GUd.++;PWEEI!!h+>++utfL!!!!TLG:* <I~Rd  U~G:;RI I~!EEW!JpIh!UU!hIpJ!WEE!~I IR;:G~U  dR~I< *:J!T!!!!Lftu++>+h!!REEYP;++.dUG^^^^^^^^^^^^^^^^^^^^^^^^",
"^^^^^^^^^^^^^^^^^^^^^^^udjHp+Dd~IHILIW1>YPt;ugHTTTHgGLd XyI~Ry +R~h*+!H E!TTTIIIKIJjggjJIKIIITTT!E H!+*h~R+ yR~IyX dHHjHTTTHgu;tPY>1WUUIHKYdD+pHjdu^^^^^^^^^^^^^^^^^^^^^^^",
"^^^^^^^^^^^^^^^^^^^^^^^u+;DHghd~PKTLTR+ujPt:fHPRRTHdgdd  pY~Ut ;R~j ;~D+~WYTTYTTIIIJFFJIIITTYTTYW~+D~; j~R; tU~Yp  ddgdHTRRPHf:tPju+RTUPKPRdhgHD;+u^^^^^^^^^^^^^^^^^^^^^^^",
"^^^^^^^^^^^^^^^^^^^^^^^a:g>;Kdh~!EWWW! Jpt<tgHIRRIGdit; +dR~P: tW!y :~h>~RYTTTTYYYTTTTTTYYYTTTTYR~>h~: y!Wt :P~Rd+ ;tidGIRRIHgt<tpJ !WWWE!~hdK;>g:a^^^^^^^^^^^^^^^^^^^^^^^",
"^^^^^^^^^^^^^^^^^^^^^^^d+hd+da@y<**X;d s:;uyjKRRRIDdu<+ ;h!~J@ d!Wa a~iu~!RW!!!~~~~~!!~~~~~!!!WR!~ui~a aW!d @J~!h; +<udDIRRRKjyu;:s d;X**<y@ad+dh+d^^^^^^^^^^^^^^^^^^^^^^^",
"^^^^^^^^^^^^^^^^^^^^^^^j+t>pi1;::::@::X@ guuGIRWRIhai:+ <gRTh+ g~Ei h~>p~!RULJGjgdpdhhdpdgjGJLUR!~p>~h iE~g +hTRg< +:iahIRWRIGuug @X::@::::;1ip>t+j^^^^^^^^^^^^^^^^^^^^^^^",
"^^^^^^^^^^^^^^^^^^^^^^^H+t:uay:::::::1t>:aydPRWRTKhpy:X yF~~G  g!P: H~+iWTRLHPPddadfggfdaddPPHLRTWi+~H :P!g  G~~Fy X:yphKTRWRPdya:>t1:::::::yau:t+H^^^^^^^^^^^^^^^^^^^^^^^",
"^^^^^^^^^^^^^^^^^^^^^^HI duftjHDDFDDDHJJg:gJ~~~~!Ujdu;  uL~!f +gIj  I~ tJd<<j~!!~~!!!!!!~~!!~j<<dJt ~I  jIg+ f!~Lu  ;udjU!~~~~Jg:gVVn<<nVVn<<tfud IH^^^^^^^^^^^^^^^^^^^^^^",
"^^^^^^^^^^^^^^^^^^^^^HLRDIIRdFYLLPLKKPPj1ddd~~HLFfHDft  pU~WdX g!g  ER ydy< h~R==hL:uu:Lh==R~h <ydy RE  g!g XdW~Up  tfDHfFLH~~ddd1je;;enne;;ndRIIDRLH^^^^^^^^^^^^^^^^^^^^^",
"^^^^^^^^^^^^^^^^^^^^^LRLWWR~dhLJIIIPITG@>:pd!~R~IYJa<<  d!~RpX g~d +~J <y<+ F~IuRyY+YY+YyRuI~F +<y< J~+ d~g XpR~!d  <<a!YI~R~!dp:>@ @wrrw@@bbd~RWWLRL^^^^^^^^^^^^^^^^^^^^^",
"^^^^^^^^^^^^^^^^^^^^HL!RUIW~>DJJLKHHLU+uE@ttuyu1ufId:  XFW!Td  g!p <~D ++++ H~I<~RRRRRRRR~<I~H ++++ D~< p!g  dT!WFX  :dIfu1uyutt@Eu+8www++wwD>~WIUR!LH^^^^^^^^^^^^^^^^^^^^",
"^^^^^^^^^^^^^^^^^^^^LY!W!WW!pTRRRPhJIa ttX<K~!!!Yj :g: tdh~Hd+ GRp p~p ++++ K~I:!RRR~~RRR!:I~K ++++ p~p pRG +dH~h:t :g: jY!!!~K<Xtt 880 PRRRTp!WW!W!YL^^^^^^^^^^^^^^^^^^^^",
"^^^^^^^^^^^^^^^^^^^HL<diuttIIRYREF PP X<<<dJTR!EKHH@X;:>+d!Udd+T~y G~y ++++ P~Ja~!!W!!W!!~aJ~P ++++ y~G y~T+ddU!d+>:;X@HHKE!RTJd<<<X    FERYRIIttuid<LH^^^^^^^^^^^^^^^^^^^",
"^^^^^^^^^^^^^^^^^^^LyX;;;*+WWRRT!j jP <h<dL!!!!RUHhd+ ;;+J~RTWiR!i U~: @+++ H~G1FfddaaddfF1G~H +++@ :~U i!RiWTR~J+;; +dhHUR!!!!Ld<h<  j j!TRRWW+*;;;XyL^^^^^^^^^^^^^^^^^^^",
"^^^^^^^^^^^^^^^^^^H<p>:;@ y~RRYY!d >g >uy1dKRRLFKJPd;++ :T~WWT1!!u;ET dKJd1R=t JG @;;;;@ GJ t=R1dJKd TE;u!!1TWW~T: ++;dPJKFLRRKd1yu> g> d!YYRR~y @;:>p<H^^^^^^^^^^^^^^^^^^",
"^^^^^^^^^^^^^^^^^^L*I:;;+ j~RTRY~: ;R+::pKR~~~~LhGdy1 t:1h!THK+HGtdHG dHHKjj+++dua=;::;=aud+++jjKHHd GHdtGH+KHT!h1:t 1ydGhL~~~~RKp::+R; :~YRTR~j +;;:I*L^^^^^^^^^^^^^^^^^^",
"^^^^^^^^^^^^^^^^^HHyR+au  I!RRRWR  +P+:udd1:===aFKgy:+hJJPYYIYTKHjh++# XXXX*+:;;:a.@::@.a:;;:+*XXXX #++hjHKTYIYYPJJh+:ygKFa===:1ddu:+P+  RWRRR!I  ua+RyHH^^^^^^^^^^^^^^^^^",
"^^^^^^^^^^^^^^^^^LIJ!;RfuXR!PPR!I  :D:>;@:;;>:>;*>gyuGKIRRWWRRRIJURF+;++@@@++::;;y+;;;;+y;;::++@@@++;+FRUJIRRRWWRRIKGuyg>*;>:>;;:@;>:D:  I!RPP!RXufR;!JIL^^^^^^^^^^^^^^^^^",
"^^^^^^^^^^^^^^^^HTW~WfRILXRYIYY~f  dh;>>:>:::::<1; KTdHYRWWWWRRYKi!W+ +++++++:;;:1++;;++1:;;:+++++++ +W!iKYRRWWWWRYHdTK ;1<:::::>:>>;hd  f~YYIYRXLIRfW~WTH^^^^^^^^^^^^^^^^",
"^^^^^^^^^^^^^^^^LPY~U*PIh gdit<py .:uHTUPIIKIIYWp, WR>PRW!!~~WRYIPIH>X+++++++;;@;1+#++#+1;@;;+++++++X>HIPIYRW!!!!WRP>RW ,pWYIIKIIPUTHu:. yp<tidg hIP*U~YPL^^^^^^^^^^^^^^^^",
"^^^^^^^^^^^^^^^^LIW~K*KUiX1t1<>1:#+ :!~~WRYIK!~~p:+HLjKR!~~~~~!RTTTHt+;+@@@@+;;;:>>:;;:>>:;;;+@@@@+;+tHTTTR!!~~~~!RKjLH+:pR~!KIYRW~~R: +#:1><1t1XiUK*K~WIL^^^^^^^^^^^^^^^^",
"^^^^^^^^^^^^^^^^LTR~i+Dd :1<<<<<<;++ R~~1   ;~~~; uGPjIR!!!!!!WRTL!Y<@;1ahfha<>>tiiiiiiiit>><ahfha1;@<Y!LTRW!!!!!!RIjPGu ;R~~;   1~~R ++;<<<<<<1: dD+i~RTL^^^^^^^^^^^^^^^^",
"^^^^^^^^^^^^^^^^LKR!: +X:1:::::::;+X+~~~@ @ <~~!  fTjdIW!!!WW!WRYhKR:*<dJRYRRHfhjFITTTTIFjhfHRRYRJd<*:RKhYRW!WW!!!WIdjTf  R~~< @ @~~R+X+;:::::::1:X+ :!RKL^^^^^^^^^^^^^^^^",
"^^^^^^^^^^^^^^^^h :y +i>@;@@;;;@;;+ 1~~W X+ a~~R  G~:fYW!!~~~!WWTIIHt;yuh!f=y<hFIR!!!!!!RIFh<y=f!huy;tHIITRW!!!!!!WYf:~G  R~~a +X W~R1 +;;@;;;@@;@>i+ y: h^^^^^^^^^^^^^^^^",
"^^^^^^^^^^^^^^^^j ihXuIy;i>>>>>++@+ d~~Y +@ h~~I +gHhGR!!~~~~!!WRIIGt>1:*GYda+dKR!TJDDJT!RPd+adYG*:1>tGIIRW!!!!!!!!RGhHg+ I~~h @+ Y~Rd +@++>>>>>i;yIuXhi j^^^^^^^^^^^^^^^^",
"^^^^^^^^^^^^^^^^G ud D!i;d11y1f> +@1K~~I <<+U~~J :gGGPW!!~~~~!!WRYIH<uy::1I~HXKR!YKd<<dKY!RKXH~I1::yu<HIURW!!!!!!!!WPGGg: J~~U+<< I~RK1@+ >f1y11d;i!D du G^^^^^^^^^^^^^^^^",
"^^^^^^^^^^^^^^^^K <t: X +::@;;;@+ i~~~RW!~!!RI!!p+aGHYW!~~~~~!!!TIYJ<py1y1dR:aR~WYht@@thYW~Ra:Rd1y1yp<JYIT!!!~~~~!!WYHGa+y!!IR!!~!WR~~Pi +@;;;@::+ X :t< K^^^^^^^^^^^^^^^^",
"^^^^^^^^^^^^^^^jfu<:<>+HH +;g;++u K!~p  *+ +  ERd+dJHYW~~~~~~~~!UyW!:y1y11Fa>h!~!Id:@@:dI!~!h>aF11y1y:!WyU!W~~~~~!!WYHJd+pRE  + +*  p~!K u++;g;+ HH+><:<ufj^^^^^^^^^^^^^^^",
"^^^^^^^^^^^^^utpgGJpdhagF>@1~t +~:T!~: <padp+:~Rg RfpR~~~~~~~~~~WJDT*:1111F;thR~~Rh<++<hR~~Rht;F1111:*TDJPW!~~~~~~!WRpfR gR~:+pdap< :~!T:~+ t~1@>FgahdpJGgptu^^^^^^^^^^^^^",
"^^^^^^^^^^^p>aggggPLFhGhhhgafdutguR~~DE~!EE!~T~~J+YhGR~~~~~~~~~~WRKd@@1<>yh+1aJ!~~Pf;;fP~~!Ja1+hy><1@@dKPTE!~~~~~~!WRGhY+J~~T~!EE!~ED~~RugtudfaghhhGhFLPgggga>p^^^^^^^^^^^",
"^^^^^^^^^t>idhjDjK~~~W!ERRRYYIIIDg~~EDy:*XX+>dW~R::FGY~~~RP~~~~~~Rd;:::::yg >tpKW~~RRRR~~WKpt> gy:::::;dUUTE~~~PR!!!YGF::R~Pd>+XX*:yDP~~gDIIIYYRRRE!W~~~KjDjhdi>t^^^^^^^^^",
"^^^^^^^^=pdfhFhF!~~~~~~~~~~~~~RYHK~U+ X@@@@@X ;E~@ ;thLW~WdH!RR!K< *<:;::1d ;:tpGIT~~~~TIGpt:; d1::;:<* <KUUREHdWEELht; @~E; X@@@@@X +P~KHYR~~~~~~~~~~~~~!FhFhfpi=^^^^^^^^",
"^^^^^^^ pdgjjgK~~~~~~~~~~~~~~~RYhU~a @@@+++++XXW~+X@+X*>pFG;::;=++@::;;;;>p++::<tafhGGhfat<::++p>;;;;::@++=;::;GFp>*X+@X+~WXX+++++@@@ a~UhYR~~~~~~~~~~~~~~~Kgjjgpt ^^^^^^^",
"^^^^^^t@dfjjGW~~~~~~~~~~~~~~~~RY1T~R:+;;;;;O;aR~E+ ;@;:>>>:;::::::::;+;;;:t@@@;::1tiaait1::;@@@t:;;;+;::::::::;:>>>:;@; +P~Pa;O;;;;;+:P~T1YaadhT~aahhhRThyahRGjjfi@^^^^^^^",
"^^^^^^ ydfhI~~~~~~~~~~~~~~~~~~RYtj~~~UPHGHLU~~~I; @@;@;<<11::::::>;;;+;;+;y:;;;;::1uuuu1::;;;;:y;+;;+;;;>::::::11<<;@;@@ ;P~~~ULHGHPU~~~jtYaa~DK~aDR~~~GaT~~~~Ihfdy ^^^^^^",
"^^^^^^ ddFE~~~~~~~~~~~~~~~~~~~RYi thLYE!!WTIGjJgjFHJJD;t><1<<:;;::;;;+@;+;d>:>yhJTW!!!!WTJhy>:>d;+;@+;;;::;;:<<1<>t;DJJHFjgJjGITW!!EYLht iYdjhLT~HhLDh~HaL~hhR~EFdp ^^^^^^",
"^^^^^::gP~~~~~!!!!!!~~~~~~~~~~RYd+1@X   pdgGy@HhduWHyhyEEEEW~h +;;;>;+;;+@gupJGp:::=::=:::pGJpug@+;;+;>;;;+ h~WEEEEyhyHWudhH@yGgdp   X@1+dYhG~LK~PhLR~!Phh!!DRE~~Pg::^^^^^",
"^^^^^ dT~~~!!!~!!!!!~~~~~~~~~~RYtX<:@; >RUIIh 1uy IR  :Fgappdh  >p+:+<d+@:pH~PLHHHLKRRKLHHHLP~Hp:@+d<+:+p>  hdppagF:  RI yu1 hIIUR> ;@:<XtYhLfHJ~YhLR~!!JhhhGREEERTd ^^^^^",
"^^^^^<KU!!!!!!!W!!!!!~~~~~!!Yh:  @:;;@++=+**=;<yu*:~H ;;==;;;@+y:+hU>ij+@utT!IU!!<H~~~~H<!!UI!Ttu@+ji>Uh+:y+@;;;==;; H~:*uy<;=**+=++@;;:@  :hY!!E~~~~EEE!!~~!EEEERUK<^^^^^",
"^^^^ydKPRW!!!WW!!!!!!!!RYGp; XX+@;;;@@;;;;;;@+iI!T K~1X#@++++@+++ :WT hPjdhRtii>X EJUUJE X>iitRhdjPh TW: +++@++++@#X1~K T!Ii+@;;;;;;@@;;;@+XX ;pGYREEEEEEEEEEEEERTPKdy^^^^",
"^^^^;aHKPUWWW!!!!~~EIFd:  X@@@@++;;;@@@;;;;@+;J~~~h:~Y +@@+++@+++X j~f Y~Jg~E!~K  WTYYTW  K~!E~gJ~Y f~j X+++@+++@@+ Y~:h~~~J;+@;;;;@@@;;;++@@@@X  :dFPTEEEEEEEETUPKHa;^^^^",
"^^^^ dFHKPUWW!!!RHd1=* *@@@@@@+@@+;;@@+;;;;+::I~~~! D~1 :++@+++++X :~I p~GDD:1gp *!YUUY!* pg1:DDG~p I~: X+++++@++: 1~D !~~~I::+;;;;+@@;;+@@+@@@@@@* *=1dHPEEEEEUPKHFd ^^^^",
"^^^^ DDFHKPYYPDy;*XXX@@@@@@+@+@@@+@@+>>;;pt+<g!~~~~h WP f;++++++++X+~!  !hFWIRRTIHE~!!~EHITRRIWFh!  !~+X++++++++;f PW h~~~~!g<+tp;;>>+@@+@@@+@+@@@@@@XXX*;yDPYYPKHFDD ^^^^",
"^^^^a!~WWRDt;X*++@@;+@@@+++++@#+@;;+ U~GU~~hT~!!!!!RR~~J~a+>:+;;@yDL~R+ RiJJR~!=   *::*   =!~RJJiR +R~LDy@;;+:>+a~J~~RR!!!!!~Th~~UG~U +;;@+#@+++++@@@+;@@++*X;tDRWW~!a^^^^",
"^^^+I!!!!Pd*+@@@@@@@#@@++++++++++;>> T~!!~jP~~~~~~!yTETTW:hRtX;:f!~~!G< I1UGE~Y *@@@;;@@@* Y~EGU1I <G!~~!f:;XtRh:WTTETy!~~~~~~Pj~!!~T >>;++++++++++@@#@@@@@@@+*dP!!!!I+^^^",
"^^^yEEE~T  +@@@@@@++#+#+#++@+@++++tj<;u=iy>~R~~~~Q~<:t *  H~a :ygfu1>>y@u>WK~~I:GUUURRUUUG:I~~KW>u@y>>1ufgy: a~H  * t:<~Q~~~~R~>yi=u;<jt++++@+@++#+#+#++@@@@@@+  T~EEEy^^^",
"^^>JETE~j +@@@@@++++@+++++++@###+:F~HI~gTgFW*W~~aH!pu~JRFgI~dXta;hGji yd 1~H~~JX11,::::,11XJ~~H~1 dy ijGh;atXd~IgFRJ~up!Ha~~W*WFgTg~IH~F:+###@+++++++@++++@@@@@+ j~ETEJ>^^",
"^^<RET!~: @@+@@+@++++@+++++++@@+:RY!!!!t <~~;W~K !~i <TIPLLUGXtyFWRIPdty p~D~~GgIPPLKKLPPIgG~~D~p ytdPIRWFytXGULLPIT< i~! K~W;~~< t!!!!YR:+@@+++++++@++++@+@@+@@ :~!TER<^^",
"^gjRTW~I  @@++@#+#+#++++++@@;; :!RHR!!Y* j~!*~~f1~~: :ILLJGHL+<y+==*+pd> h~d~~G:ddghhhhgdd:G~~d~h >dp+*==+y<+LHGJLLI: :~~1f~~*!~j *Y!!RHR!: ;;@@++++++#+#+#@++@@  I~WTRjg^",
"^:RPYW~d +@++++#++##++++@@@;;@ hEgJ!W!K  I~Lt~~<G~!  tULJLKPI:@fhIRTH>g> H~p~~jfjfhffffhfjfj~~p~H >g>HTRIhf@:IPKLJLUt  !~G<~~tL~I  K!W!JgEh @;;@@@++++##++#++++@+ d~WYPR:^",
"^pRP~~!+ +++@++++++++++@#@@@@@ FRdY~W~h  E~gh~! R~T  iRIITLPKXP>>+++:dd: L~a~~hhIUYRRRRYUIhh~~a~L :dd:+++>>PXKPLTIIRi  T~R !~hg~E  h~W~YdRF @@@@@#@++++++++++@+++ +!~~PRp^",
"iLIY~~F X@++@++@+@+++@+@@@@;+ifXIFHyupfu;@iy:phy>:@:yRf>gdyyt<>;:uypfhhdu>:aappppppppppupai:~~G~I ::XiTRjXuRX:LjhHPUd  j~!=U~U>~~@ :EWQHFIXfi+;@@@@+@+++@+@++@++@X F~~YILi"
};
