/* XPM */
static char *result[] = {
/* columns rows colors chars-per-pixel */
"45 45 23 1 ",
"  c #13230B",
". c #17330F",
"X c #1F4317",
"o c #27531B",
"O c #2F6323",
"+ c #37732B",
"@ c #3F832F",
"# c #439337",
"$ c #4B9F3F",
"% c #53AF47",
"& c #5BBF4F",
"* c #5FCF57",
"= c #67DF5F",
"- c #6FEF67",
"; c #77FF6F",
": c #FFFF23",
"> c #FFFF47",
", c #FFFF6B",
"< c #FFFF8F",
"1 c #FFFFB3",
"2 c #FFFFD7",
"3 c white",
"4 c #00FF00",
/* pixels */
"4444444444444444444$@%Oooo4444444444444444444",
"444444444444444+#$%&#&OooO+@#@444444444444444",
"4444444444444++@$$$%$&+oOO@@@@@@4444444444444",
"44444444444%#@@$$$%%%#&+++O+@@#$@+44444444444",
"444444444#%%&$$$$%&%%$$$$##++++@@@OX444444444",
"44444444#$$=&%$$$%&&%&&&&$$#@+++@@OoX44444444",
"4444444#$$%$-$$$%%*****&**%##+O+@@+ooo4444444",
"444444%&&$$#-$%%&*****%&%***&*$O+$$$@OO444444",
"44444%&&&$#@;-%*:::***%$$#*@OO*$$$$$$$$#44444",
"4444$%%&%#++@-;:***:******$#@+%*&#$##@+##4444",
"4444%&%%%@++#*:*****1::::**$$##$*&&$$@@#&4444",
"444$%&$$###%%*:****:*$*=*:*%&*%$**&&$$@#%%444",
"444$%%%$##%%**:**=:===<==:===*--*#$&$##$&%444",
"44#$$%%$$$%**:*===1====<==:::3***@$*$$#-$%%44",
"44#$$$&&***::**==-1=--=<=;;====*:--*%$#-#$%44",
"4%#$$$&$$%:**===--=1-33<<;==3333**--&&-&@$%%4",
"4%$$$$=$%%:**==---;=3--333<<<<<***#*--&##%$$4",
"4#%%$$=%%*:*==-*;;;22-23223=-<1=*&#***&#@%##4",
"4$&$==$%%:**==--;222232232<3=11:=*$$**&&&$$#4",
"$$#&=$$%*:***=--;2123323223::1==:**#*%%$&&%%%",
"%$@=$$%***:**=-;;2123333323<11-=:*%***%$$&&$%",
"%$%=#$&******--;;31>332222>31;;-*1****&%$&%##",
"%%&=&&*****:==--:113133222131;;;=111**>&&####",
"%%%====***&**:1::::><12323111;;-=**1>1>&&###@",
"%$@@&=&::***:==3=233,323223::;-==*****1>&#$##",
"$$@@&&:**:*:*=-->3>333<<23<<<=--****%&&1-&$$%",
"4$@@&&&&%*:*==-*>>3>32223<<;<3===*%%%&&&%--%4",
"4%#@&&&&&*:**;--->>=32223;;;<<*=***%%$%&%&%%4",
"4$#O&$&&**:***=--2==1=2=<<;-=1>>>>*%%#%&&$++4",
"4#$O+$&$$%*:::*-;221:22=<;;--;333>*%#$%%&$#+4",
"44@Oo@#&&%****:--=::::==:;;=;3***3;;&$$%&##44",
"44OoXo@+&&$%**:*--3322::::;;::=*%*&&;&#%#%444",
"444X.XOO+#&$**:3332;*-=22:::===**$&O&;--%4444",
"444...XoO+#&&3***1**-=****:**=**$$&O@&%%-%444",
"4444X   o+#&=&**%:*--=&&*3:*=**&$&#+@$O++4444",
"4444.   X++==&&*#*:*&&&&**3:&%%%%+OO$@oOo4444",
"44444.XX+#=%%%&&$$*:*%%%&*3:%%%&$O%$@++o44444",
"444444@##%=#+$%%&&&:&&%%%&&%%#$$$$#++oo444444",
"4444444$%*#@+@%%&;:&&%$$%#$#+#$@@$O++o4444444",
"44444444O+@@+@$&;&&&%%$$%#@++@$##+++O44444444",
"444444444+##$$$*&&%%%$$$$@+OOOOoO#@@444444444",
"44444444444@#$%*%&$$$$#$#@O+OooXX.44444444444",
"4444444444444$*%@$%$%$##@@+%$+OX4444444444444",
"444444444444444$+O%$@@@@@O#%%$444444444444444",
"4444444444444444444%@++oo.4444444444444444444"
};
