/* XPM */
static char *result[] = {
/* columns rows colors chars-per-pixel */
"45 45 23 1 ",
"  c #13230B",
". c #17330F",
"X c #1F4317",
"o c #27531B",
"O c #2F6323",
"+ c #37732B",
"@ c #3F832F",
"# c #439337",
"$ c #4B9F3F",
"% c #53AF47",
"& c #5BBF4F",
"* c #5FCF57",
"= c #67DF5F",
"- c #6FEF67",
"; c #77FF6F",
": c #FFFF23",
"> c #FFFF47",
", c #FFFF6B",
"< c #FFFF8F",
"1 c #FFFFB3",
"2 c #FFFFD7",
"3 c white",
"4 c #00FF00",
/* pixels */
"4444444444444444444$%%%%%$4444444444444444444",
"444444444444444%%#$$$$%%$$$%$#444444444444444",
"4444444444444###$%&#@%&%@@@##$@O4444444444444",
"44444444444$$$$$$%$&====@@@@OOOoX.44444444444",
"444444444$%%%$$$$$==$#&=&&%$@+oX.  .444444444",
"44444444%%&&%%$$$$=$$$&=-&&%$#@oX.  .44444444",
"4444444%&%%$%%&&==$$%&*==:&&&&#@OX  X@4444444",
"444444#&&&%$$$&$$%%%****:*&&&$&+Oo  X#$444444",
"44444#$&&%%##$*$%%%*****:*%&*$&&+OoX+#%O44444",
"4444#$$$$#@##$*%%*::*****:***%%&#+++$%$++4444",
"4444%$%$#++#%%*:::**:**&**:::**$&##%==#@#4444",
"444%%=$#@++%%*:*******:**:***:*%$&&=*#@@#@444",
"444#&&--;@#%**:**==***=*:*=**:***&==%+++$#444",
"44+@$%$$--***:*======-=:===;*:***3&&%$@@$$$44",
"44+@$$$%%;:::**==------1=---=*:::**&&%%$$%&44",
"4+@$$$$%*:***===-*--;;-:3-*----*3***&%%&==*&4",
"4#$$$$%&:****==--;;;;;::=>>--;--3*%#$&&=&%@+4",
"4$$$%%%*:***==---;22231:23>>22=-31:*$&&=&&$O4",
"4%$%&&**:***:11=;;21111:3>3>=2:32**:*&:&%$%%4",
"$&%%%&***:*:===1=2222>3>33>==1:3;*-*::&&%$$$%",
"@#$%%%****1*==--3223331<,3331::2*--&*&&%%$%@@",
"%&&#$&****:$==-3--3333313322=2:2-==&%&%%$$$@+",
"OO+&$&*%%*:*<==3-22232322<2222=:=*&&%%$$$##@+",
"ooo+$&&&$*:==<<<332332233<22===:2*&&%%$$$$#@o",
"ooO+$&*%$*:*===<323232222233<<::2***&%%%$#@@o",
"oOO+#$**#**::=;;3222222323<;<;;::*3**&*%%@@O.",
"4+@O#$%**$**=:;=<3<33>113<<;;;;;:::33-$@+O+#4",
"4@@++##*@#$%=:==<=3:<331:<;;--=;:**::%#+O+%%4",
"4#@@+@#&O@$&=:=3<-=:1111:<<<=-;:=*=&%%++OO$%4",
"4@@@+++*O+#**3=3<<111;;;;=3<1;3:==*%%##@Oo+$4",
"44@#++O$*%#%-*=3<11;-;;;--=*>3*==**%%$$$OoO44",
"44@$@++O$*$$-**3*=:;;-;;=-==>3****&%&$@#oXX44",
"444@@@@+$&****:***=::*;=;-==>3*%*$$%$$@#OX444",
"444+@@@$$#&*#@-**&***11;-=**>>3*$$&+O$$+#.444",
"4444OO+$$$&&$$--##$*%*1;=*%***;&&&#O%#O+@4444",
"4444Xoo$$#$&&**-**$#**11**%%%%;&OO+O$+++@4444",
"44444Xo@$#$$$$%&-******>*%%%%#&;&@@$@++O44444",
"444444oO$@@$#$$&-**%***1*&&$#$$&;&$@+oo444444",
"4444444O$+@@###=&&&%%&&>1&&%%%$#-%Oo+o4444444",
"44444444####$*=&##&$$%&&>1&&&%%%-%+Oo44444444",
"444444444#&%**#@#@&&$$&&&-%%&&&#%-+o444444444",
"44444444444**%$$%%$&&&###&-&$$#%4%44444444444",
"4444444444444%%%$#$%&%##$$-%+##44444444444444",
"444444444444444%$##%$####$%%++444444444444444",
"4444444444444444444%%##@#%4444444444444444444"
};
