/* XPM */
static char *result[] = {
/* columns rows colors chars-per-pixel */
"85 47 85 1 ",
"  c #1F170B",
". c #2B230F",
"X c #332B13",
"o c #3F2F17",
"O c #2F2F2F",
"+ c #373737",
"@ c #430000",
"# c #470000",
"$ c #4F0000",
"% c #5B0000",
"& c #670000",
"* c #670B0B",
"= c #730000",
"- c #7F0000",
"; c #771717",
": c #434343",
"> c gray28",
", c #4B4B4B",
"< c gray31",
"1 c gray34",
"2 c #5B5B5B",
"3 c gray39",
"4 c gray42",
"5 c #6F6F6F",
"6 c #777777",
"7 c gray50",
"8 c #8B0000",
"9 c #9B0000",
"0 c #A70000",
"q c #B30000",
"w c #BF0000",
"e c #872300",
"r c #932F00",
"t c #9F3700",
"y c #CB0000",
"u c #D70000",
"i c #E30000",
"p c #EF0000",
"a c red",
"s c #FF1F1F",
"d c #FF3F3F",
"f c #AF4300",
"g c #B74700",
"h c #C34F00",
"j c #CB5707",
"k c #D75F0B",
"l c #DF670F",
"z c #EB6F0F",
"x c #F37317",
"c c #FF7F1B",
"v c #FF5F5F",
"b c #FF7B7B",
"n c #FF8F3B",
"m c #FFFF23",
"M c #FFA35B",
"N c #FFB37B",
"B c #FFFF6B",
"V c #838383",
"C c #8B8B8B",
"Z c #939393",
"A c #979797",
"S c #9F9F9F",
"D c #A7A7A7",
"F c gray67",
"G c gray70",
"H c #B7B7B7",
"J c gray75",
"K c #FF9B9B",
"L c #FFBBBB",
"P c #FFC79B",
"I c #FFFF8F",
"U c #FFD7BB",
"Y c #FFFFB3",
"T c gray78",
"R c #CBCBCB",
"E c LightGray",
"W c gray86",
"Q c #DFDFDF",
"! c #FFDBDB",
"~ c #FFEBDB",
"^ c #FFFFD7",
"/ c #E7E7E7",
"( c #EFEFEF",
") c white",
"_ c #00FF00",
/* pixels */
"________________________________________======_______________________________________",
"____________________________________8888-****-8888___________________________________",
"__________________________________-9u08--====--80u9-_________________________________",
"_________________________________%0ww9--e----ee-9ww0%________________________________",
"________________________________&e9q8eeqwyyyywwee8q9e&_______________________________",
"____________________________&%89e898&eqyiiiiiiiqe&898e98%&___________________________",
"_________________________99r8yywqqyyyuuuw9999wyuuyyyqqwyy8r990_______________________",
"_____________________fgg9r90qyyyuiiiuuupyq00qyuuuuiiiuyyyq09000______________________",
"_____________________@ghh0qqqeyiaaapuuuuuuyyuuuuuupaaaiyeqqhhg0%@@___________________",
"___________________--=ghhjj8ewuaapiipuyyyuuuuywyupiipaauwjjhhg0@&--__________________",
"__________________q99&hhjjkhhyuaapyyuuyyyuiiuyyyuuyypaahhkjjhh%@%99q_________________",
"__________________q0=%@jjlkzjhwpsipwyyyyqqqppquywpwspwhjzkljj=&@@=0q;________________",
"_________________-0-%%e&kkcccjjppsppwiwupddpuqiwppsppjjccckk-&&e&%-0-________________",
"_________________&&%=e&@%zcnnMcjpvpsdsdpvddvpdsdspvpjcMnnczq0%@&e=%&&________________",
"_________________#&-ere%-jcnNNNMcvxcdvvvvbbvvvvdcxvcMNNNncjqq-%ere-&#________________",
"________________r%8rrrywwyjMNPUIUNncbnMbKKKKbMnbcnNUIUPNMj9qywwytrr8%r_______________",
"_______________X 8r9rqywwqscNUII)~UPNNML!!!!LMNPU~~)IIUNcsq9qwwywr9r8 X______________",
"_______________@&q989qipippsMII))))~~~~~))))~~~~~))))IIMsppuyipiy989q&@______________",
"_______________%8q8=9qppyuppcU)))))YBm^Y)))))^mBY)))))Ucppuiuyppy9=8q8%@_____________",
"______________@899&&9qpyqiuvvP~)))))Y^^)))))))^Y)))))~Pvvuppiqypy9&&998&_____________",
"______________@oq=%&9qiwqqipxNU))))))))))))))))))))))UNxpiyyqqwiy9&%=q98_____________",
"______________@99&%%9quwq8iscNU~B))))))))))))))))))B~UNcsiq98qwuy9%%&998_____________",
"______________@qo&$&rqyww=p4ZTWTZ77AE)))))))))))EA75AR(QRA8-=wwyyr&$&qq8_____________",
"______________@0q--8qrqww46AH//EG72,37E)))))))E73,3VFR/(EHS6&wwq9q8--q08_____________",
"______________@9q=99qq8,36CDT//EFA4>>37E)))))E73+<4AHE//EGFA5<089q99=q9-_____________",
"______________@89&q90q:24VCSJ!/EGA4<::37E)))E73O:26AHR//EJFA7418909q&98=_____________",
"______________@&-&889:<36VZSHD763134555555566777776567ADRHDA752,q988&-&@_____________",
"_______________%&%%&9,2356633333436VASHREEEEEEEHGS77666433567641w9&%%&%@_____________",
"_______________$=%@%:<44335337STW___________________/EHD7564336<>9%@%=$._____________",
"_______________$=&@6444434FE____________________________(ERA664366%@&=$______________",
"_______________@=64443VTW__________________________________((EA55556-=@______________",
"_______________64444AR________________________________________QQH64334_______________",
"_____________64445FT____________________________________________E/D64334_____________",
"____________4443VA________________________________________________RRF4444____________",
"___________444VZ____________________________________________________GGS7444__________",
"_________3436D________________________________________________________HHS554_________",
"________223V5__________________________________________________________SFS634________",
"_______<2565_____________________________________________________________ZFV33_______",
"______:2VV_________________________________________________________________A642______",
"_____:<55___________________________________________________________________AV31_____",
"____<<54_____________________________________________________________________S711____",
"___<>46_______________________________________________________________________A621___",
"__<>33_________________________________________________________________________Z6<2__",
"_<>15___________________________________________________________________________C6<__",
"_<24_____________________________________________________________________________Z32_",
"<23_______________________________________________________________________________V32",
":3_________________________________________________________________________________62"
};
