/* XPM */
static char *result[] = {
/* columns rows colors chars-per-pixel */
"105 79 35 1 ",
"  c black",
". c #070707",
"X c #00000B",
"o c #0B0B0B",
"O c #131313",
"+ c #1B1B1B",
"@ c #232323",
"# c #272727",
"$ c #2F2F2F",
"% c #373737",
"& c gray23",
"* c #430000",
"= c #4F0000",
"- c #5B0000",
"; c #670000",
": c #434343",
"> c gray28",
", c gray31",
"< c gray34",
"1 c #5B5B5B",
"2 c gray39",
"3 c gray42",
"4 c #6F6F6F",
"5 c #777777",
"6 c gray50",
"7 c #838383",
"8 c #8B8B8B",
"9 c #939393",
"0 c #979797",
"q c #9F9F9F",
"w c gray67",
"e c gray70",
"r c gray75",
"t c gray78",
"y c #00FF00",
/* pixels */
"yyyyyyyyyyyyyyyyyyyyyyyyyyyyyyyyyyyyyyyyyy*yyyyyyyyyyyyyyyyyyyyyyyyyyyyyyyyyyyyyyyyyyyyyyyyyyyyyyyyyyyyyy",
"yyyyyyyyyyyyyyyyyyyyyyyyyyyyyyyyyyyyyyy*yy**yyyyyyyyyyyyyyyyyyyyyyyyyyyyyyyyyyyyyyyyyyyyyyyyyyyyyyyyyyyyy",
"yyyyyyyyyyyyyyyyyyyyyyyyyyyyyyyyyyyyyy*yyy**yyyyyyyyyyyy*yyyyyyyyyyyyyyyyyyyyyyyyyyyyyyyyyyyyyyyyyyyyyyyy",
"yyyyyyyyyyyyyyyyyyyy*yyyyyyyyyyyyyyyyyyyyyy-*yyyyyyyyyyyy*yyyyyyyyyyyyyyyyyyyyyyyyyyyyyyyyyyyyyyyyyyyyyyy",
"yyyyyyyyyyyyyyyyyyyyyyyyyyyyyyyyyyyyyyyyyy--*yyyyyyyyyyyyyyyyyyyyyyyyyyyyyyyyyyyyyyyyyyyyyyyyyyyyyyyyyyyy",
"yyyyyyyyyyyyyyyyyyyy*yyyyyyyyyyyyyyyyyyyyyyyyy***yyyyyyyyyyyyyyyyyyyyyyyyyyyyyyyyyyyyyyyyyyyyyyyyyyyyyyyy",
"yyyyyyyyyyyyyyyyyyyyyyyyyy*yyyyyyyyyyyyyyyyyyyy**yyyyy**yyyyyyyyyyyyyyyyyyyyyyyyyyyyyyyyyyyyyyyyyyyyyyyyy",
"yyyyyyyyyyyyyyyyy***yyyyyyyyyyyyyyyyyyyyyyyyyyyyy*yyyyy**yyyyyyyyyyyyyyyyyyyyyyyyyyyyyyyyyyyyyyyyyyyyyyyy",
"yyyyyyyyyyyyyyyyyy*-yyyyyyyyyyyyyyyyyyyyyyyyyyyy**yy*yy**yy****yyyyyyyyyyyyyyyyyyyyyyyyyyyyyyyyyyyyyyyyyy",
"yyyyyyyyyyyyyy**yyyy*yy**yy**yyyyyyyyy***yyyyyyyyy**yyyyy**===-=***yyyyyyyyyyyyyyyyyyyyyyyyyyyyyyyyyyyyyy",
"yyyyyyyyyyyyyy***y*--*y**yyyyyy***yyyyyyyyyyy*********yyyyyy*=-----*yyyyyyyyyyyyyyyyyyyyyyyyyyyyyyyyyyyyy",
"yyyyyyyyyyyyyy**y*=;=*y**yyyy**;=**yyyyyyyyyyy**yy***yyy**yy**=----**yyyyyy*yyyyyyyyyyyyyyyyyyyyyyyyyyyyy",
"yyyyyyyyyyyyyyyyyy*=yyyyyyy**-;=*yyyyyyyy*yyyyyyyyyyyyyyyyy****=****yyyyyyyyyyyyyyyyyyyyyyyyyyyyyyyyyyyyy",
"yyyyyyyyyyyyyyyyyy*=yy*yyyy**==*yyy****yy*yyyyyyyyyyyyy***********yyyyyyyyyyyyyyyyyyyyyyyyyyyyyyyyyyyyyyy",
"yyyyyyyy*yyyyyyyy***y*yy**==**y****=-;=**yyyyyyyyyyyyyyy****yyy**yy***yyyyyyyyyyyyyyyyyyyyyyyyyyyyyyyyyyy",
"yyyyyyyyyyyyyyyy**y*yyyy=-;-*yy*===;;;-**yyyy**yyyyyyyyyyyy**yyy*yy***yyyyyyyyyyyyyyyyyyyyyyyyyyyyyyyyyyy",
"yyyyyyyyyyyyyyyyy**y***y*=====****y-;;=*yyyyyy**yy*yyyyyyyyy***yyyyyyyyyyyyyyyyyy*yyyyyyyyyyyyyyyyyyyyyyy",
"yyyyyyyy*yyyyyyyy**y*=*yy*=--=*yy**=--***yyy*yyyyyyyyyyyyyyyyy*yyyyyyy*yyyyyyyyyyyyyy**yyyyyyyyyyyyyyyyyy",
"yyyyyyyyyyyyy*yyyyyy=-*yy=-;;=*yy*****yyyyyyyyyyyyyyyyyyyyyy*y*y*yyyyyyyyyyyyyyyyyyyy***yyyyyyyyyyyyyyyyy",
"yyyyyyyyyyyyyyyyyyyy-=*y*-;;-**yyyyyyyyyyyyyyyy**yyyyyyyyyyyyyyyyyy**yyyyyyyyyyyyyyyy*=-=*yyyyyyyyyyyyyyy",
"yyyyyyyyyyyyyyyyyyyy=*yyy-;--*yyyy*yyyyyyyyyyy**yyyyyyyyyyyyyyyyyyyy*yyyyyyyyyyyyyyyyy=-=*yyyyyyyyyyyyyyy",
"yyyyyyyyyyyyy*yyyyy***y**---*y**yy*yyyyyy*yyyyyyyyyyyyyyyyyyyyyyyyyyy*yyyyyyyyyyyyyyyy**=*yyyyyyyyyyyyyyy",
"yyyyyyyyyyy**yyyyyy*yyyy*=-*y**yy*yyyy**yyyyyyyyyyyyyyyyyyyyyyyyyyyyyyyyyyyyyyyyyyyyyyy*=*yyyyyyyyyyyyyyy",
"yyyyyyy**yyyyyyyyyyy*******yyyyyy****yyyyyyyyyyyyyyyyyyyyyyyyyyyyyyyyyyy*yyyyyyyyyyyyyyy***yyyyyyyyyyyyyy",
"yyyyyyy**yyyy*yyyyyy****y**yyyyy****yyyyyyyyyyyyyyyyyyyyyyyyyyyyyyyyyyyyyyyyyyyyyyyyyyyyyyyyyyyyyyyyyyyyy",
"yyyyyy***yyyyyyyyyyy**yyyyyyyyyy****yyyyyyyyyyyyyyyyyyyyyyyyyyyyyyyyyyyyyyyyyyyyyyyyyyyyyyy*yyyyyyyyyyyyy",
"yyyyy*--*yy**yyyyyyy*yy*yyyyyyyyyyyyyyyyyyyyyyyyyyyyyyyyyyyyyyyyyyyyyyyyyyyyyyyyyyyyyyyyyyyyyyyyyyyyyyyyy",
"yyyyy*--*yy**yy*yyyyyyy*yyyyyyy***yyyyyyyyyyyyyyyyyyyyyyyyyyyyyyyyyyyyyyyyyyyyyyyyyyyyyyyyyyyyyyyyyyyyyyy",
"yyyy**--*yy*yyyyyyyyyyyyyyyy**y**yyyyyyyyyyyyyyyyyyyyyyyyyyyyyyyyyyyyyyyyyyyyyyyyyyyyyyyyy*yyyyyyyyyyyyyy",
"yy*y**==***yy*yyyyy*yyyyyyyy**y*yyyyyyyyyyyyyyyyyyyyyyyyyyyyyyyyyyyyyyyyyyyyyyyyyyy*****yy**yyyyyy*yyyyyy",
"yyyy*=---**yyyyy*yy*yyy**yyyyyyyyyyyyyyyyyyyyyyyyyyyyyyyyyyyyyyyyyyyyyyyyyyyyyyyyyyyyy*-*yyyyyyyyyyyyyyyy",
"yyyyy*-;-**yyyyyyyyyyy**yyyyyyyyyyyyyyyyyyyyyyyyyyyyyyyyyyyyyyyyyyyyyyyyyyyyyyyyyyyyyyy**y*yy*yyyyyyyyyyy",
"yyyyy*=--*yyyyy*y*yyyy**yyyyyyy*yyyyyyyyyyyyyyyyyyyyyyyyyyyyyyyyyyyyyyyyyyyyyyyyyyyyyyy**yy*yyyyyy*yyyyyy",
"yyyyyy****yy*y*yyyyyyyyy*yyyyyyyyyyyyyyyyyyyyyyyyyyyyyyyyyyyyyyyyyyyyyyyyyyyyyyyyyyyyyyy*yyyy*yyyyyyyyyyy",
"yyyyyy**y*yyyyyyyyyy*yy*yyyyyyyyyyyyyyyyyyyyyyyyyyyyyyyyyyyyyyyyyyyyyyyyyyyyyyyyyyyyyyyyyyyyyyyyyyyyyyyyy",
"yyyyy*yyyyyyy**yyyy**y**yyyy*yyyyyyyyyyyyyyyyyyyyyyyyyyyyyyyyyyyyyyyyyyyyyyyyyyyyyyyyyyyyyyyyyyyyyyyyyyyy",
"yyyyy*yyyy*yy**yyyy*y***yyy*yyyyyyyyyyyyyyyyyyyyyyyyyyyyyyyyyyyyyyyyyyyyyyyyyyyyyyyyyyyyy**yy*yyyyyyyyyyy",
"**yy*yyyy***yyyyy**y**y*yyyyyyyyyyyyyyyyyyyyyyyyyyyyyyyyyyyyyyyyyyyyyyyyyyyyyyyyyyyyyyyyyyyyyy**yyyyyyyyy",
"*yy***yyy***yyyyy**y*y**yyyyyyyyyyyyyyyyyyyyyyyyyyyyyyyyyyyyyyyyyyyyyyyyyyyyyyyyyyyyyyyyyyyyyyyyyy**yyyyy",
"yyy***yyy*y*yyy*y**yyy*yyy*yyyyyyyyyyyyyyyyyyyyyyyyyyyyyyyyyyyyyyyyyyyyyyyyyyyyyyyyyyyyyyyyyy*yyyy**yyyyy",
"yyy***yyy**yyy***=**yyyyyyyyyyyyyyyyyyyyyyyyyyyyyyyyyyyyyyyyyyyyyyyyyyyyyyyyyyyyyyyyyyyyyyyyyyyyyy***yyyy",
"yyy***yyyy**yy**==**yyyyyy*yyyyyyyyyyyyyyyyyyyyyyyyyyyyyyyyyyyyyyyyyyyyyyyyyyyyyyyyyyyyyyyyyyy**yy*--*yyy",
"yyyy***yyyyyyy**=-=*yyyyyyyyyyyyyyyyyyyyyyyyyyyyyyyyyyyyyyyyyyyyyyyyyyyyyyyyyyyyyyyyyyyyy*yyyy**yy*--*yyy",
"yyyyy*yyyyy**yy**--=*yyyyyyyyyyyyyyyyyyyyyyyyyyyyyyyyyyyyyyyyyyyyyyyyyyyyyyyyyyyyyyyyyyyyy*yyyy*yy*--**yy",
"yyyyyyyyyy****yy*--=*yy*yyyyyyyyyyyyyyyyyyy21<<:&>>>>&:<<12yyyyyyyyyyyyyyyyyyyyyyyyyyyyyyy**y*yy***==**y*",
"yyyyyyyyyy*==*yy*=-=*y**yyyyyyyyyyyyyyyyO$%&&&&&&&&&&&&&&:&%$#yyyyyyyyyyyyyyyyyyyyyyyyyyyy**yyyy**---=*yy",
"yyyyyyyyyy*=-*====-=yy**yyyyyyyyyyyyyy @##$#%%#        #%%#$#@  yyyyyyyyyyyyyyyyyyyyyyyyyyyyyyyy**-;-*yyy",
"yyyyyyyyy**=----====yyyyyyyyyyyyyyyyOO @@@>35yyyyyyyyyyyy53>@   OOyyyyyyyyyyyyyyyy*yyyyyyyyy*yyyy*--=*yyy",
"yyyyyyyyy**=----==--*yyy*yyyyyyyyyyOX .OO  @@@@&&&&&&&&@@@@  OO. XOyyyyyyyyyyyyyy**yyyyy**yy*y*yy****yyyy",
"yyyyyyyyy**=-=====--***yyyyyyyyyyOO O@@$$<478999555555999874<$$@@O OOyyyyyyyyy*yyyyyyyyy**yyyyyyy*y**yyyy",
"yyyy*=**y****-=*****y***yyyyyyyyOO.+$,4779wertw6>%  %>6wtrew9774,$+.OOyyyyyyyyyy**yyyyyy*yyyy*yyyyyyy*yyy",
"yyyy=-=**y****=**yy*yy**yyyyyyO OO$146799qwrtw6&$yyyy$&6wtrwq997641$OO Oyyyyyyyy**yyyyyyyyyy**yy*yyyy*yyy",
"yyyy=--*****=*-=**yy*yyyyyy*yO.%,,1347800qwrtw5,yyyyyy,5wtrwq0087431,,%.Oyyyy*y*=*yyyyyyy*yy*yy***yyyy*yy",
"yyy*=--*y**--*-=*yyy*yyyyyyyO &,112347800qwrtw3&yyyyyy&3wtrwq008743211,& O.yyyy*=yyyyyyyy*yyyyy***yyy***y",
"yyyy=--*y**=-*y*=*yyyy*yyy.OO&&,112347800qwrtw3#yyyyyy#3wtrwq008743211,&&OO.yy***yyyyyyy**yy*yy*y*yyy***y",
"yyyy*==*yy*=**y***yyyyyyy.OO&:,,112247800qwrrw2$yyyyyy$2wrrwq008742211,,:&OO.yy*yyyy***y**yy*yyy**yyy***y",
"yyyy*==*y*yy*yyyy**yyyyy.OO&&>,,111235600qweew3&yyyyyy&3weewq006532111,,>&&OO.yyyyyy*=*y**yyyyy**yyyy***y",
"yyyyy*==*yyyyyyyyy*y**y.Oo$$&>>,,,1125655422211134644311124557765211,,,>>&$$oO.yyyyy**yy****yyyyyyyy***yy",
"yyyyy**-*yyyy*yyyy***=.O.$$$%&:>,,,<<>&%$&>,,,yyyyyyyyyyy,,>&$$%><<,,,>:&%$$$.Oyyyy**yyy**=*yy**yyyyy*yyy",
"yy*yyy*=***yyyyyyy**=-O.##$$$&:>:::>&%%%%%yyyyyyyyyyyyyyyyyyy%%%#%%:::>:&$$$##.O*y***yyy*=-=y****yyyyyyyy",
"yyyyyyy****yyy**yyyy*OO.##$$$&:>:::%%#%%yyyyyyyyyyyyyyyyyyyyyyy%##%&::>:&$$$##.OOy*=*yy**--=y*==*yyyyyyyy",
"yyy*yyy****yyyy***yyOO +@@$$$%:&%%$##%yyyyyyyyyyyyyyyyyyyyyyyyyyy##$&%&:%$$$@@+ OO*--**y*--=yy==yyyyyyyyy",
"yyyyyyyy***yyyy****yO.O++@##$%&$###%yyyyyyyyyyyyyyyyyyyyyyyyyyyyyyy###$&%$##@++O.O*-=**y*--=y==yyyyyyyyyy",
"yyyy*yyy*==*****=-y  O+++@##$$$#$$%yyyyyyyyyyyyyyyyyyyyyyyyyyyyyyyyy$$#$$$##@+++O  *=*yy*==*yy=yyyyyyyyyy",
"yyyy**yyy*=*y***==*  O++++@@###$&yyyyyyyyyyyyyyyyyyyyyyyyyyyyyyyyyyyyy$###@@++++O  *yyyy*==*yyyyyyyyyyyyy",
"yyyy**y***=**yy**= ooO++++++@#$&yyyyyyyyyyyyyyyyyyyyyyyyyyyyyyyyyyyyyyy$#@++++++Ooo yyy*==*yyyyyyyyyyyyyy",
"yyyy*=*******yyy**oOO+++++@@$$%yyyyyyyyyyyyyyyyyyyyyyyyyyyyyyyyyyyyyyyyy$$@@+++++OOoyyy*-**yyyyyyyyyyyyyy",
"yyyyy=--*yyyyyyyy oOO+++++@@$$yyyyyyyyyyyyyyyyyyyyyyyyyyyyyyyyyyyyyyyyyyy$@@+++++OOo y**=*yyy*yyyyyyyyyyy",
"yyyyy*=-=*yyyyyyy OOO++++@$$%yyyyyyyyyyyyyyyyyyyyyyyyyyyyyyyyyyyyyyyyyyyyy$$@++++OOO y***yyyyyyyyyyyyyyyy",
"yyyyyy*==**yyy*y  OOO+++@$%%yyyyyyyyyyyyyyyyyyyyyyyyyyyyyyyyyyyyyyyyyyyyyyy%$@+++OOO  ***yyy*yyyyyyyyyyyy",
"yyyyyyy****yyy**#oOOO++@%$$yyyyyyyyyyyyyyyyyyyyyyyyyyyyyyyyyyyyyyyyyyyyyyyyy$%@++OOOo#**yyyyyyyyyyyyyyyyy",
"yyyyyyyyy**yyyy*,#OOO+@%$yyyyyyyyyyyyyyyyyyyyyyyyyyyyyyyyyyyyyyyyyyyyyyyyyyyyy%@+OOO#,=*yyy*yyyyyyyyyyyyy",
"yyyyyyyyyy%1688831&##+$@yyyyyyyyyyyyyyyyyyyyyyyyyyyyyyyyyyyyyyyyyyyyyyyyyyyyyyy$+##&1388861%yyyyyyyyyyyyy",
"yyyyyyyyyy%1333331&##+$yyyyyyyyyyyyyyyyyyyyyyyyyyyyyyyyyyyyyyyyyyyyyyyyyyyyyyyyy+##&1333331%yyyyyyyyyyyyy",
"yyyyyyyyyy&$&&&&&&%++Oyyyyyyyyyyyyyyyyyyyyyyyyyyyyyyyyyyyyyyyyyyyyyyyyyyyyyyyyyyy++%&&&&&&$&yyyyyyyyyyyyy",
"yyyyyyyyyy  XOOoOOOOOyyyyyyyyyyyyyyyyyyyyyyyyyyyyyyyyyyyyyyyyyyyyyyyyyyyyyyyyyyyyyOOOOoOOX  yyyyyyyyyyyyy",
"yyyyyyyyyy OO+++++OOyyyyyyyyyyyyyyyyyyyyyyyyyyyyyyyyyyyyyyyyyyyyyyyyyyyyyyyyyyyyyyyO+++++OO yyyyyyyyyyyyy",
"yyyyyyyyyy +++++++oOyyyyyyyyyyyyyyyyyyyyyyyyyyyyyyyyyyyyyyyyyyyyyyyyyyyyyyyyyyyyyyyo+++++++ yyyyyyyyyyyyy",
"yyyyyyyyyy ++++++OOyyyyyyyyyyyyyyyyyyyyyyyyyyyyyyyyyyyyyyyyyyyyyyyyyyyyyyyyyyyyyyyyy+++++++ yyyyyyyyyyyyy"
};
