/* XPM */
static char *result[] = {
/* columns rows colors chars-per-pixel */
"88 58 45 1 ",
"  c black",
". c #070707",
"X c #00000B",
"o c #0B0B0B",
"O c #131313",
"+ c #1B1B1B",
"@ c #232323",
"# c #272727",
"$ c #2F2F2F",
"% c #373737",
"& c gray23",
"* c #430000",
"= c #470000",
"- c #4F0000",
"; c #5B0000",
": c #670000",
"> c #730000",
", c #7F0000",
"< c #434343",
"1 c gray28",
"2 c gray31",
"3 c gray34",
"4 c #5B5B5B",
"5 c gray39",
"6 c gray42",
"7 c #6F6F6F",
"8 c #777777",
"9 c gray50",
"0 c #8B0000",
"q c #9B0000",
"w c #A70000",
"e c #B30000",
"r c #BF0000",
"t c #CB0000",
"y c #D70000",
"u c #838383",
"i c #8B8B8B",
"p c #939393",
"a c #979797",
"s c #9F9F9F",
"d c gray67",
"f c gray70",
"g c gray75",
"h c gray78",
"j c #00FF00",
/* pixels */
"jjjjjjjjjjjjjjjjjjjjjjjjjjjjjjjjjj*:::****jjjjjjjjjjjjjjjjjjjjjjjjjjjjjjjjjjjjjjjjjjjjjj",
"jjjjjjjjjjjjjjjjjjjjjjjj*::*jjj*:::*jj=-::::::***jjjjjjjjjjjjjjjjjjjjjjjjjjjjjjjjjjjjjjj",
"jjjjjjjjjjjjjjjjjjjjjjjj***jj**::*jj**00,,>:*;:*jjjjj*j****jjjjjjjjjjjjjjjjjjjjjjjjjjjjj",
"jjjjjjjjjjjjjjjjjjjjjjjjjjj****jj**=-:::0wew0:;:;*****jjjjj***jjjjjjjjjjjjjjjjjjjjjjjjjj",
"jjjjjjjjjjjjjjjjjjjjjjjjjjjjj*jjjj***=--,qwqq0;:;********jjj****jjjjjjjjjjjjjjjjjjjjjjjj",
"jjjjjjjjjjjjjjjjjjjj****************=;;;;-:::>,:-**jjjj*******-;**jjjjjjjjjjjjjjjjjjjjjj",
"jjjjjjjjjjjjjjjjjj***;**;::::;*=;::;;:>>:;--;:,,:::**jjjjj**jjj*:;jjjjjjjjjjjjjjjjjjjjjj",
"jjjjjjjjjjjjjjjjj*>>>::>qwwqw>>,,,,>::,00,;***000,,00::*******jj::*jjjjjjjjjjjjjjjjjjjjj",
"jjjjjjjjjjjjjjjj*;q>:>,0ewqq0::0,>:-*;:,0,,;--:00>:,0,:**;j*jj**-:*j***jjjjjjjjjjjjjjjjj",
"jjjjjjjjjjjj**jj*;>>>,00w00,:::>>:;=**;:,,;;;;;;::;:,0,****;**jj*-**j*j*jjjjjjjjjjjjjjjj",
"jjjjjjjjj**>0:;-=j*;>,0qqwwq0,,qq0,>>;:0--;**-**-=--;;;-*=**j***j**;*j***j*jjjjjjjjjjjjj",
"jjjjjjjjj*-,0;;;j*>;;:qw,,00qqwwwqq00:,,:;;;;;;;;****-;--*-******j*-:;:;***jjjjjjjjjjjjj",
"jjjjjjjj*-:*j-0:---j*;::;,qwwrtttewwqqqqqqwwwq,,,,,>:;=-:>:-*-;;****,>:=;:-*jjjjjjjjjjjj",
"jjjjjjjj*;>*j->:;-jj-;;*>,qqwrttttrewwwwwerree0,0qwq0>::,,>:*=;>:-**:;*jj*j**jjjjjjjjjjj",
"jjjjjjj*=j***:::****=-j=>,,,qrtttyyytttrttewq0,,0weere00>w0,;-**;=--;-***jj***jjjjjjjjjj",
"jjjjjjj**j**:q0:j*-*jj=->,>,qettyyyyyyytttwq,,>00qqqewwe0000:-**==-:>>:*=*jj***jjjjjjjjj",
"jjjjjjj**j**,,:;;;***-:>00,0qwettyyyyytttrwq>::::;-::>,,>0qr,:*--=*;,,00>;-jj**jjjjjjjjj",
"jjjjjjj**j**::-;--=*-;>0000qwwwertyyttrrrewq>,:;;----::>:,0q>;=-;-**>00q0,>****jjjjjjjjj",
"jjjjjjjj*-j-;-*;**;;;;0q,0qww0,,qerrewqq,,>>:>:,>:::;*;::,,0,:-*::**-:,qqqq>-*jjjjjjjjjj",
"jjjjjjjjjj---**;*;>>;;0q00qwq>>,0wwwq0,,,>:;-;,ww::,>=**:,>,,:-*:>-**->0qqw0:*jjjjjjjjjj",
"jjjjjjjjj----*--;:,,;;,000qwq>>>>wwq0,,,,>;-==:>>::,w;-*=:>,>:-*:,:***;00qwq>**jjjjjjjjj",
"jjjj-jj--j-*j-;;>,q,;;::>0q,>;;>,qq,,,qqqq;-;;;;;*-;:>:;;;;,,:-*;,,****:0qqq>-*j*jjjjjjj",
"jjj-jj-----jj-;;,00,;;:;>,0>:=;>,q0,,0wq,>=;,,>>;-*-;000,,>;::;*-::*j**->0q0>-****jjjjjj",
"jj-j--j;---j-;:>,,,>;==;>,>:;==>,q0,qwq,==--;;;;;;-**->0000:*--*-;;***j*-,>>:-****jjjjjj",
"jj--jj->;-=*;,q,00,>---;,,>;-==>,qqqww,>*;;***;**--**=-,0>0,*==**--jj**j*>,>;-****jjjjjj",
"jj->,j-0>;=*>000ee0,;;;;,,>;:>>>>,0q,>:,>0,,ee>:=*******--,0;****=*==jj**:>>>:-j*j**jjjj",
"jj-:>j-:::-;,00qrr0,::;>,,>::,,>>>,>:;;::;>qee0;==********;0;******=-jj-j-:>,:-*jj**jjjj",
"jjj--;--:0>>,0qerrq00:>,,>>>,q0;;>>=**j*j=-:>>******j**jj**;-*==****jjjj---:0,:-*jj**jjj",
"jjjj---j:q,>,0qerrq0,->,,>;>,q,=;::*****j*==--**j*j*jj*jj**-***=****jjjj---:,0>;**j**jjj",
"jjjjjj-j=0q>>0qere0,>::,q>>,,,,>;--==jjjjj********j**jjjjjj**;:;***jjjjj---;>0,;;*jj*jjj",
"jj-jjj---0q>>0erre,::::,q,,,,,,>;*=--*jjjj*;***jj**j**jjjjj*;:>:***j*jjjj--*:,>:;*jj*jjj",
"jjj-j*---00::0erre,;:;>0q0,,,,0,>;---=5433*:;*11&<3345jjjjjj;:,>*-*j*j-jj*--;:>>;*jj*jjj",
"jjj-j-*-->,::,qere,,:;>,wwqqwww,,>>O$%&&&&*,:*&&&&&&<&%$#jjj;>,,*::-:j*-j*-:--;0>-*j*jjj",
"-j---*-*-:>::>0ere,0:;:>weqqwww0, @##$#%%#:0,*    #%%#$#@  j:,,>*:>;:,*-j-;>:*;,>;*j*jjj",
"-----j*--=;;-;>0q0,,:;,,qwwwewwOO @@@168**00>=j**jjj861@   OO,>::,,>:00>;;>0>**::;***jjj",
"j---;j-j;=----:,0,,>--,,0qwereOX .OO  @@@@&&&&&&&&@@@@  OO. XO>::,,:>0q0:;,q>*;:;-*j**jj",
"j-j-;::-jj*=*--:,,>:-*:,,0qeOO O@@$$37uippp888888pppiu73$$@@O OO,0>:0wewq>00>*;***jj**jj",
"jjj--00--jjjj*-;,,>:-=:,,,0OO.+$27uupdfghd91%  %19dhgfdpuu72$+.OO0::qwrew0q0>*;***jj**jj",
"jjjj->0:-:*jj=--,q>,:=-:,O OO$479uppsdghd9&$***j$&9dhgdsppu974$OO O,qwrewqq>-=**j**jj*jj",
"jj-jj:>>::qjj=;;:,>:;*-;O.%22467uiaasdghd82****jj28dhgdsaaiu76422%.Oqqwwwq0>-==-j**jjjjj",
"j-j------j,*j;::;;;;-**O &244567uiaasdghd6&**---j&6dhgdsaaiu765442& O.000,>:>>-*-***j*jj",
"j-j--jj*--:**:>>;;>:=.OO&&244567uiaasdghd6#******#6dhgdsaaiu765442&&OO.>>,:-:>;*-*****jj",
"jjjj-jj**--*j:,,:;:,.OO&<2244557uiaasdggd5$-**---$5dggdsaaiu7554422<&OO.,,;*;>>**j****jj",
"jjjjj--**jj:*:,,:;=.OO&&1224445689aasdffd6&-*-***&6dffdsaa9865444221&&OO.0>=-00***j**jjj",
"jjjjj*****j**:,0>;.Oo$$&11222445898875554446797764445788uu9854422211&$$oO.>-*00***j*****",
"jjjjjj**j****:,0,.O.$$$%&<1222331&%$&122jjjjjjjjjjjjj21&$$%1332221<&%$$$.O0:->>=**jj***j",
"jjjjjj***j*j*>,qqO.##$$$&<1<<<1&%%%jjjjjjjjjjjjjjjjjjjjjj%%#%%<<<1<&$$$##.O,;;:=**j***jj",
"jjjjjjj*j****;>,OO.##$$$&<1<<<%%#jjjjjjjjjjjjjjjjjjjjjjjjjjj#%&<<1<&$$$##.OO:**j--=***jj",
"jjjjjj*jj**-*->OO +@@$$$%<&%%$jjjjjjjjjjjjjjjjjjjjjjjjjjjjjjjj$&%&<%$$$@@+ OO*jjj-==**jj",
"jjjjjj***=->>>,O.O++@##$%&$#jjjjjjjjjjjjjjjjjjjjjjjjjjjjjjjjjjjj#$&%$##@++O.O*jjj*;:;;j*",
"jjjjjj-**=;,,,  O+++@##$$$#jjjjjjjjjjjjjjjjjjjjjjjjjjjjjjjjjjjjjjj$$$##@+++O  jjj*::;:**",
"jjjjjj---,,0,0  O++++@@##jjjjjjjjjjjjjjjjjjjjjjjjjjjjjjjjjjjjjjjjjj##@@++++O  jj**,,::**",
"jjjjjjjj-,,-- ooO++++++@jjjjjjjjjjjjjjjjjjjjjjjjjjjjjjjjjjjjjjjjjjjjj++++++Ooo jj-,0::**",
"jjjjjjjj-----oOO+++++@@jjjjjjjjjjjjjjjjjjjjjjjjjjjjjjjjjjjjjjjjjjjjjjj@+++++OOoj*=,q:-**",
"jjjjjjjjjj-- oOO+++++@jjjjjjjjjjjjjjjjjjjjjjjjjjjjjjjjjjjjjjjjjjjjjjjjj+++++OOo -;:,**jj",
"jjjjjjjjjjj- OOO++++@jjjjjjjjjjjjjjjjjjjjjjjjjjjjjjjjjjjjjjjjjjjjjjjjjjj++++OOO ==--j*jj",
"jjjjjjjjjjj  OOO+++@jjjjjjjjjjjjjjjjjjjjjjjjjjjjjjjjjjjjjjjjjjjjjjjjjjjjj+++OOO  --jjjjj",
"jjjjjjjjjjj#oOOO++@jjjjjjjjjjjjjjjjjjjjjjjjjjjjjjjjjjjjjjjjjjjjjjjjjjjjjjj++OOOo#jjjjjjj"
};
