/* XPM */
static char *result[] = {
/* columns rows colors chars-per-pixel */
"73 51 87 1 ",
"  c black",
". c #070707",
"X c #00000B",
"o c #0B0B0B",
"O c #1F170B",
"+ c #131313",
"@ c #1B1B1B",
"# c #2B230F",
"$ c #332B13",
"% c #3F2F17",
"& c #232323",
"* c #272727",
"= c #2F2F2F",
"- c #373737",
"; c gray23",
": c #430000",
"> c #470000",
", c #4F0000",
"< c #530707",
"1 c #5B0000",
"2 c #670000",
"3 c #670B0B",
"4 c #730000",
"5 c #7F0000",
"6 c #771717",
"7 c #7F1B1B",
"8 c #4F3B2B",
"9 c #5F4B37",
"0 c #6B4727",
"q c #434343",
"w c gray28",
"e c gray31",
"r c gray34",
"t c #5B5B5B",
"y c gray39",
"u c gray42",
"i c #6F6F6F",
"p c #777777",
"a c gray50",
"s c #8B0000",
"d c #9B0000",
"f c #831F1F",
"g c #A70000",
"h c #B30000",
"j c #BF0000",
"k c #872300",
"l c #932F00",
"z c #9F3700",
"x c #A73F00",
"c c #CB0000",
"v c #D70000",
"b c #E30000",
"n c #EF0000",
"m c red",
"M c #9B5B13",
"N c #AF4300",
"B c #AF7B1F",
"V c #CB5707",
"C c #DF670F",
"Z c #F37317",
"A c #FF7F1B",
"S c #8B735B",
"D c #BF7B4B",
"F c #937B63",
"G c #FF8F3B",
"H c #AF977F",
"J c #FFA35B",
"K c #FFB37B",
"L c #FFFF47",
"P c #838383",
"I c #8B8B8B",
"U c #939393",
"Y c #979797",
"T c #9F9F9F",
"R c #B79F87",
"E c #BFA78F",
"W c #A7A7A7",
"Q c gray67",
"! c gray70",
"~ c #B7B7B7",
"^ c gray75",
"/ c #FFFF8F",
"( c #FFD7BB",
") c gray78",
"_ c #FFFFD7",
"` c white",
"' c #00FF00",
/* pixels */
"'''''''''''''''''''''''''''''''''+@=-@+o5''''''''''''''''''''''''''''''''",
"''''''''''''''''''''''''''''''22ssssss22odd''''''''''''''''''''''''''''''",
"'''''''''''''''''''''''''''2ssssss533hhgs2oc'''''''''''''''''''''''''''''",
"''''''''''''''''''''''''''5dhvgs55544hjjhs2o'''''''''''''''''''''''''''''",
"'''''''''''''''''''''''''1gjvjd55kk55ghjjhd4b''''''''''''''''''''''''''''",
"'''''''''''''''''''''':12kdhgskkhjjccccchhhgs421:''''''''''''''''''''''''",
"''''''''''''''''''''':45ssgd55lhjbbnmmmnbbvjgdss1:'''''''''''''''''''''''",
"'''''''''''''''''2211sdkksds12khcbbbbbbbbbmbvjhh51:''''''''''''''''''''''",
"'''''''''''''''ddlshccjhhhccccvvvcjddddghhjcbvvcd41''''''''''''''''''''''",
"''''''''''''hdgldghcccccvbbbbvvvnvchgsdddghccjhhd41'':::::'''''''''''''''",
"'''''''''''s5sldhhjcjhvvnnnnbvvvbvvcjgdsdgjcjk5ss21,124441:''''''''''''''",
"'''''''':::112lghhhzkcbnmmmnbvvvvvvvcjgggjccchk2:1k25dhgs54:'''''''''''''",
"'''''''5542::2sgdskkjvmmmnbbnnvccjcvvvvvvcccchd4ddkzdgggggg5211kx''''''''",
"'''''5hdd21:14sdssdgcvmmmncccvvccccvbnnnnvvvchs2dhgk5ss5sdddgss:kx'''''''",
"''''6hhg41::2455sdgcvvmmnbhhjccccvbnnmmmmbnnchg515hs2ss2145gcjh41k'''''''",
"''''djhd1::2521,sdlvbbbvjgdgjcvcbnmmmmmmnnnnbbbvs5sskddd442kgcvhd4k''''''",
"''''5gg5112k2215ddcnbbchs5gcvvvjcvccvnnnbcvvvvvbjgsssdhjd54kkgcvks:k'''''",
"''''2s214kk2:14ghhcnbvjd55cbvbvchjjccbvbbvccjjcvbjdd4dhvjhs4sdhcjk:k'''''",
"''''>125kllk15shhgcnnvg5sdvbbvjgdjcvvbbnnvvvcjjcbbccssgbvch24kdcck2:'''''",
"'''l12slllzcjjjchdhvbvchhbmmnbhdhbnmmmmmmmmnvcjgcbnmchhcbbvs214ghh2:'''''",
"'''$2sklghjcjgjchshvvcbccbmnbvdgcbnmmmmmmnnbcjgdvmmmbcjcbbvd422dgd1:'''''",
"''$Osdldlhjcjjjhdhcccccccvnbchsgdbnmmmmmmnbvhdsscmmmmbccvvbkdk2sss1:'''''",
"'O:2hhdsdhcbnbccvccccccdghcjhgjcccbnnnmmnnnvhgddhjhcmnbcjhdccjz1ss2::''''",
"':1shgs4dhcnncjvbbcbbbjgsgccbbcvnvcvvnmmmmnvhggghhhjvnbcjgscbcg4dd4:::'''",
"'12lhd12lhcmbjhbnbbnnnhscbnnbnccjjjcbmmbbnbcjchghhhgjcbcjgdjbbcdgh5:::'''",
":2sdd522dhcnchhbnnnnnnhsbnnhhhggdgjnbmmbjbjhgh44hgjcjcvvchdgcnnhhjs2::'''",
":s%h4,12dhcbjhhhccbbbnchbh5*=45sdgjmnmmvjjh5f4*&  5dchcccjhhjvbjhhhs1:::'",
":sdd2:11dhcvjhdsdhhcbnh5 &&&w845dccbmmbcc5444w&   ++5hccvjhgjcvckhhk2::::",
":sh%2:,2lhccjjd45sgvh+X .++  &07dccccccccd49&  ++. X+5cvbvhdgjvjdhhk2::::",
":shh5,25hghcjjg111s++ +&&==riPu575jjjjccdd4IPir==&&+ ++dnvh44sgs4ddk1:4<:",
":sgh525shldhjjh212++.@=eiPPUQ!WH5NNVCCVhg4H^!QUPPie=@.++dvh1:4d22ds2:,4,:",
":5dh45ddhhdsghj2+ ++=tiaPUUTQ^~WFcNZGGZ44SW)^QTUUPait=++ +h::2455552:251:",
":4sd2shdghdssgj+.-eetuiPIYYTQ^)QpeMAJJAMepW)^QTYYIPiutee-.+:,225524::ss2:",
"::2525ssdjh5ss+ ;ettyuiPIYYTQ^)Qu;BK((KB;iQ)^QTYYIPiuytte; +.>,d51155dd2:",
"':141245dchs.++;;ettyuiPIYYTQ^)Qu*DL//LD*uQ)^QTYYIPiuytte;;++.1g52:5sgg42",
"':121,12dcj.++;qeettyyiPIYYTQ^^Qy=R_``_R=yQ^^QTYYIPiyytteeq;++.s52,4sjg4,",
"'#,41::1dj.++;;weetttyupaYYTQ!!Qu;REEEER;uQ!!QTYYapuyttteew;;++.hg1:2hs2O",
"'',42::1d.+o==;wweeettypappiyyytttuiaiiutttyippPPapytteeeww;==o+.h::4h4,#",
"'':54>:,.+.===-;qweeerrw;-=;weee'''''''''''eew;==-wrreeewq;-===.+g::5h2:k",
"'':454,,+.**===;qwqqqw;----'''''''''''''''''''''--*--qqqwq;===**.+1:5d1Ok",
"''%4dd5++.**===;qwqqq--*-'''''''''''''''''''''''''**-;qqwq;===**.++4sgOkz",
"''''dg++ @&&===-q;--=**'''''''''''''''''''''''''''''*=;-;q-===&&@ ++sdOz'",
"''''55+.+@@&**=-;=***'''''''''''''''''''''''''''''''''**=;-=**&@@+.+hs:''",
"''''4  +@@@&**===*='''''''''''''''''''''''''''''''''''''*===**&@@@+  s'''",
"''''g  +@@@@&&***='''''''''''''''''''''''''''''''''''''''***&&@@@@+  :'''",
"'''' oo+@@@@@@&*'''''''''''''''''''''''''''''''''''''''''''&@@@@@@+oo '''",
"''''o++@@@@@&&='''''''''''''''''''''''''''''''''''''''''''''&&@@@@@++o'''",
"''' o++@@@@@&&'''''''''''''''''''''''''''''''''''''''''''''''&@@@@@++o ''",
"''' +++@@@@&='''''''''''''''''''''''''''''''''''''''''''''''''&@@@@+++ ''",
"''  +++@@@&='''''''''''''''''''''''''''''''''''''''''''''''''''&@@@+++  '",
"''*o+++@@''''''''''''''''''''''''''''''''''''''''''''''''''''''''@@+++o*'"
};
