/* XPM */
static char *result[] = {
/* columns rows colors chars-per-pixel */
"102 75 39 1 ",
"  c black",
". c #070707",
"X c #00000B",
"o c #0B0B0B",
"O c #1F170B",
"+ c #000017",
"@ c #131313",
"# c #1B1B1B",
"$ c #2B230F",
"% c #232323",
"& c #272727",
"* c #2F2F2F",
"= c #373737",
"- c gray23",
"; c #434343",
": c gray28",
"> c #4B4B4B",
", c gray31",
"< c gray34",
"1 c #5B5B5B",
"2 c gray39",
"3 c gray42",
"4 c #6F6F6F",
"5 c #777777",
"6 c gray50",
"7 c #838383",
"8 c #8B8B8B",
"9 c #939393",
"0 c #979797",
"q c #9F9F9F",
"w c #A7A7A7",
"e c gray67",
"r c gray70",
"t c gray75",
"y c gray78",
"u c #CBCBCB",
"i c LightGray",
"p c #DFDFDF",
"a c #00FF00",
/* pixels */
"aaaaaaaaaaaaaaaaaaaaaaaaaaaaaaaaaaaaaaaaaaa21<<;-::::-;<<12aaaaaaaaaaaaaaaaaaaaaaaaaaaaaaaaaaaaaaaaaaa",
"aaaaaaaaaaaaaaaaaaaaaaaaaaaaaaaaaaaaaaaa@*=--------------;-=*&aaaaaaaaaaaaaaaaaaaaaaaaaaaaaaaaaaaaaaaa",
"aaaaaaaaaaaaaaaaaaaaaaaaaaaaaaaaaaaaaa %&&*&==&        &==&*&%  aaaaaaaaaaaaaaaaaaaaaaaaaaaaaaaaaaaaaa",
"aaaaaaaaaaaaaaaaaaaaaaaaaaaaaaaaaaaa@@ %%%:35aaaaaaaaaaaa53:%   @@aaaaaaaaaaaaaaaaaaaaaaaaaaaaaaaaaaaa",
"aaaaaaaaaaaaaaaaaaaaaaaaaaaaaaaaaaa@X .@@  %%%%--------%%%%  @@. X@aaaaaaaaaaaaaaaaaaaaaaaaaaaaaaaaaaa",
"aaaaaaaaaaaaaaaaaaaaaaaaaaaaaaaaa@@ @%%**<478999555555999874<**%%@ @@aaaaaaaaaaaaaaaaaaaaaaaaaaaaaaaaa",
"aaaaaaaaaaaaaaaaaaaaaaaaaaaaaaaa@@.#*,4779ertye6:=  =:6eytre9774,*#.@@aaaaaaaaaaaaaaaaaaaaaaaaaaaaaaaa",
"aaaaaaaaaaaaaaaaaaaaaaaaaaaaaa@ @@*146799qetye6-*aaaa*-6eyteq997641*@@ @aaaaaaaaaaaaaaaaaaaaaaaaaaaaaa",
"aaaaaaaaaaaaaaaaaaaaaaaaaaaaa@.=,,1347800qetye5,aaaaaa,5eyteq0087431,,=.@aaaaaaaaaaaaaaaaaaaaaaaaaaaaa",
"aaaaaaaaaaaaaaaaaaaaaaaaaaaa@ -,112347800qetye3-aaaaaa-3eyteq008743211,- @.aaaaaaaaaaaaaaaaaaaaaaaaaaa",
"aaaaaaaaaaaaaaaaaaaaaaaaaa.@@--,112347800qetye3&aaaaaa&3eyteq008743211,--@@.aaaaaaaaaaaaaaaaaaaaaaaaaa",
"aaaaaaaaaaaaaaaaaaaaaaaaa.@@-;,,112247800qette2*aaaaaa*2etteq008742211,,;-@@.aaaaaaaaaaaaaaaaaaaaaaaaa",
"aaaaaaaaaaaaaaaaaaaaaaaa.@@--:,,111235600qerre3-aaaaaa-3erreq006532111,,:--@@.aaaaaaaaaaaaaaaaaaaaaaaa",
"aaaaaaaaaaaaaaaaaaaaaaa.@o**-::,,,1125655422211134644311124557765211,,,::-**o@.aaaaaaaaaaaaaaaaaaaaaaa",
"aaaaaaaaaaaaaaaaaaaaaa.@.***=-;:,,,<<:-=*-:,,,,,,,<,,,,,,,,:-**=:<<,,,:;-=***.@aaaaaaaaaaaaaaaaaaaaaaa",
"aaaaaaaaaaaaaaaaaaaaaa@.&&***-;:;;;:-=====-::,,,<1<11<,,,::-====&==;;;:;-***&&.@aaaaaaaaaaaaaaaaaaaaaa",
"aaaaaaaaaaaaaaaaaaaaa@@.&&***-;:;;;==&====-::,,,<1<11<,,,::-====&&=-;;:;-***&&.@@aaaaaaaaaaaaaaaaaaaaa",
"aaaaaaaaaaaaaaaaaaaa@@ #%%***=;-==*&&==;;:,<12223333332221<,:;;==&&*-=-;=***%%# @@aaaaaaaaaaaaaaaaaaaa",
"aaaaaaaaaaaaaaaaaaaa@.@##%&&*=-*&&&=-;:<<12222222222222222221<<:;-=&&&*-=*&&%##@.@aaaaaaaaaaaaaaaaaaaa",
"aaaaaaaaaaaaaaaaaaa  @###%&&***&**=;:,<112222222456554222222211<,:;=**&***&&%###@  aaaaaaaaaaaaaaaaaaa",
"aaaaaaaaaaaaaaaaaaa  @####%%&&&*--;:,,,<<11235521<<<<12553211<<,,,:;--*&&&%%####@  aaaaaaaaaaaaaaaaaaa",
"aaaaaaaaaaaaaaaaaa oo@######%&*----;:,,,,;=*o@@########@@o*=;,,,,:;----*&%######@oo aaaaaaaaaaaaaaaaaa",
"aaaaaaaaaaaaaaaaaao@@#####%%**=-::;;;==*@##&===::-;--::===&##@*==;;;::-=**%%#####@@oaaaaaaaaaaaaaaaaaa",
"aaaaaaaaaaaaaaaaa o@@#####%%**=-:-=%#o@@=-:::,,23333332,,:::-=@@o#%=-:-=**%%#####@@o aaaaaaaaaaaaaaaaa",
"aaaaaaaaaaaaaaaaa @@@####%**=-=**&#o@&===;<1133567777653311<;===&@o#&**=-=**%####@@@ aaaaaaaaaaaaaaaaa",
"aaaaaaaaaaaaaaaa  @@@###%*===*&#@@#&*=:>>21245576999967554212>>:=*&#@@#&*===*%###@@@  aaaaaaaaaaaaaaaa",
"aaaaaaaaaaaaaaaa&o@@@##%=***&@@#&&*=-:,112444332222222233444211,:-=*&&#@@&***=%##@@@o&aaaaaaaaaaaaaaaa",
"aaaaaaaaaaaaaaaa,&@@@#%=*%##@@%&&&===:,,;-=&*#@oooooooo##*&=-;,,:===&&&%@@##%*=%#@@@&,aaaaaaaaaaaaaaaa",
"aaaaaaaaaa=1688831-&&#*%#####%&&&=-:;-%%%*=;;------------;;=*%%&-;::=&&&%#####%*#&&-1388861=aaaaaaaaaa",
"aaaaaaaaaa=1333331-&&#*%#####%&-,,&##@*-;;,1<246666666642<1,;;-&@#*==,-&%#####%*#&&-1333331=aaaaaaaaaa",
"aaaaaaaaaa-*------=##@@@@####*;;&&#*-:<111334557999999755433111<:*##&&;;*####@@@@##=------*-aaaaaaaaaa",
"aaaaaaaaaa  X@@o@@@@@@###@##--%#%%*-;;>,,14777777777777777741,,>;;-*%%#%--##@###@@@@@@o@@X  aaaaaaaaaa",
"aaaaaaaaaa @@#####@@@@###%**&##&==**-*:26742,=&&**&***&&=,34732:*-**==&##&**%###@@@@#####@@ aaaaaaaaaa",
"aaaaaaaaaa #######o@@###%&###&&&**;2<:*####&=>>23333332>>=&####*:<;=**&&&###&%###@@o####### aaaaaaaaaa",
"aaaaaaaaaa ######@@##@#%#@%%%%**1**#@#=,,24346677787777664342,,=#@#*;;**%%%%@#%#@##@####### aaaaaaaaaa",
"aaaaaaaaaa @#%%##@@###%######,-&@@@&-,,,,13345555666655554331,,,,-&@@@#-*######%###@@##%%#@ aaaaaaaaaa",
"aaaaaaaaaa @#%%##@@###%####**###&&**-,,,,13345555666655554331,,,,-***&###**####%###@@##%%#@ aaaaaaaaaa",
"aaaaaaaaaa @#&&##@@######&-*##@&***=;;>112555555675776555555211>;;=***&@##*-&######@@##&&#@ aaaaaaaaaa",
"aaaaaaaaaa @#%%##@@###@#&*##@#&=***=:12352,*&%%@#@@@@#@%%&*,25541:=***=&#@##*&#@###@@##%%#@ aaaaaaaaaa",
"aaaaaaaaaa @#%%##@@####&&#@@%&&***;12:*##@#-:>>23111132>>:-#@##*:21;***&&%@@#&&####@@##%%#@ aaaaaaaaaa",
"aaaaaaaaaa+@#####@@@@#%#@#&&#%&&;;&%#&;::12455556666665555421::;&#%&;;&&%#&&#@#%#@@@@#####@+aaaaaaaaaa",
"aaaaaaaaaa#@@##@@@@#######%%&&;;%%=:,1111233566766666666653321111,=*%%;;&&%%#######@@@@##@@#aaaaaaaaaa",
"aaaaaaaaaa#@@##@@@@#######%%*;*#%=::,1111233566766666676653321111,::=%#*;*%%#######@@@@##@@#aaaaaaaaaa",
"aaaaaaaaaa @@@@#@@@######&**%#*---::>222234566677777777666543222,>-*---*#%**&######@@@#@@@@ aaaaaaaaaa",
"aaaaaaaaaa* @@@#@@@##@@#&%##**&&**-:,<22245566688888888666554222<,:-**&&**##%&#@@##@@@#@@@ *aaaaaaaaaa",
"aaaaaaaaaaa @@@&@@@@@####&&&#%&*==-;>12334570009qruurq90007543321>;-==*&%#&&&####@@@@@&@@@ aaaaaaaaaaa",
"aaaaaaaaaaa    *@@@@@###%%##%&****=:,1244680q886555555688q0864421,:=****&%##%%###@@@@@*    aaaaaaaaaaa",
"aaaaaaaaaaaa   =@.###%%%##%%%&****=><<2470043:%  .X..  %:3400742<<>=****&%%%##%%%###.@=   aaaaaaaaaaaa",
"aaaaaaaaaaaa   =@.###%%%##%%%&****=><<2772:=###  .X..  ###=:2772<<>=****&%%%##%%%###.@=   aaaaaaaaaaaa",
"aaaaaaaaaaaaa  =@@###%##%%%%%&&*==;,,4972,*%o@@#@####@#@@o%*,2794,,;==*&&%%%%%##%###@@=  aaaaaaaaaaaaa",
"aaaaaaaaaaaaa  -@#%%%#@@#%%%%&****;,2q72<*%################%*<27q,,;****&%%%%#@@#%%%#@-  aaaaaaaaaaaaa",
"aaaaaaaaaaaaaa =#%%##@@@##%%%&**==;,5994-=&&&&&&&&&&&&&&&&&&=-4992,;==**&%%%##@@@##%%#= aaaaaaaaaaaaaa",
"aaaaaaaaaaaaaa >&&%@@@@#%%%%%&**==;,256999997443565665344799999652,;==**&%%%%%#@@@@%&&> aaaaaaaaaaaaaa",
"aaaaa11,<2442<<;#%%@@@##%%%%%&&*==:<22455777788909q990988777755422<:==*&&%%%%%##@@@%%#;<<2442<,11aaaaa",
"aaaa*<,:-;;---=&@%#@@##%%&%%&&&===:<1455568889999qqqq9999888655541<:===&&&%%&%%##@@#%@&=---;;-:,<*aaaa",
"aaaa&*2:-;;---=&@%#@@##%%&%%&&&===:<1455568889999qqqq9999888655541<:===&&&%%&%%##@@#%@&=---;;-:2*&aaaa",
"aaaa&#*2=-;---*&#@@@@#%%&&%%%&&*==:,2545578889990q9qq0999888755452,:==*&&%%%&&%%#@@@@#&*---;-=2*#&aaaa",
"aaa*&%#*,=----*&&#@##%&&%%%%&&&=--:<34455678899090q009099887655443<:--=&&&%%%%&&%##@#&&*----=,*#%&*aaa",
"aaa*&%@#*:=---&&&#@##%&&%%%%&&*=--:<2455567890000qwqq0000987655542<:--=*&&%%%%&&%##@#&&&---=:*#@%&*aaa",
"aaa*&%@@@*-=-=&&&#@##%%%%%%%&&*-;;;<3456678889990wwww0999888766543<;;;-*&&%%%%%%%##@#&&&=-=-*@@@%&*aaa",
"aa*&%@@@@##*-*%&&#@@@##%%%&&&&*=;;:24556688899909wwww90999888665542:;;=*&&&&%%%##@@@#&&%*-*##@@@@%&*aa",
"aa*&%@@@@##*-*%&&#@@@##%%%&&&&*=;;:24556688899909wwww90999888665542:;;=*&&&&%%%##@@@#&&%*-*##@@@@%&*aa",
"aa*&%@@@@@#%**%&%#@@@@###%****&=--,4555778889990qwwwwq0999888775554,--=&****%###@@@@#%&%**%#@@@@@%&*aa",
"aa*&%@@@@@#%&*%%%#@@@#%%%%&&&&*=;;,2456889900999qwwwwq9990099886542,;;=*&&&&%%%%#@@@#%%%*&%#@@@@@%&*aa",
"a*&%@@@@@@#%**%&#@###%%%%%&&&&*=;;135568899999990wwww099999998865531;;=*&&&&%%%%%###@#&%**%#@@@@@@%&*a",
"a*&%@@@@@@#**&&%##%%%%###%&&&&*=,,1356677988800qqwwwwqq0088897766531,,=*&&&&%###%%%%##%&&**#@@@@@@%&*a",
"a*&%@@@@@#%=*%%##%%######%%%&&*-,,1356677990900qwqwqqwq0090997766531,,-*&&%%%######%%##%%*=%#@@@@@%&*a",
"=&%o@@@@@#*=*%%%%%#@@@@#%%&&***-,,14457889000qqwwwwwwwwqq00098875441,,-***&&%%#@@@@#%%%%%*=*#@@@@@o%&=",
"=&%o@@@@@#*=*%%%%%#@@@@#%%&&***-,,14457889000qqwwwwwwwwqq00098875441,,-***&&%%#@@@@#%%%%%*=*#@@@@@o%&=",
";&%o@@@@#%-=*%%%%#@@@@##%&****=:<<2345799009000008088000009009975432<<:=****&%##@@@@#%%%%*=-%#@@@@o%&;",
"-&%o@@@@#*-*&%%%#@o@@@#O$&****=:113348qww05<:&&%#@&@@#%&&:<50wwq843311:=****&$O#@@@o@#%%%&*-*#@@@@o%&-",
"a&%o@@@@#=-*&%%#@@o@@##$&&&&&*-,,,25qrr88-& .oo@@@@@@@@oo. &-88rrq52,,,-*&&&&&$##@@o@@#%%&*-=#@@@@o%&a",
"aaa@@@@@%-=*&%%#@oo@@OO$&&***-:>,,4rpu4** o@@############@@o **4upr4,,>:-***&&$OO@@oo@#%%&*=-%@@@@@aaa",
"aaaaa###*-=*&%%@oo@##OO$&****;;:22qii8#  o@#@##@######@##@#@o  #8iiq22:;;****&$OO##@oo@%%&*=-*###aaaaa",
"aaaaa###*-=*&%%@oo@##OO$&****;;:22qii8#  o@#@##@######@##@#@o  #8iiq22:;;****&$OO##@oo@%%&*=-*###aaaaa"
};
