/* XPM */
static char *result[] = {
/* columns rows colors chars-per-pixel */
"87 79 42 1 ",
"  c black",
". c #070707",
"X c #00000B",
"o c #0B0B0B",
"O c #1F170B",
"+ c #000017",
"@ c #131313",
"# c #1B1B1B",
"$ c #2B230F",
"% c #000023",
"& c #232323",
"* c #272727",
"= c #2F2F2F",
"- c #373737",
"; c gray23",
": c #434343",
"> c gray28",
", c #4B4B4B",
"< c gray31",
"1 c gray34",
"2 c #5B5B5B",
"3 c gray39",
"4 c gray42",
"5 c #6F6F6F",
"6 c #777777",
"7 c gray50",
"8 c #838383",
"9 c #8B8B8B",
"0 c #939393",
"q c #979797",
"w c #9F9F9F",
"e c #B79F87",
"r c #A7A7A7",
"t c gray67",
"y c gray70",
"u c #B7B7B7",
"i c gray75",
"p c gray78",
"a c #CBCBCB",
"s c LightGray",
"d c #DFDFDF",
"f c #00FF00",
/* pixels */
"fffffffffffffffffffffffffffffffffffff321:;>>>;:123fffffffffffffffffffffffffffffffffffff",
"ffffffffffffffffffffffffffffffffff2#.&           &.#2ffffffffffffffffffffffffffffffffff",
"ffffffffffffffffffffffffffffffff>  o             * o  >ffffffffffffffffffffffffffffffff",
"ffffffffffffffffffffffffffffff*X .@  &&&;;;;;;;&&&  @. X*ffffffffffffffffffffffffffffff",
"fffffffffffffffffffffffffffff* @&&=1589006,:,6009851=&&@ *fffffffffffffffffffffffffffff",
"fffffffffffffffffffffffffff@@.#=<580tyut5:===:5tuyt085<=#.@@fffffffffffffffffffffffffff",
"ffffffffffffffffffffffffff@ @=25780wtup5&44444&5putw08752=@ @ffffffffffffffffffffffffff",
"fffffffffffffffffffffffff@.-<24589qwtup<*79997*<putwq98542<-.@fffffffffffffffffffffffff",
"ffffffffffffffffffffffff@ ;<234589qwtup:=9qqq9=:putwq985432<; @ffffffffffffffffffffffff",
"fffffffffffffffffffffff@.:<<233589qwtui<-qeeeq-<iutwq985332<<:.@fffffffffffffffffffffff",
"ffffffffffffffffffffff@@=><<223467qwtty4<0www0<4yttwq764322<<>=@@ffffffffffffffffffffff",
"fffffffffffffffffffff@o=;>><<22367653,,224575422,,35676322<<>>;=o@fffffffffffffffffffff",
"ffffffffffffffffffff@.==-;:><<11>-=;><<<<<<1<<<<<<>;=->11<<>:;-==.@ffffffffffffffffffff",
"fffffffffffffffffff@.**==;:>::--*---;>><<12121<<>>;---*--::>:;==**.@fffffffffffffffffff",
"ffffffffffffffffff@ #&&==-:;-=**--:><1233444443321<>:--**=-;:-==&&# @ffffffffffffffffff",
"fffffffffffffffff*.@##&*=-;=**-;:>1233333333333333321>:;-**=;-=*&##@.*fffffffffffffffff",
"ffffffffffffffff* @###&*===*=-:><123333335676533333321<>:-=*===*&###@ *ffffffffffffffff",
"ffffffffffffffff  @####&***=;:><<<1245863211123685421<<<>:;=***&####@  ffffffffffffffff",
"fffffffffffffff# o@#####&*=;;;:><<<;#oo@#######@oo#;<<<>:;;;=*&#####@o #fffffffffffffff",
"fffffffffffffff o@#####&==-;>::=o@@#*-><3312133<>-*#@@o=::>;-==&#####@o fffffffffffffff",
"ffffffffffffff= @@####&=-;-==#o@*--:122467898764221:--*@o#==-;-=&####@@ =ffffffffffffff",
"ffffffffffffff  @@###&=--=*#@#*=->,32356878887865323,>-=*#@#*=--=&###@@  ffffffffffffff",
"ffffffffffffff*o@@##&-==*@@#*=-;><2597543333333457952<>;-=*#@@*==-&##@@o*ffffffffffffff",
"ffffffffffffff<*@@#&-=&#@@&**-143<;*&*=-,<>:><,-=*&*;<31;-**&@@#&=-&#@@*<ffffffffffffff",
"fffffffff-279942;*#=&####&*;<3>#@*;26887777777778862;*@#>3<;*&####&=#*;249972-fffffffff",
"fffffffff;=24652<#@@@@###=::*##=>122445680000086544221>=##*::=###@@@@#<25642=;fffffffff",
"fffffffff  X@o@@@@@###@#;;&#&=;::,<25888888888888852<,::;=&#&;;#@###@@@@@o@X  fffffffff",
"fffffffff @@#*;;@@@###&=*##*-==;357854<**==*==**<458753;==-*##*=&###@@@;;*#@@ fffffffff",
"fffffffff ###=;=o@###&*##***=:31>=###*-,3444443,-*###=>13:=***##*&###@o=;=### fffffffff",
"fffffffff ###&#@@#@#&#@&&&-<2:#@#-<35457888988875453<-#@#:2<-&&&@#&#@#@@#&### fffffffff",
"fffffffff @#&##@@##&####=<;#@#=;<<<24456667776665442<<<;=#@#;<=####&##@@##&#@ fffffffff",
"fffffffff @#*##@@#####*;=#@*==-::,2366666786876666632,::-==*@#=;*#####@@##*#@ fffffffff",
"fffffffff @#&##@@##@#*-#@#*-==->2563<=*&@#@@@#@&*=<3652>-==-*#@#-*#@##@@##&#@ fffffffff",
"fffffffff @#&##@@###**#@&**==:23>=#@#=-:2444442,-=#@#=>32:==**&@#**###@@##&#@ fffffffff",
"fffffffff+@####@@@#&#@#*#&;<:*&#*:>23566699999666532>:*#&*:<;&#*#@#&#@@@####@+fffffffff",
"fffffffff#@@#@@@@######&=:=#&*><22234467899999876443222<-*&#=:=&######@@@@#@@#fffffffff",
"fffffffff @@@#@@@#####*=&#=;;=;,<334567798q9q897765433<,;=;;=#&=*#####@@@#@@@ fffffffff",
"ffffffffff @@#@@@#@@#*&#==**=;><1335667799qqq9977665331<>;=**==#&*#@@#@@@#@@ ffffffffff",
"ffffffffff @@*@@@@####**#&*=-;:,234568qq0qqqqq0qq865432,:;-=*&#**####@@@@*@@ ffffffffff",
"fffffffffff  =@@@@###&&#&*===-><23579qw976666679wq97532<>-===*&#&&###@@@@=  fffffffffff",
"fffffffffff  -@.##&&&##&&*===-,1138qq5>;= .X. =;>5qq8311,-===*&&##&&&##.@-  fffffffffff",
"ffffffffffff -@@##&##&&&&**=-:<<5083>&o@#@###@#@o&>3805<<:-=**&&&&##&##@@- ffffffffffff",
"ffffffffffff ;@#&&#@@#&&&*===:<<w83=&#############&=38w<<:===*&&&#@@#&&#@; ffffffffffff",
"fffffffffffff-#&&#@@@##&&*==-:<2071-***************-1702<:-==*&&##@@@#&&#-fffffffffffff",
"fffffffffffff,**&@@@#&&&&*==-:<3570000854676764580000753<:-==*&&&&#@@@&**,fffffffffffff",
"fffff;;:::;;>;#&&@@##&&&&**=->13356888890q0w0q09888865331>-=**&&&&##@@&&#;>;;:::;;fffff",
"ffff=1-;::;;>;@&#@##&&*&***-->125667999000www000999766521>--***&*&&##@#&@;>;;::;-1=ffff",
"ffff%=1-;:;;>;#@@@#&&**&&**=-><3656899900qw0wq0099986563<>-=**&&**&&#@@@#;>;;:;-1=%ffff",
"ffff@.=<-;;;>-&#@#&**&&&***-;>1455678990q0qwq0q0998765541>;-***&&&**&#@#&->;;;-<=.@ffff",
"fff=@@@@>-;;;==#@#&**&&&**=-;>135667890qqqwrwqqq098766531>;-=**&&&**&#@#==;;;->@@@@=fff",
"fff @@@@#;-;-=*#@#&&&&&&**=;::14567899900qrrrq00999876541::;=**&&&&&&#@#*=-;-;#@@@@ fff",
"fff @@@@##=;==*#@@##&&&***=-:>3566799900q0rrr0q0099976653>:-=***&&&##@@#*==;=##@@@@ fff",
"ff= @@@@@#&===&#@@@###&===*-;<5666899900qwrrrwq0099986665<;-*===&###@@@#&===&#@@@@@ =ff",
"ff  @@@@@#&*=&&#@@#&&&&***=-:<3567900qq00wwrww00qq0097653<:-=***&&&&#@@#&&=*&#@@@@@  ff",
"ff o@@@@@#&==*#@##&&&&&***=-:246679000000qwwwq000000976642:-=***&&&&&##@#*==&#@@@@@o ff",
"f=oo@@@@@#==*&##&&&###&***=-<2467780999qwwrwrwwq9990877642<-=***&###&&&##&*==#@@@@@oo=f",
"f.oo@@@@#&-=&##&&#####&&**=;<24677800q0qwrwrwrwq0q00877642<;=**&&#####&&##&=-&#@@@@oo.f",
"f oo@@@@#=-=&&&&#@@@#&&*===;<2556890qqqwrrrrrrrwqqq0986552<;===*&&#@@@#&&&&=-=#@@@@oo f",
": oo@@@#&;-=&&&#@@@##&*===->1345680qq0qqqq9q9qqqq0qq0865431>-===*&##@@@#&&&=-;&#@@@oo :",
"; oo@@@#=;=*&&#@o@@#O$*===->24459wrq61>*&#@*@#&*>16qrw95442>-===*$O#@@o@#&&*=;=#@@@oo ;",
"f oo@@@#-;=*&#@@o@##$****=;<<36wyy9;* .o@@@@@@@o. *;9yyw63<<;=****$##@o@@#&*=;-#@@@oo f",
"fff@@@@&;-=*&#@oo@OO$**==;>,<5yda5= o@@#########@@o =5ady5<,>;==**$OO@oo@#&*=-;&@@@@fff",
"fffff##=;-=*&@oo@#OO$*===::>3wss9# o@#@#@#####@#@#@o #9ssw3>::===*$OO#@oo@&*=-;=##fffff",
"fffff#@-;-=*&@oo@OOO$***=;-:5qw92@.@##&&&#&*&#&&&##@.@29wq5:-;=***$OOO@oo@&*=-;-@#fffff",
"ffffff@;;-=*#@oo@#O$&**=-:;>26642:->>>>;>11111>;>>>>-:24662>;:-=**&$O#@oo@#*=-;;@ffffff",
"ffffff@;;-=*#ooo@OOO***=;::>278989wyyyytyytrtyytyyyyw989872>::;=***OOO@ooo#*=-;;@ffffff",
"ffffff#:;-=*#oo@##O&&**-;::<36990qruuuuiiiuuuiiiuuuurq09963<::;-**&&O##@oo#*=-;:#ffffff",
"ffffff*>;-=*#oo@###&&**=-:>137990qwyrrtttrrrrrtttrrywq099731>:-=**&&###@oo#*=-;>*ffffff",
"ffffff=>;-=*#oo@###&&**=;:<2569789qwwwq90qqqqq09qwwwq9879652<:;=**&&###@oo#*=-;>=ffffff",
"ffffff->;-=&#oo@@#&&&**=;><2556890wrrrrq0qwwwq0qrrrrw0986552<>;=**&&&#@@oo#&=-;>-ffffff",
"ffffff;>;-=&#oo@@#&&&*=;<13689990qwwrrtwq0qrq0qwtrrwwq09998631<;=*&&&#@@oo#&=-;>;ffffff",
"ffffff:>;-=&#@@###&**-><25677880qqwrrtyywqqwqqwyytrrwqq08877652<>-**&###@@#&=-;>:ffffff",
"ffffff>>;-=&#@##&**=-:<2346689qwrtttryyuyrqwqryuyyrtttrwq9866432<:-=**&##@#&=-;>>ffffff",
"ffffff<>;-=&##&&**=-:,124670wyiiaapiyyuuuytttyuuuyyipaaiiyw076421,:-=**&&##&=-;><ffffff",
"fffff<:>;-*&&&&**=-::<24790tuiaasddpuyyuyttrttyuyyupddsaaiut09742<::-=**&&&&*-;>1<fffff",
"fffff<:>;=&&&#**=-;><23679qwtyiuuuuywqwq0007000qwqwyuuuuiytwq97632<>;-=**#&&&=;>2<fffff",
"fffff<:>;=&&&&&=-;><2356790qqwwwqqq98887656465678889qqqwwwqq0976532<>;-=&&&&&=;>2<fffff",
"fffff;;;:-****=-;:<2334567789999876556543222223456556789999877654332<:;-=*****;:2:fffff",
"fffff;;;:;;;--=-::<11223445566654433333211<<<11233333445666554432211<::-=@@@@@::2:fffff"
};
