/* XPM */
static char *result[] = {
/* columns rows colors chars-per-pixel */
"32 14 34 1 ",
"  c #1F170B",
". c #13230B",
"X c #17330F",
"o c #4F0000",
"O c #530707",
"+ c #5F0707",
"@ c #670000",
"# c #6B0F0F",
"$ c #730000",
"% c #7F0000",
"& c #43331B",
"* c #732B00",
"= c #4F3B23",
"- c #5B472B",
"; c #5F4B37",
": c #675333",
"> c #67533F",
", c #775F3F",
"< c #6F5743",
"1 c #775F4B",
"2 c #7B634F",
"3 c #8B0000",
"4 c #A70000",
"5 c #B30000",
"6 c #BF0000",
"7 c #972F2F",
"8 c #9B3333",
"9 c #874307",
"0 c #836B4B",
"q c #836B57",
"w c #8F7753",
"e c #8B735B",
"r c #838383",
"t c #00FF00",
/* pixels */
"ttttttt;=ttttttttttttttttttttttt",
"ttttttt;;&tttttttttttttttttttttt",
"tttt%&&--;;;;;;;;;;;;;;788--tttt",
"tt@% =--:::::::::<121<78:<2<::tt",
"t@%%=-;::,,,,,1,12qqq75:00,,,::t",
"@%6 =-;::,,,,,111112255,ere9#43,",
"%ww,,&=;::::::::>>>>:##::,,#00,:",
"%--,;&&=-;;;;;;;;;;;;++;;::#ww0:",
"@%6  .&&=============OO&&&&#===,",
"t@%$ ..&&&&&&&&&&&&&&oooXXX*##-t",
"tt@%    ..............oooX&=*-tt",
"tttt%      &&&&&&&&&&&&ooo==tttt",
"ttttttt   tttttttttttttttttttttt",
"ttttttt  ttttttttttttttttttttttt"
};
