/* XPM */
static char *result[] = {
/* columns rows colors chars-per-pixel */
"73 60 54 1 ",
"  c #0B0B0B",
". c #1F170B",
"X c #131313",
"o c #1B1B1B",
"O c #2B230F",
"+ c #332B13",
"@ c #3F2F17",
"# c #2F2F2F",
"$ c #373737",
"% c #430000",
"& c #470000",
"* c #4F0000",
"= c #530707",
"- c #5B0000",
"; c #670000",
": c #670B0B",
"> c #730000",
", c #7F0000",
"< c #771717",
"1 c #8B0000",
"2 c #9B0000",
"3 c #A70000",
"4 c #B30000",
"5 c #BF0000",
"6 c #872300",
"7 c #932F00",
"8 c #9F3700",
"9 c #A73F00",
"0 c #CB0000",
"q c #D70000",
"w c #E30000",
"e c #EF0000",
"r c red",
"t c #FF1F1F",
"y c #AF4300",
"u c #B74700",
"i c #C34F00",
"p c #CB5707",
"a c #D75F0B",
"s c #DF670F",
"d c #EB6F0F",
"f c #F37317",
"g c #FF7F1B",
"h c #FF8F3B",
"j c #FFA35B",
"k c #FFB37B",
"l c #FFFF47",
"z c #FFC79B",
"x c #FFFF8F",
"c c #FFD7BB",
"v c #FFFFB3",
"b c #FFEBDB",
"n c white",
"m c #00FF00",
/* pixels */
"mmmmmmmmmmmmmmmmmmmmmmmmmmmmmmmmmXo#$oX mmmmmmmmmmmmmmmmmmmmmmmmmmmmmmmmm",
"mmmmmmmmmmmmmmmmmmmmmmmmmmmmmm;;111111;; mmmmmmmmmmmmmmmmmmmmmmmmmmmmmmmm",
"mmmmmmmmmmmmmmmmmmmmmmmmmmm;111111,::4431; mmmmmmmmmmmmmmmmmmmmmmmmmmmmmm",
"mmmmmmmmmmmmmmmmmmmmmmmmmm,24q31,,,>>45541; mmmmmmmmmmmmmmmmmmmmmmmmmmmmm",
"mmmmmmmmmmmmmmmmmmmmmmmmm-35q52,,6633345542>mmmmmmmmmmmmmmmmmmmmmmmmmmmmm",
"mmmmmmmmmmmmmmmmmmmmmm%-;6243122455ippppq4431>;-%mmmmmmmmmmmmmmmmmmmmmmmm",
"mmmmmmmmmmmmmmmmmmmmm%>,1132,,745ifgkjhffpq53211-%mmmmmmmmmmmmmmmmmmmmmmm",
"mmmmmmmmmmmmmmmmm;;--1266121-;64isgzbkjhfapiissi,-%mmmmmmmmmmmmmmmmmmmmmm",
"mmmmmmmmmmmmmmm2271400544400004ppsfhdai34450pfksi>-mmmmmmmmmmmmmmmmmmmmmm",
"mmmmmmmmmmmm423723400000qwwwwquupassi1,;;,400ipsy>-mm%%%%%mmmmmmmmmmmmmmm",
"mmmmmmmmmmm1,172445054qqpaaapqqqwq55532,,35056,11;-*-;>>>-%mmmmmmmmmmmmmm",
"mmmmmmmm%%%--;73444860wsjgpewqqqqqqq05333500046;%-6;,2431,>%mmmmmmmmmmmmm",
"mmmmmmm,,>;%%;1321665qsjgswiddi00asaqqqqquuasu2>22682333333,;--69mmmmmmmm",
"mmmmm,422;-%->1211230usgse0ahha0adjhseeaddaupsu;2436,11,1222311%69mmmmmmm",
"mmmm<443>-%%;>,,1230qupsew4isaapashhsddfhhdaupu,-,41;11;->,3054>-6mmmmmmm",
"mmmm2542-%%;,;-*127qwuuq5323addapsgsadffdadffpa31,116222>>;63ia42>6mmmmmm",
"mmmm,33,--;6;;-,220ewu041,3idhhdpppaaiyypppdpupuu31112yy2,>663ia61%6mmmmm",
"mmmm;1;->66;%->34u0ewi52,,0iaddaaaffsssiiafdsuusdiu2>24iay1>124i56%6mmmmm",
"mmmm&-;,6776-,1ui30yeq3,12iiisssssghhgghsdhjjsiahhhau13ifji;>62006;%mmmmm",
"mmm7-;17778055ap4yyiwq0iaiiaddgghjjjjhhhhgfhjhssfkkjau4iafi1;->344;%mmmmm",
"mmm+;1673450adp04iyqqidhiudsgghjjjkkjkjhhhgfghdigskzhpy0ipi3>;;232-%mmmmm",
"mm+.1272745dhfi42d00ihjd0sffgjjjkzkkkckkkjhgfdsudpdhjsu0q0sp93;111-%mmmmm",
"m.%;442124ihkf00up00fjhi3agsghkzkkkckkzczkkghfdpp50dgsp054pgsu3-11;%%mmmm",
"m%-1431>24akhp0uaauwfka31asggkzkzccbnnkbckkjhhgsu4uyppiy53ydjdy>22>%%%mmm",
"m-;742-;74ahd54sfaiedhi1yfgjkjzczbbxbbbczcckjhfdp4yu5uaiy32pjkf934,%%%mmm",
"%;122,;;24ifa44isiu0dfi1afjkjzccccnnnlbcbnbzjhhgauyu5yudy423jzhi4i1;%%mmm",
"%144>*-;240du445iu38iaiisfjjjcnbbnnnvcccnnckjjfgsispy4ypay44djja4a41-%%%m",
"%122;%--240i04212438paapfdhjzbcbnnnnnnbzzckkjjhdsdhfpy0pdy43idga6ji6;%%%m",
"%144;%*;740u552>,13qysdafsfhzccbbnnnnnncccbzjhhgdhjhdu0pfq423isi2ay6;%%%%",
"%144,*;,4340553---10ysgdapshjzzccbnnnnnnbcccjhfgfjzjfpiasy41>yiy>y66-%>=%",
"%134,;,14724554;-;,5ydgdpashjzzcbnnbnnbbzzzcjhhfhkcjgppaay41%1y4;61;%*>*%",
"%,24>,224421345;>,,49sfsisfhjczcnnccbnccbbzkhffgjzkhhaasuq42%;43,,,;%7,-%",
"%>12;1423421135,27>39issyiafhjkncnnccbbnnbcjhgghkkhghdapu044>;31,;>%%87;%",
"%%;,;,112u4,11257u717ypspuaffhjjkzcnzcbnnckhgfgjjhghjddai044>&12,--,,u9;%",
"m%->-;>,2y41,,138u91678ppuyafhghjkczccbczjhffhjhffhjhdsiq042>;-3,;%,8iu>;",
"m%-;-*-;2au1;;;2uia9,678uyyasfgjzhjkczzjjhgfhhdassfhfuuwqq411,>1,;*>iau>*",
"mO*>-%%-2yi3,-%>uafu6;6687yaaashjjkjkkhgfdsadaiipsssu000qe4u04134>-%8i9;.",
"mm*>;%%-24y41-%;8ahsu6;124isgddadhjhjjgssaapqeaffpuu9450wquap424i2%%>u7*O",
"mm%,>&%*134y1;%*6usfsiu9743phgdaadfgggspppaweadfi981123wq5ajp415a3%%,7;%m",
"mm%>,>**>1221>%*>68uu973453ufhgdpipasappiaiaaaii82,;>,200ajd4220j2-%,2-.m",
"mm@>22,>*-;1221*;;;>>,15ieq4pfhgspuuuiiuaiiiiuu944>->,24pfa4214ia6>>13.mm",
"mmmm232,*%-1204,;;;%&;24adiq5pssffsaaiiupaaddp7721>;211ppu3223iy48>,12.mm",
"mmmm,,1,-&%>25q2>,,%%-24ighdayuiiiiiiasdfhjjgsu3222231,111,22yy4661241%mm",
"mmmm>>;-*&&%-2545421;->,24ypspieweqpsghkkzkzhdy52222;;>-;,13446;%,4w31mmm",
"mmmm321>-*-;%14q0q541,,122224445qwwppshjzkkkhay3,,;1--6;1233321->,042%mmm",
"mmmmmmm<443>%%%;25qq53,2145542244000ppsghjjhfiy043,-,69711;->,3054>-6mmmm",
"mmmmmmm%,422;-%->1211231400005444q0000tsssdfay0041;24ui8118yyy8311%mmmmmm",
"mmmmmmmm%,,,>;%%;13216644ppipiaddapu50qwquiiy000y2>229828uffp8,;--mmmmmmm",
"mmmmmmmmmmm%%%-%%7%uuu864wpsdgjjjgpuqqq05334500iu6;%66;,28pp8>%mmmmmmmmmm",
"mmmmmmmmmmmmmm1,%%%4uddp4qqepfhjgduqqq05324yy5iad,11;-*-;>>>-%mmmmmmmmmmm",
"mmmmmmmmmmmmmm,423723uppp00qwppppqqqq04314iiy4ipi442>-mm%%%%%mmmmmmmmmmmm",
"mmmmmmmmmmmmmmm342227140054440000qqq05224iddi50wqq02>-mmmmmmmmmmmmmmmmmmm",
"mmmmmmmmmmmmmmmmmm-;;;--1266121-;640gsiwashharwq544,-%mmmmmmmmmmmmmmmmmmm",
"mmmmmmmmmmmmmmmmmmmmmmmm%>,1132,,745sperrpsawq53211-%mmmmmmmmmmmmmmmmmmmm",
"mmmmmmmmmmmmmmmmmmmmmmmmm%-;62431664550000044431>;-%mmmmmmmmmmmmmmmmmmmmm",
"mmmmmmmmmmmmmmmmmmmmmmmmmmmm-35q52,,66,,345542>mmmmmmmmmmmmmmmmmmmmmmmmmm",
"mmmmmmmmmmmmmmmmmmmmmmmmmmmmm,24q31,,,>>45541; mmmmmmmmmmmmmmmmmmmmmmmmmm",
"mmmmmmmmmmmmmmmmmmmmmmmmmmmmmm;111111,::4431; mmmmmmmmmmmmmmmmmmmmmmmmmmm",
"mmmmmmmmmmmmmmmmmmmmmmmmmmmmmmmmm;;111111;; mmmmmmmmmmmmmmmmmmmmmmmmmmmmm",
"mmmmmmmmmmmmmmmmmmmmmmmmmmmmmmmmmmmmXo#$oX mmmmmmmmmmmmmmmmmmmmmmmmmmmmmm"
};
