/* XPM */
static char *result[] = {
/* columns rows colors chars-per-pixel */
"15 14 20 1 ",
"  c #1F170B",
". c #13230B",
"X c #332B13",
"o c #4F0000",
"O c #670000",
"+ c #7F0000",
"@ c #43331B",
"# c #4F3B23",
"$ c #5B472B",
"% c #574333",
"& c #5F4B37",
"* c #775F3F",
"= c #9B0000",
"- c #B30000",
"; c #BF0000",
": c red",
"> c #FF7B7B",
", c #EBDB57",
"< c #FFFF73",
"1 c #00FF00",
/* pixels */
"111111*X*111111",
"111111   111111",
"1111X@&$#@X1111",
"111. O-;-O .111",
"11  O-:>:-O  11",
"11 O-:>,>:-O 11",
"%  +=>,<,>=+  %",
"#  +=>,<,>=+  #",
"11 O-:>,>:-O 11",
"11  O-:>:-o  11",
"111. O-;-o .111",
"1111       1111",
"111111   111111",
"111111@X@111111"
};
