/* XPM */
static char *result[] = {
/* columns rows colors chars-per-pixel */
"49 14 36 1 ",
"  c #1F170B",
". c #13230B",
"X c #17330F",
"o c #2B230F",
"O c #332B13",
"+ c #3F2F17",
"@ c #373F27",
"# c #4F0000",
"$ c #530707",
"% c #5B0707",
"& c #5F0707",
"* c #6B0F0F",
"= c #730000",
"- c #7F0000",
"; c #43331B",
": c #4F3B23",
"> c #5B472B",
", c #574333",
"< c #5F4B37",
"1 c #675333",
"2 c #67533F",
"3 c #775F3F",
"4 c #6F5743",
"5 c #775F4B",
"6 c #7B634F",
"7 c #8B0000",
"8 c #9B0000",
"9 c #A70000",
"0 c #BF0000",
"q c #8B2323",
"w c #8F2B2B",
"e c #FF1F1F",
"r c #836B57",
"t c #FF5F5F",
"y c #838383",
"u c #00FF00",
/* pixels */
"uuuuuuuu1:;;>uuuuuuuuuuuuuuuuuuuuuuuuuuuuuuuuuuuu",
"uuuuuuuu1:;;;>uuuuuuuuuuuuuuuuuuuuuuuuuuuuuuuuuuu",
"uuuuuuu>>>>>>>>>>>>>>>>>>>>>>>>>>>>>>>>>wwuuuuuuu",
"uuuuuu>13333333333333333333333336r6rr633qq1:uuuuu",
"uuuu7-1>1111111111111111111111114456454177331:uuu",
"uu7=-8>:<<<<<<<<<<>>>>><>><><<><2242422>883y33*:u",
"==80et::1113>;>>>>>>>><>><>>>><<<2<422>>99>313*1>",
"==80et::333>;;::::::::::::::::::,,:,,,,:&&;;;;*;:",
"uu7=-8::;;;.  XXXXX++++;;;;;;;;;;;;;;;;;%%@@;;*:u",
"uuuu7-;:;;.   ....OO+++++++++++++++++++;##@;::uuu",
"uuuuuu.;     .OOOOOOOOOOOOOOOOOOOOOOOOOO$$;:uuuuu",
"uuuuuuu.    .O;;;;;;;;;;;;;;;;;;;;;;;;;;%%uuuuuuu",
"uuuuuuuu>:;o;>uuuuuuuuuuuuuuuuuuuuuuuuuuuuuuuuuuu",
"uuuuuuuu>:o;>uuuuuuuuuuuuuuuuuuuuuuuuuuuuuuuuuuuu"
};
