/* XPM */
static char *result[] = {
/* columns rows colors chars-per-pixel */
"41 38 122 2 ",
"   c black",
".  c #070707",
"X  c #170F07",
"o  c #0F1700",
"O  c #171F07",
"+  c #1F170B",
"@  c #131313",
"#  c #1B1B1B",
"$  c #13230B",
"%  c #2B230F",
"&  c #232B0F",
"*  c #372313",
"=  c #3F2F17",
"-  c #3F2B1B",
";  c #2F371F",
":  c #232323",
">  c #272727",
",  c #2F2F2F",
"<  c #373F27",
"1  c #373737",
"2  c gray23",
"3  c #7F1B1B",
"4  c #432F1B",
"5  c #43331B",
"6  c #4B371B",
"7  c #533F1F",
"8  c #732B00",
"9  c #473323",
"0  c #4F3B23",
"q  c #4F3B27",
"w  c #5F4323",
"e  c #6B4727",
"r  c #7F532F",
"t  c #675333",
"y  c #434343",
"u  c gray28",
"i  c #5B5B5B",
"p  c #7B634F",
"a  c #777777",
"s  c #831F1F",
"d  c #B30000",
"f  c #BF0000",
"g  c #872300",
"h  c #932F00",
"j  c #9F3700",
"k  c #8B2323",
"l  c #972F2F",
"z  c #9B3333",
"x  c #A33B3B",
"c  c #A73F3F",
"v  c #CB0000",
"b  c #D70000",
"n  c #E30000",
"m  c #EF0000",
"M  c red",
"N  c #FF1F1F",
"B  c #FF3F3F",
"V  c #874307",
"C  c #9B5B13",
"Z  c #AF4300",
"A  c #B74700",
"S  c #AF7B1F",
"D  c #875733",
"F  c #8F5F37",
"G  c #9B633B",
"H  c #C34F00",
"J  c #CB5707",
"K  c #D75F0B",
"L  c #DF670F",
"P  c #EB6F0F",
"I  c #F37317",
"U  c #AF4747",
"Y  c #B34F4F",
"T  c #BB5757",
"R  c #BF5B5B",
"E  c #836B4B",
"W  c #8F7753",
"Q  c #AB6F43",
"!  c #B37347",
"~  c #BF7B4B",
"^  c #FF5F5F",
"/  c #CB7F4F",
"(  c #FF7B7B",
")  c #FF8F3B",
"_  c #9F8363",
"`  c #9F876F",
"'  c #AF977F",
"]  c #CF8353",
"[  c #D78B5B",
"{  c #DF9363",
"}  c #E79B6B",
"|  c #EFA373",
" . c #F7AB7B",
".. c #FFB37B",
"X. c #939393",
"o. c #BFA78F",
"O. c gray70",
"+. c #B7B7B7",
"@. c #DF8787",
"#. c #E78F8F",
"$. c #FF9B9B",
"%. c #FFB383",
"&. c #FFBB93",
"*. c #FFBF9B",
"=. c #F3A3A3",
"-. c #F7ABAB",
";. c #FFB7B7",
":. c #FFBBBB",
">. c #FFC79B",
",. c #FFC7A7",
"<. c #FFCFB3",
"1. c #FFD3BB",
"2. c #FFD7BB",
"3. c #FFFFB3",
"4. c #FFDBC7",
"5. c #FFDBDB",
"6. c #FFE3D3",
"7. c #FFEBDB",
"8. c #FFEBDF",
"9. c #FFFFD7",
"0. c white",
"q. c #00FF00",
/* pixels */
"q.q.q.q.q.q.q.q.q.q.q.q.q.q.q.q.q.q.q.S q.q.q.q.q.q.q.q.q.q.q.q.q.q.q.q.q.q.q.q.q.",
"q.q.q.q.q.q.q.q.q.q.q.q.q.q.q.q.q.q.R Y T q.q.q.q.q.q.q.q.q.q.q.q.q.q.q.q.q.q.q.q.",
"q.q.q.q.q.q.q.q.q.q.q.q.q.q.q.q.q.R T T T Y q.q.q.q.q.q.q.q.q.q.q.q.q.q.q.q.q.q.q.",
"q.q.q.q.q.q.q.q.q.q.q.q.q.q.q.q.T Y ] [ / T q.q.T q.q.q.q.q.q.q.q.q.q.q.q.q.q.q.q.",
"q.q.q.q.q.q.q.q.q.q.q.q.q.q.q.q.x B ..| [ ~ T U U q.q.q.q.q.q.q.q.q.q.q.q.q.q.q.q.",
"q.q.q.q.q.q.q.q.q.q.q.R R q.q.q.B #. .%.| [ Y l z q.q.q.q.q.q.q.q.q.q.q.q.q.q.q.q.",
"q.q.q.q.q.q.q.q.q.q.q.q.R R Y m ( $.&.>.&. .^ N b c q.q.q.q.q.q.q.q.q.q.q.q.q.q.q.",
"q.q.q.q.q.q.q.q.q.q.q.q.R U B N ( -.>.>.>.*.$.( m m q.q.q.q.q.q.q.q.q.q.q.q.q.q.q.",
"q.q.q.q.q.q.q.q.q.q.q.q.U N N B ^ -.>.3.3.>.-.( B M m q.q.q.q.q.q.q.q.q.q.q.q.q.q.",
"q.q.q.q.q.q.q.q.q.q.q.Y l N m B ^ -.2.9.9.2.-.^ m m N M k q.q.q.q.q.q.q.q.q.q.q.q.",
"q.q.q.q.q.q.q.q.q.q.q.U z N N B ( -.6.9.9.6.-.( B N N m 3 q.q.q.q.q.q.q.q.q.q.q.q.",
"q.q.q.q.q.q.q.q.q.q.T U B B B ^ $.1.6.0.0.6.1.$.^ B B m n q.q.q.q.q.q.q.q.q.q.q.q.",
"q.q.q.q.q.q.q.T R R f N B ^ ^ ( -.6.8.0.0.8.6.-.( ^ ^ B q.q.q.q.q.q.q.q.q.q.q.q.q.",
"q.q.q.q.q.q.T c x N ^ N ^ ( =.-.:.5.8.0.0.8.5.:.-.=.( ^ ^ q.q.q.q.q.q.q.q.q.q.q.q.",
"q.q.q.q.q.q.Y N n m M N ( ( -.:.6.7.8.0.0.8.8.6.:.-.( ( ^ n f q.q.q.q.q.q.q.q.q.q.",
"q.q.q.q.q.q.T v n B ^ B ( -.4.6.7.8.0.0.0.0.7.8.6.1.-.( B b m f q.q.q.q.q.q.q.q.q.",
"q.q.q.q.q.q.Y N N M B ^ ( ;.6.7.7.9.0.0.0.0.9.9.8.4.;.( ^ B b b q.b q.q.q.q.q.q.q.",
"q.q.q.q.q.q.z N N B ^ ^ $.:.6.8.9.0.0.7.7.0.0.0.8.6.:.$.^ ^ B N N m m m q.q.q.q.q.",
"q.q.q.q.q.q.d m N B ( ( :.4.7.9.9.0.7.2.2.7.0.9.9.7.4.:.( ( B N m m m N f q.q.q.q.",
"q.q.q.q.Y l v m ^ ^ #.:.8.7.9.9.9.7.8.>.>.8.7.9.9.9.7.8.:.#.^ ^ m B m m v q.q.q.q.",
"q.q.q.q.c d v B ( ( -.4.8.9.9.9.9.7.1.%. .4.7.8.9.9.7.8.4.-.( ( B m m m q.q.q.q.q.",
"q.q.q.q.Y l n m B ^ :.6.9.9.6.8.2.>.} E r | ,.2.8.8.8.7.6.:.^ B m B N n q.q.q.q.q.",
"q.q.q.q.q.q.N B ^ ( :.8.9.9.6.,.| ) S 7 6 S )  .>.6.6.7.8.:.( ^ B N N m z q.q.T q.",
"q.q.q.q.q.N B ^ @.-.6.0.3.3.>.[ S L C O - L K L ) ..<.4.0.6.-.@.^ B N m m N N Y q.",
"q.q.q.m M B ^ ( -.4.7.9.9.>.{ C C Z J & @ J Z j A ) %.2.9.7.4.-.( ^ B M m L H Y q.",
"H I N l M ^ ( $.5.5.9.9.9.o.G g y 0 < q q q q q g h [ <.7.9.5.5.$.( ^ M N m N q.q.",
"q.B N M B ^ ( $.;.4.6.8.,._ 1 y = O @ @ @ # O & & O Z &.2.6.4.;.$.( ^ B N m B N q.",
"q.L N B B B ^ ( $.;.4.6.o.. 4 % . 4 8 8 8 8 X X + % + | >.2.;.$.( ^ B B B B N q.q.",
"q.q.q.B N N N ^ ^ #.1.+.W % * . 4 8 D L ) K V 4 X + + ! ..>.#.^ ^ B B N B N N q.q.",
"R U m N ^ N m N ( $.*.`   % % % 8 F K J P H j 8 4   O # o...$.( B N N ^ N m m l q.",
"Y c m m m N N ^ ( -.' + % * + 4 D F H A K Z h 8 4 *   % s o.-.( B N N m m B q.x Y ",
"q.Y n N M N N B ^ @.p   % % * e Q G D Z H V g 8 q *   % + s @.^ B N N M m b v x Y ",
"q.q.c m N N N B ^ B # % * + 9 V ~ Q D Z Z V g 8 q * X   % # Y ^ B N m n n b d U R ",
"q.q.U b N N N B B x O - % % q V Q J J D Z [ J 8 q * *   % : x B m B m q.q.x q.q.q.",
"q.q.Y f n B m B B   O 2 + * q D t     - %     & w % o o   $ # d m m m q.q.q.q.q.q.",
"q.q.q.q.q.q.b q.r O , > & , 2 u ,               & & O #   # : k n v l U q.q.q.q.q.",
"q.q.q.q.q.q.v q.  O 2 # > 1 a i :               < ; & 1 : # :   d c Y T q.q.q.q.q.",
"q.q.q.q.q.q.q.q.& , & 2 > a O.X.i y 5 5 , : # & ; ; & ; 2 @ #   d Y q.q.q.q.q.q.q."
};
