/* XPM */
static char *result[] = {
/* columns rows colors chars-per-pixel */
"66 81 82 1 ",
"  c black",
". c #070707",
"X c #0B0B0B",
"o c #170F07",
"O c #0F1700",
"+ c #171F07",
"@ c #1F170B",
"# c #131313",
"$ c #1B1B1B",
"% c #13230B",
"& c #2B230F",
"* c #232B0F",
"= c #372313",
"- c #332B13",
"; c #3F2F17",
": c #3F2B1B",
"> c #2F371F",
", c #232323",
"< c #272727",
"1 c #2F2F2F",
"2 c #373F27",
"3 c #373737",
"4 c gray23",
"5 c #43331B",
"6 c #4B371B",
"7 c #533F1F",
"8 c #473323",
"9 c #4F3B2B",
"0 c #533F2F",
"q c #3F472B",
"w c #5F4323",
"e c #5B472B",
"r c #474F33",
"t c #574333",
"y c #53573B",
"u c #6B4727",
"i c #774F2B",
"p c #7F532F",
"a c #434343",
"s c gray28",
"d c #4B4B4B",
"f c gray31",
"g c gray34",
"h c #5B5B5B",
"j c #5B6347",
"k c #676B4F",
"l c #6F7357",
"z c gray39",
"x c gray42",
"c c #6F6F6F",
"v c #7B7F63",
"b c #777777",
"n c gray50",
"m c #875733",
"M c #8F5F37",
"N c #9B633B",
"B c #A36B3F",
"V c #AB6F43",
"C c #B37347",
"Z c #BF7B4B",
"A c #CB7F4F",
"S c #CF8353",
"D c #D78B5B",
"F c #DF9363",
"G c #E79B6B",
"H c #EFA373",
"J c #F7AB7B",
"K c #838383",
"L c #8B8B8B",
"P c #939393",
"I c #979797",
"U c #9F9F9F",
"Y c #A7A7A7",
"T c gray70",
"R c #B7B7B7",
"E c #FFB383",
"W c #FFBF9B",
"Q c #CBCBCB",
"! c LightGray",
"~ c gray86",
"^ c #EFEFEF",
"/ c #00FF00",
/* pixels */
"///////////////////////////////////////###////////////////////////",
"/////////////////////////////////////#34ff3#//////////////////////",
"////////////////////////////////////#<3KKx3<#/////////////////////",
"////////////////////////////////////#<33333<#/////////////////////",
"///////////////////////////////////##<3<<<3<##////////////////////",
"///////////////////////////////////#4shs##5222*///////////////////",
"//////////////////////////////////,ahbhs++5222*$//////////////////",
"/////////////////////////////////,agcPzs**52q22*$/////////////////",
"/////////////////////////////////,fhxchs222qq>>>+/////////////////",
"////////////////////////////////X3ffs43####$****+$////////////////",
"////////////////////////////////X33a&OXXXXX#O+**+$////////////////",
"////////////////////////////////Xaa<X       #OO+*$////////////////",
"///////////////////////////////$<3<X+<1333<,#  #++$///////////////",
"/////////////////////////////// 11+,42a444<$***  +$///////////////",
"///////////////////////////////,3+<2cyffaa1<*>**O %$//////////////",
"////////////////////////////// 1,+>PYlgfss31*>>*O %$//////////////",
"////////////////////////////// 1,<x^Tlgfss31*>>>+ %$$/////////////",
"////////////////////////////// 1,>nTTlgfss31*>>2* %$$/////////////",
"/////////////////////////////$*3$4xPYvhgdd33*>>q*O %$$////////////",
"/////////////////////////////$*$$szLUvhgdd33*>>r*O %$$////////////",
"/////////////////////////////+:$*ffkIR0gdd<nt**2*O %,,////////////",
"//////////////////////////// +4$3ffvc   44<   *>*OO %%$///////////",
"////////////////////////////+1$$144s1          **+$ $$,///////////",
"////////////////////////////+1$*144s1          **+$  $,///////////",
"/////////////////////////// +4$<3ssh,          2>*3, $, //////////",
"///////////////////////////*1*$<4sshha55551,$**>>*>4 #$ //////////",
"///////////////////////////1<o:$shhbUTxsss4,,***>*>d*.# //////////",
"///////////////////////////1<o:$shhbUTx4444,,***>*>d*.# //////////",
"////////////////////////,3ssLx=$hxbKPIchs3<$$$****>h4.# //////////",
"////////////////////////3hcc~Y=$hbUIPcf333<$$$$$**>h4.# //////////",
"///////////////////////3:899>984cUTTIng4441<<$$$$1az<<Qz3/////////",
"///////////////////////0 ###1#84bQ!TIng4441<<$$$$1az,,<1$q////////",
"///////////////////////0##aaIa$fP~~Ibza3<<       $4f$$,$$>////////",
"////////////////////////<<11x,,fPQQbrrrr2>*$+O+O  <4<<# $*////////",
"///////////////////////<a3##a33aITTzRvlkjr2>*++O  X***$#$+////////",
"//////////////////////M<a3##a33aKKKalq2>>>*+O$$,  X***$#$+////////",
"/////////////////////MN,$,## f<3cxx<j*+OOO$    $  X+***#$O////////",
"////////////////////MNV,$#   s,afgg$3          $  XXXX>  O////////",
"///////////////////iMNVZZ9###a,d3ff#3          .   O &q  /////////",
"//////////////////uMVVVVZ,33<31a#                   $&2  /////////",
"////////////////imMVBBBBM:##$<,<#$< .X XXX        X&&&>  66o//////",
"///////////////umMBBVBBBM:##$<,,X          .    XX&&&&> -ppuu7o///",
"//////////////uMMMBBVBBMC<hh14#,XzI,sI#443 .    XX&&&&*-7MppMp6o//",
"//////////////uMMmBVVBNBC#######X&z 3f ss,     X&77ippiuuCCMNVm6o/",
"//////////////uMMNVVCVNBBmp7uuw55-&;;-$     oo;77pMNBBVCSSCNMNVio/",
"//////////////uiNCBBCVVNBVpNBBBBMpi76w;&&&&&;7NCFWWEHGDDDCVNuuimo/",
"//////////////6iNCVBBCCVNBBZSSDFFSSSSCNmmMBVADHJJEWWEGSSSVNu77umo/",
"/////////////w6imCCVBBCCVNBBZSSDFFSSSSCNNmMBVADHJJEWWGZCCBMw;-wu6 ",
"////////////wp7imBCBBBBZCCNNNVVASDSCCCNmmMBVDGGFFHJEWDZCCNmu&&6wu ",
"////////////mp6uiNBBNBBCZZCCNMMVVZCVVNNNNVADDAAADDEEEACVVNpuo&;6u ",
"///////////im7;wimNBNNNNCZSSZCMmmmpNNNNVVAAZSSASAZDGHZCBBMpeoo$;w ",
"///////////Nm6-6wimNNMMNBCCZSZVMpNNNNVCAACCZAZZSSZZSDCBNNmi6oo  6 ",
"///////////Nm7;wiiimMMMMNBCZZBBMNNZZZZCCCZZSSACVZZSDDCBNNMpeoo$$6 ",
"///////////Np6-6wuimMMMMNBCZZBBMNNZZZZCCCZZSSACVZZSDDVNNNmi6oo  6 ",
"///////////m7--6wwuippmMMMBBBBNNVZVVVVZZZDGHGFAZVVSDSBMMMme5o; ;$/",
"///////////i6&&-6uwuipmmMMNNmNVVVCCCVVSDDGHJHGSZBVZSABMppie5o$;$//",
"////////////;@&-wpuwwuiimmMMMNCCVVZSSVVNNNCZSSSSCCZCCNmppee&o/////",
"////////////7&o&;wMppiiuuMMCBMBVBBNVVVSSSZZNNVCCBMCCCBNppe65&/////",
"////////////;&&-5iVNmppmBCBMCCSSGFDCNNVVVSSVVNMMpiCCVNpuu75&o/////",
"////////////-&-;5mVVNNBCMMCCZZZZSSGFSCZMMMVSCmiw6uNNMMuww6&o&/////",
"/////////////&;67NZVVVMmCCCVVVVNNNBSSDSCCmmCBMu;;uMmpu655&o &/////",
"/////////////&;77VZCBMmNCDDFGHGFDSCNNCZSSSmpMBm66umpuw6;;&. //////",
"/////////////&;6uCBNMmCSFGSVNpNVSFHFSCNCCSCmimMw6uiuw65&&o .//////",
"//////////////;6uBNiNSGGSMmmiuupmBVVZSSCCMBB66up7;uw6;&oo  &//////",
"//////////////;7uuimASVMmmNVVNNNmmmmmimNNVVNM6-7u;6;&&o.. @3//////",
"//////////////&7uwimVBMmVSGEEGSSSZCVNMiiiimNNpw6@;6;&oo... o$/////",
"//////////////&7wMMVZZSFFEEGSBBmmmmNVVVNNiuwumMp;@;6&o.  @   /////",
"//////////////67NCNMNNNMVSFEEGFFCuwumNVVVVNiw5wpu;.-&  ##o   /////",
"////////////wmNCCNmuwwwwwwuuMBBSFGAmu7mmmNVNuw&wu6&.  #..    /////",
"//////////w;wumNCDDGHJJJGSCMpuuiBBVSAV7uupNVNu6;77&& o     $$/////",
"/////////ww;wumNCDDGHJJJGSCMpuupuiBSAAVuupNVNu6;77&& o      //////",
"/////////--;6immmmmmmNVSGJHFDCNM6uiMVBAVmupNCMw-;;;oo     ////////",
"////////&&&;;;7777wwwwwumCSGJJSCCN66uMBAABuBZVu6 &&   #@@@////////",
"////////&&&;umVVMmmMMppiuw;wVDSSAACN6uMBADVBDAi7&         ////////",
"////////&;;miVSGSNCCDSVMiiuw;;iVSSDACu6uuNDDDVi7&         ////////",
"////////&mZVNVDFAmCFSFSNMmiiuw;wmVSDACp667NCZBi7&         ////////",
"//////67pNAAMVAFAmCASZSCmmCNiu7;-wmVAFCpp67MBmi7&        /////////",
"////777wVBVHVVCCFBVDFCFZNNSCMiu7;-wmMCFCCp;iNmi7&   o/////////////",
"///iwuNVVDSFCNCNHCmDFFFSBVZSBMiu7$-wpMCFFCw;wmi7&   #/////////////",
"/6iuppCDDAVFCFNmDACSFDFZVMZBBMiuw6$-wwMCCSi;;ww6    //////////////",
"p6wimVDVDHGDSHCBFHSCGFHVmMBBMMuuu7$$-wwNNVC6;-;&   .//////////////"
};
