/* XPM */
static char *result[] = {
/* columns rows colors chars-per-pixel */
"79 82 88 1 ",
"  c black",
". c #070707",
"X c #0B0B0B",
"o c #170F07",
"O c #0F1700",
"+ c #0B1707",
"@ c #171F07",
"# c #1F170B",
"$ c #131313",
"% c #1B1B1B",
"& c #13230B",
"* c #2B230F",
"= c #232B0F",
"- c #332B13",
"; c #3F2F17",
": c #3F2B1B",
"> c #2F371F",
", c #232323",
"< c #272727",
"1 c #2F2F2F",
"2 c #373F27",
"3 c #373737",
"4 c gray23",
"5 c #43331B",
"6 c #4B371B",
"7 c #533F1F",
"8 c #473323",
"9 c #4F3B23",
"0 c #4F3B2B",
"q c #533F2F",
"w c #3F472B",
"e c #5F4323",
"r c #5B472B",
"t c #474F33",
"y c #574333",
"u c #5F4B37",
"i c #53573B",
"p c #6B4727",
"a c #774F2B",
"s c #7F532F",
"d c #434343",
"f c gray28",
"g c #4B4B4B",
"h c gray31",
"j c gray34",
"k c #5B5B5B",
"l c #5B6347",
"z c #676B4F",
"x c #6F7357",
"c c gray39",
"v c gray42",
"b c #6F6F6F",
"n c #7B7F63",
"m c #777777",
"M c gray50",
"N c #875733",
"B c #8F5F37",
"V c #9B633B",
"C c #A36B3F",
"Z c #AB6F43",
"A c #B37347",
"S c #BF7B4B",
"D c #CB7F4F",
"F c #CF8353",
"G c #D78B5B",
"H c #DF9363",
"J c #E79B6B",
"K c #EFA373",
"L c #F7AB7B",
"P c #838383",
"I c #8B8B8B",
"U c #939393",
"Y c #979797",
"T c #9F9F9F",
"R c #A7A7A7",
"E c gray67",
"W c gray70",
"Q c #B7B7B7",
"! c #FFB383",
"~ c #FFBB93",
"^ c #FFBF9B",
"/ c #FFC79B",
"( c gray78",
") c #CBCBCB",
"_ c LightGray",
"` c gray86",
"' c #EFEFEF",
"] c #00FF00",
/* pixels */
"]]]]]]]]]]]]]]]]]]]]]]]]]]]]]]]]]]]]]]]]]]]]]]]]]]]]]]]P3]]]]]]]]]]]]]]]]]]]]]]",
"]]]]]]]]]]]]]]]]]]]]]]]]]]]]]]]]]]]]]]]]]]]]]]]]]]]]]]]3 ]]]]]]]]]]]]]]]]]]]]]]",
"]]]]]]]]]]]]]]]]]]]]]]]]]]]]]]]]]]]]]]]]]]]]]]]]]]]]]=9$$XX]]]]]]]]]]]]]]]]]]]]",
"]]]]]]]]]]]]]]]]]]]]]]]]]]]]]]]]]]]]]]]]]]]]]]]]]]]X0mh@$,==%]]]]]]]]]]]]]]]]]]",
"]]]]]]]]]]]]]]]]]]]]]]]]]]]]]]]]]]]]]]]]]]]]]]]]]]XdcUc=$,w2=%]]]]]]]]]]]]]]]]]",
"]]]]]]]]]]]]]]]]]]]]]]]]]]]]]]]]]]]]]]]]]]]]]]]]]]3kd9222ww>>@]]]]]]]]]]]]]]]]]",
"]]]]]]]]]]]]]]]]]]]]]]]]]]]]]]]]]]]]]]]]]]]]]]]]]X3d;@$$$%@==@%]]]]]]]]]]]]]]]]",
"]]]]]]]]]]]]]]]]]]]]]]]]]]]]]]]]]]]]]]]]]]]]]]]]]Xd<X     $O@=%]]]]]]]]]]]]]]]]",
"]]]]]]]]]]]]]]]]]]]]]]]]]]]]]]]]]]]]]]]]]]]]]]]]]<3X@<13<,$ $@@]]]]]]]]]]]]]]]]",
"]]]]]]]]]]]]]]]]]]]]]]]]]]]]]]]]]]]]]]]]]]]]]]]] 11,42d4<%==  @%]]]]]]]]]]]]]]]",
"]]]]]]]]]]]]]]]]]]]]]]]]]]]]]]]]]]]]]]]]]]]]]]]%,3@2bikf1<=>=O &%]]]]]]]]]]]]]]",
"]]]]]]]]]]]]]]]]]]]]]]]]]]]]]]]]]]]]]]]]]]]]]]] 1,>tUxjf31=>2= &%]]]]]]]]]]]]]]",
"]]]]]]]]]]]]]]]]]]]]]]]]]]]]]]]]]]]]]]]]]]]]]]%=3%flWnkg33=>w=O &%]]]]]]]]]]]]]",
"]]]]]]]]]]]]]]]]]]]]]]]]]]]]]]]]]]]]]]]]]]]]]]@:<=hzYQqg<My=w=O &,]]]]]]]]]]]]]",
"]]]]]]]]]]]]]]]]]]]]]]]]]]]]]]]]]]]]]]]]]]]]] @4%3hnb  4<  =>=OO &%]]]]]]]]]]]]",
"]]]]]]]]]]]]]]]]]]]]]]]]]]]]]]]]]]]]]]]]]]]]]@1<=14f1       ==@% %,]]]]]]]]]]]]",
"]]]]]]]]]]]]]]]]]]]]]]]]]]]]]]]]]]]]]]]]]]]] @4%<3mk,       2>=3,%, ]]]]]]]]]]]",
"]]]]]]]]]]]]]]]]]]]]]]]]]]]]]]]]]]]]]]]]]]]]=1=4<m'Qkd551,%=>>=>4$% ]]]]]]]]]]]",
"]]]]]]]]]]]]]]]]]]]]]]]]]]]]]]]]]]]]]]]]]]]]1<q2%m)RTWvf4,,==>=>g=$ ]]]]]]]]]]]",
"]]]]]]]]]]]]]]]]]]]]]]]]]]]]]]]]]]]]]]]]]]3kb`R2%kPYUbh3<%%%%==>k4$ ]]]]]]]]]]]",
"]]]]]]]]]]]]]]]]]]]]]]]]]]]]]]]]]]]]]]]]]3:80>084PW)YMj41<<% %1dc<)c3]]]]]]]]]]",
"]]]]]]]]]]]]]]]]]]]]]]]]]]]]]]]]]]]]]]]]]q $$1$%hU`Yd         %4h,<1%w]]]]]]]]]",
"]]]]]]]]]]]]]]]]]]]]]]]]]]]]]]]]]]]]]]]]]]$$dYd,hU)dQliw2>=@O  <4%,%%>]]]]]]]]]",
"]]]]]]]]]]]]]]]]]]]]]]]]]]]]]]]]]]]]]]]]]]<<1v,3dYW xw2>=@O%,  X=<$ %=]]]]]]]]]",
"]]]]]]]]]]]]]]]]]]]]]]]]]]]]]]]]]]]]]]]]]<d3$d3<3PW l=@O%   %  X@=%$%@]]]]]]]]]",
"]]]]]]]]]]]]]]]]]]]]]]]]]]]]]]]]]]]]]]]]],%,$ h,dcI%3       %  XX==$%O]]]]]]]]]",
"]]]]]]]]]]]]]]]]]]]]]]]]]]]]]]]]]]]]]]]]]]]$  f,gkm%3       .   OX>  ]]]]]]]]]]",
"]]]]]]]]]]]]]]]]]]]]]]]]]]]]]]]]]]]]]]]]]]]0$$d1jcc1            @ w  ]]]]]]]]]]",
"]]]]]]]]]]]]]]]]]]]]]]]]]]]]]]]]]]]]]]]]]]],3<3,Ymj1           O= 2  ]]]]]]]]]]",
"]]]]]]]]]]]]]]]]]]]]]]]]]]]]]]]]]]]]]]]]]]B:$%<$(Tmkd331*      @>$>  ]]]]]]]]]]",
"]]]]]]]]]]]]]]]]]]]]]]]]]]]]]]]]]]]]]]]]]B,<k14$_Pj41<,@      O=2 =  ]]]]]]]]]]",
"]]]]]]]]]]]]]]]]]]]]]]]]]]]]]]]]]]]]]]]BBB1:$%goEvd3<,O      O@=> @   ]]]]]]]]]",
"]]]]]]]]]]]]]]]]]]]]]]]]]]]]]]]]]]]]]]BVBp,fMf3$fjh41<,++ O@@@=>, @   ]]]]]]]]]",
"]]]]]]]]]]]]]]]]]]]]]]]]]]]]]]]]]]]]]BVZVp;%<31o;kvhuy5-$@@===>=% O   3]]]]]]]]",
"]]]]]]]]]]]]]]]]]]]]]]]]]]]]]]]]]]]]BVZZSNe %1,1o,9fbjhh443;-=O$X     3]]]]]]]]",
"]]]]]]]]]]]]]]]]]]]]]]]]]]]]]]]]]]]aBVZSSZa; ,1f1$ XX$$$XX.  X X      1]]]]]]]]",
"]]]]]]]]]]]]]]]]]]]]]]]]]]]]]]]]]]pBZZZZSANa$ ,dkf1                %  1]]]]]]]]",
"]]]]]]]]]]]]]]]]]]]]]]]]]]]]]]]]aNBZCCCCFSCae$$<kmE,,3 <<        X*67ppp66;]]]]",
"]]]]]]]]]]]]]]]]]]]]]]]]]]]]]]]pNBCCZCCCDHSCae$,1cY,fY$43 .    XX*7sBBssspp7]]]",
"]]]]]]]]]]]]]]]]]]]]]]]]]]]]]]pBBNCZZCVCAFHHDBBe$*c 3h f,     X*paVZZVBBssBs;]]",
"]]]]]]]]]]]]]]]]]]]]]]]]]]]]]]pBBVZZAZVCCSFJJJDBBe;;;-%    oo;7pAHJHGFFAABVZp;]",
"]]]]]]]]]]]]]]]]]]]]]]]]]]]]]]pBBACCAZZVCZZGHJJJDZVaee;****;7VAH^^!KJGGFAVBVa;]",
"]]]]]]]]]]]]]]]]]]]]]]]]]]]]]]paVAZCCAAZVCCSFFGHHFFFFAVNBCZDGKLL!^^!JFFAZVpsN;]",
"]]]]]]]]]]]]]]]]]]]]]]]]]]]]]]6aVACCCCSAAVVVZZDFGFAAAVNBCZGJJHHKL!^^JSAZVp77N;]",
"]]]]]]]]]]]]]]]]]]]]]]]]]]]]]e6aNCCVCCASSAAVBBZZSAZZVVVZDGGDDDGGJJ!^GSACBe;-pp;",
"]]]]]]]]]]]]]]]]]]]]]]]]]]]]es7aNVCVVVVASFFSABNNNsVVVVZDDSFFDFDSGJKLDAZVNp**6e;",
"]]]]]]]]]]]]]]]]]]]]]]]]]]]eNs6paNVVBBVCAASFSZBsVVVVZADAASDSSFFSSFGHSACVspo*;e;",
"]]]]]]]]]]]]]]]]]]]]]]]]]]]aZ7;eaaNBBBBVCASSCCBVVSSSSAASSFFDAZSSFGGFACVBsroo%6;",
"]]]]]]]]]]]]]]]]]]]]]]]]]]]Zs6-6epassNBBBCCCCVVZSZZZZSSGJKJHDSZZFGFSZVVNa6oo 6;",
"]]]]]]]]]]]]]]]]]]]]]]]]]]]V7--6eepasNNBBVVNVZZZAAAZZFGJKLKJFSCZSFDSCBBNr5o;;%]",
"]]]]]]]]]]]]]]]]]]]]]]]]]]]a6**-6peepassNNNNVVZZCAAVZVASFGHJFZBZADSACBsar5o%%]]",
"]]]]]]]]]]]]]]]]]]]]]]]]]]]p;#*-espeepaaNNBBBVAAZZSFFZZVVASFFVNBASAAVNsrr*o]]]]",
"]]]]]]]]]]]]]]]]]]]]]]]]]]]7*o*;eBssaappBBACBCZCCVZZZFFSSVVZABsNAAACVsr65**]]]]",
"]]]]]]]]]]]]]]]]]]]]]]]]]]]]**-5aZVNssNCACBAAFFJHGAVVZZFFZZVBaeaAAZVsp75*o*]]]]",
"]]]]]]]]]]]]]]]]]]]]]]]]]]]]*-;5NZZVVCABBAASSSSFFJHFASBBZFANae6pVVBBpe6*o*]]]]]",
"]]]]]]]]]]]]]]]]]]]]]]]]]]]]*;67VSZZZBNAAAZZZZVVVCFFGFANNACBp;;pBNsp65*o *]]]]]",
"]]]]]]]]]]]]]]]]]]]]]]]]]]]]*;77ZSACBNVAGGHJKJHGFAVVASFFNsBCN66pNspe6;*. ]]]]]]",
"]]]]]]]]]]]]]]]]]]]]]]]]]]]]];6pACVBNAFHJFZVsVZFHKHFAVAFANaNBe6pape65*o .]]]]]]",
"]]]]]]]]]]]]]]]]]]]]]]]]]]]]];6pCVaVFJJFBNNappsNCZZSFFABCC66ps7rre6;*o  ]]]]]]]",
"]]]]]]]]]]]]]]]]]]]]]]]]]]]]];7ppaNDFZBNNVZZVVVNNNNNaNVZZVB6-7p;6;**o. #]]]]]]]",
"]]]]]]]]]]]]]]]]]]]]]]]]]]]]]7peaNZCBNZFJ!!JFFFSAZVBaaaNVVss6#;6;*oo.. o-]]]]]]",
"]]]]]]]]]]]]]]]]]]]]]]]]]]]]]7eBBZSSFHH!!JFCCNNNNVZZZVapepNBs;#;6*o. #   ]]]]]]",
"]]]]]]]]]]]]]]]]]]]]]]]]]]]*67VAVBVVVBZFH!!JHHApepNVZZZVae5esp;.-*  $o   ]]]]]]",
"]]]]]]]]]]]]]]]]]]]]]]]]]eeNVAAVNpeeeeeeppBCCFHJDNp7NNVZVpe*ep7*.  $.    ]]]]]]",
"]]]]]]]]]]]]]]]]]]]]]]]ee;epNVAGGJKLLLJFABsppsCCZFDN7psVZVp6;77** o     ]]]]]]]",
"]]]]]]]]]]]]]]]]]]]]]]e--;6aNNNNNNNVZFJLKHGAVB6paBZDCNpsVABe-;;;oo     ]]]]]]]]",
"]]]]]]]]]]]]]]]]]]]]]e***;;;7777eeeeepNAFJLLFAAV66pBGDCpCSZp6 **   $#]]]]]]]]]]",
"]]]]]]]]]]]]]]]]]]]]]-***;pNZZBNNBBssape;eZGFFDDAV6pBDGZCGDa7*       ]]]]]]]]]]",
"]]]]]]]]]]]]]]]]]]]]]**;;NaZFJFVAAGFZBaape;;aZFFGDAp6pVGGGZa7*       ]]]]]]]]]]",
"]]]]]]]]]]]]]]]]]]]]]7*NSZVZGHDNAHFHFVBNaape;eNZFGDAs67VASCa7*       ]]]]]]]]]]",
"]]]]]]]]]]]]]]]]]]]]67sVDDBZDHDNADFSFANNAVap7;-eNZDHAs67BCNa7*       ]]]]]]]]]]",
"]]]]]]]]]]]]]]]]]]777eZCZKZZAAHCZGHAHSVVFABap7;-eNBAHAs;aVNa7*   o  ]]]]]]]]]]]",
"]]]]]]]]]]]]]]]]]aepVZZGFHAVAVKANGHHHFCZSFCBap7%-esBAHAe;eNa7*   ]]]]]]]]]]]]]]",
"]]]]]]]]]]]]]]]6apssAGGDZHAHVNGDAFHGHSZBSCCBape6%-eeBAFa;;ee6   ]]]]]]]]]]]]]]]",
"]]]]]]]]]]]]]]s6eaNZGZGKJGFKACHKFAJHKZNBCCBBppp7%%-eeVZA6;-;*   ]]]]]]]]]]]]]]]",
"]]]]]]]]]]]];7pCBAZHGHZHJGG~FAKKFAJJHZNBBBBBppa6-% ;6aBVe***    ]]]]]]]]]]]]]]]",
"]]]]]]]]]]pppapaCCGDGKSVHHH/HAJHAFKHGCasBBaapap6-% -6psBa***   ]]]]]]]]]]]]]]]]",
"]]]]]]]]7pNpsNCZZBGJAGHAFSSKKH~CVHKFZVeaappNaae-#- #6eppe**  .]]]]]]]]]]]]]]]]]",
"]]]]]]]pNseaBZVSFGGLSVJZVZAHHH/CVH~AVaeeaaaaNa6##- #-6e76*  ]]]]]]]]]]]]]]]]]]]",
"]]]]NsNssVBNaDZBG^KKHSJVAFBFKH~VNHKZZaaa7aaNNe##*-##*676;-]]]]]]]]]]]]]]]]]]]]]",
"]]e6aNsssAGGGSGGKJ^^JKHSNBCSSHLANDDZaaee7eaae*#**;##*67;-]]]]]]]]]]]]]]]]]]]]]]",
"eaa6eNAGGGGZLD^G~KL^^FKHSZCCAHKZNZSNa7667ppe;o-#;7**;77-*]]]]]]]]]]]]]]]]]]]]]]"
};
