/* XPM */
static char *result[] = {
/* columns rows colors chars-per-pixel */
"61 81 86 1 ",
"  c black",
". c #070707",
"X c #0B0B0B",
"o c #170F07",
"O c #0F1700",
"+ c #0B1707",
"@ c #171F07",
"# c #1F170B",
"$ c #131313",
"% c #1B1B1B",
"& c #13230B",
"* c #2B230F",
"= c #232B0F",
"- c #332B13",
"; c #3F2F17",
": c #3F2B1B",
"> c #2F371F",
", c #232323",
"< c #272727",
"1 c #2F2F2F",
"2 c #373F27",
"3 c #373737",
"4 c gray23",
"5 c #43331B",
"6 c #4B371B",
"7 c #533F1F",
"8 c #473323",
"9 c #4F3B23",
"0 c #4F3B2B",
"q c #533F2F",
"w c #3F472B",
"e c #5F4323",
"r c #5B472B",
"t c #474F33",
"y c #574333",
"u c #5F4B37",
"i c #53573B",
"p c #6B4727",
"a c #774F2B",
"s c #7F532F",
"d c #434343",
"f c gray28",
"g c #4B4B4B",
"h c gray31",
"j c gray34",
"k c #5B5B5B",
"l c #5B6347",
"z c #6F7357",
"x c gray39",
"c c gray42",
"v c #6F6F6F",
"b c #7B7F63",
"n c #777777",
"m c gray50",
"M c #875733",
"N c #8F5F37",
"B c #9B633B",
"V c #A36B3F",
"C c #AB6F43",
"Z c #B37347",
"A c #BF7B4B",
"S c #CB7F4F",
"D c #CF8353",
"F c #D78B5B",
"G c #DF9363",
"H c #E79B6B",
"J c #EFA373",
"K c #F7AB7B",
"L c #838383",
"P c #8B8B8B",
"I c #939393",
"U c #979797",
"Y c #9F9F9F",
"T c #A7A7A7",
"R c gray67",
"E c gray70",
"W c #B7B7B7",
"Q c #FFB383",
"! c #FFBF9B",
"~ c gray78",
"^ c #CBCBCB",
"/ c LightGray",
"( c gray86",
") c #DFDFDF",
"_ c #EFEFEF",
"` c #00FF00",
/* pixels */
"`````````````````````````````````LL3`````````````````````````",
"`````````````````````````````````33 `````````````````````````",
"```````````````````````````````=9$$$XXX``````````````````````",
"`````````````````````````````X0nh@@$,>>=%````````````````````",
"````````````````````````````XdxIx==$,>w2=%```````````````````",
"````````````````````````````3kd92222www>>@```````````````````",
"```````````````````````````X3d;@$$$$%%@==@%``````````````````",
"```````````````````````````Xd<X       $O@=%``````````````````",
"``````````````````````````%<3X@<133<,,$ $@@%`````````````````",
"`````````````````````````` 11,42d44<%%=@  @%`````````````````",
"`````````````````````````%,3@2hikff1<<=>=O &%````````````````",
"`````````````````````````%,3@2xzkff1<<=>=O &%````````````````",
"````````````````````````` 13@2vzkff1<<=>=O &%````````````````",
"````````````````````````` 1,>tnzjff311=>>= &%````````````````",
"````````````````````````%=3,>tLzjff311=>2= &&%```````````````",
"````````````````````````%=3%flPbkgg333=>2=O &%```````````````",
"````````````````````````%=3%flIbkgg333=>2=O &%```````````````",
"````````````````````````@:<%flUbkgg333=>2=O &,```````````````",
"``````````````````````` @4%=hlTWqgg<mmy=2=O  &%``````````````",
"```````````````````````@1<=3hl1   4<   =>=OO %,``````````````",
"`````````````````````` @4%<14f1         ==@%,%, `````````````",
"``````````````````````=1=4<3fk,         2>=34$% `````````````",
"``````````````````````1<q2%4fkkd5551,,%=>>=>g=$ `````````````",
"``````````````````````1<q2%fknYEcff4,,,==>=>g=$ `````````````",
"````````````````````3kv(T2%kR/~vh33<%%%%%==>k4$ `````````````",
"```````````````````3:80>084L~_/mj441<<<% %1dx<^x3````````````",
"```````````````````3:80>084L~_~mj441<<<% %1dx<nx3````````````",
"```````````````````q $$1$84LE)Umj441<<<% %1dx,<1%w```````````",
"```````````````````q$$dUd%hI(Ud           %4h%,%%>```````````",
"````````````````````<<1c,,hI^dP2>===%%@OO  <4<$ %=```````````",
"````````````````````<<1c,,hI^dWliww2>>=@O  <4<$ %=```````````",
"```````````````````<d3$d33dUE zw2>>=@@O%,  X==%$%@```````````",
"```````````````````,%,$ h<3LE l=@OO%    %  X@==$%O```````````",
"```````````````````,%$  f,dxP%3         %  XXX>  O```````````",
"````````````````````B0$$d,gkn%          .   O w  ````````````",
"```````````````````BB,3<31jxx1              @ 2  ````````````",
"``````````````````BN,:$%<,Unj1             O=$>  ````````````",
"`````````````````BBN,<k14$/Lj41<,@@       O=2 =  ````````````",
"````````````````BBCN,<k14$/Lj41<,@@       O=2 =  ````````````",
"```````````````BCCAC1<k14$/Lj41<,@@       O=2 =  ````````````",
"``````````````aNCAAp,:$%goRcd3<,O        O@=> @   ```````````",
"`````````````NNNCAAp;fmf3$fjh41<,+++  O@@@=>, @   ```````````",
"````````````aNCBCCAMe%<31o;kchuy5--$@@@===>=% O   3``````````",
"```````````pNCNBCAACa %1,1o,9fvjhhh4443;-=O$X     1``````````",
"`````````aMNCCCCCCAZM; ,1f1$ XX$$$$XXX.  X X   %7ppp66o``````",
"````````pMNVVCVVVVDAVa$ ,dkf1                X*6NNsssspp7o```",
"```````pNNNVVVCVVVSGAae$$<knR,,3 <<<        X*7sNZBBBBsNs6o``",
"```````pNNMVCVCVVVSGAVae$,1xU,fU$443  .    XXppsDCCCZZNBCM6o`",
"```````pNNBCCCCVBVZDGVae$,1xU,fU$443  .    XpaBGFDDDAZBNBCao`",
"```````paBZVVCZCBVVADGSNNe$*x 3h ff,      XpBZJGFDDDAZBNBCao`",
"```````6aBZCVVZCCBVAFHHHSNNe;;;-%      oo;7BSJQJHFFAZCBppaMo`",
"``````e6aMZZCVVZZCBVAFGHHHSCBaee;******;7BZGJ!!QHDAZCBp77pMo`",
"`````es7aMVZVCVVZZCBVADDFGGDDDDZBMMNVVCSFJKKKQ!!HAZZVNe;-ee6 ",
"`````es7aMVZVVVVVAZZBVADDFGGDDDDZBBMNNVCSFJKJKQ!FAZZBMp***66 ",
"`````es7aMVZVVVVVAZZBBVCCSDFDZZZBMMNVVCFHHGHJKQ!FAZZBMp***;6 ",
"`````Ma6paBVVVVVVAZZVBBBCSDFDZZZBMMNVVCFHHGGHKJQSZCCBspoo%%6 ",
"````aMp7eaMBVVBVVZAAZZBNNNCAZCCBBBBCSSFFSSSFFHHJAZVVNsroo%%6 ",
"````BM7-6eaMBVBBBBZADZCBNMMMMNNBBCCSSSADDSDSFFHJAZVVNsroo  6 ",
"````Bs7;eaaaMBBNNBVZZZCBNNMMNBBCZSSZZZASAADDAFGGZVBBNsroo%%6 ",
"````Bp6-6epaMMNNNNBVZZCVNNNBBBAAZZZAAADDSZCAADFFZVBBNsroo  6 ",
"````M7--6eepaMNNNNBVZZCVNNBBAAAAZZZAAADDSZCAADFFCBBBMa6o; ;%`",
"````a6**-6pepassMNNNVVVVBBCACCCCAAAFHHJHGSACCDFDVNNNMr5o%;%``",
"`````;#*-espepasMMNNBBMBCCCZZZCCDFFHJJKJHGDVCADSVNssar5o`````",
"`````7*o*;eNseepaaMMNNNBZZCCADDCCBBBZZADFGGCZAZZBMssrr*o`````",
"`````;**-5aCBssaappNNZVNVCVVBCCCDDDAAABBCDDCNZZZVBssr65*`````",
"`````-*-;5MCCBMssMVZVNZZDDHGFZBBCCCDDDCCBNNsaZZCBspp75*o`````",
"``````*;67BACCBBVZNNZZAAAADDHGDZBNNNCCDZCae6pBBNNpee6*o*`````",
"``````*;77CAZCCCNMZZZCCCCBBBVDDFDZBMMMZVNp;;pNMsp655*o *`````",
"``````*;77CAZZVNMBBBBBBBBBBBBBBZADDBpMsNVM66pMspe6;;*. ``````",
"``````*;6pZVBZVNMBZFFGHJHGFDZBBZADDDCppNVM66pMspe6;;*. ``````",
"``````;6pVBaaBNMZDGHDCBsBCDGJGDZBZZDZZppMNe6pape65**o .``````",
"``````;7ppaMMaBDHHDNMMappsMVCCADDZZNVVVp6ps7rre6;*oo  *``````",
"``````*7peaMMMSDCNMMBCCBBBMMMMMaMBBCCCBNp-7p;6;**o.. #3``````",
"``````*7eNNCCMCVNMCDHQQHDDDAZCBNaaaaMMBBss6#;6;*oo... o%`````",
"``````67BZBNNCAADGGQQHDVVMMMMBCCCBBappepMNs;#;6*o.  #   `````",
"````eMBZZBMppNBBBNCDGQQHGGZpepMBCCCCBBae5esp;.-*  $$o   `````",
"``eeepMBZFFZZZBMeeeeppNVVDGHSMp7MMMBCCBpe*ep7*.  $..    `````",
"`ee66epMBZFFFHJKKKHDZNsppaVVCDSC7ppsBBCBp6;77** o     %%`````",
"`--;;;;77eeMMCAJKKKHDZNsppspaVDSSCppsBCBp6;77** o      ``````",
"***;;;;7777eeMMMBCDHKJGFZBN6paNCVSCMpsBZNe-;;;oo     ````````",
"***;pMMCCNMMMMeeeepMZDHKKDZZB66pNVSSVpVACp6 **   $###````````"
};
