/* XPM */
static char *result[] = {
/* columns rows colors chars-per-pixel */
"7 7 6 1 ",
"  c #8F8FFF",
". c #ABABFF",
"X c #C7C7FF",
"o c #E7E7FF",
"O c white",
"+ c #00FF00",
/* pixels */
"++ . ++",
"+ XoX +",
" XoOoX ",
".oOOOo.",
" XoOoX ",
"+ XoX +",
"++ . ++"
};
