/* XPM */
static char *result[] = {
/* columns rows colors chars-per-pixel */
"39 41 10 1 ",
"  c #7373FF",
". c #FFFFB3",
"X c #8F8FFF",
"o c #ABABFF",
"O c #FFDBDB",
"+ c #FFFFD7",
"@ c #C7C7FF",
"# c #E7E7FF",
"$ c white",
"% c #00FF00",
/* pixels */
"%%%%%%%%%%%%% %%% %%%%%%%%%%%%%%%%%%%%%",
"%%%%%%%%%%%%%X ooo#%%%%%%%%%%%%%%%%%%%%",
"%%%%%%%%%%%%%ooX Xo# %%%%%%%%%%%%%%%%%%",
"%%%%%%%%%%%%%oX % o#o %%%%%%%%%%%%%%%%%",
"%%%%%%%%%  ooX%% Xo@#X XX%%%%%%%%%%%%%%",
"%%%%%%%%% %%%   XXX#oX X% %%%%%%%%%%%%%",
"%%%%%%%%%X%%  oXXXX+ooXX%X %%%%%%%%%%%%",
"%%%%%%%%%X%%X@@ooXX@+XXo%%o%%%%%%%%%%%%",
"%%%%%%%%%X@++$$#@ooX@++#oX%@%%%oo%%%%%%",
"o%%%%%%%X@#@XXX@$#@@#@@@+X%%@##X%%%%%%%",
"%@@#%%%XX+@XooXX@$##@oXX+oXo#@o%%%%%%%%",
"%%%@@XXX+@oooooo@@##oo#X#oo@+  %%%%%%%%",
"%%%%####@Xoo@@#@@###@@@o@+###X%%%%%%% %",
"%%%X#@XXooo@##@####$##@@@@@$+X%%%% ooX ",
"%%%##XXXoo@@#############@@$+o%%  @o%%%",
"%%%#@XXoo@@@##$+$##$$##$$o@$+#o%o@. %%%",
"%%X@#XX###o##$#####$#$##$#++oo#o@.o%%%%",
"%%XX@##@oo##$$$$#$#$$#####+#Xoo..o%%%%%",
"%%XXX#@oo@#$$$++$###$$$###$Xo@   %%%%%%",
"%%XXX##oo#$##++$+$#$$$$#$#$@oo %%%%%%%%",
"%%%%X#X#o#$#$$+$++$$#$++$@#oX %%%%%%%%%",
"%%%%X#oo###$$++$$+++#++##@#@X  %%%%%%%%",
"%%%%X##oo#$$$++$+$$$$$$####@XXX %%%%%%%",
"%%%%%X###$@$$$$++$$$$#$$#$##@@oX @@%%%%",
"%%%%%%%@$@o#++++###$##$$##$#...$@%%%%%%",
"%%%%%%%@$o#++$##$$###$$##@$@oXo@%%%%%%%",
"%%%%%%%@$o+###$###$$####@@#@  %%%%%%%%%",
"%%X%%%X@$o+@@###$$###$#@@$@oo %%%%%%%%%",
"%%%X%%%@XoOo@#######@@@@$#@oX%%%%%%%%%%",
"%%%%X%%@X@#Xo@###@@@@o@#$XXX %%%%%%%%%%",
"%%%% %%%%+XXXo@@##@@@oo#$X  %%%%%%%%%%%",
"%%%%% %%%OX%%%XX@##@oXX@#@ %%%%%%%%%%%%",
"%%%%% %%%@@%%%%%X@#oXXXXX# %%%%%%%%%%%%",
"%%%%%%  XX@%%%%%X@#XX  %%# %%%%%%%%%%%%",
"%%%%%%%%%% @X%%%XX#XXX%%% # %%%%%%%%%%%",
"%%%%%%%%%% @XX%XXX#X %%%%% # %%%%%%%%%%",
"%%%%%%%%%%o   %%  @# %%%%%%@ %%%%%%%%%%",
"%%%%%%%%%o %% %%%  @# %%%%%%%%%%%%%%%%%",
"%%%%% %%X%%%%  %%   @%%%%%%%%%%%%%%%%%%",
"%%%%%%XX%%%%%%   %%% @%%%%%%%%%%%%%%%%%",
"%%%%%%%%%%%%%%% %%%%%@%%%%%%%%%%%%%%%%%"
};
