/* XPM */
static char *result[] = {
/* columns rows colors chars-per-pixel */
"29 29 9 1 ",
"  c #7373FF",
". c #FFFFB3",
"X c #8F8FFF",
"o c #ABABFF",
"O c #FFFFD7",
"+ c #C7C7FF",
"@ c #E7E7FF",
"# c white",
"$ c #00FF00",
/* pixels */
"$$$$$$$$$$$ o $$+o$$$$$X$$$$$",
"$$$$$$$$$$ $$o +$ o$$$X$ $$$$",
"$$$$$$$$$$$  o +$$X$ oX$$$$$$",
"$$$$$$$ @$$$  +XX$XX $$$$$$$$",
"$$$$$$$$++  XX@XX$$$$$$$$$$$$",
"$$$$$$$$$@$  X+@X$$$+$X $$$$$",
"$$$$$$$$$+@XXoo@@X$$X+ $ $$$$",
"$$$$$$XXXo@+o+o@X+oXX@$$$ $$$",
"$$$$$$ XXX#@++@@+@+o#+ $$$$$$",
"$$$$$$Xoo+@@#+@@@@@+.o+ $$$$$",
"$$$$$$oXo@+@@@@@@@@+#o@ $$$$$",
"$$$$$@XX+++@@@@##@#@@o. $$$$$",
"$$$X X#X@@@@@####O##@@o+  $$$",
"$$$$$ XX#@@#OOOOOO##@@oX+ $$$",
"$$$$$$ X#+@OO@#O#O##@@@o@X $$",
"$$$$$$oo+@#OO#@OOO#@#@o$.X $$",
"$$$   +oX@@OOO@@####@+oX.X $$",
"$$$@+ooo#@#@#@@@@@#@o@@@+X $$",
"$  +o+++.o#@@#@@##@@@+oXoX $$",
"$$    o@.++@@@@@@@@++oooX $$$",
" $$$$ X..+++++@@+@++oX+@+o$$$",
"$$$$$$ .XX@@oo@o+oooo+@oX+$$$",
"$$$$$$@ XX+Xo+@o+Xoo+..$$$X+$",
"$$$$oo$$ XX+@@+X@++..@$$$$$$o",
"$$$$$$$$$$$XX.oXo@.+$+$$$$$$$",
"$$$$$$$$$ $ $.oXXo@+$o$$$$$$$",
"$$$$$$$$$$   ooX ++@o $$$$$$$",
"$$$$$$$$$$$$  ++o$$$$$$$$$$$$",
"$$$$$$$$$$$$$ +$$$$$$$$$$$$$$"
};
