/* XPM */
static char *result[] = {
/* columns rows colors chars-per-pixel */
"37 35 9 1 ",
"  c #7373FF",
". c #FFFFB3",
"X c #8F8FFF",
"o c #ABABFF",
"O c #FFFFD7",
"+ c #C7C7FF",
"@ c #E7E7FF",
"# c white",
"$ c #00FF00",
/* pixels */
"$$$$$$$$$$$$$$$$   $$$$$$$$$o$$$$$$$$",
"$$$$$$$$$$$$$$$ +X $$$$$$$$+$$$$$$$$$",
"$$$$$$$$$$$$$$$$$ ++XX$$$$$O$$$$$$$$$",
"$$$$$$$$$$$$$$$$$$$XO@@@+$+@$$$  $$$$",
"$$$$$$$$$ X$$$$$XXX+@+++@@+$$$$ $$$$$",
"$$ $$$$  X$$$$$X@@OO+XXX+OX$$$$$$ $$$",
"$X$$$$  $$$X$$$@XoX@O+XXXOX$$$$$$ $$$",
"$XX$$$ $$$@Xooo@oo@oo@oXX@XX$$$$$$$$$",
"$$$$$$X+OO@ooo@@@@@@o@+oo+OOOXX  $$$$",
"$$$o  ++X@OO#oo@@@##@@++oooX+@$$ $$$$",
"$$$ ++$$$X@@OO@###@@@@+++ooXXO$$o$$$$",
"$$$ XX$$$X@@+@#####@#@@@@+ooXO $o$$$$",
"$$  X$$$$o@@@#@#OO####@@@+ooXO  XooX ",
"$  $$$$$X@@@@@#####O#@#@@@oXX@+ oXo $",
"  $$X$$$X..@@@#OOO###@#@@+oXX+@+o Xo$",
"$ $ XXXX@X+@@#@#OOO##@#@@@@XXX+O o o$",
"$$ @OO.@@o@.@@@#O##@@###@#@@+X+Oooo@$",
"$$ @XXXo+@o@@@##OOOO###@#@@#@+O@+@@$$",
"$ .  XXXo++o@@@##@@##@#@@+o+OOoo@o $$",
"++$    XXoo#@.@@##OO@#@@@+oo+Xo oo$$$",
"$ $$$  XXo+@@@#@####@@@@++@X+ooo $$$$",
"$$ $$$$+##@@o+#@@@#@@@#@+oXX+XXoo$$$$",
"$$ $$$$.@##@++@@@@##@##@++@@@o   $$$$",
"$$$$ @  +++@@@@@@@@###+++@+Xo   $$$$$",
"$$$+@ $ $XXo+@@@##o+@#OO#@+X$ $$$$$$$",
"$$$$ $$ $$XoX+@XXXXoXoO@OOO+o $$$$$$$",
"$$$$$$$$$$ Xo+@+X  XooO@XX+@o$$$$$$$$",
"$$$$$$$$$$$$+@.+X $XoOo$@@@@o$$$$$$$$",
"$$$$$$$$$$$$+@.X $$X@o$$+ $+@$$$$$$$$",
"$$$$$$$$$$$$$++ $$$XO+o++$$$$$$$$$$$$",
"$$$$$$$$$$$$$$$X$$$$+@++$$$$$$$$$$$$$",
"$$$$$$$$$$$$$$$$$$$$$X++o$$$$$$$$$$$$",
"$$$$$$$$$$$$$$$$$$$$$$ Xo$$$$$$$$$$$$",
"$$$$$$$$$$$$$$$$$$$$$$$$X $$$$$$$$$$$",
"$$$$$$$$$$$$$$$$$$$$$$$$ $$$$$$$$$$$$"
};
