/* XPM */
static char *result[] = {
/* columns rows colors chars-per-pixel */
"83 75 101 2 ",
"   c black",
".  c #070707",
"X  c #0B0B0B",
"o  c #170F07",
"O  c #1F170B",
"+  c #131313",
"@  c #1B1B1B",
"#  c #13230B",
"$  c #2B230F",
"%  c #332B13",
"&  c #3F2F17",
"*  c #3F2B1B",
"=  c #000023",
"-  c #232323",
";  c #272727",
":  c #2F2F2F",
">  c #373F27",
",  c #373737",
"<  c gray23",
"1  c #43331B",
"2  c #533F1F",
"3  c #4F3B23",
"4  c #533F2F",
"5  c #3F472B",
"6  c #5F4323",
"7  c #5B472B",
"8  c #474F33",
"9  c #574333",
"0  c #5F4B37",
"q  c #53573B",
"w  c #675333",
"e  c #67533F",
"r  c #775F3F",
"t  c #00006B",
"y  c #434343",
"u  c gray28",
"i  c #4B4B4B",
"p  c gray31",
"a  c gray34",
"s  c #5B5B5B",
"d  c #6F5743",
"f  c #775F4B",
"g  c #5B6347",
"h  c #676B4F",
"j  c #7B634F",
"k  c #6F7357",
"l  c gray39",
"z  c gray42",
"x  c #6F6F6F",
"c  c #7B7F63",
"v  c #777777",
"b  c gray50",
"n  c #836B4B",
"m  c #836B57",
"M  c #8F7753",
"N  c #8B735B",
"B  c #937B63",
"V  c #9B7F6B",
"C  c #9F8363",
"Z  c #9F876F",
"A  c #A78F77",
"S  c #AF977F",
"D  c #000083",
"F  c #00009B",
"G  c #0000B3",
"H  c #0000CB",
"J  c #0000E3",
"K  c blue",
"L  c #1B1BFF",
"P  c #3737FF",
"I  c #5353FF",
"U  c #7373FF",
"Y  c #838383",
"T  c #8B8B8B",
"R  c #939393",
"E  c #979797",
"W  c #9F9F9F",
"Q  c #B79F87",
"!  c #BFA78F",
"~  c #A7A7A7",
"^  c gray67",
"/  c gray70",
"(  c #B7B7B7",
")  c gray75",
"_  c #FFCFB3",
"`  c #FFD7BB",
"'  c #8F8FFF",
"]  c #ABABFF",
"[  c gray78",
"{  c #CBCBCB",
"}  c LightGray",
"|  c gray86",
" . c #DFDFDF",
".. c #FFDBDB",
"X. c #FFFFD7",
"o. c #C7C7FF",
"O. c #E7E7E7",
"+. c #EFEFEF",
"@. c #E7E7FF",
"#. c white",
"$. c #00FF00",
/* pixels */
"$.$.$.$.$.$.$.$.$.$.$.$.$.$.$.$.$.$.$.$.$.$.$.$.$.$.$.$.$.$.$.$.$.$.$.$.$.$.$.$.$.$.$.$.$.$.$.$.$.$.$.$.' ' ' $.$.$.$.$.$.$.$.$.$.$.$.$.$.$.$.$.$.$.$.$.$.$.$.$.$.$.$.",
"$.$.$.$.$.$.$.$.$.$.$.$.$.$.$.$.$.$.$.$.$.$.$.$.$.$.$.$.$.$.$.$.$.$.' ' $.$.$.$.$.$.$.$.' ' $.$.$.$.$.o.$.$.$.' $.$.$.$.$.$.$.$.$.$.$.$.$.$.$.$.$.$.$.$.$.$.$.$.$.$.$.",
"$.$.$.$.$.$.$.$.$.$.$.$.$.$.$.$.$.$.$.$.$.$.$.$.$.$.$.$.$.$.$.$.$.' $.$.' ' $.$.$.$.$.' ] o.@.@.' $.o.@.$.$.$.' $.$.$.$.$.$.$.$.$.$.$.$.$.$.$.$.$.$.$.$.$.$.$.$.$.$.$.",
"$.$.$.$.$.$.$.$.$.$.$.$.$.$.$.$.$.$.$.$.$.$.$.$.$.$.$.' ' $.$.U ' $.$.$.$.$.' ' ' ' ] ] o.@.o.o.@.@.o.$.$.$.$.$.' $.$.$.$.$.$.$.$.$.$.$.$.$.$.$.$.$.$.$.$.$.$.$.$.$.$.",
"$.$.$.$.$.$.$.$.$.$.$.$.$.$.$.$.$.$.$.$.$.$.$.U ' ' ' $.$.U U $.$.$.$.$.$.$.' @.@.@.@.@.@.] ' ' o.@.' $.$.$.$.$.' $.$.$.$.$.$.$.$.$.$.$.$.$.$.$.$.$.$.$.$.$.$.$.$.$.$.",
"$.$.$.$.$.$.$.$.$.$.$.$.$.$.$.$.$.$.$.$.$.$.' $.$.$.$.$.U $.$.$.$.$.$.$.$.$.@.o.] o.@.o.@.] ' ' ] @.' $.$.$.$.$.' $.$.$.$.$.$.$.$.$.$.$.$.$.$.$.$.$.$.$.$.$.$.$.$.$.$.",
"$.$.$.$.$.$.$.$.$.$.$.$.$.$.$.$.$.$.$.$.$.$.' $.$.$.$.$.U $.$.$.$.$.o.o.o.o.@.] ] @.] ] o.o.] ' ] @.] ' $.$.$.$.' $.$.$.$.$.$.$.$.$.$.$.$.$.$.$.$.$.$.$.$.$.$.$.$.$.$.",
"$.$.$.$.$.$.$.$.$.$.$.$.$.$.$.$.$.$.$.$.$.$.$.' $.$.$.$.' $.$.$.' o.@.@.#.#.@.] @.] ] ] ] @.] ] ] o.X.] ' $.$.$.' $.$.$.$.$.$.$.$.$.$.$.$.$.$.$.$.$.$.$.$.$.$.$.$.$.$.",
"$.$.$.$.$.$.$.$.$.$.$.$.$.$.$.$.$.$.$.$.$.$.$.$.] $.$.$.' o...X.o.@.o.] ] o.#.@.@.@.@.o.] o.o.] ] o.o.X.o.' ' ' U U $.$.$.$.$.$.$.$.$.$.$.$.$.$.$.$.$.$.$.$.$.$.$.$.$.",
"$.$.$.$.$.$.$.$.$.$.$.$.$.$.$.$.$.$.$.$.$.$.$.$.U ] U U o.o.' o.@...X.X.@.] o.#.@.#.#.@.@.o.o.o.] ] ] o.@.o.$.$.$.U $.$.$.$.$.$.$.$.$.$.$.$.$.$.$.$.$.$.$.$.$.$.$.$.$.",
"$.$.$.$.$.$.$.$.$.$.$.$.$.$.$.$.$.$.$.$.$.$.$.$.$.U o.o.$.$.$.o.o.] o.@.X.@.#.#.#.@.@.#.@.@.o.o.o.] ] o.o.X.$.$.$.] $.$.$.$.$.$.$.$.$.$.$.$.$.$.$.$.$.$.$.$.$.$.$.$.$.",
"$.$.$.$.$.$.$.$.$.$.$.$.$.$.$.$.$.$.$.$.$.$.$.$.$.U ' ' $.$.$.' ] o.o.@.X.X.#.#.#.#.@.#.#.@.@.@.@.o.o.o.o.X.' U $.] $.$.$.$.$.$.$.$.$.$.$.$.$.$.$.$.$.$.$.$.$.$.$.$.$.",
"$.$.$.$.$.$.$.$.$.$.$.$.$.$.$.$.$.$.$.$.$.$.$.U U U ' ' $.$.$.] o.@.@.@.#.X.#.X.X.#.X.#.#.#.@.@.@.@.@.@.@.#.] U U ' o.] ' U $.$.$.$.$.$.$.$.$.$.$.$.$.$.$.$.$.$.$.$.$.",
"$.$.$.$.$.$.$.$.$.$.$.$.$.$.$.$.$.$.$.$.$.$.U U ' $.$.' $.$.' R ~ E T E W T T T T T Y T T T W E T Y T b @.#.o.] U $.' o.$.$.U $.$.$.$.$.$.$.$.$.$.$.$.$.$.$.$.$.$.$.$.",
"$.$.$.$.$.$.$.$.$.$.$.$.$.$.$.$.$.$.$.$.$.U U $.$.' ' $.$., ; ; : : t D H J J K K K K K K J H D t : : ; p l Y ] U $.U ' ] $.U $.$.$.$.$.$.$.$.$.$.$.$.$.$.$.$.$.$.$.$.",
"$.$.$.$.$.$.$.$.$.$.$.$.$.$.$.$.$.$.$.$.$.$.U $.y ; - - : % ; % % % - t F F F F F F F F F F F t - % % % ; % : - - ; p U ] $.U $.$.$.$.$.$.$.$.$.$.$.$.$.$.$.$.$.$.$.$.",
"$.$.$.$.$.$.$.$.$.$.$.$.$.$.$.$.$.$.$.$.$.$., : % : + @ t t t P I I U ' H % + O - : - O + % H ' U I I P t t t @ + : % : i P I $.$.$.$.$.$.$.$.$.$.$.$.$.$.$.$.$.$.$.$.",
"$.$.$.$.$.$.$.$.$.$.$.$.$.$.$.$.$.$.$.$.$.X + +   # : < u y , : : : : > p % + O - : - O + % p > : : : : , y u < : #   + + X P $.$.$.$.$.$.$.$.$.$.$.$.$.$.$.$.$.$.$.$.",
"$.$.$.$.$.$.$.$.$.$.$.$.$.$.$.$.$.$.$.-     @ : y y O o t t L P I I U ' H - + + - % - + + - H ' U I I P L t t o O y y : @     - $.$.$.$.$.$.$.$.$.$.$.$.$.$.$.$.$.$.$.",
"$.$.$.$.$.$.$.$.$.$.$.$.$.$.$.$.$.$.+   + : y +   + , q p p a p p p p u , : + O ; : ; O + : , u p p p p a p p q , +   + y : +   + $.$.$.$.$.$.$.$.$.$.$.$.$.$.$.$.$.$.",
"$.$.$.$.$.$.$.$.$.$.$.$.$.$.$.$.$.o . % - @ + % 5 : - + t G L P I I U ' H O - - - - - - - O H ' U I I P L G t + - : 5 % + @ - % . o $.$.$.$.$.$.$.$.$.$.$.$.$.$.$.$.$.",
"$.$.$.$.$.$.$.$.$.$.$.$.$.$.$.$.. + - + O : : @   + - % u p g l l a u < y - ; ; ; ; ; ; ; - y < u a l l g p u % - +   @ : : O + - + . $.$.$.$.$.$.$.$.$.$.$.$.$.$.$.$.",
"$.$.$.$.$.$.$.$.$.$.$.$.$.$.$.+   O + - :   + - , 5 , t F G L P I I U ' H ; : : : : : : : ; H ' U I I P L G F t , 5 , - +   : - + O   + $.$.$.$.$.$.$.$.$.$.$.$.$.$.$.",
"$.$.$.$.$.$.$.$.$.$.$.$.$.$.$.  + + - + + + : , -   o + O ; ; : : : : : : : , , , , , , , : : : : : : : ; ; O + o   - , : + + + - + +   $.$.$.$.$.$.$.$.$.$.$.$.$.$.$.",
"$.$.$.$.$.$.$.$.$.$.$.$.$.$.@   O # + - - + . + - O : y p s z z l l l l s s a a a a a a a s s l l l l z z s p y : O - + . + - - + # O   @ $.$.$.$.$.$.$.$.$.$.$.$.$.$.",
"$.$.$.$.$.$.$.$.$.$.$.$.$.$.  O o + - o + O - - % + .                                                           . + % - - O + o - + o O   $.$.$.$.$.$.$.$.$.$.$.$.$.$.",
"$.$.$.$.$.$.$.$.$.$.$.$.$.$.    O O + - + + +         X X X . X X X X . o . o   + @ +   o . o . X X X X . X X X         + + + - + O O     $.$.$.$.$.$.$.$.$.$.$.$.$.$.",
"$.$.$.$.$.$.$.$.$.$.$.$.$.+ . O O - @     + + + @ @ O O + O + @ @ - - ; - ; : : , , , : : ; - ; - - @ @ + O + O O @ @ + + +     @ - O O . + $.$.$.$.$.$.$.$.$.$.$.$.$.",
"$.$.$.$.$.$.$.$.$.$.$.$.$.  o % ; .     # - - @ @ @ @ @ @ @ - - - - ; : , , < < y u y < < , , : ; - - - - @ @ @ @ @ @ @ - - #     . ; % o   $.$.$.$.$.$.$.$.$.$.$.$.$.",
"$.$.$.$.$.$.$.$.$.$.$.$.$.  % +     o   ; , 1 ; - - ; : : : , , , , < < y y y u p p p u y y y < < , , , , : : : ; - - ; 1 , ;   o     + %   $.$.$.$.$.$.$.$.$.$.$.$.$.",
"$.$.$.$.$.$.$.$.$.$.$.$.$.O +     - O +     + +   ; y , : - - - : ; : < y u p p p p p p p u y < : ; : - - - : , y ;   + +     + O -     + O $.$.$.$.$.$.$.$.$.$.$.$.$.",
"$.$.$.$.$.$.$.$.$.$.$.$.$.+   . . ; +   ; 7 w r n M M V Z Z Z A A A A S S S ! ! / / / ! ! S S S A A A A Z Z Z V M M n r w 7 ;   + ; . .   + $.$.$.$.$.$.$.$.$.$.$.$.$.",
"$.$.$.$.$.$.$.$.$.$.$.$.$.+ . . . . + < j f d d 0 0 0 e e d d d f f j j j m B B V V V B B m j j j f f d d d e e 0 0 0 d d f j < + . . . . + $.$.$.$.$.$.$.$.$.$.$.$.$.",
"$.$.$.$.$.$.$.$.$.$.$.$.$.. . . . $ e 3 0 j m m m N N B B B V V Z Z Z A A A Q Q Q Q Q Q Q A A A Z Z Z V V B B B N N m m m j 0 3 e $ . . . . $.$.$.$.$.$.$.$.$.$.$.$.$.",
"$.$.$.$.$.$.$.$.$.$.$.$.$.. . +   @ 3 g j V N B B B V V V V Z Z Z A A A S S Q ! ! ! ! ! Q S S A A A Z Z Z V V V V B B B N V j g 3 @   + . . $.$.$.$.$.$.$.$.$.$.$.$.$.",
"$.$.$.$.$.$.$.$.$.$.$.$.$.. . + + 3 f e d d e 0 e 0 e e d d d f f j j j m m m m B B B m m m m j j j f f d d d e e 0 e 0 e d d e f 3 + + . . $.$.$.$.$.$.$.$.$.$.$.$.$.",
"$.$.$.$.$.$.$.$.$.$.$.$.$.. . + + e 0 3 e e f f j m m N N N B B B V V Z Z Z S S Q Q Q S S Z Z Z V V B B B N N N m m j f f e e 3 0 e + + . . $.$.$.$.$.$.$.$.$.$.$.$.$.",
"$.$.$.$.$.$.$.$.$.$.$.$.$.. . + + 1 8 m B V Z Z A A Z Z A A A S S S S Q Q Q / / ( ( ( / / Q Q Q S S S S A A A Z Z A A Z Z V B m 8 1 + + . . $.$.$.$.$.$.$.$.$.$.$.$.$.",
"$.$.$.$.$.$.$.$.$.$.$.$.$.. . + + 9 d d j N j m N N N B B B V V V Z Z Z Z A S Q Q Q Q Q S A Z Z Z Z V V V B B B N N N m j N j d d 9 + + . . $.$.$.$.$.$.$.$.$.$.$.$.$.",
"$.$.$.$.$.$.$.$.$.$.$.$.$.. + $ e 9 1 % > 3 5 9 5 9 8 9 0 q e e g d d h g f m k m m m k m f g h d d g e e q 0 9 8 9 5 9 5 3 > % 1 9 e $ + . $.$.$.$.$.$.$.$.$.$.$.$.$.",
"$.$.$.$.$.$.$.$.$.$.$.$.$.. + % 9 3 0 f j j m m m m N N B B B V V Z Z Z A A Q Q Q Q Q Q Q A A Z Z Z V V B B B N N m m m m j j f 0 3 9 % + . $.$.$.$.$.$.$.$.$.$.$.$.$.",
"$.$.$.$.$.$.$.$.$.$.$.$.$.. + % 5 d B V V V V V V V Z Z Z A A A S S S S Q Q ! ^ / / / ^ ! Q Q S S S S A A A Z Z Z V V V V V V V B d 5 % + . $.$.$.$.$.$.$.$.$.$.$.$.$.",
"$.$.$.$.$.$.$.$.$.$.$.$.$.. + 1 9 d j j j j m N N N B B B V V V Z Z Z Z A A S Q Q Q Q Q S A A Z Z Z Z V V V B B B N N N m j j j j d 9 1 + . $.$.$.$.$.$.$.$.$.$.$.$.$.",
"$.$.$.$.$.$.$.$.$.$.$.$.$.. + 4 1 1 3 5 3 3 5 9 9 9 8 9 0 q e e g d d h g f m k m m m k m f g h d d g e e q 0 9 8 9 9 9 5 3 3 5 3 1 1 4 + . $.$.$.$.$.$.$.$.$.$.$.$.$.",
"$.$.$.$.$.$.$.$.$.$.$.$.$.. @ 1 3 e f j j m m m m B B B V V V V Z Z Z A A A S S Q Q Q S S A A A Z Z Z V V V V B B B m m m m j j f e 3 1 @ . $.$.$.$.$.$.$.$.$.$.$.$.$.",
"$.$.$.$.$.$.$.$.$.$.$.$.$.$.% 9 m V V V V V V Z Z Z A A A S S S S Q Q Q ! ! / / ( ( ( / / ! ! Q Q Q S S S S A A A Z Z Z V V V V V V m 9 % $.$.$.$.$.$.$.$.$.$.$.$.$.$.",
"$.$.$.$.$.$.$.$.$.$.$.$.$.$.9 j g j j j j m N N m B B B B B V V V V V Z Z A S Q Q Q Q Q S A Z Z V V V V V B B B B B m N N m j j j j g j 9 $.$.$.$.$.$.$.$.$.$.$.$.$.$.",
"$.$.$.$.$.$.$.$.$.$.$.$.$.% 4 3 0 e 5 3 3 5 4 4 5 9 9 8 0 0 q g g g g h g g k k m m m k k g g h g g g g q 0 0 8 9 9 5 4 4 5 3 3 5 e 0 3 4 % $.$.$.$.$.$.$.$.$.$.$.$.$.",
"$.$.$.$.$.$.$.$.$.$.$.$.$.@ % 4 0 d f j j m m m m N N B B B V V V Z Z Z A A S S Q Q Q S S A A Z Z Z V V V B B B N N m m m m j j f d 0 4 % @ $.$.$.$.$.$.$.$.$.$.$.$.$.",
"$.$.$.$.$.$.$.$.$.$.$.$.$.- 4 d N N B B B B V V V V V Z A Z A S S S S Q Q Q ! ! ! ! ! ! ! Q Q Q S S S S A Z A Z V V V V V B B B B N N d 4 - $.$.$.$.$.$.$.$.$.$.$.$.$.",
"$.$.$.$.$.$.$.$.$.$.$.$.1 0 g j m m j j m N N N B B B V V V Z Z Z Z A A A S S Q Q Q Q Q S S A A A Z Z Z Z V V V B B B N N N m j j m m j g 0 1 $.$.$.$.$.$.$.$.$.$.$.$.",
"$.$.$.$.$.$.$.$.$.$.$.$.1 4 1 1 1 5 3 3 5 9 9 9 8 9 0 q e e g d d h g f k k m k m m m k m k k f g h d d g e e q 0 9 8 9 9 9 5 3 3 5 1 1 1 4 1 $.$.$.$.$.$.$.$.$.$.$.$.",
"$.$.$.$.$.$.$.$.$.$.$.$.+ $ 1 9 e f j j m m N N B B B V V V Z Z A A A S S S Q Q Q Q Q Q Q S S S A A A Z Z V V V B B B N N m m j j f e 9 1 $ + $.$.$.$.$.$.$.$.$.$.$.$.",
"$.$.$.$.$.$.$.$.$.$.$.$.$ 4 0 d j m B Z Z A A A S S S Q Q Q ! ! ! ! ! ! ! ! ! ! ! ! ! ! ! ! ! ! ! ! ! ! ! Q Q Q S S S A A A Z Z B m j d 0 4 $ $.$.$.$.$.$.$.$.$.$.$.$.",
"$.$.$.$.$.$.$.$.$.$.$.$ 3 0 d j m B V V Z Z Z A A A S S S S S S S S S S S B e 9 9 9 9 9 e B S S S S S S S S S S S A A A Z Z Z V V B m j d 0 3 $ $.$.$.$.$.$.$.$.$.$.$.",
"$.$.$.$.$.$.$.$.$.$.1 9 9 9 g g j g e g d d f j j j j m m N N N N N N N f e 9 % c h c % 9 e f N N N N N N N m m j j j j f d d g e g j g g 9 9 9 1 $.$.$.$.$.$.$.$.$.$.",
"$.$.$.$.$.$.$.$.$.$.1 > 1 $ % 1 5 3 3 5 9 9 9 8 9 9 9 9 9 9 9 9 9 9 9 9 9 9 9 % k g k % 9 9 9 9 9 9 9 9 9 9 9 9 9 9 9 8 9 9 9 5 3 3 5 1 % $ 1 > 1 $.$.$.$.$.$.$.$.$.$.",
"$.$.$.$.$.$.$.$.$.O @ & 5 e d j m m m 7 ; $ ; % O % O O % % % 5 % O k c k c r % h q h % m c k c g O % 5 % % % O O % O % ; $ ; 7 m m m j d e 5 & @ O $.$.$.$.$.$.$.$.$.",
"$.$.$.$.$.$.$.$.$.X $ 8 e r N B Z Z 7 o 5 g h c 5 O q % - % % 5 O O h m g h e 1 g q g 1 f h g m g O O 5 % % - % q O 5 c h g 5 o 7 Z Z B N r e 8 $ X $.$.$.$.$.$.$.$.$.",
"$.$.$.$.$.$.$.$.$.O > q j N N m S 7 *   h c Z c   5 E % O ; % 5 O % k g q k g % g 5 g % g k q g k % O 5 % ; O % E 5   c Z c h   * 7 S m N N j q > O $.$.$.$.$.$.$.$.$.",
"$.$.$.$.$.$.$.v ~ $ > 3 9 e 0 9 9 1       .       m g o $ $ % 5 O % g g q k h % q 1 q % h k q g g % O 5 % $ $ o g m       .       1 9 9 0 e 9 3 > $ ~ v $.$.$.$.$.$.$.",
"$.$.$.$.$.$.^ E 4 % > 1 @ @ ; ; % % +   O O + o ; 5 % - ; $ > 1 o > h q 8 k h > q > q > h k 8 q h > o 1 > $ ; - % 5 ; o + O O   + % % ; ; @ @ 1 > % 4 E ^ $.$.$.$.$.$.",
"$.$.$.$.$.$.T ( 5 $ O > q 9 e e f j - % 5 > % % - O % ; O $ 5 5 o % q 8 8 k q % g 5 g % q k 8 8 q % o 5 5 $ O ; % O - % % > 5 % - j f e e 9 q > O $ 5 ( T $.$.$.$.$.$.",
"$.$.$.$.$.$.b ^ 3 X % g m j f 9 5 f k f g q k k % O % O O O c c   5 Z c c c h 8 S Z S 8 h c c c Z 5   c c O O O % O % k k q g f k f 5 9 f j m g % X 3 ^ b $.$.$.$.$.$.",
"$.$.$.$.$.$.R v o % q m j f 9   E [ ) ) ( S ) ( O + ; O O 5 g q O > q g k k O 8 | O.| 8 O k k g q > O q g 5 O O ; + O ( ) S ( ) ) [ E   9 f j m q % o v R $.$.$.$.$.$.",
"$.$.$.$.$.R ( + % 1 > 9 0 e 9 o r Z r B d w Q f   O O o O g c h h Y c c Z Q O q } | } q O Q Z c c Y h h c g O o O O   f Q w d B r Z r o 9 e 0 9 > 1 % + ( R $.$.$.$.$.",
"$.$.$.$.R R u + % % % - @ $ o O > 1 & 2 & 2 w o o $ o   5 S k % S ) ( { } | Y g } R } g Y | } { ( ) S % k S 5   o $ o o w 2 & 2 & 1 > O o $ @ - % % % + u R R $.$.$.$.",
"$.$.$.R W u = + % + 1 5 5 5 , 1 1 1 1 1 1 8 1   O O   . B ) % % C C C h w f 8 % } c } % 8 f w h C C C % % ) B .   O O   1 8 1 1 1 1 1 1 , 5 5 5 1 + % + = u W R $.$.$.",
"$.$.Y ^ p   X + - : y l l T W i X # # 5 q e % O % o   5 S { g 1 k k k r w r . % ` ( ` % . r w r k k k 1 g { S 5   o % O % e q 5 # # X i W T l l y : - + X   p ^ Y $.$.",
"$.v ) l . + + - / | | | ( O.O.v + : + 1 1 % u k ;   O k S ) ! ) ) ) ) ) ) ) O - } ) } - O ) ) ) ) ) ) ) ! ) S k O   ; k u % 1 1 + : + v O.O.( | | | / - + + . l ) v $.",
"i y a E a + l l +./ E / ^ (  .< : [ / ; O , f u     8 n C r n ! ) ! / { } | k 8 { { { 8 k | } { / ! ) ! n r C n 8     u f , O ; / [ : <  .( ^ / E / +.l < + a E a y i ",
"i + - l E x s l +./ ~ { ^ { } + i b /     5 c O   O k C M o 8 A A C g n C Z S k ) { ) k S Z C n g C A A 8 o M C k O   O c 5     / b i + } { ^ { ~ / +.l u x E l - + i ",
"s ; , : l ~ l v +.O.| |  . .O.  W a y     + , .   4 n B C & % w w w 6 6 6 & $ n _ { _ n $ & 6 6 6 w w w % & C B n 4   . , +     y a W   O. . .| | O.+.v l ~ l : , ; s ",
"l + , , + l s @ u , = = X - l   g ; -       o   o g c c S ! S S S S A Z S f   f } [ } f   f S Z A S S S S ! S c c g o   o       - ; g   l - X = = , u @ s l + , , + l ",
"b + , , a p < - ; ; ; ; @ ; ; X @   i       o   O f B c M ! ! ( ) ) / { } | o 5 ) ( ) 5 o | } { / ) ) ( ! ! M c B f O   o       i   @ X ; ; @ ; ; ; ; - < p a , , + b "
};
