/* XPM */
static char *result[] = {
/* columns rows colors chars-per-pixel */
"83 61 85 1 ",
"  c black",
". c #070707",
"X c #0B0B0B",
"o c #170F07",
"O c #1F170B",
"+ c #131313",
"@ c #1B1B1B",
"# c #13230B",
"$ c #2B230F",
"% c #332B13",
"& c #3F2F17",
"* c #3F2B1B",
"= c #000023",
"- c #232323",
"; c #272727",
": c #2F2F2F",
"> c #373F27",
", c #373737",
"< c gray23",
"1 c #43331B",
"2 c #533F1F",
"3 c #473323",
"4 c #4F3B23",
"5 c #4F3B2B",
"6 c #533F2F",
"7 c #3F472B",
"8 c #5F4323",
"9 c #5B472B",
"0 c #474F33",
"q c #574333",
"w c #5F4B37",
"e c #53573B",
"r c #675333",
"t c #67533F",
"y c #775F3F",
"u c #434343",
"i c gray28",
"p c #4B4B4B",
"a c gray31",
"s c gray34",
"d c #5B5B5B",
"f c #6F5743",
"g c #775F4B",
"h c #5B6347",
"j c #676B4F",
"k c #7B634F",
"l c #6F7357",
"z c gray39",
"x c gray42",
"c c #6F6F6F",
"v c #7B7F63",
"b c #777777",
"n c gray50",
"m c #836B4B",
"M c #836B57",
"N c #8F7753",
"B c #8B735B",
"V c #937B63",
"C c #9B7F6B",
"Z c #9F8363",
"A c #9F876F",
"S c #A78F77",
"D c #AF977F",
"F c #838383",
"G c #8B8B8B",
"H c #939393",
"J c #979797",
"K c #9F9F9F",
"L c #B79F87",
"P c #BFA78F",
"I c #A7A7A7",
"U c gray67",
"Y c gray70",
"T c #B7B7B7",
"R c gray75",
"E c #FFCFB3",
"W c #FFD7BB",
"Q c gray78",
"! c #CBCBCB",
"~ c LightGray",
"^ c gray86",
"/ c #DFDFDF",
"( c #E7E7E7",
") c #EFEFEF",
"_ c #00FF00",
/* pixels */
"_____________________________,;;:::,i%-------%i,:::;;,_____________________________",
"________________________u;--:%;%%%-:u%++-:-++%u:-%%%;%:--;u________________________",
"______________________,:%:+@ooooooooo%+O-:-O+%ooooooooo@+:%:,______________________",
"_____________________X++ #:<iu,::::>a%+O-:-O+%a>::::,ui<:# ++X_____________________",
"___________________-  @:uuOoooooooooo-++-%-++-ooooooooooOuu:@  -___________________",
"__________________+ +:u+ +,eaasaaaai,:+O;:;O+:,iaaaasaae,+ +u:+ +__________________",
"_________________o.%-@+%7:-+oooooooooO-------Oooooooooo+-:7%+@-%.o_________________",
"________________.+-+O::@ +-%iahzzsi<u-;;;;;;;-u<iszzhai%-+ @::O+-+.________________",
"_______________+ O+-: +-,7,oooooooooo;:::::::;oooooooooo,7,-+ :-+O +_______________",
"_______________ ++-+++:,- o+O;;:::::::,,,,,,,:::::::;;O+o -,:+++-++ _______________",
"______________@ O#+--+.+-O:uadxxzzzzddsssssssddzzzzxxdau:O-+.+--+#O @______________",
"______________ Oo+-o+O--%+.                             .+%--O+o-+oO ______________",
"______________  OO+-+++    XXX.XXXX.o.o +@+ o.o.XXXX.XXX    +++-+OO  ______________",
"_____________+.OO-@  +++@@OO+O+@@--;-;::,,,::;-;--@@+O+OO@@+++  @-OO.+_____________",
"_____________ o%;.  #--@@@@@@@----;:,,<<uiu<<,,:;----@@@@@@@--#  .;%o _____________",
"_____________ %+  o ;,1;--;:::,,,,<<uuuiaaaiuuu<<,,,,:::;--;1,; o  +% _____________",
"_____________O+  -O+  ++ ;u,:---:;:<uiaaaaaaaiu<:;:---:,u; ++  +O-  +O_____________",
"_____________+ ..;+ ;1wtffffffffffffgkMMBBBMMkgfffffffffffftw1; +;.. +_____________",
"_____________+....+16655556666qqwtffffffffffffffftwqq66665555661+....+_____________",
"_____________....$&*6tfffffkkkMMMMMBBBVVVVVVVBBBMMMMMkkkffffft6*&$...._____________",
"_____________..+ @46tggkkkMMMMMMMBBBBBVCCCCCVBBBBBMMMMMMMkkkggt64@ +.._____________",
"_____________..++*6twwwwtwttfffggkkkMMMMMMMMMMMkkkggfffttwtwwwwt6*++.._____________",
"_____________..++&wtttggkMMBBBVVVCCAAADDLLLDDAAACCVVVBBBMMkggtttw&++.._____________",
"_____________..++1efMMBBBBBBBBBVVVVCCCAAAAAAACCCVVVVBBBBBBBBBMMfe1++.._____________",
"_____________..+3qttfkfkkkkMMMMMMBBBBVVCCCCCVVBBBBMMMMMMkkkkfkfttq3+.._____________",
"_____________.+$3q1%>47q7q0qwetthffjhgMlMMMlMghjffhttewq0q7q74>%1q3$+._____________",
"_____________.+%54wgkkMMMMBBVVVCCAAASSLLLLLLLSSAAACCVVVBBMMMMkkgw45%+._____________",
"_____________.+%7fMBBBBBBBBBBVVVCCCCCCASSSSSSCCCCCCVVVBBBBBBBBBBMf7%+._____________",
"_____________.+1qfkkkkkMMMBBBBBBVVVVVVCAAAAACVVVVVVBBBBBBMMMkkkkkfq1+._____________",
"_____________.+61147447qqq0qwetthffjhgMlMMMlMghjffhttewq0qqq74474116+._____________",
"_____________.@14tgkkMMMMVVVCCCCAAASSSDDLLLDDSSSAAACCCCVVVMMMMkkgt41@._____________",
"______________%qMCCCCCCAAASSSDDDDLLLLLPPPPPPPLLLLLDDDDSSSAAACCCCCCMq%______________",
"______________qkhkkkkMBBMVVVVVCCCCCAASDLLLLLDSAACCCCCVVVVVMBBMkkkkhkq______________",
"_____________%64wt7447667qq0wwehhhhjhhllMMMllhhjhhhheww0qq7667447tw46%_____________",
"_____________@%6wfgkkMMMMBBVVVCCCAAASSDDLLLDDSSAAACCCVVVBBMMMMkkgfw6%@_____________",
"_____________-6fBBVVVVCCCCCASASDDDDLLLPPPPPPPLLLDDDDSASACCCCCVVVVBBf6-_____________",
"____________1whkMMkkMBBBVVVCCCAAAASSSDDLLLLLDDSSSAAAACCCVVVBBBMkkMMkhw1____________",
"____________161117447qqq0qwetthffjhgllMlMMMlMllghjffhttewq0qqq744711161____________",
"____________+$1qtgkkMMBBVVVCCCAASSSDDDLLLLLLLDDDSSSAACCCVVVBBMMkkgtq1$+____________",
"____________$6wfkMVAASSSDDDLLLPPPPPPPPPPPPPPPPPPPPPPPLLLDDDSSSAAVMkfw6$____________",
"___________$4wfkMVCCAAASSSDDDDDDDDDDDVtqqqqqtVDDDDDDDDDDDSSSAAACCVMkfw4$___________",
"__________1qqqhhkhthffgkkkkMMBBBBBBBgtq%e%e%qtgBBBBBBBMMkkkkgffhthkhhqqq1__________",
"__________1>1$%17447qqq0qqqqqqqqqqqqqqq%e%e%qqqqqqqqqqqqqqq0qqq74471%$1>1__________",
"_________O@&7tfkMMC9;$;%O%OO%%%7%Ohlhly%e%e%ylhlhO%7%%%OO%O%;$;9CMMkft7&@O_________",
"_________X$0tyBVAA9o7hjv7Oe%-%%7OOhgeht10101theghOO7%%-%eO7vjh7o9AAVByt0$X_________",
"_________O>ekBBMD9* jvAv 7J%O;%7O%lhelh%e%e%hlehl%O7%;O%J7 vAvj *9DMBBke>O_________",
"_______bI$>4qtwqq1   .   Mho$$%7O%hhelj%e1e%jlehh%O7%$$ohM   .   1qqwtq4>$Ib_______",
"______UJ6%>1@@;;%%+ OO+o;7%-;$>1o>je0ll>e>e>ll0ej>o1>$;-%7;o+OO +%%;;@@1>%6JU______",
"______GT7$O>eqttgk-%7>%%-O%;O$77o%e00le%h7h%el00e%o77$O;%O-%%>7%-kgttqe>O$7TG______",
"______nU4X%hMkgq7glghell%O%OOOvv 7Avvvj0DAD0jvvvA7 vvOOO%O%llehglg7qgkMh%X4Un______",
"______Hbo%eMkgq JQRRTDRTO+;OO7heO>ehllO0R!R0Ollhe>Oeh7OO;+OTRDTRRQJ qgkMe%obH______",
"_____HT+%1>qwtqoyAyVfrLg OOoOhvjjFvvALOe~!~eOLAvvFjjvhOoOO gLrfVyAyoqtwq>1%+TH_____",
"____HHi+%%%-@$oO>1&2&2roo$o 7Dl%DRTRR~Fh~H~hF~RRTRD%lD7 o$oor2&2&1>Oo$@-%%%+iHH____",
"___HKi=+%+1777,11111101 OO .VR%%ZZZjrg0%RvR%0grjZZZ%%RV. OO 10111111,7771+%+=iKH___",
"__FUa X+-:uzzGKpX##7et%O%o 7D!h1lllyry.%WTW%.yrylll1h!D7 o%O%te7##XpKGzzu:-+X aUF__",
"_bRz.++-Y/^^T((b+:+11%il; OlDRPRRRRRRRO-~R~-ORRRRRRRPRDlO ;li%11+:+b((T^^/Y-++.zRb_",
"pusJs+iz)TJTUT/<:QY;O,gi  0mZymPRPYTTRl0!!!0lRTTYPRPmyZm0  ig,O;YQ:</TUTJT)z:+sJsup",
"p+-zJciz)YI!U!~+pnY  7vO OlZNo0SSZhmZADlR!RlDAZmhZSS0oNZlO Ov7  Ynp+~!U!IY)z:cJz-+p",
"d;,:zIzb)(^///( Ksu  +,. 6mVZ&%rrr888&$mE!Em$&888rrr%&ZVm6 .,+  usK (///^()bzIz:,;d",
"z+,,+zd@i,==X-z h;-   o ohvvDPDDDDSADg g~Q~g gDASDDDDPDvvho o   -;h z-X==,i@dz+,,+z",
"n+,,sa<-;;;;@;;X@ p   o OgVvNPPTRRRR~To7RTR7oT~RRRRTPPNvVgO o   p @X;;@;;;;-<as,,+n"
};
