/* XPM */
static char *result[] = {
/* columns rows colors chars-per-pixel */
"13 13 13 1 ",
"  c #000047",
". c #000083",
"X c #0000CB",
"o c #1B1BFF",
"O c #3737FF",
"+ c #5353FF",
"@ c #7373FF",
"# c #8F8FFF",
"$ c #ABABFF",
"% c #C7C7FF",
"& c #E7E7FF",
"* c white",
"= c #00FF00",
/* pixels */
"+===========+",
"=@===XOX===@=",
"==#X.O@O.X#==",
"==X$+@#@+$X==",
"= o+%$%$%+o =",
"=XO@#&&&#@OX=",
"=O@#%&*&%#@O=",
"=XO@#&&&#@OX=",
"= o+%$%$%+o =",
"==X$+@#@+$X==",
"==#XXO@O.X#==",
"=@===XOX===@=",
"+===========+"
};
