/* XPM */
static char *result[] = {
/* columns rows colors chars-per-pixel */
"15 14 12 1 ",
"  c #000047",
". c #000083",
"X c #0000CB",
"o c #1B1BFF",
"O c #3737FF",
"+ c #5353FF",
"@ c #7373FF",
"# c #8F8FFF",
"$ c #ABABFF",
"% c #C7C7FF",
"& c white",
"* c #00FF00",
/* pixels */
"*******+*******",
"*******+*******",
"******X@X******",
"**** .O#O. ****",
"*** o+@#@+o ***",
"** o+@$%$@+o **",
"**XO@#%&%#@OX**",
"+@@#%%&&&%%#@@+",
"**XO@#%&%#@OX**",
"** o+@$%$@+o **",
"*** o+@%@+o ***",
"**** .O#O. ****",
"******X@X******",
"*******@*******"
};
