/* XPM */
static char *result[] = {
/* columns rows colors chars-per-pixel */
"12 11 11 1 ",
"  c gray23",
". c #774F2B",
"X c gray28",
"o c #4B4B4B",
"O c gray31",
"+ c gray34",
"@ c #7B634F",
"# c gray39",
"$ c #6F6F6F",
"% c #875733",
"& c #00FF00",
/* pixels */
"&&&#&#&o&&&&",
"&&+o#$###&&&",
"&&o#&&$$&o#&",
"&##&&$$$$&#&",
"&#X#$&&&##&#",
" ###&&&$$##&",
"@#&&#$&$&##.",
"&X#&X&+&&&X%",
"&&O#X++###X&",
"&&XOX&#X&&&&",
"&&&&##&&&&&&"
};
