/* XPM */
static char *result[] = {
/* columns rows colors chars-per-pixel */
"15 15 11 1 ",
"  c gray23",
". c gray28",
"X c #4B4B4B",
"o c gray34",
"O c #5B5B5B",
"+ c #7B634F",
"@ c gray39",
"# c gray42",
"$ c #6F6F6F",
"% c #777777",
"& c #00FF00",
/* pixels */
"&&&&&#&@&X&&&&&",
"&&&@X&@$&@oo&&&",
"&&&o&&@$@&oO&&&",
"&@&X&@&&$$@@&X&",
"&&X@@&&&&&@&@&&",
"&&@&&&#&&&&&OX&",
"@&@.&$&%%%&&@&&",
"& @&@&&&$&#&@@@",
"&&@&&@&&$&#&@&&",
"&+@&&&@#&#@&&&&",
"&O&@@&&&&@&&@&&",
"&#@&@@.&o&&@@.&",
"&&O#&@.o&@@@&.&",
"&&&&O.&&X&&&&&&",
"&&&&&&.&&.&&&&&"
};
