/* XPM */
static char *result[] = {
/* columns rows colors chars-per-pixel */
"147 76 74 1 ",
"  c #070707",
". c #170F07",
"X c #1F170B",
"o c #1B1B1B",
"O c #17330F",
"+ c #2B230F",
"@ c #332B13",
"# c #3F2F17",
"$ c #232323",
"% c #272727",
"& c #2F2F2F",
"* c #373737",
"= c gray23",
"- c #4B371B",
"; c #533F1F",
": c #4F3B23",
"> c #533F2F",
", c #5F4323",
"< c #5B472B",
"1 c #574333",
"2 c #5F4B37",
"3 c #6B4727",
"4 c #774F2B",
"5 c #7F532F",
"6 c #675333",
"7 c #67533F",
"8 c #775F3F",
"9 c #434343",
"0 c gray28",
"q c #5B5B5B",
"w c #6F5743",
"e c #775F4B",
"r c #7B634F",
"t c gray39",
"y c gray42",
"u c #6F6F6F",
"i c #777777",
"p c gray50",
"a c #875733",
"s c #8F5F37",
"d c #9B633B",
"f c #A36B3F",
"g c #836B4B",
"h c #836B57",
"j c #8F7753",
"k c #8B735B",
"l c #AB6F43",
"z c #B37347",
"x c #BF7B4B",
"c c #937B63",
"v c #9B7F6B",
"b c #CB7F4F",
"n c #9F876F",
"m c #A78F77",
"M c #AF977F",
"N c #CF8353",
"B c #D78B5B",
"V c #DF9363",
"C c #E79B6B",
"Z c #EFA373",
"A c #F7AB7B",
"S c #838383",
"D c #939393",
"F c #979797",
"G c #9F9F9F",
"H c #B79F87",
"J c #BFA78F",
"K c #A7A7A7",
"L c gray67",
"P c gray70",
"I c #B7B7B7",
"U c #FFB383",
"Y c gray78",
"T c #00FF00",
/* pixels */
"TTTTTTTTTTTTTTTTTTTTTTTTTTTTTTTTTTTTTTTTTTTTTTTTTTTTTTTTTTTTTTTTTTTTTTTTTTTTTTTTTTTTTTTTTTTTTTTTTTTTTTTTTTTTTTTTTTTTTTTTTNNNTTTTTTTTTTTTTTTTTTTTTTT",
"TTTTTTTTTTTTTTTTTTTTTTTTTTTTTTTTTTTTTTTTTTTTTTTTTTTTTTTTTTTTTTTTTTTTTTTTTTTTTTTTTTTTTTTTTTTTTTTTTTTTTTTTTTTTTTTTTTTTTbbNxxbbNTTTTTTTTTTTTTTTTTTTTTT",
"TTTTTTTTTTTTTTTTTTTTTTTTTTTTTTTTTTTTTTTTTTTTTTTTTTTTTTTTTTTTTTTTTTTTTTTTTTTTTTTTTTTTTTTTTTTTTTTTTTTTTTTTTTTTTTlllzxxzfzlllzfbBTTTTTTTTTTTTTTTTTTTTT",
"TTTTTTTTTTTTTTTTTTTTTTTTTTTTTTTTTTTTTTTTTTTTTTTTTTTTTTTTTTTTTTTTTTTTTTTTTTTTTTTTTTTTTTTTTTTTTTTTTTTTTTTTTTTsssss5ssdfzlflfdsdbBTTTTTTTTTTTTTTTTTTTT",
"TTTTTTTTTTTTTTTTTTTTTTTTTTTTTTTTTTTTTTTTTTTTTTTTTTTTTTTTTTTTTTTTTTTTTTTTTTTTTTTTTTTTTTTTTTTTTTTTTTTTTTTTsa4assssddfzzzlfdsdllllzzzzzxzllTTTTTTTTTTT",
"TTTTTTTTTTTTTTTTTTTTTTTTTTTTTTTTTTTTTTTTTTTTTTTTTTTTTTTTTTTTTTTTTTTTTTTTTTTTTTTTTTTTTTTTTTTTTTTTTTTssssssasssssssdfzzfdsffllzlzzzbbbbbbxlTTTTTTTTTT",
"TTTTTTTTTTTTTTTTTTTTTTTTTTTTTTTTTTTTTTTTTTTTTTTTTTTTTTTTTTTTTTTTTTTTTTTTTTTTTTTTTTTTTTTTTTTTTTlsfsfa55sss5dssdffllzzfffllzxxbzzbbbbNBVVNbsTTTTTTTTT",
"TTTTTTTTTTTTTTTTTTTTTTTTTTTTTTTTTTTTTTTTTTTTTTTTTTTTTTTTTTTTTTTTTTTTTTTTTTTTTTTTTTTTTTTTTTTTs55afs5ssfzsffdzflllfzlfllxbxxxbbbNbNNBVVCCVNfsTTTTTTTT",
"TTTTTTTTTTTTTTTTTTTTTTTTTTTTTTTTTTTTTTTTTTTTTTTTTTTTTTTTTTTTTTTTTTTTTTTTTTTTTTTTTTTTTTTfssss5sssss5sszsfzzldlzzllzzlxxbNbVBNNbbVBVCCCCZZVNs5STTTTTT",
"TTTTTTTTTTTTTTTTTTTTTTTTTTTTTTTTTTTTTTTTTTTTTTTTTTTTTTTTTTTTTTTTTTTTTTTTTTTTTTTTTTTTTfssafsssss5454sslzslxxfdlzzbzxbbNNNBVVBBNVBBCZCCCZZZVs,yGTTTTT",
"TTTTTTTTTTTTTTTTTTTTTTTTTTTTTTTTTTTTTTTTTTTTTTTTTTTTTTTTTTTTTTTTTTTTTTTTTTTTTTTTTTTs4;asss4ass555sssfllfbbxflxlzbbbNNBVBBVVVVVVCCZCVVCCZAVb,9iLTTTT",
"TTTTTTTTTTTTTTTTTTTTTTTTTTTTTTTTTTTTTTTTTTTTTTTTTTTTTTTTTTTTTTTTTTTTTTTTTTTTTTTTTss4s44ss555ss54fzslllsxbxldNzzNNNBBVBBBVVVZZZZZCCVBBNVAUVNs0pYFTTT",
"TTTTTTTTTTTTTTTTTTTTTTTTTTTTTTTTTTTTTTTTTTTTTTTTTTTTTTTTTTTTTTTTTTTTTTTTTTTTTTTTldfsa44ss5554ssaflszblzxzldzdbxxBBBBBVVVVVBBZCCVVVVBNNBZUVBsSYIPuq&",
"TTTTTTTTTTTTTTTTTTTTTTTTTTTTTTTTTTTTTTTTTTTTTTTTTTTTTTTTTTTTTTTTTTTTTTTTTTTTTTss4fs5ss55555a55szfsfsblszfdfldbxxNbNBBVVVVVBBBVVVVBBNNNBVZVbzKDDG=&T",
"TTTTTTTTTTTTTTTTTTTTTTTTTTTTTTTTTTTTTTTTTTTTTTTTTTTTTTTTTTTTTTTTTTTTTTTTTTTlzfasss55s45s55f53ssafffffllbldlssbzbbNNNxBBBBVBBVBBVBBNNbbNBCVbzpuqpyTT",
"TTTTTTTTTTTTTTTTTTTTTTTTTTTTTTTTTTTTTTTTTTTTTTTTTTTTTTTTTTTTTTTTTTTTTTTTTlsssf35ss44s55sssf5afl5slxzlbflldzdfzzbbxNNzxbNNBBNBNNBBNNNbbbBCVbst00qpTT",
"TTTTTTTTTTTTTTTTTTTTTTTTTTTTTTTTTTTTTTTTTTTTTTTTTTTTTTTTTTTTTTTTTTTTTTT55ssssa3aa45sa53sfsfsdaflalblfllldfldllxzbxNxxbxzxVbbNNVBNbxbbxbNVVb40&&9iTT",
"TTTTTTTTTTTTTTTTTTTTTTTTTTTTTTTTTTTTTTTTTTTTTTTTTTTTTTTTTTTTTTTTTTTTTs33s5ssa53355ss53af4fbffafl3llzffzzdffdfzxdlxdxbNzdxbbbxNNxzbxbbzbbVVb,&%%*tTT",
"TTTTTTTTTTTTTTTTTTTTTTTTTTTTTTTTTTTTTTTTTTTTTTTTTTTTTTTTTTTTTTTTTTT5sf,55335533,5a4sa3aaazzffalfaldllflldzsffxldxzdfbNdsbxNbxxNzlxzbxzbxNVx3%+$*quT",
"TTTTTTTTTTTTTTTTTTTTTTTTTTTTTTTTTTTTTTTTTTTTTTTTTTTTTTTTTTTTTTTTTT#,533433353333ss4aa53ssslafafafxfsfsllffsllzfaxfdlNxsdxlxbzxxzzzlxzzllxBx@@+o*0tT",
"TTTTTTTTTTTTTTTTTTTTTTTTTTTTTTTTTTTTTTTTTTTTTTTTTTTTTTTTTTTTTTTT3#4;3;4455555443a5554s35sas5slf5lball5alfaffafaaffslNsdxfsxxlzzllzzzzllfzxs@@oo&9tT",
"TTTTTTTTTTTTTTTTTTTTTTTTTTTTTTTTTTTTTTTTTTTTTTTTTTTTTTTTTTTTTTT3@;;343;;35sd55345s5a4ss5ff44zflfl5sbl44ss3l53s4assflfallsfxxlllllzffllfddl-@oo$&9TT",
"TTTTTTTTTTTTTTTTTTTTTTTTTTTTTTTTTTTTTTTTTTTTTTTTTTTTTTTTTTTTTT;;44;333;545sszs54a5sf45s5szs4zlaxf3zbls,5a5s3a53afasfssldsfzzlzlfzfszzfdsas@o$$&*TTT",
"TTTTTTTTTTTTTTTTTTTTTTTTTTTTTTTTTTTTTTTTTTTTTTTTTTTTTTTTTTTTT@@#;5445s53a5d5ff43ss4ssbf3fxfafssNf4llss,,,s5a335sssaslzdssffzfzffdsszfdsa5,$$$&,TTTT",
"TTTTTTTTTTTTTTTTTTTTTTTTTTTTTTTTTTTTTTTTTTTTTTTTTTTTTTTTTTT@+@#;;34ss4safsasfd35s5aszl43sNsfx4zN5szls433s3,3335a434lfddsafzxzffdsssfdaa4,#5ff44TTTT",
"TTTTTTTTTTTTTTTTTTTTTTTTTTTTTTTTTTTTTTTTTTTTTTTTTTTTTTTTTT##%##;;53555sssfssfs5ss35fla,5zbslsabb5fzds3-aa--3535s55afddddsfzxzffdsssfsa54#+3ssssTTTT",
"TTTTTTTTTTTTTTTTTTTTTTTTTTTTTTTTTTTTTTTTTTTTTTTTTTTTTTTT#####344;3555sz53sff5asas34flf4slsszsfbx4lds45;44#-3355355sfdffffzzxzlffdsfls5aa+;3;35sTTTT",
"TTTTTTTTTTTTTTTTTTTTTTTTTTTTTTTTTTTTTTTTTTTTTTTTTTTTTTT#@@##30;;;54555sffs5sfsf35s43sf5fs5zfffzz4xd55;;3;##--;4434sfsdzzfzxxzllfffzxls5d-;zz5#;TTTT",
"TTTTTTTTTTTTTTTTTTTTTTTTTTTTTTTTTTTTTTTTTTTTTTTTTTTTTT@+@##;#;43;355sss5zbz4,f43sf44sxsf44lfazs3fla33;3;;3---33335ssdzzxzxxxzlllzzxbbzsa53sbf3TTTTT",
"TTTTTTTTTTTTTTTTTTTTTTTTTTTTTTTTTTTTTTTTTTTTTTTTTTTT+##%##;;;;34554s5alf5fz45ss3fzs4sBffassasb;,ls;3;;;-####;;;334sdfzxbxxxzlzxxbbbBVVzs55ssa;TTTTT",
"TTTTTTTTTTTTTTTTTTTTTTTTTTTTTTTTTTTTTTTTTTTTTTTTTT5####;3444ss555sfsssflzafs3ss5szl4aBlafs55ls,3s4--#;-#####-;;355dzzzlxxxzxbxbbBBVVVVZbf553;TTTTTT",
"TTTTTTTTTTTTTTTTTTTTTTTTTTTTTTTTTTTTTTTTTTTTTTTTTX###;;444535s4sfsszsbzsf5ss55ass4zlazxss33sf5,5s#-#-;#+@###--3435dfzbzxbxxxbxBBVVBNbNVZbl-fTTTTTTT",
"TTTTTTTTTTTTTTTTTTTTTTTTTTTTTTTTTTTTTTTTTTTTTTT+X#;;;34ssss55s5ssllzsxl4a4zs54sfssszflff333ss5553@;##-#++@##-#,,35sdffzzxxbbxxBBBBNNxbBCAN4#TTTTTTT",
"TTTTTTTTTTTTTTTTTTTTTTTTTTTTTTTTTTTTTTTTTTTTT#@##;;;s53545sa5fsazzbzazaszszs43sb55fffzza533s55s4#;;###+++@####;,,435ssfsfllzzzxxbxzlzxbBCAb##TTTTTT",
"TTTTTTTTTTTTTTTTTTTTTTTTTTTTTTTTTTTTTTTTTTT#.##;;;;;;535zsfffz5sllszla4slbsl44afs5sfffs5555ss453#;;@+XX+@@####-;,3555sssfzzlllzzxxxlllxbBZN5.xTTTTT",
"TTTTTTTTTTTTTTTTTTTTTTTTTTTTTTTTTTTTTTTTTs;+;;;;;;-455sszssfzlaalzasb4afadlxss45zzzssz33555s533;---+XX+@#######-,4455a5ssszfffffllzzlfzxbBz3.5TTTTT",
"TTTTTTTTTTTTTTTTTTTTTTTTTTTTTTTTTTTTTTTT3###;03;;355335sffsasfllzasxs4sb4sxbfzs4fsssz53;3ss5;54;##@o+%-,----###-,34555asssssssfffffffflzxz5;+#TTTTT",
"TTTTTTTTTTTTTTTTTTTTTTTTTTTTTTTTTTTTTT;###;;4445445s55s5szz4zsszls4bz4slzafxxla4zl3ss35-5ss;-4;##@;-#-,,3,,;----,3544555a5ss55sssfssfffffs;;++TTTTT",
"TTTTTTTTTTTTTTTTTTTTTTTTTTTTTTTTTTTTT@##;;;4as3355ss55533sf4fla5fzssss4slffabx34sz35555-s54#;4#@#TTTTTT3433,;;;;,33444445555455555sssffsa433+XTTTTT",
"TTTTTTTTTTTTTTTTTTTTTTTTTTTTTTTTTTT3.##@#;3435555s55sss54ss34fz54zbs4ss4ssfazx34s543533-5a3##;#+sTTTTTTTT35554,;,3334333333334335555ass54335X#TTTTT",
"TTTTTTTTTTTTTTTTTTTTTTTTTTTTTTTTTT+.3*#;5;355s5s54555ffss5sa54dba5zfs45z55zffza3s34,53-;54;#@#+;TTTTTTTTTTTT35543333333333333333334444444445.TTTTTT",
"TTTTTTTTTTTTTTTTTTTTTTTTTTTTTTTTT#.;;;;45545s55sllsa545zss5f555slsasf53s5azfsz55s5f5;;3;;5;++%;TTTTTTTTTTTTTTTTT34aaaaa5544444344444444433s@sTTTTTT",
"TTTTTTTTTTTTTTTTTTTTTTTTTTTTTTT##**;;445as5sszs44fbf5s35zfss53saafa5s5ss44zlffsf533a;#3;;4;.X5TTTTTTTTTTTTTTTTTTTTTTTTTTTTTTTTTTTTd4444sassTTTTTTTT",
"TTTTTTTTTTTTTTTTTTTTTTTTTTTTTT@@@;4444sasfs5fzzsssbl4ss45bzsf54s5sf4s55s43lzf4sf5,35;-a;5;@X;TTTTTTTTTTTTTTTTTTTTTTTTTTTTTTTTTTTTTTTTTTTTTTTTTTTTTT",
"TTTTTTTTTTTTTTTTTTTTTTTTTTTTT ###;;5555szbzszzszfzffaazz,azssf5s55zd3ss443sfb45555;-33d;4;X;TTTTTTTTTTTTTTTTTTTTTTTTTTTTTTTTTTTTTTTTTTTTTTTTTTTTTTT",
"TTTTTTTTTTTTTTTTTTTTTTTTTTTT+@##;444sffzzllssfflflsfsszz4azf5sf5s,4zs45sss4dbd555a;#;ad;;+%TTTTTTTTTTTTTTTTTTTTTTTTTTTTTTTTTTTTTTTTTTTTTTTTTTTTTTTT",
"TTTTTTTTTTTTTTTTTTTTTTTTTTTX&*#;;4ssaszzlzzllfalbzsllsbf4ffa5ssz5s33zs;35ssaffs5;f3#;44##@TTTTTTTTTTTTTTTTTTTTTTTTTTTTTTTTTTTTTTTTTTTTTTTTTTTTTTTTT",
"TTTTTTTTTTTTTTTTTTTTTTTTTT.;#*;444sbzssslbfsafffxzfNzfsffsf5sssf3sf,sz5353sassz335-##;3##TTTTTTTTTTTTTTTTTTTTTTTTTTTTTTTTTTTTTTTTTTTTTTTTTTTTTTTTTT",
"TTTTTTTTTTTTTTTTTTTTTTTTT@@#;;43555sssszlflzfafzfbfsflss5sbsasls44ss3fs533sszss334-##;;##TTTTTTTTTTTTTTTTTTTTTTTTTTTTTTTTTTTTTTTTTTTTTTTTTTTTTTTTTT",
"TTTTTTTTTTTTTTTTTTTTTTTT.###;4455szsfssfbzllflxzszlslbsf4slsaall553s5ssas35s5s5344-;;#;@TTTTTTTTTTTTTTTTTTTTTTTTTTTTTTTTTTTTTTTTTTTTTTTTTTTTTTTTTTT",
"TTTTTTTTTTTTTTTTTTTTTTTX9*;5555ssszz5afzlbfsszbszlbsbzzsssblasla3s54sf55ff5sssa33;;;####TTTTTTTTTTTTTTTTTTTTTTTTTTTTTTTTTTTTTTTTTTTTTTTTTTTTTTTTTTT",
"TTTTTTTTTTTTTTTTTTTTTT%&;##;35s4albsafflllfffbBafbxflbsslsxzfsf54ss543f5ssf55ss;;;4;+##TTTTTTTTTTTTTTTTTTTTTTTTTTTTTTTTTTTTTTTTTTTTTTTTTTTTTTTTTTTT",
"TTTTTTTTTTTTTTTTTTTTT#*#;3344s5sfzszf5zbszfazbBsszlzlsdlbbslfaz5ssf5s4fz5fz4-b4-335#@@@TTTTTTTTTTTTTTTTTTTTTTTTTTTTTTTTTTTTTTTTTTTTTTTTTTTTTTTTTTTT",
"TTTTTTTTTTTTTTTTTTTT;*@#;34555ssssasz4azslzsbBbz5lslb5llbbl3assazsb5s,4fzfzs-l5-3;;#@@TTTTTTTTTTTTTTTTTTTTTTTTTTTTTTTTTTTTTTTTTTTTTTTTTTTTTTTTTTTTT",
"TTTTTTTTTTTTTTTTTTTT@+;;;335s5azs54s5sasssssbBl5flsblsblllza35fzz5fs44,4xf5s;s3;;-*#%#TTTTTTTTTTTTTTTTTTTTTTTTTTTTTTTTTTTTTTTTTTTTTTTTTTTTTTTTTTTTT",
"TTTTTTTTTTTTTTTTTTT;+@#*;35sss5sfs555sf5sffxbBllslszzlllflls3sbbf4sss;;,zf4f554,#;;@@TTTTTTTTTTTTTTTTTTTTTTTTTTTTTTTTTTTTTTTTTTTTTTTTTTTTTTTTTTTTTT",
"TTTTTTTTTTTTTTTTTT;+@#;;33555sssss55ssssafbsbbsbsslllfsb4szs3zbzszs4z5-3fsss55,#;3@@;TTTTTTTTTTTTTTTTTTTTTTTTTTTTTTTTTTTTTTTTTTTTTTTTTTTTTTTTTTTTTT",
"TTTTTTTTTTTTTTTTT@%@*#;;33sz34s55534ffsfazzsxblzsflflf5z3sxs3xbs5sa5b5-5s,fs35,#5#;@TTTTTTTTTTTTTTTTTTTTTTTTTTTTTTTTTTTTTTTTTTTTTTTTTTTTTTTTTTTTTTT",
"TTTTTTTTTTTTTTTT#+#@#;;3355ff5as3553asazllfzbxlzsbzlls,safxa,Nl3as5sb4-5s3s43,#3;#;@TTTTTTTTTTTTTTTTTTTTTTTTTTTTTTTTTTTTTTTTTTTTTTTTTTTTTTTTTTTTTTT",
"TTTTTTTTTTTTTTT;%@@@#;;35553sa5435sasfffxlaxxfflfblbas5ssff33b44fsazf3-3af4-5,#5#;@;TTTTTTTTTTTTTTTTTTTTTTTTTTTTTTTTTTTTTTTTTTTTTTTTTTTTTTTTTTTTTTT",
"TTTTTTTTTTTTTTT@+@@@;55355334445545sszzllfflxfsflxbss44lasz4,zfas3lzs335fs-;s;3;#;@TTTTTTTTTTTTTTTTTTTTTTTTTTTTTTTTTTTTTTTTTTTTTTTTTTTTTTTTTTTTTTTT",
"TTTTTTTTTTTTTT@@#@#*;3;4553;3;,3sa5ssblzllbffzzsbxxfs54bszz5a3zf55sss3;dd3-3s;3;-;#TTTTTTTTTTTTTTTTTTTTTTTTTTTTTTTTTTTTTTTTTTTTTTTTTTTTTTTTTTTTTTTT",
"TTTTTTTTTTTTT#@@###553353333;;555sffafzbszxdflxsdxllfasxfbs3s5fs4s4zs335a4;;5;3;;@;TTTTTTTTTTTTTTTTTTTTTTTTTTTTTTTTTTTTTTTTTTTTTTTTTTTTTTTTTTTTTTTT",
"TTTTTTTTTTTT@+@@##;443353,;;335zssfzfzbbfzlffdxzdzblfszxzzs4s5355s5z3ss;55;;5;;3#+TTTTTTTTTTTTTTTTTTTTTTTTTTTTTTTTTTTTTTTTTTTTTTTTTTTTTTTTTTTTTTTTT",
"TTTTTTTTTTTT+%@@#;344553,##;4445sfzfxxbbfdlflfdllfNxsfxxbzsss53ab55s353-55;33#;3@+TTTTTTTTTTTTTTTTTTTTTTTTTTTTTTTTTTTTTTTTTTTTTTTTTTTTTTTTTTTTTTTTT",
"TTTTTTTTTTT@%@@#;*3444,-#-;54s54slzlzbxNfdlblfdbzlzlaffsbasdz543f5534a;-aa3;3#;3X#TTTTTTTTTTTTTTTTTTTTTTTTTTTTTTTTTTTTTTTTTTTTTTTTTTTTTTTTTTTTTTTTT",
"TTTTTTTTTTXX@@##;-3333-#;;355ss55szNxNNldxNNlbfdlbbzssfz5adfs543s55333-;s3;;#;3;@TTTTTTTTTTTTTTTTTTTTTTTTTTTTTTTTTTTTTTTTTTTTTTTTTTTTTTTTTTTTTTTTTT",
"TTTTTTTTTXX+@@#;;;;;;;#;45;4ssszzsssbNbfdBNdNllzsllba5z4dlls44455s534--4a;;5#;;@@TTTTTTTTTTTTTTTTTTTTTTTTTTTTTTTTTTTTTTTTTTTTTTTTTTTTTTTTTTTTTTTTTT",
"TTTTTTTTOX@@%@*;;;;,;#;;5454ssszfzfzxblldBBdbxflffllaas5bs54f5435s33;;;433;;#;##TTTTTTTTTTTTTTTTTTTTTTTTTTTTTTTTTTTTTTTTTTTTTTTTTTTTTTTTTTTTTTTTTTT",
"TTTTTTT&X@@%@#;;;;,,#;s543ssssf5slllzxslxBBflxllzlfxa54asz4sl333as3;--;433-##;##TTTTTTTTTTTTTTTTTTTTTTTTTTTTTTTTTTTTTTTTTTTTTTTTTTTTTTTTTTTTTTTTTTT",
"TTTTTT0XX%@@@#;33;,--545ssssfflssllllllfNxNxlblfzlzxa3asss5s5333s3;;-;55;##-;#@TTTTTTTTTTTTTTTTTTTTTTTTTTTTTTTTTTTTTTTTTTTTTTTTTTTTTTTTTTTTTTTTTTTT",
"TTTTT3.X@%%%*;;35;#-355ss5aszfsllllllfbzllxNxzbzsblz343ss5ss5335s3;;--;;-#;-#@@TTTTTTTTTTTTTTTTTTTTTTTTTTTTTTTTTTTTTTTTTTTTTTTTTTTTTTTTTTTTTTTTTTTT",
"TTTT#XX%%+:;6667rhnMJJJmMchezzfzllllbfzllzsxbxblsbb5354s5ss5333553;;;-;;##-##%TTTTTTTTTTTTTTTTTTTTTTTTTTTTTTTTTTTTTTTTTTTTTTTTTTTTTTTTTTTTTTTTTTTTT",
"TTT5XX:<6666221168jcvvvcjjckhnnvlzbllzfbzfzlxblllls4455s5ss333443;;3-;;-#--#@@TTTTTTTTTTTTTTTTTTTTTTTTTTTTTTTTTTTTTTTTTTTTTTTTTTTTTTTTTTTTTTTTTTTTT",
"TT*:<666<:><668gjmmHHnvhrewwwwehnnvlbzsllsls5blllfs5s5s55f5354433;-#-;;##-#@@TTTTTTTTTTTTTTTTTTTTTTTTTTTTTTTTTTTTTTTTTTTTTTTTTTTTTTTTTTTTTTTTTTTTTT",
"@@;1---,:668ggjmHHmnhew7w<<<<<<-#2wnnvlzbzlaalllz5sfs4f4sf3455333;,#;;-##-@@@TTTTTTTTTTTTTTTTTTTTTTTTTTTTTTTTTTTTTTTTTTTTTTTTTTTTTTTTTTTTTTTTTTTTTT"
};
