/* XPM */
static char *result[] = {
/* columns rows colors chars-per-pixel */
"80 41 57 1 ",
"  c black",
". c #170F07",
"X c #1F170B",
"o c #1B1B1B",
"O c #2B230F",
"+ c #332B13",
"@ c #3F2F17",
"# c #232323",
"$ c #272727",
"% c #2F2F2F",
"& c #373737",
"* c gray23",
"= c #4B371B",
"- c #533F1F",
"; c #5F4323",
": c #6B4727",
"> c #774F2B",
", c #7F532F",
"< c #434343",
"1 c gray28",
"2 c gray31",
"3 c gray34",
"4 c #5B5B5B",
"5 c gray39",
"6 c gray42",
"7 c #6F6F6F",
"8 c #777777",
"9 c gray50",
"0 c #875733",
"q c #8F5F37",
"w c #9B633B",
"e c #A36B3F",
"r c #AB6F43",
"t c #B37347",
"y c #BF7B4B",
"u c #CB7F4F",
"i c #CF8353",
"p c #D78B5B",
"a c #DF9363",
"s c #E79B6B",
"d c #EFA373",
"f c #F7AB7B",
"g c #838383",
"h c #8B8B8B",
"j c #939393",
"k c #979797",
"l c #9F9F9F",
"z c gray67",
"x c #FFB383",
"c c #FFBB93",
"v c #FFBF9B",
"b c #FFC79B",
"n c #FFCFB3",
"m c #FFD7BB",
"M c #CBCBCB",
"N c #DFDFDF",
"B c #00FF00",
/* pixels */
"BBBBBBBBBBBBBBBBBBBBBBBBBBBBBBBBBBBBBBBBBBBBB5BBBBBBBBBBBBBBBBBBBBBBBBBBBBBBBBBB",
"BBBBBBBBBBBBBBBBBBBBBBBBBBBBBBBBBBBBBBBBBBBBB9BBBBBBBBBBBBBBBBBBBBBBBBBBBBBBBBBB",
"BBBBBBBBBBBBBBBBBBBBBBBBBBBBBBBBBBBBBBBBBBBB*N5BBBBBBBBBBBBBBBBBBBBBBBBBBBBBBBBB",
"BBBBBBBBBBBBBBBBBBBBBBBBBBBBBBBBBBBBBBBBBBB$;z8BBBBBBBBBBBBBBBBBBBBBBBBBBBBBBBBB",
"BBBBBBBBBBBBBBBBBBBBBBBBBBBBBBBBBBBBBBBB*B$-,gk5BBBBBBBBBBBBBBBBBBBBBBBBBBBBBBBB",
"BBBBBBBBBBBBBBBBBBBBBBBBBBBBBBBBBBBBBBB* $+=58g8BBBBBBBBBBBBBBBBBBBBBBBBBBBBBBBB",
"BBBBBBBBBBBBBBBBBBBBBBBBBBBBBBBBBBBBB3378gkk98775BBBBBBBBBBBBBBBBBBBBBBBBBBBBBBB",
"BBBBBBBBBBBBBBBBBBBBBBBBBBBBBBBBBBB5<11158789hhhh8BBBBBBBBBBBBBBBBBBBBBBBBBBBBBB",
"BBBBBBBBBBBBBBBBBBBBBBBBBBBBBBBBBB5<###%%15422457hkzMjBBBBBBBBBBBBBBBBBBBBBBBBBB",
"BBBBBBBBBBBBBBBBBBBBBBBBBBBBBBBBB5<%   o%%121<<<2358lMBBBBBBBBBBBBBBBBBBBBBBBBBB",
"BBBBBBBBBBBBBBBBBBBBBBBBBBBBBBBBtpaarq>;o%#1<*&**<259z9BBBBBBBBBBBBBBBBBBBBBBBBB",
"BBBBBBBBBBBBBBBBBBBBBBBBBBBBBBtpadddddie:o%o1&@@%%*16k9BBBBBBBBBBBBBBBBBBBBBBBBB",
"BBBBBBBBBBBBBBBBBBBBBBBBBBBBtpuiassddffdp,o%o%&@=@%*476vaaaBBBBBBBBBBBBBBBBBBBBB",
"BBBBBBBBBBBBBBBBBBBBBBBBBBBtuuaapasdfffxdpqo%o%@=-=@<34bbbccaaBBBBBBBBBBBBBBBBBB",
"BBBBBBBBBBBBBBBBBBBBBBBBBBtuuaaaaaasdffxccdr*oo%@=--=2<nnbbbnvcapBBBBBBBBBBBBBBB",
"BBBBBBBBBBBBBBBBBBBBBBBBBtuuiaassaasdfxccbcdyo o$@;:-4wbbvbbbbcccdpBBBBBBBBBBBBB",
"BBBBBBBBBBBBBBBBBBBBBBBBtuuiaaasssssfffccbbbda# o+=:=1yvvvvvbvccvbvspBBBBBBBBBBB",
"BBBBBBBBBBBBBBBBBBBBBBBttuuiiaadsddffffxcbmmmvao #@=@*pcvccvccfffccbciuBBBBBBBBB",
"BBBBBBBBBBBBBBBBBBBBBBequuiiiaaddffffcccdcbmmncwo OO&wscccffdaasdfcbvaiuBBBBBBBB",
"BBBBBBBBBBBBBBBBBBBBBe,truuuiaasddaafccbcsfcmmbdwoO&1yddaatuddccvvbcfaiiBBBBBBBB",
"BBBBBBBBBBBBBBBBBBBBq-quuuutipaspaiiadcccdpfcbbbaoO1yaapttdccvvvvvccdiiurBBBBBBB",
"BBBBBBBBBBBBBBBBBBBe-,qturriiaaasffpttiaxcspccvnnpapaaittdffccbbbccdpter0BBBBBBB",
"BBBBBBBBBBBBBBBBBBB:,qqtuuriaaasiisvsiewifvppccccvvvcsdasssfcbbvvcddue00+BBBBBBB",
"BBBBBBBBBBBBBBBBBB:,qqeruttuiiaaasiipsptwiyyfsadccbbbbbvccccfccccffcsiyq=BBBBBBB",
"BBBBBBBBBBBBBBBBB,-,qqerturuiiasasitupsprrpaaasccbbbmmmbvvvvcccccxcbvdnfiaBBBBBB",
"BBBBBBBBBBBBBBBB-->qqqqqruutipppssiteurwuyuasffcbbbbmmmbbvcbbbcccccccfcdddsaBBBB",
"BBBBBBBBBBBBBBB>=,>qeteteriutippssie>wyuuuadfffccccbmmmnbvvbbbbcbbbccccfccccvBBB",
"BBBBBBBBBBBBBBw-:,,qtrrtrriuyipasuutwuupssdfddddfccbmmmmbbbbbbbbbbbbccccccccvvBB",
"BBBBBBBBBBBBBB-=,,0eerttrtttiuaauuutupasddfddxxcccbmmmmmmbvvbbvbbbbbbcccccccvbcB",
"BBBBBBBBBBBBB@@>,,0eeertiiitiaaapuuupaddddddxxcvvvbmmmmmmbvvvvvvvvvvvvvvvccccbcd",
"BBBBBBBBBBBB>@:,q>qreeetttiiiaapiuuaadddddffccvvvbbmmmmbcccvvvvvcffffcccxxccxxxd",
"BBBBBBBBBBBw&->qqqeeeqetiutiiiapiipadddffffccccvvcbbbbbcfffccccdfdassssfddssddda",
"BBBBBBBBBB,@-,qqqqeeqerrtuiiiuappppaddfxxxcccccccccvvcffdddddddpauuittiaaaappaur",
"BBBBBBBBB>@-->qeeeeqrrretiiuaaaapaaaddxxxvvvvvccccccfddaaaaaaaaureq0qertttuiiuq=",
"BBBBBBBt:@,>:>qerrqqrtttuiaaaaassaddfxxcccvcccccccdddpauuiiittee,>:;:0q00eyiuq@B",
"BBBBBBt>@-,0,0etuuqquttiipappssdddfxxxccccccccxcxdppauittteeq0::;===->::,euuq@-B",
"BBBBBq,@-,eqqqerutqrutiauaaiadddddfxxxcccccccxsdddauutteee00:==@@@@&&=@,qee:+-BB",
"BBBB---->qqreerrreruutupuuuppdddxxffxxccccccxxsdppauitre,:::=@O$$$$$$+@----XXBBB",
"BB>--:>,qeqtrrttreiiiuaaaaaaaasdxxxxxccccccxxxxddiutrrre,-@@@$OXXXX$$$+@&&$.BBBB",
"B::-,,0qrqrtretttuiiiiiaaaapddsdxccccccxxxxxxddaaiteq0,q0:@$$$+XXXO$$+++@@X.BBBB",
">q,:,qqwqwrutruuiiittuuuuadsdfdaxxffffcxxxxsadaiiuut,:=---&++++$XXXXO$$$$+.+BBBB"
};
