/* XPM */
static char *result[] = {
/* columns rows colors chars-per-pixel */
"107 52 54 1 ",
"  c #1F170B",
". c #1B1B1B",
"X c #2B230F",
"o c #332B13",
"O c #3F2F17",
"+ c #232323",
"@ c #272727",
"# c #2F2F2F",
"$ c #373737",
"% c gray23",
"& c #4B371B",
"* c #533F1F",
"= c #5F4323",
"- c #6B4727",
"; c #774F2B",
": c #7F532F",
"> c #434343",
", c gray28",
"< c gray31",
"1 c gray34",
"2 c #5B5B5B",
"3 c gray39",
"4 c gray42",
"5 c #6F6F6F",
"6 c #777777",
"7 c gray50",
"8 c #875733",
"9 c #8F5F37",
"0 c #9B633B",
"q c #A36B3F",
"w c #AB6F43",
"e c #B37347",
"r c #BF7B4B",
"t c #CB7F4F",
"y c #CF8353",
"u c #D78B5B",
"i c #DF9363",
"p c #E79B6B",
"a c #EFA373",
"s c #F7AB7B",
"d c #838383",
"f c #939393",
"g c #979797",
"h c #A7A7A7",
"j c gray67",
"k c gray75",
"l c #FFB383",
"z c #FFBB93",
"x c #FFBF9B",
"c c #FFC79B",
"v c #FFCFB3",
"b c #FFD7BB",
"n c LightGray",
"m c #00FF00",
/* pixels */
"mmmmmmmmmmmmmmmmmmmmmmmmmmmmmmmmmmmmmmmmmmmmmmmmmmmmmmmmmmmmmmmmmmmmmmmmmmmmmmmmmmmmmmmmmmm4g3mmmmmmmmmmmmm",
"mmmmmmmmmmmmmmmmmmmmmmmmmmmmmmmmmmmmmmmmmmmmmmmmmmmmmmmmmmmmmmmmmmmmmm133556ddddgghh7mmm447j2>mmmmmmmmmmmmm",
"mmmmmmmmmmmmmmmmmmmmmmmmmmmmmmmmmmmmmmmmmmmmmmmmmmmmmmmmmmmmmmmmmm33332,,><2246114djkg2257f2>mmmmmmmmmmmmmm",
"mmmmmmmmmmmmmmmmmmmmmmmmmmmmmmmmmmmmmmmmmmmmmmmmmmmmmmmmmmmmmmmmmrryr8;;;8tiiiit4<+#dn5,252>#mmmmmmmmmmmmmm",
"mmmmmmmmmmmmmmmmmmmmmmmmmmmmmmmmmmmmmmmmmmmmmmmmmmmmmmmmmmmmmm9eee9q9etttiazssaaitq-<fh%,2>@mmmmmmmmmmmmmmm",
"mmmmmmmmmmmmmmmmmmmmmmmmmmmmmmmmmmmmmmmmmmmmmmmmmmmmmmmmmmmm9:9qeee9ewtyiaszzzzasitqO2g>$%2>mmmmmmmmmmmmmmm",
"mmmmmmmmmmmmmmmmmmmmmmmmmmmmmmmmmmmmmmmmmmmmmmmmmmmmmmmmmmm99q999qqwtriuaazzzzzzsaay-O55#$>5mmmmmmmmmmmmmmm",
"mmmmmmmmmmmmmmmmmmmmmmmmmmmmmmmmmmmmmmmmmmmmmmmmmmmmmmmmmm;:q9:eq9wtyaaszsszzzzzzzzaq&27%#,17mmmmmmmmmmmmmm",
"mmmmmmmmmmmmmmmmmmmmmmmmmmmmmmmmmmmmmmmmmmmmmmmmmmmmmmmmm=;9::qweetipaszzzzzxxzczzzza-%5%%%,5gmmmmmmmmmmmmm",
"mmmmmmmmmmmmmmmmmmmmmmmmmmmmmmmmmmmmmmmmmmmmmmmmmmmmmmmm-99:;9twweypaassssszzzzzczzzsq&2,+,,15gmmmmmmmmmmmm",
"mmmmmmmmmmmmmmmmmmmmmmmmmmmmmmmmmmmmmmmmmmmmmmmmmmmmmm:-::::9ewttyiaassszzzszzzzzczzzi;,2@&1,17mmmmmmmmmmmm",
"mmmmmmmmmmmmmmmmmmmmmmmmmmmmmmmmmmmmmmmmmmmmmmmmmmmmmO:9::9qewttyyiaisszzszszzzzzcczziq%4$O&3>4mmmmmmmmmmmm",
"mmmmmmmmmmmmmmmmmmmmmmmmmmmmmmmmmmmmmmmmmmmmmmmmmmm;o-99:ewwtttiiyuasaszsszzzzzszczzcpu&2>oO&,mmmmmmmmmmmmm",
"mmmmmmmmmmmmmmmmmmmmmmmmmmmmmmmmmmmmmmmmmmmmmmmmmmO*8;999wtteiiyaayizasssszzzzzzzzccczu-<<oOo<9mmmmmmmmmmmm",
"mmmmmmmmmmmmmmmmmmmmmmmmmmmmmmmmmmmmmmmmmmmmmmmmm-O;9:99qetyyiiyiaiiszssssczzzzzzzczcba9%3oo%;etmmmmmmmmmmm",
"mmmmmmmmmmmmmmmmmmmmmmmmmmmmmmmmmmmmmmmmmmmmmmmm**9:99eeqtyyyipitauypzssasxzzxzzczzzcczi&1@.%wyptmmmmmmmmmm",
"mmmmmmmmmmmmmmmmmmmmmmmmmmmmmmmmmmmmmmmmmmmmmm8O:9:88ewwwyiyypaiuiappszssazzzczzzzslzcci-,.%0ivzpymmmmmmmmm",
"mmmmmmmmmmmmmmmmmmmmmmmmmmmmmmmmmmmmmmmmmmmme**-898eeqwwyiiyriaiiiaaaazzazzzzczslzzascca:,%$ivxzpptmmmmmmmm",
"mmmmmmmmmmmmmmmmmmmmmmmmmmmmmmmmmmmmmmmmmmmeO*;::9qqwtteyiyiyyaiyaaazzszazzzzzzzszzzpsxx9>$yvxzaaaatmmmmmmm",
"mmmmmmmmmmmmmmmmmmmmmmmmmmmmmmmmmmmmmmmmmm:O::::9wqttyyyyyityaiaispipzzzszzzszszzssspracq-qzzssapaai9wmmmmm",
"mmmmmmmmmmmmmmmmmmmmmmmmmmmmmmmmmmmmmmmmm*O*;9;9te9eyyyyiyytiuiiasspiazzazzzszszsspsseyzeqiiuuiiiiiyt8mmmmm",
"mmmmmmmmmmmmmmmmmmmmmmmmmmmmmmmmmmmmmmmmO-;;9999qtwyyryyietiiiyiaazapizzazzazzazzsppsieiieqqeeqeeq99w8mmmmm",
"mmmmmmmmmmmmmmmmmmmmmmmmmmmmmmmmmmmmmeOO*:::qq8q8etetyyyuteixaeppuasiiizsazssspsssappaierteyxzzzxzitw8mmmmm",
"mmmmmmmmmmmmmmmmmmmmmmmmmmmmmmmmmmmmOXO*;::898-w8wtwytyeuyeaaawisuusaaipspssasisssspuazaueyeuzzzzaiyt8mmmmm",
"mmmmmmmmmmmmmmmmmmmmmmmmmmmmmmmmmmm@ O*99:89888qqwttqwiyyeraaiyuzuraaaaiaapspiapsppaaipzpaitqyzpaautqmmmmmm",
"mmmmmmmmmmmmmmmmmmmmmmmmmmmmmmmmmm@X**-ee;9q88qqreeyqqaiy0yazryiairiiaappapsppaasilzspaaaaautqaziiyqqmmmmmm",
"mmmmmmmmmmmmmmmmmmmmmmmmmmmmmmmmmo *;::998qw88wqtewrwqiiruypzyraaiwiaiizuaaaasaaaassszzaaiiiiyiziyq9mmmmmmm",
"mmmmmmmmmmmmmmmmmmmmmmmmmmmmmmmmo *;:9:9q9ee9erqteeut8euttyiaryaityiiuipaazspaspaszssszsssssaspiiye99mmmmmm",
"mmmmmmmmmmmmmmmmmmmmmmmmmmmmmm- o*;9:8qqwqtw9wiqtytpt8eiiyruuuayeaiyyatisaazaazaazsaszzsssllllsaiyyyt9mmmmm",
"mmmmmmmmmmmmmmmmmmmmmmmmmmmmmO O;;-99ew9qeqeq0ieiyyttqeairrryzaryaiyriiiaaaasasazzazxzzzzzcccclspytyyt;mmmm",
"mmmmmmmmmmmmmmmmmmmmmmmmmmmmXoO:::-:9eqwqeq8eqyyueqyyeeuieyryzieppyyyiiipaapaasaazzzzszzlllccczlaytttte9qmm",
"mmmmmmmmmmmmmmmmmmmmmmmmmm;@$*;;-:8;9q9wwweqeeeii00ieetuyyeriaeyiiiyiyaaassaaazzszzsszzzlllzczzzaywtttte:mm",
"mmmmmmmmmmmmmmmmmmmmmmmmm-O$,;:-:q:8q9ww98wqte0yy0eiqyiyreyruryiiyyuiuaassaszapzzzzzzzzzlslzzzzzpywttwtq9&m",
"mmmmmmmmmmmmmmmmmmmmmmm:OO**;::=9r-qtqwrq99-wy0yi0tt9eyeyu0yirtuyyaiiaaaaazasaazzzxzzszasslzzzzsatewtewq9:O",
"mmmmmmmmmmmmmmmmmmmmm8oO***-9-;-:t-t9ettwt8:qeqtwtttt0eiieeeryiiyiauaaaaazazzaaapzzszsaaaslzzzlaiw9wwqeq99O",
"mmmmmmmmmmmmmmmmmmmm*oO****;:;-:989r8wyteq9qeteq8etteqyeyyqyiyyiytaaiaaazaazaazpazapzzaaaaalllait99eq9999:O",
"mmmmmmmmmmmmmmmmmm8*oOOO*-:::-:8wqqwwwuiy9wwqetweqttqqqyy90iiyrreaauiaiiaaiaaaaaaauaaaapuiuaaiyye;999::::=X",
"mmmmmmmmmmmmmmmmmO O*,$$*-::--e:8tw8tyiiqtw8wewq-wr999eye0tiiyeetiiaiiiuiiiaaauaatiauiiiiyyyyee9;;:8-*--=Om",
"mmmmmmmmmmmmmmmOoX*O****&-:-*:q88wt9tiietqqewetw9ueq:wtywwwyyyyyyeiuyyiayraauuuuttiiyytetewqq9-=---;***&Omm",
"mmmmmmmmmmmmmm oo@$$OO**;;:q*8q8wte0eiywtwwwyeqqtewq89weweeyyyyeqwtwteeiyeauiuiitytttwqqq9::--****;**&Oo0mm",
"mmmmmmmmmmmm*oOOOOOOOO*;;:89:eqqrttw9a98ye99yt8tq9w9wwwt9eeteeq9w9qqwteetyyiytytttwwwe8;--&********&OOmmmmm",
"mmmmmmmmmmmOooOOX$****-;::988t8qetyt:p8;wwqquer90:qww9wqwqet99q9q88wqwtrtrrrttteww99::-**&OOOO;;mmmmmmmmmmm",
"mmmmmmmmmmOooOoOOO&*--8:-8999e9wtwty0i;wqiwqttwt9;ww98qww8eq--;8:-89qettwwwwwweq98:--**$OO0mmmmmmmmmmmmmmmm",
"mmmmmmmmm: o$OOOO***:::=:9-qe9weyw8ytuwqwi98ywqw9q89;9qq88:--*;--:999qqqqqq0888:-***O$emmmmmmmmmmmmmmmmmmmm",
"mmmmmmmmO O*O*****--:9-=:9&qrq9wiw9eeae9y99rrqtq::-::--::-*O**---::::99q899:---**O*O*mmmmmmmmmmmmmmmmmmmmmm",
"mmmmmmmOXXO*O****;*-:9:::8-wtw9qaqwqqpe8t:-uqetq;-------&*OoO&***--;-------&O*OOOO9mmmmmmmmmmmmmmmmmmmmmmmm",
"mmmmmmo@ $******-:*&:-:;988wewwteqrety:9tqwqqee:---*OOOOOOOOOOOOO**OOO$$O$OOO*O8mmmmmmmmmmmmmmmmmmmmmmmmmmm",
"mmmmmX$ o***;;**:::&O-e8:9;qwqtteweiy;9tett9899-*OOOOXXOOOOOOoooOOOOOOO$O$**emmmmmmmmmmmmmmmmmmmmmmmmmmmmmm",
"mmmmo* *O-----::**:*&:9e9qe;qqreteei99eqtyw8:9-**@@@o oOOoO$OOOoOO$$O$*;8mmmmmmmmmmmmmmmmmmmmmmmmmmmmmmmmmm",
"mmmoo O***:::*99&:----q9;et-:wt9yyttq9qwyrq99=*OX@@@o@oo*mmmmmmmmmmmmmmmmmmmmmmmmmmmmmmmmmmmmmmmmmmmmmmmmmm",
"mmo*XO****-;::9-&;99;:qr-ww8:qrtwyyw0w8eyte;:-&XX @oo*mmmmmmmmmmmmmmmmmmmmmmmmmmmmmmmmmmmmmmmmmmmmmmmmmmmmm",
"O @@$$-:9:q:&:::--:eeqqwwt8qqqtyttew9wtqtr9;:*X@+@+*mmmmmmmmmmmmmmmmmmmmmmmmmmmmmmmmmmmmmmmmmmmmmmmmmmmmmmm"
};
