/* XPM */
static char *result[] = {
/* columns rows colors chars-per-pixel */
"140 55 111 2 ",
"   c black",
".  c #070707",
"X  c #0B0B0B",
"o  c #170F07",
"O  c #1F170B",
"+  c #131313",
"@  c #1B1B1B",
"#  c #13230B",
"$  c #2B230F",
"%  c #332B13",
"&  c #3F2F17",
"*  c #00002F",
"=  c #00003B",
"-  c #232323",
";  c #272727",
":  c #2F2F2F",
">  c #373F27",
",  c #373737",
"<  c gray23",
"1  c #430000",
"2  c #4F0000",
"3  c #530707",
"4  c #6B0F0F",
"5  c #771717",
"6  c #43331B",
"7  c #4B371B",
"8  c #533F1F",
"9  c #732B00",
"0  c #4F3B23",
"q  c #533F2F",
"w  c #3F472B",
"e  c #5F4323",
"r  c #5B472B",
"t  c #474F33",
"y  c #574333",
"u  c #5F4B37",
"i  c #53573B",
"p  c #6B4727",
"a  c #774F2B",
"s  c #7F532F",
"d  c #675333",
"f  c #67533F",
"g  c #000053",
"h  c #6F006B",
"j  c #434343",
"k  c gray28",
"l  c #4B4B4B",
"z  c gray31",
"x  c gray34",
"c  c #5B5B5B",
"v  c #6F5743",
"b  c #775F4B",
"n  c #5B6347",
"m  c #676B4F",
"M  c #6F7357",
"N  c gray39",
"B  c gray42",
"V  c #6F6F6F",
"C  c #7B7F63",
"Z  c #777777",
"A  c gray50",
"S  c #874307",
"D  c #AF7B1F",
"F  c #875733",
"G  c #8F5F37",
"H  c #9B633B",
"J  c #A36B3F",
"K  c #836B57",
"L  c #8B735B",
"P  c #AB6F43",
"I  c #B37347",
"U  c #BF7B4B",
"Y  c #937B63",
"T  c #9B7F6B",
"R  c #CB7F4F",
"E  c #C39B2F",
"W  c #9F876F",
"Q  c #A78F77",
"!  c #AF977F",
"~  c #CF8353",
"^  c #D78B5B",
"/  c #D7BB43",
"(  c #FFA35B",
")  c #DF9363",
"_  c #E79B6B",
"`  c #EFA373",
"'  c #F7AB7B",
"]  c #838383",
"[  c #8B8B8B",
"{  c #939393",
"}  c #979797",
"|  c #9F9F9F",
" . c #B79F87",
".. c #BFA78F",
"X. c #A7A7A7",
"o. c gray67",
"O. c gray70",
"+. c #B7B7B7",
"@. c gray75",
"#. c #FFB383",
"$. c #FFBB93",
"%. c #FFBF9B",
"&. c #F3A3A3",
"*. c #FFC7A7",
"=. c #FFCFB3",
"-. c #FFD7BB",
";. c gray78",
":. c #CBCBCB",
">. c LightGray",
",. c #DFDFDF",
"<. c #00FF00",
/* pixels */
"<.<.<.<.<.<.<.<.<.<.<.<.<.<.<.<.<.<.<.<.<.<.<.<.<.<.<.<.<.<.<.<.<.<.<.<.<.<.<.<.<.<.<.<.<.<.<.<.<.<.<.<.<.<.<.<.<.<.<.<.<.<.<.<.<.<.<.<.<.<.<.<.<.<.<.<.<.<.<.<.<.<.<.<.<.<.<.<.<.<.<.<.<.<.<.<.<.<.<.<.<.<.<.<.<.k z B c <.<.<.<.<.<.<.<.<.<.<.<.<.<.<.<.<.<.<.<.<.<.<.<.<.<.<.<.<.<.<.",
"<.<.<.<.<.<.<.<.<.<.<.<.<.<.<.<.<.<.<.<.<.<.<.<.<.<.<.<.<.<.<.<.<.<.<.<.<.<.<.<.<.<.<.<.<.<.<.<.<.<.<.<.<.<.<.<.<.<.<.<.<.<.<.<.<.<.<.<.<.<.<.<.<.<.<.<.<.<.<.<.<.<.<.<.<.<.<.<.<.<.<.<.<.<.<.<.<.<.<.<.<.<.<.<.k ,   : B A <.<.<.<.<.<.<.<.<.<.<.<.<.<.<.<.<.<.<.<.<.<.<.<.<.<.<.<.<.<.",
"<.<.<.<.<.<.<.<.<.<.<.<.<.<.<.<.<.<.<.<.<.<.<.<.<.<.<.<.<.<.<.<.<.<.<.<.<.<.<.<.<.<.<.<.<.<.<.<.<.<.<.<.<.<.<.<.<.<.<.<.<.<.<.<.<.<.<.<.<.<.<.<.<.<.<.<.<.<.<.<.<.<.<.<.<.<.<.<.<.<.<.<.<.<.<.<.<.<.<.<.<.<.<.<.k ;     - } c <.<.<.<.<.<.<.<.<.<.<.<.<.<.<.<.<.<.<.<.<.<.<.<.<.<.<.<.<.",
"<.<.<.<.<.<.<.<.<.<.<.<.<.<.<.<.<.<.<.<.<.<.<.<.<.<.<.<.<.<.<.<.<.<.<.<.<.<.<.<.<.<.<.<.<.<.<.<.<.<.<.<.<.<.<.<.<.<.<.<.<.<.<.<.<.<.<.<.<.<.<.<.<.<.<.<.<.<.<.<.<.<.<.<.<.<.<.<.<.<.<.<.<.<.<.<.<.<.<.<.<.<.<.<.k ;     - ;.A <.<.<.<.<.<.<.<.<.<.<.<.<.<.<.<.<.<.<.<.<.<.<.<.<.<.<.<.<.",
"<.<.<.<.<.<.<.<.<.<.<.<.<.<.<.<.<.<.<.<.<.<.<.<.<.<.<.<.<.<.<.<.<.<.<.<.<.<.<.<.<.<.<.<.<.<.<.<.<.<.<.<.<.<.<.<.<.<.<.<.<.<.<.<.<.<.<.<.<.<.<.<.<.<.<.<.<.<.<.<.<.<.<.<.<.<.<.<.<.<.<.<.<.<.<.<.<.<.<.<.<.<.<.<.k ;     + : c <.<.<.<.<.<.<.<.<.<.<.<.<.<.<.<.<.<.<.<.<.<.<.<.<.<.<.<.<.",
"<.<.<.<.<.<.<.<.<.<.<.<.<.<.<.<.<.<.<.<.<.<.<.<.<.<.<.<.<.<.<.<.<.<.<.<.<.<.<.<.<.<.<.<.<.<.<.<.<.<.<.<.<.<.<.<.O O O O O O O O O O O O O - - ; <.<.<.<.<.<.<.<.<.<.<.<.<.<.<.<.<.<.<.<.<.<.<.<.<.<.<.<.<.<.<.<.z ;     + : ;.A <.<.<.<.<.<.<.<.<.<.<.<.<.<.<.<.<.<.<.<.<.<.<.<.<.<.<.<.",
"<.<.<.<.<.<.<.<.<.<.<.<.<.<.<.<.<.<.<.<.<.<.<.<.<.<.<.<.<.<.<.<.<.<.<.<.<.<.<.<.<.<.<.<.<.<.<.<.<.<.<.<.O o o o o + + + + + + + O O O O O - - - - - - - - - - O - O O O O O O O O ; - <.<.<.<.<.<.<.<.<.<.<.<.<.k ;     + @ { c <.<.<.<.<.<.<.<.<.<.<.<.<.<.<.<.<.<.<.<.<.<.<.<.<.<.<.<.",
"<.<.<.<.<.<.<.<.<.<.<.<.<.<.<.<.<.<.<.<.<.<.<.<.<.<.<.<.<.<.<.<.<.<.<.<.<.<.<.<.<.<.<.<.<.<.<.<.O + . .                                             . . X X . X X X X X X X X X X X X X X X X o O O O O O O + + - @       + , A <.<.<.<.<.<.<.<.<.<.<.<.<.<.<.<.<.<.<.<.<.<.<.<.<.<.<.<.",
"<.<.<.<.<.<.<.<.<.<.<.<.<.<.<.<.<.<.<.<.<.<.<.<.<.<.<.<.<.<.<.<.<.<.<.<.<.<.<.<.<.<.<.<.<.O +                                                         @ < q , 6 % % $ $ O + O O + o X X X . . X                   - @     + @ } c <.<.<.<.<.<.<.<.<.<.<.<.<.<.<.<.<.<.<.<.<.<.<.<.<.<.<.",
"<.<.<.<.<.<.<.<.<.<.<.<.<.<.<.<.<.<.<.<.<.<.<.<.<.<.<.<.<.<.<.<.<.<.<.<.<.<.<.<.<.<.<.# .                                                           . O % & & 8 e 7 & 8 . . 8 0 e e 7 y y q X                     + - @   + - ;.A <.<.<.<.<.<.<.<.<.<.<.<.<.<.<.<.<.<.<.<.<.<.<.<.<.<.<.",
"<.<.<.<.<.<.<.<.<.<.<.<.<.<.<.<.<.<.<.<.<.<.<.<.<.<.<.<.<.<.<.<.<.<.<.<.<.<.<.<.<.O                                                                 . . O 6 % % % $ % & . . $ . % 6 O % y y o                       @ - @   @ , < <.<.<.<.<.<.<.<.<.<.<.<.<.<.<.<.<.<.<.<.<.<.<.<.<.<.<.",
"<.<.<.<.<.<.<.<.<.<.<.<.<.<.<.<.<.<.<.<.<.<.<.<.<.<.<.<.<.<.<.<.<.<.<.<.<.<.<.- +                                                                   . . O O % $ % q & % . & . . $ $ o $ % ; .                         @ - @ + - B A <.<.<.<.<.<.<.<.<.<.<.<.<.<.<.<.<.<.<.<.<.<.<.<.<.<.",
"<.<.<.<.<.<.<.<.<.<.<.<.<.<.<.<.<.<.<.<.<.<.<.<.<.<.<.<.<.<.<.<.<.<.<.<.<.- O                                                                       . $ O X : : % $ X X . 6 $ . $ & O % % X .                           + @ @ @ @ @ @ @ @ @ @ @ - <.<.<.<.<.<.<.<.<.<.<.<.<.<.<.<.<.<.<.",
"<.<.<.<.<.<.<.<.<.<.<.<.<.<.<.<.<.<.<.<.<.<.<.<.<.<.<.<.<.<.<.<.<.<.<.<.- +                                                                         . O $ O $ $ $ X   . . $ $ O O % % $     .                               + + + + + + + @ @ @ @ @ @ @ - <.<.<.<.<.<.<.<.<.<.<.<.<.<.<.",
"<.<.<.<.<.<.<.<.<.<.<.<.<.<.<.<.<.<.<.<.<.<.<.<.<.<.<.<.<.<.<.<.<.<.<.O o                                                                           . . . . & % % $ $ O . o O + o + @ @ X . .                                                 + + + + @ @ @ @ - <.<.<.<.<.<.<.<.<.<.<.<.",
"<.<.<.<.<.<.<.<.<.<.<.<.<.<.<.<.<.<.<.<.<.<.<.<.<.<.<.<.<.<.<.<.<.<.-                                                                               . % % O O % % O $ $ . % @ X . - % 6 6 +                                                             + + + + @ @ - <.<.<.<.<.<.<.<.<.",
"<.<.<.<.<.<.<.<.<.<.<.<.<.<.<.<.<.<.<.<.<.<.<.<.<.<.<.<.<.<.<.<.<.%                                                                                 . $ $ $ O . @ O O + . @ . X   . o : : o                                                                       + + o - <.<.<.<.<.<.<.",
"<.<.<.<.<.<.<.<.<.<.<.<.<.<.<.<.<.<.<.<.<.<.<.<.<.<.<.<.<.<.<.<.% +                                                                                 . % $ @ $ O . . .   @ :   . @ - X @ @ .                                                                               - <.<.<.<.<.<.",
"<.<.<.<.<.<.<.<.<.<.<.<.<.<.<.<.<.<.<.<.<.<.<.<.<.<.<.<.<.<.<.% +                   % e a e 0 % +                                                     O + + - O         o - . X + - o .                                                                                     - <.<.<.<.<.",
"<.<.<.<.<.<.<.<.<.<.<.<.<.<.<.<.<.<.<.<.<.<.<.<.<.<.<.<.<.<.<.O             & s H ~ _ %.%.%.#._ U I & +                                                         .           .                                                                                                 - <.<.<.<.",
"<.<.<.<.<.<.<.<.<.<.<.<.<.<.<.<.<.<.<.<.<.<.<.<.<.<.<.<.<.<.%         + 0 P ~ _ #.#.' ' ' ' ' ' ' ` ) U P f $ .   + - % : : : % % % - - + + + + o . . .                                                                                                                         - <.<.<.",
"<.<.<.<.<.<.<.<.<.<.<.<.<.<.<.<.<.<.<.<.<.<.<.<.<.<.<.<.<.<.O       O U R ^ _ ` ' ' ` ` ` ` _ ) ^ ^ ^ R R R R U U U <.<.<.<.<.<.<.<.<.<.<.<.<.<.<.<.<.<.<.<.<.<.<.<.<.<.<.<.<.- - O # + + + + o                                                                                 o <.<.<.",
"<.<.<.<.<.<.<.<.<.<.<.<.<.<.<.<.<.<.<.<.<.<.<.<.<.<.<.<.<.w o     . J ^ _ ) ^ _ ` ' ' #.#.#.` ` ` ` ` ` ` _ ) ) R R R U U <.<.<.<.<.<.<.<.<.<.<.<.<.<.<.<.<.<.<.<.<.<.<.<.<.<.<.<.<.<.<.<.<.<.<.<.<.k : ; ; ; - @ @ @ @                                                           - <.<.",
"<.<.<.<.<.<.<.<.<.<.<.<.<.<.<.<.<.<.<.<.<.<.<.<.<.<.<.<.<.%     o F ^ _ ) ^ ) _ ` ` ' ' #.#.#.#.' ' _ ) ` $.' ` _ ^ ^ ^ R U U <.<.<.<.<.<.<.<.<.<.<.<.<.<.<.<.<.<.<.<.<.<.<.<.<.<.<.<.<.<.<.<.<.<.<.<.<.<.<.<.<.<.<.<.-           - A A - - - +                                     <.<.",
"<.<.<.<.<.<.<.<.<.<.<.<.<.<.<.<.<.<.<.<.<.<.<.<.<.<.<.<.<.O   O a U _ ) ^ ^ ^ _ _ ` ' ' ' ' ' ' ' _ U U ) ` $.#.#.' ` ) ) ) ) U I <.<.<.<.<.<.<.<.<.<.<.<.<.<.<.<.<.<.<.<.<.<.<.<.<.<.<.<.<.<.<.<.<.<.<.<.<.<.<.<.<.<.:           - < c <.<.<.<.- O                                 - <.",
"<.<.<.<.<.<.<.<.<.<.<.<.<.<.<.<.<.<.<.<.<.<.<.<.<.<.<.<.6 O   F J ) _ ^ ^ ~ ^ ) _ _ ` ` ` _ _ _ _ R U H H R #.) U ) #.#.` _ ) ) ) ^ I I J <.<.<.<.<.<.<.<.<.<.<.<.<.<.<.<.<.<.<.<.<.<.<.<.<.<.<.<.<.<.<.<.<.<.<.<.<.<.: o           l A <.<.<.<.<.<.- +                             o <.",
"<.<.<.<.<.<.<.<.<.<.<.<.<.<.<.<.<.<.<.<.<.<.<.<.<.<.<.<.; O s J U _ ) ^ ~ ~ ^ ) _ ` ` ` _ ^ ^ ) ) U I U G s U U s F H P U R ` ` ) _ ) ^ I J <.<.<.<.<.<.<.<.<.<.<.<.<.<.<.<.<.<.<.<.<.<.<.<.<.<.<.<.<.<.<.<.<.w O o   o             ; k c <.<.<.<.<.<.<.-                             % ",
"<.<.<.<.<.<.<.<.<.<.<.<.<.<.<.<.<.<.<.<.<.<.<.<.<.<.<.<.O d F I ) _ ^ ~ ~ ~ ) _ ` ' ` _ ) ^ ~ R R ^ U I P & a J a 7 a s G H J I U ) ) _ ) I J <.<.<.<.<.<.<.<.<.<.<.<.<.<.<.<.<.<.<.<.<.<.<.<.<.<.<.<.<.% % % -                     : A A <.<.<.<.<.<.<.<.-                           - ",
"<.<.<.<.<.<.<.<.<.<.<.<.<.<.<.<.<.<.<.<.<.<.<.<.<.<.<.6 p s G R _ ) ^ ~ ~ ^ ) ` ' ' ` ) ) ~ ^ _ R I ^ R R & & p & o e p s F H U U R U ^ ^ I J <.<.<.<.<.<.<.<.<.<.<.<.<.<.<.<.<.<.<.<.<.<.<.<.<.<.<.t %     .                       - < x <.<.<.<.<.<.<.<.<.+                         + ",
"<.<.<.<.<.<.<.<.<.<.<.<.<.<.<.<.<.<.<.<.<.<.<.<.<.<.<.p s s J ^ _ ^ ~ ~ ^ ) _ ' ' ' ` ) ) ~ _ ` ) U P _ ^ & o % r b W ..&.&.&.%.&.&.&.&.&...@.@.:.@.+.+.+...+.+.........! ! ! ! [ [ C C C M m n i m m % ; i x j < , : ; ; ; . .     - l A <.<.<.<.<.<.<.<.<.-                         o ",
"<.<.<.<.<.<.<.<.<.<.<.<.<.<.<.<.<.<.<.<.<.<.<.<.<.<.p a F G U _ ) ^ ~ ~ ^ _ ` ' ` ` ` ` ) ~ ) _ $.^ J ^ ` r L  .+.:.:.:.:.:.;.;.:.>.>.>.>.>.>.>.:.:.:.>.>.>.>.:.:.:.:.:.:.:.:.;.;.;.;.;.;.;.;.:.@.@.-.Q > { O.X.x < < < < : : +   +   ; k c <.<.<.<.<.<.<.<.<.-                         ",
"<.<.<.<.<.<.<.<.<.<.<.<.<.<.<.<.<.<.<.<.<.<.<.<.<.p a F H J U ) ) ^ ~ ^ ) _ ` ' #.#.#.` ^ ~ ^ ) ` $.$.` _ F ! [ Z Z ] ] ] { { | O.O.O.+.+.@.@.>.>.>.:.;.;.;.;.:.:.:.:.;.;.@.;.;.>.:.;.;.;.@.@.:.:.;.>.,.. # % t C i j j < , : +       , A A <.<.<.<.<.<.<.<.<.- @ @                     ",
"<.<.<.<.<.<.<.<.<.<.<.<.<.<.<.<.<.<.<.<.<.<.<.<.r a H J J J R ) ^ ~ ~ ^ _ ` ` ' $.$.#.` ~ R U ~ ^ ` ` ` ^ H f ; ; - - @ + * = = = g g g g g = = * = = ; : : ; ; h < , j k k k k l x N V N N l < < l V N       + ..[ k k k j : +         + + @ @ @ @ @ <.<.<.<.@                         ",
"<.<.<.<.<.<.<.<.<.<.<.<.<.<.<.<.<.<.<.<.<.<.<.p a G J I P P ^ ) ^ ~ ~ ) _ _ ` #.%.$.$.` ) U R U U ~ ^ ^ P H 6 6 , q k f v b b v x u u q q , ; ; $ O O O o o o . o . . O O o o . . . o # # O O O O % k w         ..+.n z z z :           + +         + @ @ @ <.@                         ",
"<.<.<.<.<.<.<.<.<.<.<.<.<.<.<.<.<.<.<.<.<.<.a a F H I U U U ^ ) ) ^ ) ` _ ) ` ` $.%.%.%.%.` ) ~ ~ P J G G H 0 q q q q a s a a a a a F J Y Y Y T K w + + + o o .       . . o . . o . o + + O O + O O ; O       , ..>.o.[ C N >           + + + + o o o   o @ @ @                         ",
"<.<.<.<.<.<.<.<.<.<.<.<.<.<.<.<.<.<.<.<.<.a a G J I U U U R ^ ) ) _ ` _ ) ) ) ` ` #.#.$.%.*.=.*.$.#.#.) ~ I H 3 4 4 5 5 5 4 3 3 2 F I ^ ^ ^ ~ H p $ o O O o .       o o o O O O O O O ; % ; O O $ ; O .   0 ^ %.*.%.$.#.' ' I %         + @ @ @ @ @ @ +     O @ +                       ",
"<.<.<.<.<.<.<.<.<.<.<.<.<.<.<.<.<.<.<.<.a H P ~ ) ) ~ U U ^ ) _ ` ' ` _ ) ) ) ) _ ` #.#.#.#.%.%.*.=.=.*.$.#.` ` ` ` ` ^ ^ ^ ^ ^ ^ ~ ~ ~ ~ ~ ~ ~ U p 0 $ o         o .     o o o o O $ $ $ $ o o o O o   6 ^ #.%.*.%.$.#.' ' ` I .       + - - - - - - - @ o   @ @                       ",
"<.<.<.<.<.<.<.<.<.<.<.<.<.<.<.<.<.<.J J P U R R U ~ ) ) R ^ ) ` ' ' ` ` ` _ _ _ ` #.#.#.#.#.#.#.#.%.%.*.%.#.$.%.%.%.%.%.%.%.%.%.%.%.%.%.' ' ` ) ^ s e $           o + o . o o o o . . . . .             ^ ` #.%.%.$.$.#.' ) _ U ,       , w j - - - - @ @ + o + @                       ",
"<.<.<.<.<.<.<.<.<.<.<.<.<.<.<.<.<.G J H H H U U ~ ~ R U ) R ^ ) ` _ _ ) ) ) ` #.#.` ` _ _ _ ` ` ` ` #.#.*.%.#.' ' ' #.%.%.%.$.%.%.#.#.#._ _ _ ^ ~ s 0 %                                               . _ ` #.%.$.$.$.#.' ) ) I p         j t , - - @ @ @ % ; + @                     o ",
"<.<.<.<.<.<.<.<.<.<.<.<.<.H F H U ) ) U I I G G H U _ ^ R ^ ~ ~ ^ ^ ^ ^ _ ` ` _ ^ ^ ^ ) ) ) ) ) _ _ ` ` ' ' ` ` ` ` ` ` _ _ ) ) ) ) ^ ^ R U U U J a 0 %                                     # O . ; .   H ` %.%.$.#.#.' _ ) ) I d         - : -           o   @ @                       ",
"<.<.<.<.<.<.<.<.<.<.<.<.H F F a a a F U ) ) ~ U P G H ~ _ ^ R R R ^ ) ) ^ ~ ~ ^ ^ ^ ^ ) ) ^ ^ ^ ^ ~ ~ ~ ~ ~ ~ ~ U U U ~ ^ R R U U U U I J J H F a p 6 $                                 + j x >   z ,   e ^ %.$.#.' ' ` _ ^ ^ J p                             @ @                       ",
"<.<.<.<.<.<.<.<.<.<.<.P H I ^ ) U H e a H P ^ _ ~ U P H P ) ) ~ U U U U U U U U R R R R R R R R ^ ~ R R R R R U P J J I I I J J J G s a p e 8 & % % O                                 . N j - - # j ,   0 ^ %.#.' ` ` _ ^ ^ ^ H 0       % 0 0 e 0 6 ; +       @ @ o                     ",
"<.<.<.<.<.<.<.<.<.<.P ~ U P H H P ) U J e a G G U ^ U U P H ~ ) ~ R R U U P J P P P P P P P P P P P P P P P P H H H H H H H G s a p e 8 6 O O o . .                                     - i ! @.i O     u %.$.' ( ` _ ) ) ) ) J 0   O G ^ ' ' ' ' ' ' ' ) R a @ @ + + + + + + + +       ",
"<.<.<.<.<.<.<.<.<.~ ) ~ P J F F 8 e F P H F a F F H I ~ U I H I ) ~ R I P J J J H H H H H G G G G G F F F s s a p e 8 & 1 O O o o . . . . . .   . o                                           o         P %.#.' ` _ _ ) ) ) ) P 0   q U ) ' ' ' ' ' ' ' _ _ U P @ X @ @ @ @ @ @ @ - +   ",
"<.<.<.<.<.<.J J ~ ) ~ ~ ~ ~ ^ R R P G 8 F P a a a a s F P U I H J ~ U I I F F F F F F F p p p p p p p p p e e & & O O o . . . . . .                                               + + + - % ; - +       ) %.#.' ` _ _ _ ) ) _ P 7 . J R _ ' ' ' ` _ _ _ _ ) _ R a X X X - - - - - - -   ",
"<.<.<.<.<.J U I J F F F F F F F P R R P P F H 8 p p a s F P U J a G P U P F F s s a p e 7 7 7 7 8 8 8 8 7 & . . . . . . % 6                                       o + + + + + + + # +                 P %.$.#.' ` _ _ _ ) ) _ P r 7 R ~ ` ' ' ` _ _ _ _ ^ ~ ~ ` H + + + + + @ @ @ @ @   ",
"<.<.<.<.J U F 7 & 0 0 0 0 % $ $ & 8 p P R R H F 8 7 p G F F H J G e s P H F a a p p 8 & & % % % % % % % . . . . . o , <.<.<.o               + +                   .                                 O ) $.#.' ` _ _ ) ) ) _ _ P p G ~ ^ ` ` ` _ _ _ ) ^ R I ~ _ G @ @ @ @ @ @ @ @ - @   ",
"<.<.<.<.J F & 8 e G G G G a e 7 8 7 & % p P P R a 7 % a H s F H G s 8 s H F p p p 8 7 & O $ O o . .         O , <.<.<.<.<.<.                . .                                                     P %.#.#.' _ _ ) ^ ^ ^ ) ) I p J ^ ) _ ` ` ) ) ) ^ R I J ~ _ J $ +           @ - @   ",
"<.<.<.J G p e G H R R G R ) R U I F a 8 7 % p P R H 7 % F P s F G G e % F p e e e 7 & O $ O o .         . q <.<.<.<.<.<.<.<.                                                                      O H ` ) ) ) ) ) ^ ^ ^ ^ ) ^ U J P ) _ _ ) ) ) ^ ^ U I J J ~ ^ G ; +   ; ; ; -   - @   ",
"<.<.<.J G 8 G P J P ` P I I ) J P U U H s 8 7 8 s P H F F ^ H a s a p 7 % 8 8 8 % $ O O O o .         O e <.<.<.<.<.<.<.<.                                                                        e I ^ R R ^ ^ ^ R R R ~ R ~ R I U _ ` ) ) R R I I I P J P ~ ^ G 0 % 7 $ , , -   - @   ",
"<.<.<.s s H P P ^ ~ ) I I H ` I F ^ ) ) U G 7 % 8 F P P ^ _ ~ s s p a $ $ % % $ O O O . .         O e <.<.<.<.<.<.<.<.G o .                                                                       p I U U U R R R R R R R R ~ ^ U R _ ` ^ U J J P P J J J P U R G $ / / G 8 $ -   - @   ",
"<.<.p s ) I ^ ^ R P ) I H F ^ R I ~ ) ^ ) U a 7 % 8 p F J ~ ~ H s p 8 $ $ $ O o o . .         o & <.<.<.<.<.<.<.F 9   @ ; o                                                                     o e G G J J U U U U U U U R R R U R ) ^ J F F G J J H H J I I I G 7 U E E E E F 7 - @   ",
"<.G I P ) ^ ) P ) _ ^ ^ ~ I ` ` ~ I _ _ ) P F e 7 % 8 e F H I P G e & $ $ . .             o   & <.<.<.<.<.S G U 9     + @ ; o                                                                 O & 7 s F G H J J P P U U U U U U R R U J F s s F F G G G H H J J G r D U R R R R U G S o ",
"G J J ^ R ^ ` U H ) ) ) ) I _ ) I ~ ` ) ^ J a e 7 7 7 7 & e G J G e                       & <.<.<.<.<.<.9 H P D         + @ - o                                                   .         . $ O & F F F G H J J J J J P P U U U J F F s a a s s F F F G H P J G d D D U U U U D P H 9 ",
"P P G ^ _ I ^ ) I ~ U U ` ) $.J H ) ` ~ P H e e 7 7 % 7 &   e s s e                 & <.<.<.<.<.<.<.<.<.S P I P           + @ @                                                   + . . .     o O 7 F F F G G G H J J H J J J J J G F s a a a a a s s F G G P J G F D D D U U U P I P S "
};
