/* XPM */
static char *result[] = {
/* columns rows colors chars-per-pixel */
"54 44 61 1 ",
"  c #7F1B1B",
". c #A70000",
"X c #B30000",
"o c #BF0000",
"O c #8B2323",
"+ c #972F2F",
"@ c #9B3333",
"# c #A33B3B",
"$ c #A73F3F",
"% c #CB0000",
"& c #D70000",
"* c #E30000",
"= c #EF0000",
"- c red",
"; c #FF1F1F",
": c #FF3F3F",
"> c #B74700",
", c #C34F00",
"< c #CB5707",
"1 c #D75F0B",
"2 c #DF670F",
"3 c #EB6F0F",
"4 c #F37317",
"5 c #AF4747",
"6 c #B34F4F",
"7 c #BB5757",
"8 c #BF5B5B",
"9 c #B37347",
"0 c #BF7B4B",
"q c #FF5F5F",
"w c #CB7F4F",
"e c #C76363",
"r c #CB6B6B",
"t c #FF7B7B",
"y c #D78B5B",
"u c #FFA35B",
"i c #EFA373",
"p c #F7AB7B",
"a c #DF8787",
"s c #E78F8F",
"d c #FF9B9B",
"f c #FFB383",
"g c #FFBB93",
"h c #FFBF9B",
"j c #F3A3A3",
"k c #F7ABAB",
"l c #FFB7B7",
"z c #FFBBBB",
"x c #FFC7A7",
"c c #FFCFB3",
"v c #FFD3BB",
"b c #FFD7BB",
"n c #FFFFB3",
"m c #FFDBC7",
"M c #FFE3D3",
"N c #FFEBDB",
"B c #FFEBDF",
"V c #FFFFD7",
"C c #EFEFEF",
"Z c white",
"A c #00FF00",
/* pixels */
"AAAAAAAAAAAAAAAAAAAAAAAAAAe8AAAAAAAAAAAAAAAAAAAAAAAAAA",
"AAAAAAAAAAAAAAAAAAAAAAAAAA86AAAAAAAAAAAAAAAAAAAAAAAAAA",
"AAAAAAAAAAAAAAAAAAAAAAAAAA76AAAAAAAAAAAAAAAAAAAAAAAAAA",
"AAAAAAAAAAAAAAAAAAAAAAAAAA99AAAAAAAAAAAAAAAAAAAAAAAAAA",
"AAAAAAAAAAAAAAAAAAAAAAAAA79978AAAAAAAAAAAAAAAAAAAAAAAA",
"AAAAAAAAAAAAAAAAAAAAAAAAA70075AAAAAAAAAAAAAAAAAAAAAAAA",
"AAAAAAAAAAAAAAAAAAAAAe6&:riyr:&AAAAAAAAAAAAAAAAAAAAAAA",
"AAAAAAAAAAAAAAAAAAA87#+;:wfuw:;=77AAAAAAAAAAAAAAAAAAAA",
"AAAAAAAAAAAAAAAAAAA5+o=;:qguq:;=o+6AAAAAAAAAAAAAAAAAAA",
"AAAAAAAAAAAAAAAAAAA#&;=:qthitq:=;&8AAAAAAAAAAAAAAAAAAA",
"AAAAAAAAAAAAAAAA87+=&;::qpcxpq::;=#@7AAAAAAAAAAAAAAAAA",
"AAAAAAAAAAAAAAe7@+%&==;qtfbmftq;===;+oAAAAAAAAAAAAAAAA",
"AAAAAAAAAAAAAA8#&&&&==;tdxVVxdt;==-=*&;AAAAAAAAAAAAAAA",
"AAAAAAAAAAAAAA7#&&==-:;tdxVVxdt;:-==-*#AAAAAAAAAAAAAAA",
"AAAAAAAAAAAAAe6*=&=;==:tdvVVvdt:==;==*+AAAAAAAAAAAAAAA",
"AAAAAAAAAAAAAA7*&&=;;;:tkMVVMkt:;;;==**5AAAAAAAAAAAAAA",
"AAAAAAAAAAAAAAA6&;=:::qdzMZZMzdq:::=;;#5AAAAAAAAAAAAAA",
"AAAAAAAAAAA875@*-q;:qqtkmBZZBmktqq:;:*;o5AAAAAAAAAAAAA",
"AAAAAAAAAAe5+5%&=q;qtjkzMBZZBMzkjtq;;;*%X#AAAAAAAAAAAA",
"AAAAAAAAAAA7o5&&;-;ttkzMBBZZBBMzktt;;;*%X+8AAAAAAAAAAA",
"AAAAAAAAAe855**&:q:tkmMBNZZZZNBMmkt:q:&&O558AAAAAAAAAA",
"AAAAAAAAA8$&=:;;-:qtlMBVVZZZZVVBMltq:-;;:=&$8AAAAAAAAA",
"AAAAe88785o&=;;;:qqdzBZZZZAAZZZZBzdqq:;;;=&o8AAAAAAAAA",
"AAAA75555+&====;:ttzmBZVZZAAZZVZBmztt:;====&+A888eAAAA",
"AAAAA+++Oo=;=:=qqszBCVVZZZAAZZZVVCBzsqq=:=;=o8@#57eAAA",
"AAA$..o%====:=:ttkmBVVZZZAAAAZZZVVBmktt:=:====&o578AAA",
"AAAA+o&**;=;;:=:qzMVZZZAAAAAAAAZZZVMzq:=:;;=;**&o+5AAA",
"AA78>X<*=:;;:;:qtzBVVZAAAAAAAAAAZVVBztq:;;;;==*<X=,7eA",
"A871&*;;;;;;;:tdkmNVVAAAAAAAAAAAAVVNmkdt:;;;;;;;=<<68A",
"e8<&==;;;::qttdxmVVVVAAAAAAAAAAAAVVVVmxdttq::;;;3=117e",
"e881&=:;;:qttdxmVVVVAAAAAAAAAAAAAAVVVVmxdttq:;;:;21e8e",
"ee871;;;;::qtdxmMVVVAAAAAAAAAAAAAAVVVMmxdtq::;;;4188ee",
"AAA881;;;;:::qtdxmMAAAAAAAAAAAAAAAAMmxdtq:::;;;;167AAA",
"AAA855;;;;:;;;qqsvMAAAAAAAAAAAAAAAAMvsqq;;;:;;;;#58AAA",
"AAA8$X==:=;q;=;tdnAAAAAAAAAAAAAAAAAAndt;=;q;=:=*O578AA",
"AA67#o;;-===;;qtkvAAAAAAAAAAAAAAAAAAvktq;;===-;;o#56AA",
"Ae855A&=:;--;;:qaAAAAAAAAAAAAAAAAAAAAaq:;;--;:=&A578AA",
"A88AAA&*==;;;;:q:AAAAAAAAAAAAAAAAAAAA:q:;;;;==*&AAAeAA",
"Ae885o%&=;=;;;::AAAAAAAAAAAAAAAAAAAAAA::;;;=;=&%O57AAA",
"AA88$Oo&*===:=::AAAAAAAAAAAAAAAAAAAAAA::=:===*&o $8AAA",
"AAAA5+o&**=;===AAAAAAAAAAAAAAAAAAAAAAAA===;=**&X+5AAAA",
"AAAA87A+A%=*&*=AAAAAAAAAAAAAAAAAAAAAAAA=*&*=%X#57AAAAA",
"AAAAAAA$Aoo&&&AAAAAAAAAAAAAAAAAAAAAAAAAA&&&o.56AAAAAAA",
"AAAAAAAAAAAAAAAAAAAAAAAAAAAAAAAAAAAAAAAAAA%..7AAAAAAAA"
};
