/* XPM */
static char *result[] = {
/* columns rows colors chars-per-pixel */
"44 31 51 1 ",
"  c #7F1B1B",
". c #9B0000",
"X c #B30000",
"o c #BF0000",
"O c #8B2323",
"+ c #972F2F",
"@ c #9B3333",
"# c #A33B3B",
"$ c #A73F3F",
"% c #CB0000",
"& c #D70000",
"* c #E30000",
"= c #EF0000",
"- c red",
"; c #FF1F1F",
": c #FF3F3F",
"> c #C34F00",
", c #CB5707",
"< c #D75F0B",
"1 c #DF670F",
"2 c #EB6F0F",
"3 c #F37317",
"4 c #FF7F1B",
"5 c #AF4747",
"6 c #B34F4F",
"7 c #BB5757",
"8 c #BF5B5B",
"9 c #B37347",
"0 c #FF5F5F",
"q c #C76363",
"w c #FF7B7B",
"e c #FF8F3B",
"r c #DF8787",
"t c #E78F8F",
"y c #FF9B9B",
"u c #FFBF9B",
"i c #F7ABAB",
"p c #FFB7B7",
"a c #FFBBBB",
"s c #FFC7A7",
"d c #FFD3BB",
"f c #FFD7BB",
"g c #FFFFB3",
"h c #FFDBC7",
"j c #FFDBDB",
"k c #FFE3D3",
"l c #FFEBDB",
"z c #FFEBDF",
"x c #FFFFD7",
"c c #EFEFEF",
"v c #00FF00",
/* pixels */
"vvvvvvvvvvvvvvvvvvvv555vvvvvvvvvvvvvvvvvvvvv",
"vvvvvvvvvvvvvvvvvvv7X+#Xvvvvvvvvvvvvvvvvvvvv",
"vvvvvvvvvvvvvvvv87885.#$558vv858vvvvvvvvvvvv",
"vvvvvvvvvvvv55v98655%=;+$67775#5vvvvvvvvvvvv",
"vvvvvvvvvvvv&&,<;1;;;;;;;;1;<X;#vvvvvvvvvvvv",
"vvvvvvvvvvv55;;;;3;:;;;;::3;;3355vvvvvvvvvvv",
"vvvvvvvvv88v5;;;4;:0:;;:::;;;;;v75vvvvvvvvvv",
"vvvvvvvv6++55;;;;e;:0000:;;3:;;5++5#vvvvvvvv",
"vvvvvvvv6%%oo%-;:::0wyyw0:::;;%oo%o5#vvvvvvv",
"vvvvvvv6o%*=;o:=:0wtwppwtw0:;;o;=*%+#vvvvvvv",
"vvvvv866o&&&====:wiajjjjayw:;;==&&&o#$vvvvvv",
"vvvv85+v%*&*=;;;:wpkxccxkiw:0;;=*&*%@$$7vvvv",
"vvv6#o&**;===;::0tpxxxxxkpw000;===;*&%o$8vvv",
"vvv5O%&=;;;;:0ywtydlxvvxkhyywy0:;;;;=&%#7vvv",
"vvq7#&*==;;;:0wipahkgvvxxkaiiw0:::;==*%#7$vv",
"vv888&=:;-;;:wypdkkxxvvxxxzhpyr::;:;:=&+88vv",
"vvv88;;-==;;0ipdhkxxvvvvxgkkhdi0;:==-;;@6qvv",
"vvv88;;;;;;;0tdhkxvvvvvvvvxkkdt00:0::;;v8vvv",
"vvv7<;;;;::0wshkxvvvvvvvvvvxkhsw0::;;;;<7vvv",
"qq883;;;:0wwudhkvvvvvvvvvvvvxxksyw0:;;;388qq",
"q8q<3:;;:wwysfhxvvvvvvvvvvvvxxxsyww:;;:3<q8q",
"q7q<23;;:0wwyhhvvvvvvvvvvvvvvkhyww0:;;32<<7q",
"vv9>X,*==;;;:wavvvvvvvvvvvvvvaw:;;;==*,X>7vv",
"vv85o&**;;;:=0vvvvvvvvvvvvvvvv0=:;;;**&o$8vv",
"vvv7#o&===:=:wvvvvvvvvvvvvvvvvw:=:===&o $vvv",
"vvvv7#%vo;=:=vvvvvvvvvvvvvvvvvv=:=;ov%vXvvvv",
"vvvv88vvv&=;;vvvvvvvvvvvvvvvvvv;;=&vv88vvvvv",
"vvvvvvvv7&=:vvvvvvvvvvvvvvvvvvvv:=&vvvvvvvvv",
"vvvvvvvvv7vovvvvvvvvvvvvvvvvvvvvO@7vvvvvvvvv",
"vvvvvvvvv85vvvvvvvvvvvvvvvvvvvvvv57vvvvvvvvv",
"vvvvvvvvv85vvvvvvvvvvvvvvvvvvvvvv$8vvvvvvvvv"
};
