/* XPM */
static char *result[] = {
/* columns rows colors chars-per-pixel */
"119 121 74 1 ",
"  c black",
". c #170F07",
"X c #0B1707",
"o c #1F170B",
"O c #131313",
"+ c #1B1B1B",
"@ c #2B230F",
"# c #332B13",
"$ c #3F2F17",
"% c #232323",
"& c #272727",
"* c #2F2F2F",
"= c #373737",
"- c gray23",
"; c #430000",
": c #43331B",
"> c #4B371B",
", c #533F1F",
"< c #4F3B23",
"1 c #533F2F",
"2 c #5F4323",
"3 c #6B4727",
"4 c #774F2B",
"5 c #7F532F",
"6 c #67533F",
"7 c #775F3F",
"8 c #434343",
"9 c gray28",
"0 c gray31",
"q c gray34",
"w c #5B5B5B",
"e c #7B634F",
"r c gray39",
"t c gray42",
"y c #6F6F6F",
"u c #777777",
"i c gray50",
"p c #875733",
"a c #8F5F37",
"s c #9B633B",
"d c #A36B3F",
"f c #AB6F43",
"g c #B37347",
"h c #BF7B4B",
"j c #CB7F4F",
"k c #CF8353",
"l c #D78B5B",
"z c #DF9363",
"x c #E79B6B",
"c c #EFA373",
"v c #F7AB7B",
"b c #838383",
"n c #8B8B8B",
"m c #939393",
"M c #979797",
"N c #9F9F9F",
"B c #A7A7A7",
"V c gray67",
"C c gray70",
"Z c #B7B7B7",
"A c gray75",
"S c #FFB383",
"D c #FFBB93",
"F c #FFBF9B",
"G c #FFD3BB",
"H c gray78",
"J c #CBCBCB",
"K c LightGray",
"L c gray86",
"P c #DFDFDF",
"I c #FFE3D3",
"U c #E7E7E7",
"Y c #EFEFEF",
"T c #00FF00",
/* pixels */
"TTTTTTTTTTTTTTTTTTTTTTTTTTTTTTTTTTTTTTTTTTTTTTTTTTTTTT %TT****9TTTTTTTTTTTTTTTTTTTTTTTTTTTTTTTTTTTTTTTTTTTTTTTTTTTTTTTT",
"TTTTTTTTTTTTTTTTTTTTTTTTTTTTTTTTTTTTTTTTTTTTTTTTTTTTTT  0=%%%***0TTTTTTTTTTTTTTTTTTTTTTTTTTTTTTTTTTTTTTTTTTTTTTTTTTTTTT",
"TTTTTTTTTTTTTTTTTTTTTTTTTTTTTTTTTTTTTTTTTTTTTTTTTTTTTT  o8=09*---0TTTTTTTTTTTTTTTTTTTTTTTTTTTTTTTTTTTTTTTTTTTTTTTTTTTTT",
"TTTTTTTTTTTTTTTTTTTTTTTTTTTTTTTTTTTTTTTTTTTTTTTTTTTTTo%  X8tMMi9-0rTTTTTTTTTTTTTTTTTTTTTTTTTTTTTTTTTTTTTTTTTTTTTTTTTTTT",
"TTTTTTTTTTTTTTTTTTTTTTTTTTTTTTTTTTTTTTTTTTTTTTTTTTTTTo*%  %.o +=-0qTTTTTTTTTTTTTTTTTTTTTTTTTTTTTTTTTTTTTTTTTTTTTTTTTTTT",
"TTTTTTTTTTTTTTTTTTTTTTTTTTTTTTTTTTTTTTTTTTTTTTTTTTTTT..%%X=&&=9w88qyTTTTTTTTTTTTTTTTTTTTTTTTTTTTTTTTTTTTTTTTTTTTTTTTTTT",
"TTTTTTTTTTTTTTTTTTTTTTTTTTTTTTTTTTTTTTTTTTTTTTTTTTTT. %9@ $%%=-9rq8qTTTTTTTTTTTTTTTTTTTTTTTTTTTTTTTTTTTTTTTTTTTTTTTTTTT",
"TTTTTTTTTTTTTTTTTTTTTTTTTTTTTTTTTTTTTTTTTTTTTTTTTTTTo&8=X X    *qrq8TTTTTTTTTTTTTTTTTTTTTTTTTTTTTTTTTTTTTTTTTTTTTTTTTTT",
"TTTTTTTTTTTTTTTTTTTTTTTTTTTTTTTTTTTTTTTTTTTTTTTTTTTTo**   oooooXX-rq-TTTTTTTTTTTTTTTTTTTTTTTTTTTTTTTTTTTTTTTTTTTTTTTTTT",
"TTTTTTTTTTTTTTTTTTTTTTTTTTTTTTTTTTTTTTTTTTTTTTTTTTTTo*. &&o++%&=&@ q=TTTTTTTTTTTTTTTTTTTTTTTTTTTTTTTTTTTTTTTTTTTTTTTTTT",
"TTTTTTTTTTTTTTTTTTTTTTTTTTTTTTTTTTTTTTTTTTTTTTTTTTTToo *-%o++%&*--@ 8TTTTTTTTTTTTTTTTTTTTTTTTTTTTTTTTTTTTTTTTTTTTTTTTTT",
"TTTTTTTTTTTTTTTTTTTTTTTTTTTTTTTTTTTTTTTTTTTTTTTTTTTTo *8-+o++%&*89-%&TTTTTTTTTTTTTTTTTTTTTTTTTTTTTTTTTTTTTTTTTTTTTTTTTT",
"TTTTTTTTTTTTTTTTTTTTTTTTTTTTTTTTTTTTTTTTTTTTTTTTTTTTo =-=+o++%&*-809&TTTTTTTTTTTTTTTTTTTTTTTTTTTTTTTTTTTTTTTTTTTTTTTTTT",
"TTTTTTTTTTTTTTTTTTTTTTTTTTTTTTTTTTTTTTTTTTTTTTTTTTTTo.==*+O++%&*8=8r%TTTTTTTTTTTTTTTTTTTTTTTTTTTTTTTTTTTTTTTTTTTTTTTTTT",
"TTTTTTTTTTTTTTTTTTTTTTTTTTTTTTTTTTTTTTTTTTTTTTTTTTTToo=*&+O++%&*8=-w* TTTTTTTTTTTTTTTTTTTTTTTTTTTTTTTTTTTTTTTTTTTTTTTTT",
"TTTTTTTTTTTTTTTTTTTTTTTTTTTTTTTTTTTTTTTTTTTTTTTTTTTTTo*&%+O++%&*8==09 TTTTTTTTTTTTTTTTTTTTTTTTTTTTTTTTTTTTTTTTTTTTTTTTT",
"TTTTTTTTTTTTTTTTTTTTTTTTTTTTTTTTTTTTTTTTTTTTTTTTTTTTTo&&%oo++%&*88*0w TTTTTTTTTTTTTTTTTTTTTTTTTTTTTTTTTTTTTTTTTTTTTTTTT",
"TTTTTTTTTTTTTTTTTTTTTTTTTTTTTTTTTTTTTTTTTTTTTTTTTTTTTo%&%ooo+%%*-0*9t TTTTTTTTTTTTTTTTTTTTTTTTTTTTTTTTTTTTTTTTTTTTTTTTT",
"TTTTTTTTTTTTTTTTTTTTTTTTTTTTTTTTTTTTTTTTTTTTTTTTTTTTTo+&%ooo+%%&*0%8r TTTTTTTTTTTTTTTTTTTTTTTTTTTTTTTTTTTTTTTTTTTTTTTTT",
"TTTTTTTTTTTTTTTTTTTTTTTTTTTTTTTTTTTTTTTTTTTTTTTTTTTTTo+&%ooo+%%&*9%-w.TTTTTTTTTTTTTTTTTTTTTTTTTTTTTTTTTTTTTTTTTTTTTTTTT",
"TTTTTTTTTTTTTTTTTTTTTTTTTTTTTTTTTTTTTTTTTTTTTTTTTTTTT.+&%ooo+%%&*8$=q*oTTTTTTTTTTTTTTTTTTTTTTTTTTTTTTTTTTTTTTTTTTTTTTTT",
"TTTTTTTTTTTTTTTTTTTTTTTTTTTTTTTTTTTTTTTTTTTTTTTTTTTTT.+&%oooo%%&*0**q9 TTTTTTTTTTTTTTTTTTTTTTTTTTTTTTTTTTTTTTTTTTTTTTTT",
"TTTTTTTTTTTTTTTTTTTTTTTTTTTTTTTTTTTTTTTTTTTTTTTTTTTTT.+&%oooo%%&*08&00 TTTTTTTTTTTTTTTTTTTTTTTTTTTTTTTTTTTTTTTTTTTTTTTT",
"TTTTTTTTTTTTTTTTTTTTTTTTTTTTTTTTTTTTTTTTTTTTTTTTTTTTT.+&%oooo%%&*09%9qXTTTTTTTTTTTTTTTTTTTTTTTTTTTTTTTTTTTTTTTTTTTTTTTT",
"TTTTTTTTTTTTTTTTTTTTTTTTTTTTTTTTTTTTTTTTTTTTTTTTTTTTT +&%oooo+%%*8q%8r TTTTTTTTTTTTTTTTTTTTTTTTTTTTTTTTTTTTTTTTTTTTTTTT",
"TTTTTTTTTTTTTTTTTTTTTTTTTTTTTTTTTTTTTTTTTTTTTTTTTTTTT X%%oooo+%%*8q&-y &TTTTTTTTTTTTTTTTTTTTTTTTTTTTTTTTTTTTTTTTTTTTTTT",
"TTTTTTTTTTTTTTTTTTTTTTTTTTTTTTTTTTTTTTTTTTTTTTTTTTTTT .%%+.oO+%%&80**y* =9*TTTTTTTTTTTTTTTTTTTTTTTTTTTTTTTTTTTTTTTTTTTT",
"TTTTTTTTTTTTTTTTTTTTTTTTTTTTTTTTTTTTTTTTTTTTTTTTTTTTT o%%+.oO+%%&-0=%i9 =B*%TTTTTTTTTTTTTTTTTTTTTTTTTTTTTTTTTTTTTTTTTTT",
"TTTTTTTTTTTTTTTTTTTTTTTTTTTTTTTTTTTTTTTTTTTTTTTTTTTTToo&%+ooO+%%&=9-%r0  8*%%TTTTTTTTTTTTTTTTTTTTTTTTTTTTTTTTTTTTTTTTTT",
"TTTTTTTTTTTTTTTTTTTTTTTTTTTTTTTTTTTTTTTTTTTTTTTTTTTTToo%&+ooo+%%&=88%9w 8N9 %%TTTTTTTTTTTTTTTTTTTTTTTTTTTTTTTTTTTTTTTTT",
"TTTTTTTTTTTTTTTTTTTTTTTTTTTTTTTTTTTTTTTTTTTTTTTTTTTTToo%&+oooo+%&*80%*t *my- %TTTTTTTTTTTTTTTTTTTTTTTTTTTTTTTTTTTTTTTTT",
"TTTTTTTTTTTTTTTTTTTTTTTTTTTTTTTTTTTTTTTTTTTTTTTTTTTTToo+&+oooo+%%&=0%&u *yt9- TTTTTTTTTTTTTTTTTTTTTTTTTTTTTTTTTTTTTTTTT",
"TTTTTTTTTTTTTTTTTTTTTTTTTTTTTTTTTTTTTTTTTTTTTTTTTTTTToo+&+oooo+%%%=9%&b.*090t-%TTTTTTTTTTTTTTTTTTTTTTTTTTTTTTTTTTTTTTTT",
"TTTTTTTTTTTTTTTTTTTTTTTTTTTTTTTTTTTTTTTTTTTTTTTTTTTTTo.+&+oooo+%%+=8$%b%$333j-%TTTTTTTTTTTTTTTTTTTTTTTTTTTTTTTTTTTTTTTT",
"TTTTTTTTTTTTTTTTTTTTTTTTTTTTTTTTTTTTTTTTTTTTTTTTTTTTTo.+&+ooooo%%o=0*%b=$222sa#TTTTTTTTTTTTTTTTTTTTTTTTTTTTTTTTTTTTTTTT",
"TTTTTTTTTTTTTTTTTTTTTTTTTTTTTTTTTTTTTTTTTTTTTTTTTTTTTo.+&+ooooo%%o=w8.b=$,,>pj,2TTTTTTTTTTTTTTTTTTTTTTTTTTTTTTTTTTTTTTT",
"TTTTTTTTTTTTTTTTTTTTTTTTTTTTTTTTTTTTTTTTTTTTTTTTTTTTTo.+&+ooooo+%o*rw i9$,,$3hp,TTTTTTTTTTTTTTTTTTTTTTTTTTTTTTTTTTTTTTT",
"TTTTTTTTTTTTTTTTTTTTTTTTTTTTTTTTTTTTTTTTTTTTTTTTTTTTTo X&+ooooo+%o*ryXiq$,2$4sa,TTTT,4aa532TTTTTTTTTTTTTTTTTTTTTTTTTTTT",
"TTTTTTTTTTTTTTTTTTTTTTTTTTTTTTTTTTTTTTTTTTTTTTTTTTTTTo X%+ooooo+%o*tt&ir#,2:2pa23Tp#22,>>2>>TTTTTTTTTTTTTTTTTTTTTTTTTTT",
"TTTTTTTTTTTTTTTTTTTTTTTTTTTTTTTTTTTTTTTTTTTTTTTTTTTTTo X++ooooo++o&tbotr#>2,$4s34T$#>>>222>>$TTTTTTTTTTTTTTTTTTTTTTTTTT",
"TTTTTTTTTTTTTTTTTTTTTTTTTTTTTTTTTTTTTTTTTTTTTTTTTTTTTo  ++o.ooo+oo&ti.9b@$2,$3dp>2.,dsaap42@@@TTTTTTTTTTTTTTTTTTTTTTTTT",
"TTTTTTTTTTTTTTTTTTTTTTTTTTTTTTTTTTTTTTTTTTTTTTTTTTTTTo  .+o.ooooo.&ti%=H@#22$2fa>@2f55pagkp>#@.TTTTTTTTTTTTTTTTTTTTTTTT",
"TTTTTTTTTTTTTTTTTTTTTTTTTTTTTTTTTTTTTTTTTTTTTTTTTTTTTo X.+o.ooooo.%wi9%K$@,2:>ds,@4223433234252>TTTTTTTTTTTTTTTTTTTTTTT",
"TTTTTTTTTTTTTTTTTTTTTTTTTTTTTTTTTTTTTTTTTTTTTTTTTTTTTo ..+...oooo.%qn=oK9@,2>$sd2$,,,,,222,2,pgspTTTTTTTTTTTTTTTTTTTTTT",
"TTTTTTTTTTTTTTTTTTTTTTTTTTTTTTTTTTTTTTTTTTTTTTTTTTTTTo X.+..o.ooo.%0m=XCt@,2,$af3:::$$$>,2222$24d4TTTTTTTTTTTTTTTTTTTTT",
"TTTTTTTTTTTTTTTTTTTTTTTTTTTTTTTTTTTTTTTTTTTTTTTTTTTTTo X.+.X..ooo.%9MtXbm@>2,$pdp>@@@.,44dfhvvf,2daTTTTTTTTTTTTTTTTTTTT",
"TTTTTTTTTTTTTTTTTTTTTTTTTTTTTTTTTTTTTTTTTTTTTTTTTTTTTo ..+. .o.oo.+8BB iH@:22$4sp,@.X,434335pp52>,35TTTTTTTTTTTTTTTTTTT",
"TTTTTTTTTTTTTTTTTTTTTTTTTTTTTTTTTTTTTTTTTTTTTTTTTTTTT# .... ...oo.+qCB tU@$,2$3as2$X@322222242>>2,$,3TTTTTTTTTTTTTTTTTT",
"TTTTTTTTTTTTTTTTTTTTTTTTTTTTTTTTTTTTTTTTTTTTTTTTTTTTT: o.o.X...O..+qAH 9C:$,2:2pd3: ,>>>,,>,,,>:>3,X@,5TTTTTTTTTTTTTTTT",
"TTTTTTTTTTTTTTTTTTTTTTTTTTTTTTTTTTTTTTTTTTTTTTTTTTTTT$ .... ...Oo.+qJK%@Bt@,2>:4fp>X>:$$$$$$$$$@:,p@X@>TTTTTTTTTTTTTTTT",
"TTTTTTTTTTTTTTTTTTTTTTTTTTTTTTTTTTTTTTTTTTTTTTTTTTTTT@ .... X.o+o.+9LY& BB@>2,$3da,@@@.pfffp,$@@$:>2.XX5TTTTTTTTTTTTTTT",
"TTTTTTTTTTTTTTTTTTTTTTTTTTTTTTTTTTTTTTTTTTTTTTTTTTTTTX .... X.o%..+=UY= MY@:,2$2ss2$.Xp5555ffp.@@$:,>XX@TTTTTTTTTTTTTTT",
"TTTTTTTTTTTTTTTTTTTTTTTTTTTTTTTTTTTTTTTTTTTTTTTTTTTTTX ....X...%o.O%YY8 nY8$,2$:ad3:X534444p544..@$:a2XX2TTTTTTTTTTTTTT",
"TTTTTTTTTTTTTTTTTTTTTTTTTTTTTTTTTTTTTTTTTTTTTTTTTTTTTX ........%o.O%YYq yYt$,2::pfp>X,2344432,25@.@$4a@X.3TTTTTTTTTTTTT",
"TTTTTTTTTTTTTTTTTTTTTTTTTTTTTTTTTTTTTTTTTTTTTTTTTTTTTX ........%o. %HYi qYB@>2>$4ga,@#,,222>,$$,5@X@>>,@X$4TTTTTTTTTTTT",
"TTTTTTTTTTTTTTTTTTTTTTTTTTTTTTTTTTTTTTTTTTTTTTTTTTTT5X X.......%o. %CYB&9KK@:2,$3hs2$@#:$$$$$#$$353X@@,>@X@5TTTTTTTTTTT",
"TTTTTTTTTTTTTTTTTTTTTTTTTTTTTTTTTTTTTTTTTT55554544444@ ......X.%o.  BYA&-BY@$2,$2dd3:@%##$#@@@#$$$4f$X.,pp@@5TTTTTTTTTT",
"TTTTTTTTTTTTTTTTTTTTTTTTTTTTTTTTTTTTT5555543,2,,,2343@ XX.o....%o.  iYH=*mY@$,2$>adp>@o ooo..@@#$$,a53X.>as,.aTTTTTTTTT",
"TTTTTTTTTTTTTTTTTTTTTTTTTTTTTTTTTT4444544335245>24432@X ..o.X..%o.  yYU8&bYt@,2::pfa,$@ oo....@@#$$$>53XX#4a3$TTTTTTTTT",
"TTTTTTTTTTTTTTTTTTTTTTTTTTTTTTT3444544544444524p,,2>,@X ..@. ..%o.  rYY0 yYN@>2>$3gs2::@ X..X..@@#$$$$a3.X>4444TTTTTTTT",
"TTTTTTTTTTTTTTTTTTTTTTTTTTTTT5paaaaaap55555442>4aa,:>@X..X@. ..%o.  qYYw wYB@:2,$2dd3>>$ X....@##::$$$2ag>X$>$24TTTTTTT",
"TTTTTTTTTTTTTTTTTTTTTTTTTTT35555asfddfap555543,>4ss,$@...X%% ..+o.  9YYt&8II@$2,$:sfp3,:@ X.XX....o@@@>2p552>@@24TTTTTT",
"TTTTTTTTTTTTTTTTTTTTTTTTTT>2334445pasdffap55532,>,5dp@oX..%. ..+o.  -YYi=8CY@$2,$$ags32>$@ XXXXXX..o@@@$>>4dh4.@24TTTTT",
"TTTTTTTTTTTTTTTTTTTTTTTTT:>,2234445pppp554444322,>,2p@o ..o. ..Oo.o *KYm8=iY=@22$$phd332>$@ XXXXX.X.o@@@@$$4553@@,4TTTT",
"TTTTTTTTTTTTTTTTTTTTTTTT$:>,234444444444444332222,>,,@o . *= X.Ooo. %JYN08qYy@22$$4df4452>$@ XXXXXXX.o@@@@@$2,4a524TTTT",
"TTTTTTTTTTTTTTTTTTTTTTTT$:>,35paaap54444333222222,>::@o . 9q  ..o%o  HYVw08YN@,2$$3sgppa52>$@ XXXX.....oo@@@$:,3ffg4TTT",
"TTTTTTTTTTTTTTTTTTTTTTT$$:>245aassaap5544333222222,>:@%X. 98 X@.o%.  BYCtw0YY.,,$$,ahppas52:$  XXXXXXX.X@#$$>>,,32pa>TT",
"TTTTTTTTTTTTTTTTTTTTTTT$$:>245asffdspa5544433223332,,@@ XX@X @&.o&o  bYAitwCYX$$$$$>224asf52:@   XXXXXX.....o@@:>>,444T",
"TTTTTTTTTTTTTTTTTTTTTTT$$:>,345psdffdap54444332235532@@ ...X *$.@%%  uYJmitHIXXX.XX@$>,4ahd4>$  XXXXXXXXXX.X.o@$::>43$3",
"TTTTTTTTTTTTTTTTTTTTTTT$$:>,23345pasffap5444432223553@@ ... X**%.@&X tYPVmiVGXXXXXXXXX@>4agd4>@  XXXXXXX.XXX.Xo@$:,3,$@",
"TTTTTTTTTTTTTTTTTTTTTT@$::>,2233345passsa544432222355@@ ....Xo%%.%0. wAPKZmti  XXXXX  XX>4jga2$     XXXXXX..XX.$:>,,>$@",
"TTTTTTTTTTTTTTTTTTTTTT@$::>,,22233445ppppp544332,,233@% .X%. .o. CY9   rmmr$=  XXX X  X  >4ks5,@   XXXXXX..XXX.@$$:>>$@",
"TTTTTTTTTTTTTTTTTTTTTT@$::>,,,,,22333444444444322,,23@o X.%. ..  *tXoo9b@X9t8   .X XX XXXX$4fs2:    XXXXXXXX...X@$>$$@>",
"TTTTTTTTTTTTTTTTTTTTTT@$:::>>>>>,,223333333344432,,22@oXXX@.X..o&o%%% bYY=XKm  X.XXXXXXXXXo$4dp>@    XXXXX.XX..@$$$$@@T",
"TTTTTTTTTTTTTTTTTTTTTT@$:>>>>>>>>>,,22223333334332,>>@XX..%% . 9Y& .  oBYq 9t*Xo@X.X X    X@:4g2$ X   XXXXX..X@....@@@T",
"TTTTTTTTTTTTTTTTTTTTTT$:>235ppp53,>>,,222233333332,>>@ X..%$ . *Yo .X XXXXXX&VAM@qYo XX  X X@:sp>   XXXXXXXXXXX.X..@@&T",
"TTTTTTTTTTTTTTTTTTTTTT>2332>:>,2p53,,>,,,,,,22333,,>>@ X..%@ X .q. ..%=%.oo XBYJMoY0 .XX XXX@$4g2@ XX XXXXXXXXX..X@@@TT",
"TTTTTTTTTTTTTTTTTTTTTT232>##@@@#>a53,,>>>>>,,,22,,>>>o . oB8 ..X*& &=%.....  0BYJ Hm   XX XXXX:a3$  XXXXXXXX....@@@@@TT",
"TTTTTTTTTTTTTTTTTTTTT2>:,332,>##:3a43,,>>>>>,,,,>>>>$XX. XCq X  Hq9Yq o...o.  0UY>iL  XXXXX   @>2$@ XXX.....@@@@@@@@@TT",
"TTTTTTTTTTTTTTTTTTTTT$,34>$$:,2335543,2,>>>>>>>>>>>># X.X %@ .X Km5YiX@o...%. 8CYi8Y* XXX  XX X@:@@ XXXX..@@@@$$::$@%TT",
"TTTTTTTTTTTTTTTTTTTTT,34$$:$$##$:,333322,>>>>>,>>>>$@ X.  q= 9o Cm;YiX.....%o  bYAXy@XXXX   XX X@$@ XXXX...X@@@$>:$@TTT",
"TTTTTTTTTTTTTTTTTTTTTT,:$22332:##$:,,3322,>>>,,>>>,#  .o  io=Yr NBXYmXX@..o@. X8YY= .XX      X XX$>@ @@X...X.@.@$$@@TTT",
"TTTTTTTTTTTTTTTTTTTTTTT$245ap54,:#@@$>>3322>>,,,,,>@ X.. oHo=YtXbHXYBXXo..oo.   KYq X..X    XX   @@@ .@@XXX.@$@@@$ :TTT",
"TTTTTTTTTTTTTTTTTTTTTT245app5ppp4,:##@$:>332,,,,,,$  ... %UX*Yt iK UK X....o..  ZYn  ..XX   X X  .@@ ..@$@XX.@$:@@ TTTT",
"TTTTTTTTTTTTTTTTTTTTT24ap54222444552$::$$>>332,,,,#  ... 8Y &YbXrL AY  o.....oXXNYH  .XX.X   X    @@XX.@@$@XX.@$@ XTTTT",
"TTTTTTTTTTTTTTTTTTTT$4543>,223333334432>$::>332,,,@ .... 8K =Yb 8Y mY  o....oX&9iYYXX.....X  XXXX X@XXX.@.$@XX.$@ 9TTTT",
"TTTTTTTTTTTTTTTTTTTT222:::>,2354444322222>$::332,,. .... 9H *Ym %Y&tY&o9..o@.X@@wBiXX ..XXXX  XX X ..XX........$@ TTTTT",
"TTTTTTTTTTTTTTTTTTTTT,5ssaaaaa554444322>>223::332,  .... 9B =Ym oY&tY9tU  .@ *Y&XX=w9XXXXX..XX     X.X..@@....X@ XTTTTT",
"TTTTTTTTTTTTTTTTTTTT>>>>225paap5544443322>>,23222>  .... tB qYm  K8&YtqYX .@ XY0 X =t9 X.....      ......@@...o@ =TTTTT",
"TTTTTTTTTTTTTTTTTTTT>@@$$$2455pa555444432,>>>>>>::  .... by MYi  AB Kt=Y@ .o  Ub    =t8 X.....    .@.....o@@.X@X TTTTTT",
"TTTTTTTTTTTTTTTTTTTT>>@@@@:,23555pa55444443,>>:::#  ...X b9 HYy  BY mn$Y* ..X CC     qw8@X  8=    @@@@@@o.o$@.@ XTTTTTT",
"TTTTTTTTTTTTTTTTTTTT,,2,>:$$$:,2355pa55544432,>>::  ...X i= UUq  bYXbB.Y8 ... BU  .. =yrw= #B8%  @$@@$$:%oo:$.X TTTTTTT",
"TTTTTTTTTTTTTTTTTT243355444,>$$$:>23pppp544433,>>:  ... Xro UH0  ,YoqA Hr X.o yY% XX $tyrw9*C0= X:$@@@$:$@@:$@  TTTTTTT",
"TTTTTTTTTTTTTTTT45aap44444434p3322>>>::>,555442>>:  ... Xi@ Km*  &Y&=J An  o@ 9Y,  $ oqytrr0Mw=oo:$$@@@:>>>:$@ &TTTTTTT",
"TTTTTTTTTTTTTTTTaa223pppp3>$@@@$:23442,:::>,333,>>  ... .t.wUi%  .C**H BC  .o &Yt  q% =ttrrrit=X.=:$@@@$::::@. TTTTTTTT",
"TTTTTTTTTTTTTTTp45p43,<23pp4>:$@@@@$:233,::::>,2>>  ... .9 MYqXX Xn=%C tB  ..XXYbXX   .wtrrriu=% r8.@@@@:$$$@ TTTTTTTTT",
"TTTTTTTTTTTTTTTp322>#@##>234332>$@@@@$:233,:$$:>2>  ... .=qMM, X Xb=.A.8VX X.. Hm.. X  9irqqti&$ rn.X@@@$@@@.XTTTTTTTTT",
"TTTTTTTTTTTTTTT42>#$<<<<#@@$,ppp42$@@@@$:232,:$$$>  ...$XXCV0@XX Xb= mo%Bo ....ti%@  X %itq0tiX=X$nq .@@@@@@ TTTTTTTTTT",
"TTTTTTTTTTTTTTT3>>>5aaaa42>,>$#,pp42>$@@@$:22,$$$$  ...b% mm  XX Xb, i&.i% X...&9$8  X Xttr0ri9&@ yM, .@...@TTTTTTTTTTT",
"TTTTTTTTTTTTTTT2>>dafxvzzlzd44,>#,pp42>$@@@$:,2,$@  ...y. HV  XX  tq 9& i* X...o%%q@   Xqtr0qtr*8 =Mb@ @..TTTTTTTTTTTTT",
"TTTTTTTTTTTTTTT>>addzxxlxcxxxls5,>#$,p4,>$@@$:22,$  ...q oYb $@X. %t=XX 0= X....%%0%   @0trqqtbX=X.bmiXXTTTTTTTTTTTTTTT",
"TTTTTTTTTTTTTTT>>djjzzlxxxxxxvcld4,>#$,42>$@@$:22>  . .r  %X  .oXX%%X.. **  .....@9* . @=qrqqtiX&oXqnmTTTTTTTTTTTTTTTTT",
"TTTTTTTTTTTTTT>>azkkzxlxxvxxxDcxvz52,>#$22>$@@$:2,   X.&        ..X%%.  %* X......==X. @=9rqqrb..@ $nniTTTTTTTTTTTTTTTT",
"TTTTTTTTTTTTTT>ajzxxzlcxxvzzcvxvSSvxd2>##22>$@@$:,              ..  =8  $io ......yuq@ .$9tqqqb= 8@XinnyTTTTTTTTTTTTTTT",
"TTTTTTTTTTTTT>5gcxzzzlccczzzxvcSSSSSvxd2$@,2>$@@$:  XX           XX  %% $H= .... oMYCMq %8trqqitX&@ qbnnyTTTTTTTTTTTTTT",
"TTTTTTTTTTTT>3gkSxzzlxxxczxxvvvvvvSSSvxxd@o>>>$@@:                X   Nq  XXX..X  9uMMq .=rt0qrio.$X,iiii8TTTTTTTTTTTTT",
"TTTTTTTTTTT>>gjxSxzzlxxcczvvvvvvvvSSSvvcxd@o@$$@@$                XX  **% XXX...X X*99-@.&0t00qi$ *%.tiuiqTTTTTTTTTTTTT",
"TTTTTTTTTT>>egkccklllxxvzxvvvvvvvvvvSSvvcxd@o@$$@@                     %%%X.......oo.*9qq**qq00iqX&@ qiyiy0TTTTTTTTTTTT",
"TTTTTTTTT$66pgzxkzllcxczxvSSvvvvvvvvSSDvSczdo@$$@@                      %%%......... .*9r9:qqq0ttoo: *btuiq8TTTTTTTTTTT",
"TTTTTTTTT>55sjzxklSSxczxvvvvvvvvcvSSSSFvScxzd @@@@                      %%=%o@X......Xo=qr99qq0ri:X9 Xbtyiy8TTTTTTTTTTT",
"TTTTTTTT>6aafjzkxlccczxccvvvvvvvvvvvSSDvvScxkd @@@                       %t=qH=  ....@.&qq090q0qt0o$X titui08TTTTTTTTTT",
"TTTTTTT$>psshjzkczxxclxxxccccvvcvSvvvSSSvSSxxld @@                     .. %*==*X .....Xo9q099000tt@@@ ,iryiq8TTTTTTTTTT",
"TTTTTT$$$4gghzkzlzvvzcxxcxxxcvvcvSSSvvSvvSScxzg5 @                     X@XX@**&. .....XX80999000tt=@8X&brruy0TTTTTTTTTT",
"TTTTTT$1>ajjgxzxzzcczvxcxcccvvvcvvSSSvSScvvvczgf3                       .XX@&*&. ...... =q99990qqtq@$..itrtyq8TTTTTTTTT",
"TTTTT$$7afffhxzzcxzzccxxxcccSvvvvvSSSvSScvvSvzgfh3.                     .. .@%&.XX..... &q099999qiqX%% qirttt8TTTTTTTTT",
"TTTT$$3sfkkkgzxcvxzzcxcxccvvvvcvccSSSvSScvvSvzgfgh.X                    .. ..%%. X...@. o90999890it. oX,itrty8TTTTTTTTT",
"TTTTo6a5fjkkzkxcczzzxxxccvvvvcvvvcvvSvvDcvvSvzgffg+                      X X..%. XX.... X=999999qqbq  o=ttrry08TTTTTTTT",
"TTT.1gafhjjjxkzcxxxxclxcvvvvvvSSvcvvvvvScvvSvzgfdfX                          .%.XX.....XX&90999999tm=  &qirrtw8TTTTTTTT",
"TT##pgsfjzhhxxxxcxcclxxcvcvvvvvSvvSSvvvSvccSvzgfsd                                       %899999990ti$ Xqitrrw8TTTTTTTT",
"T@<<3ssfzkzzjSzzvcvvzzvvvvvvvcSSSSSSvvvSvccvvzgfas$                                      @=999999990tu. 8ttrrr89TTTTTTT",
"o<33ppsfjjzzzvzcvxxxxxcvvcvvvvcSSDSSSvcvSccvvzgfpa,$                                      =q99990990qrq =tbrwrw8TTTTTTT"
};
