/* XPM */
static char *result[] = {
/* columns rows colors chars-per-pixel */
"113 131 67 1 ",
"  c black",
". c #070707",
"X c #170F07",
"o c #0B1707",
"O c #1F170B",
"+ c #131313",
"@ c #1B1B1B",
"# c #2B230F",
"$ c #332B13",
"% c #3F2F17",
"& c #232323",
"* c #272727",
"= c #2F2F2F",
"- c #373737",
"; c gray23",
": c #43331B",
"> c #4B371B",
", c #533F1F",
"< c #5F4323",
"1 c #6B4727",
"2 c #774F2B",
"3 c #7F532F",
"4 c #434343",
"5 c gray28",
"6 c gray31",
"7 c gray34",
"8 c #5B5B5B",
"9 c gray39",
"0 c gray42",
"q c #6F6F6F",
"w c #777777",
"e c gray50",
"r c #875733",
"t c #8F5F37",
"y c #9B633B",
"u c #A36B3F",
"i c #AB6F43",
"p c #B37347",
"a c #BF7B4B",
"s c #CB7F4F",
"d c #CF8353",
"f c #D78B5B",
"g c #DF9363",
"h c #E79B6B",
"j c #EFA373",
"k c #F7AB7B",
"l c #838383",
"z c #939393",
"x c #9F9F9F",
"c c #A7A7A7",
"v c gray67",
"b c gray70",
"n c #B7B7B7",
"m c gray75",
"M c #FFB383",
"N c #FFBB93",
"B c #FFBF9B",
"V c #FFC7A7",
"C c #FFCFB3",
"Z c #FFD3BB",
"A c gray78",
"S c #CBCBCB",
"D c LightGray",
"F c #FFE3D3",
"G c #E7E7E7",
"H c #EFEFEF",
"J c #00FF00",
/* pixels */
"JJJJJJJJJ*    &&&JJJJJJJJJJJJJJJJJJJJJJJJJJJJJJJJJJJJJJJJJJJJJJJJJJJJJJJJJJJJJJJJJJJJJJJJJJJJJJJJJJJJJJJJJJJJJJJJ",
"JJJJJJJ-o XXXOXXX&*JJJJJJJJJJJJJJJJJJJJJJJJJJJJJJJJJJJJJJJJJJJJJJJJJJJJJJJJJJJJJJJJJJJJJJJJJJJJJJJJJJJJJJJJJJJJJJ",
"JJJJJJ%oXXXXXX&&Xo#=JJJJJJJJJJJJJJJJJJJJJJJJJJJJJJJJJJJJJJJJJJJJJJJJJJJJJJJJJJJJJJJJJJJJJJJJJJJJJJJJJJJJJJJJJJJJJ",
"JJJJJo#&XXXXXXX&#  &&JJJJJJJJJJJJJJJJJJJJJJJJJJJJJJJJJJJJJJJJJJJJJJJJJJJJJJJJJJJJJJJJJJJJJJJJJJJJJJJJJJJJJJJJJJJJ",
"JJJJJo#&XXXX&%*&XXXX&&JJJJJJJJJJJJJJJJJJJJJJJJJJJJJJJJJJJJJJJJJJJJJJJJJJJJJJJJJJJJJJJJJJJJJJJJJJJJJJJJJJJJJJJJJJJ",
"JJJJooXXXo O*&*=*XoXX=JJJJJJJJJJJJJJJJJJJJJJJJJJJJJJJJJJJJJJJJJJJJJJJJJJJJJJJJJJJJJJJJJJJJJJJJJJJJJJJJJJJJJJJJJJJ",
"JJJJooXX o ;0z;XOXX   =JJJJJJJJJJJJJJJJJJJJJJJJJJJJJJJJJJJJJJJJJJJJJJJJJJJJJJJJJJJJJJJJJJJJJJJJJJJJJJJJJJJJJJJJJJ",
"JJJJoooXXXoooooOO&&XX OJJJJJJJJJJJJJJJJJJJJJJJJJJJJJJJJJJJJJJJJJJJJJJJJJJJJJJJJJJJJJJJJJJJJJJJJJJJJJJJJJJJJJJJJJJ",
"JJJJooXOXXXXXXXX#&&&=XX-JJJJJJJJJJJJJJJJJJJJJJJJJJJJJJJJJJJJJJJJJJJJJJJJJJJJJJJJJJJJJJJJJJJJJJJJJJJJJJJJJJJJJJJJJ",
"JJJooo oOXXXXXXXX&#&;7=-JJJJJJJJJJJJJJJJJJJJJJJJJJJJJJJJJJJJJJJJJJJJJJJJJJJJJJJJJJJJJJJJJJJJJJJJJJJJJJJJJJJJJJJJJ",
"JJJ=oo- X#XXXXXXOXO&;67XJJJ5=-59qJJJJJJJJJJJJJJJJJJJJJJJJJJJJJJJJJJJJJJJJJJJJJJJJJJJJJJJJJJJJJJJJJJJJJJJJJJJJJJJJ",
"J==ooo8 XXXooXoXXo oO;q9  &     #57JJJJJJJJJJJJJJJJJJJJJJJJJJJJJJJJJJJJJJJJJJJJJJJJJJJJJJJJJJJJJJJJJJJJJJJJJJJJJJ",
"=ooooo-o    oXXXXXo   5x; XXXXOXXX=4JJJJJJJJJJJJJJJJJJJJJJJJJJJJJJJJJJJJJJJJJJJJJJJJJJJJJJJJJJJJJJJJJJJJJJJJJJJJJ",
"oooooo#X   XXXXXX&&&& #H0  &;64#X&&=5JJJJJJJJJJJJJJJJJJJJJJJJJJJJJJJJJJJJJJJJJJJJJJJJJJJJJJJJJJJJJJJJJJJJJJJJJJJJ",
"Joooooo   XXXXXXXX&*--&;5  #&&&&   #-JJJJJJJJJJJJJJJJJJJJJJJJJJJJJJJJJJJJJJJJJJJJJJJJJJJJJJJJJJJJJJJJJJJJJJJJJJJJ",
"JJJoo*  XX XXXXXXXX&*4-&;o X*###XX  4JJJJJJJJJJJJJJJJJJJJJJJJJJJJJJJJJJJJJJJJJJJJJJJJJJJJJJJJJJJJJJJJJJJJJJJJJJJJ",
"JJJJo* @&X XXXXXXXX&&-7-  ooXOXO&44  4JJJJJJJJJJJJJJJJJJJJJJJJJJJJJJJJJJJJJJJJJJJJJJJJJJJJJJJJJJJJJJJJJJJJJJJJJJJ",
"JJJJJ**&&+XXXXXXXXXO&-65& o XXXXO&=75 5JJJJJJJJJJJJJJJJJJJJJJJJJJJJJJJJJJJJJJJJJJJJJJJJJJJJJJJJJJJJJJJJJJJJJJJJJJ",
"JJJJJ**&&+XXXXXXXXXXX=47& oooXXXXO#40# JJJJJJJJJJJJJJJJJJJJJJJJJJJJJJJJJJJJJJJJJJJJJJJJJJJJJJJJJJJJJJJJJJJJJJJJJJ",
"JJJJJ**&&+XXXXXXXXXXX*-6-  XXXXXXO&&75 5JJJJJJJJJJJJJJJJJJJJJJJJJJJJJJJJJJJJJJJJJJJJJJJJJJJJJJJJJJJJJJJJJJJJJJJJJ",
"JJJJJ**&@+XXXXXXXXXXO*-66& XoXXXXOO&4q &JJJJJJJJJJJJJJJJJJJJJJJJJJJJJJJJJJJJJJJJJJJJJJJJJJJJJJJJJJJJJJJJJJJJJJJJJ",
"JJJJJ*=*&O+XXXXXXXXXX&-59& #oXXXoOO&&e=&JJJJJJJJJJJJJJJJJJJJJJJJJJJJJJJJJJJJJJJJJJJJJJJJJJJJJJJJJJJJJJJJJJJJJJJJJ",
"JJJJJ***&@+XXXXXXXXXX&=40-   XXXXO&&&89#JJJJJJJJJJJJJJJJJJJJJJJJJJJJJJJJJJJJJJJJJJJJJJJJJJJJJJJJJJJJJJJJJJJJJJJJJ",
"JJJJJ***&@+XXXXXXXXXXO==e5   XXXXOO&&5z<JJJJJJJJJJJJJJJJJJJJJJJJJJJJJJJJJJJJJJJJJJJJJJJJJJJJJJJJJJJJJJJJJJJJJJJJJ",
"JJJJJJ**&@+XXXXXXXXXXX*-96O  oXXXXXO&-e7JJJJJJJJJJJJJJJJJJJJJJJJJJJJJJJJJJJJJJJJJJJJJJJJJJJJJJJJJJJJJJJJJJJJJJJJJ",
"JJJJJJ**&@+XXXXXXXXXXX&-67& oXXXXXXO&&8qJJJJJJJJJJJJJJJJJJJJJJJJJJJJJJJJJJJJJJJJJJJJJJJJJJJJJJJJJJJJJJJJJJJJJJJJJ",
"JJJJJJ**&O+XXXXXXXXXXX&-49-   XXXXXXO#5q9JJJJJJJJJJJJJJJJJJJJJJJJJJJJJJJJJJJJJJJJJJJJJJJJJJJJJJJJJJJJJJJJJJJJJJJJ",
"JJJJJJ***&@+XXXXXXXXXXX-4q4O oXXXXXXO&-59JJJJJJJJJJJJJJJJJJJJJJJJJJJJJJJJJJJJJJJJJJJJJJJJJJJJJJJJJJJJJJJJJJJJJJJJ",
"JJJJJJO**&@+XXoXXXXXXXX=-l6& oXXXXXXO&&45JJJJJJJJJJJJJJJJJJJJJJJJJJJJJJJJJJJJJJJJJJJJJJJJJJJJJJJJJJJJJJJJJJJJJJJJ",
"JJJJJJJ**&@+XXXXXXXXXXX*-eq&OoXXXXXXO&&=;7JJJJJJJJJJJJJJJJJJJJJJJJJJJJJJJJJJJJJJJJJJJJJJJJJJJJJJJJJJJJJJJJJJJJJJJ",
"JJJJJJJ**&@+XXXXXXXXXXX&-0l&& oXXXXXO&&==5JJJJJJJJJJJJJJJJJJJJJJJJJJJJJJJJJJJJJJJJJJJJJJJJJJJJJJJJJJJJJJJJJJJJJJJ",
"JJJJJJJ**&@+XXXXXXXXXXX&-6l-& X%%,<2-OO*-5JJJJJJJJJJJJJJJJJJJJJJJJJJJJJJJJJJJJJJJJJJJJJJJJJJJJJJJJJJJJJJJJJJJJJJJ",
"JJJJJJJ**&@+XXXXXXXXXXX&-7z5 X%####,tt&*4=6JJJJJJJJJJJJJJJJJJJJJJJJJJJJJJJJJJJJJJJJJJJJJJJJJJJJJJJJJJJJJJJJJJJJJJ",
"JJJJJJJ***&@+XXXXXXXXXXX-4l6 #######2kgy<$%JJJJJJJJJJJJJJJJJJJJJJJJJJJJJJJJJJJJJJJJJJJJJJJJJJJJJJJJJJJJJJJJJJJJJJ",
"JJJJJJJ***&@+XXXXXXXXXXX=-l4o#######,jZZMfy<3JJJJJJJJJJJJJJJJJJJJJJJJJJJJJJJJJJJJJJJJJJJJJJJJJJJJJJJJJJJJJJJJJJJJ",
"JJJJJJJX**&@+XXXXXXXXXXX=-q- #######%dNZZZNMd3JJJJJJJJJJJJJJJJJJJJJJJJJJJJJJJJJJJJJJJJJJJJJJJJJJJJJJJJJJJJJJJJJJJ",
"JJJJJJJ#**&@+XXXXoXXXXXX*-04o####%###uMZZZZNait>>rypdggdauyJJJJJJJJJJJJJJJJJJJJJJJJJJJJJJJJJJJJJJJJJJJJJJJJJJJJJJ",
"JJJJJJJJ**&@+XXXXoXXXXXX&-74o####%:##<kZZZZNir>>shhgfffffgggdjjggdtJJJJJJJJJJJJJJJJJJJJJJJJJJJJJJJJJJJJJJJJJJJJJJ",
"JJJJJJJJ**&@+XXXXoooXXXX&=47oo###%:%#>uNZZZMr>#shkkhgsssssfffdjjjjjjjJJJJJJJJJJJJJJJJJJJJJJJJJJJJJJJJJJJJJJJJJJJJ",
"JJJJJJJJ***@@+XXXXXXXXXX&=-0 X##%%:%##2MZZNi>%#r1<1tttttyupsdfdjjgyigjpJJJJJJJJJJJJJJJJJJJJJJJJJJJJJJJJJJJJJJJJJJ",
"JJJJJJJJ***&@+XXXXXXXXXXX=-lX ##%%:>%#<aNZNr>##3<>,<133333rypsdsgs32ugjdtJJJJJJJJJJJJJJJJJJJJJJJJJJJJJJJJJJJJJJJJ",
"JJJJJJJJ **&@+XXXXXXXXXXX*=7O ##%%:>%#,rMNa1#o#<%#%,<1111111tpsy2ar<2ugjdtJJJJJJJJJJJJJJJJJJJJJJJJJJJJJJJJJJJJJJJ",
"JJJJJJJJ **&@+XXXXXXXXXXXX=4& ##%%:>%%#,r2<#oo#>#####%>>>>>>>ypy<<>>>2tps1JJJJJJJJJJJJJJJJJJJJJJJJJJJJJJJJJJJJJJJ",
"JJJJJJJJ **&@+XXXXXXXXXXXX&== X#%%:>%%#<,,:#oo###########,<3ttruutr>%:2tt<<JJJJJJJJJJJJJJJJJJJJJJJJJJJJJJJJJJJJJJ",
"JJJJJJJJo**&@+XXooXXXXXXXX&==oo#%%:>%%%#%%%&O oo#$:>,,<rt333uuuaafjjp2%<,#%JJJJJJJJJJJJJJJJJJJJJJJJJJJJJJJJJJJJJJ",
"JJJJJJJJX***&@+XXXXXXXXXXXO&=XoX#%:>%%:%#####o%pifjjjfptt32ur2rtapafhhh<:#o3JJJJJJJJJJJJJJJJJJJJJJJJJJJJJJJJJJJJJ",
"JJJJJJJJX***&@+XXXXXXXXXXXX#*#oo#%:>%::>##Xoo3tyypsssptt332uat>%,tpaddfhjjfsaJJJJJJJJJJJJJJJJJJJJJJJJJJJJJJJJJJJJ",
"JJJJJJJJJ***&@+XXXXXXXXXXXXX&* oO#:>%::>%  o<2tttttuutt32213uay%#%>taatdfhjjjghJJJJJJJJJJJJJJJJJJJJJJJJJJJJJJJJJJ",
"JJJJJJJJJ***@X+XXXXXXXXXXXXX&* oX#:>%%:>%  #2<rrrrr333321<,,,ta3###>tt22udgjhddfghJJJJJJJJJJJJJJJJJJJJJJJJJJJJJJJ",
"JJJJJJJJJ **@X+XoooXoXooXXXX#=ooX#:>%%:>% o:1>12222111<<<,>::>12<>##>2>$<tidgiusssfghJJJJJJJJJJJJJJJJJJJJJJJJJJJJ",
"JJJJJJJJJ **@O+XXoXXXXXXXXXXX*X XX%>%%:>%#X%,:>,<<<,,,,,>:%%:>,,,<>####%%<tidp3rypsssfghJJJJJJJJJJJJJJJJJJJJJJJJJ",
"JJJJJJJJJ ***&@+XXXXXXXooXXXX&X oX#>%%:>%#X##%::>>>>:::::%%##$$$$$%%:####%,rup23rypasssfghJJJJJJJJJJJJJJJJJJJJJJJ",
"JJJJJJJJJ ***&@+XXXXXXXXXXXXX#&oXX#>%%:>%#X###%%%:::::<<<11123tpp3##%%:##$%:1i,<122ypasssfghJJJJJJJJJJJJJJJJJJJJJ",
"JJJJJJJJJX***&@+XooXXXXXXXXXXO&ooX#%%%:>%#Xo#####%%%23rrrrrrtuuaggf<##%:####:1%%>,<22yppasppiJJJJJJJJJJJJJJJJJJJJ",
"JJJJJJJJJ&***&@+XXoXXXXXXXXXXX#ooXO#%%:>%#>#o#####o,r33333333tyyyasd3:##%######%%%>>>,,2ruur1>JJJJJJJJJJJJJJJJJJJ",
"JJJJJJJJJ%***&@+XXoXXXXXXXXXXX&& XX#%%:>%#>#o ###oo<<111111111123rtyu2<<>:#######%%%%>>,,2311>oJJJJJJJJJJJJJJJJJJ",
"JJJJJJJJJJ **&@+XooXXXXXXoXXXX&=ooXX#%:>%#>##o  o #,<<<<<<<<,,,,>:$%,,:2ujd3>#########3ryiiiiy3>JJJJJJJJJJJJJJJJJ",
"JJJJJJJJJJ ***&@+XXXXXXXXoXXXX%-X XX#%:>%#>##ooo  #>:%%%%%%:::>>>%##:,%:,<pgghhkkjjjjjjjjjjjjjfsp1JJJJJJJJJJJJJJJ",
"JJJJJJJJJJ ***&@+XXXXXXXXXoXXX#-# XX#%:>%#>##XXX  #:%########%::%##%#:$%,,2rytdgkjgdddddddfgggghhjfspJJJJJJJJJJJJ",
"JJJJJJJJJJ ***&@+XoXXXXXXXXXXXX=& XoO#%>%#>#%XXXoo#%###XXXXX###%###,$,:$<21yr,>udsiiiiiiiiiiasfgghhjfspJJJJJJJJJJ",
"JJJJJJJJJJ ***&@+XXoXXXXXXXXXXXX-X XX#######%#ooXoo%#OOXXXXXXX###$$><,u,ut<ti1,>2itttttttttttyuiiiyyyr21uJJJJJJJJ",
"JJJJJJJJJJXX**&@+XXoXXXXXXXXXX O-& OXooooXXoo#ooXoo##OXXXXXXXX####$$$:<:,<,,:$#%:><221111111222222211<>%<rJJJJJJJ",
"JJJJJJJJJJ&X**&@+XXooXXXXXXXXXXX=X XooXoooooooXooooooooXooX,2111112,:$%:$$$$$$$%%%:><,,,,,,,,,,,,<<<<<>%$,yJJJJJJ",
"JJJJJJJJJJJX**&#@+XoXXXXXXXXXXXX&X oXoXoooXooo#oooo  oXo Xtt322rugggi,#########$$$$$%%::::>,,,,,,,<<<,>%#o>JJJJJJ",
"JJJJJJJJJJJX***&@+XoXXXXXXXXoXXXX- ooXooooXXX##oooooooo or2<<<2ryupsfgy$#################%%::>>>>>>>>>:$#o#JJJJJJ",
"JJJJJJJJJJJX***&@+XXoXXXXXXXooXXX-ooXXooXooX%##ooooooo  :<><>::,12ryupuaur33322>::$########$$$$%%%::::$##ooJJJJJJ",
"JJJJJJJJJJJX***&@+XooXXXXXXXXXXXXXooXXoXXo##%###oooooo  :,,>,,,:::>,12ryuurtdggggdi<,:,,,,:,,2udjjjjjjjjhdtJJJJJJ",
"JJJJJJJJJJJ&***&@+XoooXXXXXXXoXXX#o oXoX###:%####ooooo  $,:%:%%:::::::,<111rupaapppgjjjkkkkkkkjjgsaaasfhjkkhtJJJJ",
"JJJJJJJJJJJ%O**&@+XoooXXXXXXXXXXX&X oXoX##%:%##%##ooooo o:#############%%%,1rttuuuyyyyypaaaaapiiiiiiiiipsgjkhtJJJ",
"JJJJJJJJJJJ=#**&@@+XoXXXXXXXXXooX##o Xo###%:%##%#####ooXooooooooooooo####%,,><113ttttttttttttttttttyuiiiipddddrJJ",
"JJJJJJJJJJJ=&***&@+XoXXXXXXXXoXXo#*X Xo###%:%##%######OO oooooooooo####%:::%:,,,,12rrrrrrrrrrr33333333rrrrriiii2J",
"JJJJJJJJJJJJ%***&@+XXXXXXXXXXXoXXX&X oO###%:%##%%######Oooooooooo###$%:::::>>,>>,,,,1112221111111111233rrrrrrrt<J",
"JJJJJJJJJJJJ%***&@+XXXXXXXXXXoooooX#ooX###%:%##%%#######ooo oooooo###%%%%::>,>%%:::>,,<<,,,<,,,<11111111111211<:<",
"JJJJJJJJJJJJ=***&@+XXXXXXXXXXXXoXXX&X X###%:%##%%:#######Oo  oooooXo###%%$$$$::#o##::::>::,<,>>>,,,,,,,,,,,,,>::,",
"JJJJJJJJJJJJ-***&@+XXoXXXXXXXXXXXXXXX o###%:%##%%,:#######ooo  ooooooX#########ooo#o####%::>%%%%%:::::::::::$####",
"JJJJJJJJJJJJ-=**&@@+XXoXXXXXXXXooXXXXooX##%:%##%%,,########Oooo  oooooooXoo##ooooooooX#######%%%%%%%%%%%%%####o#$",
"JJJJJJJJJJJJ-=***&@+XXoXXXXXXXXoXXXXXo o##%::##%%%23,#######oOo    ooooooooooXoooooooooooX##################Xoo#%",
"JJJJJJJJJJJJ-=***&@+XXoXXXXXXXXXoXXXXo o##%::%#%%%2fN3>#######oooo   ooooooooooooXoooooooooooX############Xoooo#:",
"JJJJJJJJJJJJ--***&@+XXXXXXXXXXXoooXXXo oO#%::%#%%:,fNB>>########ooXoo  ooooooooooooooooooXooooooXXXXXXXXXoooooo#>",
"JJJJJJJJJJJJJ-***&@+XXXXXXXXXoXXooXXXXo X##::%#%%%:uMCy>%#########oOoo    oooooooooooooooXooooooooXXXoooXXoooo#%>",
"JJJJJJJJJJJJJ4***&@+XXXXXXXXXXXXXXXXXX  X##%:%#%%%:1jCCit<>%########oo oo   ooooooooooooooooooooooooXooooooooo#:>",
"JJJJJJJJJJJJJ4***&@X+XXXXXXXXooXooXXXXo oO#%:%#%%%%,fNCCVdu3<$$#######oooo      ooooooooooooooooooooooooXooooo#>J",
"JJJJJJJJJJJJJ4=***&@+XooXXXXXXXoXoXXXXoo X##:%#%%>%:uMCCVkBCdr%%$#######oo o        ooooooooooooooooooooooooX#$>J",
"JJJJJJJJJJJJJ4=***&@+XXXXXXXXXXXXXXXXXXo oX#:%#%%>%:1jVZCMBCBau1,$##########          ooooooooooooooooooooooX#%>J",
"JJJJJJJJJJJJJ-=***&@+XXoXXXXXXXXXXXXXXXoo X##%#%%>2:,fMZCNjBCguyt>>$#########           ooooooooooooooooooXoo#:>J",
"JJJJJJJJJJJJJ-=***&@+XXooXXoXXXXXXoXXXXXX X##%#%%2t,:ujCZBkBCMuyu2<<>$$######            o oooooooooooooooooo#>JJ",
"JJJJJJJJJJJJJJ=***&@+XXXXXXXXXXXXXooooOq-  ##%#%%2t,:1fNZVMNBBauyt332,%%$#####   o        ooooooooooooooooooo#>JJ",
"JJJJJJJJJJJJJJ-***&@X+XXXXXXXXXXoooooo-Hv  ####%%:2,#,uMZCNjNBauytr3231:$$####        o  o ooooooooooooooooo##>JJ",
"JJJJJJJJJJJJJJ-%***&@+XXoXXXXXXXXXXoo #HHO X###%%:,>##1jCZBjMBfuuytr321<,%%$###   o    oo   oooooooooooooooo#$>JJ",
"JJJJJJJJJJJJJJ=%***&@+XXXXXXXXoXoXoXo #HH, o####%:,%##,uMZVhjMguuytr321<,,>%%%%   o    ooooooooooooooooooooo#%>JJ",
"JJJJJJJJJJJJJJ%%***&@+XXXXXXXXXoXXoX  *HHb  &###%:%:###1jCCfhkgapuytr321<,>>%%,%  oo  ooooooooooooooooooooo##:>JJ",
"JJJJJJJJJJJJJJ%&***&@+XXXooXXoXXXXXX   mHH% X####:%:###rrjVsfhgauuytr321<,,>,<1,  ooooooooooooooooooooooooo#$:>JJ",
"JJJJJJJJJJJJJJJ&***&@+XXXoXXXXXXXXXX   lHHe o####:%,,tdt# >dajgauuuytr32<<,>,<2t% ooooooooooooooooooooooo##$%:JJJ",
"JJJJJJJJJJJJJJJ&***&@X+XXXoXXXXXXXXXX  &HHc  ##%%%,2<#$:#o o:tfuuiuytr321<,>>,2t1  oooooooooooooooooooo##$:::%JJJ",
"JJJJJJJJJJJJJJJ#****@X+oXXXXXXXXXXXXX   xHH& #$####ooo ooooo  >3uiuiytr32<,,>,<3t%  oooooooooooooooooXooo#$%%%JJJ",
"JJJJJJJJJJJJJJJ#&***&@+oXXX XXXXXXXXXo  -HH7 X=&Xooooooo  ooo   #rtiytr32<<,>>,2t1  ooooooooooooooooo##ooo#$%%JJJ",
"JJJJJJJJJJJJJJJ&&***&@+ XXXXXXXXXXXXXX   SHc  Oooooo oo o  ooooo  #233tr32<,,>,231% oooooooooooo#$:#oo##$#o#$%JJJ",
"JJJJJJJJJJJJJJJ&#***&@XoXXoXXXXXXXXXXX   eHHo o 6A0  o         oooooo$tr32<<,>,12t1  ooooooooo##$%:%%#XX%%#o#%JJJ",
"JJJJJJJJJJJJJJJ&****&@XXXXoXXX#&OXXXOXo  #HH7 # >HF% oo           ooooo:2<2<,>>,13t% oooo##oooo#%:>,,>:#o%%#o#JJJ",
"JJJJJJJJJJJJJJJ&***&&&OXo XXOXX    oXOOo  AHm    eHm*    o          ooooo#><<,>,<2t1 oo##%%%#XXX##%:<<,:%o%,#oJJJ",
"JJJJJJJJJJJJJJJ&*&***&&X XXX          #X **HHO   ODAc9   o            oooo ##,>>,13t#o%%%:>>>>#OXX##:><<>%#%, JJJ",
"JJJJJJJJJJJJJJJ******@@ XXoooo     @@****&*GH- X  o-56%&&&&@            ooooo#:>,<2u1o:::,,<<111>#XX#:,1<>$#$JJJJ",
"JJJJJJJJJJJJJJJ%***@@XXX oqc&&X @#****&@   lH0  ooo&%%&&&**&&@             oooo#$,123>:><<<<<13tr2>#X#%,1<%##JJJJ",
"JJJJJJJJJJJJJJJJ#*@XOXXo -bGm #@**&@XXXXX  *HA  ooX#=&&&&&&**&&@@        o  ooo oo#:3t%>,1,,>,13t22%#X#%11>%JJJJJ",
"JJJJJJJJJJJJJJJJ*@+XXXXo      X@@XXXXXXXX   cHX oo X6=X&X&O&&**&&&@         o  ooooo#t%%>,1>%:>13<><%#X#:1,:,JJJJ",
"JJJJJJJJJJJJJJJJ#oXXXXXoXXXXXXXX&&XXXXXXXX  XHDlX  X&-&&&X&&&&&&**&&@             oooo%%%:,<:%:><1<><#XO#,,:>JJJJ",
"JJJJJJJJJJJJJJJJ& X&XXXXXXXXXXo o   oXXXXX   9e9le%49*X&&&&+&&&&&&**&&@@            o o:%:>,,:$%>,,,>%$X#>:%%JJJJ",
"JJJJJJJJJJJJJJJJ= oXXXXXXXXX      XXXoXXXXXX =*wSAnHHl&X&&+#@&&#&&X&&*&&&@             :%%:>,:%$$::,>>$#o::#JJJJJ",
"JJJJJJJJJJJJJJJJ=o XXXXooXo     oXXXXXXXXXXo*== OOo7croo&+&&&+##O&&&&&#**&&@@          :%%%:>>:%$#$%%%$#X###JJJJJ",
"JJJJJJJJJJJJJJJJ4X XXXX XX o   XXXXooXXXXX@@*==%#+oo+&*+&&@@&+&+&&X###O&&&*&&@@o    o  :%%%%::>:%$#$$$$#Xo#JJJJJJ",
"JJJJJJJJJJJJJJJJ4X XXX  cDo o XXXoXooXXoXX+@@*=%o+#&@+O@&+&&&+++&@O&#X%5-#X#*&&&@      :%%%%%%:::%$##$$#X JJJJJJJ",
"JJJJJJJJJJJJJJJJ4# XXX  zH4 o XXXooooooooo+@@*=-+++#+&@@+&OO++@@&+&OOo%O-5&&XX&*&&@@o o:%%%%$$%:%%$#####X JJJJJJJ",
"JJJJJJJJJJJJJJJJ4& XX o  -X     o+++++++++++@*==+++++++&@@&@@&+&&O+#X#  &-&&Xo&&&*&&@@X:%%$$$$$$%%%####oX JJJJJJJ",
"JJJJJJJJJJJJJJJJ4& X XOo#-X     o+++++++++++@*=-*+++o+&++&@+#&&@@@++O#@ o==&X o&%&&&&&&@@&&$$$$$####++oX  JJJJJJJ",
"JJJJJJJJJJJJJJJJ=*   XX Ol-      +++++++++++X@*==+++&@+&++&+@&+@@++&+@@  &%  oo%-##&#&*&&@@######++++++o JJJJJJJJ",
"JJJJJJJJJJJJJJJ=-=  XXXo@69      +++++++++++@@*==++++@&@+++@+++++@&@@+#+ X-#   &=&X##&&#&&&@@#O++++++++ XJJJJJJJJ",
"JJJJJJJJJJJJJJJ=-* oXX@@ @=&     ++++++++++++@*=-#+++@@@++@&@@&+O@+++@+&  && XXo&&#@&&&&&&&&&&@@+#++++ oJJJJJJJJJ",
"JJJJJJJJJJJJJJ=-=*XXo@X+@#Gl     ++++++++++++@@*=&+#+++++@+++@o&@@@+++@#+ X&X+ X&&&O@&&&&#&#&&&&@@#++o JJJJJJJJJJ",
"JJJJJJJJJJJJJJ-;=@X@@X+  X9-  X   +++++++++++@@*=&+#O+o++++&+@+@+@@+&++O+  &#XX o&&&@&@&&#&#@&&&&&@@# JJJJJJJJJJJ",
"JJJJJJJJJJJJJJ4=*@@@++.o.o@@      +++++++++++@@*=&O++++@+++@@+++@@@+++++++ X&o X++X#++@@&&@&#@@&&&&&o JJJJJJJJJJJ",
"JJJJJJJJJJJJJJ-*@@@+.. .+@@+o     ++++++++++X+@*=&*++@@+++@@++++++@@+@@+++  &XX   XOO&@&@@&@&@&&&&&&& *JJJJJJJJJJ",
"JJJJJJJJJJJJJJ=@@@+.. .+@@@+o X   ++++++++++X+X@*=%++++++@+@@+++++@@+@++++o@&&+oX X&+++&&@&&@@&o&&&&+& *JJJJJJJJJ",
"JJJJJJJJJJJJJJ-@++...++@@@@+o X    +++++++++XXX@*=&&+++++++++@@++++@@++++++@o&XX  X*@+@@@&&&@@@&&&& &&&**JJJJJJJJ",
"JJJJJJJJJJJJJJJ+....+@@@@@@@+      +++++++++XXXXXX&=&++++@@@@++@++@@+++@@+@+ #XX&+ X&+@&&@&@@&@&&X  +&o**=JJJJJJJ",
"JJJJJJJJJJJJJJJ....+@@+@@@@@+      +++++++++oX&OXX  X#+++@+++++++@@@@++@@+@+ XXoXXXXO@&+@@@@@+@&&Xo +&&X&*JJJJJJJ",
"JJJJJJJJJJJJJJJJ=.+@@@+@@@@@+      +++++++++o*X       +++++++++++++@@@@@+@++++&X  X&+++@@&@+&+&@&@@@&+&&o&*JJJJJJ",
"JJJJJJJJJJJJJJJJJ @@@@+o@@@@+       ++++++++o=X        +&+++++@+++@@+@@@@++++ X#o  o@@+@&+&+@+&@@+&&&++&O&**JJJJJ",
"JJJJJJJJJJJJJJJJJ@@@@@+@@@@@+       ++++++++oXXo        &&+++@+++++@@@+@@++++ X&+    +++@++@@+++@&@@+++++O&*JJJJJ",
"JJJJJJJJJJJJJJJJJ@@@@@+@@@@@@+      +++++++++++++    X&  +++++@+++++@@@@++@+++ X#   ++&&@@+@+++&++@@@++@@#&**JJJJ",
"JJJJJJJJJJJJJJJJJ@@@@@@+@@@@@+      +++++++++++++Xo  o*O o++++++@@++@@@@@+++++ o#o +  +O@@+@++@@@+++@+++@+@&*JJJJ",
"JJJJJJJJJJJJJJJJJ@@@@@@+@@@@@+       ++++++++++++XX&*=&O  ++++++++@+@@@@@@++@+o ++o+o@+&+++@@@++@@@+++@+++@&*4JJJ"
};
