/* XPM */
static char *result[] = {
/* columns rows colors chars-per-pixel */
"87 151 77 1 ",
"  c black",
". c #0B0B0B",
"X c #170F07",
"o c #0B1707",
"O c #1F170B",
"+ c #131313",
"@ c #1B1B1B",
"# c #13230B",
"$ c #2B230F",
"% c #332B13",
"& c #3F2F17",
"* c #232323",
"= c #272727",
"- c #2F2F2F",
"; c #373737",
": c gray23",
"> c #43331B",
", c #4B371B",
"< c #533F1F",
"1 c #4F3B23",
"2 c #5F4323",
"3 c #53573B",
"4 c #6B4727",
"5 c #774F2B",
"6 c #7F532F",
"7 c #675333",
"8 c #775F3F",
"9 c #434343",
"0 c gray28",
"q c #4B4B4B",
"w c gray31",
"e c gray34",
"r c #5B5B5B",
"t c gray39",
"y c gray42",
"u c #6F6F6F",
"i c #777777",
"p c gray50",
"a c #875733",
"s c #8F5F37",
"d c #9B633B",
"f c #A36B3F",
"g c #836B4B",
"h c #8F7753",
"j c #AB6F43",
"k c #B37347",
"l c #BF7B4B",
"z c #CB7F4F",
"x c #9F8363",
"c c #9F876F",
"v c #A78F77",
"b c #CF8353",
"n c #D78B5B",
"m c #DF9363",
"M c #E79B6B",
"N c #EFA373",
"B c #F7AB7B",
"V c #838383",
"C c #8B8B8B",
"Z c #939393",
"A c #979797",
"S c #9F9F9F",
"D c #B79F87",
"F c #BFA78F",
"G c #A7A7A7",
"H c gray67",
"J c gray70",
"K c gray75",
"L c #FFB383",
"P c #FFBB93",
"I c #FFBF9B",
"U c #FFC7A7",
"Y c #FFCFB3",
"T c LightGray",
"R c #E7E7E7",
"E c #EFEFEF",
"W c #00FF00",
/* pixels */
"WWWWWWWWWWWWWWWWW=;*o  *;WWWWWWWWWWWWWWWWWWWWWWWWWWWWWWWWWWWWWWWWWWWWWWWWWWWWWWWWWWWWWW",
"WWWWWWWWWWWWWWW9XXXXXXXXXX:WWWWWWWWWWWWWWWWWWWWWWWWWWWWWWWWWWWWWWWWWWWWWWWWWWWWWWWWWWWW",
"WWWWWWWWWWWWWW=@XXXXX*=;0-*:WWWWWWWWWWWWWWWWWWWWWWWWWWWWWWWWWWWWWWWWWWWWWWWWWWWWWWWWWWW",
"WWWWWWWWWWWWW=*@XXXXXXX*=;V90WWWWWWWWWWWWWWWWWWWWWWWWWWWWWWWWWWWWWWWWWWWWWWWWWWWWWWWWWW",
"WWWWWWWWWWWWW*@XXXXXXXXXX=0VtWWWWWWWWWWWWWWWWWWWWWWWWWWWWWWWWWWWWWWWWWWWWWWWWWWWWWWWWWW",
"WWWWWWWWWWWW=@@***@XXXXXXX*=w9WWWWWWWWWWWWWWWWWWWWWWWWWWWWWWWWWWWWWWWWWWWWWWWWWWWWWWWWW",
"WWWWWWWWWWWW*$*@oX0VV:oo oX*-:WWWWWWWWWWWWWWWWWWWWWWWWWWWWWWWWWWWWWWWWWWWWWWWWWWWWWWWWW",
"WWWWWWWW====X=XXXXXXXXXX=-====WWWWWWWWWWWWWWWWWWWWWWWWWWWWWWWWWWWWWWWWWWWWWWWWWWWWWWWWW",
"WWWWWWWW@XXXX;=XXXXXXXXXO*9;--WWWWWWWWWWWWWWWWWWWWWWWWWWWWWWWWWWWWWWWWWWWWWWWWWWWWWWWWW",
"WWWWWWWW@@XXX;=XXXXXXXXXO*Z0::*WWWWWWWWWWWWWWWWWWWWWWWWWWWWWWWWWWWWWWWWWWWWWWWWWWWWWWWW",
"WWWWWWWWWW@XO=@***@@@XXXO$u0e9=WWWWWWWWWWWWWWWWWWWWWWWWWWWWWWWWWWWWWWWWWWWWWWWWWWWWWWWW",
"WWWWWWWWWWW@**@ XXXXXX  XO:rre;WWWWWWWWWWWWWWWWWWWWWWWWWWWWWWWWWWWWWWWWWWWWWWWWWWWWWWWW",
"WWWWWWWWWWW=@@@XXXXXXoo   =-tr;*-*9wWWWWWWWWWWWWWWWWWWWWWWWWWWWWWWWWWWWWWWWWWWWWWWWWWWW",
"WWWWWWWWWWW=*X@XXXXXXXXXX O*0t; oo*=*9WWWWWWWWWWWWWWWWWWWWWWWWWWWWWWWWWWWWWWWWWWWWWWWWW",
"WWWWWWWWWWWW*X@XXXXXXXXOOoO@*0; XX*=**-WWWWWWWWWWWWWWWWWWWWWWWWWWWWWWWWWWWWWWWWWWWWWWWW",
"WWWWWWWWWWWW*X@XXXXXXXXOOO**===o***=--*9WWWWWWWWWWWWWWWWWWWWWWWWWWWWWWWWWWWWWWWWWWWWWWW",
"WWWWWWWWWWWW*X@XXXXXXXXXX$-*=o o***=--;-tWWWWWWWWWWWWWWWWWWWWWWWWWWWWWWWWWWWWWWWWWWWWWW",
"WWWWWWWWWWWW*X@XXXXXXXXXX$;-=  XXXX=--;;9WWWWWWWWWWWWWWWWWWWWWWWWWWWWWWWWWWWWWWWWWWWWWW",
"WWWWWWWWWWWW*X@XXXXXXXXXXO;9= ++XXX+@@-0;yWWWWWWWWWWWWWWWWWWWWWWWWWWWWWWWWWWWWWWWWWWWWW",
"WWWWWWWWWWWW*X@XXXXXXXXXXX;0=   XXXO****99WWWWWWWWWWWWWWWWWWWWWWWWWWWWWWWWWWWWWWWWWWWWW",
"WWWWWWWWWWWW*X@XXXXXXXXXX*;w=  XXXXX@*;**9WWWWWWWWWWWWWWWWWWWWWWWWWWWWWWWWWWWWWWWWWWWWW",
"WWWWWWWWWWWW*X@XXXXXXXXXX*;w=  oXXXX@*0; *WWWWWWWWWWWWWWWWWWWWWWWWWWWWWWWWWWWWWWWWWWWWW",
"WWWWWWWWWWW*X@@XXXXXXXXXXX;w= XoXXXX@$9e*XWWWWWWWWWWWWWWWWWWWWWWWWWWWWWWWWWWWWWWWWWWWWW",
"WWWWWWWWWWW*X@@XXXooXXXXX*;w= XoXXXX@*:y9*WWWWWWWWWWWWWWWWWWWWWWWWWWWWWWWWWWWWWWWWWWWWW",
"WWWWWWWWWWW*X@@XXXXXXXXXX*;w-  oXXXX@*;itWWWWWWWWWWWWWWWWWWWWWWWWWWWWWWWWWWWWWWWWWWWWWW",
"WWWWWWWWWWW*X@@XXXXXXXXXXO;e; XoXXXX@*-CuWWWWWWWWWWWWWWWWWWWWWWWWWWWWWWWWWWWWWWWWWWWWWW",
"WWWWWWWWWWW*X@@XXoXXoXXXX*:e; XoXXXX@*-ppWWWWWWWWWWWWWWWWWWWWWWWWWWWWWWWWWWWWWWWWWWWWWW",
"WWWWWWWWWWW*X@@XXXXXXXXXX*:e;  oXXXX@*-upWWWWWWWWWWWWWWWWWWWWWWWWWWWWWWWWWWWWWWWWWWWWWW",
"WWWWWWWWWWW*X@XXoooooooXX$:e;  XXXXX@*-tiWWWWWWWWWWWWWWWWWWWWWWWWWWWWWWWWWWWWWWWWWWWWWW",
"WWWWWWWWWWW*X@XXXooooXXXXX:e;  oXXXX@*-0eWWWWWWWWWWWWWWWWWWWWWWWWWWWWWWWWWWWWWWWWWWWWWW",
"WWWWWWWWWWW*X@XXXXooXXXXX$:e;  oXXXX@*-90WWWWWWWWWWWWWWWWWWWWWWWWWWWWWWWWWWWWWWWWWWWWWW",
"WWWWWWWWWW;@@@XXXXooXXXXXX:e; &<<,&&@*=;0WWWWWWWWWWWWWWWWWWWWWWWWWWWWWWWWWWWWWWWWWWWWWW",
"WWWWWWWWWW=@@@XXXoXXoXXXXO;e;O>>,,>5&**-;WWWWWWWWWWWWWWWWWWWWWWWWWWWWWWWWWWWWWWWWWWWWWW",
"WWWWWWWWWW*@@@XXXoXXoXXXX=:e;O%%%%>5n6*=-WWWWWWWWWWWWWWWWWWWWWWWWWWWWWWWWWWWWWWWWWWWWWW",
"WWWWWWWWWW*@@@XXXoXXoXXXX=:e;O$$$$&5mLl<-WWWWWWWWWWWWWWWWWWWWWWWWWWWWWWWWWWWWWWWWWWWWWW",
"WWWWWWWWWW*@@@XXXooooXXXX*0e;O$$$$&5mLLn4WWWWWWWWWWWWWWWWWWWWWWWWWWWWWWWWWWWWWWWWWWWWWW",
"WWWWWWWWWW*@@@XXXoXXoXXXX*0e;O$$$$$5mLLmaO,a6555556aa6WWWWWWWWWWWWWWWWWWWWWWWWWWWWWWWWW",
"WWWWWWWWWW*X@@XXXXXXXXXXX=0e;O$$$$$5mLLm4 &<2222<,>&>4sfffWWWWWWWWWWWWWWWWWWWWWWWWWWWWW",
"WWWWWWWWWW*X@@XXXXXXXXXXX=:e;O$$$$$5mLNm< $&,,,,,>&&$>4ssffkWWWWWWWWWWWWWWWWWWWWWWWWWWW",
"WWWWWWWWWW*X@@XXXoXXoXXXX=:e-O$$$$$1kzbbo $X$$$$$$$$$$>4s55fkWWWWWWWWWWWWWWWWWWWWWWWWWW",
"WWWWWWWWWW*X@@XXXoXXoXXXX=:e-O$$$$$$oooXooOX$$$$$$$$%%$,52,,5fkWWWWWWWWWWWWWWWWWWWWWWWW",
"WWWWWWWWWW*X@@XXXoXXoXXXX=:w-O$$$$$$OOOOoooXX$$$$$$&>,,<>&$$>22ssWWWWWWWWWWWWWWWWWWWWWW",
"WWWWWWWWWW*X@@XXXoXXoXXXX=:0-O$$$$$$OOOOoXXXXX$$$&,<<<,$$XXXXX>24WWWWWWWWWWWWWWWWWWWWWW",
"WWWWWWWWWW*X*@XXXXXXXXXXX=::-O$$$$$$OXo$,4fdfffkkkkkjjda4<XXXXX$><WWWWWWWWWWWWWWWWWWWWW",
"WWWWWWWWW9@@*@XXXXXXXXXXX*;:=O$$$$$$OoX,jfdssfkjfssfjzMMnj<$XXXXo$WWWWWWWWWWWWWWWWWWWWW",
"WWWWWWWWW;@@*@XXXXXXXXXXXO--*O$$%$$$Oo,jda445fjdsaasfjzMMnks&XXXo$WWWWWWWWWWWWWWWWWWWWW",
"WWWWWWWWW*@@*@XXXXXXXXXXXo#*OO$$%$$$XO,5,>&>,<4444444sjzbMzzkd>$o$WWWWWWWWWWWWWWWWWWWWW",
"WWWWWWWWW*@@*@XXXoXXoXXXXooooO$$%$$$XX$,&&>,,,,,,,,<24sjjbzzzbmd$$WWWWWWWWWWWWWWWWWWWWW",
"WWWWWWWWW*@@*@XXXXXXXXXXXooooOo$%%$$XXX$$$$$$$$$$%&&>22555afjjbmmdWWWWWWWWWWWWWWWWWWWWW",
"WWWWWWWWW*@@*@XXXoXXoXXXXooooOo$%&$$XXXXXXXX$$$$$$$$$$&&&>>,55skbmlWWWWWWWWWWWWWWWWWWWW",
"WWWWWWWWW*X@*@XXoXXXXoXXXooooOo$%&$$OooXXXX$%2456fkjd6$o$$$&,,5sklnmlWWWWWWWWWWWWWWWWWW",
"WWWWWWWWW*X@*@XXXoXXoXXXXOOooOo$&&$$OooooX%26afjkknmnbl$oXX$&&&25sklnmlWWWWWWWWWWWWWWWW",
"WWWWWWWWW*X@*@XXoXXXXoXXX**ooOo$&&$$Ooo o%<a546jkslnzblk4oXX$$$$&&2sklnmlWWWWWWWWWWWWWW",
"WWWWWWWWW*X@*@XXooXXooXXXO*ooXo$&&$$$Oo o,a5<<555<4adjbbNf,XX$$$$$&,5sklnmlWWWWWWWWWWWW",
"WWWWWWWWW*X@*@XXoXXXXoXXXX$ooXo$&&$$$Oo $%5<&&&&&&>,4adbmNBd%XXX$$$&25skllnmlWWWWWWWWWW",
"WWWWWWWWW*X@@XXXXXXXXXXXXoooXXo$&&$$$OooO$$$$$$$$$$$&,4afmNBmks<XXX$&&25skllsWWWWWWWWWW",
"WWWWWWWWW*X@@@XXXXXXXXXXXoooXoo$&&$$$OooO*$OOXXXXX$$$&,<26fkznMnjs4,%%%,,5ss2,WWWWWWWWW",
"WWWWWWWW;@@*@XXXXXXXXXoXXXooXXo$&&$$$OooXOOOOXXXXXX$$$&>>>256dlllbbkkfs52,,,,<2WWWWWWWW",
"WWWWWWWW-@@*@@XooXXXXooXXXooXXo$$&$$$OXoooo&,<4afff6,$$&&&&>25asdfjbbbbbmMmnls5WWWWWWWW",
"WWWWWWWW*@@*@XX+oXXXXoXXXX oXXoO$$OOOOoX o<46aaajbblkja,X%&&&>,<26sjkbbkjkzmmmnlWWWWWWW",
"WWWWWWWW*@@*@XXXo+++++XXXX oXXooXXXXXXoo o42<<4ajlkklzzja,$$$$>>&,46adfs65sfzmbzmMWWWWW",
"WWWWWWWW*@@*@@XXoXXXXoXXXXooXXooXXXXXXoo o<,,,,,4adfkllnnzja,$$$$&,,25ss62,<5fjkzmnzWWW",
"WWWWWWWW*@@*@@XXXXXXXXXXXX oXXoO$$$$$Ooooo%&&&&&&&,4adfkllnnzj6,$$$$,25552,,<25sjzmnzWW",
"WWWWWWWW*@@*@XXooXXXXooXXX oXOX$$&&&$$Ooooo$$$$$$$&>,<4adfkllnnzj<$$$&,,,,,&&,<2456ss,W",
"WWWWWWWW*X@*@XXooXXXXooXXXo XXo&$&&&$$OOoXXXXXXXXXX$$$>,<4adfkknnzj6,$$$$$$&&&&>,,,>$$W",
"WWWWWWWW*X@*@XoXoXXXXoXoXXooXXo&$&&&$$OXoXXXXXXXXXXX$&>>,,,255dkllznnlja4,<<%$$$$$$$XoW",
"WWWWWWWW*X@*@@XooXXXXooXXXooXXo$$&&&$$OooooXXXXoX$$$$&>>>,,,2225asdjfjkbmMMbfs52%$$$ooW",
"WWWWWWWW*X@*@XXXoXXXXoXXXXooXOoX$$$$XXXXXXo oooooooooo$&&>,,,,,4assasddddkbmMMMBbj2%ooW",
"WWWWWWWW*X@*@XXooXXXXooXXX  XOoXX$$$$XXXoXXoooooooXoooooo$$&&&>,46assa655sskkbmMMMNb<oW",
"WWWWWWWW*X@*@@XooXXXXooXXXo XOXo$$&$$$XXXXXXXoooooooooooooooo$&&,<466654445ssjkkbmNNb4W",
"WWWWWWWW*X@*@XooooXXooooXXoooOoo$&&&$$$OOXoXoo  oooooXoooooooooooo$$$&,,<<225ssssdjbbsW",
"WWWWWWWW*X@*@XoooXXXXoooXXXooOoo$&>&$$$$OOXXoX    oooooooooooOOOOOOOO$&,<<,,2456666552>",
"WWWWWWW;@@*@@X oXXXXXXoXoXXooOoo$&>&$$>%$XOOXXXo     ooooooooXXooXXo$$&,<>>,<<2456422,>",
"WWWWWWW;@@*@+X XXXXXXXXoXoooXOoo$&>&$o7k4ooOOOXXo      oooooXooXXooo$&<<&&&,,,,<244<>$O",
"WWWWWWW-@@*@@X XoXXXXoXXoOOoXOoo$&>&$oxMx<$$OOOXXX      oooooooooooooooo$$&&&&&&22<>&$ ",
"WWWWWWW*@@*@+X XXXXXXXXXX=-*XXoo$&>&$ vYFh4,$OOOOXXo        oooooooooooo$$$$$$$&<<>$&$ ",
"WWWWWWW*@@*@+X oXXooXXoo 0t;oXoo$&>&$ vYImfs,%OOOOXXo          ooooooooOOOOoOO$&&$*O>$ ",
"WWWWWWW*X@*@@X ooXXXXoo ouGr ooo&&>&$ cYUMjbs,OXOOOOXo           o oooooooooOO$$**Oo>$o",
"WWWWWWW*X@*@+X XoXXXXoX oCEV ooo&&>&$ xYUMjmNa>OOXXXoXoo         o oooooooooOOOOOoo>&$o",
"WWWWWWW*X@*@@X XXXXXXXX  GEA  oo&>>&$ xYUMjMNj4&$OOOXooXX            ooooooooooXX$$>$$o",
"WWWWWWW*X@*@@X oXoXXoXo  GEG: oo&>,>$ohYUMjMNls2%$$OOXXXXo             oooooooo$$$&>$*X",
"WWWWWWW*X@*@+X XXoXXoXX  ZEEe oo>,,>$ gYUMjMNlds4%$$OXXXXo                o oooXXO&>$OX",
"WWWWWWW*X@*@+X oXXXXXXo  VEEy oo>,<>$ 8LIMjMNlds52&$$OXXXX             o ooooX$$$&&>$OX",
"WWWWWWW*X@*@@X oXXooXXo  VEEy oo,,<>$o7MPMjMNldsa542&$OXXXo            $$oooo$&&,,<>$ =",
"WWWWWWW*X@*@+X XXXXXXXX  VEEy oo,<<,$o4lBMjMNldsaa562&$$OOo           o&$ooooXO$$>>>$ =",
"WWWWWW*@@@*@+X XXXXXXXX  pEEy=oo,<<<$$4sNmlmNldssaa65<&%$OX           $$oooooXXXX$&>$ ;",
"WWWWWW*@@@*@@X XXXXXXXX  pEEy=oo<26422<4klbnNldssaa654<>%$X          $ ooooXO$$$>,,>$ ;",
"WWWWWW*@@@*@@X XXXXXXXX  VEEy=oo,>$ooOO o<dlnldsaaa6542>>%O   o    oooooo$$&&&><22<$$ 0",
"WWWWWW*@@@*@XX XXXXXXXX  VEEy;oo$o    oo  &ankdsaaa6542>>&&o    ooXOOOOOXooXO$$$&<2$* W",
"WWWWWW*@@@*@XX XXXooXXX  VEEi0oo o  oo$$o  O<8ssaaa6542>>,>O   oooXO$$$$OOXoXOO$$&<$O W",
"WWWWWW*@@**@@X XXoXXoXX  VEEiwoo        ooo  &4saaa6542>>,<$  ooooXO$&&&$$$OOXXoO$&$O W",
"WWWWWW*@@=*@@X XooXXooX oVEEieooo        oo$o %<4aa6542>>,<$  oooXO$&&&&&&$$$$OOoO$$OXW",
"WWWWWW*@@**@@X oXXXXXXo XVEEitooo          o$o o%446542>>,<%   oooX$$$$$$&&&&&$$OoO$XXW",
"WWWWWW*@@=@@XX  XXXXXX   VEEptooo           o$$o o>2542>>,<%o  oooooooooo$$&>>&$$OooXXW",
"WWWWWW*@@*@@@X  XXXXXX   VEEptoo  o o        oo$o  $<42>>,<%o  ooooooXooooo$&>>&&$$X  W",
"WWWWWW*@@=*@@X XXXXXXXX  VEEpto                ooo  $,2>>,<&O ooooooooo$$$oo&,,>&&&$  W",
"WWWWWW*@@=@@XX XXXXXXXX  pEEptoo                 ooo o%>>,<>O  ooooo$$$&&&&$o&<22<,> oW",
"WWWWW*@X@=*@@  XXXXXXXX  pEEVtoo                   oo o$>,<2$  ooo$$&&&&&>>>&$$<<22, $W",
"WWWWW*XX@*@@@  OXXXXXXO  pEEVtoo                    oo  O%<2%o ooooo$$$$$*&>>&&$,<<> ;W",
"WWWWW*XX@=*@@ XOXXooXXOX iEEVto ==o@                 oo  o$,$o ooooooo$$&$$$O>,&$,,& WW",
"WWWWW*XX@*@@@ XXo    oXX yEECto=ySe=@oXoo              o  o$$ooooooo$$&>>&&&$O&<,&&$oWW",
"WWWWW*XX@=*@X OX      XO yEECto*wEG-=@ooooo                oXooooo$$&>>>>>>>&$X&<,$ =WW",
"WWWWW*XX@*@@X XXooooooXX tEECto @00:-=@ooooo                o$$$$&&>>>>,,,,>&$$X&<$ WWW",
"WWWWW*XX@**@@ XXXXXXXXXX 9KEZto o*::;-=@ooXoo               o$&&&>>>>,,,<<,>>&$XX,&=WWW",
"WWWWW*XX@*@@X XXXXXXXXXX oSTZto oX---=$*@ooXXo              o$&&>>>,,,<22<,>>&$OX&&WWWW",
"WWWWW*XX@**@@ XXXXXXXXXX  yGVyo@oX*--=*$*@oooXo             X$&>>,,,<222<,>>>&&$Xo&WWWW",
"WWWWW*XX@**@@XXXX+++++XXo -rtro@ X*--=@@$$@XXXXo            $&&>,,<2242<,,>>>&&$Xo&WWWW",
"WWWWW*XX@**-**@+@@+XXoXXXo+;00-=*X$;-****@*@X@XX           o$&>>,<2442<,,,,,&$$XXo&WWWW",
"WWWWW*X*--;*@@@O=X*=O XXXX+=;::-*$-:=*@***@@*$*@ .         X&&>,<2444<,>>&>>>$XXXo&WWWW",
"WWWWW**;0=@***@--XO** XXXX+*--**-9:-*@*@*=**@@$$@         o$&>>,,<<<<,,>>&&$>>XXooWWWWW",
"WWWW-;;=@O@*=*@--*XO=XXXXX+@--=@*=-**@@=@=@*@=@*$@        X&&>>,,,,,,,>>&&$$X&$XoXWWWWW",
"WWWW;-*@XX@*=*@O**X*wXXXXX+@=:=@@*@=***@*@=X*@*@**@+     o$&>>>>>>>>>>>&&$$XX$$ooWWWWWW",
"WWW--*@XXX@*-*@XOX JE0@XXX+@-w:*@=@*=*@*=*@*@=@@@$@@+   o$$$&&&>>>>>>&&&$$XXXX$o%WWWWWW",
"WWW-*@XXoo@*-*@X        XXX@@:0-=@*@*=@***@==@@@@=$@@+XXXXX$$$$&&&&&&&$$XXXXXX$XWWWWWWW",
"WWW:*XXOXo@*;=@X        XX+++@--@===@*@=@@@@@==***@$@@@XXXXXXX$$$$$$$$OXXXXXXo  WWWWWWW",
"WWW-@XXXXX@*9-@o          ++@@=*=*@@*=@*==@*=*@=@@*$@@@@XXXXXXXXXXXXXXXXXXXXo * WWWWWWW",
"WWW*XXXX X@*9;*o      ....++@+**==@@*@*@*=@=@=*@==@*$@**@XXXXXXXXXXXXXXXXXoo **WWWWWWWW",
"WW-=XXXX X@*9:*o      ....++@+@*=*@@@===@*@@=@*@@=**=*@$=*OOXXXXXXXXXXXXoXX $WWWWWWWWWW",
"WW;*XXXO X@-t:=o      ....++@+@=@*@=@*@**=@@@===@*=*@@@@-=*$OXXXXXXXXXXXXo OWWWWWWWWWWW",
"WW:X$XXXXX@-J0=o      ....++@+@=*=@*@=@**=@=@*@**=@@@=*@=-*$$$OXXXXXXXXoo OWWWWWWWWWWWW",
"WW-XOXX  X@*0--o      ....++@+@-*@*@*=**=*@*@=@**=@=**@*=@$$$$$OXoXXXooo OWWWWWWWWWWWWW",
"WW*XOXO +@--r:;-      ....++@@@-@**=@*=*X**@*=**=*@*=*=*O-**@$$$OXXXXXo OWWWWWWWWWWWWWW",
"WWXXXX.+-==:p:;V      ....++@@=-@**X**X@*@*=@*=*X*==*@@@@-****@$$OXXXo oWWWWWWWWWWWWWWW",
"WWXXO+-@@@=0K0-E      ....++@@=-@*+@*===*@*X**X@*@*@@=*=*****O*@**OXX oWWWWWWWWWWWWWWWW",
"WWX+-@+@OX@rRw-E      ....++@@=-@@**+***@*+@*===*@==**@**=**+*==**$Oo WWWWWWWWWWWWWWWWW",
"WW-@+. OXX@tE0-E      ...X*OXX  X$+++@**=***+***@*X**=@==@*@@=@**@O$O WWWWWWWWWWWWWWWWW",
"WWXXX  OXX@tT0:E      ...=X       ++++*X****@+**=**=@@ @X@*+@*@*=*@@*XOWWWWWWWWWWWWWWWW",
"WWXXX XOXX@rK;9E      ...-X        +*++@*@*@X**X**@X*@oo@@*@******==*@@OWWWWWWWWWWWWWWW",
"WWXX  XOXX@eG;rE      ...XXo        **+@*@@+*@++*@@*=***@O==@@==*=****@@OWWWWWWWWWWWWWW",
"W:XX  XOXX@eG;iE      ...++++    X*  +X@*@@*+++**+*o**o@@@**@=**@*@*=*@$@OWWWWWWWWWWWWW",
"W-XX  XOXX@eu;CE      ...++++Xo  o=O o@X@X**@@@@@.@*@*@ @X@@=O@*=**@***$$@OWWWWWWWWWWWW",
"W*XXX X*XX@ew;AE      ....++@@*=*@XX@@@@+@@*@*@.@*@+XX * X**@**+*@*@**@@$$OWWWWWWWWWWWW",
"WXXXX XOXX@i0;AR      ....++@@@=*@XXXXX+X+@@@*@*@*@*@@o @@@X@@*==***@@@*@$@$WWWWWWWWWWW",
"WXXXX XOXo@t:;AK      ....++@@@=*@o.@@@+@@.@*+X.X.*+@.@*@@@ @*=***@*@@***$@oWWWWWWWWWWW",
"WXXXX XOXo@i;:CZ      ....++@@@=*@ X.++@.@++X@@@@@@*o@@@+ +@XO@@+*@@@@***@@$WWWWWWWWWWW",
"WXXXX X*XX@y:0iy      ....++@@@**@ o.@@.@+@.@@@@@@*@+  *XX   X*****@**@@@@*@XWWWWWWWWWW",
"WXXOX X*Oo@30wyw      ....++@@@**@ Xo@@++@+@.@@@++++*o@**@o+ X@++@**@**@@**X*WWWWWWWWWW",
"WXX   X*XX@>wur9      ....+++@@**@ oo++@++@.+@@++++++@o+X@  +=@+@+@****@@***XWWWWWWWWWW",
"WXX   X*X-@-rie-      ....+++@@**@  o++++.++.@..+@.@*+@$+X*+@**+@**@*@***@****WWWWWWWWW",
"WXX   X* ;@-yDe@      ....+++@@**@  o++@+.+.@@@+.@@+@+ XXoXXXXO.@++*@**@**@**@WWWWWWWWW",
"WXX   XX :X:CHe@      ....+++@@*=*@ o++++.++@@@@@+@++++*X  @*@++@@*@*+@***@@@@WWWWWWWWW",
"WXX   X  r 9EVq@      ....+++@@*=*@ o++@+.+@.+@@@@++++ X+o  o+@+*+*@*+**@*@*@*WWWWWWWWW",
"XXXX  X  t 9HVq@      ....+++@@*=*@oo+@+++++@@@+@@++++ X*+   ++@++@*@@+*@*+*@*$WWWWWWWW",
"XXXXX X XH :Hpq@      ....+++@@*=*@XX+@+++++.@@@++@+++ X.  .+++.@@+@+@*@*++***oWWWWWWWW",
"XXXXXoXXXH :Hpq@      ....+++@@*=*@oX+++@@++@@@@@+++++ o.o +@ +O+@@.@+@*@+**@@XWWWWWWWW",
"XXXXXXXo 9 :pVq@      ....+++@@*=*@oX+++++@+@@@@@@++@+o ++o+o@+*+++@@**@+@+*+@XWWWWWWWW",
"XXX      9 :ppq@      ....+++@@@==@XX+++++++@@+@++@+++@+++++ ++++++@+@+@@@+@*+XWWWWWWWW",
"XXX      ; :piq@      ....+++@@@==@oX@@+@+++@@@@@+++@++ ++  ++@@..++@+@.++@@@*X*WWWWWWW",
"XXX      ; -tyq@      ....+++@@@==@XX+++++++@*@@@+++@@+@++++++@.+@@.@@+@@*+*+@XoWWWWWWW",
"XXX      ; =et9@      ....+++@@@*=@XX+++++++@@@@+@@@+++++@@@+++++++@+@+++@XXXXXXWWWWWWW",
"XXX      ; =er:@      ....+++@@@*=@oX++@++++@@@@@+@+++++++++@++++++++++@++XXXXXXWWWWWWW"
};
