/* XPM */
static char *result[] = {
/* columns rows colors chars-per-pixel */
"79 60 64 1 ",
"  c black",
". c #070707",
"X c #0B0B0B",
"o c #170F07",
"O c #0B1707",
"+ c #1F170B",
"@ c #131313",
"# c #1B1B1B",
"$ c #13230B",
"% c #2B230F",
"& c #332B13",
"* c #3F2F17",
"= c #232323",
"- c #272727",
"; c #2F2F2F",
": c #373737",
"> c gray23",
", c #43331B",
"< c #4B371B",
"1 c #533F1F",
"2 c #4F3B23",
"3 c #5F4323",
"4 c #6B4727",
"5 c #774F2B",
"6 c #7F532F",
"7 c #434343",
"8 c gray28",
"9 c #4B4B4B",
"0 c gray31",
"q c gray34",
"w c #5B5B5B",
"e c gray39",
"r c gray42",
"t c #6F6F6F",
"y c #777777",
"u c gray50",
"i c #875733",
"p c #8F5F37",
"a c #9B633B",
"s c #A36B3F",
"d c #AB6F43",
"f c #B37347",
"g c #BF7B4B",
"h c #CB7F4F",
"j c #CF8353",
"k c #D78B5B",
"l c #DF9363",
"z c #E79B6B",
"x c #EFA373",
"c c #8B8B8B",
"v c #939393",
"b c #979797",
"n c #9F9F9F",
"m c #A7A7A7",
"M c gray67",
"N c gray70",
"B c #B7B7B7",
"V c gray78",
"C c LightGray",
"Z c gray86",
"A c #FFE3D3",
"S c #E7E7E7",
"D c #EFEFEF",
"F c #00FF00",
/* pixels */
"FFFFFFFFFFFFFFFFFFFFFFFFFFFFFFFFFFFFFFFFF;7FFFFFFFFFFFFFFFFFFFFFFFFFFFFFFFFFFFF",
"FFFFFFFFFFFFFFFFFFFFFFFFFFFFFFFFFFFFFFFFF= FFFFFFFFFFFFFFFFFFFFFFFFFFFFFFFFFFFF",
"FFFFFFFFFFFFFFFFFFFFFFFFFFFFFFFFFFFFFFFFF==FFFFFFFFFFFFFFFFFFFFFFFFFFFFFFFFFFFF",
"FFFFFFFFFFFFFFFFFFFFFFFFFFFFFFFFFFFFFFFFw  wFFFFFFFFFFFFFFFFFFFFFFFFFFFFFFFFFFF",
"FFFFFFFFFFFFFFFFFFFFFFFFFFFFFFFFFFFFFF70w++tw7FFFFFFFFFFFFFFFFFFFFFFFFFFFFFFFFF",
"FFFFFFFFFFFFFFFFFFFFFFFFFFFFFFFFFFFFF778:==>>77FFFFFFFFFFFFFFFFFFFFFFFFFFFFFFFF",
"FFFFFFFFFFFFFFFFFFFFFFFFFFFFFFFFFFFF77778==07777FFFFFFFFFFFFFFFFFFFFFFFFFFFFFFF",
"FFFFFFFFFFFFFFFFFFFFFFFFFFFFFFFFFFFF7::>7--7>::7FFFFFFFFFFFFFFFFFFFFFFFFFFFFFFF",
"FFFFFFFFFFFFFFFFFFFFFFFFFFFFFFFFFFF7:;:>>-->>:::7FFFFFFFFFFFFFFFFFFFFFFFFFFFFFF",
"FFFFFFFFFFFFFFFFFFFFFFFFFFFFFFFFFFF:;;;::--::;;;:FFFFFFFFFFFFFFFFFFFFFFFFFFFFFF",
"FFFFFFFFFFFFFFFFFFFFFFFFFFFFFFFFFF7:;;;;:;;:;;;;:7FFFFFFFFFFFFFFFFFFFFFFFFFFFFF",
"FFFFFFFFFFFFFFFFFFFFFFFFFFFFFFFFFF7:;;;;:;;:;;;;:7FFFFFFFFFFFFFFFFFFFFFFFFFFFFF",
"FFFFFFFFFFFFFFFFFFFFFFFFFFFFFFFFF7:;;;;;;;;;;;;;;:7FFFFFFFFFFFFFFFFFFFFFFFFFFFF",
"FFFFFFFFFFFFFFFFFFFFFFFFFFFFFFFFF7:;;;;;;;;;;;;;;:7FFFFFFFFFFFFFFFFFFFFFFFFFFFF",
"FFFFFFFFFFFFFFFFFFFFFFFFFFFFFFFF:7:;;;;;;;;;;;;;;:7:FFFFFFFFFFFFFFFFFFFFFFFFFFF",
"FFFFFFFFFFFFFFFFFFFFFFFFFFFFFFFF77;;;;;;;;;;;;;;;;77FFFFFFFFFFFFFFFFFFFFFFFFFFF",
"FFFFFFFFFFFFFFFFFFFFFFFFFFFFFFF:7:;;;;;;;;;;;;;;;;:7:FFFFFFFFFFFFFFFFFFFFFFFFFF",
"FFFFFFFFFFFFFFFFFFFFFFFFFFFFFFF:7:;-;;;;;;;;;;;;-;:7:FFFFFFFFFFFFFFFFFFFFFFFFFF",
"FFFFFFFFFFFFFFFFFFFFFFFFFFFFFF::7:$-;;;;;;;;;;;;-$:7::FFFFFFFFFFFFFFFFFFFFFFFFF",
"FFFFFFFFFFFFFFFFFFFFFFFFFFFFFF:78:=-;;;;;;;;;;;;-=:87:FFFFFFFFFFFFFFFFFFFFFFFFF",
"FFFFFFFFFFFFFFFFFFFFFFFFFFFFF::70:$-;;;;;;;;;;;;-$:07::FFFFFFFFFFFFFFFFFFFFFFFF",
"FFFFFFFFFFFFFFFFFFFFFFFFi66<<::80:+$--;;;;;;;;--$+:08::*sFFFFFFFFFFFFFFFFFFFFFF",
"FFFFFFFFFFFFFFFFFFFFFisdai*%::;%%qr77vCr>;;>rCv77rq%%;::*51FFFFFFFFFFFFFFFFFFFF",
"FFFFFFFFFFFFFFFFFFisjjdp61&&:;;O oo  O%O>==>O%O  oo O;;:&<<&FFFFFFFFFFFFFFFFFFF",
"FFFFFFFFFFFFFFF6pdjjda541&%*:;=O           ;        O=;:*&%%<FFFFFFFFFFFFFFFFFF",
"FFFFFFFFFFFFF5pssai5541&&&%::-=            =         =-:<&#%%FFFFFFFFFFFFFFFFFF",
"FFFFFFFFFFF15pii55pasp5<&%*:%                          %<**#163FFFFFFFFFFFFFFFF",
"FFFFFFFFFF*3655pafhkkdp1*%*:O                          O:*& *45FFFFFFFFFFFFFFFF",
"FFFFFFFFFF*<34psgjlzkfp1O**:**=                      =**:*&O%<4<FFFFFFFFFFFFFFF",
"FFFFFFFFF&**<5iafjklkdi*O*==9VCvw>-              ->wvCV9=*&%#*<<FFFFFFFFFFFFFFF",
"FFFFFFFFF&%*16iadgjkjs5O%&%=*mAu8;=              =;8uAm*=%*%O%*<<FFFFFFFFFFFFFF",
"FFFFFFFFF%%*36iadggjja1O%%-:=+=                      =+=:-%%O%&*<FFFFFFFFFFFFFF",
"FFFFFFFFF%%<4ipasfgjjpOO%-:7:=                        =:7:-&OO%&*FFFFFFFFFFFFFF",
"FFFFFFFF<%%<4ipasdgjg1O -:7:;==                      ==;:7:- O  &FFFFFFFFFFFFFF",
"FFFFFFFF<%%14ipasdghaO -:7:;-==ooooooooO    OoooooooO==-;70:O   %FFFFFFFFFFFFFF",
"FFFFFFFF&%%34ipasdgj1O :9::;-%+OOOooooo      oooooOOO==%-707= O %,FFFFFFFFFFFFF",
"FFFFFFFF%%&44ipasdgaO  ::9ruuucccuuuucyrq77qrycuuuucccuuurw8:% O44,FFFFFFFFFFFF",
"FFFFFFF<&*<556pasda1OO%=qmBVCSDDDSSSDZCVNttNVCZDSSSDDDSSVBmq=%&O4i4-FFFFFFFFFFF",
"FFFFFFF<*<4ipasdsa6O%%&O:wrycvNCMnvue7;==---=;7euvMBBbvccnu:O&*O&4i1%FFFFFFFFFF",
"FFFFFFF<*4ipasffa61O%*&      O:99:;=            =;:99:=      %*%O<54,FFFFFFFFFF",
"FFFFFFF*<355ipap65OO&*&      O=;;;=              ==;;=O      %*%O&<3<<FFFFFFFFF",
"FFFFFFF1<<145ii641O%&%%O                OooO                O%%%%O*<3<FFFFFFFFF",
"FFFFFFF4556ipi554O#%%%@####@@@@@@@@@@@@@@@@@@@@@@@@@@@@@#=# #@%%@#&&&<<FFFFFFFF",
"FFFFFF35ipaapi43<=%%%@--@@@@@@@@@@@@@@@@#@@+@@ @@@@@@@@@@@@#=-#@O@=%%%*FFFFFFFF",
"FFFFF35iasfdp631&o%%#-@@@@@@@@@@@@@@@@##@@#@##@@@@@@@@@@@@@@@#=#@ o+%%%FFFFFFFF",
"FFFFF3135655431<# .+-@@@@@@@@@@@@@@@@@@#@@#@#@@@@@@@@@@@@@@@@@@=#@ #o%%FFFFFFFF",
"FFFFF35665431*&&#oO++@@@@@@@@@@@@@@@@@##@@#@##@@@@@@@@@@@@@@@@@+=#@oO%FFFFFFFFF",
"FFFF35ipai653<*&@o@@@@@@@@@@@@@@@@@@@@##@##@##@@@@@@@@@@@@@@@@@@@=#@o%FFFFFFFFF",
"FFF356544411<<*&X@@@@@@@@@o@@@@@@#@@@@##O##O##@@@@#@@@@@@o@@@@@@@@#Xo%FFFFFFFFF",
"FF35431<<<<<*&&O.X@@@@@@@@@@@@@@@@@@@@#@@##@@#@@@@@@@@@@@@@@@@@@@@X.#FFFFFFFFFF",
"FF33134431<<<*&O.X@@@@@@@@@@@@@@@@@@@@#@@#=@@#@@@@@@@@@@@@@@@@@@@@X.OFFFFFFFFFF",
"FF33iasai54112,. o@@@@@@@@@@@@@@@@@@@@##o#=o##@@@@@@@@@@@@@@@@@@@@o .FFFFFFFFFF",
"F35asai54431<<&  @@@@@@@@@@@@@@@@@@@@@#@@#=@@#@@@@@@@@@@@@@@@@@@@@@  FFFFFFFFFF",
"35api541<*&**&= .@@@@@@@@@@@@@@@@@@@@@##@#=@##@@@@@@@@@@@@@@@@@@@@@. =FFFFFFFFF",
"3ip5431<<13333+ .@@@@@@@@@@@@@@@@@@@@##@@#=@@##@@@@@@@@@@@@@@@@@@@@. +FFFFFFFFF",
"3i53<*1666i654o X@@@@#@@@@@@@@@@@@@@@##@##=#@##@@@@@@@@@@@@@@@#@@@@X oFFFFFFFFF",
"553*16ppsddfa4X X#@@@@@@@@@@@@@@@@@####@@#=@@####@@@@@@@@@@@@@@@@@@X X1FFFFFFFF",
"43*5sfhjkkhgf:  o@@@@@@@@@@@@@@#@@@#@@##@#=@##@@#@@@#@@@@@@@@@@@@@@o  :31FFFFFF",
"4*4sgjzlkzkhg:  @#@@@@@@@@@@@@@@@@#@@##@#==#@##@@#@@@@@@@@@@@@@@@@+@  :641FFFFF",
"*4sjxxjkkzzkh=  #@@@@@@@@@@@@@@@@##@@@@@#--#@@@@@##@@@@@@@@@@@@@@@@+  =p6411113"
};
