/* XPM */
static char *result[] = {
/* columns rows colors chars-per-pixel */
"69 66 133 2 ",
"   c black",
".  c #170F07",
"X  c #0B1707",
"o  c #1F170B",
"O  c #1B1B1B",
"+  c #13230B",
"@  c #17330F",
"#  c #2B230F",
"$  c #332B13",
"%  c #3F2F17",
"&  c #000023",
"*  c #232323",
"=  c #272727",
"-  c #373F27",
";  c #373737",
":  c gray23",
">  c #430000",
",  c #470000",
"<  c #4F0000",
"1  c #530707",
"2  c #5B0000",
"3  c #5B0707",
"4  c #5F0707",
"5  c #670000",
"6  c #670B0B",
"7  c #6B0F0F",
"8  c #730000",
"9  c #7F0000",
"0  c #731313",
"q  c #771717",
"w  c #7F1B1B",
"e  c #43331B",
"r  c #4B371B",
"t  c #533F1F",
"y  c #732B00",
"u  c #4F3B23",
"i  c #1F4317",
"p  c #27531B",
"a  c #3F472B",
"s  c #2F6323",
"d  c #37732B",
"f  c #5F4323",
"g  c #5B472B",
"h  c #6B4727",
"j  c #774F2B",
"k  c #7F532F",
"l  c #675333",
"z  c #775F3F",
"x  c #000047",
"c  c #000053",
"v  c #00006B",
"b  c #434343",
"n  c gray28",
"m  c gray31",
"M  c gray34",
"N  c #5B5B5B",
"B  c gray39",
"V  c gray42",
"C  c #6F6F6F",
"Z  c #777777",
"A  c gray50",
"S  c #8B0000",
"D  c #9B0000",
"F  c #831F1F",
"G  c #A70000",
"H  c #B30000",
"J  c #BF0000",
"K  c #8B2323",
"L  c #8F2B2B",
"P  c #972F2F",
"I  c #9B3333",
"U  c #A33B3B",
"Y  c #A73F3F",
"T  c #CB0000",
"R  c #D70000",
"E  c #E30000",
"W  c #EF0000",
"Q  c red",
"!  c #FF1F1F",
"~  c #FF3F3F",
"^  c #AF4300",
"/  c #875733",
"(  c #8F5F37",
")  c #9B633B",
"_  c #A36B3F",
"`  c #AF4747",
"'  c #B34F4F",
"]  c #BB5757",
"[  c #BF5B5B",
"{  c #836B4B",
"}  c #AB6F43",
"|  c #B37347",
" . c #BF7B4B",
".. c #FF5F5F",
"X. c #CB7F4F",
"o. c #CB6B6B",
"O. c #D37373",
"+. c #DB7B7B",
"@. c #FF7B7B",
"#. c #3F832F",
"$. c #439337",
"%. c #4B9F3F",
"&. c #53AF47",
"*. c #5FCF57",
"=. c #6FEF67",
"-. c #9F8363",
";. c #CF8353",
":. c #D78B5B",
">. c #DF9363",
",. c #EFA373",
"<. c #F7AB7B",
"1. c #000083",
"2. c #00009B",
"3. c #0000B3",
"4. c #0000CB",
"5. c #0000E3",
"6. c blue",
"7. c #1B1BFF",
"8. c #3737FF",
"9. c #838383",
"0. c #8B8B8B",
"q. c #939393",
"w. c #979797",
"e. c #9F9F9F",
"r. c #A7A7A7",
"t. c gray67",
"y. c gray70",
"u. c gray75",
"i. c #FFBB93",
"p. c gray78",
"a. c gray86",
"s. c #DFDFDF",
"@@ c #00FF00",
/* pixels */
"@@@@@@@@@@@@@@@@@@@@@@@@@@@@@@@@@@@@@@@@@@@@@@@@N @@@@@@@@@@@@@@@@@@@@@@@@@@@@@@@@@@@@@@@@@@@@@@@@@@N @@@@@@@@@@@@@@@@@@@@@@@@@@@@@@@@@@@@",
"@@@@@@@@@@@@@@@@@@@@@@@@@@@@@@@@@@@@@@@@@@@@@@N V @@@@@@@@@@@@@@@@@@@@@@@@@@@@@@@@@@@@@@@@@@@@@@@@@@V N @@@@@@@@@@@@@@@@@@@@@@@@@@@@@@@@@@",
"@@@@@@@@@@@@@@@@@@@@@@@@@@@@@@@@@@@@@@@@@@@@@@V Z @@@@@@@@@@@@@@@@@@@@@@@@@@@@@@@@@@@@@@@@@@@@@@@@@@Z V @@@@@@@@@@@@@@@@@@@@@@@@@@@@@@@@@@",
"@@@@@@@@@@@@@@@@@@@@@@@@@@@@@@@@@@@@@@@@@@@@C Z 0.@@@@@@@@@@@@@@@@@@@@@@@@@@@@@@@@@@@@@@@@@@@@@@@@@@0.Z C @@@@@@@@@@@@@@@@@@@@@@@@@@@@@@@@",
"@@@@@@@@@@@@@@@@@@@@@@@@M B @@@@@@@@@@@@@@@@C 9.w.@@@@@@@@@@@@@@@@@@@@@@@@@@@@@@@@@@@@@@@@@@@@@@@@@@w.9.C @@@@@@@@@@@@@@@@@@@@@@@@@@@@@@@@",
"@@@@@@@@@@@@@@@@@@@@@@@@M B @@@@@@@@@@@@@@@@C w.t.Z @@@@@@@@@@@@@@@@@@@@@@@@@@@@@@@@@@@@@@@@@@@@@@Z t.w.C @@@@@@@@@@@@@@@@@@@@@@@@@@@@@@@@",
"@@@@@@@@@@@@@@@@@@@@@@@@M V V @@@@@@@@@@@@@@B 0.t.A @@@@@@@@@@@@@@@@@@@@@@@@@@@@@@@@@@@@@@@@@@@@@@A t.0.B @@@@@@@@@@@@@@@@@@@@@@@@@@@@@@@@",
"@@@@@@@@@@@@@@@@@@@@@@@@M B C Z @@@@@@@@@@@@N 9.r.q.Z @@@@@@@@@@@@@@@@@@@@@@@@@@@@@@@@@@@@@@@@@@Z q.r.9.N @@@@@@@@@@@@@@@@@@@@@@@@@@@@@@@@",
"@@@@@@@@@@@@@@@@@@@@@@@@M N B Z C @@@@@@@@@@m C w.e.A Z @@@@@@@@@@@@9 H H H H H 9 @@@@@@@@@@@@Z A e.w.C m @@@@@@@@@@@@0.9.Z @@@@@@@@@@@@@@",
"@@@@@@@@@@@@@@@@@@@@@@@@@@M N Z 9.C @@@@@@@@b V A q.w.A Z @@9 D D H R Q Q W W R H H D D 9 @@Z A w.q.A V b @@@@@@@@@@0.B N m @@@@@@@@@@@@@@",
"@@@@@@@@@@@@@@@@@@@@@@@@@@b n B Z 0.C @@@@@@b B A q.D D D H H H H Q W H T R T H T T H H H H D D D q.A B b @@@@@@C 0.9.C m b @@@@@@@@@@@@@@",
"@@@@@@@@@@@@@@@@@@@@@@@@@@b n M C 9.0.C @@@@: N 9 9 D H J J G T E E J R ~ ~ E R J J E T G J J H D 9 9 N : @@@@C e.0.Z m n b @@@@@@@@@@@@@@",
"@@@@@@@@@@@@@@@@@@@@@@@@@@@@n n N Z 0.e.0.@@: 9 9 9 D T T T H T E R T ~ @...! R T H E T H T T T D 9 9 9 : @@0.e.0.Z N : b @@@@@@@@@@@@@@@@",
"@@@@@@@@@@@@@@@@@@@@@@@@@@@@b n M V Z q.e.e.A T E Q W W E R H T E T R ......~ ! R G E T H R E W W Q E T A e.e.q.9.V n n : @@@@@@@@@@@@@@@@",
"@@@@@@@@@@@@@@@@@@@@@@@@@@@@@@: n m V A q.r.r.u.u.q.Z Q Q R H T E J R ~ ~ ..~ Q R G E T H R Q Q Z q.u.u.r.r.q.A V m ; ; @@@@@@@@@@@@@@@@@@",
"@@@@@@@@@@@@@@@@@@@@@@@@@@@@@@; : n M V A q.r.p.a.u.u.Z Q E G J W H R W ! ~ Q W R T W J G E ..Z u.u.a.p.r.q.A V M : ; T @@@@@@@@@@@@@@@@@@",
"@@@@@@@@@@@@@@@@@@@@@@@@@@@@@@J ; : n M V Z q.r.u.s.u.Z E E G G Q Q T J E Q E J T Q Q G G E @.Z u.s.u.r.q.Z V M n ; H J @@@@@@@@r.0.@@@@@@",
"@@@@@@@@@@@@M V 0.0.A @@@@@@J J T ; : n M V C Z w.r.y.Z W E G J R Q R H J E J H R Q R J G E @.Z y.r.w.Z V M M n : R J J J @@@@w.0.A @@@@@@",
"@@@@@@@@@@@@@@N M C 0.r.r.@@R H J H ; : n M V V C 9.0.Z Q R G T G R Q H J E J H Q G J T G R Q Z 0.9.C V : n n : H W B H R @@t.0.A B C @@@@",
"@@@@@@@@@@@@@@@@N M B A w.t.q.A B R H ; : n n M B C Z J E J H D J G Q T H J H T Q J Q D H J E J Z C B m T G 9 9 9 W B A q.w.M B M M @@@@@@",
"@@@@@@@@@@@@@@@@@@@@M M B 0.w.q.9.B W G H ; : m M N J R J G T E J J T W H H H W T E T E T G J R J N M 2 D ; 8 S H B 9.q.C M m M @@@@@@@@@@",
"@@@@@@@@@@@@@@@@@@@@@@@@m M C 9.Z B W 9 D G T J T T T H G D E Q E J D W H H H W D E J G H D G H T T 8 H D 2 8 2 9 2 Z 9.: : m @@@@@@@@@@@@",
"@@@@@@@@@@@@@@@@@@@@@@J J : m M B M R R H S D S H J D G H T E E E T H T E G E T H T G J G G H G D S J H 2 2 8 2 2 T B : S G J J @@@@@@@@@@",
"@@@@@@@@@@@@@@@@@@@@G H W R G : : G E T G D H D H J H J T E W W R J S H H T H S D J J T J E R R T J H D 8 D S 3 9 T E G R T W H G @@@@@@@@",
"@@@@@@@@@@@@@@@@@@@@G H W J R E T E R H G 8 8 5 S D H J T E W W R R J 5 D T H S D J E Q E E R R T J D S 3 3 3 3 5 v H 8.T J W H G @@@@@@@@",
"@@@@@@@@@@@@@@@@@@H G G R D H D 9 D H H 8 5 0 q 9 S S J T Q Q W R Q R 8 5 8 8 9 G D G Q W W E J H q 9 3 3 4 7.) } k k t W W R G G H @@@@@@",
"@@@@@@@@@@@@@@@@@@H J H G 9 J H R D G D 5 5 5 7 q 7 q H J T Q W R J G S 8 S 8 S D G T H G W J H S w 4 4.q 6 v |  .k :.( H H D H S J @@@@@@",
"@@@@@@@@@@@@@@@@D H J E G 9 D R W S Q R 8 5 5 0 w 0 7 w D G W Q W T G T 8 5 S S G J E Q S T D S 2.# o + j | /  . .k ( :.9 9 S G J D D @@@@",
"@@@@@@@@@@@@@@@@D 9 D H D T W D H 9 H L S F 7 0 q 4   # w S H Q Q J E 6 H 8 T G G J E 9 1 S w 4 ( o X @ t >.| ;.;.k # 2 G R 8 5 H 9 D @@@@",
"@@@@@@@@@@@@@@@@y 5 8 9 S H R S H G 9 ' w F P w # # e f 6 S H 3 F E J G E S G Q E J Q T , < 7 >.;.h X + t j >.>.>.) S 2 I 5 7 S 8 5 y 9 @@",
"@@@@@@@@@@@@@@@@9 2 2 8 8 S G 8 S S F w K w q w / / j e # D , e j L 1 S 3 S S E L H E D & O.e e ,.;.( j t t / :.<.:.1.S ' 5 S 8 2 5 2 D @@",
"@@@@@@@@@@@@@@J S < 5 5 5 ' 5 5 U ` L P I Y 6 0 o # # e e e e e _ F T H T S T J J 6 6 F , e e e 2.,.i._ h 1.1 % :.w I 1.K 5 5 2 2 8 2 D @@",
"@@@@@@@@@@@@@@E T 5 q q F K P [ I I O.r h h r             e   g g g z z T T H J E & @ & & e g e e   . # g l 1.r     U w 5 2 3 2 < 9 T E @@",
"@@@@@@@@@@@@J R R H 8 2 7 F Y L K ' ' h # # % :.<.i.} e X . g -.-.{ z q D H 6 < F O.@ e @ u g l e e 7.l l X # X o o # q P 2 F 5 D H R J @@",
"@@@@@@@@@@@@H T J G S 5 5 q F F P Y j t t / :.<.:.) t e X g -.{ z g u F D S q K 3 7.@ e + @ g l g l l g - h # # / / / K P K 7 5 5 5 G T G ",
"@@@@@@@@@@@@G H G S 9 S 9 5 7 7 F K + t j >.>.>.) j t # g { z g u < ' 2.< 2 < < 2.2.>.e @ + u l l l g e - 7.1./ f # # # f j 3 5 9 S 9 S S ",
"@@@@@@@@@@@@y 5 5 8 S 9 5 < O B m B @ t >.| ;.;.k # ( g -.g t ;.+.2.6   2.    3.( ,.;.( + e e + + c { z l z z F #       # j O 5 5 9 D 9 5 ",
"@@@@@@@@@@@@S S D 9 5 5 2 < O b : o + j | /  . .k ( :.z -.u } ;.[ F 2., c h o   ,.;.h o # e e [ e z { l e e e  .f       f  .t b O 2 5 D S ",
"@@@@@@@@@@@@D D D 5 T 9 9 3 , T b o + Z ) f |  .k :.g -.z w } | [ 0 # K r _ t . i.( X X e - Y e { { l % X.c # f >. . . . .f >.< 9 5 D D D ",
"@@@@@@@@@@@@D J J H T H , H , H M .   j ) # ) } k k t z g e e ' o.I >   > t h # _ j + @ - a a { l   g g g g e X X Z >.f I 3 3 < H 9 J J D ",
"@@@@@@@@@@@@D G J G D H H w v H H     j ) # ) } k # + + u e u e ' I >   X X # r h t t t j a l l g g u e e e m I w > >./ Z * 5 H D E J G @@",
"@@@@@@@@@@@@@@G H T ! H H E v 5.o     j ) # ) } k           e u u L L I I U ` ' Y I I 0 j a l g e c x 2./ h x x I , ] 8 B 5   6 3 J G T @@",
"@@@@@@@@@@@@@@J G G E R ! ! H E . .   f )   / ) j           6 6 Y P U U ` ` [ [ ' ' ' O.w x M m 5 u D D 1.x = , S 9 8 8 D 5 , J 5 T D G @@",
"@@@@@@@@@@@@@@^ S D H W J R T 5.. . . r ;.t t h t             , 6 w L ` ] [ o.o.L 2.L F K 2.N 0.5 v 2.2.2.D 2.& J 2.G S 9 D J R D D S ^ @@",
"@@@@@@@@@@@@@@@@T G D S D 5.6.J % % + + ) | # % #   e     + + > , 6 w L ` o.+.D S ` 2.F K ~ E 0.5 v 5.c 2.5.3.3.3.3.H S D D J J ! S @@@@@@",
"@@@@@@@@@@@@@@@@T H G 9 q 1.D E X.X.X.} / j           e + i @       w s o.2 2 2.H 4.N e.5.6.~ W E 6.~ 2.5.5.5.5.5.5.J J J G S T D J @@@@@@",
"@@@@@@@@@@@@@@@@@@G S q L 1.J E h h h h h r         . + i X     # $ $ P J J 2 2.2.4.x ~ @.@.6.Q W 5.6.E 5.5.5.5.4.2.1.J H G T H H G @@@@@@",
"@@@@@@@@@@@@3.@@@@H I 3.D 2.1.G # # # # # #   . o   + i X + i > @ h / 2 2 G 8 6.6.4.T W 6...~ 6.~ 6.E 6.~ 6.5.5.6.3.1.9 E T H H D H @@@@@@",
"@@@@@@@@@@@@@@@@@@U U Y D 9 9 1.& & & & & & & & & @ i i X i > @ # $ h T D 2 6.2.! 5.......6.6.~ ~ 6.~ 6.6.6.T 6.3.! 1.8 T G D S D D @@@@3.",
"@@@@@@@@@@@@@@@@@@3.Y I U S 9 9 H & & & & & & & & @ s X @ i @   , , 3.D 2.8 6.2 2.! 2.6.~ ....@.~ 5.W 5.4.4.3.1.1.4.1.S 8 D S 8 9 D 3.@@@@",
"@@@@@@@@@@3.@@@@@@@@9 F P 2.S H 3.& & 3.& & & & @ s @ X s @ @ > , 8 4.< 2.2.6.6.6.J ~ ..6.6...@.~ 6.W 5.T 3.2.1.1.2.2.2.I G S 8 9 S 9 @@@@",
"@@@@@@@@@@@@@@2.@@@@3.3.P 9 1.3.G 3.& & & & & & @ d + s @ @ > > 1.4.v E < 2.J R 2.4.! ~ R 5.! 6...6.E 5.H G 1.1.1.2.2.v L G 9 @@5 @@@@@@@@",
"@@@@@@3.@@@@@@@@3.@@@@9 U 1.R 5.5.v & & & & & & s p @ #.+ @     3.c 5.4.R 2.2.H T 2.~ 2.! 2.! T W 6.~ 3.G S 1.2.2.5.R 4.D 8 H H 9 3.@@3.3.",
"@@@@@@@@3.@@2.@@@@@@@@@@T 1.T 9 J J 3.& & & @ i s + #.p   @   > v 5 3.5 R S H H G G 2.D Q 3.T R J E H 1.1.D 1.v 2.v 4.T 8 9 3.3.3.@@3.@@3.",
"@@@@@@@@@@3.3.@@2.@@2.2.2.@@4.H 5.1.H 1.8 G p s #.#.d p   v c 3.D c J 9 3.3.S D D 5 Q S D H H J T T J 3.4.8 1.2.v 3.3.T 9 3.D 2.@@3.@@@@@@",
"@@@@@@@@@@@@2.@@@@2.2.@@@@2.3.2.T 1.W H 3.d #.%.%.%.$.d @ > v c T H H H 9 G 3.2.D D S 4.8 S G D S T S 3.D < 2 1.4.4.H 9 3.D 2.2.3.@@@@@@@@",
"@@@@@@@@2.@@2.@@2.2.2.3.3.2.@@1.T 5.4.5.p $.*.=.i s &.$.p > x c c T S D 3.D D S S J Q 4.8 S H D H E 9 2.2.J < c v v v 3.3.2.2.@@3.@@@@@@@@",
"@@@@@@@@@@2.@@2.2.2.2.2.1.3.1.1.v c 4.5.p d *.i + i &.d p 4.R J Q c Q 9 S 9 D S 8 D H 4.8 S H D H D D 2.J W H v c c 2.2.2.2.2.3.2.@@@@@@3.",
"2.2.@@@@@@@@2.2.@@@@2.@@3.1.1.v v v c c p i p s i s p i p D 5 T D T 8 9 9 9 S D 9 D 9 T H H J 8 S S @@v v v c c 1.2.3.2.2.2.@@2.2.@@@@3.@@",
"@@@@@@@@@@@@2.2.@@2.2.@@3.3.1.1.1.v c c i @ @ @ @ @ @ p X 8 D 9 8 8 @@S 8 5 8 S 2 S S 9 Q J 9 9 8 9 c c c c c 2.2.3.2.3.@@@@2.@@3.2.@@@@@@",
"@@@@@@@@@@2.@@@@@@2.@@@@@@2.2.2.2.v v v p i + + + + @ X i J 9 2 < 5 2 5 5 9 S 8 9 8 D c c c c c c c v v 1.1.1.3.3.2.3.3.2.@@@@3.@@@@3.3.@@",
"@@@@@@@@@@@@@@@@@@@@2.@@@@@@2.@@3.3.3.3.@@@ X @ @ @ X X c c c c c c c c c c c c c v c c c v v 2.2.3.3.3.3.3.3.3.3.3.3.3.@@@@3.3.3.3.3.3.@@",
"@@@@@@@@@@@@@@@@@@@@@@@@2.@@@@@@@@@@@@3.@@3.@@X X X @@@@@@c c @@c c @@c @@@@@@@@c c c v 4.4.4.4.2.3.3.4.4.3.3.3.3.@@3.2.3.@@3.3.@@3.@@@@@@",
"@@@@@@@@@@@@@@@@@@@@@@2.@@@@2.@@@@@@@@@@3.@@3.@@@@c @@@@@@c @@@@@@c @@@@@@@@@@@@@@@@c c @@4.@@@@@@4.4.@@2.4.@@@@@@@@2.@@3.@@@@@@@@@@@@@@@@",
"@@@@@@@@@@@@@@@@@@@@2.@@@@@@@@@@@@@@3.@@@@@@@@@@@@@@@@@@c @@@@@@@@@@@@@@@@c c @@@@@@@@@@@@@@@@4.@@@@4.@@@@4.@@@@@@@@@@3.@@@@@@@@@@@@@@@@@@",
"@@@@@@@@@@@@@@@@@@@@@@@@@@@@@@@@@@@@3.@@@@@@@@@@@@@@@@@@@@@@@@@@c @@@@@@@@@@@@@@@@v @@@@@@@@@@@@@@@@@@@@@@@@@@@@@@@@@@@@@@@@@@@@@@@@@@@@@@"
};
