/* XPM */
static char *result[] = {
/* columns rows colors chars-per-pixel */
"63 67 99 2 ",
"   c black",
".  c #0B1707",
"X  c #1B1B1B",
"o  c #13230B",
"O  c #17330F",
"+  c #3F2F17",
"@  c #232323",
"#  c #272727",
"$  c #2F2F2F",
"%  c #373737",
"&  c gray23",
"*  c #430000",
"=  c #470000",
"-  c #4F0000",
";  c #530707",
":  c #5B0000",
">  c #5B0707",
",  c #670000",
"<  c #670B0B",
"1  c #6B0F0F",
"2  c #730000",
"3  c #7F0000",
"4  c #731313",
"5  c #771717",
"6  c #7F1B1B",
"7  c #4B371B",
"8  c #732B00",
"9  c #1F4317",
"0  c #2F6323",
"q  c #37732B",
"w  c #000047",
"e  c #000053",
"r  c #00006B",
"t  c #434343",
"y  c gray28",
"u  c gray31",
"i  c gray34",
"p  c #5B5B5B",
"a  c gray39",
"s  c gray42",
"d  c #6F6F6F",
"f  c #777777",
"g  c gray50",
"h  c #8B0000",
"j  c #9B0000",
"k  c #831F1F",
"l  c #A70000",
"z  c #B30000",
"x  c #BF0000",
"c  c #8B2323",
"v  c #8F2B2B",
"b  c #972F2F",
"n  c #9B3333",
"m  c #A33B3B",
"M  c #A73F3F",
"N  c #CB0000",
"B  c #D70000",
"V  c #E30000",
"C  c #EF0000",
"Z  c red",
"A  c #FF1F1F",
"S  c #FF3F3F",
"D  c #874307",
"F  c #AF4300",
"G  c #AF4747",
"H  c #B34F4F",
"J  c #BB5757",
"K  c #BF5B5B",
"L  c #FF5F5F",
"P  c #C76363",
"I  c #CB6B6B",
"U  c #D37373",
"Y  c #DB7B7B",
"T  c #FF7B7B",
"R  c #000083",
"E  c #00009B",
"W  c #0000B3",
"Q  c #0000CB",
"!  c blue",
"~  c #1B1BFF",
"^  c #838383",
"/  c #8B8B8B",
"(  c #939393",
")  c #979797",
"_  c #9F9F9F",
"`  c #A7A7A7",
"'  c gray67",
"]  c gray70",
"[  c gray75",
"{  c #DF8787",
"}  c #E78F8F",
"|  c #EB9797",
" . c #F7ABAB",
".. c gray78",
"X. c #CBCBCB",
"o. c LightGray",
"O. c gray86",
"+. c #DFDFDF",
"@@ c #00FF00",
/* pixels */
"@@@@@@@@@@@@@@@@@@@@@@@@@@@@@@@@@@@@p @@@@@@@@@@@@@@@@@@@@@@@@@@@@@@@@@@@@@@@@@@@@@@@@@@p @@@@@@@@@@@@@@@@@@@@@@@@@@@@@@@@@@@@",
"@@@@@@@@@@@@@@@@@@@@@@@@@@@@@@@@@@p s @@@@@@@@@@@@@@@@@@@@@@@@@@@@@@@@@@@@@@@@@@@@@@@@@@s p @@@@@@@@@@@@@@@@@@@@@@@@@@@@@@@@@@",
"@@@@@@@@@@@@@@@@@@@@@@@@@@@@@@@@@@s f @@@@@@@@@@@@@@@@@@@@@@@@@@@@@@@@@@@@@@@@@@@@@@@@@@f s @@@@@@@@@@@@@@@@@@@@@@@@@@@@@@@@@@",
"@@@@@@@@@@@@@@@@@@@@@@@@@@@@@@@@d f / @@@@@@@@@@@@@@@@@@@@@@@@@@@@@@@@@@@@@@@@@@@@@@@@@@/ f d @@@@@@@@@@@@@@@@@@@@@@@@@@@@@@@@",
"@@@@@@@@@@@@i a @@@@@@@@@@@@@@@@d ^ ) @@@@@@@@@@@@@@@@@@@@@@@@@@@@@@@@@@@@@@@@@@@@@@@@@@) ^ d @@@@@@@@@@@@@@@@a i @@@@@@@@@@@@",
"@@@@@@@@@@@@i a @@@@@@@@@@@@@@@@d ) ' f @@@@@@@@@@@@@@@@@@@@@@@@@@@@@@@@@@@@@@@@@@@@@@f ' ) d @@@@@@@@@@@@@@@@a i @@@@@@@@@@@@",
"@@@@@@@@@@@@i s s @@@@@@@@@@@@@@a / ' g @@@@@@@@@@@@@@@@@@@@@@@@@@@@@@@@@@@@@@@@@@@@@@g ' / a @@@@@@@@@@@@@@s a u @@@@@@@@@@@@",
"@@@@@@@@@@@@i a d f @@@@@@@@@@@@p ^ ` ( f @@@@@@@@@@@@@@@@@@@@@@@@@@@@@@@@@@@@@@@@@@f ( ` ^ p @@@@@@@@@@@@f d i y @@@@@@@@@@@@",
"@@@@@@@@@@@@i p a f d @@@@@@@@@@u d ) _ g f @@@@@@@@@@@@3 z z z z z 3 @@@@@@@@@@@@f g _ ) d u @@@@@@@@@@d f a u t @@@@@@@@@@@@",
"@@@@@@@@@@@@@@i p f ^ d @@@@@@@@t s g ( ) g f @@3 j j z B Z Z C C B z z j j 3 @@f g ) ( g s t @@@@@@@@d ^ f p u @@@@@@@@@@@@@@",
"@@@@@@@@@@@@@@t y a f / d @@@@@@t a g ( j j j z z z z Z C z N B N z N N z z z z j j j ( g a t @@@@@@d / f a u t @@@@@@@@@@@@@@",
"@@@@@@@@@@@@@@t y i d ^ / d @@@@& p 3 3 j z x x l N V V x B S S V B x x V N l x x z j 3 3 p & @@@@d / ^ d i y t @@@@@@@@@@@@@@",
"@@@@@@@@@@@@@@@@y y p f / _ / @@& 3 3 3 j N N N z N V B N S T L A B N z V N z N N N j 3 3 3 & @@/ _ / f p u y @@@@@@@@@@@@@@@@",
"@@@@@@@@@@@@@@@@t y i s f ( _ _ g N V Z C C V B z N V N B L L L S A B l V N z B V C C Z V N g _ _ ( ^ s i y t @@@@@@@@@@@@@@@@",
"@@@@@@@@@@@@@@@@@@& y u s g ( ` ` [ [ ( f Z Z B z N V x B S S L S Z B l V N z B Z Z f ( [ [ ` ` ( g s u y & @@@@@@@@@@@@@@@@@@",
"@@@@@@@@@@@@@@@@@@% & y i s g ( ` ..O.[ [ f Z V l x C z B C A S Z C B N C x l V L f [ [ O...` ( g s i y & % @@@@@@@@@@@@@@@@@@",
"@@@@@@@@@@@@@@@@@@x % & y i s f ( ` [ +.[ f V V l l Z B N x V Z V x N B Z l l V T f [ +.[ ` ( f s i y & % x @@@@@@@@@@@@@@@@@@",
"i s / / g @@@@@@x x N % & y i s d f ) ` ] f C V l x B Z B z x V x z B Z B x l V T f ] ` ) f d s i y & % N x x @@@@@@g / / s @@",
"@@p i d / ` ` @@B z x z % & y i s s d ^ / f Z B l N l B Z N z x z N Z B l N l B Z f / ^ d s s i y & % z x z B @@` ` / d i p i ",
"@@@@p i a g ) ' ( g a B z % & y y i a d f x V x z j x l N C z z z C N l x j z x V x f d a i y y & % z B a g ( ' ) g a i p @@@@",
"@@@@@@@@i i a / ) ( ^ a C l z % & u i p x B x l N V x x j N V l V N j x V N N l x B x p i u & % z l C a ^ ( ) / a i i @@@@@@@@",
"@@@@@@@@@@@@u i d ^ f a C 3 j l N x N N N z l j V Z V x z h z N z h z V Z V z j l z N N N x N l j 3 C a f ^ d i u @@@@@@@@@@@@",
"@@@@@@@@@@x x & u i a i B B z j j h h h j l z x N V B N j 3 2 j 2 3 j N V N N x z l j h h h j j 3 j B i a i u & x x @@@@@@@@@@",
"@@@@@@@@l z C B l & & l V N l 3 h j z x z x N V C C B x l h 2 , 2 h l x B C V V N x z x z j h 3 l z N l & & l N C z l @@@@@@@@",
"@@@@@@@@l z C x B V N V B z l 3 h j z x z x N Z Z C B x l h 2 , 2 h l x C Z Z C N x z x z j h 3 l N N V C C N x C z l @@@@@@@@",
"@@@@@@z l l B C N j 3 j z z j j c h 3 h j z x N C Z Z V N l h 2 h l N V Z Z C N x z j h 3 h c j B x z z B B C C B l l z @@@@@@",
"@@@@@@z x z l z j j z j l j 3 c k 1 4 5 h h j l z N C Z V x N h N x V Z V N z l j h h 5 4 1 k c 3 j j l l x z z l z x z @@@@@@",
"@@@@j z x V l 3 3 j z B Z B l c 1 4 4 5 1 6 6 h h j z x N z N h N z N x z j h h 6 6 6 5 4 4 1 c h B Z B z j 3 3 l V x z j @@@@",
"@@@@j 3 j z j N C j x B C z h c b c c k 6 1 < < 3 k h j l z j h j z l j h k 3 4 1 < 6 k c c b c h z C B x j C N j z j 3 j @@@@",
"@@@@8 , 2 3 h z B h z z l h 3 v m 8 c k c k 6 1 > ; > h 3 3 2 : 2 3 3 h > ; > 1 6 k c k c 8 m v 3 h l z z h B z h 3 2 , 8 @@@@",
"@@@@3 : : 2 2 h l 2 h h k 3 v M M v 8 c n v k k < ; < . o o o o o o o . 2 ; < k v v n c 8 v M H v 3 h h h 2 l h 2 2 : : 3 @@@@",
"@@x h 3 : : , , , , 5 3 v b n H J J v 6 c v v b 6 2 c 9 o 9 0 9 0 9 o 9 c 2 6 b v v c 6 v J J H n b v c 5 , , , , : : 3 j x @@",
"@@V N j 3 2 : : , k b m G U b J U I J M n v 6 n v k 5 c 9 O q 0 q O 9 c 5 k v n 6 v n M J I U J b U G m b k , : : , 3 j N V @@",
"x B B z j 2 - : : 5 k b H K n H P U U P H M n v 6 k 6 k c n M G M n c k 6 k 6 v n M H P U U P H n K H b 8 1 : : - 2 j z B x @@",
"z N x l h , , , 5 5 k c H M n H J K U I Y P H M b c 6 6 4 1 1 1 1 1 4 6 6 c b M H I Y I U K J H n M H c 1 : : , , , h l x N x ",
"l z l h 3 h 3 , 1 1 5 k b c v M G J H J U } U K P K H M n v k 1 k v n M H K P K U } U J H J G M v c b 1 8 a 7 , 3 h 3 h l z z ",
"l z l h 3 j h , 1 1 1 5 b c v M G J H J U | Y K P K H H M m n 1 n m M H H K P K Y | U J H J G M v c b 1 8 a 7 , 3 h 3 h l z l ",
"3 l h 2 h l j , + ( s 8 1 4 6 n H H m U { U H G P K I U { P m 1 m P { U I K P G H U { U m H H n 6 4 1 8 s ( + , j l h 2 h l l ",
", 3 , h l j h , X a u a s 1 k v G m H U I M b m G H K I U { K 6 K { U I K H G m b K I U G m G v k 1 v a u a X , 3 j l h , 3 3 ",
"8 , , 2 h 3 , - X t & ( _ s 4 k c m H M G K U { I J J U }  . .c  . .} U J G I { U K G M K G c k 4 1 s ( & t X - , 3 h 2 , , , ",
"h h j 3 , , : - *   + a f f 1 5 c b n b G J P U { I K } { { { b { { { } K I { U P J G b n H c 5 1 s _ a +   * - : , , 3 j h 8 ",
"j j z j , 3 3 > = *   t a f i 1 1 1 c 6 m G J P { { P { |  .I P I  .| { P { { P J G m 6 c 1 1 1 i f f t   * * > 3 3 3 j z j h ",
"j x x x 3 z p X.= = = @ w i i 1 ` p 1 1 c n M J U K { P { | J  .J | { P { K U J M n c 1 1 p ` b i f a @ = < < X.p z 3 x x x j ",
"j l x V j j N ) 8 6 < = % w u $ / ^ u u 1 5 6 c m P U H J { v I v { J H U P m c 6 5 1 u u ^ / $ u i t = < 6 8 ) s j j V x l j ",
"@@l z N l N z s 7 4 6 < < = w w i d u ` u k 1 6 6 v m m H K b M b K H m m v 6 6 1 k u ` u d i w w t % < 6 4 7 s s N l N z l j ",
"@@x l l N V z N j 8 u u g > w e % i i ^ d k 5 k 6 c k k v b m b m b v k k c 6 k 5 k d ^ i i % e w = < u u 8 j 3 z V N l l x @@",
"@@F h j z C A B A z u a g > = e # % $ a i     7 p p n c 6 6 b b b 6 6 c n p p 7     i a $ % # e = > g a u u x B A C C j h F @@",
"@@@@z j j x B C A A N z d h c 5 > r @ y % i t t s _ p v c b H I H b c v p _ s t t i % y @ r > 5 c D o.g a ' f C B x j j z @@@@",
"@@@@N l j h j x V A A N N j h 8 2 - e R E f g i p s & u a i p ` p a a u & s p i g f E < 5 c 2 8 h h d p h j V x j h l x N @@@@",
"@@@@@@z l 3 5 3 j B V V A x j j h 2 - R E f / g t W Q ! u E y f y E u ! Q W t g / f 1 5 c 2 h j j j h j A B x l h N x z @@@@@@",
"@@@@@@l h 5 v h 3 j x x N V l a l j h 2 - f / / p 7 Q i d i E y E i d i Q 7 p / / f 5 c h j l a l x A B x j h l N z z l @@@@@@",
"@@@@@@z 5 n m M j 3 3 h l N B z a / l j h s ^ ) f t 7 a ( a & ~ & a ( a 7 t f ) ^ s h j l / a z B V N j 3 x z N z z j z @@@@@@",
"@@@@@@j j b n m M j h 3 h l A V N z a / l p f g f t j d ` ( h h h ( ` d j t f g f p l / a z N V A N l 3 h 3 V l j h j j @@@@@@",
"@@@@@@j 3 k b n m h 3 3 l h N A V B N z l 3 p f a j l a ( d x B x d ( a l j a f p 3 l z N B V A N l 3 h n 2 N j h 2 3 j @@@@@@",
"@@@@@@h , @@k b h 3 3 3 l h l N C A A C z 3 , , 3 l N l j x V Z V x j l N l 3 , , 3 z C A A C N l 3 h n v 2 l h 3 @@, h @@@@@@",
"@@@@@@@@3 z z 3 3 N B C x j h j N B V B C B x z x N V C V V V V V V V C V N x z x B C B V B N l 3 h n v 3 3 h 3 @@N j 3 @@@@@@",
"@@@@@@@@@@3 2 j N N N N C x h h j z z x N C C C C V N z B V V V V V B z N V C C C C N x z z l h c b v C B N j 2 z z 3 @@@@@@@@",
"@@@@@@@@@@@@@@j z _ o.z N C h h 3 3 h l z x B C B x z l N B B B B B N l z x V C C x z l h 3 3 h c x C N N N N j 2 3 @@@@@@@@@@",
"@@@@@@@@@@@@@@@@g ) ^ p N C z l N N z h j l z x z j h j l N N N N N l j h j z x z l j h z N N l z C N z o._ z j @@@@@@@@@@@@@@",
"@@@@@@@@@@@@@@@@d f a u N C z N C x j 3 h j l z j h z h x l x j x l x h z h j z l j h 3 j x C N z C N p ^ ) g @@@@@@@@@@@@@@@@",
"@@@@@@@@@@@@@@@@d f a u N C z C x j j j z j z h 2 N Z z 3 j j B j j 3 z Z N 2 h z j z j j j x C z C N u a f d @@@@@@@@@@@@@@@@",
"@@@@@@@@@@@@@@@@a s u & N z h x j 2 @@h h 2 x z z Z N @@h 3 j z j 3 h @@N Z z z x 2 h h @@2 j x h z N & u s a @@@@@@@@@@@@@@@@",
"@@@@@@@@@@@@@@@@u p & @@- , , x z 2 2 3 2 3 3 x B x @@h 2 3 h h h 3 2 h @@x B x 3 3 2 3 2 2 z j , , - @@& p u @@@@@@@@@@@@@@@@",
"@@@@@@@@@@@@@@@@u p @@@@@@@@@@@@x j 3 2 @@@@2 j , @@j 2 : 3 3 3 3 3 : 2 j @@, j 2 @@@@2 3 j j @@@@@@@@@@@@p u @@@@@@@@@@@@@@@@",
"@@@@@@@@@@@@@@@@@@@@@@@@@@@@@@@@@@z 3 3 N @@@@2 j 3 2 : , , 2 , 2 2 , : 2 3 j 2 @@@@N 3 3 j @@@@@@@@@@@@@@@@@@@@@@@@@@@@@@@@@@",
"@@@@@@@@@@@@@@@@@@@@@@@@@@@@@@@@@@@@@@, 3 z N x 3 : - , 2 2 , @@@@2 2 , - : 3 x N z 3 , j @@@@@@@@@@@@@@@@@@@@@@@@@@@@@@@@@@@@",
"@@@@@@@@@@@@@@@@@@@@@@@@@@@@@@@@@@@@@@@@@@, , , : - @@@@@@@@@@@@@@@@@@@@@@- : , , , j @@@@@@@@@@@@@@@@@@@@@@@@@@@@@@@@@@@@@@@@"
};
