/* XPM */
static char *result[] = {
/* columns rows colors chars-per-pixel */
"63 69 104 2 ",
"   c black",
".  c #0B1707",
"X  c #13230B",
"o  c #17330F",
"O  c #00002F",
"+  c #00003B",
"@  c #232323",
"#  c #272727",
"$  c #2F2F2F",
"%  c #373737",
"&  c gray23",
"*  c #430000",
"=  c #470000",
"-  c #4F0000",
";  c #5B0000",
":  c #5F0707",
">  c #670000",
",  c #670B0B",
"<  c #6B0F0F",
"1  c #730000",
"2  c #7F0000",
"3  c #731313",
"4  c #771717",
"5  c #7F1B1B",
"6  c #4B371B",
"7  c #732B00",
"8  c #1F4317",
"9  c #2F6323",
"0  c #000047",
"q  c #000053",
"w  c #00006B",
"e  c #434343",
"r  c gray28",
"t  c gray31",
"y  c gray34",
"u  c #5B5B5B",
"i  c gray39",
"p  c gray42",
"a  c #6F6F6F",
"s  c #777777",
"d  c gray50",
"f  c #8B0000",
"g  c #9B0000",
"h  c #831F1F",
"j  c #A70000",
"k  c #B30000",
"l  c #BF0000",
"z  c #8B2323",
"x  c #8F2B2B",
"c  c #972F2F",
"v  c #9B3333",
"b  c #A33B3B",
"n  c #A73F3F",
"m  c #CB0000",
"M  c #D70000",
"N  c #E30000",
"B  c #EF0000",
"V  c red",
"C  c #FF1F1F",
"Z  c #FF3F3F",
"A  c #874307",
"S  c #9B5B13",
"D  c #AF4300",
"F  c #AF7B1F",
"G  c #AF4747",
"H  c #B34F4F",
"J  c #BB5757",
"K  c #BF5B5B",
"L  c #C76363",
"P  c #CB6B6B",
"I  c #D37373",
"U  c #3F832F",
"Y  c #53AF47",
"T  c #C39B2F",
"R  c #D7BB43",
"E  c #EBDB57",
"W  c #FFFF73",
"Q  c #000083",
"!  c #00009B",
"~  c #0000B3",
"^  c #0000CB",
"/  c #0000E3",
"(  c blue",
")  c #1B1BFF",
"_  c #838383",
"`  c #8B8B8B",
"'  c #939393",
"]  c #979797",
"[  c #9F9F9F",
"{  c #A7A7A7",
"}  c gray67",
"|  c gray70",
" . c #B7B7B7",
".. c gray75",
"X. c #DF8787",
"o. c #E78F8F",
"O. c #EB9797",
"+. c #F7ABAB",
"@. c gray78",
"#. c #CBCBCB",
"$. c LightGray",
"%. c gray86",
"&. c #DFDFDF",
"@@ c #00FF00",
/* pixels */
"@@@@@@@@@@@@@@@@@@@@a a @@@@@@@@@@@@@@@@@@@@@@@@@@@@@@@@@@@@@@@@@@@@@@@@@@@@@@@@@@@@@@@@@@@@@@@@@@@@@@a a @@@@@@@@@@@@@@@@@@@@",
"@@@@@@@@@@@@@@@@@@@@i s @@@@@@@@@@@@@@@@@@@@@@@@@@@@@@@@@@@@@@@@@@@@@@@@@@@@@@@@@@@@@@@@@@@@@@@@@@@@@@s i @@@@@@@@@@@@@@@@@@@@",
"@@@@@@@@@@@@@@@@@@@@i s @@@@@@@@@@@@@@@@@@@@@@@@@@@@@@@@@@@@@@@@@@@@@@@@@@@@@@@@@@@@@@@@@@@@@@@@@@@@@@s i @@@@@@@@@@@@@@@@@@@@",
"@@@@@@@@@@@@@@@@@@@@i s @@@@@@@@@@@@@@@@@@@@@@@@@@@@@@@@@@@@@@@@@@@@@@@@@@@@@@@@@@@@@@@@@@@@@@@@@@@@@@s i @@@@@@@@@@@@@@@@@@@@",
"@@@@@@@@@@@@@@@@@@@@u s _ @@@@@@@@@@@@@@@@@@@@@@@@@@@@@@@@@@@@@@@@@@@@@@@@@@@@@@@@@@@@@@@@@@@@@@@@@@_ s u @@@@@@@@@@@@@@@@@@@@",
"@@@@@@@@@@@@@@@@@@@@u a _ ` @@@@@@@@@@u @@@@@@@@@@@@@@@@@@@@@@@@@@@@@@@@@@@@@@@@@@@@@@u @@@@@@@@@@` _ a u @@@@@@@@@@@@@@@@@@@@",
"@@@@@@@@@@@@@@@@@@@@u i _ ` @@@@@@@@u p @@@@@@@@@@@@@@@@@@@@@@@@@@@@@@@@@@@@@@@@@@@@@@p u @@@@@@@@` _ i u @@@@@@@@@@@@@@@@@@@@",
"@@@@@@@@@@@@@@@@@@@@y i s _ ` @@@@@@p s @@@@@@@@@@@@@@@@@@@@@@@@@@@@@@@@@@@@@@@@@@@@@@s p @@@@@@` _ s i y @@@@@@@@@@@@@@@@@@@@",
"@@@@@@@@@@@@@@@@@@@@r t p d ` ' d a s ` @@@@@@@@@@@@@@@@@@@@@@@@@@@@@@@@@@@@@@@@@@@@@@` s a d ' ` d p t r @@@@@@@@@@@@@@@@@@@@",
"@@@@@@@@@@@@@@@@@@@@@@r y p d ` ' ' u u u @@@@@@@@@@m N N M V Z V m g g m @@@@@@@@@@u u u ' ' ` d p y r @@@@@@@@@@@@@@@@@@@@@@",
"@@@@@@@@@@@@@@@@@@@@@@r t y p d ' [ [ d k k l M N k l B V M N V m j j g g f g f l k k d [ [ ' d p y t r @@@@@@@@@@@@@@@@@@@@@@",
"@@@@@@@@@@@@@@@@@@@@@@r r t u p d [ { %...g g N l N l j k l k l k l k j f f f N g g ..%.{ [ d p u t r r @@@@@@@@@@@@@@@@@@@@@@",
"@@@@@@@@@@a [ @@@@@@@@@@r r y i p d } ..&...j B l j m f j m m k m m j f g j l B j ..&...} d p i y r r @@@@@@@@@@[ a @@@@@@@@@@",
"@@@@@@@@@@i a [ @@@@@@@@g r u p p a s ] { | k V l j g f j m B k B m j f g j l V k | { ] s a p p u r @@@@@@@@@@[ a i @@@@@@@@@@",
"@@@@@@@@@@@@i a [ a @@l k g r i a p p a _ ` l N l k m l l g m N m g l l m k l N l ` _ a p p a i r g k @@@@a [ a i @@@@@@@@@@@@",
"@@@@@@@@@@@@i i d [ d i M k g r y i a i a s M l j m N m l k f k f k l m N j j l M s a i a i y r g k M i d [ d i i @@@@@@@@@@@@",
"@@@@@@@@@@@@@@i i d ' _ i l j k m r t y u l k j g k m M m g 2 1 2 g m M j k m j k l u y t r m k j l i _ ' d i i @@@@@@@@@@@@@@",
"@@@@@@@@@@@@@@t y i d s i B 2 g j m l m m m j k l m l k j f 1 > 1 f j j M B B k j m m m l m j g 2 B i s d i y t @@@@@@@@@@@@@@",
"@@@@@@@@@@@@@@@@& t y i B M g 2 g g f f f g j m N B B M k j f 1 f j k M B B N m l g f f f g g 2 g M B i y t & @@@@@@@@@@@@@@@@",
"@@@@@@@@@@@@@@B l j k m N k m j 2 f g k k j j l N N B N m j f 1 g k M B B C B M l k f 1 3 f 2 j m k N m k j l B @@@@@@@@@@@@@@",
"@@@@@@@@@@@@M B m g 2 g k l M g z f 2 f g j g j k m m M N l M f M M B B B B M l k g 3 < < f z g M l k g 2 g m B M @@@@@@@@@@@@",
"@@@@@@@@@@k j k g l l g j g 2 z h < 3 4 f f g j k l m M N m l f l M N M m m l j g 3 < 4 3 < h z 2 g j g l l g k j k @@@@@@@@@@",
"@@@@@@@@@@N j 2 2 j k M V M j z < 3 3 4 x 5 5 j l k k k k M k f k k k k k k k j < 5 x 4 3 3 < z j M V M k j 2 2 j N l @@@@@@@@",
"@@@@@@@@g k g m B g l M B k h z c z x x H n x 3 j m C C M k 2 . 2 k C C M l j 3 x n H x x z c z h k B M l g B m g k g @@@@@@@@",
"@@@@@@@@1 2 f k M f k k j h c b b 7 z h c c c 5 1 x A X . - 7 7 7 - . X A x 1 5 c c c h z 7 b b c h j k k f M k f 2 1 @@@@@@@@",
"@@@@@@@@; 1 1 f j 1 f f h b b H n x 7 z H L n h , x A . o A F R F A o . A x , h n L H h 7 x n H b b h f f 1 j f 1 1 ; g @@@@@@",
"@@@@@@g ; ; > 2 f > 4 z G c n H J J x 5 4 4 x c 5 A S 8 U Y E W E Y U 8 S A 5 c x h 4 5 x J J H n c G z 4 > f 2 ; ; ; g @@@@@@",
"@@@@@@l g 1 > > > 4 c G c G K I H n v x 5 z n H h S T o 9 U T E T U 9 o T S h H n z 5 x v n H I K G c G c 4 > > > 1 g l @@@@@@",
"@@@@@@m k f ; ; > h z b G I K J I P J n v x 5 v c x S T o 9 9 8 9 9 o T S x c v 5 x v n J P I J K I G b c h > ; ; f k m @@@@@@",
"@@@@@@k l N j 2 2 j k < z z n J J J H J I +.o.K G n b x F S o o o S F x v n G K o.+.I J H J G n n z z z k j 2 2 j N l k @@@@@@",
"@@@@g 2 g k g m B g l % < 3 5 n H H b I X.I H G L K P G c L S < S L c b P K L G H I X.I b H H v 5 3 < % l g B m g k g 2 g @@@@",
"@@@@7 > 1 2 f k M f k i % < < 3 z b H I P n c b G H K J J X.K 5 K X.G J K H G b c n P I z 5 3 < h < % i k f M k f 2 1 > 7 @@@@",
"@@@@2 ; ; 1 1 f j 1 f g i s y < { u < < z v n J I K X.L X.O.x +.x O.X.L X.K I J n v z < < u { < % s i g f 1 j f 1 1 ; ; 2 @@@@",
"@@@@f 2 ; ; > 2 f > 4 * e y t < ` _ h y < : 5 z b L I H J X.x P x X.J H I L b z 5 : < y h _ ` $ t y e 1 4 > f 2 > ; ; 2 f @@@@",
"@@l N l g 1 > > > 4 c f % e 0 0 y a t { y < : 5 5 x b b H K c n c K H b b x 5 5 : < y { t a y 0 0 e % f c 4 > > > 1 g l N l @@",
"@@N V m k f ; ; > h c f > * 0   % y y _ a h : h 5 z h h x c b c b c x h h z 5 h : h a _ y y %   0 > 2 f c h > ; ; f k m V N @@",
"l N m l j 1 - ; ; < 7 > *       # % $ i y 6   6 u u v z 5 5 c c c 5 5 z v u u 6   6 y i $ % #   q   > 2 7 < ; ; - 1 j l m N l ",
"k m l j f > > > ; ; < *           w @ r %       p [ u x z c H P H c z x u [ p       % r @ w     q     ; < ; ; > > > f j l m k ",
"j k j f 2 f 2 > 6 i 1 *         q               y s r   p [ t s t [ p   r s y             w   q       ; 7 i 6 > 2 f 2 f j k j ",
"g f f j 2 k g k u #., *           q             & y &   r y u { u y r   & y & q q       w q           = , #.u k g k 2 j f f g ",
"g j l N g g g g p ] 1 *           q           q             r s r $               q     w           = - > ] p g g g g N l j g ",
"@@j k m j m g m p p 1 *         q           q                       q             q q   w           = > 1 p p m g m j m k j @@",
"@@l j j m N k N k 2 g *       q             q                       q                 w q           - > g 2 k N k N m j j l @@",
"@@D f g B B C B C M g 1 *     q             q                 +       q q             w             - 1 j M C B C B B g f D @@",
"@@@@k g m l M l M B 2 g * Q q q           q q     O O O O O q w q O O O q             w           - - g j B M l M l m g k @@@@",
"@@@@k j g g l N M l i 7 i q q         q q       + + + + + w Q ~ Q w + + + O         w q         - d i 7 i l M N l g g j k @@@@",
"@@@@m l j f g l B s } i d $.        q           O 0 0 0 w ! ~ / ~ ! w 0 0 O         w q       - A $.d i } s B l g f j l m @@@@",
"@@@@@@k l m f j N g ` r a [ i Q w q q           O q q w ! ~ / ) / ~ ! w q q O         w q     ; i [ a r ` g N j f m l k @@@@@@",
"@@@@@@j k k m j l N g f u a f w Q q             q w w Q ^ / ( ) ( / ^ Q w w q         w w   ; 2 f a u f g N l j m k k j @@@@@@",
"@@@@@@m l g 2 f j l M C g f g g *               0 q w Q ~ ^ / ( / ^ ~ Q w q 0           w ; f 2 k f g C M l j f 2 g l m @@@@@@",
"@@@@@@@@g 2 > 1 v v g l M j N j g *           + + 0 q w Q ~ ^ ( ^ ~ Q w q 0 +           ; 1 g k N C l j g v v 1 > 2 g @@@@@@@@",
"@@@@@@@@j k k m j f g l M j N f f > *           + + 0 0 w Q ! ~ ! Q w q 0 +           ; 1 f > j N m k g g f j m k k j @@@@@@@@",
"@@@@@@@@k g k k m k l j j f j f f f > *             + + 0 q w w q q q 0 + O         > > > > f j j j f 2 l k m k k g k @@@@@@@@",
"@@@@@@@@g 2 f g j N j l j a j f 7 1 z 4 ,   e @.e $   O + + + + + + + O   $ e @.e > , 4 z 1 7 f f a x x 2 N j g f 2 g @@@@@@@@",
"@@@@@@g 2 > 1 f g m j l l j j g g f 1 z 4 > d  .d e     O O O O O O       e d  .d < 4 z 1 f g g g f v 1 1 m g f 1 > 2 g @@@@@@",
"@@@@@@f > @@@@2 f j 1 j M C N j i j g f z 4 s [ ` u 6   y a       a y   6 u ` [ s 4 z f g j i j N C M l 1 j f 2 @@@@> f @@@@@@",
"@@@@@@2 g m @@@@2 f 2 2 g m N C k i ` j g f p ' ] s e 6 i ' i & i ' i 6 e s ] ' p f g j ` i k C N m g 2 2 f 2 @@@@m g 2 @@@@@@",
"@@@@@@@@2 k m k 1 2 m M B j m C N m k i ` j u s [ s e g a { ' f ' { a g e s [ s u j ` i k m N C m j B M m 2 1 k m k 2 @@@@@@@@",
"@@@@@@@@@@2 1 1 > m i u k B l m C N M m k j 2 u s i g j i ' a l a ' i j g i s u 2 j k m M N C m l B k u i m > 1 1 2 @@@@@@@@@@",
"@@@@@@@@@@@@@@@@@@a [ $.u k B k j B C C B j 2 > > 2 j m j g l N l g j m j 2 > > 2 j B C C B j k B k u $.[ a @@@@@@@@@@@@@@@@@@",
"@@@@@@@@@@@@@@@@@@d ] _ u f B k m B M N M B j 2 > j m N B N N N N N B N m j > 2 j B M N M B m k B f u _ ] d @@@@@@@@@@@@@@@@@@",
"@@@@@@@@@@@@@@@@@@a s i t 2 B k B l g g l m B j j m N B N m l j l m N B N m j j B m l g g l B k B 2 t i s a @@@@@@@@@@@@@@@@@@",
"@@@@@@@@@@@@@@@@@@t u & & m k f M g 1 @@f f 1 B B N l k j g 2 g 2 g j k l N B B 1 f f @@1 g M f k m & & u t @@@@@@@@@@@@@@@@@@",
"@@@@@@@@@@@@@@@@@@t u @@@@- > > l k 1 1 2 1 2 2 l M l @@f 1 2 f 2 1 f @@l M l 2 2 1 2 1 1 k l > > - @@@@u t @@@@@@@@@@@@@@@@@@",
"@@@@@@@@@@@@@@@@@@@@@@@@@@@@@@@@@@l g 2 1 @@@@1 g @@@@g 1 ; 2 k 2 ; 1 g @@@@g 1 @@@@1 2 g l @@@@@@@@@@@@@@@@@@@@@@@@@@@@@@@@@@",
"@@@@@@@@@@@@@@@@@@@@@@@@@@@@@@@@@@@@k 2 2 m @@@@1 g 2 1 ; @@k m k @@; 1 2 g 1 @@@@m 2 2 k @@@@@@@@@@@@@@@@@@@@@@@@@@@@@@@@@@@@",
"@@@@@@@@@@@@@@@@@@@@@@@@@@@@@@@@@@@@@@@@> 2 k m l 2 ; ; @@@@m > m @@@@; ; 2 l m k 2 > @@@@@@@@@@@@@@@@@@@@@@@@@@@@@@@@@@@@@@@@",
"@@@@@@@@@@@@@@@@@@@@@@@@@@@@@@@@@@@@@@@@@@@@> > > ; - > j m > @@> m j > - ; > > > @@@@@@@@@@@@@@@@@@@@@@@@@@@@@@@@@@@@@@@@@@@@",
"@@@@@@@@@@@@@@@@@@@@@@@@@@@@@@@@@@@@@@@@@@@@@@@@@@@@@@> > > @@@@@@> > > @@@@@@@@@@@@@@@@@@@@@@@@@@@@@@@@@@@@@@@@@@@@@@@@@@@@@@"
};
