/* XPM */
static char *result[] = {
/* columns rows colors chars-per-pixel */
"24 30 50 1 ",
"  c black",
". c #2B230F",
"X c #332B13",
"o c #3F2F17",
"O c #430000",
"+ c #530707",
"@ c #670000",
"# c #670B0B",
"$ c #730000",
"% c #7F0000",
"& c #7F1B1B",
"* c #4B371B",
"= c #533F1F",
"- c #5F4323",
"; c #6B4727",
": c #774F2B",
"> c #8B0000",
", c #831F1F",
"< c #A70000",
"1 c #8B2323",
"2 c #8F2B2B",
"3 c #972F2F",
"4 c #9B3333",
"5 c #A33B3B",
"6 c #A73F3F",
"7 c #CB0000",
"8 c #D70000",
"9 c #E30000",
"0 c #875733",
"q c #8F5F37",
"w c #9B633B",
"e c #A36B3F",
"r c #AF4747",
"t c #BB5757",
"y c #BF5B5B",
"u c #AB6F43",
"i c #B37347",
"p c #BF7B4B",
"a c #CB7F4F",
"s c #CF8353",
"d c #D78B5B",
"f c #DF9363",
"g c #E79B6B",
"h c #EFA373",
"j c #F7AB7B",
"k c #E78F8F",
"l c #FFB383",
"z c #FFBB93",
"x c #FFC7A7",
"c c #00FF00",
/* pixels */
"ccccc*--;::::::;--*ccccc",
"cccX-=-;:qwwwwq:;-=-Xccc",
"ccX=;qqeeuupiuwq0::;*Xcc",
"ccX*qqeeiippppieqq0;*.cc",
"c.X=-:qwpaseiwwwqq::=..c",
"c..X:0:qwiiuqee:::-=XX.c",
"c...-:-=:iq:;iq-X-*X.X.c",
"c.XX*=-=:qq:;q:-Xo-.XX.c",
"c.X.*<<*;q0X-::*X*;=**.c",
"c.X-@7<*-0Xw-:-X7>;q=*.c",
"c.*--&>iX=XeX:X;>>0uq*.c",
"c.*::3&iiXX0qXwe33i0w*.c",
"i *::r3hgsXeqqep36hs:o i",
"io*qirrzlgseesgl6tgiq*oi",
"qo*i==eefzisjizftt==i*oq",
";-0qooo;i;*ee*;i;oooq0-;",
"0-wg:k2 # *==* # #5tgw-0",
"q-ajgr&&#-;uu;-##5ttja-q",
"c-ajy6ggjdujjudjggr2ja-c",
"c0pd6spq-udxxdu-qps2da0c",
"c0ua6e;;22egge22;;e2apcc",
"ccwayrOO#$2002$#OOu,aucc",
"cc;ad36@OOOOOOO$O6t,ewcc",
"cccea3i6>@>88>@$6ut,wccc",
"ccc;u1iu6@>>>>@6uit1;ccc",
"cccc;&aa27799772aau;cccc",
"ccccc;sfa2%&&&2afs;ccccc",
"cccccc;uf+ryyr&fu;cccccc",
"ccccccco;+4rr4&;occccccc",
"ccccccccco,,,,occccccccc"
};
