/* XPM */
static char *result[] = {
/* columns rows colors chars-per-pixel */
"24 30 39 1 ",
"  c black",
". c #2B230F",
"X c #332B13",
"o c #3F2F17",
"O c gray23",
"+ c #730000",
"@ c #4B371B",
"# c #533F1F",
"$ c #5F4323",
"% c #6B4727",
"& c #774F2B",
"* c gray31",
"= c gray34",
"- c gray39",
"; c #777777",
": c gray50",
"> c #875733",
", c #8F5F37",
"< c #9B633B",
"1 c #A36B3F",
"2 c #AB6F43",
"3 c #B37347",
"4 c #BF7B4B",
"5 c #CB7F4F",
"6 c #CF8353",
"7 c #D78B5B",
"8 c #DF9363",
"9 c #E79B6B",
"0 c #EFA373",
"q c #F7AB7B",
"w c #000083",
"e c #9F9F9F",
"r c gray67",
"t c #FFB383",
"y c #FFBB93",
"u c #FFBF9B",
"i c #FFC7A7",
"p c gray86",
"a c None",
/* pixels */
"aaaaa@$$%&&&&&&%$$@aaaaa",
"aaaX$#$%&,<<<<,&%$#$Xaaa",
"aaX#%,,1122432<,>&&%@Xaa",
"aaX@,,1133444431,,>%@.aa",
"a.X#$&,<45613<<<,,&&#..a",
"a..X&>&,<3>2,1&&&&$#XX.a",
"a...$&$,#2,%,@o$@$@X.X.a",
"a.XX@#$##<Xo.%@%@o$.XX.a",
"a.X.@&>#,#%#XX%1%@%#@@.a",
"a.X$#&,2#4#<>#X%1,%,#@.a",
"a.@$$,23>1%14#4%11>2,@.a",
"a.@&&<333>1>,,<1,33><@.a",
"3 @&<609641&&146906<&o 3",
"3o@,39yyt961169tyy93,@o3",
",o@3###18y36q3y81###3@o,",
"%$>,ooo%3%@11@%3%ooo,>$%",
">$<9&:w = @##@ = w:&9<$>",
",$5q9202<$%22%$<2029q5$,",
"a$5qq999q72qq27q999qq5$a",
"a>47964,$27ii72$,46975>a",
"a>2591O%$&1991&$%O1954aa",
"aa<572%O,4>>>+4,O%2752aa",
"aa%575<-*;:ee:;*-3571<aa",
"aaa15737--rppr--7275<aaa",
"aaa%25327-;::;-72352%aaa",
"aaaa%255,37yy73,552%aaaa",
"aaaaa%685,$oo$,586%aaaaa",
"aaaaaa%2852>>2582%aaaaaa",
"aaaaaaa%,79uu97,%aaaaaaa",
"aaaaaaaaa$,33,$aaaaaaaaa"
};
