/* XPM */
static char *result[] = {
/* columns rows colors chars-per-pixel */
"24 30 38 1 ",
"  c black",
". c #2B230F",
"X c #332B13",
"o c #3F2F17",
"O c gray23",
"+ c #4B371B",
"@ c #533F1F",
"# c #5F4323",
"$ c #6B4727",
"% c #774F2B",
"& c gray31",
"* c gray34",
"= c gray39",
"- c #777777",
"; c gray50",
": c #875733",
"> c #8F5F37",
", c #9B633B",
"< c #A36B3F",
"1 c #AB6F43",
"2 c #B37347",
"3 c #BF7B4B",
"4 c #CB7F4F",
"5 c #CF8353",
"6 c #D78B5B",
"7 c #DF9363",
"8 c #E79B6B",
"9 c #EFA373",
"0 c #F7AB7B",
"q c #000083",
"w c #9F9F9F",
"e c gray67",
"r c #FFB383",
"t c #FFBB93",
"y c #FFBF9B",
"u c #FFC7A7",
"i c gray86",
"p c None",
/* pixels */
"ppppp+##$%%%%%%$##+ppppp",
"pppX#@#$%>,,,,>%$#@#Xppp",
"ppX+$%%:>,,,,,,>%%%$+Xpp",
"ppX+$:::>,,,,,,>%%%$+.pp",
"p.X#%>,,,,:,,,,>>%%$+..p",
"p..%:%>,:::><%%%%#@#XX.p",
"p..#%#>,>>>>+>#+#+X+.X.p",
"p.X+@#>@,$$>$+$+o#.XXX.p",
"p.X+%%@>@$%$$>>>::$@.+.p",
"p.X@%1%@<@%><2,<>>>%#+.p",
"p.+#>12<<2,,,,2<<21>#o.p",
"p.+%,555<,%::%,<555,%+.p",
"2 +%,59853<%%<35895,%+ 2",
"2o+>28ttr85<<58rtt82>+o2",
">o+2@@@<7t25r2t7<@@@2+o>",
"$#:>ooo$2$+<<+$2$ooo>:#$",
":#,8%;q * +@@+ * q;%8,#:",
">#408191,#$11$#,191804#>",
"p#40088806100160888004#p",
"p:36853>#16uu61#>35863:p",
"p:148<O$#%<88<%#$O<841:p",
"pp,461$O>3::::3>O$164,pp",
"pp$464,=&-;ww;-&=,464$pp",
"ppp<4626==eiie==6264<ppp",
"ppp$14216=-;;-=61241$ppp",
"pppp$144>26tt62>441$pppp",
"ppppp$574>#oo#>475$ppppp",
"pppppp$1741::1471$pppppp",
"ppppppp$>68yy86>$ppppppp",
"ppppppppp#>22>#ppppppppp"
};
