/* XPM */
static char *result[] = {
/* columns rows colors chars-per-pixel */
"24 30 46 1 ",
"  c black",
". c #2B230F",
"X c #332B13",
"o c #3F2F17",
"O c gray23",
"+ c #5B0707",
"@ c #670B0B",
"# c #4B371B",
"$ c #533F1F",
"% c #5F4323",
"& c #6B4727",
"* c #774F2B",
"= c gray31",
"- c gray39",
"; c #777777",
": c gray50",
"> c #8F2B2B",
", c #972F2F",
"< c #9B3333",
"1 c #875733",
"2 c #8F5F37",
"3 c #9B633B",
"4 c #A36B3F",
"5 c #AF4747",
"6 c #BB5757",
"7 c #AB6F43",
"8 c #B37347",
"9 c #BF7B4B",
"0 c #CB7F4F",
"q c #C76363",
"w c #CB6B6B",
"e c #CF8353",
"r c #D78B5B",
"t c #DF9363",
"y c #E79B6B",
"u c #EFA373",
"i c #F7AB7B",
"p c #9F9F9F",
"a c gray67",
"s c #E78F8F",
"d c #FFB383",
"f c #FFBB93",
"g c #FFBF9B",
"h c #FFC7A7",
"j c gray86",
"k c #00FF00",
/* pixels */
"kkkkk#%%&******&%%#kkkkk",
"kkkX%$%&*233332*&%$%Xkkk",
"kkX$&224477987321**&#Xkk",
"kkX#224488999984221&#.kk",
"k.X$%*2390e4833322**$..k",
"k..X*1*2381724****%$XX.k",
"k...%*%$*22*&**%X%#X.X.k",
"k.XX#$%#&21X%**#Xo%.XX.k",
"k.X.#*1#%1X$%*%X&#&$##.k",
"k.X%$*27X$X3X*X&42&2$#.k",
"k.#%%2781XX49X9&44172#.k",
"k.#**38881X1223428813#.k",
"8 #**3euye942249eyue*o 8",
"8o#28yffdye44eydffy82#o8",
"2o#8$$44tf8ei8ft44$$8#o2",
"&%12oooo&&#44#&&oooo21%&",
"1%3y*s>   #$$#   >s*y3%1",
"2%0iy7q,,%&77&%,,q7yi0%2",
"k%0iiyyyir7ii7riyyyii0%k",
"k19ryw62%7rhhr7%29wwr01k",
"k170w,O&%,4yy4+%&O,w09kk",
"kk30w6,O22,11,@2O,6w07kk",
"kk&0rw6-=;:pp:;=-86r43kk",
"kkk40r8r--ajja--r7r03kkk",
"kkk&7087r-;::;-r7807&kkk",
"kkkk&7002<5ww5<2007&kkkk",
"kkkkk&et05%oo%,0te&kkkkk",
"kkkkkk&7t551156t7&kkkkkk",
"kkkkkkk&25,gg562&kkkkkkk",
"kkkkkkkkk%,882%kkkkkkkkk"
};
