/* XPM */
static char *result[] = {
/* columns rows colors chars-per-pixel */
"24 30 39 1 ",
"  c black",
". c #2B230F",
"X c #332B13",
"o c #3F2F17",
"O c #272727",
"+ c #4B371B",
"@ c #533F1F",
"# c #5F4323",
"$ c #6B4727",
"% c #774F2B",
"& c #7F532F",
"* c #434343",
"= c gray34",
"- c gray39",
"; c #777777",
": c gray50",
"> c #875733",
", c #8F5F37",
"< c #9B633B",
"1 c #A36B3F",
"2 c #AB6F43",
"3 c #B37347",
"4 c #BF7B4B",
"5 c #CB7F4F",
"6 c #CF8353",
"7 c #D78B5B",
"8 c #DF9363",
"9 c #E79B6B",
"0 c #EFA373",
"q c #F7AB7B",
"w c #000083",
"e c #979797",
"r c #FFB383",
"t c #FFBB93",
"y c #FFBF9B",
"u c #FFC7A7",
"i c #CBCBCB",
"p c gray86",
"a c None",
/* pixels */
"aaaaa+##$%%%%%%$##+aaaaa",
"aaaX#@#$%,<<<<,%$#@#Xaaa",
"aaX+$%%%,<<<<<<,%%%$+Xaa",
"aaX+$%%>,<<<<<<,%%%$+.aa",
"a.X+$>>>,<<<<<<,%%%$+..a",
"a..#%,<<<<><<<<,,%%#XX.a",
"a..%>%,<>>>,1%%%%#@+.X.a",
"a.X#%#,<,,,,+,#+#+XXXX.a",
"a.X+@#,@<$$,$+$+o#.@.+.a",
"a.X+>%@,@$%$$,,,>>$%#+.a",
"a.+@12%@1@%,13<1,,,,#+.a",
"a.+%265531222213556<%+.a",
"3 +%3609641,,146906<%+ 3",
"3o+,39ttr961169rtt93,+o3",
",o+,@ @18t36q3t81@ @,+o,",
"$###o#o$3$+11+$3$o#o###$",
">###.:w = +@@+ = w:.###>",
",#>3,202$#$22$#$202,3>#,",
"a#>77179q72qq27q97177>#a",
"a#%124t71%9tt9%17t421%#a",
"aa%,,7q1,17uu71,1q7,,%aa",
"aa%1<99168199186199<1%aa",
"aa#5,79%35633653%97,5#aa",
"aaa2157#O*-;;-*O#7512aaa",
"aaa>257%OeippieO%752>aaa",
"aaaa,35157qttq75153,aaaa",
"aaaa$<61,,,&&,,,16<$aaaa",
"aaaaa$16,159951,61$aaaaa",
"aaaaaa@1379yy9731@aaaaaa",
"aaaaaaaa,333333,aaaaaaaa"
};
