/* XPM */
static char *result[] = {
/* columns rows colors chars-per-pixel */
"24 30 54 1 ",
"  c black",
". c #2B230F",
"X c #332B13",
"o c #3F2F17",
"O c #272727",
"+ c #530707",
"@ c #670000",
"# c #670B0B",
"$ c #7F0000",
"% c #7F1B1B",
"& c #4B371B",
"* c #533F1F",
"= c #5F4323",
"- c #6B4727",
"; c #774F2B",
": c #434343",
"> c #777777",
", c #8B0000",
"< c #831F1F",
"1 c #A70000",
"2 c #B30000",
"3 c #8B2323",
"4 c #8F2B2B",
"5 c #972F2F",
"6 c #9B3333",
"7 c #A33B3B",
"8 c #A73F3F",
"9 c #CB0000",
"0 c #E30000",
"q c #EF0000",
"w c #875733",
"e c #8F5F37",
"r c #9B633B",
"t c #A36B3F",
"y c #AF4747",
"u c #BB5757",
"i c #BF5B5B",
"p c #AB6F43",
"a c #B37347",
"s c #BF7B4B",
"d c #CB7F4F",
"f c #FF7B7B",
"g c #CF8353",
"h c #D78B5B",
"j c #DF9363",
"k c #E79B6B",
"l c #F7AB7B",
"z c #979797",
"x c #E78F8F",
"c c #FFB383",
"v c #FFBB93",
"b c #FFC7A7",
"n c gray86",
"m c #00FF00",
/* pixels */
"mmmmm&==-;;;;;;-==&mmmmm",
"mmmX=*=-;errrre;-=*=Xmmm",
"mmX*-eettppsaprew;;-&Xmm",
"mmX&eettaassssateew-&.mm",
"m.X*=;ersdgtarrree;;*..m",
"m..X;w;eraapett;;;=*XX.m",
"m...=;=*;ae;-ae=X=&X.X.m",
"m.XX&*=*;ee;-e;=Xo=.XX.m",
"m.X.&11&-ewX=;;&X&-*&&.m",
"m.X=@91&=wXr=;=X9,-e*&.m",
"m.&==@,aX*XtX;X-,,wpe&.m",
"m.&;;5%aaXXweXrt55awr&.m",
"a &;ry5kgsX;;tsg58gr;o a",
"ao&eayyvckgttgkc8ukae&oa",
"eo&e* *tjvaglavjuu *e&oe",
"-===o=o-a-&tt&-a-o=o===-",
"w===.x4 # &**& # #xu===w",
"e=waey%%#=-pp-=##7uuaw=e",
"m=whi8hklhpllphlkhy4hw=m",
"m=;t8svh;*kvvk*;hvs4t;=m",
"mm;e8hltethbbhtetlh4e;mm",
"mm;tikktg4tkkt%gtkk<t;mm",
"mm=deik;ad4aa,@a;kh<d=mm",
"mmmptyhyO:11>1:Oyhd<pmmm",
"mmmwp4hyOzffnqzOihd3wmmm",
"mmmme%di12000021yda4mmmm",
"mmmm-%gti%$334%itgr3mmmm",
"mmmmm%tge%yiiy%egt-mmmmm",
"mmmmmm%ta+6yy6%at*mmmmmm",
"mmmmmmmm<<6666<<mmmmmmmm"
};
