/* XPM */
static char *result[] = {
/* columns rows colors chars-per-pixel */
"24 31 48 1 ",
"  c black",
". c #2B230F",
"X c #332B13",
"o c #3F2F17",
"O c #2F2F2F",
"+ c #5F0707",
"@ c #7F1B1B",
"# c #4B371B",
"$ c #533F1F",
"% c #473323",
"& c #5F4323",
"* c #6B4727",
"= c #774F2B",
"- c #7F532F",
"; c #5B5B5B",
": c #777777",
"> c #831F1F",
", c #8B2323",
"< c #8F2B2B",
"1 c #972F2F",
"2 c #9B3333",
"3 c #A73F3F",
"4 c #875733",
"5 c #8F5F37",
"6 c #9B633B",
"7 c #A36B3F",
"8 c #AF4747",
"9 c #B34F4F",
"0 c #BB5757",
"q c #AB6F43",
"w c #B37347",
"e c #BF7B4B",
"r c #CB7F4F",
"t c #CB6B6B",
"y c #DB7B7B",
"u c #9F8363",
"i c #CF8353",
"p c #D78B5B",
"a c #DF9363",
"s c #E79B6B",
"d c #EFA373",
"f c #F7AB7B",
"g c #FFB37B",
"h c #FFB383",
"j c #FFBB93",
"k c #FFBF9B",
"l c #FFD7BB",
"z c #00FF00",
/* pixels */
"zzzzz#&&*======*&&#zzzzz",
"zzzX&$&*=566665=*&$&Xzzz",
"zzX$*5577qqewq654==*#Xzz",
"zzX#5577wweeeew7554*#.zz",
"z.X$&=56eri7w66655==$..z",
"z..X=4=56w4q57====&$XX.z",
"z...&=&5$q5*5#o&#&#X.X.z",
"z.XX#$&$$6Xo.*#*#o&.XX.z",
"z.X.#=4$5$*$XX*7*#*$##.z",
"z.X&$=5q$e$64$X*75*5$#.z",
"z.#&&5qw47*7e$e*774q5#.z",
"z.#==6www47455675ww46#.z",
"w #5**4ihspwwisa7$**5# w",
"w*#=aq5o*4asisw*o5qa=%*w",
"5*&*5 3yo#5ae5#o3y 5*4*5",
"*&&4$3# y $7f$ 3 #y$44&*",
"4&4iw&22if5es5fi22&wi4&4",
"5&5isw&4ijpigpji4&wsi5&5",
"z&5esffjdfpglpffdjfse5&z",
"z&55wqsi5q6uu6q5isqe55&z",
"z&7--7s54$=44=,$5s7--7&z",
"zz5547p*wp6**8>w*p7475zz",
"zz-7-7i=wfpppt9w=i7-e-zz",
"zzz5-6e608====qp6e6-7zzz",
"zzz4-4e0,O;::;Ow6e4-4zzz",
"zzz=--70,      6q7=-=zzz",
"zzzz-=5e1 +  + 4e5=-zzzz",
"zzzz==4i7;<@@<;7i4==zzzz",
"zzzzz=-wq5;::;5qw-=zzzzz",
"zzzzzz=5qq5--5qq5=zzzzzz",
"zzzzzzz=6rdkkdr6=zzzzzzz"
};
