/* XPM */
static char *result[] = {
/* columns rows colors chars-per-pixel */
"24 31 40 1 ",
"  c black",
". c #2B230F",
"X c #332B13",
"o c #3F2F17",
"O c #2F2F2F",
"+ c #5F0707",
"@ c #7F1B1B",
"# c #4B371B",
"$ c #533F1F",
"% c #473323",
"& c #5F4323",
"* c #6B4727",
"= c #774F2B",
"- c #7F532F",
"; c #5B5B5B",
": c #777777",
"> c #831F1F",
", c #8B2323",
"< c #8F2B2B",
"1 c #875733",
"2 c #8F5F37",
"3 c #9B633B",
"4 c #A36B3F",
"5 c #B34F4F",
"6 c #AB6F43",
"7 c #B37347",
"8 c #BF7B4B",
"9 c #CB7F4F",
"0 c #CF8353",
"q c #D78B5B",
"w c #DF9363",
"e c #E79B6B",
"r c #EFA373",
"t c #F7AB7B",
"y c #FFB37B",
"u c #A7A7A7",
"i c #FFB383",
"p c #FFBB93",
"a c #FFBF9B",
"s c None",
/* pixels */
"sssss#&&&*=====*&&#sssss",
"sssX&$&*28700763=&$&Xsss",
"ssX&=238904733322==$#Xss",
"ssX=1=2371624====&$XX.ss",
"s.o&=&2$62*2#o&#&#X....s",
"s.o#$&$$3Xo.*#*#o&.XXo.s",
"s.##=1$2$*$XX*4*#*$#o#.s",
"s.#$=26$8$31$X*42*2$##.s",
"s.#&26714*48$8*44162$#.s",
"s.#=3777141223427713&#.s",
"s.#=30re08422480er03=#.s",
"s.#=7eppeq7qq06qrpe7=#.s",
"7*#2**10ieq770ew4$**2#*7",
"7*%=w62o*1we0e7*o26w=%*7",
"2*1*2 :uo#2w82#o:u 2*1*2",
"*&11$:# u $4t$ : #u$11&*",
"1&107&;;0t28e2t0;;&701&1",
"2&20e7&10pq0yqp01&7e02&2",
"s&28ettpr7eqye7trpte82&s",
"s&2276e02&3773&20e6822&s",
"s&4--4e21$=11=$12e4--4&s",
"ss2214q*7q3**,q7*q4142ss",
"ss-4-40=7tqqq>t7=04-8-ss",
"sss2-383q6===56q383-4sss",
"sss1-1837O;::;O7381-1sss",
"sss=--463      364=-=sss",
"ssss-=281 +  + 182=-ssss",
"ssss==104;<@@<;401==ssss",
"sssss=-762;::;267-=sssss",
"ssssss=2662--2662=ssssss",
"sssssss=39raar93=sssssss"
};
