/* XPM */
static char *result[] = {
/* columns rows colors chars-per-pixel */
"24 31 55 1 ",
"  c black",
". c #2B230F",
"X c #332B13",
"o c #3F2F17",
"O c #470000",
"+ c #4F0000",
"@ c #530707",
"# c #5B0707",
"$ c #5F0707",
"% c #670000",
"& c #670B0B",
"* c #6B0F0F",
"= c #730000",
"- c #771717",
"; c #7F1B1B",
": c #4B371B",
"> c #533F1F",
", c #5F4323",
"< c #6B4727",
"1 c #774F2B",
"2 c #7F532F",
"3 c #831F1F",
"4 c #8B2323",
"5 c #8F2B2B",
"6 c #972F2F",
"7 c #9B3333",
"8 c #A33B3B",
"9 c #A73F3F",
"0 c #875733",
"q c #8F5F37",
"w c #9B633B",
"e c #A36B3F",
"r c #AF4747",
"t c #B34F4F",
"y c #BB5757",
"u c #BF5B5B",
"i c #836B4B",
"p c #8F7753",
"a c #AB6F43",
"s c #B37347",
"d c #BF7B4B",
"f c #CB7F4F",
"g c #C76363",
"h c #CB6B6B",
"j c #D37373",
"k c #CF8353",
"l c #D78B5B",
"z c #DF9363",
"x c #E79B6B",
"c c #EFA373",
"v c #F7AB7B",
"b c #DF8787",
"n c #FFBB93",
"m c #FFC7A7",
"M c #00FF00",
/* pixels */
"MMMMM:,,<q<X<q1<,,:MMMMM",
"MMMX,>,11aq<qaq100>,XMMM",
"MMX><1wqewaqaks101q<:XMM",
"MMX:1wqeasdddaew111q>oMM",
"M.:,qqewadzzzkaq00<01:.M",
"M.:10qewdkzczkks0q1>0:.M",
"M.>12qq<wskzksekq1q>1:.M",
"M.>12<<waksksdsqk1q><o.M",
"M.o><o<qkwawwwdws,<:,X.M",
"M.XoX:2qawq<qwa2w><:Xo.M",
"M.XXX:1a002o2we,0::Xo:.M",
"M.X.o:,q1q,o,1wX1:X#,:.M",
"s.:,1o,1<q>Xo1w,XOX#,:.s",
"s :1w+o,,0X+o>0XO%1;1: s",
"qo:1w$+X>>X+o>qX@@q41:oq",
"<o:qp5$,X>X<<X1,7&ptq,o<",
"0,,iq;;qX>XXqsww$$qqi,,0",
"q,,q,t$  $:>X:$  $r,q0,q",
"M,0sp<$:<,<qq<,<$$<ps0,M",
"M,0dpq;<qflvnlfq33qpd1,M",
"M,1eljjcvxxnnxxvbumle1,M",
"MM1qqgzvzslmmlszytdqq1MM",
"MM1ew9zzt1sxxe1t99dwe1MM",
"MMMqedtk6$1ll1#677deq>MM",
"MMM<qs3y*-#,,***55sq<MMM",
"MMMM<s;rr@=33=;8r6w<MMMM",
"MMMM>w;yt7rhhr76y60>MMMM",
"MMMMM>;sz765479zs6>MMMMM",
"MMMMMM<es6tjjttke6MMMMMM",
"MMMMMMM><56996te>MMMMMMM",
"MMMMMMMMo#4444;oMMMMMMMM"
};
