/* XPM */
static char *result[] = {
/* columns rows colors chars-per-pixel */
"24 30 40 1 ",
"  c black",
". c #2B230F",
"X c #332B13",
"o c #3F2F17",
"O c #7F1B1B",
"+ c #4B371B",
"@ c #533F1F",
"# c #5F4323",
"$ c #6B4727",
"% c #774F2B",
"& c #7F532F",
"* c #676B4F",
"= c #7B7F63",
"- c #831F1F",
"; c #8B2323",
": c #972F2F",
"> c #875733",
", c #8F5F37",
"< c #9B633B",
"1 c #A36B3F",
"2 c #AF4747",
"3 c #B34F4F",
"4 c #BB5757",
"5 c #AB6F43",
"6 c #B37347",
"7 c #BF7B4B",
"8 c #CB7F4F",
"9 c #C76363",
"0 c #CB6B6B",
"q c #CF8353",
"w c #D78B5B",
"e c #DF9363",
"r c #E79B6B",
"t c #EFA373",
"y c #F7AB7B",
"u c #FFB383",
"i c #FFBB93",
"p c #FFBF9B",
"a c #FFC7A7",
"s c None",
/* pixels */
"sssss+##$%%%%%%$##+sssss",
"sssXX#@#$%,<<<<,%$#@Xsss",
"ssX+@$%,1155765<,>%%+Xss",
"ssX++%,1166777761,,>+.ss",
"s.XX@%%,<78q16<<<,,%$..s",
"s...X%>%,<6>5,1%%%%##X.s",
"s....#%#,@5,$,+o#+#++X.s",
"s.XXX+@#@@<Xo.$+$+o#XX.s",
"s.XX.+%>@,@$@XX$1$+$@+.s",
"s.XX#@%,5@7@<>@X$1,$%+.s",
"s.++##,56>1$17@7$11>,+.s",
"s.oo%%<666>1>,,<1,66<o.s",
"6 oo%%<qtrq71,,17qrt<o #",
">1+#,@ @1erq61qruiir6+o#",
"$>+#,&%@$6i6qy6ie1@ @+o#",
"$####o....$+11+$6$o#o###",
">##>>.  3O +@@+   3O.###",
",#>66,5=*$#$55$#$*=5,>##",
"s,>6www1,5q5yy5q5,1ww>#s",
"s#%<151wpririirirpw15%#s",
"ss%<,,7iw1%waaw%1wi7,%ss",
"ss%<1<wy1,11rr1;,1yw<%ss",
"sss<8,rr1qe1662-q1rr,#ss",
"sss>51wrq49pww03wqrw1sss",
"ssss>58w5-O&##::55w85sss",
"ssss@,68899yiiyw8886,sss",
"sssss$<qe65,&&,56eq<$sss",
"ssssss$1qe18rr81eq1$ssss",
"sssssss@16wrpprw61@sssss",
"ssssssss@,666666,@ssssss"
};
