/* XPM */
static char *result[] = {
/* columns rows colors chars-per-pixel */
"24 29 39 1 ",
"  c black",
". c #2B230F",
"X c #332B13",
"o c #3F2F17",
"O c #4B371B",
"+ c #533F1F",
"@ c #473323",
"# c #5F4323",
"$ c #6B4727",
"% c #774F2B",
"& c #7F532F",
"* c #675333",
"= c gray34",
"- c gray42",
"; c gray50",
": c #9B5B13",
"> c #875733",
", c #8F5F37",
"< c #9B633B",
"1 c #A36B3F",
"2 c #AB6F43",
"3 c #B37347",
"4 c #BF7B4B",
"5 c #CB7F4F",
"6 c #9F8363",
"7 c #CF8353",
"8 c #D78B5B",
"9 c #FFA35B",
"0 c #DF9363",
"q c #E79B6B",
"w c #EFA373",
"e c #F7AB7B",
"r c #FFB37B",
"t c #9F9F9F",
"y c #FFB383",
"u c #FFBB93",
"i c #FFBF9B",
"p c #FFD7BB",
"a c None",
/* pixels */
"aaaaaO###$%%%%%$##Oaaaaa",
"aaaX#+&,2477742<%#+#Xaaa",
"aaX#%,245743<<<,,%%+OXaa",
"aaX%>%,<3>2,1%%%%#+XX.aa",
"a.o#%#,<,,,,O,#O#OX....a",
"a.oO+#,+<$$,$O$Oo#.XXo.a",
"a.OO%%+,+$%$$,,,>>$OoO.a",
"a.O+%,%+1+%,13<1,,,$OO.a",
"a.O#,23113333331132,+O.a",
"a.O%<75531222213557<#O.a",
"a.O%<7wq741,,147qw7<%O.a",
"a.O%3quuqq7887qq<+ o%O.a",
"3$O%oo+10u4ee4u< o%>%O$3",
"3$@3>#ooo #22#   o#3,@$3",
",$*3%;t-  O++O =t- %3*$,",
"$#>3,2w2$#,77,#$2w2,3>#$",
">#>8842,272ee272,2488>#>",
",#,70w05ququuquq50w07,#,",
"a#>1248wy08rp80yw8421>#a",
"a#%<14wi82<66<28iw41<%#a",
"aa%3<8uq1+%>>%+1qu8<3%aa",
"aa#5<qe4704114074eq<5#aa",
"aa+218q78ei88ie87q812+aa",
"aaa>258,%::::::%,852>aaa",
"aaa+,35558q99q85553,+aaa",
"aaaa$<7052,&&,2507<$aaaa",
"aaaaa$17055qq55071$aaaaa",
"aaaaaa+>38qiiq83>+aaaaaa",
"aaaaaaaa$,1111,$aaaaaaaa"
};
