/* XPM */
static char *result[] = {
/* columns rows colors chars-per-pixel */
"24 30 40 1 ",
"  c black",
". c #2B230F",
"X c #332B13",
"o c #3F2F17",
"O c #7F1B1B",
"+ c #4B371B",
"@ c #533F1F",
"# c #5F4323",
"$ c #6B4727",
"% c #774F2B",
"& c #7F532F",
"* c #676B4F",
"= c #7B7F63",
"- c #831F1F",
"; c #8B2323",
": c #972F2F",
"> c #875733",
", c #8F5F37",
"< c #9B633B",
"1 c #A36B3F",
"2 c #AF4747",
"3 c #B34F4F",
"4 c #BB5757",
"5 c #AB6F43",
"6 c #B37347",
"7 c #BF7B4B",
"8 c #CB7F4F",
"9 c #C76363",
"0 c #CB6B6B",
"q c #CF8353",
"w c #D78B5B",
"e c #DF9363",
"r c #E79B6B",
"t c #EFA373",
"y c #F7AB7B",
"u c #FFB383",
"i c #FFBB93",
"p c #FFBF9B",
"a c #FFC7A7",
"s c #00FF00",
/* pixels */
"sssss+##$%%%%%%$##+sssss",
"sssX#@%>55665<,%$#@#Xsss",
"ssX@$>,1788775<,>%%$+Xss",
"ssX+>,168wwq8851,,>$+.ss",
"s.X@>>6<5q5q61<5,,%$+..s",
"s..X%>5,<q>561,%<%##XX.s",
"s...#%<,@5$&,1$#+#++.X.s",
"s.XX+@#<@<Xo%,$$+o#XXX.s",
"s.X@+%>@,@<@X$$,$+$@.+.s",
"s.X#@%,5@7@<>@$&1,$%#+.s",
"s.+$$,56>1$17@7$11>,#+.s",
"s.+%><666>1>,,@1,66<%+.s",
"6 +%<<qtrq71,,17qrt<%+ 6",
"6o+,6riiurq11qruiir6,+o6",
",o+,@o@1ei6qy6ie1@o@,#o,",
"$###o#o$6$+11+$6$o#o###$",
">###.3  O +@@+ O  3.#>#>",
",#>6,5=*$#$55$#$*=5,6>#,",
"s#>www1,5q5yy5q5,1www%#s",
"s#%151wpririirirpw151%#s",
"ss%,,7iw1%waaw%1wi7,,%ss",
"ss%1<wy1,11rr1;,1yw<1%ss",
"ss#8,rr1qe1662-q1rr,8#ss",
"ss@51wrq49pww03wqrw15@ss",
"sss>58w5-O&##::55w85>sss",
"sss@,68899yiiyw8886,@sss",
"ssss$<qe65,&&,56eq<$ssss",
"sssss$1qe18rr81eq1$sssss",
"ssssss@16wrpprw61@ssssss",
"ssssssss,666666,ssssssss"
};
