/* XPM */
static char *result[] = {
/* columns rows colors chars-per-pixel */
"24 31 49 1 ",
"  c black",
". c #2B230F",
"X c #332B13",
"o c #3F2F17",
"O c #470000",
"+ c #4F0000",
"@ c #530707",
"# c #5B0707",
"$ c #5F0707",
"% c #6B0F0F",
"& c #731313",
"* c #771717",
"= c #7F1B1B",
"- c #4B371B",
"; c #533F1F",
": c #5F4323",
"> c #6B4727",
", c #774F2B",
"< c #7F532F",
"1 c #831F1F",
"2 c #8B2323",
"3 c #8F2B2B",
"4 c #972F2F",
"5 c #9B3333",
"6 c #A33B3B",
"7 c #A73F3F",
"8 c #875733",
"9 c #8F5F37",
"0 c #9B633B",
"q c #A36B3F",
"w c #AF4747",
"e c #B34F4F",
"r c #BB5757",
"t c #AB6F43",
"y c #B37347",
"u c #BF7B4B",
"i c #CB7F4F",
"p c #C76363",
"a c #CB6B6B",
"s c #D37373",
"d c #CF8353",
"f c #D78B5B",
"g c #DF9363",
"h c #E79B6B",
"j c #EFA373",
"k c #F7AB7B",
"l c #FFBB93",
"z c #FFC7A7",
"x c #00FF00",
/* pixels */
"xxxxx-:::>9>>99,>:-xxxxx",
"xxxX:;::,,t99tt9,88;Xxxx",
"xxX;>,009q0ttddy,8,9>Xxx",
"xxX-,099qtyuuttq0,,,9;xx",
"x.X-:999q0tuggdt988>8,.x",
"x..-,89q0udgjgddy89,;8.x",
"x..;,<99>0ydgdyqd9,9;,.x",
"x..;,<>>0tdydyuy9d,9;>.x",
"x.Xo;>o>9d0t000u0y:>-:.x",
"x.XXoX-<9t09>90t<0;>-X.x",
"x.XXXX-,t88<o<0q:8--Xo.x",
"x.-X:o-:9,9:o:,0X,-X-:.x",
"9>o-<<o:,>9;:o,0:X:X#-.:",
"8y--,0+o::8X+o;8X:X:=-o:",
">8f:,0$+X;;X+o;9X&3+2-o:",
">:q89f3$:X;X>>X,:53:e:o:",
"8:8899==9X;XX9yt0$$;0:::",
"9y889:ee@  -;X- p1  :8::",
"x989y9>$>>:>99>:>$$>08:x",
"x:,9ujd=>9ifklfi9110t,:x",
"x:,,qfzsjkhfllhhkspzf,:x",
"xx,,99egky9fjzfdgeehf,xx",
"xx,,q0egge,yghq,e77gt,xx",
"xx;89qu1d4$,ff,#455fq;xx",
"xx->89y1r%*#::%%%33y9xxx",
"xxx;>8y=ww@O::==6w4y8xxx",
"xxxxo>0=re5waaw54r40xxxx",
"xxxxxo>=gg543257gy4,xxxx",
"xxxxxxo>qy4esseedq4xxxxx",
"xxxxxxxo;q347743q;xxxxxx",
"xxxxxxxxxo#2222=xxxxxxxx"
};
