/* XPM */
static char *result[] = {
/* columns rows colors chars-per-pixel */
"24 31 46 1 ",
"  c black",
". c #2B230F",
"X c #332B13",
"o c #3F2F17",
"O c #470000",
"+ c #530707",
"@ c #5B0707",
"# c #5F0707",
"$ c #6B0F0F",
"% c #771717",
"& c #7F1B1B",
"* c #4B371B",
"= c #533F1F",
"- c #5F4323",
"; c #6B4727",
": c #774F2B",
"> c #7F532F",
", c #8B2323",
"< c #8F2B2B",
"1 c #972F2F",
"2 c #9B3333",
"3 c #A33B3B",
"4 c #A73F3F",
"5 c #875733",
"6 c #8F5F37",
"7 c #9B633B",
"8 c #A36B3F",
"9 c #AF4747",
"0 c #B34F4F",
"q c #BB5757",
"w c #AB6F43",
"e c #B37347",
"r c #BF7B4B",
"t c #CB7F4F",
"y c #CB6B6B",
"u c #D37373",
"i c #DB7B7B",
"p c #CF8353",
"a c #D78B5B",
"s c #DF9363",
"d c #E79B6B",
"f c #EFA373",
"g c #F7AB7B",
"h c #FFBB93",
"j c #FFC7A7",
"k c None",
/* pixels */
"kkkkk*--;6;X;6:;--*kkkkk",
"kkkX-=-::w6;6w6:55=-Xkkk",
"kkX=;:7687w6wpe:5:6;*Xkk",
"kkX*:768werrrw87:::6=okk",
"k.*-6687wrssspw655;5:*.k",
"k.*:5687rpsddsp756:=5*.k",
"k.=:>66;7esspt886:6=:*.k",
"k.=:>;;7wpepete68:6=;o.k",
"k.o=;o;6r7w777t7e-;*-X.k",
"k.XoX*>6w76;67t>7=;*Xo.k",
"k.XXX*:w55>o>78-5**Xo*.k",
"k.X-o*-6:6-o-:7X:*X*-*.k",
"e.*-:o-:;6=:o:7-X-X:-*.e",
"eo*:7:o--5Xwo=5w-X-7:*oe",
"6o*:ew:X==Xao=6raapr:*o6",
";o*6adw-X=X77X:rasda6-o;",
"5--66666X=X;6e7766666--5",
"6--6-u#  #*=X*#  #u-65-6",
"k-5e6;u92,;66;,29u;6e5-k",
"k-5ra6;;6taghat6;;6ar:-k",
"k-:8ajjfgddhhddgfjja8:-k",
"kk:67rhgseajjaesghr76:kk",
"kk:86rgs0:edd8:0sgr68:kk",
"kk=6:rap1#:aa:@1par:6=kk",
"kkk;:etqe%@--$$eqte:;kkk",
"kkkk;eq99+O--&&39qe;kkkk",
"kkkk=7wq029yy92qqw7=kkkk",
"kkkkk=wes,,==@@sew=kkkkk",
"kkkkkk;8e20ig00p8;kkkkkk",
"kkkkkkk=8&4aa<<8=kkkkkkk",
"kkkkkkkko@,55&&okkkkkkkk"
};
