/* XPM */
static char *result[] = {
/* columns rows colors chars-per-pixel */
"24 29 44 1 ",
"  c black",
". c #2B230F",
"X c #332B13",
"o c #3F2F17",
"O c #4B371B",
"+ c #533F1F",
"@ c #5F4323",
"# c #6B4727",
"$ c #774F2B",
"% c #7F532F",
"& c #434343",
"* c gray28",
"= c gray34",
"- c gray50",
"; c #831F1F",
": c #8B2323",
"> c #972F2F",
", c #9B5B13",
"< c #875733",
"1 c #8F5F37",
"2 c #9B633B",
"3 c #A36B3F",
"4 c #B34F4F",
"5 c #BB5757",
"6 c #AB6F43",
"7 c #B37347",
"8 c #BF7B4B",
"9 c #CB7F4F",
"0 c #9F8363",
"q c #CF8353",
"w c #D78B5B",
"e c #FFA35B",
"r c #DF9363",
"t c #E79B6B",
"y c #EFA373",
"u c #F7AB7B",
"i c #9F9F9F",
"p c #EB9797",
"a c #FFB383",
"s c #FFBB93",
"d c #FFBF9B",
"f c #FFC7A7",
"g c #CBCBCB",
"h c None",
/* pixels */
"hhhhhO@@#$$$$$$#@@Ohhhhh",
"hhhXO@$%1366762$@++@Xhhh",
"hhXO$%1363722211$$#OoXhh",
"hhX+$127<613$$$$@#@@O.hh",
"h..O@1+61#13$@O@O++.Oo.h",
"hXX+@++2#o.#1#Oo@.X+XO.h",
"hX.$<+16#+XX#3#1#++.oo.h",
"hX@$16+8#2<+X#31#1$@X..h",
"hO@167<36#818#33<61@O..h",
"hO$2777<<<1123177<2$@o.h",
"h.$6qytq831138wtyq62$o.h",
"h.<7rtssr3ww3wt2+o$22O.h",
"@@##OO#<28uu82X@26223O#3",
"@@O3#OO#<@66@o@= *@61$8<",
"@@#1-&  OO$@$ =gi @61<<#",
"@@176p5#@1qq1@#65p1q1<@#",
"@@9tw816q6ut6q6167wy3<@<",
"@@7wq99twtsstst9ryyr31@1",
"h@<66qyawwffwwayw8663<1h",
"h@$37ydw620016wdy8222$@h",
"hh$77st3+$<<:33tsw283$hh",
"hh@97u8qr833;rq8ut283@hh",
"hh+6wtqwudww4uwqtw383hhh",
"hhh<9w1$,,,,>,$1w966<hhh",
"hhh+7999wteetw999711+hhh",
"hhhh1qr961%%169rq22#hhhh",
"hhhho3qr99tt99rq32#hhhhh",
"hhhhho37wtddtw732+hhhhhh",
"hhhhhhh17777771#hhhhhhhh"
};
