/* XPM */
static char *result[] = {
/* columns rows colors chars-per-pixel */
"24 29 41 1 ",
"  c black",
". c #2B230F",
"X c #332B13",
"o c #3F2F17",
"O c gray23",
"+ c #4B371B",
"@ c #533F1F",
"# c #473323",
"$ c #5F4323",
"% c #6B4727",
"& c #774F2B",
"* c #7F532F",
"= c #675333",
"- c gray42",
"; c #9B5B13",
": c #875733",
"> c #8F5F37",
", c #9B633B",
"< c #A36B3F",
"1 c #BB5757",
"2 c #AB6F43",
"3 c #B37347",
"4 c #BF7B4B",
"5 c #CB7F4F",
"6 c #DB7B7B",
"7 c #9F8363",
"8 c #CF8353",
"9 c #D78B5B",
"0 c #FFA35B",
"q c #DF9363",
"w c #E79B6B",
"e c #EFA373",
"r c #F7AB7B",
"t c #FFB37B",
"y c gray70",
"u c #EB9797",
"i c #FFBB93",
"p c #FFBF9B",
"a c #FFC7A7",
"s c #FFD7BB",
"d c None",
/* pixels */
"ddddd+$$$%&&&&&%$$+ddddd",
"dddX$@*>2488842,&$@$Xddd",
"ddX$&>245843,,,>>&&@+Xdd",
"ddX&:&>,3:2><&&&&$@XX.dd",
"d.o$&$>,>>>>+>$+$+X....d",
"d.o+@$>@,%%>%+%+o$.XXo.d",
"d.++&&@>@%&%%>>>::%+o+.d",
"d.+@&>&@<@&><3,<>>>%++.d",
"d.+$>23<<333333<<32>@+.d",
"d.+&,8553<2222<3558,$+.d",
"d.+&,8ew84<>><48we8,&+.d",
"d.+&3wiiww8998wwiiw3&+.d",
"3%+&%%@<q3&33&3q<@%%&+%3",
"3%#>2$ooo+o>>o+ooo$2>#%3",
">%=3&- -O @99@ - -y&3=%>",
"%$:3>2u1%$>8w>$%1u2>3:$%",
":$:6942>2590t952>2496:$:",
">$>8qeq50iw0twi05qeq8>$>",
"d$:<2490aq9ts9qa0942<:$d",
"d$&,<4er92,77,29re4<,&$d",
"dd&3,9iw4@&::&@4wi9,3&dd",
"dd$5,wr8894<<4988rw,5$dd",
"dd@2<9w89rpqqpr98w9<2@dd",
"ddd:259>&;;;;;;&>952:ddd",
"ddd@>35559w00w95553>@ddd",
"dddd%28q52>**>25q82%dddd",
"ddddd%28q55ww55q82%ddddd",
"dddddd@:39wppw93:@dddddd",
"dddddddd%><<<<>%dddddddd"
};
