/* XPM */
static char *result[] = {
/* columns rows colors chars-per-pixel */
"24 29 43 1 ",
"  c black",
". c #2B230F",
"X c #332B13",
"o c #3F2F17",
"O c gray23",
"+ c #4B371B",
"@ c #533F1F",
"# c #473323",
"$ c #5F4323",
"% c #6B4727",
"& c #774F2B",
"* c #7F532F",
"= c #675333",
"- c gray42",
"; c #831F1F",
": c #8B2323",
"> c #972F2F",
", c #9B5B13",
"< c #875733",
"1 c #8F5F37",
"2 c #9B633B",
"3 c #A36B3F",
"4 c #B34F4F",
"5 c #AB6F43",
"6 c #B37347",
"7 c #BF7B4B",
"8 c #CB7F4F",
"9 c #DB7B7B",
"0 c #9F8363",
"q c #CF8353",
"w c #D78B5B",
"e c #FFA35B",
"r c #DF9363",
"t c #E79B6B",
"y c #EFA373",
"u c #F7AB7B",
"i c #FFB37B",
"p c gray70",
"a c #FFB383",
"s c #FFBB93",
"d c #FFC7A7",
"f c #FFD7BB",
"g c #00FF00",
/* pixels */
"ggggg+$$$%&&&&&%$$+ggggg",
"gggX$@*3678qq752&$@$Xggg",
"ggX$&1278q3622211&&@+Xgg",
"ggX&<&126<513&&&&$@XX.gg",
"g.o$&$1@51%1+o$+$+X....g",
"g.o+@$@@2$o.2+%+o$.XXo.g",
"g.++&<@1@%@XX<31+%@+o+.g",
"g.+@&15@7@2<@X%31%1@++.g",
"g.+$156<3%37@7%33<51@+.g",
"g.+&2666<3<1123166<2$+.g",
"g.+&2qytq731137qtyq2&+.g",
"g.+&6tssttqwwqttsst6&+.g",
"6%+&%%5qs6&66&6sq5%%&+%6",
"6%#15$ooo+o&&o+ooo$51#%6",
"1%=6&- -O @ww@ - -p&6=%1",
"%$<66561%$1qt1$%16566<$%",
"<$<9w75158weiw85157w9<$<",
"1$1qryr8esteitse8ryrq1$1",
"g$<355wearwifwrdew511<$g",
"g$&217yuw520025wuy7<2&$g",
"gg&61wst3@&<<:@3tsw16&gg",
"gg$8<tu6qw733;wq6ut18$gg",
"gg@53wtqwturr4twqtw35ggg",
"ggg<58w1&,,,,>,&1w85<ggg",
"ggg@16868wteetw86861@ggg",
"gggg%5qr851%%158rq5%gggg",
"ggggg%5qr88tt88rq5%ggggg",
"gggggg@<6wryyrw6<@gggggg",
"gggggggg%133331%gggggggg"
};
