/* XPM */
static char *result[] = {
/* columns rows colors chars-per-pixel */
"24 31 46 1 ",
"  c black",
". c #2B230F",
"X c #332B13",
"o c #3F2F17",
"O c #470000",
"+ c #530707",
"@ c #5B0707",
"# c #5F0707",
"$ c #6B0F0F",
"% c #771717",
"& c #7F1B1B",
"* c #4B371B",
"= c #533F1F",
"- c #5F4323",
"; c #6B4727",
": c #774F2B",
"> c #7F532F",
", c #831F1F",
"< c #8B2323",
"1 c #8F2B2B",
"2 c #972F2F",
"3 c #9B3333",
"4 c #A33B3B",
"5 c #A73F3F",
"6 c #875733",
"7 c #8F5F37",
"8 c #9B633B",
"9 c #A36B3F",
"0 c #AF4747",
"q c #B34F4F",
"w c #BB5757",
"e c #AB6F43",
"r c #B37347",
"t c #BF7B4B",
"y c #CB7F4F",
"u c #CB6B6B",
"i c #DB7B7B",
"p c #CF8353",
"a c #D78B5B",
"s c #DF9363",
"d c #E79B6B",
"f c #EFA373",
"g c #F7AB7B",
"h c #FFBB93",
"j c #FFC7A7",
"k c #00FF00",
/* pixels */
"kkkkkk---;7;;77:;-kkkkkk",
"kkkX-=--::e77ee7:66=kkkk",
"kkX=;:88798eeppr:6:7;kkk",
"kkX*:8779erttee98:::7=kk",
"k.X*-77798etsspe766;6:kk",
"k..*:6798tpsfsppr67:=6.k",
"k..=:>77;8rpspr9p7:7=:.k",
"k..=:>;;8eprprtr7p:7=;.k",
"k.Xo=;o;7p8e888t8r-;*-.k",
"k.XXoX*>7e87;78e>8=;*X.k",
"k.XXXX*:e66>o>89-6**Xo.k",
"k.*X-o*-7:7-o-:8X:*X*-.k",
"7;o*-:o-:;7=:o:8-X-X:-.-",
"6r**:8:o--6Xeo=6e-X-8: -",
";6a*:8p:X==Xao=7taa78:o-",
";-9*7adh-X=X88X:tasda7o-",
"6-6677777X=XX7re8**=8---",
"7r667-+3<  *=X* +,  -6--",
"k767r7;++31;77;-+<w+86-k",
"k-:7tfp8;7yaghay7;;8e:-k",
"k-::9ajjfgdahhddgfjja:-k",
"kk:779ahgr7afjapsghde:kk",
"kk:797tjs9:rsd9:rsgse:kk",
"kk=67:8ap2#:aa:@2paa6=kk",
"kkk;6;7ywr%@--$$rwyr:okk",
"kkk=;;6w04+O--&&40wr:kkk",
"kkkko-6eww30uu03wwe8=kkk",
"kkkkko-8ss<<==@@sre:kkkk",
"kkkkkko;9r3qigqqp9;kkkkk",
"kkkkkkko=9&5aa119=kkkkkk",
"kkkkkkkkko@@66@@kkkkkkkk"
};
