/* XPM */
static char *result[] = {
/* columns rows colors chars-per-pixel */
"24 29 42 1 ",
"  c black",
". c #2B230F",
"X c #332B13",
"o c #3F2F17",
"O c #4B371B",
"+ c #533F1F",
"@ c #5F4323",
"# c #6B4727",
"$ c #774F2B",
"% c #7F532F",
"& c #434343",
"* c gray34",
"= c gray39",
"- c gray50",
"; c #831F1F",
": c #8B2323",
"> c #972F2F",
", c #875733",
"< c #8F5F37",
"1 c #9B633B",
"2 c #A36B3F",
"3 c #B34F4F",
"4 c #BB5757",
"5 c #AB6F43",
"6 c #B37347",
"7 c #BF7B4B",
"8 c #CB7F4F",
"9 c #9F8363",
"0 c #CF8353",
"q c #D78B5B",
"w c #DF9363",
"e c #E79B6B",
"r c #EFA373",
"t c #F7AB7B",
"y c #9F9F9F",
"u c #EB9797",
"i c #FFB383",
"p c #FFBB93",
"a c #FFBF9B",
"s c #FFC7A7",
"d c #CBCBCB",
"f c #00FF00",
/* pixels */
"fffffO@@#$$$$$$#@@Offfff",
"fffX@+%<267600651$@+Xfff",
"ffX+#$<178726111<<$$#Off",
"ff.O+#$<16,5<2$$$$@+@Xff",
"f.ooOO@<+5oO<%%@O@OXO..f",
"f.oXX+@$+<Xo.#O#Oo@OXXXf",
"f..XO$,+<5#+XX#2#O#++XXf",
"f..O@$<5+7+1,+X#2<#<$XXf",
"f..O%<56,2#27+7#22,6<OOf",
"f.X@<1666,2,<<12<66,1$Of",
"f.o$220req72<<270tr05$.f",
"f.O22$o+1eq2qq2wppew6,.f",
"5#O$,,21@X17tt71,#OO#@ @",
",7@<5@ =*@o@55@,#OO#2@o@",
"#,@<5@ yd* $@$OO  &-<@o@",
"#@,<0<u45#@<00<@#4u568@@",
",@,2rq65<505et505<7qe8@@",
"<@<27rrw8epeppeqe870q6@@",
"f<,2557qriqqssqqirq72,@f",
"f@$1117raq5<9915qar76$@f",
"ff$271qpe22$,,:+2epq6$ff",
"ff@271et70w722;w07te8@ff",
"fff272qe0qtaqq3tq0eq5fff",
"fff,558qq5<%@@><5qq8,fff",
"ffff<<6888qtpptq8886ffff",
"fffff110w85<%%<58w0<ffff",
"ffffff120w88ee88w02fffff",
"fffffff126qeaaeq62ffffff",
"fffffffff<666666<fffffff"
};
