/* XPM */
static char *result[] = {
/* columns rows colors chars-per-pixel */
"27 30 47 1 ",
"  c black",
". c #2B230F",
"X c #332B13",
"o c #3F2F17",
"O c #4B371B",
"+ c #533F1F",
"@ c #3F472B",
"# c #5F4323",
"$ c #6B4727",
"% c #774F2B",
"& c #7F532F",
"* c #434343",
"= c #5B5B5B",
"- c gray42",
"; c #7B7F63",
": c gray50",
"> c #831F1F",
", c #972F2F",
"< c #A33B3B",
"1 c #875733",
"2 c #8F5F37",
"3 c #9B633B",
"4 c #A36B3F",
"5 c #AF4747",
"6 c #B34F4F",
"7 c #BF5B5B",
"8 c #AB6F43",
"9 c #B37347",
"0 c #BF7B4B",
"q c #CB7F4F",
"w c #9F8363",
"e c #CF8353",
"r c #D78B5B",
"t c #FFA35B",
"y c #DF9363",
"u c #E79B6B",
"i c #EFA373",
"p c #F7AB7B",
"a c gray67",
"s c #FFB383",
"d c #FFBB93",
"f c #FFBF9B",
"g c #F3A3A3",
"h c #FFC7A7",
"j c #FFCFB3",
"k c #EFEFEF",
"l c #00FF00",
/* pixels */
"llllllllXXXXXXXXXXXllllllll",
"llllllXX#%&2442%$$#OOllllll",
"llllXO#%49898321%$#OOOXllll",
"lllOO19qq99321%%$##OoooXlll",
"ll#138839qq42%$$###ooXXXXll",
"lO130qq0$$12&$$#OOO+oXXXXll",
"l$Oo$1q13OOO$&#O+OOOOXXXXXl",
"O....$1.o%$Oo#%##+OOoooXXXl",
"..$&2$O12XX$+2#%##+OoooXXXo",
".O#4842+429X$24##X#XXooXXXo",
"OO2ryrr4+eu9$182#OX#XXXoXXX",
"lO4irrrrr+sir$122#OXOXXXXXX",
"llpdirrispdhiy032#OOXXXXXXX",
"l#djddddddhjhpye82$$$$$XXXX",
"l228iyjydiy#o1ure222#311XXX",
"looo +e#9%oo$#4qy9333191XXX",
"ll$ 7 8Oo  5g34qu0440+92XXX",
"ll86$yd9$X@;wr9ru022$+3$XXX",
"ll8p2py34e8ruspsr411+9$XXXl",
"ll3pydy328idddsu41212$+XXXl",
"ll1ryhp0u882ydp911412&#XXll",
"ll#2r3%%>>124yi011021&llXll",
"lll18951<,18$yp011043&lllll",
"lll#85#::-=*=eie12833#lllll",
"llll37#:kaa:=4ue2333&llllll",
"llll&r79ttr214y02331#llllll",
"llll#qiiphr084e083&#lllllll",
"lllll4rre88480003&#llllllll",
"lllll4epfpr88r83#llllllllll",
"llllll4eiiu083#llllllllllll"
};
