/* XPM */
static char *result[] = {
/* columns rows colors chars-per-pixel */
"26 30 42 1 ",
"  c black",
". c #2B230F",
"X c #332B13",
"o c #3F2F17",
"O c #4B371B",
"+ c #533F1F",
"@ c #5F4323",
"# c #6B4727",
"$ c #774F2B",
"% c #7F532F",
"& c gray28",
"* c #5B5B5B",
"= c gray42",
"- c gray50",
"; c #875733",
": c #8F5F37",
"> c #9B633B",
", c #A36B3F",
"< c #BB5757",
"1 c #AB6F43",
"2 c #B37347",
"3 c #BF7B4B",
"4 c #CB7F4F",
"5 c #CF8353",
"6 c #D78B5B",
"7 c #FFA35B",
"8 c #DF9363",
"9 c #E79B6B",
"0 c #EFA373",
"q c #F7AB7B",
"w c #A7A7A7",
"e c gray67",
"r c #EB9797",
"t c #FFB383",
"y c #FFBB93",
"u c #FFBF9B",
"i c #FFC7A7",
"p c #FFCFB3",
"a c #FFD3BB",
"s c #DFDFDF",
"d c #EFEFEF",
"f c #00FF00",
/* pixels */
"fffffff.o#$$$$$#@@ffffffff",
"fffff.O+#%::>11,>$#@Offfff",
"ffff.O+@$;:>13453,>:@OOfff",
"fff.oO+##;;::135553,:@@@ff",
"ff.oOO+##$:;;::23223,:;..f",
"f.oOoO@@@%#@@;:>2::2O:XOof",
"foOoXO+++#++.@:+>##:#OXo.f",
".OoXo+OO#+oo;$+:+#$#::%+Xf",
"XOXXoOO++.o:1:$+,+$:,26%#f",
"ooXXoOO+oO%1212,,2222266>f",
"oXXoOO++O@>25666511112606O",
"oXXoOO++@$>38yiy8522258y6@",
"XXXoOO+@@$26qiyqyq85280y9:",
"XXX#,:$$::2;+o:2599y502ooo",
"XX;+@%2::>>14:oo@$22$+w #f",
".X;2@%%>:>,1#s= #+O+ .$>4f",
"fX#2+>,>:3691r<:o#,q:$5q8%",
"fXX>+#:>:58q88415,>i6$5ut%",
"fXX#:+;;;>34459q3:>8y$3tp:",
"ffXX2:;;;;;;,8i819169,190:",
"ffXX::;;>::>3y0$#o++$$$56:",
"fffX+:;;131>6q3$,,2>>,$12@",
"fffff:;;,43>58>:5058q,@,2@",
"fffffff;:13>39;>&*=-&&@,5O",
"ffffffff;:1>19,&&eesd&@28f",
"fffffffff;:>>33;:67772;94f",
"ffffffffff;:>>31##;;;5ua5f",
"fffffffffff%>>>::,450qau:f",
"fffffffffffff%>>,,380u0,ff",
"fffffffffffffff#%22222:fff"
};
