/* XPM */
static char *result[] = {
/* columns rows colors chars-per-pixel */
"28 30 51 1 ",
"  c black",
". c #2B230F",
"X c #332B13",
"o c #3F2F17",
"O c #530707",
"+ c #5F0707",
"@ c #6B0F0F",
"# c #731313",
"$ c #771717",
"% c #7F1B1B",
"& c #4B371B",
"* c #533F1F",
"= c #5F4323",
"- c #6B4727",
"; c #774F2B",
": c #7F532F",
"> c #831F1F",
", c #A70000",
"< c #B30000",
"1 c #BF0000",
"2 c #8B2323",
"3 c #8F2B2B",
"4 c #972F2F",
"5 c #9B3333",
"6 c #A73F3F",
"7 c #E30000",
"8 c #875733",
"9 c #8F5F37",
"0 c #9B633B",
"q c #A36B3F",
"w c #AF4747",
"e c #B34F4F",
"r c #BB5757",
"t c #AB6F43",
"y c #B37347",
"u c #BF7B4B",
"i c #CB7F4F",
"p c #C76363",
"a c #CB6B6B",
"s c #D37373",
"d c #DB7B7B",
"f c #CF8353",
"g c #D78B5B",
"h c #DF9363",
"j c #E79B6B",
"k c #EFA373",
"l c #F7AB7B",
"z c #FFB383",
"x c #FFBB93",
"c c #FFC7A7",
"v c #00FF00",
/* pixels */
"vvvvvvvv=--;;888-==vvvvvvvvv",
"vvvvvv&&=-;8900yy98-=vvvvvvv",
"vvvvoo&&==;89000098-=&Xvvvvv",
"vvvoX&o&&===;890yuuy9=&&vvvv",
"vvXo&oo&&====;89000009=&&vvv",
"vvoooo&&&&===-;;99;;;;-;;=vv",
"vXooo&&oo*-**=q9---;998808-v",
"vXXX&Xo&--*-9:==&&;-=-80ooo.",
"XXXXXo&-&=9-ooXo&-&--0-=...&",
"XXXXXXXXXX==80qy#<+o--.=&X.v",
"XXXXXXXXX&=9ttuh571+=th&>&&v",
"XXXXXXXX&==9tugk41%ggqgwo&vv",
"XXXX----&&=9tygg4rggggtw>qvv",
"XXX880=9--=9yuhkwrlzkgg3>tvv",
"XXX8y800999tfhlcrrxxxxx>t=vv",
"XXX9y*uqqqtfgjuqOO0uhfw=oovv",
"XXX-0*-99qhiq-w+ O4&t 3 ovvv",
"vXXX-y*88qfgy--a4X-8xq-4tvvv",
"vXXX*-9898ujjg0===80hu9ltvvv",
"vXXX::98q8qfzxxs4g90hfhl0vvv",
"vXXX::89u88ylxd44tjulhhg8vvv",
"vvXX9:0qu88ukxw%8@;ylug9vvvv",
"vvv:9900t98fkf%fq%@-y9t-vvvv",
"vvvv09:0009fjq%hf%+O220vvvvv",
"vvvvv9=8009uhq%fkrw6649vvvvv",
"vvvvvv-=:0tufp4q61,++q-vvvvv",
"vvvvvvv-:0uuiwwtfeeap6vvvvvv",
"vvvvvvvv&=0tu4t00>@+29vvvvvv",
"vvvvvvvvvv&:04uuf1429-vvvvvv",
"vvvvvvvvvvv&&39q6$@3-vvvvvvv"
};
