/* XPM */
static char *result[] = {
/* columns rows colors chars-per-pixel */
"29 31 44 1 ",
"  c black",
". c #2B230F",
"X c #332B13",
"o c #3F2F17",
"O c #530707",
"+ c #5B0707",
"@ c #5F0707",
"# c #6B0F0F",
"$ c #771717",
"% c #7F1B1B",
"& c #4B371B",
"* c #533F1F",
"= c #5F4323",
"- c #6B4727",
"; c #774F2B",
": c #7F532F",
"> c #831F1F",
", c #8B2323",
"< c #8F2B2B",
"1 c #972F2F",
"2 c #A73F3F",
"3 c #875733",
"4 c #8F5F37",
"5 c #9B633B",
"6 c #A36B3F",
"7 c #AF4747",
"8 c #B34F4F",
"9 c #BB5757",
"0 c #BF5B5B",
"q c #AB6F43",
"w c #B37347",
"e c #BF7B4B",
"r c #CB7F4F",
"t c #CB6B6B",
"y c #CF8353",
"u c #D78B5B",
"i c #DF9363",
"p c #E79B6B",
"a c #EFA373",
"s c #F7AB7B",
"d c #FFB383",
"f c #FFBB93",
"g c #FFC7A7",
"h c None",
/* pixels */
"hhhhhhhhhhhXXXXXXXX&&hhhhhhhh",
"hhhhhhhhXX==-333;;--=&&hhhhhh",
"hhhhhhh&=-34ww5543;-=&&&Xhhhh",
"hhhhh&X&=-34555543;==&&ooXhhh",
"hhhh&&&=4weew543;===&&o&XoXhh",
"hhh=&&=45555543;====&&oo&oXhh",
"hh&=;;-;;;;44;;-===&&&&ooooXh",
"h.-353344;---46=**-*oo&&oooXh",
"h.ooo53-=-;&&==:4-*--&oX&XXoX",
".&...=-5--&-&oXoo-4=&-&oXXXoX",
"...-44=&&43X-*;;=X=;=&-&oXXoX",
"h.&=6uw4*wwwX-465=X=;=&*oXXoX",
"hhh4upuu6*ypw-3q45*&=&XX*oXXX",
"hhh6apuuuu*dau-q44:&&----*XXX",
"hhhqyapuadsfgaieq4:--4=533XXX",
"hhh=qyffifai636pyq444553w3XXX",
"hhhoo=qy6w;ooo=6uy6666e*w4XXX",
"hhhho < q&1  @7-6ri644-*5-XXX",
"hhhhq1-6f3-X1t--wuy633*w-XXXh",
"hhhhqs4ei53===5usie3434-*XXXh",
"hhhh5siyi54uafffdy63634::XXXh",
"hhhh3uiisepq6isfsw33e43::XXXh",
"hhhhh4iesw;-36uape33e65:4XXhh",
"hhhhh-q44-##6y6iuy34q5544:hhh",
"hhhhhh5<+O#%yiy6yy4555:45hhhh",
"hhhhhh42>200at06ee4553=4hhhhh",
"hhhhhh-9>@@%0>29ee65:=-hhhhhh",
"hhhhhhh4<802yq9qye65:hhhhhhhh",
"hhhhhhh46>@,,5qpyq5=hhhhhhhhh",
"hhhhhhh-4<8<2ypy5:&hhhhhhhhhh",
"hhhhhhhh-<#$264:&&hhhhhhhhhhh"
};
