/* XPM */
static char *result[] = {
/* columns rows colors chars-per-pixel */
"28 30 44 1 ",
"  c black",
". c #2B230F",
"X c #332B13",
"o c #3F2F17",
"O c #530707",
"+ c #5F0707",
"@ c #6B0F0F",
"# c #771717",
"$ c #7F1B1B",
"% c #4B371B",
"& c #533F1F",
"* c #5F4323",
"= c #6B4727",
"- c #774F2B",
"; c #7F532F",
": c #831F1F",
"> c #8B2323",
", c #8F2B2B",
"< c #972F2F",
"1 c #A73F3F",
"2 c #875733",
"3 c #8F5F37",
"4 c #9B633B",
"5 c #A36B3F",
"6 c #AF4747",
"7 c #B34F4F",
"8 c #BB5757",
"9 c #BF5B5B",
"0 c #AB6F43",
"q c #B37347",
"w c #BF7B4B",
"e c #CB7F4F",
"r c #C76363",
"t c #CB6B6B",
"y c #CF8353",
"u c #D78B5B",
"i c #DF9363",
"p c #E79B6B",
"a c #EFA373",
"s c #F7AB7B",
"d c #FFB383",
"f c #FFBB93",
"g c #FFC7A7",
"h c None",
/* pixels */
"hhhhhhhhX%*--222=%Xhhhhhhhhh",
"hhhhhhX%*=-2344qq32=*hhhhhhh",
"hhhhoo%%**-23444432-*%Xhhhhh",
"hhhoX%o%%***-234qwwq3-%%hhhh",
"hhXo%oo%%****-234444042-%hhh",
"hhoooo%%%%***=--33--30054*hh",
"hXooo%%oo&=&&*53===-333042=h",
"hXXX%Xo%==&=3;**%%-=--244oo.",
"XXXXXo%=%*3=ooXo%=%=334*...%",
"XXXXXXX%%%**245qq33o==.*%X.h",
"XXXXXXXXX%*30qyisap4*0i%3%%h",
"XXXXXXXX%**3qwuasspuy5u0o%hh",
"XXXX====%%*3qyuassppuy0ua5hh",
"XXX224*3==*3quiagfsdauuay0hh",
"XXX2q2443330yp525iafiffy0*hh",
"XXX3q&w5555yu5*ooo-q5y0*oohh",
"XXX=4&=335ie5=6+  <%0 , ohhh",
"hXXX=q&225yuq==t<X=2f5=<0hhh",
"hXXX&=3232wppu4***24iw3s0hhh",
"hXXX;;32525ydfffau34iyis4hhh",
"hXXX;;23w22qsfsi50pwsiiu2hhh",
"hhXX3;45w22wafu52@-qswu3hhhh",
"hhX;3344032yay5y5$@=330=hhhh",
"hhhh43;4443yp5yiy$+O>>4hhhhh",
"hhhhh3*2443wi5yya8611<3hhhhh",
"hhhhhh=*;40wy5051>@++5=hhhhh",
"hhhhhhh=;4wwe050y77tr1hhhhhh",
"hhhhhhhhh*40yp044:@+>3hhhhhh",
"hhhhhhhhhh%;4ypyy9<>3=hhhhhh",
"hhhhhhhhhhh%%;351#@,=hhhhhhh"
};
