/* XPM */
static char *result[] = {
/* columns rows colors chars-per-pixel */
"31 17 13 1 ",
"  c #0B1707",
". c #13230B",
"X c #17330F",
"o c #1F4317",
"O c #27531B",
"+ c #2F6323",
"@ c #37732B",
"# c #3F832F",
"$ c #439337",
"% c #4B9F3F",
"& c #53AF47",
"* c #5BBF4F",
"= c #00FF00",
/* pixels */
"==+@$&*&#X   =====   X#&*&$@+==",
"=+@#%&&&#X.         .o#&&&%#@+=",
"O+@$%%%#+oX..     ..Xo+#%%%$@+O",
"o+@@@#++#&%+X     X+%&#++#@@@+o",
"XoO++OO+#$$$@o   o@$$$#+OO++OoX",
"XXXXoXoO@@@@@+OoO+@@@@@OoXoXXXX",
"===== XoO+++++OoOO++++OoX =====",
"===== ....XoooooooooX.... =====",
"====== .  .XXXXXXXXX.  . ======",
"====== X. .XXXXXXXXX. .X ======",
"=======o. .XoooooooX. .o=======",
"=======X  .XoooooooX.  X=======",
"=======.  .XoooooooX.  .=======",
"=======   .XoooooooX.   =======",
"=======X  .Xo+++++oX..XX=======",
"========XXo+@$%%%$@+ooX========",
"==========X.       .X=========="
};
