/* XPM */
static char *result[] = {
/* columns rows colors chars-per-pixel */
"31 17 12 1 ",
"  c #000017",
". c #000023",
"X c #00002F",
"o c #000047",
"O c #000053",
"+ c #00006B",
"@ c #000083",
"# c #00009B",
"$ c #0000B3",
"% c #0000CB",
"& c #0000E3",
"* c #00FF00",
/* pixels */
"**+#&&&&%oOO.*****.OOo%&&&&#+**",
"*+$%&&&&%+ooo.....ooo+%&&&&%$+*",
"+#$%&&&%#@OXX.....XXO@#%&&&%$#+",
"+$$$$%##%&&#oX...Xo#&&%##%$$$$+",
"+@###@+%&%%%$+.X.+$%%%&%+@###@+",
"+    oO@$$$$$$@+O$$$$$$@Oo    +",
"*****XoO@#####@+O#####@OoX*****",
"*****XXoO+@+++++O+++++OoXX*****",
"******XXXXoooooooooooXXXX******",
"******X .XoOOOOOOOOOoX. X******",
"******* .XoO+++++++OoX. *******",
"******* .Xo+++++++++oX. *******",
"*******X.Xo+++++++++oX.X*******",
"*******OoXo+++++++++oXoO*******",
"*******+OoO+@#####@+O+@+*******",
"********++@#$%&&&%$#@@+********",
"**********++OooXooO++**********"
};
