/* XPM */
static char *result[] = {
/* columns rows colors chars-per-pixel */
"31 17 13 1 ",
"  c #000017",
". c #000023",
"X c #00002F",
"o c #00003B",
"O c #000047",
"+ c #000053",
"@ c #00006B",
"# c #000083",
"$ c #00009B",
"% c #0000B3",
"& c #0000CB",
"* c #0000E3",
"= c #00FF00",
/* pixels */
"==#$&&&*&+@+.=====.+@+&&*&&$#==",
"=#%&****&#+OO.....OO+#&****&%#=",
"#$%&&*&&$$@XX.....XX@$$&&*&&%$#",
"#%%%%&$$&&&$OX...XO$&&&$$&%%%%#",
"#$$$$$@%***&%@.X.@%&***%@$$$$$#",
"#    @@$%%%%%%$#@%%%%%%$@@    #",
"=====+@@$$$$$$$#@$$$$$$@@+=====",
"=====++@@#$#####@#####@@++=====",
"======+++++++++++++++++++======",
"======+oO++@@@@@@@@@++Oo+======",
"=======oO++@#######@++Oo=======",
"=======oO++@##$$$##@++Oo=======",
"=======+O++@##$$$##@++O+=======",
"=======@+++@##$$$##@+++@=======",
"=======#@+@#$$$$$$$#@#$#=======",
"========##$$%&&&&&%$$$#========",
"==========##@+++++@##=========="
};
