/* XPM */
static char *result[] = {
/* columns rows colors chars-per-pixel */
"61 36 45 1 ",
"  c black",
". c #170F07",
"X c #2B230F",
"o c #332B13",
"O c #3F2F17",
"+ c #232323",
"@ c #272727",
"# c #2F2F2F",
"$ c #373737",
"% c gray23",
"& c #6B0F0F",
"* c #4B371B",
"= c #533F1F",
"- c #5F4323",
"; c #6B4727",
": c #774F2B",
"> c #7F532F",
", c #434343",
"< c gray28",
"1 c #4B4B4B",
"2 c gray31",
"3 c gray34",
"4 c #5B5B5B",
"5 c gray39",
"6 c gray42",
"7 c #6F6F6F",
"8 c #777777",
"9 c gray50",
"0 c #B30000",
"q c red",
"w c #875733",
"e c #838383",
"r c #8B8B8B",
"t c #939393",
"y c #979797",
"u c #9F9F9F",
"i c #A7A7A7",
"p c gray67",
"a c gray70",
"s c #B7B7B7",
"d c gray78",
"f c gray86",
"g c #DFDFDF",
"h c #EFEFEF",
"j c #00FF00",
/* pixels */
"jjjjjjjjjjjjjjjjjjj@jjjjjjjjjjjjjjjjjjjjjjjjjjjjjjjjjjjjjjjjj",
"jjjjjjjjjjjjjjjjjj@ jjjjjjjjjjjjjjjjjjjjjjjjjjjjjjjjjjjjjjjjj",
"jjjjjjjjjjjjjjjjj@  jjjjjjjjjjjjjjjjjjjjjjjjjjjjjjjjjjjjjjjjj",
"jjjjjjjj88jjjjj@   jjjjjjjjjjjjjjjjjjjjjjjjjjjjjjjjjjjjjjjjjj",
"jjjjjjj8#28       jjjjjjjjjjjjjjjjjjjjjjjjjjjjjjjjjjjjjjjjjjj",
"jjjjjjj83368    jjjjjjjjjjjjjjjjjjjjjjjjjjjjjjjjjjjjjjjjjjjjj",
"jjjjjjjj63368jjjjjjjjjjjjjjjjjjjjjjjjjjjjjjjjjjjjjjjjjjjjjjjj",
"jjjjjjjjj63368jjjjjjjjjjjjjjjjjjjjjjjjjjjjjjjjjjjjjjjjjjjjjjj",
"jjjjjjjjj 63368jjjjjjjjjjjjjjjjjjjjjjjjjjjjjjjjjjjjjjjjjjjjjj",
"jjjjjjjj@  63368jjjjjjjjjjjjjjjjjjjjjjjjjjjjjjjjjjjjjjjjjjjjj",
"jjjjjjj@   j63368jjjjjjjjjjjjjjjjjjjjjjjjjjjjjjjjjjjjjjjjjjjj",
"jjjjjj    jjj63368jjjjjjjjjjjjjjjjjjjjjjjjjjjjjjjjjjjjjjjjjjj",
"jjjjj+**  jjjj63368jjjjjjjjjjjjjjjjjjjjjjjjjjjjjjjjjjjjjjjjjj",
"jjjjj*==-24jjjj63368jjjjjjjjjjjjjjjjjjjjjjjjjjjjjjjjjjjjjjjjj",
"jjjjjjj2-222499=6#68jjjjjjjjjjjjjjjjjjjjjjjjjjjjjjjjjjjjjjjjj",
"jjjjjjjjj24r95:--64jjjjjjjjjjjjjjjjjjjjjjjjjjjjjjjjjjjjjjjjjj",
"jjjjjjjjjr9553::;%<$jjjj$,2468ygsyr$4uussgapiug864#jjjjjjjjjj",
"jjjjjjjr955364%ooO$$jj%585,24644444$$$$$8a8$$8i84$#jjjjjjjjjj",
"jjjjjr9553664ooOO$8riiaaaiyr88eryiday2368pput<e<e<r+@#+2+2@7.",
"jjjr9553664ooO$$jj2355552&0&2578eyair$<366666%6$5$6$@$+$+,@6.",
"j88553652$,288ryaa23566620q0268rrriir2$$$$$$$$$$$$$%+%+%+%+4.",
"3533652$,2566665432359e92&0&299rr9iire9$p4p4p4p$ee ,.# # # 3.",
"36652$$$$$,,,,,,,,,356999969996995iye74$f%g%h%h$55 @3777773@.",
"j32$$%<2333333322<,3562%%268886885yt874$p$p#g#h$25         ..",
"j%%%,223666666654323>w,6,,66666665te874$p5p5p,p$<5...........",
"j                  3;>%5,%555>w>55e9874$9,85858$$5.##########",
"jjjjjjjj      %%+  332$2,$222222225532# 3 3 3 3 #2.+@#+2+2@1.",
"jjjjjjjjj+++++<<+     @,,%@             #+   +#    $@$+$+,@<.",
"jjjjjjjjjj@@@@33@ + + +#@@              +#,,,#+   .%+%+%+%+%.",
"jjjjjjjjjjj###33#+#+#+#X*o++,,   %                .,.# # # %.",
"jjjjjjjjjjjj$$33$#$#$#$ OOo@42%%%              % %.#%11111%@.",
"jjjjjjjjjjjjjjjjjjjjjjjjX*o#,$    jjj + + +....jjjj        ..",
"jjjjjjjjjjjjjjjjjjjjjjjj OO#42jjjjjjjj  + +jj................",
"jjjjjjjjjjjjjjjjjjjjjjjjjX*#,$jjjjjjjjj    jjj.......jjjjjjjj",
"jjjjjjjjjjjjjjjjjjjjjjjjj Oo32jjjjjjjjjjjjjjjjjjjjjjjjjjjjjjj",
"jjjjjjjjjjjjjjjjjjjjjjjjjj X$,jjjjjjjjjjjjjjjjjjjjjjjjjjjjjjj"
};
