/* XPM */
static char *result[] = {
/* columns rows colors chars-per-pixel */
"14 18 17 1 ",
"  c black",
". c #00000B",
"X c #0F1700",
"o c #131313",
"O c #000023",
"+ c #00002F",
"@ c #00003B",
"# c #43331B",
"$ c #000047",
"% c #000053",
"& c #00006B",
"* c #000083",
"= c #00009B",
"- c #0000B3",
"; c #0000CB",
": c blue",
"> c #00FF00",
/* pixels */
">>>>>>X#>>>>>>",
">>>>>%XX;>>>>>",
">>>>>+*-*>>>>>",
">>>>>+%%+>>>>>",
">>>>>+%&+>>>>>",
">>>>>+&*+>>>>>",
">>>>++%&&+>>>>",
">>++++@%&=*@>>",
">++++@$&*;:*$>",
">++o+$$$&*-*%>",
"$+oo+$%%%&*=*%",
"$+oo+@$%%&=;=%",
"$+@@$%&****-**",
"&$&%O+OOO+%&&%",
">*+  +...+@%*>",
">*&%%%+++@$&*>",
">>*&*&%@@$&*>>",
">>>>*%$$%*>>>>"
};
