/* XPM */
static char *result[] = {
/* columns rows colors chars-per-pixel */
"14 18 15 1 ",
"  c #0F1700",
". c #00002F",
"X c #00003B",
"o c #43331B",
"O c #000047",
"+ c #000053",
"@ c #00006B",
"# c #000083",
"$ c #00009B",
"% c #0000B3",
"& c #0000CB",
"* c #0000E3",
"= c blue",
"- c #3737FF",
"; c #00FF00",
/* pixels */
";;;;;; o;;;;;;",
";;;;;+  &;;;;;",
";;;;;.#%#;;;;;",
";;;;;.++.;;;;;",
";;;;;.+@.;;;;;",
";;;;;.@#.;;;;;",
";;;;..+@@X;;;;",
";;.XXOO+@$#O;;",
";.XXOOO@#&=#O;",
";OOO++++@#%#+;",
"O++@@@##@@#$#+",
"@@##$%&&%$$&$@",
"#$%&*=--=*&%$#",
"@+@++@##@++@@+",
";#+OX.XXXXX+#;",
";#@+++...XO@#;",
";;#@#@+XXO@#;;",
";;;;#+OO+#;;;;"
};
