/* XPM */
static char *result[] = {
/* columns rows colors chars-per-pixel */
"14 18 16 1 ",
"  c #00000B",
". c #0F1700",
"X c #131313",
"o c #000023",
"O c #00002F",
"+ c #00003B",
"@ c #43331B",
"# c #000047",
"$ c #000053",
"% c #00006B",
"& c #000083",
"* c #00009B",
"= c #0000B3",
"- c #0000CB",
"; c blue",
": c #00FF00",
/* pixels */
"::::::.@::::::",
":::::$..-:::::",
":::::O&=&:::::",
":::::O$$O:::::",
":::::O$%O:::::",
":::::O%&O:::::",
"::::OO$%%O::::",
"::OOOO+$%*&+::",
":OOOO+#%&-;&#:",
":+OoO#$$%&=&$:",
"#Ooo+$%%%%&*&$",
"$Xoo+%&&&&&-*%",
"&+oo%*---=*=&%",
"%$OOOOoooO$%%$",
":&+++O   O+$&:",
":&%$$$OOO+#%&:",
"::&%&%$++#%&::",
"::::&$##$&::::"
};
