/* XPM */
static char *result[] = {
/* columns rows colors chars-per-pixel */
"16 15 39 1 ",
"  c #0B0B0B",
". c #1B1B1B",
"X c #3F2B1B",
"o c #232323",
"O c #272727",
"+ c #2F2F2F",
"@ c #373737",
"# c gray23",
"$ c #43331B",
"% c #4B371B",
"& c #533F1F",
"* c #473323",
"= c #4F3B23",
"- c #533F2F",
"; c #1F4317",
": c #27531B",
"> c #3F472B",
", c #2F6323",
"< c #37732B",
"1 c #5F4323",
"2 c #474F33",
"3 c #574333",
"4 c #5F4B37",
"5 c #53573B",
"6 c #67533F",
"7 c #434343",
"8 c gray28",
"9 c #4B4B4B",
"0 c gray31",
"q c gray34",
"w c #5B5B5B",
"e c #775F4B",
"r c gray39",
"t c #777777",
"y c #3F832F",
"u c #439337",
"i c #53AF47",
"p c #838383",
"a c #00FF00",
/* pixels */
"aaaaa+7777+aaaaa",
"aaa+@7we64=$+aaa",
"aa+@#wrpe64=$Xaa",
"a+@%39wrw643$$+a",
"a@%&390qq43=*X$a",
"+@%1499009-*XX$+",
"+%%1490qr0-*XX$+",
"+%%-390rtr63=*@+",
"+%>>25888752>>@+",
"O@y<uio++oiu<y@O",
"o+,:<u.#@.u<:,+o",
"o++8:< 77 <:8++o",
"o++0;: 77.:;0++o",
"aoo0aa.70.aa0ooa",
"aao0aa .. aa0oaa"
};
