/* XPM */
static char *result[] = {
/* columns rows colors chars-per-pixel */
"16 15 33 1 ",
"  c black",
". c #0B0B0B",
"X c #1B1B1B",
"o c #3F2B1B",
"O c #232323",
"+ c #272727",
"@ c #2F2F2F",
"# c #373737",
"$ c gray23",
"% c #43331B",
"& c #4B371B",
"* c #533F1F",
"= c #473323",
"- c #4F3B23",
"; c #533F2F",
": c #3F472B",
"> c #5F4323",
", c #474F33",
"< c #574333",
"1 c #5F4B37",
"2 c #53573B",
"3 c #67533F",
"4 c #434343",
"5 c gray28",
"6 c #4B4B4B",
"7 c gray31",
"8 c gray34",
"9 c #5B5B5B",
"0 c #775F4B",
"q c gray39",
"w c #777777",
"e c #838383",
"r c #00FF00",
/* pixels */
"rrrrr@4444@rrrrr",
"rrr@#49031-%@rrr",
"rr@#$9qe031-%orr",
"r@#&<69q931<%%@r",
"r#&*<67881<-=o%r",
"@#&>166776;=oo%@",
"@&&>1678q7;=oo%@",
"@&&;<67qwq3<-=#@",
"@&::,255542,::#@",
"+#X...O@@O...X#+",
"O@5  .X$#X.  5@O",
"O@@5...44...5@@O",
"O@@7...44X..7@@O",
"rOO7rrX47Xrr7OOr",
"rrO7rr.XX.rr7Orr"
};
