/* XPM */
static char *result[] = {
/* columns rows colors chars-per-pixel */
"54 21 18 1 ",
"  c #3F2F17",
". c #4B371B",
"X c #533F2F",
"o c #3F472B",
"O c #474F33",
"+ c #574333",
"@ c #5F4B37",
"# c #67533F",
"$ c #6F5743",
"% c #775F4B",
"& c #7B634F",
"* c gray39",
"= c #836B57",
"- c #8B735B",
"; c #8B8B8B",
": c #979797",
"> c gray75",
", c None",
/* pixels */
",,,-&%$###########################################%,,,",
",,-=&$$$$$$$$$$$$$$$$$$$$$$$$$$$$$$$$$$$$$$$$$$$$$$%,,",
",-=&%%%%%%%%%%%%%%%%%%%%%%%%%%%%%%%%%%%%%%%%%%%%%%%%%,",
"---===================================================",
"=%#$$########$###$##$######$$######$#####$##$####$###$",
"=%#$$#####>:#$###$##$######$$######$#####$>:$####$###$",
"@@@@.....+:;.............................X:;.....@@@@@",
"=&&& +++++**++++++++++++++++++++++++++++++**+++++&&&&&",
"=%##.####@++@###$####$#OooO#oooO##$####$#@++@####&$#$$",
"=%#$.$#####$####$###$#OooooO#oooO$##$#$###$####$#&###$",
"=%$#X#####$####$######oooO####ooo##$#####$#$##$#$&$##$",
"=%$#+##$#$############oooO####ooo#$###$#$###$###$&##$$",
"=%##+#####$##$#####$##OooooO#oooO####$###$#$$##$#&#$#$",
"=%##+#$$#$###########$#OooO#oooO#####$$#$##$###$#&$##$",
"=%##+#############$#$###########$##$##$##$#####$#&$##$",
"=%##+$##o#o#OoO#Oo#$##$ooO#OoO#Oo#o$o#oo#ooo#oO##&#$$$",
"=%##+###o#o#ooo#o###$$#ooO#o$o#o##ooO#oO##o#$oo#$&$##$",
"=%##+###OoO#o#o#Oo#####o#o#OoO$Oo#o#o$oo##o$#Oo##&###$",
"=%#$+########$###$##$######$$######$#####$##$####&###$",
"=%##+@@@@@@@@@@@@@@@@@@@@@@@@@@@@@@@@@@@@@@@@@@@@&####",
"$@@@@@@@@@@@@@@@@@@@@@@@@@@@@@@@@@@@@@@@@@@@@@@@@@@@@@"
};
