/* XPM */
static char *result[] = {
/* columns rows colors chars-per-pixel */
"17 12 18 1 ",
"  c #170F07",
". c #1F170B",
"X c #131313",
"o c #13230B",
"O c #332B13",
"+ c #232323",
"@ c #272727",
"# c #2F2F2F",
"$ c #373F27",
"% c #3F472B",
"& c #53573B",
"* c #434343",
"= c gray28",
"- c gray31",
"; c gray34",
": c #5B5B5B",
"> c #53AF47",
", c None",
/* pixels */
",,:::::::::::::,,",
",;;;;;;;;;;;;;;;,",
"&===&&&&&&----==&",
"#@+++#@@OOOOOO+@#",
"#O++*O@#*$@O#O++#",
"#+OX.XXXXXXXXXO+#",
"#+@X>X>X>X>X>.@+#",
"#+@.++OOOOO+++@+#",
"#++#%+&*+*%O%%++#",
"#+@ X@..+..+X.@+#",
"O+@.+OX.#X.#o+@+O",
"+..o....+..+....+"
};
