/* XPM */
static char *result[] = {
/* columns rows colors chars-per-pixel */
"32 21 26 1 ",
"  c black",
". c #070707",
"X c #0B0B0B",
"o c #170F07",
"O c #1F170B",
"+ c #131313",
"@ c #332B13",
"# c #232323",
"$ c #272727",
"% c #2F2F2F",
"& c #373F27",
"* c #373737",
"= c gray23",
"- c #732B00",
"; c #3F472B",
": c #434343",
"> c gray28",
", c gray34",
"< c gray39",
"1 c #874307",
"2 c #9B5B13",
"3 c #AF7B1F",
"4 c #C39B2F",
"5 c #D7BB43",
"6 c #939393",
"7 c None",
/* pixels */
"7777****:,,:**:,,:**:,,:****7777",
"777%**%$,66,%%,66,%%,66,$%**%777",
"77%*=%$$><<>$$><<>$$><<>$$%=*%77",
"7%*=%$$$####$$####$$####$$$%==%7",
"%:>>>>>>>>>>>>>>>>>>>>>>>>>>>>:%",
"%%%%%%%%%%%%%*%%%%%%%%%%@%@@@@@#",
"%%%%%%%%%%@@@@@@@@@@@@@@@@@@@@@#",
"%@@@@@@@@@@@@@@@@@@$@@$@@@@@@@@#",
"&@oo++ oo..o.      .o..oo ++oo@#",
";@+O$#+   +##+    +##+   +#$O+@#",
";@  O 55  +   +      +   O O #@#",
";@  #+44  @ 44%   #  @    +#  @#",
"&@  #+33  # 33#   #  #    +#  @#",
"%@  #+22  %+22@   @22%    +#  @#",
"%@. ++11  # 11#   #11#  ++++ .@#",
"%@  ++-- .@ --%   +--@. +X++  @#",
"%@+#O+OOO+OOOOOO+OOOO+OOO+O#++@#",
"%#:::$:::%:::%:::%:::%:::$:::#@O",
"%O%%%O@%%O%%@O%%@O%%@O%%@O%%%O@O",
"$ +oo +.  +++ ++oo+++  .+ oo+ ##",
"o o..o+o++++++++++++++++oooooooo"
};
