/* XPM */
static char *result[] = {
/* columns rows colors chars-per-pixel */
"62 24 59 1 ",
"  c black",
". c #070707",
"X c #170F07",
"o c #0B1707",
"O c #1F170B",
"+ c #131313",
"@ c #1B1B1B",
"# c #13230B",
"$ c #2B230F",
"% c #332B13",
"& c #3F2F17",
"* c #232323",
"= c #272727",
"- c #2F2F2F",
"; c #373F27",
": c #373737",
"> c gray23",
", c #4F0000",
"< c #5B0000",
"1 c #730000",
"2 c #43331B",
"3 c #4B371B",
"4 c #533F1F",
"5 c #732B00",
"6 c #4F3B23",
"7 c #3F472B",
"8 c #5F4323",
"9 c #5B472B",
"0 c #474F33",
"q c #53573B",
"w c #6B4727",
"e c #774F2B",
"r c #7F532F",
"t c #434343",
"y c gray28",
"u c gray31",
"i c gray34",
"p c #5B5B5B",
"a c #5B6347",
"s c gray39",
"d c #6F6F6F",
"f c gray50",
"g c #8B0000",
"h c #874307",
"j c #9B5B13",
"k c #AF4300",
"l c #AF7B1F",
"z c #875733",
"x c #8F5F37",
"c c #9B633B",
"v c #A36B3F",
"b c #CB5707",
"n c #AB6F43",
"m c #B37347",
"M c #BF7B4B",
"N c #C39B2F",
"B c #D7BB43",
"V c #FFFF73",
"C c #00FF00",
/* pixels */
"CCCCCCCCCCCCCCCCCCCCCCCyippuy*CCCCCCCCCCCCCCCCCCCCCCCCCCCCCCCC",
"CCCCCCCCCCCCCCCCCCCCqyt=@@@@@@*-CCCCCCCCCCCCCCCCCCCCCCCCCCCCCC",
"CCCCCCCCCCCCCCCCCCq-:=@++++++++*-CCCCCCCCCCCCCCCCCCCCCCCCCCCCC",
"CCCCCCCCCCCCssyt*-=@@+          +-CCCCCCCCCCCCCCCCCCCCCCCCCCCC",
"CCCCCCCCCppyt****=@+ ***********+*CCCCCCCCCCCCCCCCCCCCCCCCCCCC",
"CCCCCCppyt@ @=***#++ydCCCCCCCCC**+CCCCCCCCCCCCCCCCCCCCCCCCCCCC",
"CCCCpt*@   @=+@*=o  >ydCCCCCCCC>*+CCCCCCCCCCCCCCCCCCCCCCCCCCCC",
"CCC>**@    :-++=:  .->ysCCCCCCCt*+CCCCCCCCCCCCCCCCCCCCCCCCCCCC",
"CC>*@  1<. *>- -:   *-uiddsCCCCy*+CCCCCCCCCCCCCCCCCCCCCCCCCCCC",
"CC:@ @C,g.. ***>-   usdspy>CCCCy*+CCCCCCCCCCCCCCCCCCCCCCCCCCCC",
"C:@ @:CCCCC. : f>   iuyt::*CCCCy*+CCCCCCCCCCCCCCCCCCCCCCCCCCCC",
"C*@*:pCBVBl4 -* *   + *****CCCCy*+>uCu>Cu>Cu>Cuu>=u>-u>-u>>CCC",
"**4www8833%$ -t>@ +BNju ;t;+;a7%X ;#%% ; ;+;=;*; ; ;X;X;X;Ou>C",
"4rxvmMNNNNNNN-:-@ $jNjy ++  +.                             *;u",
"wzcnlllllvvlN-:*   hBhy                                     %>",
"wrrrrz2X.6vvN-:*. 5jNht                        +            ;=",
"88errzO*O2zjN-:* 5hjNjt                         +           %u",
"4w8wwr%70;jjN-:*.hpfNj>                                     ;>",
"%344446996hjN-:*.jupNj:                                    *=C",
"O%2&344hhjhhB==-X4hlNj:          %O=+O*   XX +            *>uC",
"COOO%&4hkkkkjl==- 4NNj:;q;q;%; ; ;;q;%; ; ;O;*; *O-;+;*;qu>=CC",
"CCCOXO&38hkbhjl=== 4jj=   *=**>uC>uC$uC>uC>uC>uu->u->u=>u=CCCC",
"CCCCC %%%%%%%%% **  %%=O ==CCCCCCCCCCCCCCCCCCCCCCCCCCCCCCCCCCC",
"CCCCCCCCCCCCCCCC**  CCCCCCCCCCCCCCCCCCCCCCCCCCCCCCCCCCCCCCCCCC"
};
