/* XPM */
static char *result[] = {
/* columns rows colors chars-per-pixel */
"62 16 37 1 ",
"  c black",
". c #0B0B0B",
"X c #170F07",
"o c #1F170B",
"O c #131313",
"+ c #1B1B1B",
"@ c #2B230F",
"# c #332B13",
"$ c #3F2F17",
"% c #232323",
"& c #272727",
"* c #2F2F2F",
"= c #373737",
"- c gray23",
"; c #43331B",
": c #4B371B",
"> c #533F1F",
", c #4F3B23",
"< c #5F4323",
"1 c #574333",
"2 c #5F4B37",
"3 c #6B4727",
"4 c #7F532F",
"5 c #67533F",
"6 c #434343",
"7 c gray28",
"8 c #4B4B4B",
"9 c gray31",
"0 c gray34",
"q c #5B5B5B",
"w c #6F5743",
"e c gray39",
"r c gray42",
"t c #6F6F6F",
"y c #777777",
"u c gray50",
"i c #00FF00",
/* pixels */
"iiiiiiiiiiiii&=iiiiiiiiiiiiiiiiiiiiiiiiiiiiiiiiiiiiiiiiiiiiiii",
"iiiiiiiiiiii=&&&&&=iiiiiiiiiiiiiiiiiiiiiiiiiiiiiiiiiiettiiiiii",
"iiiiiiiii%=777900qeeeeqq0009%iiiiiiiiiiiiiiiiiiiiiierrtuutiiii",
"$5rrrrrrr67>:$##@@+++++++++=666q%-----------------qeee9qruutii",
"#,2000000=6:::$$######@@@@@=790q&666666666666666669400679qrut0",
"o$-666666&=$$#@%*%@@@@@@@@@=ty=9+*****************-399===7902w",
"+@&******+*##@@%**=-6790ryyyre%-O%%--7-7-0-0%%%%%%$><6**=7  ;<",
"XX+++++++O&@++++%%=--66678896- +   7*7*7*6*6+     %<--&%&0- #1",
" O+%&&&&%+&                    ++&%= = = = 70r 70r%===%%%%&**#",
"X++++++++O& +%*-*%+  ...       +OO+% % % %  +++    =**++&*++ii",
"iiiiiiiii%&&=-666=*%++++++%*%iiiiii & & & &   i   i &&&*++iiii",
"iiiiiiiiiiiii--*&%%*%%%*iiiiiiiiiiiiiiiiiiiiiiiiiiiii   iiiiii",
"iiiiiiiiiiiii-*&%&*ii%*iiiiiiiiiiiiiiiiiiiiiiiiiiiiiiiiiiiiiii",
"iiiiiiiiiiiii*&%&*  %*iiiiiiiiiiiiiiiiiiiiiiiiiiiiiiiiiiiiiiii",
"iiiiiiiiiiiii%&&* iiiiiiiiiiiiiiiiiiiiiiiiiiiiiiiiiiiiiiiiiiii",
"iiiiiiiiiiiii    iiiiiiiiiiiiiiiiiiiiiiiiiiiiiiiiiiiiiiiiiiiii"
};
