/* XPM */
static char *result[] = {
/* columns rows colors chars-per-pixel */
"28 19 26 1 ",
"  c black",
". c #272727",
"X c #2F2F2F",
"o c #373737",
"O c gray23",
"+ c #730000",
"@ c #4F3B23",
"# c #5B472B",
"$ c #775F3F",
"% c #4B4B4B",
"& c gray31",
"* c gray34",
"= c #5B5B5B",
"- c gray39",
"; c gray42",
": c #6F6F6F",
"> c #777777",
", c #8B0000",
"< c #9B0000",
"1 c #8B8B8B",
"2 c #939393",
"3 c #979797",
"4 c #9F9F9F",
"5 c #A7A7A7",
"6 c LightGray",
"7 c None",
/* pixels */
"7771111111111111111111111777",
"7712222222222222222222222177",
"7111111111111111111111111117",
"2444445555555555555555554442",
">;;:::;::::::::::::::::::::>",
">-;;:::::::::++:::::::::;-->",
":--;;;:::::::,,:::::::;;--=:",
"&:-=--;;;;;+,<<,+;;;;---*=:&",
"&#:=**=----+,<,,+-----**&:#&",
"&;#:=*>6>*---,,---=>6>&&:#;&",
"&:;#:=:3:=*&&++&&*=:3:&:#;:&",
"&::$#=-=;;;;;;;;;;;;=-=#$::&",
"&;::$o   @########@   o$::;&",
"&;;;;*.X.*;;;;;;;;*.X.*;;;;&",
"&----*XOX*--------*XOX*----&",
"&----*.X.*--------*.X.*----&",
"&====%...%========%...%====&",
"&&&&&%...%&&&&&&&&%...%&&&&&",
"&#####XXX##########XXX#####&"
};
