/* XPM */
static char *result[] = {
/* columns rows colors chars-per-pixel */
"54 16 42 1 ",
"  c black",
". c #170F07",
"X c #0B1707",
"o c #1B1B1B",
"O c #13230B",
"+ c #2B230F",
"@ c #332B13",
"# c #3F2F17",
"$ c #232323",
"% c #272727",
"& c #2F2F2F",
"* c #373737",
"= c gray23",
"- c #7F0000",
"; c #43331B",
": c #533F2F",
"> c #5B472B",
", c #574333",
"< c #675333",
"1 c #67533F",
"2 c #434343",
"3 c gray28",
"4 c gray31",
"5 c gray34",
"6 c #5B5B5B",
"7 c #5B6347",
"8 c #7B634F",
"9 c gray39",
"0 c gray42",
"q c #6F6F6F",
"w c gray50",
"e c red",
"r c #836B4B",
"t c #836B57",
"y c #8B735B",
"u c #937B63",
"i c #9B7F6B",
"p c #9F876F",
"a c #A78F77",
"s c #AF977F",
"d c #BFA78F",
"f c #00FF00",
/* pixels */
"ffffffff============*fffffffffffffffffffffffffffffffff",
"ffffff$$$$6fffffff=$$fffffffffffffffffffffffffffffffff",
"ff$$$$$$$=26========2345ff8y8y8y8y8yyyupsff $%&$4$4%qf",
"f$*4599995442$    $2499w  7d7s7ptptuipass   *%*$*$2%0$",
"$2*=*&%$$oooo&=43=&ooo*0$$;1;1;1;1,1,111r$$ =$=$=$=$6$",
"$   -e-      oooooo  o*6  #O#O#O#O#O#O:O<   2.& & & 5$",
"$   $&35432*&&&&&&=35900$$+ + + + + + @ >$$ 25qqqqq55f",
"$  $22*&&%$$++++++++$$*4  . . . . . . . ;           3f",
"$  2&$&*$$$$         $$2$$.             +$$  $%&=&%$3f",
"f  *$$*=   fff       $%=  .+.+.+.+.+.+.X.         $%=f",
"f  *%%=2             %&*ff.. . . ..... ..ff ..   $%&*f",
"ff *$&2=fffffff $ $ $fffffffffffffffffffffffffffffffff",
"ff *$&=*ffffffff  $ $fffffffffffffffffffffffffffffffff",
"fff $&**fffffffff    fffffffffffffffffffffffffffffffff",
"fff $&&*ffffffffffffffffffffffffffffffffffffffffffffff",
"ffff  **ffffffffffffffffffffffffffffffffffffffffffffff"
};
