/* XPM */
static char *result[] = {
/* columns rows colors chars-per-pixel */
"12 27 20 1 ",
"  c #1F170B",
". c #13230B",
"X c #17330F",
"o c #2B230F",
"O c #332B13",
"+ c #3F2F17",
"@ c #43331B",
"# c #4F3B23",
"$ c #5B472B",
"% c #5F4B37",
"& c #675333",
"* c #67533F",
"= c #775F3F",
"- c #6F5743",
"; c #7B634F",
": c #836B4B",
"> c #836B57",
", c #8F7753",
"< c #9F8363",
"1 c None",
/* pixels */
"11111==11111",
"1111&<:$1111",
"1111:,=$1111",
"111&:=&##111",
"111:=&$@@111",
"11&>=$#@O@11",
"11>:=$#@@#11",
"1:>::=$#@O@1",
"1:>=*%#@OO@1",
"1:>=-%#@OO@1",
"1:>=*-#@OO@1",
"1:>=-%#@OO@1",
"1:>=**#@OO@1",
"1:>=*%#@OO@1",
"1:;=*$#+OO@1",
"1:;-%$#+OO@1",
"1:=-%$#XOO@1",
"1:=&%$#X.O@1",
"1:=&%$#X.O@1",
"1:=&%$#X.O@1",
":$=&%$#X .O$",
"&$=&%$#X  .@",
"$$=&%=$X   o",
"$$=&%&=X.  @",
"#$=&%&=X   #",
"&$=&%&=X   $",
"11&$#####@11"
};
