/* XPM */
static char *result[] = {
/* columns rows colors chars-per-pixel */
"32 12 34 1 ",
"  c #2F2F2F",
". c gray23",
"X c #43331B",
"o c #4F3B23",
"O c #3F472B",
"+ c #5B472B",
"@ c #474F33",
"# c #5F4B37",
"$ c #53573B",
"% c #675333",
"& c #67533F",
"* c #775F3F",
"= c #434343",
"- c gray28",
"; c gray31",
": c gray34",
"> c #5B5B5B",
", c #5B6347",
"< c gray39",
"1 c #B30000",
"2 c #CB0000",
"3 c #D70000",
"4 c #9B5B13",
"5 c #AF7B1F",
"6 c #836B4B",
"7 c #8F7753",
"8 c #9F8363",
"9 c #838383",
"0 c #8B8B8B",
"q c #939393",
"w c #979797",
"e c #9F9F9F",
"r c #A7A7A7",
"t c None",
/* pixels */
"tt90qerrrrrrrrrrrrew0ttttttttttt",
"t90weeeeeeeeeeeeeeeew0,$OOOOO6tt",
"9eewqqqqqqqqqqqqqqqqqq0X23145@6t",
"><<<<<<<<<<<<<<<<<<<<<>*78876666",
"><:><<>><><<><<><<<>:>>o+%%%%%%*",
">;  : : :  : :: :<:  >>o+%%%%%%*",
">- ;;   ; -; ;; ;;- ;:>o+%%%%%%*",
">  -- - -  -  -  -  -;>o+&&&&&&*",
">>>>:;--------------;->oo######*",
">;.=-;..  ..=..= ..==->oo++++++*",
">><<>:;-==========-;;=>XXoooooo%",
";;;;;;;;;;;;;;;;;;;;;;>XXXXXXXXo"
};
