/* XPM */
static char *result[] = {
/* columns rows colors chars-per-pixel */
"63 12 32 1 ",
"  c black",
". c #1F170B",
"X c #131313",
"o c #1B1B1B",
"O c #2B230F",
"+ c #332B13",
"@ c #3F2F17",
"# c #232323",
"$ c #272727",
"% c #2F2F2F",
"& c #373F27",
"* c #373737",
"= c gray23",
"- c #4B371B",
"; c #533F1F",
": c #3F472B",
"> c #5F4323",
", c #6B4727",
"< c #774F2B",
"1 c #7F532F",
"2 c #67533F",
"3 c #434343",
"4 c gray28",
"5 c gray31",
"6 c gray34",
"7 c #5B5B5B",
"8 c #6F5743",
"9 c gray39",
"0 c #6F6F6F",
"q c #8F5F37",
"w c #9B633B",
"e c #00FF00",
/* pixels */
"eeeeeeeeeeeeeeeeeeeee#*6eeeeeeeeeeeeeeeeeeeeeeeeeeeeeeeeeeeeeee",
"eeeeeeeeeeeeeeee,$*=447900974=3=*%%===444444664433333533335334+",
"eeeeeeeeee<<<<>;;#$%*:*###=4=%3oo$>,<1qwwwwwwwwq1<,>ooooooooooo",
"eeeee<<<<<,,>>;;+.##%*&&3::=*%34=+>;;>>>;;>,>;;>;;;,%=%oeeeeeee",
"X@-;<,,,,,,>>;-@o..#$%***==*%%=o$$,;;;-----------;>,$oooeeeeeee",
"X+@;,;;;;;;;@++oo##***344455682eee--;;;;;;;;;;;;---;eeeeeeeeeee",
"X++-;----@+Oo    ooe$o=eeeeeeeeeeeeeeeeeeeeeeeeeeeeeeeeeeeeeeee",
"eXO@--@+OOo  X  ee*o#=eeeeeeeeeeeeeeeeeeeeeeeeeeeeeeeeeeeeeeeee",
"eXoO@+OO   eeX eeeeeeeeeeeeeeeeeeeeeeeeeeeeeeeeeeeeeeeeeeeeeeee",
"eXXoOO  eeeeeeeeeeeeeeeeeeeeeeeeeeeeeeeeeeeeeeeeeeeeeeeeeeeeeee",
"eeX   eeeeeeeeeeeeeeeeeeeeeeeeeeeeeeeeeeeeeeeeeeeeeeeeeeeeeeeee",
"eeX eeeeeeeeeeeeeeeeeeeeeeeeeeeeeeeeeeeeeeeeeeeeeeeeeeeeeeeeeee"
};
