/* XPM */
static char *result[] = {
/* columns rows colors chars-per-pixel */
"14 15 27 1 ",
"  c gray23",
". c #730000",
"X c #4F3B23",
"o c #5B472B",
"O c #675333",
"+ c gray28",
"@ c #4B4B4B",
"# c gray31",
"$ c gray34",
"% c #5B5B5B",
"& c gray39",
"* c gray42",
"= c #6F6F6F",
"- c #777777",
"; c gray50",
": c #9B0000",
"> c #B30000",
", c #BF0000",
"< c #CB0000",
"1 c #D70000",
"2 c #8B8B8B",
"3 c #939393",
"4 c #979797",
"5 c #9F9F9F",
"6 c gray67",
"7 c LightGray",
"8 c None",
/* pixels */
"882;;;;;;;;288",
"85333333333358",
"46666666666664",
"%;;;;;;;;;;;;%",
" -****-*****- ",
"+O**%*7-%%%*O+",
"+*O##*4=##%O*+",
"+=*OO####OO*=+",
"$---**11***--+",
"$---**<<***--+",
"@===,,,,,,===+",
"@&&&>>>>>>&&&+",
"+%%%%%::%%%%% ",
"+#####..##### ",
"XooooooooooooX"
};
