/* XPM */
static char *result[] = {
/* columns rows colors chars-per-pixel */
"4 6 3 1 ",
"  c #430000",
". c #FFFF73",
"X c #00FF00",
/* pixels */
"...X",
"X . ",
"X.. ",
"XX. ",
"... ",
"X   "
};
