/* XPM */
static char *result[] = {
/* columns rows colors chars-per-pixel */
"39 55 117 2 ",
"   c #1F170B",
".  c #13230B",
"X  c #2B230F",
"o  c #332B13",
"O  c #3F2F17",
"+  c #232323",
"@  c #272727",
"#  c #2F2F2F",
"$  c #373F27",
"%  c #373737",
"&  c gray23",
"*  c #4F0000",
"=  c #530707",
"-  c #5B0000",
";  c #5B0707",
":  c #5F0707",
">  c #670000",
",  c #670B0B",
"<  c #6B0F0F",
"1  c #730000",
"2  c #7F0000",
"3  c #731313",
"4  c #771717",
"5  c #7F1B1B",
"6  c #43331B",
"7  c #4B371B",
"8  c #533F2F",
"9  c #1F4317",
"0  c #27531B",
"q  c #3F472B",
"w  c #2F6323",
"e  c #37732B",
"r  c #5F4323",
"t  c #474F33",
"y  c #5F4B37",
"u  c #53573B",
"i  c #6B4727",
"p  c #774F2B",
"a  c #7F532F",
"s  c #67533F",
"d  c #434343",
"f  c gray28",
"g  c gray31",
"h  c gray34",
"j  c #5B5B5B",
"k  c #6F5743",
"l  c #775F4B",
"z  c #5B6347",
"x  c #676B4F",
"c  c #6F7357",
"v  c gray39",
"b  c gray42",
"n  c #6F6F6F",
"m  c #7B7F63",
"M  c #777777",
"N  c gray50",
"B  c #8B0000",
"V  c #9B0000",
"C  c #831F1F",
"Z  c #A70000",
"A  c #B30000",
"S  c #BF0000",
"D  c #8B2323",
"F  c #8F2B2B",
"G  c #972F2F",
"H  c #9B3333",
"J  c #A73F3F",
"K  c #CB0000",
"L  c #D70000",
"P  c #E30000",
"I  c red",
"U  c #FF3F3F",
"Y  c #AF4300",
"T  c #B74700",
"R  c #875733",
"E  c #8F5F37",
"W  c #9B633B",
"Q  c #A36B3F",
"!  c #CB5707",
"~  c #DF670F",
"^  c #EB6F0F",
"/  c #F37317",
"(  c #FF7F1B",
")  c #AF4747",
"_  c #B34F4F",
"`  c #BB5757",
"'  c #BF5B5B",
"]  c #836B4B",
"[  c #836B57",
"{  c #8F7753",
"}  c #AB6F43",
"|  c #B37347",
" . c #BF7B4B",
".. c #937B63",
"X. c #9B7F6B",
"o. c #CB7F4F",
"O. c #CB6B6B",
"+. c #DB7B7B",
"@. c #3F832F",
"#. c #9F8363",
"$. c #9F876F",
"%. c #A78F77",
"&. c #AF977F",
"*. c #CF8353",
"=. c #D78B5B",
"-. c #E79B6B",
";. c #EFA373",
":. c #F7AB7B",
">. c #838383",
",. c #8B8B8B",
"<. c #939393",
"1. c #9F9F9F",
"2. c #B79F87",
"3. c #BFA78F",
"4. c #FFB383",
"5. c #FFBF9B",
"6. c #00FF00",
/* pixels */
"6.6.6.6.6.6.6.6.6.6.6.6.6.6.6.6.6.6.6.6.6.6.6.6.x c m m m ..6.6.6.6.6.6.6.6.6.",
"6.6.6.6.6.6.6.6.6.6.6.6.6.6.6.6.6.6.6.6.6.6.6.*.-.5.4.;.*.m $.c 6.6.6.6.6.6.6.",
"6.6.6.6.6.6.6.6.6.6.6.6.6.6.6.6.6.6.6.6.6.6.w @.5.@.w @.| | w e c 6.6.6.6.6.6.",
"6.6.6.6.6.6.6.6.6.6.6.6.6.6.6.6.6.6.! 6.6.I 6.4.:.:. .E *.w w 0 0 6.6.6.6.6.6.",
"6.6.6.6.6.6.6.6.6.6.6.6.6.6.6.6.6.6.6.6.6.6.U }  .-.5.4.;.w  .R 9 6.6.6.6.6.6.",
"6.6.6.6.6.6.6.6.6.6.6.6.6.6.6.6.6.6.6.6.^ 6.E I 3 v /  .-.o.W R 9 6.6.6.6.6.6.",
"6.6.6.6.6.6.6.6.6.6.6.6.6.6.6.6.6.6.6.6.6.L ! 3 3 3 A Q *.R W 9 . 6.B 6.9 9 6.",
"6.6.6.6.6.6.6.6.6.6.6.6.6.6.6.6.6.6.6.6.( 6.~ I S R I | =.R i . > V 6.Z > 9 6.",
"6.6.6.6.6.6.6.6.6.6.6.6.6.6.6.6.6.6.6.6.b M W / / ( =.=.W R i > 6.6.6.> B 6.6.",
"6.6.6.6.6.6.6.6.6.6.6.6.6.6.6.#.#.#.#.#.] v v Y T T Y f f f f 6.6.2 6.6.6.6.> ",
"6.6.6.6.6.6.6.6.6.6.6.6.6.#.#.%.#.#.%._ ` ' H G J ' O.2.&.$.2.&.&.#.] 6.6.6.6.",
"6.6.6.6.6.6.6.6.6.6.6.6.{ #.%.#.#.%.O.&.O._ G J ` O.2.2.2.%.$.3.2.&.#.#.k 6.6.",
"6.6.6.6.6.6.6.6.6.6.6.6.6 ] #.s #.O._ O.` _ J _ ` O.+.3.2.2.X.3.&.&.%.#.s 6.6.",
"6.6.6.6.6.6.6.6.6.6.6.6.W a a 8 #.#.#.` J _ H _ ` ' 2.&.%...o 6 8 s k k k s 6.",
"6.6.6.6.6.6.6.6.6.6.6.W } } E i l l #.O.O._ ) H 5 5 H ] s 6 r W *.Q E a a 6.6.",
"6.6.6.6.6.6.6.6.6.6.6.W } } R i 6 s H H H H _ ` +.2.$...[ l y | *.*.| E E a 6.",
"6.6.6.6.6.6.6.6.6.6.R W W W 7 % y l [ ..$.O.$.O.O.$.$.$...[ y | *.*.| | E a 6.",
"6.6.6.6.6.6.6.6.6.6.c R R p r r y y l [ ..$.P $.6.$.P ....y y r r W m $. .6 6.",
"6.6.6.6.6.6.6.6.6.a W m c x r r y l [ ..Z [ V P [ * $.y l y ' | | Q z m c u 6.",
"6.6.6.6.6.6.6.6.W | | W a u u y l L + + ; * ; B G ' G ' J O J  .| W a u u q 6.",
"6.6.6.6.6.6.6.6.| =.O.| W a u y + + & S Z * * C 3 G = G C J J J J E j v f # 6.",
"6.6.6.6.6.6.6.F F J O.` W a 6.6.6.+ + & ; ; * J D 5 5 5 5 4 ; 4 n j & d + # 6.",
"6.6.6.6.6.6.F J G ` ` W H 6.6.6.6.+ ; + L V S ; J = 4 4 N N M v g d + # & 6.6.",
"6.6.6.6.6.C ` J H J ` J 6.6.x t c c c L p a I E K W N ,.1.<.j # + # d > > 6.6.",
"6.6.6.6.6.3 3 ` H H D 6.6.6.t t u z z % % + + j n ,.1.<.N v g & d - - > 1 6.> ",
"6.6.6.6.6.6.3 3 ` , 6.6.6.6.z $ z % + + + + + M ,.,.N v h f f X $ - 6.6.> 6.6.",
"6.6.6.6.6.6.6., 3 , 6.6.6.6.% % + + $ n >.b b j f v h f f + + # - 6.1 6.6.6.6.",
"6.6.6.6.6.6.6.6.6.6.6.6.% + + 8 n n >.n h f % % % f f #.{ 8 o     6.6.6.6.- 6.",
"6.6.6.6.6.6.6.6.6.6.% + + s n >.>.>.h f % % % % % # ] ] s 6 o o o 6 > 6.6.6.6.",
"6.6.6.6.6.6.6.6.% + + n >.,.>.h f # # % % % % % $ k #.#.k 6 o o o   6.- 6.6.6.",
"6.6.6.6.6.6.6.v + # >.,.h f % # # % % % % % X   k ] s k ) 6 o o o   6.6.6.6.6.",
"6.6.6.6.6.6.v M # v h f % # # % % f f % 8 X X 6 O s ] ) D 8 o o o   6.6.6.6.6.",
"6.6.6.6.v M M h g % % # # % % % f # + 6 6 X o   { k 7 7 7 6 o o o   6.6.6.6.6.",
"6.6.v M M h & @ @ % % % % % % G + + + 6 6 o 6.  ] ) G C 7 6 6 6 6   6.6.6.6.6.",
"f v M h & @ @ @ @ & d f f f 8 G + + @ 8 o o 6.s s s F < < C o o o 6.6.6.6.6.6.",
"@ f f @ @ @ @ @ + # + + #   G 4 + + D 6 o 6.6.6.8 k C : O < : 6 o 6.6.6.6.6.6.",
"6.@ @ @ @ @ @ 6.6.6.+ + + + + , 6 D 4 o 6 6.6.6.6 6 7 7 : : 6 6 o 6.6.6.6.6.6.",
"6.6.@ @ @ @ 6.6.6.6.6.+ + + 8 6 : 4 : 6 o 6 6.6.o 6 C < : 6 6 8 o 6.6.6.6.6.6.",
"6.6.6.@ @ 6.6.6.6.6.6.6.6.$ z 6 6 8 4 6 o o 6.6.o $ $ q t t t $ 6 6.6.6.6.6.6.",
"6.6.6.6.6.6.6.6.6.6.6.6.6.$ c z t $ 6       6.6.6.$ t t t t $ X 6.6.6.6.6.6.6.",
"6.6.6.6.6.6.6.6.6.6.6.6.6.@ t t t t $ $ $ @ 6.6.6.o $ t t t C X 6.6.6.6.6.6.6.",
"6.6.6.6.6.6.6.6.6.6.6.6.6.$ q $ $ o o $ o X 6.6.6.  o o o o   X 6.6.6.6.6.6.6.",
"6.6.6.6.6.6.6.6.6.6.6.6.6.6.$ C $ $ o X $ X 6.6.6.  $ $ $ $ $   6.6.6.6.6.6.6.",
"6.6.6.6.6.6.6.6.6.6.6.6.6.6.6.$ o o o $ o X 6.6.6.$ $ t q $ , $ 6.6.6.6.6.6.6.",
"6.6.6.6.6.6.6.6.6.6.6.6.6.6.6.6.X O $ o $ $ 6.6.6.$ t H t $ $ $ 6.6.6.6.6.6.6.",
"6.6.6.6.6.6.6.6.6.6.6.6.6.6.6.6.X   O o o O 6.6.6.6 7 t t t 7 $ 6.6.6.6.6.6.6.",
"6.6.6.6.6.6.6.6.6.6.6.6.6.6.6.6.6.X O o o   6.6.6.o t J z 7 $ o 6.6.6.6.6.6.6.",
"6.6.6.6.6.6.6.6.6.6.6.6.6.6.6.6.C O X O $   6.6.6.6.6 C J C O o 6.6.6.6.6.6.6.",
"6.6.6.6.6.6.6.6.6.6.6.6.6.6.6.O O O X X O   6.6.6.6.O D F C   6.6.6.6.6.6.6.6.",
"6.6.6.6.6.6.6.6.6.6.6.6.6.6.O 4 O O O O O X 6.6.6.6.C O 7 C   6.6.6.6.6.6.6.6.",
"6.6.6.6.6.6.6.6.6.6.6.6.6.7 C C 4 O O O @ @ 6.6.6.6.O G G G 7 6.6.6.6.6.6.6.6.",
"6.6.6.6.6.6.6.6.6.6.6.6.6.@ % % % @ @ @ 6.6.6.6.6.6.7 G J F C 6.6.6.6.6.6.6.6.",
"6.6.6.6.6.6.6.6.6.6.6.6.6.6.6.6.6.6.6.6.6.6.6.6.6.6.O C D D O 6.6.6.6.6.6.6.6.",
"6.6.6.6.6.6.6.6.6.6.6.6.6.6.6.6.6.6.6.6.6.6.6.6.6.6.  O O O   6.6.6.6.6.6.6.6.",
"6.6.6.6.6.6.6.6.6.6.6.6.6.6.6.6.6.6.6.6.6.6.6.6.6.6.@ @ X X @ 6.6.6.6.6.6.6.6."
};
