/* XPM */
static char *result[] = {
/* columns rows colors chars-per-pixel */
"48 61 69 1 ",
"  c #0B0B0B",
". c #1F170B",
"X c #131313",
"o c #1B1B1B",
"O c #332B13",
"+ c #3F2F17",
"@ c #232323",
"# c #272727",
"$ c #430000",
"% c #470000",
"& c #4F0000",
"* c #530707",
"= c #5B0000",
"- c #5B0707",
"; c #5F0707",
": c #670000",
"> c #670B0B",
", c #6B0F0F",
"< c #730000",
"1 c #7F0000",
"2 c #731313",
"3 c #771717",
"4 c #7F1B1B",
"5 c #4B371B",
"6 c #533F1F",
"7 c #732B00",
"8 c #5F4323",
"9 c #6B4727",
"0 c #774F2B",
"q c #8B0000",
"w c #9B0000",
"e c #831F1F",
"r c #A70000",
"t c #B30000",
"y c #BF0000",
"u c #8B2323",
"i c #8F2B2B",
"p c #972F2F",
"a c #9B3333",
"s c #A33B3B",
"d c #A73F3F",
"f c #CB0000",
"g c #D70000",
"h c #E30000",
"j c #EF0000",
"k c red",
"l c #FF1F1F",
"z c #874307",
"x c #AF4300",
"c c #B74700",
"v c #875733",
"b c #8F5F37",
"n c #9B633B",
"m c #A36B3F",
"M c #C34F00",
"N c #D75F0B",
"B c #EB6F0F",
"V c #AF4747",
"C c #B34F4F",
"Z c #BB5757",
"A c #BF5B5B",
"S c #B37347",
"D c #BF7B4B",
"F c #FF5F5F",
"G c #CB7F4F",
"H c #CB6B6B",
"J c #FF7B7B",
"K c #FF9B9B",
"L c #00FF00",
/* pixels */
"LLLLLLLLLLLLLLLLLL,$LLLLLLLLLLLLLLLLLLLLLLLLLLLL",
"LLLLLLLLLLLLLLLLL,,LLLLLLLLLLL:qLLLLLLLLLLLLLLLL",
"LLLLLLLLLLLLLLLLLLLLLLLLLLLLLL:&LLFJLLL:rLLLLLLL",
"LLLLLLLLLLLLLLLLLLLLqLLLLLLLLLLLLLlKLLLL:LLLLLLL",
"LLLLLLLLLLLLLLLLL::DGBL:LLLLLLLLLLgLLLLLLLLLLLLL",
"LLLLLLLLLLLLLLLLLLwkh1LLLL0nLLbLLLgLLLLLLLLLLLLL",
"LLLLLLLLLLLLLqLLLFKwtw$L8LO9L69LL$y=$LLLLLLLLLLL",
"LLLLLLLLLLLLLLLLLkf:$$$L50OOL+6L$fwyt<LLLLLLLLLL",
"LLLLLLLLLLLLLLL:LL:$$$LLLOOOL$L1$$1kqwfLLLLLLLLL",
"LLLLLLLLLLjLLLLLLLL$$LL5LLL$L=$=$$$$yqzLLLLLLLLL",
"LLLLLLLLLLLLLLwLLLLLLLLLLsVrfrs=$$$$$$mzLLLLLLLL",
"LLLLLqLLLLLLLLLLLLLLLLLLLae4uaa$q$$$$q<vLLLLLLLL",
"LLLLLLLLL:$LLLLLL&wLL%%LLwfua<wwhqL$$$$zLLLLLLLL",
"LLLLLLLL<1LLLLLLtfr:$%%LL1u1fyt&:qLLLL$7LLLLLLLL",
"LLLLLLLrr<r<LLL<q::&L&&LL---1rr:q<LLLLLLLLLLLLLL",
"LLLLLL1rrr<LLLL<::&&LLLLLLL&L&1wt1LLLLLL$LLLLLLL",
"LLLLLL1thy<LLLLL==&1w<LLLLLLLL&:LLLLLLLL$LL7LLLL",
"LLLwLL=qrrLLLLLLLL&ryr&LLLLL&$<<yr:$L::LLLL&7LLL",
"LLLLLLL=<L:LL$$LL=$$q<$$LLLL&$$1$$$$<wt:LLL&LLLL",
"LLLLLLLLLLLL:1$LL$$::&&$L$$LLLL%$$$ky<<w1@LLLLLL",
"LLLLL=LLLLLLwwLLL:p$$$$L$$$L&LLeddarq<w1@@@LLLLL",
"LLLLLLLLLLLLLLaHLL$$$$$$$$LLL1wd4ZZdawyww@@@LLLL",
"LLL&LL$$LLLLLdHs4Le$$$$$$$L$L:&&ZdZZZdw11@1@LLLL",
"LLLLnc1:&LL&1di2HLL$$$$$$LLLL%:q$$$4uu<&&&&:wLLL",
"LLqnNwrt=&&wti2ZVLLLL&3LLLLLLL&$$$$$$=<&&:96@1LL",
"LLyMwrfq1w&wq:id&LL$$3LLLLLLLL&uL$$$$1$=$$$O661L",
"wL596#5:r1$1t=$:$$$$LL3LLLLLLL$L&$$&$=$$$=$:95&r",
"LL51Mn1=:&&$=qq::$$L&3LLLLLLLLL&&$$&$==1q$=fbo$1",
"LL511wf:&&$&qg$$$$$=$L3LLLLLL$LLLL-%Lqfrqufuvo$$",
"LLL1dnw:&L$&<:$:$>&LL3-LLLLLLLLLLui%3qfq,,*,5o$&",
"LL1xdS0:LL&$:&&$::$$$-LLLLLLLLLLLL3%&&q,***u:&$O",
"LL3utav1$:$L&&&&&$$$$LLLLLLLLLLLu3i&%$&$$$$&&&1L",
"L3uaane1$L;$L&&&&&&LLLLLLLLLLLLLL-3&LLL$$$&L$&&L",
"L2aqqtq$$=$LLLLLLLLLLLLLLLLLLLL3;%u%*LLL&LL&L&LL",
"L>>ueua:LLLLLL$$LLLLLLLLLLLLCaL>$i3$LLLLLLLL&LLL",
"LL>aee2L11LLLL$$$LLLLLLLqLLCe333udu$$:LLLLLLLLLL",
"LL>>La-Lqyw<LL$$$LLLLLLLLLde$%LL&&$$$3:LLLLLLLLL",
"LLLLL>-=1yywLLLLLL=LLLL$LLi$$$Lrp=&L$u*LL=LLLLLL",
"LLLLLLL=qryw$LL$LLLLLLL=LL3%q%=e3$$L&3*=LL==LLLL",
"LLLLLL$=$L2$LLLLLL=LLL$&=LL333$e,$L$&&&L=====LLL",
"LLLLLLLLL#oL$LHALL<LqL1=1:$LLL$3$<<$:=11:$XX &$L",
"LLLLLLLLL$LLL4CCL=<LLL:1=$Lr1=$=$=r<&11:==$$ &<L",
"LLLLLLLL=$$L$4s4y1XLLL&::<r1=LLL&&=rrw12@X$$ &LL",
"LLLLLLLLX$ywLes4$$$XLXw2*r<=LLLLL==q111oo$$X LLL",
"LLLLLLL$$Xwr:ep3qXX$&qtqow<&$<L=LLL=<=:w:$$o $LL",
"LLLLLLL$$X4q:ip3<X1X&Xo2-<w&<q=LCp$L$$wfw$:XLL==",
"LLLLLLLL$$$=:ip3<1y1&&LX$1Xq$<=,ii$<=$=w-$oXLL==",
"LLLLLLL=Lqq$i==i<$1$&&&X$$qtq<=4--$=q*$$$X$$L$LL",
"LLLLLLL$$Xq*dai4q*XX&&&X$$Xqq=$--$$$<$Xo@L$$LLLL",
"LLLLLLL$$$$$=qq<$,XXXXXX$L$$::&$$$w<$XXoLL$$LLLL",
"LLLLLLLLX1X:q<=$$X 1$$$o$$&o:q1$$<<<<&r1XLLLLLLL",
"LLLLLLLLX11o:=$$$X1o%%%%$$&&>q1::$1,X$LLLLLLLLLL",
"LLLLLLLL$$$$o1Xo$--X%%%.$$&&o:$::$$$$LLLLLLLLLLL",
"LLLLLLLL==LL$XX1$X$$$%o%$$&&o%%$*$$$LLLLLLLLLLLL",
"LLLLLLLLLLLLLLLLLL%%%%$$$$L$*$$$$%LLLLLLLLLLLLLL",
"LLLLLLLLLLLLLLLLLLL%%%$$%$$&$$$$$LLLLLLLLLLLLLLL",
"LLLLLLLLLLLLLLLLLLL%%$$$%$$&$$$$$LLLLLLLLLLLLLLL",
"LLLLLLLLLLLLLLLLLLL$$$%%$L$%$$$$$LLLLLLLLLLLLLLL",
"LLLLLLLLLLLLLLLLLLLLLLLLLL$%$$$$LLLLLLLLLLLLLLLL",
"LLLLLLLLLLLLLLLLLLLLLLLLLL$%$$$$LLLLLLLLLLLLLLLL",
"LLLLLLLLLLLLLLLLLLLLLLLLLLL$%$$LLLLLLLLLLLLLLLLL"
};
