/* XPM */
static char *result[] = {
/* columns rows colors chars-per-pixel */
"26 55 98 2 ",
"   c #170F07",
".  c #1F170B",
"X  c #2B230F",
"o  c #332B13",
"O  c #3F2F17",
"+  c #232323",
"@  c #272727",
"#  c #2F2F2F",
"$  c #373F27",
"%  c #373737",
"&  c gray23",
"*  c #5B0707",
"=  c #5F0707",
"-  c #670B0B",
";  c #6B0F0F",
":  c #731313",
">  c #771717",
",  c #7F1B1B",
"<  c #43331B",
"1  c #4B371B",
"2  c #533F1F",
"3  c #533F2F",
"4  c #27531B",
"5  c #3F472B",
"6  c #2F6323",
"7  c #37732B",
"8  c #5F4323",
"9  c #474F33",
"0  c #5F4B37",
"q  c #53573B",
"w  c #6B4727",
"e  c #774F2B",
"r  c #7F532F",
"t  c #67533F",
"y  c #434343",
"u  c gray28",
"i  c gray31",
"p  c gray34",
"a  c #5B5B5B",
"s  c #6F5743",
"d  c #775F4B",
"f  c #5B6347",
"g  c #676B4F",
"h  c #6F7357",
"j  c gray42",
"k  c #6F6F6F",
"l  c #7B7F63",
"z  c #777777",
"x  c gray50",
"c  c #831F1F",
"v  c #8B2323",
"b  c #8F2B2B",
"n  c #972F2F",
"m  c #9B3333",
"M  c #A33B3B",
"N  c #A73F3F",
"B  c #E30000",
"V  c #874307",
"C  c #AF7B1F",
"Z  c #8F5F37",
"A  c #9B633B",
"S  c #A36B3F",
"D  c #D75F0B",
"F  c #F37317",
"G  c #AF4747",
"H  c #B34F4F",
"J  c #BF5B5B",
"K  c #836B4B",
"L  c #836B57",
"P  c #8F7753",
"I  c #8B735B",
"U  c #B37347",
"Y  c #BF7B4B",
"T  c #937B63",
"R  c #9B7F6B",
"E  c #CB7F4F",
"W  c #CB6B6B",
"Q  c #FF7B7B",
"!  c #3F832F",
"~  c #439337",
"^  c #C39B2F",
"/  c #9F8363",
"(  c #9F876F",
")  c #A78F77",
"_  c #AF977F",
"`  c #CF8353",
"'  c #D78B5B",
"]  c #DF9363",
"[  c #E79B6B",
"{  c #EFA373",
"}  c #F7AB7B",
"|  c #B79F87",
" . c #BFA78F",
".. c #FFB383",
"X. c #FFBB93",
"o. c #FFBF9B",
"O. c #FFC7A7",
"+. c #00FF00",
/* pixels */
"+.+.+.+.+.+.+.+.+.l ( ( ( l h h +.+.+.+.+.+.+.+.+.+.",
"+.+.+.+.+.+.+.+.+.! ! 7 ! ~ 7 6 6 4 +.+.+.+.+.+.+.+.",
"+.+.+.+.+.+.+.+.+.Y X.O.O.} ` Y 4 4 +.+.+.+.+.+.+.+.",
"+.+.+.+.+.+.+.+.Y ` } X.} X.{ Y 6 4 +.+.+.+.+.+.+.+.",
"+.+.+.+.+.+.+.+.4 ] ` O.] X.7 Y ! ` +.+.+.+.+.+.+.+.",
"+.+.+.+.+.+.+.+.+.B 4 Y 4 B Q [ U U +.+.+.+.+.+.+.+.",
"+.+.+.+.+.+.+.+.Y [ ` o.{ o...[ e 4 +.+.+.+.+.+.+.+.",
"+.+.+.+.+.+.+.+.S ` ^ Y ^ { ' U Z +.+.+.+.+.+.+.+.+.",
"+.+.+.+.+.+.+.+.+.C u = u ^ Y A Z +.+.+.+.+.+.+.+.+.",
"+.+.+.+.+.+.+.+.y D m , m C V + i z ) ) / / +.+.+.+.",
"+.+.+.+.+.s s y # V D F C V + s _ _ |  .|  .| K +.+.",
"+.+.+.+.K / 0 < & % # @ @ y K L _ _ _  . . .) / 0 +.",
"+.+.+.s / s 0 < < o . < v m ) ) d _ ) _ | | ) / s +.",
"+.+.s K 0 s c 0 1 X < b m G ) | t R ( ) _ | ) / K 3 ",
"+.+.s K 3 c s v b c c m G J / ( I I L L L T T s 3 < ",
"+.+.+.8 . 0 s s b b c m G P / P 3 w U ` ' Y Y U A 8 ",
"+.+.+.. o 3 3 3 ; v ; v b s s 3 . Y ] ' ' Y E A w 8 ",
"+.+.r . < o < o ; v ; ; - = o 3 0 U E ] ' ' Y r < +.",
"+.+.i # # p K o v v M n b s K s s A U ` ] ` A 2 8 +.",
"+.T j x x j / < M G J J J K 3 < l l (  .| _ ( 8 +.+.",
"+.f u @ + u k < - > - > > P / Y ] E A f l l h 9 +.+.",
"f A + @ + # a + + @ + # # U E ` W ` U A @ 9 5 + +.+.",
"e ` y & + + i u @ < 1 w U Y J Y U r e w @ @ $ + +.+.",
"e ' + # + # y M v n U J E H M b 8 < X X + # + @ q +.",
"8 A O # @ # + G G G M n 1 : : * X X X X X X X $ $ +.",
"Z c ; & + + # b v v v = * 1 < . # X X X X X + X +.+.",
"+.X ; ; % + ; ; ; ; # # 9 9 9 $ # + . . . . . +.+.+.",
"+.v c ; y o o o o o X $ $ $ < o + + o . . . o o +.+.",
"+.+.+.+.s o o o o o X . o o o . @ o o . . . o 3 < +.",
"+.+.+.+.+.. o o o o . X . . . X o o . . . o o < 0 0 ",
"+.+.+.+.+.+.. < o o o . X . . + < o . o o o < > s < ",
"+.+.+.+.+.+.o < < 3 < o . X X < < o o > < < c 3 s < ",
"+.+.+.+.+.+.< 3 < 0 3 o o . . . o o o 1 b v c 3 K < ",
"+.+.+.+.+.+.. < 3 o 3 < . o . . . < o 1 b b v 0 3 o ",
"+.+.+.+.+.+.. 3 3 3 < o * * . . o < < > c c c > 3 +.",
"+.+.+.+.+.+.+.3 > < o o < . . . o < > c c 1 v > 3 +.",
"+.+.+.+.+.+.+.v > < < < . * . . < N c c 3 v N v < +.",
"+.+.+.+.+.+.+.v v > < - * o . . o v b 3 0 s m c 3 +.",
"+.+.+.+.+.+.+.v n > < < - o . . . 3 g T ) l q < 0 +.",
"+.+.+.+.+.+.+.3 v < > < o . . .   f h h l g f o +.+.",
"+.+.+.+.+.+.+.$ g g 9 $ o o o X . 9 h h l g f $ +.+.",
"+.+.+.+.+.+.+.f 9 9 $ $ < o o X . $ 9 g g m v @ +.+.",
"+.+.+.+.+.+.+.+.$ 5 $ < o o o o o $ $ $ 9 5 q 9 $ +.",
"+.+.+.+.+.+.+.+.+.+.o o o o o o o 5 $ o o $ q h $ +.",
"+.+.+.+.+.+.+.+.+.+.+.o o o o X o $ 9 f f f f g $ +.",
"+.+.+.+.+.+.+.+.+.+.+.o $ o o X o 5 q 9 M f g f $ +.",
"+.+.+.+.+.+.+.+.+.+.+.+.o = o X o +.9 q q g G q 9 +.",
"+.+.+.+.+.+.+.+.+.+.+.b ; o = o X $ 5 m f G 1 $ +.+.",
"+.+.+.+.+.+.+.+.+.+.c ; c ; o o X $ +.$ G G n X +.+.",
"+.+.+.+.+.+.+.+.+.c > > ; . = X X $ +.$ , ; ; @ +.+.",
"+.+.+.+.+.+.+.+., v ; ; O o o o + +.+.+ v n 1 O +.+.",
"+.+.+.+.+.+.+.+.# % % % # + + +.+.+.+.m n m b c 1 +.",
"+.+.+.+.+.+.+.+.+.+.+.+.+.+.+.+.+.v m m m b v c @ +.",
"+.+.+.+.+.+.+.+.+.+.+.+.+.+.+.+.+.v v v v 1 O 1 @ +.",
"+.+.+.+.+.+.+.+.+.+.+.+.+.+.+.+.+.@ # % % % % @ +.+."
};
