/* XPM */
static char *result[] = {
/* columns rows colors chars-per-pixel */
"39 55 104 2 ",
"   c #1F170B",
".  c #13230B",
"X  c #2B230F",
"o  c #332B13",
"O  c #3F2F17",
"+  c #232323",
"@  c #272727",
"#  c #2F2F2F",
"$  c #373F27",
"%  c #373737",
"&  c gray23",
"*  c #530707",
"=  c #5B0707",
"-  c #5F0707",
";  c #670B0B",
":  c #6B0F0F",
">  c #731313",
",  c #771717",
"<  c #7F1B1B",
"1  c #43331B",
"2  c #4B371B",
"3  c #533F1F",
"4  c #533F2F",
"5  c #1F4317",
"6  c #27531B",
"7  c #3F472B",
"8  c #2F6323",
"9  c #37732B",
"0  c #5F4323",
"q  c #474F33",
"w  c #53573B",
"e  c #6B4727",
"r  c #774F2B",
"t  c #7F532F",
"y  c #67533F",
"u  c #434343",
"i  c gray28",
"p  c gray31",
"a  c gray34",
"s  c #5B5B5B",
"d  c #6F5743",
"f  c #5B6347",
"g  c #676B4F",
"h  c #6F7357",
"j  c gray39",
"k  c gray42",
"l  c #6F6F6F",
"z  c #7B7F63",
"x  c #777777",
"c  c gray50",
"v  c #831F1F",
"b  c #BF0000",
"n  c #8B2323",
"m  c #8F2B2B",
"M  c #972F2F",
"N  c #9B3333",
"B  c #A33B3B",
"V  c #A73F3F",
"C  c red",
"Z  c #AF4300",
"A  c #B74700",
"S  c #875733",
"D  c #8F5F37",
"F  c #9B633B",
"G  c #A36B3F",
"H  c #CB5707",
"J  c #DF670F",
"K  c #EB6F0F",
"L  c #F37317",
"P  c #FF7F1B",
"I  c #AF4747",
"U  c #B34F4F",
"Y  c #BB5757",
"T  c #BF5B5B",
"R  c #836B4B",
"E  c #8F7753",
"W  c #AB6F43",
"Q  c #B37347",
"!  c #BF7B4B",
"~  c #937B63",
"^  c #9B7F6B",
"/  c #CB7F4F",
"(  c #CB6B6B",
")  c #DB7B7B",
"_  c #3F832F",
"`  c #FF8F3B",
"'  c #9F8363",
"]  c #9F876F",
"[  c #A78F77",
"{  c #AF977F",
"}  c #CF8353",
"|  c #D78B5B",
" . c #E79B6B",
".. c #EFA373",
"X. c #F7AB7B",
"o. c #838383",
"O. c #8B8B8B",
"+. c #979797",
"@. c #B79F87",
"#. c #BFA78F",
"$. c gray75",
"%. c #FFB383",
"&. c #FFBF9B",
"*. c #00FF00",
/* pixels */
"*.*.*.*.*.*.*.*.*.*.*.*.*.*.*.*.*.*.*.*.*.*.*.*.*.g h z z z ~ *.*.*.*.*.*.*.*.",
"*.*.*.*.*.*.*.*.*.*.*.*.*.*.*.*.*.*.*.*.*.*.*.*.}  .&.%...} z ] h *.*.*.*.*.*.",
"*.*.*.*.*.*.*.*.*.*.*.*.*.*.*.*.*.*.*.*.*.*.*.8 _ &._ 8 _ Q Q 8 9 h *.*.*.*.*.",
"*.*.*.*.*.*.*.*.*.*.*.*.*.*.*.*.*.*.*.H *.*.*.*.%.X.X.! D } 8 8 6 6 *.*.*.*.*.",
"*.*.*.*.*.*.*.*.*.*.*.*.*.*.*.*.*.*.*.*.*.*.*.| W !  .&.%...8 ! S 5 *.*.*.*.*.",
"*.*.*.*.*.*.*.*.*.*.*.*.*.*.*.*.*.*.*.*.*.K *.D p > j  .!  ./ F S 5 *.*.*.*.*.",
"*.*.*.*.*.*.*.*.*.*.*.*.*.*.*.*.*.*.*.*.*.*.*.H > > > P G } S F 5 . *.*.*.*.*.",
"*.*.*.*.*.*.*.*.*.*.*.*.*.*.*.*.*.*.*.*.*.P *.J C b S ` Q | S e . *.*.*.*.*.*.",
"*.*.*.*.*.*.*.*.*.*.*.*.*.*.*.*.*.*.*.*.*.k x F L L P | | F S e *.*.*.*.*.*.*.",
"*.*.*.*.*.*.*.*.*.*.*.*.*.*.*.*.' ' ' ' ' R j j Z A A Z i i i i *.*.*.*.*.*.*.",
"*.*.*.*.*.*.*.*.*.*.*.*.*.*.' ' [ ' ' [ U Y T N M V T ( @.{ ] @.{ { ' R *.*.*.",
"*.*.*.*.*.*.*.*.*.*.*.*.*.E ' [ ' ' [ ( { ( U M V Y ( @.@.@.[ ] #.@.{ ' ' d *.",
"*.*.*.*.*.*.*.*.*.*.*.*.*.1 R ' y ' ( U ( Y U V U Y ( ) #.@.@.^ #.{ { [ ' y *.",
"*.*.*.*.*.*.*.*.*.*.*.*.*.F F ! 4 ' ' ' Y V U N U Y T @.{ [ ~ o 1 4 y d E d y ",
"*.*.*.*.*.*.*.*.*.*.*.*.F / Q D u # # # # + U I N < < N R y 1 0 F } D e # & *.",
"*.*.*.*.*.*.*.*.*.*.*.*.# # # + + 1 y d + + s $.Y ) @.] $.c + # # # # # % + *.",
"*.*.*.*.*.*.*.*.u + # # # e e 2 % d j c p s +.+.+.+.+.+.s + # @ + + + @ @ p D ",
"*.*.*.*.*.*.*.+ + + *.*.l x x x x x s u u u s O.O.o.c l i + + % 0 0 F z ] ! 1 ",
"*.*.*.*.*.*.u # # p x x l s p u % p % u u % i s s s s s s # + I Q Q G f z h w ",
"*.s s s s s u j a s u u % % % % u & u u u % % # @ M B M B n O m ! Q U t w w 7 ",
"i # # # # # # % u u % % u u u u u u u u % % # + v > ; * > v : O V V D < q $ $ ",
"@ # # # # # @ % u u u u u u u u p p p % # % # + + = = * = = = = , m 0 0 $ @ *.",
"*.+ # # # # @ u p p p p # # u % @ @ @ @ u p p u u + * * * * * * * 1 1 1 3 *.*.",
"*.@ # # # # v n + # @ # O n *.g @ @ @ @ h r t D D D F D f w q @ X $ *.*.*.*.*.",
"*.*.# # # # > > M + @ # + *.*.q q @ @ @ q e 0 0 0 O   2 @ $ f X X X *.*.*.*.*.",
"*.*.@ # # *.*.> > n # # @ + *.f $ @ @ @ # 0 0 0 0 0 2 e q X $ @ X $ *.*.*.*.*.",
"*.*.*.*.*.*.*.*.; > # # # @ *.~ o u @ @ o O O O O O 2   ' R + + # *.*.*.*.*.*.",
"*.*.*.*.*.*.*.*.*.*.*.*.*.*.*.y 4 1 o o o $ q q q f f y ' E 4 o     *.*.*.*.*.",
"*.*.*.*.*.*.*.*.*.*.*.*.*.*.y y 1 o   4 y X $ $ q q # R R y 1 o o o 1 *.*.*.*.",
"*.*.*.*.*.*.*.*.*.*.*.*.*.R o y B B N 4 ' X @ @ @ $ d ' ' d 1 o o o   *.*.*.*.",
"*.*.*.*.*.*.*.*.*.*.*.*.*.y d B T y 1 T 4 1 X X   d R y d I 1 o o o   *.*.*.*.",
"*.*.*.*.*.*.*.*.*.*.*.*.*.4 E d 4 4 T y 4 4 X X 1 O y R I n 4 o o o   *.*.*.*.",
"*.*.*.*.*.*.*.*.*.*.*.*.*.4 y 4 y d M 1 1 1 X o   E d 2 2 2 1 o o o   *.*.*.*.",
"*.*.*.*.*.*.*.*.*.*.*.*.*.1 4 4 M M : o 1 1 o *.  R I M v 2 1 1 1 1   *.*.*.*.",
"*.*.*.*.*.*.*.*.*.*.*.*.*.*.1 4 M , : 1 4 o o *.y y y m : : v o o o *.*.*.*.*.",
"*.*.*.*.*.*.*.*.*.*.*.*.*.*.1 M , ; o n 1 o *.*.*.4 d v - O : - 1 o *.*.*.*.*.",
"*.*.*.*.*.*.*.*.*.*.*.*.*.*.o , ; 1 n , o 1 *.*.*.1 1 2 2 - - 1 1 o *.*.*.*.*.",
"*.*.*.*.*.*.*.*.*.*.*.*.*.*.o 4 1 - , - 1 o 1 *.*.o 1 v : - 1 1 4 o *.*.*.*.*.",
"*.*.*.*.*.*.*.*.*.*.*.*.*.*.$ f 1 1 4 , 1 o o *.*.o $ $ 7 q q q $ 1 *.*.*.*.*.",
"*.*.*.*.*.*.*.*.*.*.*.*.*.*.$ h f q $ 1       *.*.*.$ q q q q $ X *.*.*.*.*.*.",
"*.*.*.*.*.*.*.*.*.*.*.*.*.*.@ q q q q $ $ $ @ *.*.*.o $ q q q < X *.*.*.*.*.*.",
"*.*.*.*.*.*.*.*.*.*.*.*.*.*.$ 7 $ $ o ; ; o X *.*.*.  o o o o   ; *.*.*.*.*.*.",
"*.*.*.*.*.*.*.*.*.*.*.*.*.*.*.$ $ $ $ o X $ X *.*.*.  $ $ $ $ $   *.*.*.*.*.*.",
"*.*.*.*.*.*.*.*.*.*.*.*.*.*.*.*.$ o o o $ o X *.*.*.$ $ q 7 $ $ $ *.*.*.*.*.*.",
"*.*.*.*.*.*.*.*.*.*.*.*.*.*.*.*.*.X O $ o $ $ *.*.*.$ q q q $ < $ *.*.*.*.*.*.",
"*.*.*.*.*.*.*.*.*.*.*.*.*.*.*.*.*.X   O o o O *.*.*.1 2 q q q 2 $ *.*.*.*.*.*.",
"*.*.*.*.*.*.*.*.*.*.*.*.*.*.*.*.*.*.X O o o   *.*.*.o q V f 2 $ o *.*.*.*.*.*.",
"*.*.*.*.*.*.*.*.*.*.*.*.*.*.*.*.*.v O X O $   *.*.*.*.1 v V v O o *.*.*.*.*.*.",
"*.*.*.*.*.*.*.*.*.*.*.*.*.*.*.*.O O O X X O   *.*.*.*.O n m v   *.*.*.*.*.*.*.",
"*.*.*.*.*.*.*.*.*.*.*.*.*.*.*.O , O O O O O X *.*.*.*.v O 2 v   *.*.*.*.*.*.*.",
"*.*.*.*.*.*.*.*.*.*.*.*.*.*.2 v v , O O O @ @ *.*.*.*.O M M M 2 *.*.*.*.*.*.*.",
"*.*.*.*.*.*.*.*.*.*.*.*.*.*.@ % % % @ @ @ *.*.*.*.*.*.2 M V m v *.*.*.*.*.*.*.",
"*.*.*.*.*.*.*.*.*.*.*.*.*.*.*.*.*.*.*.*.*.*.*.*.*.*.*.O v n n O *.*.*.*.*.*.*.",
"*.*.*.*.*.*.*.*.*.*.*.*.*.*.*.*.*.*.*.*.*.*.*.*.*.*.*.  O O O   *.*.*.*.*.*.*.",
"*.*.*.*.*.*.*.*.*.*.*.*.*.*.*.*.*.*.*.*.*.*.*.*.*.*.*.@ @ X X @ *.*.*.*.*.*.*."
};
