/* XPM */
static char *result[] = {
/* columns rows colors chars-per-pixel */
"38 55 108 2 ",
"   c #1F170B",
".  c #2B230F",
"X  c #332B13",
"o  c #3F2F17",
"O  c #232323",
"+  c #272727",
"@  c #2F2F2F",
"#  c #373F27",
"$  c #373737",
"%  c gray23",
"&  c #430000",
"*  c #530707",
"=  c #5F0707",
"-  c #670B0B",
";  c #6B0F0F",
":  c #731313",
">  c #771717",
",  c #7F1B1B",
"<  c #43331B",
"1  c #4B371B",
"2  c #533F1F",
"3  c #533F2F",
"4  c #27531B",
"5  c #3F472B",
"6  c #37732B",
"7  c #5F4323",
"8  c #474F33",
"9  c #5F4B37",
"0  c #53573B",
"q  c #6B4727",
"w  c #774F2B",
"e  c #7F532F",
"r  c #434343",
"t  c gray28",
"y  c gray31",
"u  c gray34",
"i  c #5B5B5B",
"p  c #6F5743",
"a  c #775F4B",
"s  c #5B6347",
"d  c #676B4F",
"f  c #7B634F",
"g  c #6F7357",
"h  c gray39",
"j  c gray42",
"k  c #6F6F6F",
"l  c #7B7F63",
"z  c #777777",
"x  c gray50",
"c  c #831F1F",
"v  c #8B2323",
"b  c #8F2B2B",
"n  c #972F2F",
"m  c #9B3333",
"M  c #A33B3B",
"N  c #A73F3F",
"B  c #E30000",
"V  c #874307",
"C  c #AF7B1F",
"Z  c #875733",
"A  c #8F5F37",
"S  c #A36B3F",
"D  c #D75F0B",
"F  c #F37317",
"G  c #AF4747",
"H  c #B34F4F",
"J  c #BB5757",
"K  c #836B4B",
"L  c #836B57",
"P  c #8F7753",
"I  c #8B735B",
"U  c #AB6F43",
"Y  c #B37347",
"T  c #BF7B4B",
"R  c #937B63",
"E  c #9B7F6B",
"W  c #CB7F4F",
"Q  c #C76363",
"!  c #CB6B6B",
"~  c #FF7B7B",
"^  c #3F832F",
"/  c #439337",
"(  c #C39B2F",
")  c #9F8363",
"_  c #9F876F",
"`  c #A78F77",
"'  c #AF977F",
"]  c #CF8353",
"[  c #DF9363",
"{  c #E79B6B",
"}  c #EFA373",
"|  c #F7AB7B",
" . c #838383",
".. c #8B8B8B",
"X. c #939393",
"o. c #979797",
"O. c #9F9F9F",
"+. c #B79F87",
"@. c #BFA78F",
"#. c gray67",
"$. c gray70",
"%. c #FF9B9B",
"&. c #FFB383",
"*. c #FFBB93",
"=. c #FFBF9B",
"-. c #FFC7A7",
";. c #FFDBC7",
":. c #00FF00",
/* pixels */
":.:.:.:.:.:.:.:.:.:.:.s g l _ _ _ l g s :.:.:.:.:.:.:.:.:.:.:.:.:.:.:.:.:.:.",
":.:.:.:.:.:.:.:.:.:.:.4 Y / ^ 6 ^ / Y 4 :.:.:.:.:.:.:.:.:.:.:.:.:.:.:.:.:.:.",
":.:.:.:.:.:.:.:.:.:.:.4 ] | -.-.-.| ] 4 :.:.:.:.:.:.:.:.:.:.:.:.:.:.:.:.:.:.",
":.:.:.:.:.:.:.:.:.:.:.A } *.| *.| *.} A :.:.:.:.:.:.:.:.:.:.:.:.:.:.:.:.:.:.",
":.:.:.:.:.:.:.:.:.:.{ Y 4 -.[ ;.[ -.4 Y { :.:.:.:.:.:.:.:.:.:.:.:.:.:.:.:.:.",
":.:.:.:.:.:.:.:.:.:.&.[ ~ B 4 | 4 B ~ [ &.:.:.:.:.:.:.:.:.:.:.:.:.:.:.:.:.:.",
":.:.:.:.:.:.:.:.:.:.] T &.%.} =.} %.&.T ] :.:.:.:.:.:.:.:.:.:.:.:.:.:.:.:.:.",
":.:.:.:.:.:.:.:.:.:.i w S } ( T ( } S w :.:.:.:.:.:.:.:.:.:.:.:.:.:.:.:.:.:.",
":.:.:.:.:.:.:.:.) ) y w T ( i = i ( T w s R :.:.:.:.:.:.:.:.:.:.:.:.:.:.:.:.",
":.:.:.:.) +.+.+.@.@.$ + S D H m H C S O K ` ` ) P :.:.:.:.:.:.:.:.:.:.:.:.:.",
":.:.:.P ) ' +.@.@.+.p r @ V D F C V @ 3 K ) +.+.' ` I p :.:.:.:.:.:.:.:.i i ",
":.:.p P ) _ E ' E ' ) f G < X       y 9 K ` L +.' ' E P p :.:.:.:.i h r % % ",
":.:.9 K P ) P 9 ) ! ` ` Q J b < < b H ) ) ) E a ` E R ) p :.:.i r r O @ O @ ",
":.:.< 3 9 K p X G ) ! ) Q H M b G M H Z < K ) y ) P j z ..x y r @ O @ @ :.:.",
":.:.< 3 < < <   < K J Q J H M b G 9 O r @ O O y j  .o.o...z O $ @ @ :.:.:.:.",
":.e S T ] [ T 3 O 9 b M b b 3 . O r P K K % % #.O.o. .k h t @ @ :.:.:.:.:.:.",
":.1 U U T A 7 . O X X X @ O @ < M 3 o.o.X.r y i z j y % % $ $ :.:.:.:.:.:.:.",
":.# S S 7 < + < O @   @ 3 b M  .o.X.j j j O + @ t r $ $ n M > :.:.:.:.:.:.:.",
":.s _ ` I 0 5 O O @ r 3  .O.O. .h t % % t t t y @ O < n M c > > :.:.:.:.:.:.",
"s 5 R W S e Y O % r x o. .i i % % % t t t t y 9 + O M n , : * * :.:.:.:.:.:.",
"+ q Y [ [ T $.z o. .j i t % % t t t t i @ y < p r . : ; - & & * :.:.:.:.:.:.",
". e A k k k k + y r t % % t t t t u i r O X < p :.O &   * * & :.:.:.:.:.:.:.",
"O k k k i t $ @ t t t t t t t t % % @ +   R _ d :.:.1 o < 1 :.:.:.:.:.:.:.:.",
"k i t $ $ $ $ @ % r y t t t % % 2 @ + + X d 8 8 :.:.:.:.:.:.:.:.:.:.:.:.:.:.",
"y $ $ $ $ $ $ @ i j j j h i 1 2 2 + + + X 8 8 # :.:.:.:.:.:.:.:.:.:.:.:.:.:.",
":.$ $ $ $ $ @   . *   @ O @ o < . + + + < . 8 :.:.:.:.:.:.:.:.:.:.:.:.:.:.:.",
":.r $ $ $ $ @ * 1 > > @ O @ s # 8 + + 3 9 @ . :.:.:.:.:.:.:.:.:.:.:.:.:.:.:.",
":.:.@ $ $ $ r 1 & * > @ + @ 8 # # @ X 3 3 K p 3 :.:.:.:.:.:.:.:.:.:.:.:.:.:.",
":.:.:.@ $ p 9 9 * & * @ @ @ . @ @ . < 9 9 3 9 9 X :.:.:.:.:.:.:.:.:.:.:.:.:.",
":.:.:.:.:.9 3 P P K J p p P X . . < 3 3 < < X < X :.:.:.:.:.:.:.:.:.:.:.:.:.",
":.:.:.:.:.p < p 9 G n G 9 < 3 O   p 3 < < < < X   :.:.:.:.:.:.:.:.:.:.:.:.:.",
":.:.:.:.:.3 < 3 3 v n 3 < < < O   X < < , X = <   :.:.:.:.:.:.:.:.:.:.:.:.:.",
":.:.:.:.:.3 < X < - , - X 3 X   X     < , = = <   :.:.:.:.:.:.:.:.:.:.:.:.:.",
":.:.:.:.:.:.3 < < < - - < < <     X X ; ; - , < X :.:.:.:.:.:.:.:.:.:.:.:.:.",
":.:.:.:.:.:.:.X ; < < - < < < X < > ; - - = - X :.:.:.:.:.:.:.:.:.:.:.:.:.:.",
":.:.:.:.:.:.X ; ; < < < 3 3 < X X < > = = ; -   :.:.:.:.:.:.:.:.:.:.:.:.:.:.",
":.:.:.:.:.:.X ; < 3 3 9 p p < X X X - = ; , ; X :.:.:.:.:.:.:.:.:.:.:.:.:.:.",
":.:.:.:.:.:.:.@ 5 d l l l d 8 < X - X X X , =   :.:.:.:.:.:.:.:.:.:.:.:.:.:.",
":.:.:.:.:.:.:.@ 8 0 s d s 8 @ :.O X # # X X X   :.:.:.:.:.:.:.:.:.:.:.:.:.:.",
":.:.:.:.:.:.:.:.5 s s 0 s 0 # :.O X X X # # O :.:.:.:.:.:.:.:.:.:.:.:.:.:.:.",
":.:.:.:.:.:.:.:.# 8 8 8 n , 5 # X X X # 5 5 O :.:.:.:.:.:.:.:.:.:.:.:.:.:.:.",
":.:.:.:.:.:.:.:.O X < < X X 0 # X X X # 5 8 @ :.:.:.:.:.:.:.:.:.:.:.:.:.:.:.",
":.:.:.:.:.:.:.:.@ 8 8 0 s 0 5 # < O X ; , @ # :.:.:.:.:.:.:.:.:.:.:.:.:.:.:.",
":.:.:.:.:.:.:.:.O # 5 5 5 # # # 5 < X X X O :.:.:.:.:.:.:.:.:.:.:.:.:.:.:.:.",
":.:.:.:.:.:.:.:.@ 8 8 s G 8 5 :.O 5 5 5 8 # :.:.:.:.:.:.:.:.:.:.:.:.:.:.:.:.",
":.:.:.:.:.:.:.:.5 n 8 s s 8 @ :.O # 5 n o :.:.:.:.:.:.:.:.:.:.:.:.:.:.:.:.:.",
":.:.:.:.:.:.:.:.:.5 0 J s v @ :.5 X < < < :.:.:.:.:.:.:.:.:.:.:.:.:.:.:.:.:.",
":.:.:.:.:.:.:.:.:.5 0 s G 8 5 :.O X X < < :.:.:.:.:.:.:.:.:.:.:.:.:.:.:.:.:.",
":.:.:.:.:.:.:.:.:.:.. b b 1 :.:.O X X < 2 :.:.:.:.:.:.:.:.:.:.:.:.:.:.:.:.:.",
":.:.:.:.:.:.:.:.:.:.1 M M 7 :.:.5 1 < < < :.:.:.:.:.:.:.:.:.:.:.:.:.:.:.:.:.",
":.:.:.:.:.:.:.:.:.0 7 q b 2 8 :.5 v m v < :.:.:.:.:.:.:.:.:.:.:.:.:.:.:.:.:.",
":.:.:.:.:.:.:.:.:.0 n N N M 0 :.$ % % % $ :.:.:.:.:.:.:.:.:.:.:.:.:.:.:.:.:.",
":.:.:.:.:.:.:.:.:.0 b M N n 7 0 :.:.:.:.:.:.:.:.:.:.:.:.:.:.:.:.:.:.:.:.:.:.",
":.:.:.:.:.:.:.:.:.0 7 n n b 7 0 :.:.:.:.:.:.:.:.:.:.:.:.:.:.:.:.:.:.:.:.:.:.",
":.:.:.:.:.:.:.:.:.:.8 8 5 5 # :.:.:.:.:.:.:.:.:.:.:.:.:.:.:.:.:.:.:.:.:.:.:."
};
