/* XPM */
static char *result[] = {
/* columns rows colors chars-per-pixel */
"43 62 83 1 ",
"  c #0B0B0B",
". c #170F07",
"X c #171F07",
"o c #1F170B",
"O c #131313",
"+ c #1B1B1B",
"@ c #232B0F",
"# c #332B13",
"$ c #3F2F17",
"% c #2F371F",
"& c #232323",
"* c #272727",
"= c #373F27",
"- c gray23",
"; c #430000",
": c #470000",
"> c #4F0000",
", c #530707",
"< c #5B0000",
"1 c #5B0707",
"2 c #5F0707",
"3 c #670000",
"4 c #670B0B",
"5 c #6B0F0F",
"6 c #730000",
"7 c #7F0000",
"8 c #731313",
"9 c #771717",
"0 c #7F1B1B",
"q c #432F1B",
"w c #4B371B",
"e c #533F1F",
"r c #732B00",
"t c #533F2F",
"y c #5F4323",
"u c #474F33",
"i c #574333",
"p c #5F4B37",
"a c #53573B",
"s c #6B4727",
"d c #774F2B",
"f c #7F532F",
"g c #6F7357",
"h c #7B7F63",
"j c #8B0000",
"k c #9B0000",
"l c #831F1F",
"z c #A70000",
"x c #B30000",
"c c #BF0000",
"v c #8B2323",
"b c #8F2B2B",
"n c #972F2F",
"m c #9B3333",
"M c #A33B3B",
"N c #A73F3F",
"B c #CB0000",
"V c #D70000",
"C c #E30000",
"Z c #EF0000",
"A c red",
"S c #FF1F1F",
"D c #874307",
"F c #AF4300",
"G c #B74700",
"H c #875733",
"J c #8F5F37",
"K c #9B633B",
"L c #A36B3F",
"P c #C34F00",
"I c #CB5707",
"U c #D75F0B",
"Y c #AF4747",
"T c #B34F4F",
"R c #BB5757",
"E c #BF5B5B",
"W c #B37347",
"Q c #FF5F5F",
"! c #C76363",
"~ c #CB6B6B",
"^ c #FF7B7B",
"/ c #FF9B9B",
"( c #00FF00",
/* pixels */
"(((((((((((((((((((((((((Dj(((((((jV(((((((",
"(((((((((((((((((((((((((j>(((((((>j(((((((",
"(((((((((((((((((((3(((((x(((((rD((((((((((",
"(((((((((((((((((33(((((((((((>>rD(((((((((",
"(((((((((((((((j((333((j(((((((((((((((((((",
"((((((((((((((((((33agh((((((Q6zj((((((((((",
"(((((((((((Z((((3(Q/UC7(B(j(>C>Q^((6(((((((",
"((((((((((((((((((ABkxk;(;Icx>kS/((((((rr((",
"(((((((((((((((k(((z3;;;f;;;ck7>j((((((>>r(",
"((((((j((((((((((((3((;#e:;;7c37(((((((>>((",
"(((((((((((((((kzk(;;(((;((;;;;;;((;(((((((",
"(((((7(zz%(7(j(xBz3;3((;(;;(7;3k7<(;;(rr(((",
"(((((7xCc7z-((<>zj6;MYzBzM(;BkcAjD3(;(>>r((",
"(((((<jzcjc7(((<>6(>ml0vmm(;6zAj;LD((((>(((",
"((((((<6kx3jk(((>>((kBvm6k;j;BzSjkH((((((((",
"((((k(((<33x3(3;((>(7v6B6xkCj;k6Ac7((((((((",
"(((((((((((<3(;;;(((111167>3j3Ac66k7t((((((",
"(((((((%((7((63NTTn;;>>;>;3jj6zj6k7tpt(((((",
"(((((((KG73>6jll3;3;>;>;>7kx7zxjkckkipq((((",
"((((((KUkzxj>0NTEn;;;;>;;77kj77jck77q7q((((",
"(((((cPkzBj>jv5,;;;;>;;;;(7>>33jzxk#@>3;;((",
"((k((jPk66>j30NT~l;;(;;;;(:3jRYl6k+w3se;;((",
"(((((%H6dx33<9;;;;;>>>(((:(>3:>>B7jkxjse(((",
"(((((Hse%w3<j;3;;3<(((((((n::0!Yv7<&kjrs7((",
"(((7PKfe0%&jVj33;<>;>>(;((((1:(><<%=yuje>((",
"(((77kBf933(3;;;;((>(((((((n9::(;7Bmjsuw>7(",
"((7FNWKr6f33((3;;;;::(((((((::(jBx$vBJs%>>j",
"(99vxmK7;x733((33(((((((((ln9>jBzjvBvJe@>33",
"9v0mmKl;;<7(;;((((;((((((((1:>jBj55,5s$X>>(",
"8mjjjxj;;v(;;;;3(((((((((92:::>j5,,,v37>>((",
"44(vlvm(;73;;;;(;;((((T9(4;l:;;(>>>>>7>>>((",
"((4mll8((7((;;;(;((((T0:9;:n5;;((>>>>;(((>(",
"((44(m1((((<((((((((b0;:((>9;;;>>>>>(;;7(((",
"(((((41(((7ck6(;;(((l;;;(kn;;(:>>>>>>;;((((",
"(((((((((<7cck(;;(;(;:;:;63;;;OOO..>>;((;((",
"(((((;;((<jzck;(;;;;;::;;;;;(;OOOOO+>;;((((",
"(((((77;(<;(8;6<(;;;;(;;37;3<773;OO >;(((((",
"(((;(j7;(((*+(j<7;;(;;;<<7,(773<<;; >6(6>((",
"(((((((((;;;;<j<c7O;;;;7kzzzk78&O;; >((((((",
"(((((<(OO;ck0<j3;;;OO<7773;777++;;O (((((((",
"(((;(((;;Okz;6k6jOO;;<37<;(6<333;;+ ;(;;;((",
"(((((((;;O0jz6k66O7OO;>3366;;<Bk;3O((((;;((",
"((((((;;;;;<6jk667c7;Ok8,6;;;(+1;+O((((((((",
"((((((((.jj;;kkc6;7;;jxj+k;;(;,;;;O;;(;((((",
"(((((<(;;Oj,777jj,OOOO+816k;;;;O+&(;;((((((",
"(((((((;;;;;<zz6;5XXOO>>>;6k6;OO+((;;((((((",
"((((((((O7O3j6<;;XX7 ;+O>6B666>z7O(((((((((",
"(((((<((O77X3<;;;X7+O;7O@;%%6;@75O;((((((((",
"((((((((((;;X7X+;11XO;;OO@@%@6@O 1(;(((((((",
"((((((((<<((;X%7;X;;O;(O;;<;;;;>>((((((((((",
"((((((((<<(((X@%@XXXO;((;X<>XX+>(((((((((((",
"((((((((((((((O;;;;;+((>@%6@%1@((((((((((((",
"(((((((((((((((:o::::;(>X4@%@1X>(((((((((((",
"((((((((((((((((::::o(>>X@4@9@X((((((((((((",
"(((((((((((((((::;:+:;(>>X491,X((((((((((((",
"(((((((((((((((::::;;;(((;;,,o:((((((((((((",
"((((((((((((((:::::>;:((>;,,1o:((((((((((((",
"((((((((((((((::::>;;:((>;:,,:;((((((((((((",
"((((((((((((((;;;;;::(((::2522;((((((((((((",
"((((((((((((((((((((((((:,888,;((((((((((((",
"((((((((((((((((((((((((:;,,,,;((((((((((((",
"(((((((((((((((((((((((((*;;;;((((((((((((("
};
