/* XPM */
static char *result[] = {
/* columns rows colors chars-per-pixel */
"37 55 112 2 ",
"   c #170F07",
".  c #1F170B",
"X  c #1B1B1B",
"o  c #2B230F",
"O  c #332B13",
"+  c #3F2F17",
"@  c #232323",
"#  c #272727",
"$  c #2F2F2F",
"%  c #373F27",
"&  c #373737",
"*  c gray23",
"=  c #530707",
"-  c #5B0707",
";  c #5F0707",
":  c #670B0B",
">  c #6B0F0F",
",  c #731313",
"<  c #771717",
"1  c #7F1B1B",
"2  c #43331B",
"3  c #4B371B",
"4  c #533F1F",
"5  c #533F2F",
"6  c #27531B",
"7  c #3F472B",
"8  c #37732B",
"9  c #5F4323",
"0  c #474F33",
"q  c #574333",
"w  c #5F4B37",
"e  c #53573B",
"r  c #6B4727",
"t  c #774F2B",
"y  c #7F532F",
"u  c #67533F",
"i  c #775F3F",
"p  c #434343",
"a  c gray28",
"s  c gray31",
"d  c gray34",
"f  c #5B5B5B",
"g  c #6F5743",
"h  c #775F4B",
"j  c #5B6347",
"k  c #676B4F",
"l  c #7B634F",
"z  c #6F7357",
"x  c gray39",
"c  c gray42",
"v  c #6F6F6F",
"b  c #7B7F63",
"n  c #777777",
"m  c gray50",
"M  c #831F1F",
"N  c #8B2323",
"B  c #8F2B2B",
"V  c #972F2F",
"C  c #9B3333",
"Z  c #A33B3B",
"A  c #A73F3F",
"S  c #E30000",
"D  c #874307",
"F  c #AF7B1F",
"G  c #875733",
"H  c #8F5F37",
"J  c #9B633B",
"K  c #A36B3F",
"L  c #D75F0B",
"P  c #F37317",
"I  c #AF4747",
"U  c #B34F4F",
"Y  c #BB5757",
"T  c #BF5B5B",
"R  c #836B4B",
"E  c #836B57",
"W  c #8F7753",
"Q  c #8B735B",
"!  c #AB6F43",
"~  c #B37347",
"^  c #BF7B4B",
"/  c #9B7F6B",
"(  c #C76363",
")  c #D37373",
"_  c #FF7B7B",
"`  c #3F832F",
"'  c #439337",
"]  c #C39B2F",
"[  c #9F8363",
"{  c #9F876F",
"}  c #A78F77",
"|  c #AF977F",
" . c #CF8353",
".. c #D78B5B",
"X. c #DF9363",
"o. c #E79B6B",
"O. c #EFA373",
"+. c #F7AB7B",
"@. c #8B8B8B",
"#. c #939393",
"$. c #979797",
"%. c #9F9F9F",
"&. c #B79F87",
"*. c #BFA78F",
"=. c #DF8787",
"-. c #FF9B9B",
";. c #FFB383",
":. c #FFBB93",
">. c #FFBF9B",
",. c #FFC7A7",
"<. c #FFDBC7",
"1. c #00FF00",
/* pixels */
"1.1.1.1.1.1.1.1.1.1.1.j z b { { { b z j 1.1.1.1.1.1.1.1.1.1.1.1.1.1.1.1.1.",
"1.1.1.1.1.1.1.1.1.1.1.6 ~ ' ` 8 ` ' ~ 6 1.1.1.1.1.1.1.1.1.1.1.1.1.1.1.1.1.",
"1.1.1.1.1.1.1.1.1.1.1.6  .+.,.,.,.+. .6 1.1.1.1.1.1.1.1.1.1.1.1.1.1.1.1.1.",
"1.1.1.1.1.1.1.1.1.1.1.H O.:.+.:.+.:.O.H 1.1.1.1.1.1.1.1.1.1.1.1.1.1.1.1.1.",
"1.1.1.1.1.1.1.1.1.1.o.~ 6 ,.X.<.X.,.6 ~ o.1.1.1.1.1.1.1.1.1.1.1.1.1.1.1.1.",
"1.1.1.1.1.1.1.1.1.1.;.X._ S 6 +.6 S _ X.;.1.1.1.1.1.1.1.1.1.1.1.1.1.1.1.1.",
"1.1.1.1.1.1.1.1.1.1. .^ ;.-.O.>.O.-.;.^  .1.1.1.1.1.1.1.1.1.1.1.1.1.1.1.1.",
"1.1.1.1.1.1.1.1.1.1.1.t K O.] ^ ] O.K t 1.1.1.1.1.1.1.1.1.1.1.1.1.1.1.1.1.",
"1.1.1.1.1.1.1.1.1.1.s t ^ ] f ; f ] ^ t s 1.1.1.1.1.1.1.1.1.1.1.1.1.1.1.1.",
"1.1.1.1.1.1.1.1.1.f & # K L U C U F K @ p R } [ R 1.1.1.1.1.1.1.1.1.f s s ",
"1.1.1.1.W } } } } } u p $ D L P F D $ p $ [ *.*.| | R 1.1.1.1.1.f s * a @ ",
"1.1.1.[ [ *.*.*.*.} Q g 2 $ $ @ @ # $ 2 l [ / *.| } } g 1.1.f s s p @ $ 1.",
"1.1.W } } } *.&.Q *.=.| &.Y w O O 5 G Y W [ [ W { / Q Q m v s * @ $ 1.1.1.",
"1.1.R } } } / g / =.&.| ) T Y V 5 Y Y ) 2 @ v v Q m %.#.@.m x @ $ 1.1.1.1.",
"1.1.5 w g E E w h / / ) { Y Y V Z Z 2 @ w 2 p $ @.#.@.m v c a # 1.1.1.1.1.",
"1.1.r K ! H y t . R W U G G G V $ @ q U v n c $ $ m m v d p a T 1.1.1.1.1.",
"1.1.i X.X.O...i . O 5 w 5 5 $ @ M 5 5 $.$.c a p $ d s $ p ( Z Z ( 1.1.1.1.",
"1.~ K  ...o.K 2 . . O 2 O @ f I 5 $.$.c c a s * $ $ @ @ T Z Y Z B 1.1.1.1.",
"1.w ^  ...K y o O 5 O @ p R R #.$.m d & & a a * # # @ C V Z V M ; 1.1.1.1.",
"1.w J o.X.i + q $ @ @ 5 w @.$.c s & & p * s * # % % 2 : < M , , 3 1.1.1.1.",
"1.z { b } b q 1.. $ s m $.n s & & a p p s * # 2 k % o ; : : 2 3 r 1.1.1.1.",
"j z 0 ..O...k 1.s v #.d s & & p p p p s # # 2 . 1.e o 2 2 : : 9 1.1.1.1.1.",
"e # J ^ X.( n n x & p s & a p p p a p # @ X W R 2 1.1.9 : 9 1.1.1.1.1.1.1.",
"7 o w A n n x s * $ a a a a s p 2 3 3 X @ % w 5 2 1.1.1.1.1.1.1.1.1.1.1.1.",
"1.7 y n x s * $ $ $ s f v v c f 3 O 4 # @ % 2 5 2 1.1.1.1.1.1.1.1.1.1.1.1.",
"1.1.@ a * $ $ $ $ $ # # $ $ $ @ 4 4 4 O # 5 5 w W 1.1.1.1.1.1.1.1.1.1.1.1.",
"1.1.@ $ $ $ $ $ $ # p B Z M $ $ 0 # $ 5 2 5 2 5 1.1.1.1.1.1.1.1.1.1.1.1.1.",
"1.1.1.@ $ $ $ $ $ 3 3 N N N M $ % 0 p } R w 5 g g 5 1.1.1.1.1.1.1.1.1.1.1.",
"1.1.1.1.@ $ $ $ p > , , , , p % $ . g R 5 w 5 2 5 $ 1.1.1.1.1.1.1.1.1.1.1.",
"1.1.1.1.1.@ $ * w w V > > V . . . w w 5 5 2 2 2 2 2 O 1.1.1.1.1.1.1.1.1.1.",
"1.1.1.1.1.1.O 2 w R w g R R 5 . O 5 2 2 2 2 2 O 2 2 O 1.1.1.1.1.1.1.1.1.1.",
"1.1.1.1.1.1.O 2 5 5 g I U G . . . 5 5 2 2 2 O O O < O 1.1.1.1.1.1.1.1.1.1.",
"1.1.1.1.1.1.O 2 2 5 C G r O 2 . . 2 2 2 : O = O ; 2 O 1.1.1.1.1.1.1.1.1.1.",
"1.1.1.1.1.1.O O 2 2 C 5 2 O 5 O O O 2 O O = = = - - O 1.1.1.1.1.1.1.1.1.1.",
"1.1.1.1.1.1.1.O . B 5 V 1 5 2 O O 5 5 2 > ; - ; ;   1.1.1.1.1.1.1.1.1.1.1.",
"1.1.1.1.1.1.1.1.2 B N 1 O 2 O 2 O w 2 2 > > ; : = = 1.1.1.1.1.1.1.1.1.1.1.",
"1.1.1.1.1.1.1.O : 1 O 2 O o O O O 5 5 N N < : : : 2 1.1.1.1.1.1.1.1.1.1.1.",
"1.1.1.1.1.1.1.: , 1 2 O o o O 2 O 5 2 < > 2 : 1 : O 1.1.1.1.1.1.1.1.1.1.1.",
"1.1.1.1.1.1.1.1.; 2 2 2 o O 5 O 2 Q > 2 2 : : : O 1.1.1.1.1.1.1.1.1.1.1.1.",
"1.1.1.1.1.1.1.1.1.. 5 5 2 2 . O . 1.2 e k b k e $ 1.1.1.1.1.1.1.1.1.1.1.1.",
"1.1.1.1.1.1.1.1.1.O 0 7 7 7 O O . 1.2 0 0 0 0 7 $ 1.1.1.1.1.1.1.1.1.1.1.1.",
"1.1.1.1.1.1.1.1.1.e 0 7 7 2 O O . 1.@ 2 0 7 7 M @ 1.1.1.1.1.1.1.1.1.1.1.1.",
"1.1.1.1.1.1.1.1.1.1.M 7 + O O . . 1.$ 0 O O O O 7 1.1.1.1.1.1.1.1.1.1.1.1.",
"1.1.1.1.1.1.1.1.1.1.1.+ O . . O . 1.O 7 0 0 0 e # 1.1.1.1.1.1.1.1.1.1.1.1.",
"1.1.1.1.1.1.1.1.1.1.1.1.3 + O + O 1.O 7 % O O O # 1.1.1.1.1.1.1.1.1.1.1.1.",
"1.1.1.1.1.1.1.1.1.1.1.1.1.O O + + 1.O 0 % % O > # 1.1.1.1.1.1.1.1.1.1.1.1.",
"1.1.1.1.1.1.1.1.1.1.1.1.1.+ > O + . 1.$ 1 + + % , 1.1.1.1.1.1.1.1.1.1.1.1.",
"1.1.1.1.1.1.1.1.1.1.1.1.1.o + O O . 1.% + 1 > + 1.1.1.1.1.1.1.1.1.1.1.1.1.",
"1.1.1.1.1.1.1.1.1.1.1.1.+ < > O O . 1.1.% B B , 1.1.1.1.1.1.1.1.1.1.1.1.1.",
"1.1.1.1.1.1.1.1.1.1.1.1.+ < > O O 7 1.7 2 2 2 2 B 1.1.1.1.1.1.1.1.1.1.1.1.",
"1.1.1.1.1.1.1.1.1.1.1.1.. > O O . 1.1.2 4 A A B 4 1.1.1.1.1.1.1.1.1.1.1.1.",
"1.1.1.1.1.1.1.1.1.1.1.1.O + O O . 1.1.3 B A A B 4 1.1.1.1.1.1.1.1.1.1.1.1.",
"1.1.1.1.1.1.1.1.1.1.1.1.1.. . . 1.1.1.4 r B B B 4 1.1.1.1.1.1.1.1.1.1.1.1.",
"1.1.1.1.1.1.1.1.1.1.1.1.1.1.1.1.1.1.1.$ 4 3 + 4 $ 1.1.1.1.1.1.1.1.1.1.1.1.",
"1.1.1.1.1.1.1.1.1.1.1.1.1.1.1.1.1.1.1.1.@ $ $ $ 1.1.1.1.1.1.1.1.1.1.1.1.1."
};
