/* XPM */
static char *result[] = {
/* columns rows colors chars-per-pixel */
"41 55 101 2 ",
"   c #1F170B",
".  c #2B230F",
"X  c #332B13",
"o  c #3F2F17",
"O  c #232323",
"+  c #272727",
"@  c #2F2F2F",
"#  c #373F27",
"$  c #373737",
"%  c gray23",
"&  c #5F0707",
"*  c #6B0F0F",
"=  c #731313",
"-  c #771717",
";  c #7F1B1B",
":  c #43331B",
">  c #4B371B",
",  c #533F1F",
"<  c #4F3B23",
"1  c #533F2F",
"2  c #27531B",
"3  c #3F472B",
"4  c #37732B",
"5  c #5F4323",
"6  c #474F33",
"7  c #5F4B37",
"8  c #53573B",
"9  c #6B4727",
"0  c #774F2B",
"q  c #7F532F",
"w  c #434343",
"e  c gray28",
"r  c gray31",
"t  c gray34",
"y  c #5B5B5B",
"u  c #6F5743",
"i  c #5B6347",
"p  c #676B4F",
"a  c #6F7357",
"s  c gray39",
"d  c gray42",
"f  c #6F6F6F",
"g  c #7B7F63",
"h  c #777777",
"j  c gray50",
"k  c #8B2323",
"l  c #8F2B2B",
"z  c #972F2F",
"x  c #9B3333",
"c  c #A33B3B",
"v  c #A73F3F",
"b  c #E30000",
"n  c #874307",
"m  c #AF7B1F",
"M  c #8F5F37",
"N  c #9B633B",
"B  c #A36B3F",
"V  c #D75F0B",
"C  c #F37317",
"Z  c #AF4747",
"A  c #B34F4F",
"S  c #BB5757",
"D  c #BF5B5B",
"F  c #836B4B",
"G  c #8F7753",
"H  c #AB6F43",
"J  c #B37347",
"K  c #BF7B4B",
"L  c #C76363",
"P  c #CB6B6B",
"I  c #D37373",
"U  c #DB7B7B",
"Y  c #FF7B7B",
"T  c #3F832F",
"R  c #439337",
"E  c #C39B2F",
"W  c #9F8363",
"Q  c #9F876F",
"!  c #A78F77",
"~  c #AF977F",
"^  c #CF8353",
"/  c #D78B5B",
"(  c #DF9363",
")  c #E79B6B",
"_  c #EFA373",
"`  c #F7AB7B",
"'  c #838383",
"]  c #8B8B8B",
"[  c #939393",
"{  c #9F9F9F",
"}  c #B79F87",
"|  c #BFA78F",
" . c #DF8787",
".. c #FF9B9B",
"X. c #FFB383",
"o. c #FFBB93",
"O. c #FFBF9B",
"+. c #F3A3A3",
"@. c #FFC7A7",
"#. c #FFDBC7",
"$. c #00FF00",
/* pixels */
"$.$.$.$.$.$.$.$.$.$.$.i a g Q Q Q g a i $.$.$.$.$.$.$.$.$.$.$.$.$.$.$.$.$.$.$.$.$.",
"$.$.$.$.$.$.$.$.$.$.$.2 J R T 4 T R J 2 $.$.$.$.$.$.$.$.$.$.$.$.$.$.$.$.$.$.$.$.$.",
"$.$.$.$.$.$.$.$.$.$.$.2 ^ ` @.@.@.` ^ 2 $.$.$.$.$.$.$.$.$.$.$.$.$.$.$.$.$.$.$.$.$.",
"$.$.$.$.$.$.$.$.$.$.$.M _ o.` o.` o._ M $.$.$.$.$.$.$.$.$.$.$.$.$.$.$.$.$.$.$.$.$.",
"$.$.$.$.$.$.$.$.$.$.) J 2 @.( #.( @.2 J ) $.$.$.$.$.$.$.$.$.$.$.$.$.$.$.$.$.$.$.$.",
"$.$.$.$.$.$.$.$.$.$.X.( Y b 2 ` 2 b Y ( X.$.$.$.$.$.$.$.$.$.$.$.$.$.$.$.$.$.$.$.$.",
"$.$.$.$.$.$.$.$.$.$.^ K X..._ O._ ..X.K ^ $.$.$.$.$.$.$.$.$.$.$.$.$.$.$.$.$.$.$.$.",
"$.$.$.$.$.$.$.$.$.y y 0 B _ E K E _ B 0 $.$.$.$.$.$.$.$.$.$.$.$.$.$.$.$.$.$.$.$.$.",
"$.$.$.$.$.$.$.$.y r r 0 K E y & y E K 0 i W W $.$.$.$.$.$.$.$.$.$.$.$.$.$.$.$.$.$.",
"$.$.$.$.W ! ~ ! ~ u $ + B V A x A m B O F ! ! ! W G $.$.$.$.$.$.$.$.$.$.$.$.$.$.$.",
"$.$.G W } | | | } ! u w @ n V C m n @ 1 F W ! ! ! W F $.$.$.$.$.$.$.$.$.$.y s e s ",
"$.G F ! ! W } } ~ W W W D o .     o Z F W ! F ! W W F u $.$.$.$.$.$.$.f y % w O % ",
"$.u W ! ~ ~ W ~ F ~  .W I A v : < v I W W W G u G G u u $.$.$.j j h s r w O @ % $.",
"$.1 F G W W W u W U ! I W I A x Z A L I G W F : : u u 7 $.j ] { [ y $ O % w $.$.$.",
"$.X 1 7 u u u X 7 F W P I A A x Z v S G u 1 X $     y f ] { [ [ j r % w $.$.$.$.$.",
"$.q B ( ( ^ B X   u F S S c v l v z c : O $ : w @ @ h ] ] ] ' d y e $.$.$.$.$.$.$.",
"$.B  .O.@.` / 5     7 u 7 l < ; : X @ O X 1 f ' d d y e h d t e 9 0 $.$.$.$.$.$.$.",
"0 M  .O.o.` J 0   X X X * * * . @ % e t f ' f t t O o > 0 o 5 c S Z $.$.$.$.$.$.$.",
"0 M ( o.o.^ 0 5 : 1 1 : X O @ 7 7 e ' ' ' t t $ $ $ 0 5 o 5 S c c c $.$.$.$.$.$.$.",
"0 0 g ! ! a 6 > : : : O O $ F W ] ' t t @ @ $ $ $ r 5 0 > v v z l - $.$.$.$.$.$.$.",
"0 p Q ) o.` ( 0 w w s $ @ ' ] t t O @ @ $ $ e $ $ 6 5 l 5 ; k ; = $.$.$.$.$.$.$.$.",
"6 p K _ +.O._ K r s h @ s t t $ @ @ $ $ $ e $ X $.6 6 5 ; * * $.$.$.$.$.$.$.$.$.$.",
"# @ H ( O. .L h h h t r $ $ @ @ $ $ $ $ @ O @ # $.$.$.$.$.$.$.$.$.$.$.$.$.$.$.$.$.",
"# @ N A L h h h t % + + $ $ $ $ $ $ > O O O # # $.$.$.$.$.$.$.$.$.$.$.$.$.$.$.$.$.",
"$.# 9 > h h t % + + + + % w e e e 5 > O O + # # $.$.$.$.$.$.$.$.$.$.$.$.$.$.$.$.$.",
"$.$.$.+ + + + + + + + O @ ; ; @   o . O O # 6 $.$.$.$.$.$.$.$.$.$.$.$.$.$.$.$.$.$.",
"$.$.$.$.+ + + + + + > ; ; , k ; O # i . + # 6 @ $.$.$.$.$.$.$.$.$.$.$.$.$.$.$.$.$.",
"$.$.$.$.$.+ + + + o 9 9 z k - : : 1 1 1 1 : 1 : 1 $.$.$.$.$.$.$.$.$.$.$.$.$.$.$.$.",
"$.$.$.$.$.$.+ + : : o - - - o X 1 7 7 7 1 : : 1 w $.$.$.$.$.$.$.$.$.$.$.$.$.$.$.$.",
"$.$.$.$.$.$.  : : u u X X X X : : 1 7 1 1 1 : 1 X $.$.$.$.$.$.$.$.$.$.$.$.$.$.$.$.",
"$.$.$.$.$.$.@ 1 1 1 : 1 :     : : : 7 k 1 k : 1 X $.$.$.$.$.$.$.$.$.$.$.$.$.$.$.$.",
"$.$.$.$.$.$.: 1 : : k z :     : 1 z v v z : : 7 1 $.$.$.$.$.$.$.$.$.$.$.$.$.$.$.$.",
"$.$.$.$.$.$.1 : : 1 k ; X X X : X : v S A z : 7 1 $.$.$.$.$.$.$.$.$.$.$.$.$.$.$.$.",
"$.$.$.$.$.$.$.X : : - * : X : 7 k 1 v A v v 1 u $.$.$.$.$.$.$.$.$.$.$.$.$.$.$.$.$.",
"$.$.$.$.$.$.$.X X k : * : X 1 1 1 z v z z z 1 $.$.$.$.$.$.$.$.$.$.$.$.$.$.$.$.$.$.",
"$.$.$.$.$.$.$.X k k : : : X : 7 z v z z u z : $.$.$.$.$.$.$.$.$.$.$.$.$.$.$.$.$.$.",
"$.$.$.$.$.$.$.$.X ; : : X X X z F u 1 u F 7 : $.$.$.$.$.$.$.$.$.$.$.$.$.$.$.$.$.$.",
"$.$.$.$.$.$.$.$.X X : : X X : 1 1 p a p u : 1 $.$.$.$.$.$.$.$.$.$.$.$.$.$.$.$.$.$.",
"$.$.$.$.$.$.$.$.X X X X X X X i p g g g p i 8 $.$.$.$.$.$.$.$.$.$.$.$.$.$.$.$.$.$.",
"$.$.$.$.$.$.$.$.$.X X X X X X 8 i p p p Z z 8 $.$.$.$.$.$.$.$.$.$.$.$.$.$.$.$.$.$.",
"$.$.$.$.$.$.$.$.$.X X X X X X 1 6 8 8 8 6 X $.$.$.$.$.$.$.$.$.$.$.$.$.$.$.$.$.$.$.",
"$.$.$.$.$.$.$.$.$.$.X X X : X 8 : : : X : 6 p $.$.$.$.$.$.$.$.$.$.$.$.$.$.$.$.$.$.",
"$.$.$.$.$.$.$.$.$.$.$.$.1 X : 6 p a g g a p # $.$.$.$.$.$.$.$.$.$.$.$.$.$.$.$.$.$.",
"$.$.$.$.$.$.$.$.$.$.$.$.$.: : i 6 6 6 6 6 3 6 $.$.$.$.$.$.$.$.$.$.$.$.$.$.$.$.$.$.",
"$.$.$.$.$.$.$.$.$.$.$.$.$.X : 6 i 6 6 8 i p 6 $.$.$.$.$.$.$.$.$.$.$.$.$.$.$.$.$.$.",
"$.$.$.$.$.$.$.$.$.$.$.$.$.X X # 5 9 i i 5 i 8 $.$.$.$.$.$.$.$.$.$.$.$.$.$.$.$.$.$.",
"$.$.$.$.$.$.$.$.$.$.$.$.$.X X X 6 l p A i 5 $.$.$.$.$.$.$.$.$.$.$.$.$.$.$.$.$.$.$.",
"$.$.$.$.$.$.$.$.$.$.$.$.: : X X - c c p 9 - $.$.$.$.$.$.$.$.$.$.$.$.$.$.$.$.$.$.$.",
"$.$.$.$.$.$.$.$.$.$.$.$.: : X X o l A A l > $.$.$.$.$.$.$.$.$.$.$.$.$.$.$.$.$.$.$.",
"$.$.$.$.$.$.$.$.$.$.$.$.: : X o o > , > o o $.$.$.$.$.$.$.$.$.$.$.$.$.$.$.$.$.$.$.",
"$.$.$.$.$.$.$.$.$.$.$.$.$.: X o 9 c c c x > $.$.$.$.$.$.$.$.$.$.$.$.$.$.$.$.$.$.$.",
"$.$.$.$.$.$.$.$.$.$.$.$.$.$.$.> x v Z v l > $.$.$.$.$.$.$.$.$.$.$.$.$.$.$.$.$.$.$.",
"$.$.$.$.$.$.$.$.$.$.$.$.$.$.$.9 l x v x l 5 $.$.$.$.$.$.$.$.$.$.$.$.$.$.$.$.$.$.$.",
"$.$.$.$.$.$.$.$.$.$.$.$.$.$.$.% > l l l > % $.$.$.$.$.$.$.$.$.$.$.$.$.$.$.$.$.$.$.",
"$.$.$.$.$.$.$.$.$.$.$.$.$.$.$.$.@ @ . . @ @ $.$.$.$.$.$.$.$.$.$.$.$.$.$.$.$.$.$.$."
};
