/* XPM */
static char *result[] = {
/* columns rows colors chars-per-pixel */
"38 56 105 2 ",
"   c #070707",
".  c #0B0B0B",
"X  c #171F07",
"o  c #131313",
"O  c #1B1B1B",
"+  c #13230B",
"@  c #17330F",
"#  c #2B230F",
"$  c #232B0F",
"%  c #3F2F17",
"&  c #232323",
"*  c #272727",
"=  c #2F2F2F",
"-  c #373F27",
";  c #373737",
":  c #430000",
">  c #470000",
",  c #4F0000",
"<  c #530707",
"1  c #5B0000",
"2  c #5B0707",
"3  c #5F0707",
"4  c #670000",
"5  c #670B0B",
"6  c #6B0F0F",
"7  c #730000",
"8  c #7F0000",
"9  c #731313",
"0  c #771717",
"q  c #7F1B1B",
"w  c #43331B",
"e  c #4B371B",
"r  c #533F1F",
"t  c #1F4317",
"y  c #27531B",
"u  c #3F472B",
"i  c #2F6323",
"p  c #37732B",
"a  c #5F4323",
"s  c #474F33",
"d  c #574333",
"f  c #5F4B37",
"g  c #53573B",
"h  c #6B4727",
"j  c #774F2B",
"k  c #7F532F",
"l  c #67533F",
"z  c #434343",
"x  c gray28",
"c  c #4B4B4B",
"v  c gray31",
"b  c gray34",
"n  c #5B5B5B",
"m  c #6F5743",
"M  c #775F4B",
"N  c #5B6347",
"B  c #6F7357",
"V  c gray39",
"C  c #6F6F6F",
"Z  c #8B0000",
"A  c #9B0000",
"S  c #831F1F",
"D  c #A70000",
"F  c #B30000",
"G  c #BF0000",
"H  c #8B2323",
"J  c #8F2B2B",
"K  c #9B3333",
"L  c #A33B3B",
"P  c #A73F3F",
"I  c #CB0000",
"U  c #D70000",
"Y  c #E30000",
"T  c #EF0000",
"R  c red",
"E  c #874307",
"W  c #9B5B13",
"Q  c #875733",
"!  c #8F5F37",
"~  c #9B633B",
"^  c #A36B3F",
"/  c #DF670F",
"(  c #FF7F1B",
")  c #AF4747",
"_  c #B34F4F",
"`  c #BB5757",
"'  c #BF5B5B",
"]  c #836B57",
"[  c #B37347",
"{  c #BF7B4B",
"}  c #937B63",
"|  c #9B7F6B",
" . c #C76363",
".. c #CB6B6B",
"X. c #3F832F",
"o. c #439337",
"O. c #9F876F",
"+. c #A78F77",
"@. c #AF977F",
"#. c #838383",
"$. c #939393",
"%. c #B79F87",
"&. c #BFA78F",
"*. c gray67",
"=. c #00FF00",
/* pixels */
"=.=.=.=.=.=.=.=.=.=.=.=.=.=.=.=.=.I M l =.=.=.=.=.=.=.=.=.=.=.=.=.=.=.=.=.=.",
"=.=.=.=.=.=.=.=.=.=.=.=.=.=.Z =.$.=.l D =.h =.=.=.=.=.=.=.=.=.=.=.=.=.=.=.=.",
"=.=.=.=.=.=.=.=.=.=.=.=.=.=.=.=.=.=.I =.#.a a @.+.| =.=.=.=.=.=.=.=.=.=.=.=.",
"=.=.=.=.=.=.=.=.=.=.=.=.T =.=.=.l C =.T I D Z Z z = M =.=.=.=.=.=.=.=.=.=.=.",
"=.=.=.=.=.=.=.=.=.=.=.=.=.=.=.F G =.=.I T I Z Z *.v z ] =.=.=.=.=.=.=.=.=.=.",
"=.=.=.=.=.=.=.=.=.=.=.=.=.=.8 8 8 D =.A I ^ / ( *.V z O.} =.=.=.=.=.=.=.=.=.",
"=.=.=.=.=.=.=.=.=.=.=.=.=.=.1 4 4 8 =.7 A ] | @.@.] V %.] =.=.=.=.=.=.=.=.=.",
"=.=.=.=.=.=.=.=.=.=.=.=.=.Z =.1 4 =.=.R 7 f M } O.m @.+.] &.=.=.=.=.=.=.=.=.",
"=.=.=.=.=.=.=.=.=.Z =.=.=.=.1 Z =.=.4 A 7 , 7 w m m } d ] +.] =.=.=.=.=.=.=.",
"=.=.=.=.=.=.=.=.=.=.=.=.8 =.=.1 A 1 , 7 S J K S * w d d m ] =.=.=.=.=.=.=.=.",
"=.=.=.=.=.=.=.=.=.=.8 8 D D i A D A L ) D I D L K = = w f =.=.=.=.=.=.=.=.=.",
"=.=.=.=.=.=.=.=.8 =.8 F Y G 8 F I D K S q H K K i Z Z p X.X.p y =.=.=.=.=.=.",
"=.=.=.=.=.=.=.=.=.8 D I I I Z , D Z A I H K 7 A A F i D F o.A p i y =.=.=.=.",
"=.=.=.=.=.=.G =.=.y F A Z A F 7 , 7 8 H 7 I 7 F G A Z 8 8 p D 4 p i =.=.=.=.",
"=.=.=.=.=.=.=.=.=.~ k 8 4 , 7 Z , , P P 7 2 7 8 D F p y @ @ , , , @ t =.=.=.",
"=.=.=.=.=.=.=.=.~ { A D F Z , , , : ` 3 A  .` P 7 A O e h E Z Z h ! @ =.=., ",
"=.=.=.=.=.=.Z G ~ A D I Z , Z _ ..) : =.8 : : : I 8 Z A F I h I Z h h =.=.=.",
"=.=.=.=.=.=.=.Z ~ A 7 7 , Z 4 , : : 7 =.=.8 ....' ) 1 & A F E h Z ! ! , =.=.",
"=.=.=.=.=.G =.s N 7 j h 4 q _  ...q =.Y =.=.8 Y 1 1 & & a 8 8 - N Z k , , =.",
"=.=.=.=.=.=.k Q h r g e 4 1 Z : : D : A Y 8 ....' L 7 K [ W G Z g N h , =.=.",
"=.=.=.=.=.~ [ [ ~ k r s - Z U _  .< =.=.Z q 3 3 3 3 % H W [ E 8 - - ; ; = O ",
"=.=.=.=.=.[ W P [ ~ k - 7 7 A A G D , , 9 5 q , q 9 H H H H ! h x ; & = o O ",
"=.=.=.=.0 0 H P K ~ k =.1 8 Z 8 A < < , H 9 6 6 6 6 6 < = ; c ; = = o o o =.",
"=.=.=.0 H q K K ~ S 1 4 =.4 , < A U A G < H , 6 6 < = ; V n ; O o o o , =.=.",
"=.=.9 K H S H K H =.=.8 G A 7 7 U 7 7 & & o o = ; b V n c ; = o o   , =.=.=.",
"=.=.5 5 K S S 9 =.=.1 8 G G A 7 7 & o o o o o c b b c ; = = o , , , , =.=.=.",
"=.=.=.5 5 K 2 =.=.1 1 Z D G & & o o = x b x x ; = ; = = = , , , , , =.=.=.=.",
"=.=.=.=.2 5 2 =.=.O 1 Z & o o O x x b x = = & & & = = o O , , , , , , =.=.=.",
"=.=.=.=.=.=.=.=.=.=.& o o Z x b b b = = & & & & & o.y @ + + , , =., , =.=.=.",
"=.=.=.=.=.=.=.=.& o o x b b b = = O O & & & & & : i t @ @ @ t , =.=.=.=.=.=.",
"=.=.=.=.=.=.=.; o O b b = = & O O & & & & & p : 4 8 4 : @ @ + , , =.=.=.=.=.",
"=.=.=.=.=.=.; c O ; = = & O O & & = = & + p : 1 1 4 1 1 : : + , , =.=.=.=.=.",
"=.=.=.=.; c c = = & & O O & & & = O o . t : : X.S 9 y @ : : + =.=.=., =.=.=.",
"=.=.; c c = & O O & & & & & & : o o o . + o.p y y y t : : @ + =.=.=.=.=.=.=.",
"= ; c = & O O O O & = = = = : @ o o O : : 1 4 8 8 4 4 : : t + =.=.=.=.=.=.=.",
"O = & O O O O O o O o o o o 2 t o o @ : : : , 4 4 : 1 : 4 @ =.=.=.=.=.=.=.=.",
"=.O O O O O O =.: : o o o o o : : @ : : =.y p 9 < t 2 : t @ =.=.=.=.=.=.=.=.",
"=.O O O O O =.=.=.=.@ o o o : : : : : =.=.t t y y < : : : @ =.=.=.=.=.=.=.=.",
"=.=.O O =.=.=.=.=.: : y t < 6 < t @ t =.=.@ t 9 2 < t t y @ =.=.=.=.=.=.=.=.",
"=.=.=.=.=.=.=.=.=.: : : : : : 6 t @ @ =.=.@ - - u s s s - t =.=.=.=.=.=.=.=.",
"=.=.=.=.=.=.=.=.=.=.- B N s - t + + + =.=.=.- s s s s - # =.=.=.=.=.=.=.=.=.",
"=.=.=.=.=.=.=.=.=.=.* s s s s - - - * =.=.=.@ - s s s 6 # =.=.=.=.=.=.=.=.=.",
"=.=.=.=.=.=.=.=.=.=.- u - - $ 2 2 $ # =.=.=.+ @ @ @ @ + 2 =.=.=.=.=.=.=.=.=.",
"=.=.=.=.=.=.=.=.=.=.=.- - - - $ # $ # =.=.=.+ - - - - - + =.=.=.=.=.=.=.=.=.",
"=.=.=.=.=.=.=.=.=.=.=.=.- $ $ $ $ $ # =.=.=.- - s u - - - =.=.=.=.=.=.=.=.=.",
"=.=.=.=.=.=.=.=.=.=.=.=.=.$ > $ $ $ - =.=.=.- - s s - 6 - =.=.=.=.=.=.=.=.=.",
"=.=.=.=.=.=.=.=.=.=.=.=.=.# $ > > > > =.=.=.$ 5 - s - 5 - =.=.=.=.=.=.=.=.=.",
"=.=.=.=.=.=.=.=.=.=.=.=.=.=.3 3 > > X =.=.=.$ $ 5 - 0 - $ =.=.=.=.=.=.=.=.=.",
"=.=.=.=.=.=.=.=.=.=.=.=.=.9 : : 3 $ > =.=.=.=.$ 5 0 9 < $ =.=.=.=.=.=.=.=.=.",
"=.=.=.=.=.=.=.=.=.=.=.=.3 3 3 , : : : =.=.=.=.< < < < + =.=.=.=.=.=.=.=.=.=.",
"=.=.=.=.=.=.=.=.=.=.=.3 6 3 3 3 , , : =.=.=.=.9 < < 9 + =.=.=.=.=.=.=.=.=.=.",
"=.=.=.=.=.=.=.=.=.=.3 9 9 6 3 , , : : =.=.=.=.< q q q < : =.=.=.=.=.=.=.=.=.",
"=.=.=.=.=.=.=.=.=.=.: : : : : : : =.=.=.=.=.=.< q H 0 9 : =.=.=.=.=.=.=.=.=.",
"=.=.=.=.=.=.=.=.=.=.=.=.=.=.=.=.=.=.=.=.=.=.=.< 9 9 9 < : =.=.=.=.=.=.=.=.=.",
"=.=.=.=.=.=.=.=.=.=.=.=.=.=.=.=.=.=.=.=.=.=.=.: < < < < : =.=.=.=.=.=.=.=.=.",
"=.=.=.=.=.=.=.=.=.=.=.=.=.=.=.=.=.=.=.=.=.=.=.* : : : : =.=.=.=.=.=.=.=.=.=."
};
