/* XPM */
static char *result[] = {
/* columns rows colors chars-per-pixel */
"41 56 80 1 ",
"  c black",
". c #171F07",
"X c #1F170B",
"o c #131313",
"O c #13230B",
"+ c #17330F",
"@ c #2B230F",
"# c #232B0F",
"$ c #3F2F17",
"% c #2F371F",
"& c #232323",
"* c #272727",
"= c #2F2F2F",
"- c #373F27",
"; c #373737",
": c gray23",
"> c #4B371B",
", c #533F1F",
"< c #1F4317",
"1 c #27531B",
"2 c #3F472B",
"3 c #2F6323",
"4 c #37732B",
"5 c #5F4323",
"6 c #474F33",
"7 c #53573B",
"8 c #6B4727",
"9 c #774F2B",
"0 c #7F532F",
"q c #434343",
"w c gray28",
"e c gray31",
"r c gray34",
"t c #5B5B5B",
"y c #5B6347",
"u c #676B4F",
"i c #6F7357",
"p c gray39",
"a c gray42",
"s c #6F6F6F",
"d c #7B7F63",
"f c #777777",
"g c #875733",
"h c #8F5F37",
"j c #9B633B",
"k c #A36B3F",
"l c #836B57",
"z c #AB6F43",
"x c #B37347",
"c c #BF7B4B",
"v c #937B63",
"b c #9B7F6B",
"n c #3F832F",
"m c #439337",
"M c #4B9F3F",
"N c #53AF47",
"B c #5BBF4F",
"V c #5FCF57",
"C c #67DF5F",
"Z c #6FEF67",
"A c #9F8363",
"S c #9F876F",
"D c #A78F77",
"F c #AF977F",
"G c #CF8353",
"H c #D78B5B",
"J c #DF9363",
"K c #E79B6B",
"L c #EFA373",
"P c #F7AB7B",
"I c #8B8B8B",
"U c #9F9F9F",
"Y c #B79F87",
"T c #BFA78F",
"R c #DF8787",
"E c #FFBB93",
"W c #FFBF9B",
"Q c #FFC7A7",
"! c #FFDBC7",
"Z c #00FF00",
/* pixels */
"ZZZZZZZZZZZZZYFFDZZZZZZZZZZZZZZZZZZZZZZZZ",
"ZZZZZZZZZZZSSi77yySZZZZZZZZZZZZZZZZZZZZZZ",
"ZZZZZZZZZZvSFYFSvvdSZZZZZZZZZZZZZZZZZZZZZ",
"ZZZZZZZZZbudqqqqqwuuSZZZZZZZZZZZZZZZZZZZZ",
"ZZZZZZZZbuvqepfIfrqduZZZZZZZZZZZZZZZZZZZZ",
"ZZZZZZZbuudqrsIUIaqduvZZZZZZZZZZZZZZZZZZZ",
"ZZZZZZZduuDirpsssreFSdZZZZZZZZZZZZZZZZZZZ",
"ZZZZZZZZvyTvipFFAriTFZZZZZZZZZZZZZZZZZZZZ",
"ZZZZZZZZZ&d6iDDSSli6dZZZZZZZZZZZZZZZZZZZZ",
"ZZZZZZZZt*q6yyiiiy72yMMZZZZZZZZZZZZZZZZZZ",
"ZZZZnMNBN4;**-266-*&nVVBMmZZZZZZZZZZZZZZZ",
"ZZ3mVCCZCB4q=*@&@*=1nMVVBNnZZZZZZZZZZ:q:*",
"Z3nBBNZCVNMN4q=&&q4nMBnBNMn4ZZZZZZZ:q:=& ",
"Z4MBVVNVnZBNBNn<1nMMMNm4mmn4ZZZss:qq=&  Z",
"Z1nmMMN4NBBBNMMnmMMMmMn<<443Zrttst;&  ZZZ",
"Z+13444+3nMMMMMnmnMm41+ooo;ttttewe  ZZZZZ",
"Z0kJJGk+O4nnnnn4n34<oooo&=wsseq;==ZZZZZZZ",
"ZkRWQPH5OO34311<<+oo+1rewwwws;=*89ZZZZZZZ",
"9hRWEPx9O++++++oo&wrrewq:&$>q$5cckZZZZZZZ",
"9hJEEG95<11<+oo&3wreqq:***95$5czggZZZZZZZ",
"99dDDi6><<<oo;nwreq:&&***e59>hh95,ZZZZZZZ",
"9uSKEPJ9qqro&reqq;&&**:**65555,,>ZZZZZZZZ",
"6ucL!!Ecerr=eqq;&&***:;+Z665,>>ZZZZZZZZZZ",
"-=zJW!Jeeeq=**&&****=o=-ZZZZZZZZZZZZZZZZZ",
"#=jjxeee;*oo******>ooo--ZZZZZZZZZZZZZZZZZ",
"Z#8>ee:*oooo=====5>ooo--ZZZZZZZZZZZZZZZZZ",
"ZZZooooooooo&>>&X$@oo-6ZZZZZZZZZZZZZZZZZZ",
"ZZZZoooooo>55955&-y@*-6=ZZZZZZZZZZZZZZZZZ",
"ZZZZZoooo$,995,<<1111<1<1ZZZZZZZZZZZZZZZZ",
"ZZZZZZoo<<$5,><+13331<<1qZZZZZZZZZZZZZZZZ",
"ZZZZZZO<<44++++<<13111<1+ZZZZZZZZZZZZZZZZ",
"ZZZZZZ=111<1<OO<<<3111<1+ZZZZZZZZZZZZZZZZ",
"ZZZZZZ<1<<34<OO<11443<<31ZZZZZZZZZZZZZZZZ",
"ZZZZZZ+<<131+++<+<4nn3<3<ZZZZZZZZZZZZZZZZ",
"ZZZZZZZ+<<<+<+<3114n441<ZZZZZZZZZZZZZZZZZ",
"ZZZZZZZ++1<+<+111343331ZZZZZZZZZZZZZZZZZZ",
"ZZZZZZZ+11<<<+<3343343<ZZZZZZZZZZZZZZZZZZ",
"ZZZZZZZZ+1<<+++3n414n3<ZZZZZZZZZZZZZZZZZZ",
"ZZZZZZZZ++<<++<11uiu4<1ZZZZZZZZZZZZZZZZZZ",
"ZZZZZZZZ%++++++yuddduy7ZZZZZZZZZZZZZZZZZZ",
"ZZZZZZZZZ%++++%7yuuuuy7ZZZZZZZZZZZZZZZZZZ",
"ZZZZZZZZZ%%%%%%167776+ZZZZZZZZZZZZZZZZZZZ",
"ZZZZZZZZZZ%%%%%u<<<+<6uZZZZZZZZZZZZZZZZZZ",
"ZZZZZZZZZZZZ#.#6uiddiu-ZZZZZZZZZZZZZZZZZZ",
"ZZZZZZZZZZZZZ..y6666626ZZZZZZZZZZZZZZZZZZ",
"ZZZZZZZZZZZZZ#.6y667yu6ZZZZZZZZZZZZZZZZZZ",
"ZZZZZZZZZZZZZ#.-yyyyyy7ZZZZZZZZZZZZZZZZZZ",
"ZZZZZZZZZZZZZ###6yuyyyZZZZZZZZZZZZZZZZZZZ",
"ZZZZZZZZZZZZ%###6yuuy7ZZZZZZZZZZZZZZZZZZZ",
"ZZZZZZZZZZZZ%###-iddi7ZZZZZZZZZZZZZZZZZZZ",
"ZZZZZZZZZZZZ%###6yuu62ZZZZZZZZZZZZZZZZZZZ",
"ZZZZZZZZZZZZZ##2uSSSvyZZZZZZZZZZZZZZZZZZZ",
"ZZZZZZZZZZZZZZZuvSDvdyZZZZZZZZZZZZZZZZZZZ",
"ZZZZZZZZZZZZZZZuuvvvuyZZZZZZZZZZZZZZZZZZZ",
"ZZZZZZZZZZZZZZZ:6yuy6:ZZZZZZZZZZZZZZZZZZZ",
"ZZZZZZZZZZZZZZZZ==@@==ZZZZZZZZZZZZZZZZZZZ"
};
