/* XPM */
static char *result[] = {
/* columns rows colors chars-per-pixel */
"26 56 97 2 ",
"   c #0B1707",
".  c #171F07",
"X  c #1F170B",
"o  c #131313",
"O  c #1B1B1B",
"+  c #13230B",
"@  c #17330F",
"#  c #2B230F",
"$  c #232B0F",
"%  c #332B13",
"&  c #3F2F17",
"*  c #2F371F",
"=  c #232323",
"-  c #272727",
";  c #2F2F2F",
":  c #373F27",
">  c #373737",
",  c gray23",
"<  c #43331B",
"1  c #4B371B",
"2  c #533F1F",
"3  c #732B00",
"4  c #4F3B23",
"5  c #1F4317",
"6  c #27531B",
"7  c #3F472B",
"8  c #2F6323",
"9  c #37732B",
"0  c #5F4323",
"q  c #474F33",
"w  c #574333",
"e  c #5F4B37",
"r  c #53573B",
"t  c #6B4727",
"y  c #774F2B",
"u  c #7F532F",
"i  c #434343",
"p  c gray28",
"a  c gray31",
"s  c gray34",
"d  c #5B5B5B",
"f  c #6F5743",
"g  c #775F4B",
"h  c #5B6347",
"j  c #676B4F",
"k  c #7B634F",
"l  c #6F7357",
"z  c gray39",
"x  c gray42",
"c  c #6F6F6F",
"v  c #7B7F63",
"b  c #777777",
"n  c gray50",
"m  c #874307",
"M  c #9B5B13",
"N  c #AF4300",
"B  c #B74700",
"V  c #AF7B1F",
"C  c #875733",
"Z  c #8F5F37",
"A  c #9B633B",
"S  c #C34F00",
"D  c #CB5707",
"F  c #D75F0B",
"G  c #DF670F",
"H  c #F37317",
"J  c #FF7F1B",
"K  c #836B57",
"L  c #8B735B",
"P  c #B37347",
"I  c #BF7B4B",
"U  c #937B63",
"Y  c #CB7F4F",
"T  c #3F832F",
"R  c #439337",
"E  c #4B9F3F",
"W  c #53AF47",
"Q  c #5BBF4F",
"!  c #5FCF57",
"~  c #67DF5F",
"^  c #C39B2F",
"/  c #FF8F3B",
"(  c yellow",
")  c #9F8363",
"_  c #9F876F",
"`  c #A78F77",
"'  c #AF977F",
"]  c #CF8353",
"[  c #D78B5B",
"{  c #D7BB43",
"}  c #FFA35B",
"|  c #DF9363",
" . c #EBDB57",
".. c #B79F87",
"X. c #BFA78F",
"o. c #FFFFB3",
"O. c #00FF00",
/* pixels */
"O.O.O.O.O.O.O.O.O.O.` ` ` X.O.O.O.O.O.O.O.O.O.O.O.O.",
"O.O.O.O.O.O.O.O.O._ U K K _ X.O.O.O.O.O.O.O.O.O.O.O.",
"O.O.O.O.O.O.O.O.U J / / / } X.X.' O.O.O.O.O.O.O.O.O.",
"O.O.O.O.O.O.O.O.f N N N N > i U ..O.O.O.O.O.O.O.O.O.",
"O.O.O.O.O.O.O.f ; M ^ ^ n c a p ' ` O.O.O.O.O.O.O.O.",
"O.O.O.O.O.O.k f , V { n b z z ; ' v ` O.O.O.O.O.O.O.",
"O.O.O.O.O.O.f K i a a s x d a _ X.v v U O.O.O.O.O.O.",
"O.O.O.O.O.k e _ p L L L z a _ X.U f e O.O.O.O.O.O.O.",
"O.O.O.O.O.O.U ' ) _ _ _ _ L K U - w O.O.O.O.O.O.O.O.",
"O.O.O.O.O.O.U G B H H H K g G < ; f O.O.O.O.O.O.O.O.",
"O.O.O.O.O.O.O.4 < B B B & & ; a b Q Q W E E O.O.O.O.",
"O.O.O.O.O.O.9 i ; ; ; - - = = Q ! ~ ~ Q W W E T O.O.",
"O.O.O.O.O.T ^ 5 m m M M m i T ! ! ! Q ! ! ! Q E 8 O.",
"O.O.O.O.9 ^ 9 5 3 3 3 5 9 W Q ^ ^ W ! ~ ~ ~ Q E 9 O.",
"O.O.O.9 V V 9 8 6 m m V V { { { ^ ^ Q ! ~ ~ Q W T 6 ",
"O.O.O.9 V M 8 M V M M ^ ^ ^ { { { { ^ ^ R R R 9 6 5 ",
"O.O.O.0 X 8 M V V M V ^ ^ ^ E 6 t H / / | [ P A 0 O.",
"O.O.O.X % 6 M V V M V { { ^ 9 + D / / / I Y A t 0 O.",
"O.O.u X < @ 5 @ @ M V V V M @ 8 D H / / [ I u < @ O.",
"O.O.S J J S T @ M V V V 9 9 T 9 A H J J ] A 2 0 @ O.",
"O.U { ( ( { E 5 ^ {  .{ ^ T 6 G G H / } ' _ 0 @ @ O.",
"O.J ( o.o.( J 5 @ 5 5 6 6 R W J J A F / v l q @ O.O.",
"h J ( o.o.( J = = - = ; ; H / / J P A - q 7 = O.O.O.",
"y / { ( ( { N p - < 1 S J / / J u y t - - : = O.O.O.",
"y / N J J N - P t S J J J H G 0 < # # = ; = - r O.O.",
"0 A < O O O o Y J J P u 1 0 & # # # # # # # # : : O.",
"Z 0 1 = o o O C t t t 0 # 1 < X ; # # # # # = # O.O.",
"O.# < < = o O ; ; ; ; ; q q q : ; = + + + + + @ O.O.",
"O.t 0 < - @ @ @ @ @ # : : : : $ = = @ + + + @ @ @ O.",
"O.O.O.O.O.@ @ @ @ @ # . $ $ $ . - @ @ + + + @ 6 5 O.",
"O.O.O.O.O.+ @ @ @ @ + # . . . # @ @ + + + @ @ 5 8 8 ",
"O.O.O.O.O.O.+ 5 @ @ @ + # . . 5 @ + @ @ @ @ 5 5 9 5 ",
"O.O.O.O.O.O.@ 5 5 6 5 @ + # # 5 @ @ 5 5 5 5 8 6 9 5 ",
"O.O.O.O.O.O.5 6 5 8 6 @ @ + + @ @ @ 6 T T 9 8 6 T 5 ",
"O.O.O.O.O.O.+ 5 6 @ 6 5 + @ + + 5 @ 6 T T T 9 8 6 @ ",
"O.O.O.O.O.O.+ 6 6 6 5 @ @ @ + @ 5 5 6 8 8 8 8 8 8 6 ",
"O.O.O.O.O.O.+ 6 6 6 5 @ @ @ + @ 5 6 8 8 8 6 9 9 8 6 ",
"O.O.O.O.O.O.O.6 5 5 @ @ 5 + + 5 8 8 8 6 6 9 9 9 9 5 ",
"O.O.O.O.O.O.O.6 5 5 5 5 + @ + @ 9 T 6 8 8 9 E E 8 6 ",
"O.O.O.O.O.O.O.6 6 5 5 @ @ @ + + + 6 ^ ^ J G r r 5 8 ",
"O.O.O.O.O.O.O.6 8 5 5 5 @ @ + +   V V G v j h h @ O.",
"O.O.O.O.O.O.O.6 6 5 5 5 @ + $ . + M G D v j h h : O.",
"O.O.O.O.O.O.O.: j j q : * $ $ . + : q j j q : : - O.",
"O.O.O.O.O.O.O.h q q : : * $ $ $ $ M V ^ V M r r q : ",
"O.O.O.O.O.O.O.O.: 7 : * $ $ $ $ $ $ : @ @ : r r l : ",
"O.O.O.O.O.O.O.O.O.O.* * $ $ $ . $ O.7 q r h h h j : ",
"O.O.O.O.O.O.O.O.O.O.O.* : $ $ . $ O.O.7 q h j j h : ",
"O.O.O.O.O.O.O.O.O.O.O.$ * $ $ . $ $ O.7 q j h h r q ",
"O.O.O.O.O.O.O.O.O.O.O.: $ $ $ $ . : O.O.7 h r r : O.",
"O.O.O.O.O.O.O.O.O.O.q # : $ $ $ . : O.O.: l r r # O.",
"O.O.O.O.O.O.O.O.O.h q : * $ . . . O.O.: V V D D - O.",
"O.O.O.O.O.O.O.O.: j q : : $ $ $ O.O.O.= j U r r : O.",
"O.O.O.O.O.O.O.O.; > > > ; = = O.O.O.O.V V H D h h q ",
"O.O.O.O.O.O.O.O.O.O.O.O.O.O.O.O.O.O.V ^ V H D h h - ",
"O.O.O.O.O.O.O.O.O.O.O.O.O.O.O.O.O.D V V H D : q q - ",
"O.O.O.O.O.O.O.O.O.O.O.O.O.O.O.O.O.- ; > > > > - O.O."
};
