/* XPM */
static char *result[] = {
/* columns rows colors chars-per-pixel */
"57 56 73 1 ",
"  c #13230B",
". c #17330F",
"X c #332B13",
"o c #232323",
"O c #272727",
"+ c #2F2F2F",
"@ c #373737",
"# c gray23",
"$ c #430000",
"% c #470000",
"& c #4F0000",
"* c #530707",
"= c #5B0000",
"- c #5B0707",
"; c #670000",
": c #670B0B",
"> c #6B0F0F",
", c #730000",
"< c #7F0000",
"1 c #731313",
"2 c #771717",
"3 c #7F1B1B",
"4 c #533F1F",
"5 c #533F2F",
"6 c #1F4317",
"7 c #27531B",
"8 c #574333",
"9 c #5F4B37",
"0 c #7F532F",
"q c #434343",
"w c gray28",
"e c gray31",
"r c gray34",
"t c #6F5743",
"y c #775F4B",
"u c gray39",
"i c #777777",
"p c #8B0000",
"a c #9B0000",
"s c #831F1F",
"d c #A70000",
"f c #B30000",
"g c #BF0000",
"h c #8B2323",
"j c #8F2B2B",
"k c #972F2F",
"l c #9B3333",
"z c #A33B3B",
"x c #A73F3F",
"c c #CB0000",
"v c #D70000",
"b c red",
"n c #9B633B",
"m c #C34F00",
"M c #D75F0B",
"N c #AF4747",
"B c #B34F4F",
"V c #BB5757",
"C c #BF5B5B",
"Z c #836B57",
"A c #8B735B",
"S c #937B63",
"D c #C76363",
"F c #CB6B6B",
"G c #D37373",
"H c #9F876F",
"J c #A78F77",
"K c #AF977F",
"L c #8B8B8B",
"P c #B79F87",
"I c #BFA78F",
"U c #B7B7B7",
"Y c #00FF00",
/* pixels */
"YYYYYYYYYYYYYYYYYYYYYYYYYYYYYYYYYYYYYYYYYYYYYYYYYYYYYYYYY",
"YYYYYYYYYYYYYYYYYYYYYYYYYYYYYYYYYYYYYYYYYYYYYYYYYYYYYYYYY",
"YYYYYYYYYYYYYYYYYYYYYYYYYYYYYYYYYYYYYYYYYYYYYYYYYYYYYYYYY",
"YYYYYYYYYYYYYYYYYYYYYYYYYYYYYYYYYYYYYYYYYYYYYYYYYYYYYYYYY",
"YYYYYYYYYYYYYYYYYYYYYYYYYYYYYYYYYYYYYYYYYYYYYYYYYYYYYYYYY",
"YYYYYYYYYYYYYYYYYYYYYYYYYYYYYYYYYYYYYYYYYYYYYYYYYYYYYYYYY",
"YYYYYYYYYYYYYYYYYYYYYYYYYYYYYYYYYYYYYYYYYYYYYYYYYYYYYYYYY",
"YYYYYYYYYYYYYYYYYYYYYYYYYYYYYYYYYYYYYYYYYYYYYYYYYYYYYYYYY",
"YYYYYYYYYYYYYYYYYYYYYYYYYYYYYYYYYYYYYYYYYYYYYYYYYYYYYYYYY",
"YYYYYYYYYYYYYYYYYYYYYYYYYYYYYYYYYYYYYYYYYYYYYYYYYYYYYYYYY",
"YYYYYYYYYYYYYYYYYYYYYYYYYYYYYYYYYYYYYYYYYYYYYYYYYYYYYYYYY",
"YYYYYYYYYYYYYYYYYYYYYYYYYYYYYYYYYYYYYYYYYYYYYYYYYYYYYYYYY",
"YYYYYYYYYYYYYYYYYYYYYYYYYYYYYYYYYYYYYYYYYYYYYYYYYYYYYYYYY",
"YYYYYYYYYYYYYYYYYYYYYYYYYYYYYYYYYYYYYYYYYYYYYYYYYYYYYYYYY",
"YYYYYYYYYYYYYYYYYYYYYYYYYYYYYYYYYYYYYYYYYYYYYYYYYYYYYYYYY",
"YYYYYYYYYYYYYYYYYYYYYYYYYYYYYYYYYYYYYYYYYYYYYYYYYYYYYYYYY",
"YYYYYYYYYYYYYYYYYYYYYYYYYYYYYYYYYYYYYYYYYYYYYYYYYYYYYYYYY",
"YYYYYYYYYYYYYYYYYYYYYYYYYYYYYYYYYYYYYYYYYYYYYYYYYYYYYYYYY",
"YYYYYYYYYYYYYYYYYYYYYYYYYYYYYYYYYYYYYYYYYYYYYYYYYYYYYYYYY",
"YYYYYYYYYYYYYYYYYYYYYYYYYYYYYYYYYYYYYYYYYYYYYYYYYYYYYYYYY",
"YYYYYYYYYYYYYYYYYYYYYYYYYYYYYYYYYYYYYYYYYYYYYYYYYYYYYYYYY",
"YYYYYYYYYYYYYYYYYYYYYYYYYYYYYYYYYYYYYYYYYYYYYYYYYYYYYYYYY",
"YYYYYYYYYYYYYYYYYYYYYYYYYYYYYYYYYYYYYYYYYYYYYYYYYYYYYYYYY",
"YYYYYYYYYYYYYYYYYYYYYYYYYYYYYYYYYYYYYYYYYYYYYYYYYYYYYYYYY",
"YYYYYYYYYYYYYYYYYYYYYYYYYYYYYYYYYYYYYYYYYYYYYYYYYYYYYYYYY",
"YYYYYYYYYYYYYYYYYYYYYYYYYYYYYYYYYYYYYYYYYYYYYYYYYYYYYYYYY",
"YYYYYYYYYYYYYYYYYYYYYYYYYYYYYYYYYYYYYYYYYYYYYYYYYYYYYYYYY",
"YYYYYYYYYYYYYYYYYYYYYYYYYYYYYYYYYYYYYYYYYYYYYYYYYYYYYYYYY",
"YYYYYYYYYYYYYYYYYYYYYYYYYYYYYYYYYYYYYYYYYYYYYYYYYYYYYYYYY",
"YYYYYYYYYYYYYYYYYYYYYYYYYYYYYYYYYYYYYYYYYYYYYYYYYYYYYYYYY",
"YYYYYYYYYYYYYYYYYYYYYYYYYYYYYYYYYYYYYYYYYYYYYYYYYYYYYYYYY",
"YYYYYYYYYYYYYYYYYYYYYYYYYYYYYYYYYYYYYYYYYYYYYYYYYYYYYYYYY",
"YYYYYYYYYYYYYYYYYYYYYYYYYYYYYYYYYYYYYYYYYYYYYYYYYYYYYYYYY",
"YYYYYYYYYYYYYYYYYYYYYYYYYYYYYYYYYYYYYYYYYYYYYYYYYYYYYYYYY",
"YYYYYYYYYYYYYYYYYYYYYYYYYYYYYYYYYYYYYYYYYYYYYYYYYYYYYYYYY",
"YYYYYYYYYYYYYYYYYYYYYYYYYYYYYYYYYYYYYYYYYYYYYYYYJPPULZYYY",
"YYYYYYYYYYYYYYYYYxYYYYYYYYYYYYYYYYYYYYYYYYYYYYYftySJirAYY",
"YYYYYYYYYhVYYYYYY3hYYYYYYYYYYYYYYYYYYYYYYYYYYYYp,9ZSKuHSY",
"YYYYYYYYYhlYYYYYY&CpYYYYYYYYYYYYYYYYYYYYYYYYYpbgdd,5ZJJSY",
"YYYYYYYY:2FYYYYYY23xYYYYYYYYYYYYYYYYYYYYYYsxVVxlava,6PIHY",
"YYYYYYYY,xzYYYYYYjDzaYYYYYYYYYYYYYYYYYYYYYxVxVVVxa<<76ZZY",
"YYYYYYY6dxGYYYYYY2kV<$YYYYYYYYYYYYYYYYYYYYYYd3llk,&=p78tY",
"YYYYYY7<<BxYYYYY,=.%,$=<YYYYYYYBBBYYYYYYYYYdp&&$=,&,a.6aY",
"YYYn<;6d<xjDDYYY,,76$&6a=YYYYYBkss2Y:$jYY,x&xpx&=,&,a<ao<",
"YYnMdf.6aslBBD,,;=.. &pfp=Y=YYk::<%$%j;$$ph*h;h=$$$&&&;a4",
"Ygmacp;..a&skNl==,<<6&.6$d,===$$$$Yj<=&$$;$;j;&$>==<p$=$<",
"p;<m0pp6ad;&$sNl<,$g<$$%.a,&$=&%&<<&&$Y$&a$h,,$$<pcdphc$$",
"<;<<c;673p.p*&;slp*<$$$%-,a&,=,f=ad&Bk$,<$=<h1,,2f<7.$*$&",
"p*:ls1ga,$$$$=&&<$>.6  $.<<ap,$,p<<>jj$$$$v=,=<<<pfd6.&$X",
"$*1:l-gg$$.6$&&&=$.6...  ;$pf<.*pff3--$$,vaa;$&<dpfd&,,$Y",
"Y**$:-dg$.<7;&=$$$.<<;%% .6;p<6.p=p--$$$pp*ca$&=p<=;,$. Y",
"YY$,<<<<$.<<. &  $-- $%%$$  $.6p;;&$$$a,$.&a-.&$;=&.7&;;Y",
"YYY$,<pa=&&&&$  #qqqeew#+o+@+..;;p<$$,,,,&<$ 6&$ .666.===",
"YYYY$;,<<,;&&&&+####@@+OOOOoo$..:p<;;$<>6$%&.YYYYYYY66YYY",
"YYYYYYYYY$;,<<<$OOOOOOYYY$$;;=%. ;$;;$$$$%&YYYYYYYYY.7<$Y",
"YYYYYYYYYYYYYYYYYYYYYYY$=,,<,,=% %%$*$$$;;,,;$YYYYYYY.$$Y",
"YYYYYYYYYYYYYYYYYYYYYYYYYYY$,,<,$$$$$$;<<;=$YYYYYYYYYYYYY"
};
