/* XPM */
static char *result[] = {
/* columns rows colors chars-per-pixel */
"53 52 80 1 ",
"  c #131313",
". c #1B1B1B",
"X c #13230B",
"o c #17330F",
"O c #332B13",
"+ c #232323",
"@ c #272727",
"# c #2F2F2F",
"$ c #430000",
"% c #470000",
"& c #4F0000",
"* c #530707",
"= c #5B0000",
"- c #5B0707",
"; c #670000",
": c #670B0B",
"> c #6B0F0F",
", c #730000",
"< c #7F0000",
"1 c #731313",
"2 c #771717",
"3 c #7F1B1B",
"4 c #43331B",
"5 c #4B371B",
"6 c #533F1F",
"7 c #533F2F",
"8 c #1F4317",
"9 c #27531B",
"0 c #2F6323",
"q c #5F4323",
"w c #574333",
"e c #5F4B37",
"r c #7F532F",
"t c #67533F",
"y c #6F5743",
"u c #775F4B",
"i c gray39",
"p c #6F6F6F",
"a c #777777",
"s c gray50",
"d c #8B0000",
"f c #9B0000",
"g c #831F1F",
"h c #A70000",
"j c #B30000",
"k c #BF0000",
"l c #8B2323",
"z c #8F2B2B",
"x c #972F2F",
"c c #9B3333",
"v c #A33B3B",
"b c #A73F3F",
"n c #CB0000",
"m c #D70000",
"M c #E30000",
"N c red",
"B c #AF4300",
"V c #B74700",
"C c #9B633B",
"Z c #C34F00",
"A c #D75F0B",
"S c #AF4747",
"D c #B34F4F",
"F c #BB5757",
"G c #BF5B5B",
"H c #836B57",
"J c #B37347",
"K c #937B63",
"L c #9B7F6B",
"P c #CB6B6B",
"I c #9F876F",
"U c #A78F77",
"Y c #AF977F",
"T c #838383",
"R c #8B8B8B",
"E c #939393",
"W c #979797",
"Q c #B79F87",
"! c gray67",
"~ c #00FF00",
/* pixels */
"~~~~~~~~~~~~~~~~~d~~~~~~;~~~~~~~~~~~~~~~~~~~~~~~~~~~~",
"~~~~~~~~~~~~~~~~~~~~~~~~~~~~~~~~~~~~~~~~f~~j~~~~~~~~~",
"~~~~~~~~~~~~~~~~te~~~~~~nj~~~~~~~~~~~~~~j~~~~~~~~~~~~",
"~~~~~~~~~~~~;~~~e<~~~~~~<fq~~~~~~~~~~~~~~~~~~~~~~~~~~",
"~~~~~~~~~~~~~~~~f~~~~~~~~<~~~~~~~~~~~~~~~RTaH~~~~~~~~",
"~~~~~~~~~~~~~~~~~~~~~~~~~~~~~~$~~~~$,djKUU!WpI~~~~~~~",
"~~~~~~~~~~k~;~~~~~~~~~~~~~~~~~~~~lShnhdduHUsiQK~~~~~~",
"~~~~~~~~~~~~~~~~~~~~~~~~~~~~~~~~lfg3lchvdyyYUUK~~~~~~",
"~~~~~~~~~;~~~~~E~~~~~~~~~~~~~~~~~,n;;&cc$dyuHUH~~~~~~",
"~~~~~~d~~;~~;~~~~$$~~~~~~~~~~~~~~;,n;;&,,ddwLHH~~~~~~",
"~~~~~~~~,<~~~~~~~$$~p~~~~~~s~~~~~~~l<;&&&,M$wwy~~~~~~",
"~~~~~~~~h,h,~~~~~~~~$~$$~~~~~~~~~~~~~<;$$$,$4w~~~~~~~",
"~~~~~~~<hhh,~~~~hf~~~~$$~~~~~~~~~~~~&~$$$$<$f7~~~~~~~",
"~~~~~~~<jMk~~~~jnh;$~$~~~~~~~~~~~~~~~~$$$$$$~~~~~~~~~",
"~~~~~~~=dhd~~~=&hd,$~~~~~~~~~~~~~~&~~<$$$~~~~~~~~~~~~",
"~~~~~~~~=,~;~~&=&;&$~~~~~~~~~~~~~~~~<j<$~d,~~~~~~~~~~",
"~~~~~f~~~~~~~~~$$$$~~~~~~~~~~~~&~~&$,<$$$Nkhh,9~~~~~~",
"~~~~~~~~~~~~$~~~~~~~<f,~$$$~~~~~~~~$$gbFFbcfmf,9~~~~~",
"~~~~~~~~~~~;<~~~~=~&hkh&$$$~~~~~~~~~~bFbFFFbf<<09~~~~",
"~~~~~~~~~~~;f~~~~~~$$d,$$$~~~~~~~~~~~$~~3ccx,&=d0~~~~",
"~~~~~~=~~~~cP~~~~~~$;;&&$$~~~;~~~~~~,,$&~~$=,&,f;8~~~",
"~~~~~~~~~~~bv3~~&&~$=<=$$$~~~~~~~~~~d,$~&=&=,&,f<9~~~",
"~~~=~~~~~~<z1P~~&&~~$$$$$$~~~~~~~~~~$$~~&==$$$&&&;f~~",
"~~~~~~~~~~j1bS~~~~~~2$$$$~~~~~~~~~~~~~~~~&$$$$=;;f+<~",
"~~~CV<;$~8d;zG&~~~~2bz~~~~~~~~~~~~~~~~l,,$$,$=$=$;f6<",
"f~CAfhj$&9j=2z$;dd2*2$~~~~~~~~~~~~~~~~&l1,,=>==<d$=$<",
"~kZfhnd;o9=dd2;**$*$3b~~~~~~~~~~~~~~~~~1zg<<<dnhdln$$",
"~;<ZCrddo8dmf$,dff,=z-~~~~~~~~~~~~$~~~~,,~~~2dnd>>*$&",
"~;<<fn;$oo=&,;$&&&&$-$~~~~~~~~~~~~~~~~~$&~~~&&d>***$O",
"~5<bCf;&&o=$;&&,<<$,$$~~~~~~~~~~~~~~~~~~;&~~%$&$$$$<~",
"~~<BbJ5&==~=&&,&&$d,$~~~~~~~~~d~~~~~~~~;z;z~$$$&~$&&~",
"~~2ljcq$=~=~~&&,dd,&~~~~~~$~~~~~~~~~~~~~*&~~~&~~&~&~~",
"~2lccCg$===~~&&$$$~=~~~~~~~~~~~~~~~~~~~~z;z~~~~~~&~~~",
"~1cddjd~==~~~&&&~~~~~~~~~~~~~~~~~~~~~~vl*&~~~~~~~~~~~",
"~::lglc<~~~~~~&&~~~=~~~~=~~~~~~DD~~~l1d%*;c~~~~=~~~~~",
"~~:cgg1kf,@.~$~PG~~,~~~$&=~~~~Dzz2~:$<;$;&~~~=~==~~~~",
"~~~:$c-kkf$~~~3DD~=,~d~<=<;~~~z::%2$%l;$$v,~~=====~~~",
"~~~~$:-hkf$$~$3vzk<o~~~;<=$~~~3$$$~vb=&$$djj<~$89&$~~",
"~~~~$=$~1$okf~gvz$$$o~~&;;,~~~*%d%~l3$~$&f$djh;<8o&,~",
"~~~~~~~~$o8fh;gvgd8o$~of1oh,=~~%%$$=$$&,<&~=j,hf$8&~~",
"~~~~~~~~$o83d;zx2,o$$&djd8f,&$,~$~$$$&$&&~~=<hh<&8=~~",
"~~~~~~~~~$$$=;zx2,<<o&o81-,f&,$~~~$=~~$~~~=~=d<f9oo=~",
"~~~~~~~~~~dd$z==z,$k<$$%;;<fd,&~&<<&&~~~$=$=,=98X~o=~",
"~~~~~~~=$$od*bcz3d*<$$$%o8;dj<,j=fh&Dx$~$m;f;$&$~88~~",
"~~~~~~~~$$$$$=dd,$>o8XX$o88;d<$,d<<>zz$,mffnf$&~~<o~~",
"~~~~~~~~~$o8$d,=$$o8oooXXoooX$o*djj3--$dd*=f-$&~~$$~~",
"~~~~~~~~$o<9;;=$$$o<<;%%%XXX$o8od=d--$$$,o$$o8~~~~~~~",
"~~~~~~~~$o<<oo<oo$--X$%%$    o8d;;&$$$f,$0898~~~~~~~~",
"~~~~~~~~~==~~$XX+######+. .+.oo;;d<$$,,,,o%~~~~~~~~~~",
"~~~~~~~~~~~~~~~.++++++.....  $oo:d<;;$<>8$%~~~~~~~~~~",
"~~~~~~~~~~~~~~~~......~~~~~~~$%oX;$;;$$$$%~~~~~~~~~~~",
"~~~~~~~~~~~~~~~~~~~~~~~~~~~~~~$%X%%$*$$$%~~~~~~~~~~~~"
};
