/* XPM */
static char *_34ac5e9e2ae4501914e9e254c1890fbaUDhNkBuDraa3i6T[] = {
/* columns rows colors chars-per-pixel */
"26 56 256 2 ",
"   c black",
".  c #1F170B",
"X  c #170F07",
"o  c #4B4B4B",
"O  c white",
"+  c #1B1B1B",
"@  c #131313",
"#  c #0B0B0B",
"$  c #070707",
"%  c #2F371F",
"&  c #232B0F",
"*  c #171F07",
"=  c #0F1700",
"-  c #4F3B2B",
";  c #473323",
":  c #3F2B1B",
">  c #FFB7B7",
",  c #F7ABAB",
"<  c #F3A3A3",
"1  c #EB9797",
"2  c #E78F8F",
"3  c #DF8787",
"4  c #DB7B7B",
"5  c #D37373",
"6  c #CB6B6B",
"7  c #C76363",
"8  c #BF5B5B",
"9  c #BB5757",
"0  c #B34F4F",
"q  c #AF4747",
"w  c #A73F3F",
"e  c #A33B3B",
"r  c #9B3333",
"t  c #972F2F",
"y  c #8F2B2B",
"u  c #8B2323",
"i  c #831F1F",
"p  c #7F1B1B",
"a  c #771717",
"s  c #731313",
"d  c #6B0F0F",
"f  c #670B0B",
"g  c #5F0707",
"h  c #5B0707",
"j  c #530707",
"k  c #4F0000",
"l  c #470000",
"z  c #430000",
"x  c #FFEBDF",
"c  c #FFE3D3",
"v  c #FFDBC7",
"b  c #FFD3BB",
"n  c #FFCFB3",
"m  c #FFC7A7",
"M  c #FFBF9B",
"N  c #FFBB93",
"B  c #FFB383",
"V  c #F7AB7B",
"C  c #EFA373",
"Z  c #E79B6B",
"A  c #DF9363",
"S  c #D78B5B",
"D  c #CF8353",
"F  c #CB7F4F",
"G  c #BF7B4B",
"H  c #B37347",
"J  c #AB6F43",
"K  c #A36B3F",
"L  c #9B633B",
"P  c #8F5F37",
"I  c #875733",
"U  c #7F532F",
"Y  c #774F2B",
"T  c #6B4727",
"R  c #5F4323",
"E  c #533F1F",
"W  c #4B371B",
"Q  c #3F2F17",
"!  c #332B13",
"~  c #2B230F",
"^  c #EFEFEF",
"/  c #E7E7E7",
"(  c #DFDFDF",
")  c gray86",
"_  c LightGray",
"`  c #CBCBCB",
"'  c gray78",
"]  c gray75",
"[  c #B7B7B7",
"{  c gray70",
"}  c gray67",
"|  c #A7A7A7",
" . c #9F9F9F",
".. c #979797",
"X. c #939393",
"o. c #8B8B8B",
"O. c #838383",
"+. c gray50",
"@. c #777777",
"#. c #6F6F6F",
"$. c gray42",
"%. c gray39",
"&. c #5B5B5B",
"*. c gray34",
"=. c gray31",
"-. c gray28",
";. c #434343",
":. c gray23",
">. c #373737",
",. c #2F2F2F",
"<. c #272727",
"1. c #232323",
"2. c #77FF6F",
"3. c #6FEF67",
"4. c #67DF5F",
"5. c #5FCF57",
"6. c #5BBF4F",
"7. c #53AF47",
"8. c #4B9F3F",
"9. c #439337",
"0. c #3F832F",
"q. c #37732B",
"w. c #2F6323",
"e. c #27531B",
"r. c #1F4317",
"t. c #17330F",
"y. c #13230B",
"u. c #0B1707",
"i. c #BFA78F",
"p. c #B79F87",
"a. c #AF977F",
"s. c #A78F77",
"d. c #9F876F",
"f. c #9B7F6B",
"g. c #937B63",
"h. c #8B735B",
"j. c #836B57",
"k. c #7B634F",
"l. c #775F4B",
"z. c #6F5743",
"x. c #67533F",
"c. c #5F4B37",
"v. c #574333",
"b. c #533F2F",
"n. c #9F8363",
"m. c #8F7753",
"M. c #836B4B",
"N. c #775F3F",
"B. c #675333",
"V. c #5B472B",
"C. c #4F3B23",
"Z. c #43331B",
"A. c #7B7F63",
"S. c #6F7357",
"D. c #676B4F",
"F. c #5B6347",
"G. c #53573B",
"H. c #474F33",
"J. c #3F472B",
"K. c #373F27",
"L. c #FFFF73",
"P. c #EBDB57",
"I. c #D7BB43",
"U. c #C39B2F",
"Y. c #AF7B1F",
"T. c #9B5B13",
"R. c #874307",
"E. c #732B00",
"W. c white",
"Q. c #FFDBDB",
"!. c #FFBBBB",
"~. c #FF9B9B",
"^. c #FF7B7B",
"/. c #FF5F5F",
"(. c #FF3F3F",
"). c #FF1F1F",
"_. c red",
"`. c #EF0000",
"'. c #E30000",
"]. c #D70000",
"[. c #CB0000",
"{. c #BF0000",
"}. c #B30000",
"|. c #A70000",
" X c #9B0000",
".X c #8B0000",
"XX c #7F0000",
"oX c #730000",
"OX c #670000",
"+X c #5B0000",
"@X c #4F0000",
"#X c #430000",
"$X c #E7E7FF",
"%X c #C7C7FF",
"&X c #ABABFF",
"*X c #8F8FFF",
"=X c #7373FF",
"-X c #5353FF",
";X c #3737FF",
":X c #1B1BFF",
">X c blue",
",X c #0000E3",
"<X c #0000CB",
"1X c #0000B3",
"2X c #00009B",
"3X c #000083",
"4X c #00006B",
"5X c #000053",
"6X c white",
"7X c #FFEBDB",
"8X c #FFD7BB",
"9X c #FFC79B",
"0X c #FFB37B",
"qX c #FFA35B",
"wX c #FF8F3B",
"eX c #FF7F1B",
"rX c #F37317",
"tX c #EB6F0F",
"yX c #DF670F",
"uX c #D75F0B",
"iX c #CB5707",
"pX c #C34F00",
"aX c #B74700",
"sX c #AF4300",
"dX c white",
"fX c #FFFFD7",
"gX c #FFFFB3",
"hX c #FFFF8F",
"jX c #FFFF6B",
"kX c #FFFF47",
"lX c #FFFF23",
"zX c yellow",
"xX c #A73F00",
"cX c #9F3700",
"vX c #932F00",
"bX c #872300",
"nX c #4F3B27",
"mX c #432F1B",
"MX c #372313",
"NX c #2F1B0B",
"BX c #000053",
"VX c #000047",
"CX c #00003B",
"ZX c #00002F",
"AX c #000023",
"SX c #000017",
"DX c #00000B",
"FX c black",
"GX c #FF9F43",
"HX c #FFE74B",
"JX c #FF7BFF",
"KX c magenta",
"LX c #CF00CF",
"PX c #9F009B",
"IX c #6F006B",
"UX c #00FF00",
/* pixels */
"UXUXUXUXUXUXUXUXUXUXs.s.s.i.UXUXUXUXUXUXUXUXUXUXUXUX",
"UXUXUXUXUXUXUXUXUXd.g.j.j.d.i.UXUXUXUXUXUXUXUXUXUXUX",
"UXUXUXUXUXUXUXUXg.s.a.a.p.i.i.i.a.UXUXUXUXUXUXUXUXUX",
"UXUXUXUXUXUXUXUXz.:.>.:.:.>.;.g.p.UXUXUXUXUXUXUXUXUX",
"UXUXUXUXUXUXUXz.,.%.+.X.+.#.=.-.a.s.UXUXUXUXUXUXUXUX",
"UXUXUXUXUXUXk.z.:.&.@.+.@.%.%.,.a.A.s.UXUXUXUXUXUXUX",
"UXUXUXUXUXUXz.j.;.&.%.$.$.&.=.d.i.A.A.g.UXUXUXUXUXUX",
"UXUXUXUXUXk.c.d.-.a.i.p.%.=.d.i.g.z.c.UXUXUXUXUXUXUX",
"UXUXUXUXUXUXg.a.n.d.s.d.d.h.j.g.<.v.UXUXUXUXUXUXUXUX",
"UXUXUXUXUXUXg.v.v.z.l.l.j.l.v.Z.,.z.UXUXUXUXUXUXUXUX",
"UXUXUXUXUXUXUXC.Z.Z.~ Z.Q Q ,.1.=.@.6.6.7.8.UXUXUXUX",
"UXUXUXUXUXq.q.;.,.,.,.<.<.1.1.*.6.5.4.4.6.7.8.0.UXUX",
"UXUXUXUX0.8.w.r.:.>.,.<.<.;.0.q.5.5.5.6.5.5.6.8.w.UX",
"UXUXUXq.7.q.w.r.r.t.y.r.q.7.6.8.9.6.7.5.4.4.6.8.q.UX",
"UXUXq.0.w.q.w.w.e.t.r.0.7.7.6.4.q.8.7.6.5.4.6.7.0.e.",
"UXUXq.0.e.w.q.q.0.w.w.8.8.8.8.7.q.0.0.0.q.9.9.q.e.r.",
"UXUXUXR . w.q.q.0.0.w.8.9.9.8.9.e.T H D S A S H L R ",
"UXUXUX. ! e.e.e.e.q.r.q.0.q.q.e.y.G A D G G F L T R ",
"UXUXU . Z.t.r.t.t.q.e.t.t.t.t.e.w.H F A S S G U Z.UX",
"UXUX,.+ + >.0.t.0.0.0.q.q.q.0.q.q.L H D A D L E R UX",
"UXg.;.=.=.;.8.r.9.9.9.8.8.0.e.r.A.A.d.i.p.a.d.R UXUX",
"UXF.,.+ @ ,.-.r.t.r.r.e.e.9.7.G A F L F.A.A.S.H.UXUX",
"F.L @ + @ + >.1.1.<.1.,.,.H F D S D H L <.H.J.1.UXUX",
"Y D <.1.@ @ ,.-.<.Z.W T H G G G H U Y T <.<.K.1.UXUX",
"Y S @ + @ + <.H T P H G F H I Y R Z.~ ~ 1.,.1.<.G.UX",
"R L Z.+ + + @ F D D H U W R Q ~ ~ ~ ~ ~ ~ ~ ~ K.K.UX",
"P R W 1.@ @ + I T T T R ~ W Z.. ,.~ ~ ~ ~ ~ 1.~ UXUX",
"UX~ Z.Z.1.@ + ,.,.,.,.,.H.H.H.K.,.1.y.y.y.y.y.UXUXUX",
"UXT R Z.<.t.t.t.t.t.~ K.K.K.K.& 1.1.t.y.y.y.t.t.UXUX",
"UXUXUXUXUXt.t.t.t.t.~ * & & & * <.t.t.y.y.y.t.e.r.UX",
"UXUXUXUXUXy.t.t.t.t.y.~ * * * ~ t.t.y.y.y.t.t.r.w.w.",
"UXUXUXUXUXUXy.r.t.t.t.y.~ * * 1.r.t.y.t.t.t.r.r.q.r.",
"UXUXUXUXUXUXt.r.r.e.r.t.y.~ ~ r.r.t.t.r.r.r.w.e.q.r.",
"UXUXUXUXUXUXr.e.r.w.e.t.t.y.y.y.t.t.t.e.0.q.w.e.0.r.",
"UXUXUXUXUXUXy.r.e.t.e.r.y.t.y.y.y.r.t.e.0.0.q.w.e.t.",
"UXUXUXUXUXUXy.e.e.e.r.t.t.t.y.y.t.r.r.e.w.w.w.w.e.UX",
"UXUXUXUXUXUXUXe.r.r.t.t.r.y.y.y.t.r.e.w.w.e.q.w.e.UX",
"UXUXUXUXUXUXUXe.r.r.r.r.y.t.y.y.r.w.w.w.e.q.q.q.r.UX",
"UXUXUXUXUXUXUXe.e.r.r.t.t.t.y.y.t.q.0.e.w.q.8.w.t.UX",
"UXUXUXUXUXUXUXe.w.r.r.r.t.t.y.y.y.e.D.g.s.A.G.r.t.UX",
"UXUXUXUXUXUXUXe.e.r.r.r.t.y.y.y.u.F.S.S.A.D.F.t.UXUX",
"UXUXUXUXUXUXUXK.D.D.H.K.% & & * y.H.S.S.A.D.F.K.UXUX",
"UXUXUXUXUXUXUXF.H.H.K.K.% & & * y.K.H.D.D.H.K.<.UXUX",
"UXUXUXUXUXUXUXUXK.J.K.% & & & & & K.K.K.H.J.G.H.K.UX",
"UXUXUXUXUXUXUXUXUX% % & & & & & & J.K.t.t.K.G.S.K.UX",
"UXUXUXUXUXUXUXUXUXUX% % & & & * & K.H.F.F.F.F.D.K.UX",
"UXUXUXUXUXUXUXUXUXUXUX% K.& & * & J.G.H.F.F.D.F.K.UX",
"UXUXUXUXUXUXUXUXUXUXUXUX% & & * & UXH.G.G.D.F.G.H.UX",
"UXUXUXUXUXUXUXUXUXUXUXK.& & & & * K.J.G.F.F.G.K.UXUX",
"UXUXUXUXUXUXUXUXUXUXH.~ K.& & & * K.UXK.S.S.G.~ UXUX",
"UXUXUXUXUXUXUXUXUXF.H.K.% & * * * K.UXK.G.D.S.<.UXUX",
"UXUXUXUXUXUXUXUXK.D.H.K.K.& & & 1.UXUX1.D.g.G.K.UXUX",
"UXUXUXUXUXUXUXUX,.>.>.>.,.1.1.UXUXUXUXD.g.d.A.F.H.UX",
"UXUXUXUXUXUXUXUXUXUXUXUXUXUXUXUXUXUXD.d.d.A.D.F.<.UX",
"UXUXUXUXUXUXUXUXUXUXUXUXUXUXUXUXUXD.D.S.S.G.K.H.<.UX",
"UXUXUXUXUXUXUXUXUXUXUXUXUXUXUXUXUX<.,.>.>.>.>.<.UXUX"
};
