/* XPM */
static char *result[] = {
/* columns rows colors chars-per-pixel */
"39 55 76 1 ",
"  c #1F170B",
". c #131313",
"X c #1B1B1B",
"o c #13230B",
"O c #17330F",
"+ c #2B230F",
"@ c #232B0F",
"# c #332B13",
"$ c #3F2F17",
"% c #2F371F",
"& c #232323",
"* c #272727",
"= c #2F2F2F",
"- c #373F27",
"; c #373737",
": c gray23",
"> c #43331B",
", c #4B371B",
"< c #533F1F",
"1 c #533F2F",
"2 c #1F4317",
"3 c #27531B",
"4 c #3F472B",
"5 c #2F6323",
"6 c #37732B",
"7 c #5F4323",
"8 c #474F33",
"9 c #574333",
"0 c #5F4B37",
"q c #53573B",
"w c #6B4727",
"e c #774F2B",
"r c #7F532F",
"t c #67533F",
"y c #434343",
"u c gray28",
"i c gray31",
"p c gray34",
"a c #5B5B5B",
"s c #6F5743",
"d c #775F4B",
"f c #5B6347",
"g c #676B4F",
"h c #6F7357",
"j c gray39",
"k c gray42",
"l c #6F6F6F",
"z c #7B7F63",
"x c #777777",
"c c gray50",
"v c #8F5F37",
"b c #9B633B",
"n c #A36B3F",
"m c #836B57",
"M c #B37347",
"N c #BF7B4B",
"B c #937B63",
"V c #9B7F6B",
"C c #CB7F4F",
"Z c #3F832F",
"A c #439337",
"S c #4B9F3F",
"D c #53AF47",
"F c #5BBF4F",
"G c #5FCF57",
"H c #67DF5F",
"J c #9F8363",
"K c #9F876F",
"L c #A78F77",
"P c #AF977F",
"I c #CF8353",
"U c #838383",
"Y c #B79F87",
"T c #BFA78F",
"R c gray67",
"E c #00FF00",
/* pixels */
"EEEEEEEEEEEEEEEEEEEEEEEEEVLPLVEEEEEEEEE",
"EEEEEEEEEEEEEEEEEEEEEEEE=yjiy=dEEEEEEEE",
"EEEEEEEEEEEEEEEEEEEEEEE:acRUliymEEEEEEE",
"EEEEEEEEEEEEEEEEEEEEEEBYPTTUkjyKBEEEEEE",
"EEEEEEEEEEEEEEEEEEEEEBPPTYYPPmjYmEEEEEE",
"EEEEEEEEEEEEEEEEEEEEmmsmLJBBKsPLmTEEEEE",
"EEEEEEEEEEEEEEEEEEEEEs$t99s>ssB9mLmEEEE",
"EEEEEEEEEEEEEEEEEEEEE1*>*===*>99smEEEEE",
"EEEEEEEEEEEEEEEEEEEEEiclki:y===>0EEEEEE",
"EEEEEEEEEEEEEEEESSSSSZiiyipp:kxjEEEEEEE",
"EEEEEEEEEEEEEESDFSDFGHHAZDGGGGDHGFDZEEE",
"EEEEEEEEEEEEEADFSDFFGGFGFHHHHHFDHHGFS6E",
"EEEEEEEEEEEEE2ZS5DDFFGFFFHHHHHHSHGGFD5E",
"EEEEEEEEEEEEEbbN3SSSSSFAFHHHGFSO2356A65",
"EEEEEEEEEEEEbCMv*XXXX.GD6336Z527bIvwX&=",
"EEEEEEEEEEEEXXX..256..;xGHHDxi.XXXXX&.&",
"EEEEEEEE*.XXXww,&6;i=;aaaaaa;.XX...XX=v",
"EEEEEEE...EEuiiiii;***;pppiu*..&77bzKN>",
"EEEEEE*XX=iiu;=*&=&**&*;;;;;;X.IMMnfzhq",
"E;;;;;*;=;**&&&&*&***&&XXvMMbw$rNMbrqq4",
"*XXXXXX&**&&********&&X.7>++>7,$vnvr8--",
"XXXXXXX&********===&X&X.###+++#+,w77-*E",
"E.XXXXX*====XX*&XXXX*==*y,##+##>>>>><EE",
"EXXXXX7e+XXX$eEgXXXXhervvvbvfq8*+-EEEEE",
"EEXXXX77v.XX$$E88XXX8w777$ ,*-f+++EEEEE",
"EEXXXEE><eXXX.Ef-XXXX77777,w8+-*+-EEEEE",
"EEEEEEEE#<XXXXEBO*XXo$$$$$, DZ&&=EEEEEE",
"EEEEEEEEEEEEEEE532OOO-888ff5SA3OooEEEEE",
"EEEEEEEEEEEEEE552Oo35+--88=ZZ52OOO2EEEE",
"EEEEEEEEEEEEEZO56553D+***-6SD62OOOoEEEE",
"EEEEEEEEEEEEE566A52Z322oo6Z5652OOOoEEEE",
"EEEEEEEEEEEEE3A633Z5333o2o5ZZ63OOOoEEEE",
"EEEEEEEEEEEEE3535652222ooA63332OOOoEEEE",
"EEEEEEEEEEEEE233652O222OoZSA532222oEEEE",
"EEEEEEEEEEEEEE2353223OOO555Z332OOOEEEEE",
"EEEEEEEEEEEEEE2532O32OOEE365222O2OEEEEE",
"EEEEEEEEEEEEEEO32232O22EE22332O22OEEEEE",
"EEEEEEEEEEEEEEO32232O22EEO222O223OEEEEE",
"EEEEEEEEEEEEEEO3222O2O2EEO--4888-2EEEEE",
"EEEEEEEEEEEEEE-f22322OOEEE-8888-+EEEEEE",
"EEEEEEEEEEEEEE-hf8-2oooEEEO-8884+EEEEEE",
"EEEEEEEEEEEEEE*8888---*EEEoOOOOo+EEEEEE",
"EEEEEEEEEEEEEE-4--%%%@+EEE@----%@EEEEEE",
"EEEEEEEEEEEEEEE-%%%@+@+EEE%-84--%EEEEEE",
"EEEEEEEEEEEEEEEE-@@@@@+EEE%-88--%EEEEEE",
"EEEEEEEEEEEEEEEEE%@@@@%EEE@-8888%EEEEEE",
"EEEEEEEEEEEEEEEEE%@@@@%EEE@%ffq-@EEEEEE",
"EEEEEEEEEEEEEEEEEE+@@@@EEEE@fff-@EEEEEE",
"EEEEEEEEEEEEEEEEE%%@@@@EEEE@hzf@EEEEEEE",
"EEEEEEEEEEEEEEEE---%%%@EEEEf-8f@EEEEEEE",
"EEEEEEEEEEEEEEE48----%+EEEE-gBB8EEEEEEE",
"EEEEEEEEEEEEEE8ff8---**EEEEgBBzfEEEEEEE",
"EEEEEEEEEEEEEE*;;;***EEEEE-fhhh-EEEEEEE",
"EEEEEEEEEEEEEEEEEEEEEEEEEE@----@EEEEEEE",
"EEEEEEEEEEEEEEEEEEEEEEEEEE**+++*EEEEEEE"
};
