/* XPM */
static char *result[] = {
/* columns rows colors chars-per-pixel */
"44 59 105 2 ",
"   c #0B0B0B",
".  c #0F1700",
"X  c #171F07",
"o  c #131313",
"O  c #1B1B1B",
"+  c #13230B",
"@  c #17330F",
"#  c #232B0F",
"$  c #332B13",
"%  c #3F2F17",
"&  c #2F371F",
"*  c #232323",
"=  c #272727",
"-  c #2F2F2F",
";  c #373F27",
":  c #373737",
">  c gray23",
",  c #430000",
"<  c #470000",
"1  c #4F0000",
"2  c #530707",
"3  c #5B0000",
"4  c #5B0707",
"5  c #5F0707",
"6  c #670000",
"7  c #670B0B",
"8  c #6B0F0F",
"9  c #730000",
"0  c #7F0000",
"q  c #731313",
"w  c #771717",
"e  c #7F1B1B",
"r  c #43331B",
"t  c #4B371B",
"y  c #533F1F",
"u  c #732B00",
"i  c #533F2F",
"p  c #1F4317",
"a  c #27531B",
"s  c #3F472B",
"d  c #2F6323",
"f  c #37732B",
"g  c #5F4323",
"h  c #5B472B",
"j  c #474F33",
"k  c #574333",
"l  c #53573B",
"z  c #6B4727",
"x  c #774F2B",
"c  c #7F532F",
"v  c #67533F",
"b  c #434343",
"n  c gray28",
"m  c #4B4B4B",
"M  c gray34",
"N  c #6F5743",
"B  c #775F4B",
"V  c #5B6347",
"C  c #7B634F",
"Z  c gray39",
"A  c #777777",
"S  c gray50",
"D  c #8B0000",
"F  c #9B0000",
"G  c #831F1F",
"H  c #A70000",
"J  c #B30000",
"K  c #BF0000",
"L  c #8B2323",
"P  c #8F2B2B",
"I  c #972F2F",
"U  c #9B3333",
"Y  c #A33B3B",
"T  c #A73F3F",
"R  c #CB0000",
"E  c #D70000",
"W  c #E30000",
"Q  c #EF0000",
"!  c red",
"~  c #FF1F1F",
"^  c #AF4300",
"/  c #B74700",
"(  c #875733",
")  c #8F5F37",
"_  c #9B633B",
"`  c #C34F00",
"'  c #D75F0B",
"]  c #AF4747",
"[  c #B34F4F",
"{  c #BB5757",
"}  c #BF5B5B",
"|  c #836B57",
" . c #B37347",
".. c #937B63",
"X. c #9B7F6B",
"o. c #C76363",
"O. c #CB6B6B",
"+. c #9F876F",
"@. c #A78F77",
"#. c #AF977F",
"$. c #8B8B8B",
"%. c #939393",
"&. c #B79F87",
"*. c gray67",
"=. c #00FF00",
/* pixels */
"=.=.=.=.=.=.=.=.=.=.=.=.=.=.=.=.=.=.=.=.=.=.=.=.=.=.=.=.=.J =.=.=.=.=.=.=.=.=.=.=.=.=.=.",
"=.=.=.=.=.=.=.=.=.=.=.=.=.=.=.=.R B v =.=.H R =.=.=.=.=.=.=.=.=.=.=.=.=.=.=.=.=.=.=.=.=.",
"=.=.=.=.=.=.=.=.=.=.=.=.=.=.=.=.=.v H =.=.H F R g =.=.=.=.F =.=.=.=.=.=.=.=.=.=.=.=.=.=.",
"=.=.=.=.=.=.=.=.=.=.=.=.D =.=.=.=.R =.=.=.=.9 F =.=.=.J =.=.=.=.=.=.=.=.=.=.=.=.=.=.=.=.",
"=.=.=.=.=.=.=.=.=.=.=.=.=.=.=.%.=.=.=.=.=.=.=.=.=.F R J =.$.A | ..=.=.=.=.=.=.=.=.=.=.=.",
"=.=.=.=.=.=.=.=.=.=.=.=.=.=.=.=.=.=.=.=.=.=.=.=.F =.J ..@.*.A b +...=.=.=.=.=.=.=.=.=.=.",
"=.=.=.=.=.=.D =.=.=.=.=.=.=.=.J K =.=.=.=.=.S =.=.J k X.#.#.| Z &.| =.=.=.=.=.=.=.=.=.=.",
"=.=.=.=.=.=.=.=.=.=.=.=.=.=.0 0 0 H =.=.=.=.=.F 3 9 k v C ..N #.@.| @.=.=.=.=.=.=.=.=.=.",
"=.=.=.=.=.=.=.=.=.=.=.Q =.D 3 D J 0 6 =.=.=.F F 1 3 1 9 r h N | B X.| | =.=.=.=.=.=.=.=.",
"=.=.=.=.=.=.=.0 =.H H > =.=.3 1 H D 9 =.=.] H R H Y P , , , , r k k k N =.=.=.=.=.=.=.=.",
"=.=.=.=.=.=.=.0 J W K 0 =.=.=.3 1 9 =.=.U G e L U U , , 9 H ! D , r k =.=.=.=.=.=.=.=.=.",
"=.=.=.=.=.=.=.3 D H K D F =.=.=.1 1 =.=.F R L U 9 F , D , R H ~ D F i =.=.=.=.=.=.=.=.=.",
"=.=.=.=.F =.=.=.3 9 F J 6 =.6 , =.=.1 =.0 L 9 R 9 J F W D , F 9 ! K 0 =.=.=.=.=.=.=.=.=.",
"=.=.=.=.=.=.=.=.=.=.=.6 6 p , , , =.=.=.4 4 4 4 9 0 1 6 D 6 ! K 9 9 F 0 a =.=.=.=.=.=.=.",
"=.=.=.=.=.=.=.O =.=.0 =.p 9 6 T } O.] , , 1 1 , 1 , 6 D D 9 H D 9 F a f f a =.=.=.=.=.=.",
"=.=.=.=.=.=.=._ / 0 6 p 9 D G G 6 , 6 , 1 , 1 , 1 0 F J 0 H J D F K F F f d p =.=.=.=.=.",
"=.=.=.=.=.=._ ' F H J @ 1 e T } O.] , , , , 1 , , 0 0 F D 0 0 D K F 0 a d 0 p =.=.=.=.=.",
"=.=.=.=.=.K ` F H R @ @ D L 8 2 , , , , 1 , , , , =.0 1 1 6 6 D H J F $ p 1 6 , , =.=.=.",
"=.=.F =.=.D ` F 9 9 1 D 6 e } O.O.] , , =., , , , =.< 6 D { ] G 9 F @ t 6 z y , , =.=.=.",
"=.=.=.=.=.s V 9 x J 6 6 3 w , , , , , 1 1 1 =.=.=.< =.1 6 < 1 1 R 0 D F J D z y =.=.=.=.",
"=.=.=.=.=.( z y s t 6 3 D , 6 , , 6 3 =.=.=.=.=.=.=.I < < e o.] L 0 3 @ F D u z 0 =.=.=.",
"=.=.=.0 ` _ c y e ; ; D E D 6 6 , 3 1 , 1 1 =., =.=.=.=.4 < =.1 3 3 @ @ g l D y 1 =.=.=.",
"=.=.=.0 0 F R c w 6 6 =.6 , , , , =.=.1 =.=.=.=.=.=.=.I P w < =., 0 R U D z l t 1 0 =.=.",
"=.=.0 ^ T  ._ u 9 c 6 6 =.=.6 , , , , < < =.=.=.=.=.=.=.e < =.D R J % L R ) z l 1 1 D =.",
"=.w w L J U _ 0 , J 0 6 6 =.=.6 6 =.=.=.=.=.=.=.=.=.G I P w D R H D L R L ) y j 1 6 6 J ",
"w L e U U _ G , , 3 0 =., , =.=.=.=., =.=.=.=.=.=.=.=.4 7 1 D R D 8 8 2 8 z % ; 1 1 =.=.",
"q U D D D J D , , L =., , , , 6 =.=.=.=.=.=.=.=.=.w 5 < e < 1 D 8 2 2 2 L 6 0 1 1 =.=.=.",
"7 7 =.L G L U =., 0 6 , , , , =., , =.=.=.=.[ w =.7 , G 8 , , =.1 1 1 1 1 0 1 1 1 =.=.=.",
"=.=.7 U G G q =.=.0 =.=., , , =., =.=.=.=.[ e < w , < I 8 , , =.=.1 1 1 1 , =.=.=.1 =.=.",
"=.=.7 7 =.U 4 =.=.=.=.3 =.=.=.=.=.=.=.=.P e , < =.=.1 w , , , 1 1 1 1 1 =., , 0 =.=.=.=.",
"=.=.=.=.=.7 4 =.=.=.0 K F 9 =., , =.=.=.G , , , =.F I , , =.< 1 1 1 1 1 1 , , =.=.=.=.=.",
"=.=.=.=.=.=.=.=.=.3 0 K K F =., , =., =., < , < , 9 6 , , , + @ p p + 1 1 , =.=., =.=.=.",
"=.=.=.=.=., , =.=.3 D H K F , =., , , , , < < , , , , , =., + p d d a + 1 , , =.=.=.=.=.",
"=.=.=.=.=.0 0 , =.3 , =.q , { I =., , , , =., , 6 0 , 6 3 0 0 6 , a d p 1 , =.=.=.=.=.=.",
"=.=.=., =.D 0 , =.=.=.= O =.T w 0 , , =., , , 3 3 0 2 =.0 0 6 3 3 , p p 1 9 =.9 1 =.=.=.",
"=.=.=.=.=.=.=.=.=., , , , 3 T 3 K 0 p , , , , 0 F H H H F 0 q p + , , p 1 =.=.=.=.=.=.=.",
"=.=.=.=.=.3 =.@ @ , K F e 3 P 6 , , , p @ 3 0 0 0 6 , 0 0 0 p @ , , o + =.=.=.=.=.=.=.=.",
"=.=.=., =.=.=., , @ F H , 9 P 9 D p p , , 3 6 0 3 , =.9 3 6 6 6 , , O + , =., , , =.=.=.",
"=.=.=.=.=.=.=., , @ e D H 9 P 9 9 p d p @ , 1 6 6 9 9 , , 3 R F , 6 o =.=.=.=., , =.=.=.",
"=.=.=.=.=.=., , , , , 3 9 D F 9 9 0 K 0 , p F q 2 9 , , , =.O 4 , O o =.=.=.=.=.=.=.=.=.",
"=.=.=.=.=.=.=.=.@ D D , , I I K 9 , 0 , , D J D o F , , =., - - - ,   , , =., =.=.=.=.=.",
"=.=.=.=.=.3 =., , @ D 2 0 0 0 D D 2 @ + @ p a q 4 9 F , - * - O o o =., , =.=.=.=.=.=.=.",
"=.=.=.=.=.=.=., , , , , 3 H H 9 , 8 a + + @ 1 1 1 , * - - o o o o =.=., , =.=.=.=.=.=.=.",
"=.=.=.=.=.=.=.=.@ 0 @ 6 D 9 3 , , a p 0 + , @ a * - M m : o o H 0 X =.=.=.=.=.=.=.=.=.=.",
"=.=.=.=.=.3 =.=.@ 0 0 @ 6 3 , , , p 0 X . , 0 - - m m : - o 1 0 8 X , =.=.=.=.=.=.=.=.=.",
"=.=.=.=.=.=.=.=.=.=., , @ 0 p @ , 4 4 . - n - O O o - * 3 9 X X X 4 =., =.=.=.=.=.=.=.=.",
"=.=.=.=.=.=.=.=.3 3 =.=., # # 0 ,   - n - O O O o O * , , , , X 1 =.=.=.=.=.=.=.=.=.=.=.",
"=.=.=.=.=.=.=.=.3 3 =.=.=.# & # - n - O O O o o * * 3 1 X X # 1 =.=.=.=.=.=.=.=.=.=.=.=.",
"=.=.=.=.=.=.=.=.=.=.=.=.=.=.# - n - O O o o - - * # 1 3 1 8 & =.=.=.=.=.=.=.=.=.=.=.=.=.",
"=.=.=.=.=.=.=.=.=.=.=.=.=.=.=.- o O o o - - * O 1 7 # 1 # 7 ; 1 =.=.=.=.=.=.=.=.=.=.=.=.",
"=.=.=.=.=.=.=.=.=.=.=.=.=.=.- - O o o - * O O 1 1 X , , , , ; =.=.=.=.=.=.=.=.=.=.=.=.=.",
"=.=.=.=.=.=.=.=.=.=.=.=.=.n m n - * O O O , =.1 1 X < < < 2 $ =.=.=.=.=.=.=.=.=.=.=.=.=.",
"=.=.=.=.=.=.=.=.=.=.=.n m m n - * O O , , , =.=.=.2 2 2 2 X < =.=.=.=.=.=.=.=.=.=.=.=.=.",
"=.=.=.=.=.=.=.=.=.=.: m m : - O O O < 1 , < =.=.1 2 2 2 2 2 < =.=.=.=.=.=.=.=.=.=.=.=.=.",
"=.=.=.=.=.=.=.=.=.- - : - O O O O < 1 , , < =.=.1 2 2 2 2 2 , =.=.=.=.=.=.=.=.=.=.=.=.=.",
"=.=.=.=.=.=.=.=.- - - O O O o , , , , < < =.=.=.< 2 7 7 7 5 , =.=.=.=.=.=.=.=.=.=.=.=.=.",
"=.=.=.=.=.=.=.=.* O O O O =.=.=.=.=.=.=.=.=.=.=.< 2 5 q q 2 , =.=.=.=.=.=.=.=.=.=.=.=.=.",
"=.=.=.=.=.=.=.=.- O O =.=.=.=.=.=.=.=.=.=.=.=.=.< , 2 2 2 2 , =.=.=.=.=.=.=.=.=.=.=.=.=.",
"=.=.=.=.=.=.=.=.=.=.=.=.=.=.=.=.=.=.=.=.=.=.=.=.=.< , , , , =.=.=.=.=.=.=.=.=.=.=.=.=.=."
};
