/* XPM */
static char *result[] = {
/* columns rows colors chars-per-pixel */
"55 47 77 1 ",
"  c #131313",
". c #1B1B1B",
"X c #13230B",
"o c #17330F",
"O c #332B13",
"+ c #232323",
"@ c #2F2F2F",
"# c #430000",
"$ c #470000",
"% c #4F0000",
"& c #530707",
"* c #5B0000",
"= c #5B0707",
"- c #5F0707",
"; c #670000",
": c #670B0B",
"> c #6B0F0F",
", c #730000",
"< c #7F0000",
"1 c #731313",
"2 c #771717",
"3 c #7F1B1B",
"4 c #43331B",
"5 c #4B371B",
"6 c #533F1F",
"7 c #533F2F",
"8 c #1F4317",
"9 c #27531B",
"0 c #5F4323",
"q c #574333",
"w c #5F4B37",
"e c #7F532F",
"r c #67533F",
"t c gray34",
"y c #6F5743",
"u c #775F4B",
"i c gray39",
"p c #6F6F6F",
"a c #777777",
"s c gray50",
"d c #8B0000",
"f c #9B0000",
"g c #831F1F",
"h c #A70000",
"j c #B30000",
"k c #BF0000",
"l c #8B2323",
"z c #8F2B2B",
"x c #972F2F",
"c c #9B3333",
"v c #A33B3B",
"b c #A73F3F",
"n c #CB0000",
"m c #D70000",
"M c #E30000",
"N c red",
"B c #AF4300",
"V c #9B633B",
"C c #C34F00",
"Z c #D75F0B",
"A c #AF4747",
"S c #B34F4F",
"D c #BB5757",
"F c #836B57",
"G c #8B735B",
"H c #B37347",
"J c #937B63",
"K c #C76363",
"L c #9F876F",
"P c #A78F77",
"I c #AF977F",
"U c #8B8B8B",
"Y c #939393",
"T c #B79F87",
"R c #BFA78F",
"E c #00FF00",
"W c #00FF00",
/* pixels */
"WWWWWWWWWWWWWWWWWWWWWWWWWWWWWWWWWWWWWWWWWWWWW<WWWWWWWWW",
"WWWWWWWWWWWWWWWWWWWWWWWWWWWWWWWWWWWWWWWWWWWWWfWWWWWWWWW",
"WWWWWWWWWWWWWWWdWWWWWWWWWWWWWWWWWWWWWWWWWWWWWWWdWWWWWWW",
"WWWWWWWWWWWWWWWWWWWWW;WWWWWWWWWWWWWWWWWWWWWWWWWWWWWWWWW",
"WWWWWWWWWWWWWWrwWWWWWWWWWWWWWWWWWWWWWWWWWWWPTTEUFWWWWWW",
"WWWWWWWWW<WWWWw<WWWWWnjWWWWWW#WWWWWWWWWW#,dyuJPatGWWWWW",
"WWWWWWWWWWWWWWfWWWWWW<f0WWWWWWWWWWWWWWlAhnh,wFJIiLJWWWW",
"WWWWWWWWWW*WWWWWWWWWWW<WWWWWWWWWWWWWWlfg3lckh#7FPPJWWWW",
"WWWWWWWWkWWWWWWWWWWWWWWWWWWWWWWWWWWWWlfn3;%%#d#uTRLWWWW",
"WWWWWWWWWWWWWW##WWWWWWWWWWWWWWWWWWWWWW,n;3;%%jdqqFFWWWW",
"WWWWWWWWWW<WYW##WWWWWWWWWWWWWWWWWWWWWW333;%%%,M#qqyWWWW",
"WWWWW<W;WWWWWWWWWWpWWWWWWWsWWWWWWWWWWWWW<;%%%,j4q7WWWWW",
"WWWWWWW;WWWWWWWWWWWW##WWWWWWWWWWWWWWWWWWW%%%%,ff7WWWWWW",
"WWWWWW,<W<WWWWWWW<WW##WWWWWWWWWWWWWWWWWW%;####,WWWWWWWW",
"WWWWWWh,h,WWWWWWWWWWWWWWWWWWWWWWWWWWWWWWWWW###WWWWWWWWW",
"WWWWWWhhh,WWWhfWWWW<WWWWWWWWWW%WWWW%%WWWWWWWWWWWWWWWWWW",
"WWWWWW<jMkWWjnh;#WWWWWWWWWWWWWWWWWW%%WWWWWWWWWWWWWWWWWW",
"WWWWWW*dhdW*%hd,#WWWWWW#WWWWWWWWWWWWWWWWWWWWWWWWWWWWWWW",
"WWWWWWW*,W;%*%;%WWWWWW##WWWWWWWWWWWWWWWWWWWWWWWWWWWWWWW",
"WWWWWWWWWWWW###WWWWWWW###WWWWWWWWWWWWWWWWWWWWWWWWWWWWWW",
"WWWWWWWWWWWWWWWWWWWW<f,##WWWWWWWWWW%%WW<#%W,WWWWWWWWWWW",
"WWWW<WWWWWWWWWW*WWW%hkh%#WWWWWWWWWW%%W<j<%W,d,W%WWWWWWW",
"WWWWWWWWWW*WWWWWWWW##d,##WW<WWWWWWWWW#,<#WWdNkhh,WWWWWW",
"WWWWWWWWW<*WWWWWWWW#;;%%#WWWWWWWWWWWW%%%gbDDbcfmf,8WWWW",
"WWWWWW<WW**WW*,WWWW#*<*#WWWWWWWWWWWWWWWWbDbDDDbf<<98WWW",
"WWWWWWWWlDWWW**WbWWW####WWWWWWWWWWWWWWW,%WW3ccx,%*d9WWW",
"WWWWWWWWlcWWWWWW3lWWWWWWWWWWWWWWWWWWWWd<%W,,W#*,%,f;8WW",
"WWV<;#W:2DWWWWWW%SWWWWWWWWWWWWWWWWWWWW%%WW#%W%*,%,f<9WW",
"WVZhj#9,bvWWWWWW23fWWWWWW#WWWWWWWWW#WWWWWW;%W*###%%%;fW",
"kCfnd;9hbKWWWWW*zSxWWWWWWWWWWWWWWWWWWWWWW;z;%####*;;f+<",
";<Cedd8<bx>WWW-*2xvWWWWWWWWWWWdWWWWWWWWWWl,,##,#*#*#;f6",
";<<n;#ohfgKKz#*##ggW#%WWWWWWWWWWWWWWWWWz3%l1,,>**<d#*#<",
"5<BH5%XodbDDK;$##o$><*<WWWWWWWSSSWWWWWz$v31zg<<dnhdln##",
"2lcVg#*X,%,zAx$#;98#%8f*WWWWWSxgg2W:#z;#;%%WWW2dnd>>&#%",
"1cdjdooof%==zAg*,oo#%djd*W*WWx::<$#$z;##;,WWWW%%d>&&&#O",
"::llc98fh;#==zv<,<<8%o8#h,***####Wz<*%##djWWWW$#Xo###<W",
"W:cg1k93d;d#=*dz,#k<##$of,%#*%$%<<%%#W#%f##WWW##o8o#%%#",
"WW:c=kk##od&x3*3d&<###$=,f%,*,j*fh%Sx#,<#*<WWWd%h*oo%%,",
"WW#:=hk,####*===#>o8XX#o<<fd,#,d<<>zz####m*,*<djh<#%oXW",
"WWWWWWW##o8#%%%*#o8oooXX;#dj<o&djj3==##,mff;#%<hhf%,oXW",
"WWWWWWW#o<9;%*###o<<;$$Xo8;d<8od*d==###dd&nf#%*d<<9o#o*",
"WWWW;<<#o<<oX*XX#==X#$$##XX#o8d;;%###f,#o%f=o%#;88o8W**",
"WWWWW*f*%%%%#XX+@@@@@@+. .+.oo;;d<##,,,,%<#X8W####*8WWW",
"WWWWWWWW;;%%%%.++++++.....  #oo:d<;;#<>8#$XoWWWWWW<#WWW",
"WWWWWWWWWWWWWWW......WWWWWWW#$oX;#;;####$WWWWWWWWW##WWW",
"WWWWWWWWWWWWWWWWWWWWWWWWWW#;,#$X$$#&###;;#WWWWWWWWWWWWW",
"WWWWWWWWWWWWWWWWWWWWWWWWWWWWWW#######WWWWWWWWWWWWWWWWWW"
};
