/* XPM */
static char *result[] = {
/* columns rows colors chars-per-pixel */
"40 55 83 1 ",
"  c black",
". c #171F07",
"X c #131313",
"o c #1B1B1B",
"O c #13230B",
"+ c #17330F",
"@ c #2B230F",
"# c #232B0F",
"$ c #3F2F17",
"% c #2F371F",
"& c #232323",
"* c #272727",
"= c #2F2F2F",
"- c #373F27",
"; c #373737",
": c gray23",
"> c #43331B",
", c #533F1F",
"< c #4F3B23",
"1 c #1F4317",
"2 c #27531B",
"3 c #3F472B",
"4 c #2F6323",
"5 c #37732B",
"6 c #5F4323",
"7 c #474F33",
"8 c #574333",
"9 c #5F4B37",
"0 c #53573B",
"q c #6B4727",
"w c #774F2B",
"e c #7F532F",
"r c #67533F",
"t c #775F3F",
"y c #434343",
"u c gray28",
"i c #4B4B4B",
"p c gray31",
"a c gray34",
"s c #5B5B5B",
"d c #6F5743",
"f c #775F4B",
"g c #5B6347",
"h c #676B4F",
"j c gray39",
"k c gray42",
"l c #6F6F6F",
"z c #7B7F63",
"x c #777777",
"c c #8F5F37",
"v c #9B633B",
"b c #A36B3F",
"n c #836B57",
"m c #8B735B",
"M c #AB6F43",
"N c #B37347",
"B c #BF7B4B",
"V c #937B63",
"C c #9B7F6B",
"Z c #3F832F",
"A c #439337",
"S c #4B9F3F",
"D c #53AF47",
"F c #5BBF4F",
"G c #5FCF57",
"H c #67DF5F",
"J c #6FEF67",
"K c #9F8363",
"L c #9F876F",
"P c #A78F77",
"I c #AF977F",
"U c #CF8353",
"Y c #D78B5B",
"T c #DF9363",
"R c #E79B6B",
"E c #EFA373",
"W c #FFB37B",
"Q c #838383",
"! c #8B8B8B",
"~ c #939393",
"^ c #B79F87",
"/ c #BFA78F",
"( c #00FF00",
/* pixels */
"(((((((((((((((I^^I(((((((((((((((((((((",
"(((((((((((((L/VnnnV((((((((((((((((((((",
"((((((((((((I/P/////LV((((((((((((((((((",
"(((((((((((I^n::::::=dn(((((((((((((((((",
"((((((((((PhL:px!~xsu=m(((((((((((((((((",
"(((((((((PhhI:skQQksu:LV((((((((((((((((",
"((((((((((nh/PskllkauCIV((((((((((((((((",
"((((((((((yd//PjKIKaC/L(((((((((((((((((",
"((((((((ZZl:LndII^PVdnC(((((((((((((((((",
"((((5SHJJJFyy88rfffrr;jA5(((((((((((((((",
"(((5GJJJJJJ1y=*$>*>**&HHHHFS((((((((((((",
"((4SDGHJJHFZ2=====**O1SHJHHF5(((((((((((",
"((5DDDDFFSJFDS1+OO+12ZGZHHFSZ(((((((((((",
"((5ZASSZ5GHGFGD4O+4ADSFZZDSSZ2((((((((((",
"((9124Z12SDDDDDD24ADSDDD4SAAA5((((((((==",
"(beTBbw4&5ASSSSAZ5ASAAAA+542>((((((====&",
"(eMTEEEU&O55Z55452ZZAZ41+@9N<((::==*o   ",
"(qBYYRBcX+1111+15Zo1ooooO9UUYpaiy*    ((",
"(qbTUBbe+11114Z54oooo2&oo=;paapy;o (((((",
"(s^//Lh1+11211ooo4O12uu&&&&aiy=&&=((((((",
"zzh//Pz++11+XXoZZ4uuuu;*&XX=&oooo(((((((",
"03bWEEUw++XX225uuu;=*oo&&XooX*bcv(((((((",
"-3vUEEUv++o&uuu;=&ooo&&&&X*ooc9<9(((((((",
"3&ttUEpuup;;:;*ooo&&&==*&X((c>><((((((((",
"(&tpuuu:;=o&&oo&&&&==++1((((((((((((((((",
"((uu;=&oooo&&&&&&o=ooo4+((((((((((((((((",
"((==&ooooooo*===o24oo12O((((((((((((((((",
"((=oooooooo>o@oo554114A1((((((((((((((((",
"(((ooooo4,,qq6oo1+Z441ZZ5(((((((((((((((",
"((((XooS52,66,oo4ZS424441(((((((((((((((",
"(((((O2ZZ5Z,,>111GDZ5442+(((((((((((((((",
"(((((O24ZAAGA2211+ZZ5424+(((((((((((((((",
"(((((O124ZAZ152O24114224+(((((((((((((((",
"(((((21124425541+1221241+(((((((((((((((",
"((((((+2244254214211112+((((((((((((((((",
"((((((12112224412521111O((((((((((((((((",
"((((((1211222451+221111O((((((((((((((((",
"((((((12211124412111111O((((((((((((((((",
"((((((+2211222211422111O((((((((((((((((",
"((((((%3000033g(+301111(((((((((((((((((",
"((((((%70777730--33gg3=(((((((((((((((((",
"(((((((%733333%#-77777-(((((((((((((((((",
"(((((((#-3333%%%%33773-(((((((((((((((((",
"(((((((%---%#3&-#%3333((((((((((((((((((",
"(((((((-g73-3-(=%%%%#(((((((((((((((((((",
"(((((((-77733-(-#%%-((((((((((((((((((((",
"((((((((3073%((-#%%#((((((((((((((((((((",
"((((((((%---#((%##%#((((((((((((((((((((",
"((((((((%--7#((%.###((((((((((((((((((((",
"((((((((3ggg7((%####((((((((((((((((((((",
"((((((((hVLz3((#####((((((((((((((((((((",
"((((((((hLIVh((#####((((((((((((((((((((",
"((((((((gLLzh(((###(((((((((((((((((((((",
"((((((((ghh07(((((((((((((((((((((((((((",
"((((((((773==((((((((((((((((((((((((((("
};
