/* XPM */
static char *result[] = {
/* columns rows colors chars-per-pixel */
"14 16 12 1 ",
"  c #2F2F2F",
". c #430000",
"X c #7F0000",
"o c #8B0000",
"O c #9B0000",
"+ c #A70000",
"@ c #B30000",
"# c #BF0000",
"$ c #CB0000",
"% c #D70000",
"& c #E30000",
"* c #00FF00",
/* pixels */
"*...*******..*",
".+%O.*****.$.*",
".XOo. ***.o+. ",
".XOo. **.+OO. ",
"*...  *.#++X. ",
"**   *.$#@X. *",
"*****.@##X. **",
"****.&+#X. ***",
"***.&%@X. ****",
"**.%&%X. *****",
"*.+%&X. *...**",
".#@$X. *.+%%.*",
".@+X. **.X+O. ",
".oX. ***.XOO. ",
"... *****...  ",
"*  *******   *"
};
