/* XPM */
static char *result[] = {
/* columns rows colors chars-per-pixel */
"14 16 14 1 ",
"  c #2F2F2F",
". c #430000",
"X c #4F0000",
"o c #5B0000",
"O c #670000",
"+ c #730000",
"@ c #7F0000",
"# c #8B0000",
"$ c #9B0000",
"% c #A70000",
"& c #B30000",
"* c #BF0000",
"= c #CB0000",
"- c #00FF00",
/* pixels */
"----.....-----",
"--..@$&#$..---",
"-.o$+#$o+%o.--",
"-.%%@##OO*$. -",
".@%%@O.Xo*$@.-",
".+%#@. .O*$#. ",
".o%#@.-.+&$@. ",
".o$##.-.+*#@. ",
".o$##.-.@=$#. ",
".+%&#.-.@*$#. ",
".@%&#$.&#*$@. ",
"-.@&@#%%@*%.  ",
"-.XO+O$%@@o. -",
"--..Oo#Oo..  -",
"--- .....   --",
"-----     ----"
};
