/* XPM */
static char *result[] = {
/* columns rows colors chars-per-pixel */
"101 63 17 1 ",
"  c #430000",
". c #4F0000",
"X c #5B0000",
"o c #670000",
"O c #730000",
"+ c #7F0000",
"@ c #8B0000",
"# c #9B0000",
"$ c #A70000",
"% c #B30000",
"& c #BF0000",
"* c #CB0000",
"= c #D70000",
"- c #E30000",
"; c #EF0000",
": c red",
"> c #00FF00",
/* pixels */
"                                >            >>>>>>>>>            >>>>>>>>>                         >",
" oooooooooooooooooooooooooooooo > oooooooooo >>>>>>>>> oooooooooo >>>>>>>  oooooooooooooooooooooooo >",
" o$$&&&&------;;;;;;--==**==%%o > o*%*-;=%&o >>>>>>>>> o$%*&=*$#o >>>>>  oo%%&&*&&=*=&--======&&%%o >",
" o##$%********=;;===&&%%$$%&##o > o&$&*;=%&o >>>>>>>>> o$$&%**$#o >>>> oo$#%%&&*&&---&****&&&&&&#%o >",
" o+$%%#+@@@@@#$*=**&%$@@@@##@+o > o%$%%*$@#o >>>>>>>>> o#@$$%&@@o >>> o#&&$&$&&&%&**&%%%$$%$#@+%+#o >",
" +#$#+Oo.....o+#%**&%$$$##$##@o > o##%%%$@#o >>>>>>>>> o#@#$#$@@o >> o@$&&$&%&&&%&**&%%%$$%$#@+%#+o >",
" @##+o..>>>>>..+#%*&%$#@@@@@++o > o##$$%$+@o >>>>>>>>> o#@###$@@o >> o$%&&%&$&&&%#%#@###@@#@#@@%##o >",
" @@Oo.>>>>>>>...@#*&@@++@###@@o > o@#$$%$+@o >>>>>>>>> o#@@###@@o > o@$#&&%&%&&$$$$$##$$$$$$$$$###o >",
" oOX.>>>>>>>>>>>o#&#ooooooooooo > o@#$$$#+@o >>>>>>>>> o#@@@@#$#+oXo+$%&&*&&$oooooooooooooooooooooo >",
"  XX>>>>>>>>>>>>.@%#o           > o@@$#$#+#o           o#@++@#%%@ooo+#%&=;=&$o                      >",
">>  >>>>>>>>>>>>>@%#o >>>>>>>>>>> o@@%#$#+#ooooooooooooo#@++@##+oX  o+#$&*=*$+o              >>>>>>>>",
">>> >>>>>>>>>>>>>@&#o >>>>>>>>>>> o#@%%$#@#%%**-----*&$$#@O@##++X  >>Xo@#%**$#+ooooooooooooo >>>>>>>>",
">>>>>>>>>>>>>>>>>#&$o >>>>>>>>>>> o#@%%%#@#$$%%&&&&&$$###@O@#@OX >>>>>>o+#%*&%&*%**-----*&$o >>>>>>>>",
">>>>>>>>>>>>>>>>O%&$o >>>>>>>>>>> o#@%&&##$#######@#@@+##++@#@X  >>>>>>>>O#%&$%%%%%&&&&&$$$o >>>>>>>>",
">>>>>>>>>>>>>>>>$*&$o >>>>>>>>>>> o#@%&&##$#######@#@@+@#+@@@@.>>>>>>>>>>>+#&$###$#$$###@@$o >>>>>>>>",
">>>>>>>>>>>>>>>#=;*$o >>>>>>>>>>> o#@%&&##$#@@@@@@@#@@+@#@@@+o  >>>>>>>>>>o@&$###$#$$#@@@@$o >>>>>>>>",
">>>>>>>>>>>>>>#&-;*$o >>>>>>>>>>> o#@%&%$#$##########@@##@@@+X>>>>>>>>>>>>>@%$@@@$@##@+++@#o >>>>>>>>",
">>>>>>>>>>>>O$&-:;*$o >>>>>>>>>>> o#@%&%$#$+oooooooooooo#@@++X>>>>>>>>>>>>>+%$###$#$$@+++@#o >>>>>>>>",
">>>>>>>>> oo$*:::=*$o >>>>>>>>>>> o#@%&&$@#o           o#@@++X>>>>>>>>>>>>>+$#oooooooooooooo >>>>>>>>",
">>>>>>>>.o##*-::-**%o >>>>>>>>>>> o##%&&$@#o >>>>>>>>> o#@@@+o>>>>>>>>>>>>>@$@o              >>>>>>>>",
">>>>>>>.  o@%*=***&%o >>>>>>>>>>> o##%&&$@#o >>>>>>>>> o#@+@+o>>>>>>>>>>>>>#$+o                     >",
">>>>>> >>  o#$&&*=&%o >>>>>>>>>>> o$$%&&$##o >>>>>>>>> o#@O@+@o>>>>>>>>>>>@$$+ooooooooooooooooooooo >",
">>>>>>>>>> o@#%**=&%o >>>>>>>>>>> o$$$&&$##o >>>>>>>>> o#@O+#@o>>>>>>>>>>>$&=%#**==;;;;;;;--==&*%%o >",
">>>>>>>>>> o#&-=--&%o >>>>>>>>>>> o#$$&=&$$o >>>>>>>>> o#@Oo@#@+>>>>>>>>>@%=&$$&&%%&&&%&&&&&&%$%##o >",
">>>>>>>>>> o#&;;--*$o >>>>>>>>>>> o#$$&=&$$o >>>>>>>>> o#@Oo@#$@o >>>>>@$&-=%$%%%%%&&&%%%&&%%%$%##o >",
">>>>>>>>>> o#&;;--*$o >>>>>>>>>>> o@$#&=&$$o >>>>>>>>> o#@Ooo@#$@o >> O@&==%$#$$######@@@@########o >",
">>>>>>>>>> o@&-*%%*@o >>>>>>>>>>> o+#@%%#@@o >>>>>>>>> o@OoXooO@#+    o#$$&$@@#$@@@###++++++++@@@@o >",
">>>>>>>>>> o@%**%%&@o >>>>>>>>>>> o+#@$##+@o >>>>>>>>> o@+XXOoXXo   >>   oo@@%%%%%$$$###$$$%%%%$$$o >",
">>>>>>>>>> oooooooooo >>>>>>>>>>> oooooooooo >>>>>>>>> oooooooo.. >>>>>>>  oooooooooooooooooooooooo >",
">>>>>>>>>>            >>>>>>>>>>>            >>>>>>>>>            >>>>>>>>>                         >",
">>>>>>>>>>>>>>>>>      XX>>>>>>>>>>>>>>>>>>>>>>>>>>>>>>>>>>>>>>>>>>>>>>>>>>>>>>>>>>>>>>>>>>>>>>>>>>>>",
">>>>>>>>>      Xo+o.>.oo+@@o      >>>>     >>>>>>>>>>>>            >                        >>>>>>>>>",
">>>>>>>  oooO+#%%o.>>>>.o+%$@oooo >>>  oooo  >>>>>>>>>> oooooooooo > ooooooooooooooooooooooo  >>>>>>>",
">>>>>  oo%%&&*-$#.>>>>>>.X#=-&#%o >>  o&&$$+o >>>>>>>>> o#%*&**#@o > o@@$$&&&&&&&&====&&%$@OX   >>>>>",
">>>> oo$#%%&&=&#o>>>>>>>>>+#**#%o >> o#%&$%*$o >>>>>>>> o#%*&**#@o > o@@#$$$%%%%%%&**&%%##@@+oX  >>>>",
">>> o#&&$&$&*&#+>>>>>>>>>>>o+*+#o > o+%%&%%**$o >>>>>>> o+%##&&#Oo > o+++@##@#@@@###@+@#####@+oX  >>>",
">> o@$&&$&%&*$@o>>>>>>>>>>>XO%@+o > o+%%&%%***+o >>>>>> o+%$#%%#Oo > o++++@@+#++@###@+@#@####@@oX  >>",
">> o$%&&%&$&&#+>>>>>>>>>>>>>X%@#o > o+%%&%%&%**$o >>>>> o@$%$$%#Oo > oOOO@@@O@OO+###@o+#@@#@###@OX >>",
"> o@$#&&%&%&&@X>>>>>>>>>>>>>.#@#o > o+#%&%%&%%**$o >>>> o@%*%$$#Oo > oOOO++++++++@@@++++@@#@####OX >>",
"> o@$%&*&&$++. >>>>>>>>>>>>> oooo > o+#%&&%&%$$%*%o >>> o@%=*$$#Oo > ooooooooooooooooXo+++##@@#@@OX >",
"> o@$&&*&&$o  >>>>>>>>>>>>>>>     > +$&**&%&%$##%*&o >> o@&=*%%#+o >                  O@@+@++@@##@X >",
"> o@$&&*&&$o  >>>>>>>>>>>>>>> >>>> +#&&==**&%$##%&*%o > o@&=*%%#+o >            >>>>> OOoXOooXOO@#X >",
"> o$$&&*&&$O+o.>>>>>>>>>>>>>>>>>>  Xo+#%%==*%$@$%&%*$o  o@$**%%#@o > oooooooooo >>>>>>  .X>>>.>XO@+o>",
"> o$$&&=*&&%**@O>>>>>>>>>>>>>>>>>> .oo+@@$==*$@$%&%&*%o o@$**%%#@o > o#&----&*o >>>>>> >>>>>>>>>.O+o ",
"> o&$&&=*&%$%%%@@>>>>>>>>>>>>>>>>>>> .oO++#&=$#$%&%%**$oo@$&&#%#+o > o#&**==&*o >>>>>>>>>>>>>>>>..o+ ",
"> o$$&&=*&$@#%%$#@+>>>>>+o  >>>>>>>>>>>..++#%&#$%&%%%**#O@$&&#%#+o > o@&&*&&$&o >>>>>>>>>>>>>>>>>>X+ ",
"> o*$&&=*&$@@#%%%%$#@@@@$@O..>>>>>>>>>>>>o+@$&##%&$%#&%##$$&&$%#+o > o@$&*&&#%o >>>>>>>>>>>>>>>>>>>o ",
"> o*$&&-=%%@@++@@#%%****%@X>>>>>>>>>>>>>>>o+#%##%&$%#&%##$$&&$%#+o > o%$&*%%$%o >>>>>>>>>>>>>>>>>>>o ",
"> o*$&&-=%%###@+++@@#####o.>>>>>>>>>>>>>>>.o##O#$%$%#&%##%$&&$%#+o > o%$&*%%$%o >>>>> >>>>>>>>>>>>>X ",
"> o*$&%-=&$ooooXXX........ >>>>>>>>>>>>>>>>o#@o+@%#$@&%#$%$&&$$#+o > o&$&&%%$%o >>>>>> >>>>>>>>>>>>X ",
"> o$$&%-=&$o              o>>>>>>>>>>>>>>>>.@@ oO$@$@%%$%%#%$$$#@o > o%$&&&&$%o >>>>>  >>>>>>>>>>>>X ",
"> o$$&%-=&$o              oo>>>>>>>>>>>>>>>.@+  o@O#@%%$%%#%$$$#@o > o@$&&&&#%o        >>>>>>>>>>>XX ",
"> o&$&$-=&$ooooooooooooooo@#o>>>>>>>>>>>>>>o@+ > oO#@$$$%%#%$$%#@o > o#$&&*&#%ooooooooO>>>>>>>>>>>X  ",
"> o$$%$--&&****==;;;;;;;--==@o>>>>>>>>>>>>.o@O >> oO@$##$%%&%$%#@o > o$$&&*&&&*&----*-&$>>>>>>>O>Xo >",
">> @$#$--&&&&&&%%&&&%&&&&&&*$@o>>>>>>>>>>>Xo@O >>> oO#@#$%%&%$%#@o > o$$&&*&&&*&*****%%&#@>>>>OOo+  >",
">> o@@$&&&&%%%%%%&&&%%%&&%%*%@o>>>>>>>>>>Xo@#o >>>> oO+#@##%%**#Oo > o#$&&==*******&&%$%&$#@@@@@#O >>",
">>> o@$&&$$#$$######@@@@##$**$@o>>>>>>>>Xo+#@o >>>>> oO#+##%%**#Oo > o#$&&==********&&$##&%$##@#O >>>",
">>>> o@$&$@@#$@@@###++++++@$**$@o>>>>>Xo+@$$+o >>>>>> oO+@@$$##Oo >> o+$##%%###$%%$%$%#+O@@@@+O. >>>>",
">>>>>  oo@@%%%%%$$$###$$@@++@$*$o > oo+@#$$+Xo >>>>>>> oO@@##@@o  >> o+##O##OO@#@#@#@+O@ooXXX.  >>>>>",
">>>>>>>  ooooooooooooooooooooo@@o   o@@##+O..o >>>>>>>>  oooooo  >>> oooooooooooooooooooX...  >>>>>>>",
">>>>>>>>>                            ..        >>>>>>>>>>      >>>>>                        >>>>>>>>>",
">>>>>>>>>>>>>>>>>>>>>>>>>>>>>>          >>>>>>>>>>>>>>>>>>>>>>>>>>>>>>>>>>>>>>>>>>>>>>>>>>>>>>>>>>>>>",
">>>>>>>>>>>>>>>>>>>>>>>>>>>>>>>>> >>>>>>>>>>>>>>>>>>>>>>>>>>>>>>>>>>>>>>>>>>>>>>>>>>>>>>>>>>>>>>>>>>>"
};
