/* XPM */
static char *result[] = {
/* columns rows colors chars-per-pixel */
"20 19 34 1 ",
"  c black",
". c #170F07",
"X c #1F170B",
"o c #332B13",
"O c #3F2F17",
"+ c #430000",
"@ c #4F0000",
"# c #5B0000",
"$ c #670000",
"% c #730000",
"& c #7F0000",
"* c #43331B",
"= c #4B371B",
"- c #533F1F",
"; c #533F2F",
": c #5F4323",
"> c #5F4B37",
", c #6B4727",
"< c #774F2B",
"1 c #7F532F",
"2 c #875733",
"3 c #8F5F37",
"4 c #9B633B",
"5 c #A36B3F",
"6 c #AB6F43",
"7 c #B37347",
"8 c #BF7B4B",
"9 c #CB7F4F",
"0 c #CF8353",
"q c #D78B5B",
"w c #DF9363",
"e c #E79B6B",
"r c #EFA373",
"t c #00FF00",
/* pixels */
"tttttt8qqqqqq8tttttt",
"tttt59qerrrewq86tttt",
"ttt57qerrrrrew076ttt",
"tt469qwwweewwwq954tt",
"tt4577556875457642tt",
"tt262-+++<<+++-2623t",
"t252#@@@+33+@@@#25<t",
"t,6=##$$#<<#$$##=6<t",
"1<6:#$%$<..<$$&#:613",
"<345803<-..-<388543<",
",131,-O<O..O<O-,131,",
">=O==O,3,33,3,OOOO=>",
"tO. .o17799771o. .Ot",
"t*O..O:=OooO=:O..O*t",
"t;:.=-,140041,-=.:;t",
"t;,<::<<2222<<::<,;t",
"t>,:-o.       o-:,>t",
"tt,-X..........X-,tt",
"ttttt..........ttttt"
};
