/* XPM */
static char *result[] = {
/* columns rows colors chars-per-pixel */
"64 46 73 1 ",
"  c #332B13",
". c #232323",
"X c #2F2F2F",
"o c #373737",
"O c #430000",
"+ c #470000",
"@ c #4F0000",
"# c #530707",
"$ c #5B0000",
"% c #5B0707",
"& c #5F0707",
"* c #670000",
"= c #670B0B",
"- c #6B0F0F",
"; c #730000",
": c #7F0000",
"> c #731313",
", c #771717",
"< c #7F1B1B",
"1 c #6B4727",
"2 c #434343",
"3 c gray28",
"4 c gray31",
"5 c gray34",
"6 c #5B5B5B",
"7 c gray39",
"8 c gray42",
"9 c #6F6F6F",
"0 c #777777",
"q c #8B0000",
"w c #9B0000",
"e c #831F1F",
"r c #A70000",
"t c #B30000",
"y c #BF0000",
"u c #8B2323",
"i c #8F2B2B",
"p c #972F2F",
"a c #9B3333",
"s c #A33B3B",
"d c #A73F3F",
"f c #CB0000",
"g c #D70000",
"h c #E30000",
"j c #EF0000",
"k c red",
"l c #FF1F1F",
"z c #FF3F3F",
"x c #8F5F37",
"c c #9B633B",
"v c #AF4747",
"b c #B34F4F",
"n c #BB5757",
"m c #BF5B5B",
"M c #AB6F43",
"N c #C76363",
"B c #CB6B6B",
"V c #D37373",
"C c #DB7B7B",
"Z c #CF8353",
"A c #8B8B8B",
"S c #939393",
"D c #979797",
"F c #9F9F9F",
"G c #A7A7A7",
"H c gray70",
"J c #DF8787",
"K c #E78F8F",
"L c #EB9797",
"P c #F3A3A3",
"I c #F7ABAB",
"U c #FFB7B7",
"Y c #00FF00",
/* pixels */
"YYYYYYYYYYYYYYYYYYYYYYYYYYYYYYYYYYYYYYYYYjYYYYYYYYYYYYYYYYYYYYYY",
"YYYYYYYYYYYYYYYYYYYYYYYYYYYYYYYYYYYYYYYYYYYYYYYYYYYYYYYYYYYYYYYY",
"YYYYYYYYYYYYYYYYYYYYYYYYYYYYYYYYYYYYYYYYYYYYYYYYYYYYYYYYYYYYYYYY",
"YYYYYYYYYYYYYYYYYYYYYYYYYYYYYYYYYYYYYYYYYYYYYYYYYYYYYYYYYYYYYYYY",
"YYYYYYYYYYYYYYYYYYYYjYYYYYjYYYYYgYYjYYYYjYYYYYYYYYYYYYYYYYYYYYYY",
"YYYYYYYYYYYYYYYYYYYYYYYYYYYYYYYYYYYYYYYYYYYYYYYYYYYYYYYYYYYYYYYY",
"YYYYYYYYYYYYYYYYYYYYYYYYYYYYYYYYhYYYYYYYYYYYYYYYYYYYYYYYYYYYYYYY",
"YYYYYYYYYYYYYYYYYYYYYYYYYYYYYYYYYYYYYYYYhYYYYjYYYYYYYYYYYYYYYYYY",
"YYYYYYYYYYYYYYYYYYYYYYYYYYYYYYYYYYYYYYYYYYYYYYYYYYYYYYYYYYYYYYYY",
"YYYYYYYYYYYYYYYYYYYYYYYYYYYYYjYYYYgYYYYYYYYjYYYYYYYYYYYYYYYYYYYY",
"YYYYYYYYYYYYYYYYYYYYYYYYYYYYYYYYYYYYYYYYYYYYYYYYYYYYYYYYYYYYYYYY",
"YYYYYYYYYYYYYYYYYYYYYYYYYYjYYYYYYYYYYYYYYYYYYYYYYYYYYYYYYYYYYYYY",
"YYYYYYYYYYYYYYYYYYYYYYYYYYYYYYYYYYYgYgYYYYYYYYYYYYYYYYYYYYYYYYYY",
"YYYYYYYYYYYYYYYYYYYYYYYYYYYYYYYYYgYYYYYYYYYYYYYYYYYYYYYYYYYYYYYY",
"YYYYYYYYYYYYYYYYYYYYYYYYYYYYjYgYYYYYYvmCVVNYYYYYYYYYYYYYYYYYYYYY",
"YYYYYYYYYYYYYYYYYYYYYYYYYYYYYYYYYYYtthCKPJVNdYYYYYYYYYYYYYYYYYYY",
"YYYYYYYYYYYYYYYYYYYYYYYYYYY2YvvtYYtu&bhhKPJVvndYYDYYYYYYYYYYYYYY",
"YYYYYYYYYYYYYYYYYYYYYYYYYjYX2<<>ttff@#<hdddnmAHHG7YYYYYYYYYYYYYY",
"YYYYYYYYYYYYYYYYYYYYYYYYYYYYX&ihCtbt<mvp#Opvmn677YYYYYYYYYYYYYYY",
"YYYYYYYYYYYYYYYYYYYYYYYYYYYYY-dh1<<,tinCPUUPmp%YYYYYYYYYYYYYYYYY",
"YYYYYYYYYYYYYYYYYYYYYYYYYYgYYd gM&jOfOO<nCPCvi,YYYYYYYYYYYYYYYYY",
"YYYYYYYYYYYYYYYYYYYYYYYYYYYYjaNCCKKNbgjO>vCnd,,YYYYYYYYYYYYYYYYY",
"YYYYYYYYYYYYYYYYYYYYYYYYYYYYYanjvgCKVb tOiCvp,%YYYYYYYYYYYYYYYYY",
"YYYYYYYYYYYYYYYYYYYYYYYYnBCNmgvdpi1vCKb ldNi-ppCBnvvYYYYYYYYYYYY",
"YYYYYYYYYYYYYYYYYYYYYYYbaad==eeudjxg,vvBjNv,ubCJCCmmpBYYYYYYYYYY",
"YYYYYYYYYYYYYYYYYYYYYYde,----j>jdbZviibvbfsubCPPJmvvavJJYYYYYYYY",
"YYYYYYYYYYYYYYYYYYYYYY,,@=====u<tfMNspiddrvvvKPKmbssadNLBbYYYYYY",
"YYYYYYYYYYYYYYYYYYYYYY,@==@=*ytjzcjhthwurvnJJJmbnvssiaCCmmvYYYYY",
"YYYYYYYYYYYYYYYYYYYYY,@awrkaq:kcjOOc@tkzzkynbvi<iai<emCCCNiavYYY",
"YYYYYYYYYYYYYYYYYYYY,@==@@pykhqqwc$wthrhnna:iii-&<<O&vNNNbivNmiY",
"YYYYYYYYYYYYYYYYYYYYbNCCnb@,rtgggqOwhvyw<@@@OO@@@&&@&paaa<dNLmvi",
"YYYYYYYYYYYYYYYYYY<sBCNnse>@@<kquhhthd<@:NVde%@%&&&@====+<CnKBbi",
"YYYYYYY0AAAAYYYYY%iBmvvse>>&-@*sv::t==eryNnbie@@O&YYYYYY=CUCILCb",
"YYYYYYo33258SYYY#<iissie,,>-u-&<rdpq=earsssii<<O@YYYYYY#CnVKJNLb",
"YYYYYY&@@X2568<<<<<u,,,,e,>-,<@,;d<;=<qpu,,u<<<<OYSFS0Ye#,iVnvCY",
"YYYYYY@uau@@@&i<dn>&&&><<,<i<,@@,,,@=<<>&&&>nd<i0096542YYeeeYeeY",
"YYYYYY@,u,@a,@dBdp,&>+&><i<-@@@&&&&&&>>&+>&,pii&296632@YYYYYYYYY",
"YYYYYY@@<@@<u@ins,&>+&&--@@@&&YffqffY&&&+>&,@@@@>>@>@@@YYYYYYYYY",
"YYYYYu@@,@@,<@<nv,&&&&-@@YYYfYfYfYYYfYY&&&&&&@><iva>aa>YYYYYYYYY",
"Y97nd,,,@@@@,@@ssii&@YYYYfYYYYYfYYYYYYYYY&bNb@>u<uu>au>YYYYYYYYY",
"9S5pu@@,,@@@@,,nCv&@YYYYYYYYYYYYYYYYYfYYYYibi@>>@>@@@@<<dn79YYYY",
"75.p@@@@@@@@@@@vdp,&YYYYYYYYYYYYYYYYYYYYY&&vCn>>@@@@<<>>up5799YY",
"YYYu@@@@@@@@@@@@e=F9YYYYYYYYYYYYYYYYYYYYY,ipdve@>@@@@@@@>p.577YY",
"YYYYYY@@@@@@@@@@@&9F7YYYYYYYYYYYYYYYYYYY99F=ee@@@@@@@@@u@uYYYYYY",
"YYYYYYYYYYYYYYYYYY777YYYYYYYYYYYYYYYYYY7779&@@@@@@YYYYYYYYYYYYYY",
"YYYYYYYYYYYYYYYYYYYYYYYYYYYYYYYYYYYYYYY7777YYYYYYYYYYYYYYYYYYYYY"
};
