/* XPM */
static char *result[] = {
/* columns rows colors chars-per-pixel */
"60 56 70 1 ",
"  c #232323",
". c #373737",
"X c gray23",
"o c #430000",
"O c #470000",
"+ c #4F0000",
"@ c #530707",
"# c #5B0707",
"$ c #5F0707",
"% c #670000",
"& c #670B0B",
"* c #6B0F0F",
"= c #730000",
"- c #7F0000",
"; c #731313",
": c #771717",
"> c #7F1B1B",
", c #533F1F",
"< c #434343",
"1 c gray28",
"2 c gray34",
"3 c #5B5B5B",
"4 c gray39",
"5 c gray42",
"6 c #6F6F6F",
"7 c #777777",
"8 c gray50",
"9 c #8B0000",
"0 c #9B0000",
"q c #831F1F",
"w c #A70000",
"e c #B30000",
"r c #BF0000",
"t c #8B2323",
"y c #8F2B2B",
"u c #972F2F",
"i c #9B3333",
"p c #A33B3B",
"a c #A73F3F",
"s c #D70000",
"d c #E30000",
"f c #EF0000",
"g c red",
"h c #FF3F3F",
"j c #9B5B13",
"k c #A36B3F",
"l c #CB5707",
"z c #DF670F",
"x c #AF4747",
"c c #B34F4F",
"v c #BB5757",
"b c #BF5B5B",
"n c #AB6F43",
"m c #C76363",
"M c #CB6B6B",
"N c #D37373",
"B c #DB7B7B",
"V c #FF8F3B",
"C c #939393",
"Z c #9F9F9F",
"A c #A7A7A7",
"S c gray67",
"D c gray70",
"F c #DF8787",
"G c #E78F8F",
"H c #EB9797",
"J c #F3A3A3",
"K c #F7ABAB",
"L c #FFB7B7",
"P c #00FF00",
/* pixels */
"PPPPPPPPPPPPPPPPPPPPPPPPPPfPPPPPPPPPPPPPPPPPPPPPPPPPPPPPPPPP",
"PPPPPPPPPPPPPPPPPPPPPPPPPPPPPPPPPPPPPPPPPPPPPPPPPPPPPPPPPPPP",
"PPPPPPPPPPPPPPPPPPPPPPPPPPPPdPPPPPPPPPPPPPPPPPPPPPPPPPPPPPPP",
"PPPPPPPPPPPPPPPPPPPPPPfPPsPfPPPPPPPPPPPPPPPPPPPPPPPPPPPPPPPP",
"PPPPPPPPPPPPPPPPPPPPPPPPPPPPPPfPPPPPPPPPPPPPPPPPPPPPPPPPPPPP",
"PPPPPPPPPPPPPPPPPPPPPPPPPPPdPPPPPPPPPPPPPPPPPPPPPPPPPPPPPPPP",
"PPPPPPPPPPPPPPPPPPPPPPPPmN0PfPPPPPPPPPPPPPPPPPPPPPPPPPPPPPPP",
"PPPPPPPPPPPPPPPPPPPPfPdPxcPdPPPdPPPPPPPPPPPPPPPPPPPPPPPPPPPP",
"PPPPPPPPPPPPPPPPPPPPPPPPPPPffPPPPPPPPPPPPPPPPPPPPPPPPPPPPPPP",
"PPPPPPPPPPPPPPPPPPPPPPNN0PfMM0dPPPPPPPPPPPPPPPPPPPPPPPPPPPPP",
"PPPPPPPPPPPPPPPPPPPPPPFFddrNM0PPPPPPPPPPPPPPPPPPPPPPPPPPPPPP",
"PPPPPPPPPPPPPPPPPP66PPdfrNw0=PPMNBNMPPPPPPPPPPPPPPPPPPPPPPPP",
"PPPPPPPPPPPPPPFFFF4ZA6r0-F%%9xbBGJJGBPPPPPPPPPPPPPPPPPPPPPPP",
"PPPPPPPMMMMMbFGHHFB66mm9=90%ecBGJLLKGaPPPPPPPPPPPPPPPPPPPPPP",
"PPPPmmMMNBFGBFJJBMmbxxxq9%9e0cmBGJJGBxcccPPPPPPPPPPPPPPPPPPP",
"PxmmmNMBFGGGBFBFFNMa>>>%%se9@cvBBBBBNvut7PPPPPPPPPPPPPPPPPPP",
"xMvvNFFGFFBBvxMMbva>>>;yy:$&+@>>uaavvbtcDC7HBbPPPPPPPPPPPPPP",
"xMavMFavGNMMxyxcxay*$yBBmcy>>$@&>>uxvbut44CSHBxPPPPPPPPPPPPP",
"xMavBGc&uvxxx$>yyyi**acciy:>yvBBMvxxxbxxt<<<MBvuPPPPPPPPPPPP",
"xMcMBmy&Outtt@$&qty**a*>>>:>yyvBJLLJNbatamBBMcxiPPPPPPPPPPPP",
"cNMacq$&O&&&&$@$&q>*ffnf$&##y>:>vBJBbxpyuvmBmcpiMPPPPPPPPPPP",
"cMMau&$$PP&&:>qq@@*xmmmGGGGNc,f;;xBvxauyquvmvxpixFFPPPPPPPPP",
"cBHKN:$PPPPPPP@@q@*bbmxxmBGGGcfs;yBxuu:yt;uxppiiamHBcPPPPPPP",
"cHmFGN:;PPPPPPP@>**xixaacbBBBGcsaBmyy:yapt;tqq>ticvmmxPPPPPP",
"PHxvNy:@PPPPPPPt@**aituuuacbBBBBBBxyy:yvvpq&&&>cbMbccvixPPPP",
"PNNN:p::PPPPPPPt@@@>iquaxxauxavbmmui>&tvvaq&&&ibHHMbcxxxxxPP",
"Pcccyq&PPPPPPPPt@@@&t;uaxxuyyxabvxt$o#txay$@$&iiMBMvcammmxxP",
"Pyc:&@PPPPPPPPP:@:@@g;uamktguqqqi:#o;&:yq$$$&&iiiiii>amHFbxP",
"PPPPPPPPPPPPPPP:@#q@;;uphatyuq::*oo&;;$$&$PPP&&&&&&>>xvGHMcy",
"PPPPPPPPPPPPPPP@@@:q:0uga>>gtq:&o+#;::&$$PPPPPP&&&&>>ubMHMcy",
"PPPPPPPPPPPPPPP@@:@qqqu0usw0t:go+&::OO:$PPPPPPPPPPPP>uxmBmcy",
"PPPPPPPPPPPPPPy@@e:@gqqe0w-rg:+#::*@#q$$PPPPPPPPPPPPP>ummxpy",
"PPPPPPPPPPPPPPy@+@t:@:qqw-%-w:::*@@#*q*$PPPPPPPPPPPPcbBBmxyP",
"PPPPPPPPPPPPPPy@o@@t:@g;;9-w:::*@@**>q>$$PPPPPPPPPPPaFMmvxtP",
"PPPPPPPPPPPPPPy@o@@$t&&&&&****@@@*uauq>$$PPPPPPPPPPPBMxxxiPP",
"PPPPPPPPPPPPPay@@@@@@@@@@@@@*##@@>pmcu>;$$PPPPPPPPPPp>ixptPP",
"PPPPPPPPPPPPPaaq&OOOOOO@@OPP####*ucmcay;$$PPPPPPPPPP>xMMuPPP",
"PPPPPPPPPPPPPacy;OOOOOOOOPPP####>ucmcay>$$PPPPPPPPPPPFMx:PPP",
"PPPPPPPPPPPPPacu:*$OOOOOPPPP###*upmmvpyq;$$PPPPPPPPPPPPPPPPP",
"PPPPPPPPPPPPPaciquq*$OOPPPPP###>uavmvuyq>$$PPPPPPPPPPPPPPPPP",
"PPPPPPPPPPPPPuaatauq$O$PPPPP$$$uppmmcxy>>$$PPPPPPPPPPPPPPPPP",
"PPPPPPPPPPPPPuiaylaq$$PPPPPPP$$ytypppt>>>$$PPPPPPPPPPPPPPPPP",
"PPPPPPPPPPPPPPuauvvq$$PPPPPPP$$t>tppq>qy;$$PPPPPPPPPPPPPPPPP",
"PPPPPPPPPPPPPPuiiVvq*$PPPPPPP$$:$pbVzqy;$$PPPPPPPPPPPPPPPPPP",
"PPPPPPPPPPPPPPPuiNvy*$PPPPPPPPuaibBNay;O$$PPPPPPPPPPPPPPPPPP",
"PPPPPPPPPPPPPPPipVvy*$$PPPPPPPuiibVzpy;$$PPPPPPPPPPPPPPPPPPP",
"PPPPPPPPPPPPPPPpaFvu*$$PPPPPPPipbBNa;;;$PPPPPPPPPPPPPPPPPPPP",
"PPPPPPPPPPPPPPPalBmu*$OPPPPPPaMHHGMuq$$PPPPPPPPPPPPPPPPPPPPP",
"PPPPPPPPPPPPPPcxbFmu>$O$PPPPPMtt>ttjq$OPPPPPPPPPPPPPPPPPPPPP",
"PPPPPPPPPPPPPxuaBBvqy:y:PPPPPt7CZC7tq$$$PPPPPPPPPPPPPPPPPPPP",
"PPPPPPPPPPPPvuaMHGMuq*qy::PPu$38Z8<$y#y$PPPPPPPPPPPPPPPPPPPP",
"PPPPPPPPPP64uuMttttjq$y:&  Pu+++++++++vyPPPPPPPPPPPPPPPPPPPP",
"PPPPPPPPP642uat7CC7tq#:#&  va+++++++++vBx:PPPPPPPPPPPPPPPPPP",
"PPPPPPPPP42 tt$388<$y+++$64ut+++++++++xauZ6PPPPPPPPPPPPPPPPP",
"PPPPPPPPPPPPPP$155. tPPP642u+++++++++++q&644PPPPPPPPPPPPPPPP",
"PPPPPPPPPPPPPPPX1X PPPPP42 t++++++++++++$444PPPPPPPPPPPPPPPP"
};
