/* XPM */
static char *result[] = {
/* columns rows colors chars-per-pixel */
"64 60 74 1 ",
"  c #332B13",
". c #232323",
"X c #2F2F2F",
"o c #373737",
"O c #430000",
"+ c #470000",
"@ c #4F0000",
"# c #530707",
"$ c #5B0000",
"% c #5B0707",
"& c #5F0707",
"* c #670000",
"= c #670B0B",
"- c #6B0F0F",
"; c #730000",
": c #7F0000",
"> c #731313",
", c #771717",
"< c #7F1B1B",
"1 c #533F1F",
"2 c #6B4727",
"3 c #434343",
"4 c gray28",
"5 c gray31",
"6 c gray34",
"7 c #5B5B5B",
"8 c gray39",
"9 c gray42",
"0 c #6F6F6F",
"q c #777777",
"w c #8B0000",
"e c #9B0000",
"r c #831F1F",
"t c #A70000",
"y c #B30000",
"u c #BF0000",
"i c #8B2323",
"p c #8F2B2B",
"a c #972F2F",
"s c #9B3333",
"d c #A33B3B",
"f c #A73F3F",
"g c #CB0000",
"h c #D70000",
"j c #E30000",
"k c #EF0000",
"l c red",
"z c #FF1F1F",
"x c #FF3F3F",
"c c #8F5F37",
"v c #AF4747",
"b c #B34F4F",
"n c #BB5757",
"m c #BF5B5B",
"M c #AB6F43",
"N c #FF5F5F",
"B c #C76363",
"V c #CB6B6B",
"C c #D37373",
"Z c #DB7B7B",
"A c #CF8353",
"S c #8B8B8B",
"D c #939393",
"F c #979797",
"G c #9F9F9F",
"H c #A7A7A7",
"J c gray70",
"K c #DF8787",
"L c #E78F8F",
"P c #EB9797",
"I c #F3A3A3",
"U c #F7ABAB",
"Y c #FFB7B7",
"T c #00FF00",
/* pixels */
"TTTTTTTTTTTTTTTTTTTTTTTTTTTTTTTTTTTTTTTTTTTTTTTTTTTTTTTTTTTTTTTT",
"TTTTTTTTTTTTTTTTTTTTTTTTTTTTTTTTTTTTTTTTTTTTTTTTTTTTTTTTTTTTTTTT",
"TTTTTTTTTTTTTTTTTTTTTTTTTTTTTTTTTTTTTTTTTTTTTTTTTTTTTTTTTTTTTTTT",
"TTTTTTTTTTTTTTTTTTTTTTTTTTTTTTTTTTTTTTTTTTTTTTTTTTTTTTTTTTTTTTTT",
"TTTTTTTTTTTTTTTTTTTTTTTTTTTTTTTTTTTTTTTTTTTTTTTTTTTTTTTTTTTTTTTT",
"TTTTTTTTTTTTTTTTTTTTTTTTTTTTTTTTTTTTTTTTTTTTTTTTTTTTTTTTTTTTTTTT",
"TTTTTTTTTTTTTTTTTTTTTTTTTTTTTTTTTTTTTTTTTTTTTTTTTTTTTTTTTTTTTTTT",
"TTTTTTTTTTTTTTTTTTTTTTTTTTTTTTTTTTTTTTTTTTTTTTTTTTTTTTTTTTTTTTTT",
"TTTTTTTTTTTTTTTTTTTTTTTTTTTTTTTTTTTTTTTTTTTTTTTTTTTTTTTTTTTTTTTT",
"TTTTTTTTTTTTTTTTTTTTTTTTTTTTTTTTTTTTTTTTTTTTTTTTTTTTTTTTTTTTTTTT",
"TTTTTTTTTTTTTTTTTTTTTTTTTTTTTTTTTTTTTTTTTTTTTTTTTTTTTTTTTTTTTTTT",
"TTTTTTTTTTTTTTTTTTTTTTTTTTTTTTTTTTTTTTTTTTTTTTTTTTTTTTTTTTTTTTTT",
"TTTTTTTTTTTTTTTTTTTTTTTTTTTTTTTTTTTTTTTTTTTTTTTTTTTTTTTTTTTTTTTT",
"TTTTTTTTTTTTTTTTTTTTTTTTTTTTTTTTTTTTTTTTTTTTTTTTTTTTTTTTTTTTTTTT",
"TTTTTTTTTTTTTTTTTTTTTTTTTTTTTTTTTTTTTTTTTTTTTTTTTTTTTTTTTTTTTTTT",
"TTTTTTTTTTTTTTTTTTTTTTTTTTTTTTTTTTTTTTTTTTTTTTTTTTTTTTTTTTTTTTTT",
"TTTTTTTTTTTTTTTTTTTTTTTTTTTTTTTTTTTTTTTTTTTTTTTTTTTTTTTTTTTTTTTT",
"TTTTTTTTTTTTTTTTTTTTTTTTTTTTTTTTTTTTTTTTTTTTTTTTTTTTTTTTTTTTTTTT",
"TTTTTTTTTTTTTTTTTTTTTTTTTTTTTTTTTTTTTTTTTTTTTTTTTTTTTTTTTTTTTTTT",
"TTTTTTTTTTTTTTTTTTTTTTTTTTTTTTTTTTTTTTTTTTTTTTTTTTTTTTTTTTTTTTTT",
"TTTTTTTTTTTTTTTTTTTTTTTTTTTTTTTTTTTTTTTTTTTTTTTTTTTTTTTTTTTTTTTT",
"TTTTTTTTTTTTTTTTTTTTTTTTTTTTTTTTTTTTTTTTTTTTTTTTTTTTTTTTTTTTTTTT",
"TTTTTTTTTTTTTTTTTTTTTTTTTTTTTTTTTTTTTTTTTTTTTTTTTTTTTTTTTTTTTTTT",
"TTTTTTTTTTTTTTTTTTTTTTTTTTTTTTTTTTTTTTTTTTTTTTTTTTTTTTTTTTTTTTTT",
"TTTTTTTTTTTTTTTTTTTTTTTTTTTTTTTTTTTTTTTTTTTTTTTTTTTTTTTTTTTTTTTT",
"TTTTTTTTTTTTTTTTTTTTTTTTTTTTTTTTTTTTTTTTTTTTTTTTTTTTTTTTTTTTTTTT",
"TTTTTTTTTTTTTTTTTTTTTTTTTTTTTTTTTTTTTTTTTTTTTTTTTTTTTTTTTTTTTTTT",
"TTTTTTTTTTTTTTTTTTTTTTTTTTTTTTTTTTTTTTTTTTTTTTTTTTTTTTTTTTTTTTTT",
"TTTTTTTTTTTTTTTTTTTTTTTTTTTTTTTTTTTTTTxxzVfTTTTTTTTTTTTTTTTTTTTT",
"TTTTTTTTTTTTTTTTTTTTTTTTTTTTTTTTTTTTwOxxVBngfTTTTTTTTTTTTTTTTTTT",
"TTTTTTTTTTTTTTTTTTTTTTTTTTT3Tvv$TTTw;OuzjnjnvnfTTFTTTTTTTTTTTTTT",
"TTTTTTTTTTTTTTTTTTTTTTTTTTTX3<<>$$$$OOujyffndSJJH8TTTTTTTTTTTTTT",
"TTTTTTTTTTTTTTTTTTTTTTTTTTTTX&pjZyb;<mvu#Oav<d788TTTTTTTTTTTTTTT",
"TTTTTTTTTTTTTTTTTTTTTTTTTTTTT-fj2<<,ypnZIYKnp<%TTTTTTTTTTTTTTTTT",
"TTTTTTTTTTTTTTTTTTTTTTTTTTTTTf  M&=elgO<nZKnv<,TTTTTTTTTTTTTTTTT",
"TTTTTTTTTTTTTTTTTTTTTTTTTTTTTsBZZLLBb1kg>vZnf,,TTTTTTTTTTTTTTTTT",
"TTTTTTTTTTTTTTTTTTTTTTTTTTTTTsnvvBZLCb w*pZva,%TTTTTTTTTTTTTTTTT",
"TTTTTTTTTTTTTTTTTTTTTTTTnVZBmsvfap2vZLbxNfBp-aaZVnvvTTTTTTTTTTTT",
"TTTTTTTTTTTTTTTTTTTTTTTbssf==rrifaci,vvhhBv,ibZKZZmmaVTTTTTTTTTT",
"TTTTTTTTTTTTTTTTTTTTTTfr,----=><fbAvpphhbhdibZIIKmvvsvKKTTTTTTTT",
"TTTTTTTTTTTTTTTTTTTTTT,,@=====i<ygMBdaeefevvvLILVbddsfBPVbTTTTTT",
"TTTTTTTTTTTTTTTTTTTTTT,@=::ettyhxxkjjhueevnCKCCVnvddpsZZmmvTTTTT",
"TTTTTTTTTTTTTTTTTTTTT,@sehlhghhewO@;ehlxxhunbvp<psp<rmZZZBpsvTTT",
"TTTTTTTTTTTTTTTTTTTT,@==@@yulle**eeO*ehjnnshppp-&<<O&vBBBbpvBmpT",
"TTTTTTTTTTTTTTTTTTTTbBZZnb@,tuuxjjxjjhue<@@:O><<@&<@&asss<fBPmvp",
"TTTTTTTTTTTTTTTTTT<dVZBndr>@@tyjyyxyyf<@:Bljy%@>>&&@====+<ZnLVbp",
"TTTTTTTqSSSSTTTTT%pVmvvdr>>&-t*ywwzyy=rtuhnbpy@@O&TTTTTT=ZYZUPZb",
"TTTTTTo44369DTTT#<ppddpr,,>-it&ewwkwtrshhddpp<<O@TTTTTT#ZnCLKBPb",
"TTTTTT&@@X3679<<<<<i,,,,r,>-,e@:;wg;t<wai,,i<<<<OTDGDqTr#,pCnvZT",
"TTTTTT@isi@@@&p<fn>&&&><<,<p<e@:,wg@eh<>&&&>nf<pqq07653TTrrrTrrT",
"TTTTTT@,i,@s,@fVfa,&>+&><p<-@w@:&wu&e>>&+>&,app&307743@TTTTTTTTT",
"TTTTTT@@<@@<i@pnd,&>+&&--@@@&wuxxNxhue&&+>&,@@@@>>@>@@@TTTTTTTTT",
"TTTTTi@@,@@,<@<nv,&&&&-@@ujjlxxlhhkllhe&&&&&&@><pvs>ss>TTTTTTTTT",
"T08nf,,,@@@@,@@ddpp&@TTggTggggggTTgTThhuw&bBb@>i<ii>si>TTTTTTTTT",
"0D6ai@@,,@@@@,,nZv&@TTTTTTTTTgTTTTTTTTTTTwpbp@>>@>@@@@<<fn80TTTT",
"86.a@@@@@@@@@@@vfa,&TTTTTTTTTTTTTTTTTTTTT&&vZn>>@@@@<<>>ia6800TT",
"TTTi@@@@@@@@@@@@r=G0TTTTTTTTTTTTTTTTTTTTT,pafvr@>@@@@@@@>a.688TT",
"TTTTTT@@@@@@@@@@@&0G8TTTTTTTTTTTTTTTTTTT00G=rr@@@@@@@@@i@iTTTTTT",
"TTTTTTTTTTTTTTTTTT888TTTTTTTTTTTTTTTTTT8880&@@@@@@TTTTTTTTTTTTTT",
"TTTTTTTTTTTTTTTTTTTTTTTTTTTTTTTTTTTTTTT8888TTTTTTTTTTTTTTTTTTTTT"
};
