/* XPM */
static char *result[] = {
/* columns rows colors chars-per-pixel */
"44 55 81 1 ",
"  c #2B230F",
". c #332B13",
"X c #3F2F17",
"o c #430000",
"O c #470000",
"+ c #4F0000",
"@ c #530707",
"# c #5B0000",
"$ c #5B0707",
"% c #5F0707",
"& c #670000",
"* c #670B0B",
"= c #6B0F0F",
"- c #730000",
"; c #7F0000",
": c #731313",
"> c #771717",
", c #7F1B1B",
"< c #43331B",
"1 c #4B371B",
"2 c #533F1F",
"3 c #5F4323",
"4 c #6B4727",
"5 c #774F2B",
"6 c #434343",
"7 c gray28",
"8 c gray31",
"9 c gray34",
"0 c #5B5B5B",
"q c gray39",
"w c gray42",
"e c #6F6F6F",
"r c #777777",
"t c gray50",
"y c #8B0000",
"u c #9B0000",
"i c #831F1F",
"p c #A70000",
"a c #B30000",
"s c #BF0000",
"d c #8B2323",
"f c #8F2B2B",
"g c #972F2F",
"h c #9B3333",
"j c #A33B3B",
"k c #A73F3F",
"l c #CB0000",
"z c #D70000",
"x c #E30000",
"c c #EF0000",
"v c #FF1F1F",
"b c #9B5B13",
"n c #8F5F37",
"m c #A36B3F",
"M c #AF4747",
"N c #B34F4F",
"B c #BB5757",
"V c #BF5B5B",
"C c #C76363",
"Z c #CB6B6B",
"A c #D37373",
"S c #DB7B7B",
"D c #C39B2F",
"F c #CF8353",
"G c #E79B6B",
"H c #FFFF73",
"J c #838383",
"K c #939393",
"L c #979797",
"P c #9F9F9F",
"I c gray67",
"U c gray70",
"Y c #DF8787",
"T c #E78F8F",
"R c #EB9797",
"E c #F3A3A3",
"W c #F7ABAB",
"Q c #FFB7B7",
"! c #CBCBCB",
"~ c gray86",
"^ c #00FF00",
/* pixels */
"^^^^^^^^^^^^^^^^^^^^khf,^^^^^^^^^^^^^^^^^^^^",
"^^^^^^^^^^^^^^^^^^^^kAAg^^^^^^^^^^^^^^^^^^^^",
"^^^^^^^^^^^^^^^^^ZSSBTSCYAZ^^^^^^^^^^^^^^^^^",
"^^^^^^^^^^^^^^^ASYCCgBBkZSYSAC^^^CAYYC^^^^^^",
"^^^^^^^^^^^^ZASAZCVVgTAkCCZZZCCZSYRRTAN^^^^^",
"^^^^^^^^ZACCVBNVVVVVjABjZSSAZZZACZSAZBBg^^^^",
"^^^^^^CYYACZCBBCZZASkCZkZSAZCCBBZAYYSCMhB^^^",
"^^^^^NATrLLCMZYRTTTYNCVNYYTTRRYZMCLLrCNjh^^^",
"^^^^gBrKU~!gMATWQQQRVNjVYRQQWWTAMg!~UKrhf^^^",
"^^^BhrItq09gjMSTEEWWRNjVRWWETTSMjg90qtIrd^^^",
"^^^hjP66666=:dBSSSSSSNkNSSSSSSBd:=66666Pr^^^",
"^^^fhP6>==>$$:dkBBCCCNjNCCMkkkf:$$$%==>6Pi^^",
"^^^dfhkjhg>$$$+XXX:dkkfkkki@@@@i$@$**=>iii^^",
"^^^,>ffiii>*$$*nHDbidgdjgibDH5>f$$=>fhddid^^",
"^^ijg=>,>>**$$>dnGGn2:dd:25GFkdi$=>>fhgi>d^^",
"^^iMNf=*@@@%$$*ihBBkf:=+%ihkkd>$@>*$>if::i^^",
"^^djNNg>==o%$$$:ifhf,**@+$**:::+@>OO+=>%,dN^",
"^^dfMMhf,>o@$$@:>***>ihhi*>:,,,+=*O$+++,fjh^",
"^^iiffi>=$^o@$@:>>iiiiiiiiiiid,@%O^**$*djMf^",
"^Nd,,i==$$^^^$@:,> 33<X.<.X ih,@+^^djBhijB:^",
"^hjf,*$$$^^^^^$:,i 3o5<o<3o ih,++^^dgMk:gM*^",
"^fMjd*$**^^^^^$:,d#+oooooo+#dh,@=^^^djk>fj,^",
"^fBjihBjd^^^^^i:,i#+oooooo+#fh,=i^^^^dg:igd^",
"^fMg:kMgd^^^^*i:,io++++oo++#ih,>i*^^^,idigk^",
"^fjf>kjd^^^^^*>:,i+&--&##-;-ih,i=*^^^:dkBjk^",
"^dgi:gd^^^^^^$*:,d&-yyy&-yuydh,=+$^^^:kgddf^",
"^kiidi,^^^^^^,@:,i-yuuuuyupuih,oo+>^^,didkkj",
"^kjBkd:^^^^^>%@:,iyppppppalpih,o+@>^^if,iNMj",
"^fddgk:^^^^^%@@:,dusssassszpdh:+@%*,^h,**jNj",
"jkkdid,^^^^>@@@@,ipzlllsslzpfh:@%=>f^gd>==ij",
"jMNi,fi^^^>%@@@@,ipzccxzllzpih,@*=>ifggd>=dh",
"jNj,,,h^^^%@@@@@,ipl4lvvcl4pij,,,,>>d^k,kgN^",
"jjh,g,^^^^@@@@@@,du3m3slv3m3dM*fffd,d^^^^^^^",
"hd,gjgg^^>%@@@@@@ii3m5-;s5m5fB>gjhfdd^^^^^^^",
"^NCk,kN^^,%@@:::@gk5Gm&-;mG5hB>gjjgff^^^^^^^",
"^^^^^^^^^=%=,>dd,MB3m35553m5jCifjkjgf^^^^^^^",
"^^^^^^^^^=,,ffkMdNC341F3F143NBdfkNkgf^^^^^^^",
"^^^^^^^^^=>ffjMji:AN13hMh31NABdfhhhgf^^^^^^^",
"^^^^^^^^^^>ddMNj,:BVCVBNBVCABdgjMMMkhB^^^^^^",
"^^^^^^^^^^>ddjNj,:>BVATEEYZBddjhhhjkMk^^^^^^",
"^^^^^^^^^^*dgjNj,>,^BBVCVBB%kMghjjkkNjk^^^^^",
"^^^^^^^^^^dgggkgi,=^^^^^^^^^NCihMVVkNfg^^^^^",
"^^^^^^^^^^^gdfhddi^^^^^^^^^^MCihNCANMff^^^^^",
"^^^^^^^^^^^ddhhhff^^^^^^^^^^MBihNZSNMgd^^^^^",
"^^^^^^^^^^^fhkMkgk^^^^^^^^^^^MdhBAYBMf^^^^^^",
"^^^^^^^^^^^^jMBMh^^^^^^^^^^^^kdjVSTVNd^^^^^^",
"^^^^^^^^^^^^kNZBk^^^^^^^^^^^^ddhBYRCN^^^^^^^",
"^^^^^^^^^^CNNBSZB^^^^^^^^^^^^^dhVYYZN^^^^^^^",
"^^^^^^^^MMNNNBSZBBNM^^^^^^^^^^hjZSSSB^^^^^^^",
"^^^^^^^whhkNVMMMZCjh,q^^^^^^^^hMATRSZ^^^^^^^",
"^^^^^^wqhhkMMrJrMMjhf9q^^^^eCkgBCBMBSZBe^^^^",
"^^^^^^^^^^^g8wrw8g^^^^^^^teqNkkCMrJrMCBqet^^",
"^^^^^^^^^^^f80w08f^^^^^^teq9NhMk0wrw0kN9qet^",
"^^^^^^^^^^^^88888^^^^^^^eq97fhff80w08dj79qe^",
"^^^^^^^^^^^^^^^^^^^^^^^^^^^^^^^^98089^^^^^^^"
};
