/* XPM */
static char *result[] = {
/* columns rows colors chars-per-pixel */
"62 57 65 1 ",
"  c #232323",
". c #2F2F2F",
"X c #373737",
"o c #430000",
"O c #470000",
"+ c #4F0000",
"@ c #530707",
"# c #5B0000",
"$ c #5B0707",
"% c #5F0707",
"& c #670000",
"* c #670B0B",
"= c #6B0F0F",
"- c #7F0000",
"; c #731313",
": c #771717",
"> c #7F1B1B",
", c #774F2B",
"< c #434343",
"1 c gray28",
"2 c gray31",
"3 c gray34",
"4 c #5B5B5B",
"5 c gray39",
"6 c gray42",
"7 c #6F6F6F",
"8 c #777777",
"9 c #8B0000",
"0 c #9B0000",
"q c #831F1F",
"w c #B30000",
"e c #BF0000",
"r c #8B2323",
"t c #8F2B2B",
"y c #972F2F",
"u c #9B3333",
"i c #A33B3B",
"p c #A73F3F",
"a c #CB0000",
"s c #D70000",
"d c #E30000",
"f c #EF0000",
"g c red",
"h c #FF1F1F",
"j c #AF4747",
"k c #B34F4F",
"l c #BB5757",
"z c #BF5B5B",
"x c #AB6F43",
"c c #C76363",
"v c #CB6B6B",
"b c #D37373",
"n c #DB7B7B",
"m c #CF8353",
"M c #8B8B8B",
"N c #939393",
"B c #979797",
"V c #9F9F9F",
"C c #A7A7A7",
"Z c gray70",
"A c #DF8787",
"S c #E78F8F",
"D c #EB9797",
"F c #F3A3A3",
"G c #00FF00",
/* pixels */
"GGGGGGGGGGGGGGGGGGGGGGGGGGGGGGGGGGGGGGGGfGGGGGGGGGGGGGGGGGGGGG",
"GGGGGGGGGGGGGGGGGGGGGGGGGGGGGGGGGGGGGGGGGGGGGGGGGGGGGGGGGGGGGG",
"GGGGGGGGGGGGGGGGGGGGGGGGGGGGGGGGGGGGGGGGGGGGGGGGGGGGGGGGGGGGGG",
"GGGGGGGGGGGGGGGGGGGGGGGGGGGGGGGGGGGGGGGGGGGGGGGGGGGGGGGGGGGGGG",
"GGGGGGGGGGGGGGGGGGGfGGGGGfGGGGGGGGfGGGGfGGGGGGGGGGGGGGGGGGGGGG",
"GGGGGGGGGGGGGGGGGGGGGGGGGGGGGGGGGGGGGGGGGGGGGGGGGGGGGGGGGGGGGG",
"GGGGGGGGGGGGGGGGGGGGGGGGGGGGGGGGGGGGGGGGGGGGGGGGGGGGGGGGGGGGGG",
"GGGGGGGGGGGGGGGGGGGGGGGGGGGGGGGGGdGGGGGGGGGGfGGGGGGGGGGGGGGGGG",
"GGGGGGGGGGGGGGGGGGGGGGGGGGGGGGsGGGGGGGvvGGGGGGGGGGGGGGGGGGGGGG",
"GGGGGGGGGGGGGGGGGGGGGGGGGGGGfGGGGGGGGGfvGGfGGGGGGGGGGGGGGGGGGG",
"GGGGGGGGGGGGGGGGGGGGGGGGGGGGGGGGGGGGGgGGGGGGGGGGGGGGGGGGGGGGGG",
"GGGGGGGGGGGGGGGGGGGGGGGGGfGGGGGGsGGdGGGGGGGGGGGGGGGGGGGGGGGGGG",
"GGGGGGGGGGGGGGGGGGGGGGGGGGGGGGgGGGdGGGGGGGGGGGGGGGGGGGGGGGGGGG",
"GGGGGGGGGGGGGGGGGGGGGGGGGGGGGGGGGhGGGGGbbGGGGGGGGGGGGGGGGGGGGG",
"GGGGGGGGGGGGGGGGGGGGGGGGGGGGGGGGGGgGdGGf0GGGGGGGGGGGGGGGGGGGGG",
"GGGGGGGGGGGGGGGGGGGGGGGGGGGGGsGGGeGGGGGGGGGGGGGGGGGGGGGGGGGGGG",
"GGGGGGGGGGGGGGGGGGGGGGGGGGGGGGGgGGgGhGGGGGGGGGGGGGGGGGGGGGGGGG",
"GGGGGGGGGGGGGGGGGGGGGGGGGGGGGGGGGG-GGGGGGGGGGGGGGGGGGGGGGGGGGG",
"GGGGGGGGGGGGGGGGGGGGGGGGGGGGGGGGGGGGGGGGGGGGGGGGGGGGGGGGGGGGGG",
"GGGGGGGGGGGGGGGGGGGGGGGGGGGGGGGGgGG-GGGGGGGGGGGGGGGGGGGGGGGGGG",
"GGGGGGGGGGGGGGGGGGGGGGGGGGGGGGGGGGvkjknFnllGGGGGGGGGGGGGGGGGGG",
"GGGGGGGGGGGGGGGGGGGGGGGGGGGG7GGGbbk>rknnFFnlGGGGGGGGGGGGGGGGGG",
"GGGGGGGGGGGGGGGGGGGGGGGGGGGG55kqsh*shs>>>pllllGGBGGGGGGGGGGGGG",
"GGGGGGGGGGGGGGGGGGGGGGGGGGGGG>pkzzkp>sg*>>plMZZC5GGGGGGGGGGGGG",
"GGGGGGGGGGGGGGGGGGGGGGGGGGGG%pnnnSSbp,xs;knSl455GGGGGGGGGGGGGG",
"GGGGGGGGGGGGGGGGGGGGGGGGGGGGcbckjjcSSbx,;SFn>prGGGGGGGGGGGGGGG",
"GGGGGGGGGGGGGGGGGGGGGGGGGGGGlckjcczpcSnk;nSc>>GGGGGGGGGGGGGGGG",
"GGGGGGGGGGGGGGGGGGGGGGGGGGGGpkjznAnjpcnnkcnl==GGGGGGGGGGGGGGGG",
"GGGGGGGGGGGGGGGGGGGGGGGGGGGGkyjnAmAjucnnccnj$*GGGGGGGGGGGGGGGG",
"GGGGGGGGGGGGGGGGGGGGGGGGGGGGGjbfSfScjpcnnkcy*$GGGGGGGGGGGGGGGG",
"GGGGGGGGGGGGGGGGGGGGGGGGGGGGGkblbnSnjucnnclq$+GGGGGGGGGGGGGGGG",
"GGGGGGGGGGGGGGGGGGGGGGGGGvnvfznfcnSfkyknbcc:zyynljjGGGGGGGGGGG",
"GGGGGGGGGGGGGGGGGGGGGGGGuujjkzbezfnnkrfvllp+rknAnzyvvGGGGGGGGG",
"GGGGGGGGGGGGGGGGGGGGGGGGuuufjzfecgbfl:rrpyyzknFFzjujAAGGGGGGGG",
"GGGGGGGGGGGGGGGGGGGGGGGGuyerikievgzfwypvbbvknSFSkiupcDvkGGGGGG",
"GGGGGGGGGGGGGGGGGGGGGGG$rkyee9sfewjew&e9yyptvvvzjitujpkjjGGGGG",
"GGGGGGGGGGGGGGGGGGGGGGu$qriy0-esewgw9-#yvkkrlkpittqzvzjucclttG",
"GGGGGGGGGGGGGGGGGGGGG$rkkrrpp0-esew-yrkppt%$tttt=+%yuuu>pcDzjt",
"GGGGGGGGGGGGGGGGGGG>ilccccrqpujy-9-zjrryy++:;;;%O+****O>jlSvkt",
"GGGGGGGG88845GGGGG$tykccclkpqryyy-yyr;tivbk>%rpko+oOOO*>yzvvkt",
"GGGGGGGX111145GGG@>tticcliq;$%;;;;;;;tiplcbjt$$OOOOOOOO*yjcckt",
"GGGGGGG%++...46>>>>>r:cjiq;;%=oo%%oo:tiplccbjq$;tGGGGGGrpAvcjr",
"GGGGGGG+rur+++%t>pl;%%itq::;=r%%ooo%:tiplclcjq$;tGGGGGGpnvjjuG",
"GGGGGGG+:r:+u:+pvpy:%;:::q:;=:=%oo%%:qtiiijjt>;;OGGGGGGpi>ujrG",
"GGGGGGG++>++>r+tli:%;O%;>>:>t>:=%%%%;>>iiiitt>;;OGGGGGGp>rrrGG",
"GGGGGGr++:++:>+>lj:%%%O%;>t>=GaaGa%%%>>::::r>>>;tjNVN8GGGGGGGG",
"GG75lp:::++++:++iitt%+%%==+GGGGaGGGG%;;;%%%;lp>t885432<GGGGGGG",
"7753yr++::++++::lnj%%%%GGGGGGaGGGaGaG%%%O;%:ytt%<<<<<<+GGGGGGG",
"553 y+++++++++++jpy:%GGGGGGGGGGaGGGaGGG%O;%:++++;;+;+++GGGGGGG",
"GGGGr++++++++++++q*V7GGGGGGGGGGGGGGGGGGG%%%%%+;>tju;uu;GGGGGGG",
"GGGGGGG+++++++++++%755GGGGGGGGGGGGGGGGGGG%ttt+;r>rr;ur;GGGGGGG",
"GGGGGGGGGGGGGGGGGGG555GGGGGGGGGGGGGGGGGGGGttt+;;+;++++>>pl57GG",
"GGGGGGGGGGGGGGGGGGGGGGGGGGGGGGGGGGGGGGGGG%%jnl;;++++>>;;ry3577",
"GGGGGGGGGGGGGGGGGGGGGGGGGGGGGGGGGGGGGGGGG::ypj++;+++++++;y 355",
"GGGGGGGGGGGGGGGGGGGGGGGGGGGGGGGGGGGGGGGG77V*q++++++++++r+rGGGG",
"GGGGGGGGGGGGGGGGGGGGGGGGGGGGGGGGGGGGGGG5557%++++++GGGGGGGGGGGG",
"GGGGGGGGGGGGGGGGGGGGGGGGGGGGGGGGGGGGGGG5555GGGGGGGGGGGGGGGGGGG"
};
