/* XPM */
static char *result[] = {
/* columns rows colors chars-per-pixel */
"43 58 79 1 ",
"  c black",
". c #232323",
"X c #272727",
"o c #373737",
"O c #430000",
"+ c #470000",
"@ c #4F0000",
"# c #530707",
"$ c #5B0707",
"% c #5F0707",
"& c #670B0B",
"* c #6B0F0F",
"= c #731313",
"- c #771717",
"; c #7F1B1B",
": c #4B371B",
"> c #533F1F",
", c #5F4323",
"< c #6B4727",
"1 c #774F2B",
"2 c #7F532F",
"3 c #675333",
"4 c #775F3F",
"5 c #434343",
"6 c gray31",
"7 c gray34",
"8 c #5B5B5B",
"9 c gray39",
"0 c gray42",
"q c #6F6F6F",
"w c #777777",
"e c gray50",
"r c #831F1F",
"t c #A70000",
"y c #BF0000",
"u c #8B2323",
"i c #8F2B2B",
"p c #972F2F",
"a c #9B3333",
"s c #A33B3B",
"d c #A73F3F",
"f c #CB0000",
"g c #EF0000",
"h c #874307",
"j c #9B5B13",
"k c #AF4300",
"l c #875733",
"z c #8F5F37",
"x c #A36B3F",
"c c #C34F00",
"v c #D75F0B",
"b c #F37317",
"n c #AF4747",
"m c #B34F4F",
"M c #BB5757",
"N c #BF5B5B",
"B c #836B4B",
"V c #C76363",
"C c #CB6B6B",
"Z c #D37373",
"A c #DB7B7B",
"S c #C39B2F",
"D c #FF8F3B",
"F c #CF8353",
"G c #FFA35B",
"H c #EFA373",
"J c #FFFF73",
"K c #939393",
"L c #A7A7A7",
"P c #B7B7B7",
"I c gray75",
"U c #DF8787",
"Y c #E78F8F",
"T c #EB9797",
"R c #F3A3A3",
"E c #F7ABAB",
"W c #FFB7B7",
"Q c white",
"! c #00FF00",
/* pixels */
"!!!!!!!!!!!!!!!!!!dai;!!!!!!!!!!!!!!!!!!!!!",
"!!!!!!!!!!!!!!!!!!dZZp!!!!!!!!!!!!!!!!!!!!!",
"!!!!!!!!!!!!!!!VCAMYAVUAZC!!!!!!!!!!!!!!!!!",
"!!!!!!!!!!!ZVCZAZCinnsMVCZZZV!!!VZZ!!!!!!!!",
"!!!!!!!!ZZVZCVNMMMiANnMMMVVCCVVCAZCMnn!!!!!",
"!!!!!nnMCZACVmmmMM-nN-MVCAAZZCVCZUAVmdn!!!!",
"!!!!ndmVAUZCVNVCAA*nNiCUTTTTYACMMCCVmsa!!!!",
"!!!!asmVCCMMCVAUUUsNYnCTEERRTAVmnmMmdai!!!!",
"!!!!iadmMmnmVCAUYTNsNsAYRRTTYAVnsasdaiu!!!!",
"!!!!uiadsasnVVAYYTArNdCYYTYAVNmsirriir;!!!!",
"!!!!;riirrismnNCCCC;UNNUAAVnnapirr%-=$@d!!!",
"!!!d$-=-&rrippdnMMM;sddCCVdiiuiiu-$$$O$a!!!",
"!!!adO$&@-uiiu=uanNinYiCANrriasau-@@O$&iM!!",
"!!imNiO@@-uasr-=usNn-WdCYNiiannau-+O@&*ip!!",
"!!pdmd$O@-uani;&&nCn;YnAUAVNMmnanNYLLe7uu!!",
"!!ud7eLLYNnaMMMVCZAUrUnAAAZCVNMdqqKIPKq7;!!",
"!!;7qKPIKqqdnCUTYYUUdNNZZZAUYYCna07765oq*n!",
"!nuqo56770annZYEWWTUdsNVCATEETCsu= O*=;&*a!",
"!a=@@=&@@$7psnAYREETasNMATERTCMuuO  O*;*$a!",
"!n@=@@@O=;%*=nMAAAAApdCdCAAZVmi;!!&  @&&$in",
"nVa@O$$=i!!!!=idMVVVpsCsmMmsa-@=!!!&O+O$;in",
"nAs$%;i&!!!!!p@hh=mmuumiddi=+h#;!!!&&;;$idd",
"dCC$pMd&!!!!!u&>SQh+&$uu=*hQS2-u!!!&-ps;dNs",
"sNVuVni&!!!!&u-uzJSjh=$$=hSJFdup!!!&-;puMna",
"anMssp-&!!!!&a&raMmap=*$*ramdu-p!!!!%&;unap",
"panai;&!!!!!&a&&&ru;=&&&@&&&=-;*!!!!$%;uaai",
"ipaau=&!!!!-&%O;&&&&&raar&&=-;O%!!!!!#$-aap",
"paas-&!!!!!-&$OOu$<l&<l$l<@$u;$$&!!!!!#unna",
"annd-!!!!!!-$OOOa-1t fy t1 -a=OO$!!!!!#dCms",
"smCd-!!!!!!-$OOOar         ra*OO$!!!!!#dCms",
"smCd-!!!!!i;#OOOas         sa&OO#&!!!nZCCms",
"smCZYn!!!!i*@OOOnd &&&@*&  dn%OO@*!!nZCVMna",
"anMVCZn!!!i&OOOOm3-g&&&&&g-am$OOO&!!snnuMap",
"paMunns!!!i$OOOOVB;fF&&&ff:4VOOOO*i!smp;nui",
"iun@pms!!si@%--OMB:FxH8HxF:4MO@@O*i!ir;;piu",
"uip@@@i!!sp@-%%$dZd1x1:1x,4Zd$%%$;p!!a----!",
"!--@-a!!!ss=ru;r-dNdB33B4dZM-%%%%;ss!!!!!!!",
"!!!!!!!!!ssiussp&MCZYYAYZCM&%%***;ss!!!!!!!",
"!!!!!!!!!!pusnnd=#ppdNVNsp#$*ru;;rss!!!!!!!",
"!!!!!!!!!!uusnbM*#!!!!!!!!##=iaaiuas!!!!!!!",
"!!!!!!!!!!!uddMM*&!!!!!!!!##=iasiuas!!!!!!!",
"!!!!!!!!!!!uivDM*&!!!!!!!!!#=ismsua!!!!!!!!",
"!!!!!!!!!!!unMMM*!!!!!!!!!!#=imkkua!!!!!!!!",
"!!!!!!!!!!!uMvGv*!!!!!!!!!!#=iMMmua!!!!!!!!",
"!!!!!!!!!Mn-nNUN*MM!!!!!!!!!=dVccup!!!!!!!!",
"!!!!!!!!9Mn-AANa*MM9!!!!!!!!*sCCdui!!!!!!!!",
"!!!!!!!ooia-unau*aioo!!!!!!!*sZvvri!!!!!!!!",
"!!!!!!!..uu----*ruu..!!!!!!!-sAAdri!!!!!!!!",
"!!!!!!!!!!u;-**;u;!!!!!!!!!!;sADvui!!!!!!!!",
"!!!!!!!!!!!u;--;=!!!!!!!!!!!usVZNii!!!!!!!!",
"!!!!!!!!!!!=;;;=&!!!!!!!!!!iisCVAii!!!!!!!!",
"!!!!!!!!!!!#=&&&#!!!!!!!!!!iidCCnri!!!!!!!!",
"!!!!!!!!!!!!####!!!!!!!!!!dnNdMAZspdd!!!!!!",
"!!!!!!!!!!!!!!!!!!!!!!!!!85NrMnnnNrm58!!!!!",
"!!!!!!!!!!!!!!!!!!!!!!!!85o;snXXXns;o58!!!!",
"!!!!!!!!!!!!!!!!!!!!!!!!5oX;dX8w8Xd;Xo5!!!!",
"!!!!!!!!!!!!!!!!!!!!!!!!!!!!;X585X;!!!!!!!!",
"!!!!!!!!!!!!!!!!!!!!!!!!!!!!!#o5o#!!!!!!!!!"
};
