/* XPM */
static char *result[] = {
/* columns rows colors chars-per-pixel */
"43 58 79 1 ",
"  c black",
". c #232323",
"X c #272727",
"o c #373737",
"O c #430000",
"+ c #470000",
"@ c #4F0000",
"# c #530707",
"$ c #5B0707",
"% c #5F0707",
"& c #670B0B",
"* c #6B0F0F",
"= c #731313",
"- c #771717",
"; c #7F1B1B",
": c #4B371B",
"> c #533F1F",
", c #5F4323",
"< c #6B4727",
"1 c #774F2B",
"2 c #7F532F",
"3 c #675333",
"4 c #775F3F",
"5 c #434343",
"6 c gray31",
"7 c gray34",
"8 c #5B5B5B",
"9 c gray39",
"0 c gray42",
"q c #6F6F6F",
"w c #777777",
"e c gray50",
"r c #831F1F",
"t c #A70000",
"y c #BF0000",
"u c #8B2323",
"i c #8F2B2B",
"p c #972F2F",
"a c #9B3333",
"s c #A33B3B",
"d c #A73F3F",
"f c #CB0000",
"g c #EF0000",
"h c #874307",
"j c #9B5B13",
"k c #AF4300",
"l c #875733",
"z c #8F5F37",
"x c #A36B3F",
"c c #C34F00",
"v c #D75F0B",
"b c #F37317",
"n c #AF4747",
"m c #B34F4F",
"M c #BB5757",
"N c #BF5B5B",
"B c #836B4B",
"V c #C76363",
"C c #CB6B6B",
"Z c #D37373",
"A c #DB7B7B",
"S c #C39B2F",
"D c #FF8F3B",
"F c #CF8353",
"G c #FFA35B",
"H c #EFA373",
"J c #FFFF73",
"K c #939393",
"L c #A7A7A7",
"P c #B7B7B7",
"I c gray75",
"U c #DF8787",
"Y c #E78F8F",
"T c #EB9797",
"R c #F3A3A3",
"E c #F7ABAB",
"W c #FFB7B7",
"Q c white",
"! c #00FF00",
/* pixels */
"!!!!!!!!!!!!!!!!!!!!!;iad!!!!!!!!!!!!!!!!!!",
"!!!!!!!!!!!!!!!!!!!!!pZZd!!!!!!!!!!!!!!!!!!",
"!!!!!!!!!!!!!!!!!CZAUVAYMACV!!!!!!!!!!!!!!!",
"!!!!!!!!ZZV!!!VZZZCVMsnniCZAZCVZ!!!!!!!!!!!",
"!!!!!nnMCZACVVCCVVMMMnNAiMMMNVCZVZZ!!!!!!!!",
"!!!!ndmVAUZCVCZZAACVM-Nn-MMmmmVCAZCMnn!!!!!",
"!!!!asmVCCMMCAYTTTTUCiNn*AACVNVCZUAVmdn!!!!",
"!!!!iadmMmnmVATRREETCnYNsUUUAVCMMCCVmsa!!!!",
"!!!!uiadsasnVAYTTRRYAsNsNTYUACVmnmMmdai!!!!",
"!!!!;riirrismNVAYTYYCdNrATYYAVVnsasdaiu!!!!",
"!!!d@$=-%rripannVAAUNNU;CCCCNnmsirriir;!!!!",
"!!!a$O$$$-uiiuiidVCCdds;MMMndppirr&-=-$d!!!",
"!!Mi&$O@@-uasairrNACiYniNnau=uiiu-@&$Oda!!!",
"!!pi*&@O+-uannaiiNYCdW-nNsu=-rsau-@@OiNmi!!",
"!!uu7eLLYNnanmMNVAUAnY;nCn&&;inau-@O$dmdp!!",
"!!;7qKPIKqqdMNVCZAAAnUrUAZCVMMManNYLLe7du!!",
"!n*qo56770anCYYUAZZZNNdUUYYTUCndqqKIPKq7;!!",
"!a*&;=*O =usCTEETACVNsdUTWWEYZnna07765oqun!",
"!a$*;*O  OuuMCTRETAMNsaTEERYAnsp7$@@&=@@=a!",
"ni$&&@  &!!;imVZAACdCdpAAAAAMn=*%;=O@@@=@n!",
"ni;$O+O&!!!=@-asmMmsCspVVVMdi=!!!!i=$$O@aVn",
"ddi$;;&&!!!;#h+=iddimuumm=hh@p!!!!!&i;%$sAn",
"sNd;sp-&!!!u-2SQh*=uu$&+hQS>&u!!!!!&dMp$CCd",
"anMup;-&!!!pudFJSh=$$=hjSJzu-u&!!!!&inVuVNs",
"panu;&%!!!!p-udmar*$*=pamMar&a&!!!!&-pssMna",
"iaau;%$!!!!*;-=&&&@&&&=;ur&&&a&!!!!!&;ianap",
"paa-$#!!!!!%O;-=&&raar&&&&&;O%&-!!!!&=uaapi",
"annu#!!!!!&$$;u$@<l$l<&l<$uOO$&-!!!!!&-saap",
"smCd#!!!!!$OO=a- 1t yf t1-aOOO$-!!!!!!-dnna",
"smCd#!!!!!$OO*ar         raOOO$-!!!!!!-dCms",
"smCCZn!!!&#OO&as         saOOO#;i!!!!!-dCms",
"anMVCZn!!*@OO%nd  &*@&&& dnOOO@*i!!!!nYZCms",
"paMunns!!&OOO$ma-g&&&&&g-3mOOOO&i!!!nZCVMna",
"iun;pms!i*OOOOV4:ff&&&Ff;BVOOOO$i!!!snnuMap",
"uip;;ri!i*O@@OM4:FxH8HxF:BMO--%@is!!smp@nui",
"!----a!!p;$%%$dZ4,x1:1x1dZd$%%-@ps!!i@@@piu",
"!!!!!!!ss;%%%%-MZd4B33BdNd-r;ur=ss!!!a-@--!",
"!!!!!!!ss;***%%&MCZYAYYZCM&pssuiss!!!!!!!!!",
"!!!!!!!ssr;;ur*$#psNVNdpp#=dnnsup!!!!!!!!!!",
"!!!!!!!sauiaai=##!!!!!!!!#*Mbnsuu!!!!!!!!!!",
"!!!!!!!sauisai=##!!!!!!!!&*MMddu!!!!!!!!!!!",
"!!!!!!!!ausmsi=#!!!!!!!!!&*MDviu!!!!!!!!!!!",
"!!!!!!!!aukkmi=#!!!!!!!!!!*MMMnu!!!!!!!!!!!",
"!!!!!!!!aumMMi=#!!!!!!!!!!*vGvMu!!!!!!!!!!!",
"!!!!!!!!puccVd=!!!!!!!!!MM*NUNn-nM!!!!!!!!!",
"!!!!!!!!iudCCs*!!!!!!!!9MM*aNAA-nM9!!!!!!!!",
"!!!!!!!!irvvZs*!!!!!!!ooia*uanu-aioo!!!!!!!",
"!!!!!!!!irdAAs-!!!!!!!..uur*----uu..!!!!!!!",
"!!!!!!!!iuvDAs;!!!!!!!!!!;u;**-;u!!!!!!!!!!",
"!!!!!!!!iiNZVsu!!!!!!!!!!!=;--;u!!!!!!!!!!!",
"!!!!!!!!iiAVCsii!!!!!!!!!!&=;;;=!!!!!!!!!!!",
"!!!!!!!!irnCCdii!!!!!!!!!!#&&&=#!!!!!!!!!!!",
"!!!!!!ddpsZAMdNnd!!!!!!!!!!####!!!!!!!!!!!!",
"!!!!!85mrNnnnMrN58!!!!!!!!!!!!!!!!!!!!!!!!!",
"!!!!85o;snXXXns;o58!!!!!!!!!!!!!!!!!!!!!!!!",
"!!!!5oX;dX8w8Xd;Xo5!!!!!!!!!!!!!!!!!!!!!!!!",
"!!!!!!!!;X585X;!!!!!!!!!!!!!!!!!!!!!!!!!!!!",
"!!!!!!!!!#o5o#!!!!!!!!!!!!!!!!!!!!!!!!!!!!!"
};
