/* XPM */
static char *result[] = {
/* columns rows colors chars-per-pixel */
"44 55 76 1 ",
"  c #332B13",
". c #3F2F17",
"X c #430000",
"o c #470000",
"O c #4F0000",
"+ c #530707",
"@ c #5B0000",
"# c #5B0707",
"$ c #5F0707",
"% c #670000",
"& c #670B0B",
"* c #6B0F0F",
"= c #7F0000",
"- c #731313",
"; c #771717",
": c #7F1B1B",
"> c #43331B",
", c #4B371B",
"< c #533F1F",
"1 c #5F4323",
"2 c #6B4727",
"3 c #7F532F",
"4 c #434343",
"5 c gray28",
"6 c gray31",
"7 c gray34",
"8 c #5B5B5B",
"9 c gray39",
"0 c gray42",
"q c #6F6F6F",
"w c #777777",
"e c gray50",
"r c #9B0000",
"t c #831F1F",
"y c #A70000",
"u c #B30000",
"i c #BF0000",
"p c #8B2323",
"a c #8F2B2B",
"s c #972F2F",
"d c #9B3333",
"f c #A33B3B",
"g c #A73F3F",
"h c #CB0000",
"j c #AF7B1F",
"k c #875733",
"l c #8F5F37",
"z c #AF4747",
"x c #B34F4F",
"c c #BB5757",
"v c #BF5B5B",
"b c #AB6F43",
"n c #C76363",
"m c #CB6B6B",
"M c #D37373",
"N c #DB7B7B",
"B c #CF8353",
"V c #D78B5B",
"C c #FFA35B",
"Z c #E79B6B",
"A c #FFFF73",
"S c #838383",
"D c #939393",
"F c #979797",
"G c #9F9F9F",
"H c gray67",
"J c gray70",
"K c #DF8787",
"L c #E78F8F",
"P c #EB9797",
"I c #F3A3A3",
"U c #F7ABAB",
"Y c #FFB7B7",
"T c #CBCBCB",
"R c gray86",
"E c #00FF00",
/* pixels */
"EEEEEEEEEEEEEEEEEEEgda:EEEEEEEEEEEEEEEEEEEEE",
"EEEEEEEEEEEEEEEEEEEgMMsEEEEEEEEEEEEEEEEEEEEE",
"EEEEEEEEEEEEEEEEEmNcLNnKNMmEEEEEEEEEEEEEEEEE",
"EEEEEEEEEEEEEEEMNKnsccgmMNKNMnEEEnMKKnEEEEEE",
"EEEEEEEEEEEEmMNMmnvsLMgnnnmmmnnmNKPPLMxEEEEE",
"EEEEEEEEmMnnvcxvvvvtnMcfmNNMmmmMnmNMmccsEEEE",
"EEEEEEnKKMnmnvxvnmmffnmfmmccxzgcmMKKNnzdcEEE",
"EEEEExMLPPmmcccnmMMvgfxfMNMMmnccccvmmnxfdEEE",
"EEEEsccmwFFnzmKPLLLMxfxfMKLLLPKmmznFFwgdaEEE",
"EEEcdzwDJRTszMLUYYYPvxfmKPYYYULMMzsTRJDwpEEE",
"EEEdfwHe987##zNLIUUUPxfvPUUUILNzz;#789eHwEEE",
"EEEadG4;**$*##cNNNNNNxgxNNNNNNca;#O$**;4GtEE",
"EEEpadgfds;;&O#gcnnnnxfxnnnncga;OO#&&*;tttEE",
"EEE:;aattt;&;&o<pffxxgpgxxffp<oOO#*;adpptpEE",
"EEtfs*;:;;&&s;O<jAj:t*#p-**jA3OO#*;;adst;pEE",
"EEtfxa*&+++$paOolZl<<-#O-<lZBOO*:;&;ads;-pEE",
"EEpfxxs;**X$;:&OOOO-;-*O$t&#OO#&:;o#;ta--tEE",
"EEppgggs;;X+#;:&$*-;:&&+O#&&---**&ooO*;$:pxE",
"EEptddda:;XX+*;;&$&&;tdda:;-::-&$o+#OOO:afdE",
"EEttaat;*#XEE#*&$;:a:&. # .O#pt+OEE&&#&pfzaE",
"Exp::t**##EEEE#+$;&>1=k2o1>O;dtOOEE;pptagc-E",
"Edfa:&###EEEEE#+$t#$*&#oOOOOtdt+*EEpfcdtfc-E",
"Eazfp&#&&EEEEEt-$p&;uyr===%@pd;*tEEpszg-sz&E",
"Eacgatpp;EEEE&t-&ttriuyyr==%az*;t&EEpfg;af:E",
"EacftdcfpEEEE&;t-sgrChiyyyC;dx;t*&EEEps-tspE",
"Eazs-gzspEEEE#&*;zc:b1hhy1b:fnt*O#EEE:tptsgE",
"Eafa;gfpEEEEE:#++xng2,V1V,2dxc$XXOEEE-pgcfgE",
"Epst-spEEEEE;;;#+gMx,1dzd1,xMgXXOOEEE-gsppaE",
"Egttpt:EEEEE:::&$+gvnvcxcvnMcoXO;-&EE:ptpggf",
"Egfcgp-EEEE;::t*&$#gvMNLLMmcooO+&p;EEta:txzf",
"Eappsg-EEEE::t:;-:*+sgvnvfsoXO#+&pp:Edttafxf",
"fggptp:EEE;:tt;tpp-ooXooooXO+##:::daEssstdff",
"fzxt:atEEE::at;psp-ooooooX**##&pspdaassfstpd",
"fxf:::dEEE:ta;tsf:*oooXEOX*t&&;sfddsaxg:gsxE",
"ffd:s::EE;:ap:tgf-&ooOEEE##t;-;sffsdaxdEpxxE",
"dp:sfssEE::dptszs*#oO#EEEO#;t;tafgfdaEEEEEEE",
"Exng:gxEE*:daagzp*+o#EEEEE$&t:pagxgsaEEEEEEE",
"ExxvEdvEE*:aafzft-++*EEEEE&$;tpadddsaEEEEEEE",
"EEEEEEEEE*;ppzxf:-+*EEEEEEE$&psfzzzgdcEEEEEE",
"EEEEEEEEEE;ppfxf:-;*EEEEEEE$ppfzfsadzgEEEEEE",
"EEEEEEEEEE&psfxf:;:EEEEEEEEEgzsdffggxfgEEEEE",
"EEEEEEEEEEpsssgst:*EEEEEEEEExntdzvvgxasEEEEE",
"EEEEEEEEEEEspadpptEEEEEEEEEEzntdxnMxzaaEEEEE",
"EEEEEEEEEEEppdddaaEEEEEEEEEEzctdxmNxzspEEEEE",
"EEEEEEEEEEEadgzgsgEEEEEEEEEEEzpdcMKczaEEEEEE",
"EEEEEEEEEEEEfzczdEEEEEEEEEEEEgpfvNLvxpEEEEEE",
"EEEEEEEEEEEEgxmcgEEEEEEEEEEEEppdcKPnxEEEEEEE",
"EEEEEEEEEEnxxcNmcEEEEEEEEEEEEEpdvKKmxEEEEEEE",
"EEEEEEEEzzxxxcNmccxzEEEEEEEEEEdfmNNNcEEEEEEE",
"EEEEEEE0ddgxvzzzmnfd:9EEEEEEEEdzMLPNmEEEEEEE",
"EEEEEE09ddgzzwSwzzfda79EEEEqngscnczcNmcqEEEE",
"EEEEEEEEEEEs60w06sEEEEEEEeq9xggnzwSwznc9qeEE",
"EEEEEEEEEEEa68086aEEEEEEeq97xdzg80w08gx79qeE",
"EEEEEEEEEEEE66666EEEEEEEq975adaa68086pf579qE",
"EEEEEEEEEEEEEEEEEEEEEEEEEEEEEEEE76867EEEEEEE"
};
