/* XPM */
static char *result[] = {
/* columns rows colors chars-per-pixel */
"40 56 83 1 ",
"  c black",
". c #2B230F",
"X c #232323",
"o c #373737",
"O c gray23",
"+ c #430000",
"@ c #470000",
"# c #4F0000",
"$ c #530707",
"% c #5B0707",
"& c #5F0707",
"* c #670B0B",
"= c #6B0F0F",
"- c #731313",
"; c #771717",
": c #7F1B1B",
"> c #4B371B",
", c #5F4323",
"< c #5B472B",
"1 c #6B4727",
"2 c #774F2B",
"3 c #675333",
"4 c #775F3F",
"5 c #434343",
"6 c gray28",
"7 c gray31",
"8 c gray34",
"9 c #5B5B5B",
"0 c gray39",
"q c gray42",
"w c #6F6F6F",
"e c #777777",
"r c gray50",
"t c #831F1F",
"y c #A70000",
"u c #BF0000",
"i c #8B2323",
"p c #8F2B2B",
"a c #972F2F",
"s c #9B3333",
"d c #A33B3B",
"f c #A73F3F",
"g c #CB0000",
"h c #EF0000",
"j c #874307",
"k c #9B5B13",
"l c #AF7B1F",
"z c #875733",
"x c #A36B3F",
"c c #CB5707",
"v c #DF670F",
"b c #AF4747",
"n c #B34F4F",
"m c #BB5757",
"M c #BF5B5B",
"N c #836B4B",
"B c #C76363",
"V c #CB6B6B",
"C c #D37373",
"Z c #DB7B7B",
"A c #C39B2F",
"S c #FF8F3B",
"D c #CF8353",
"F c #EFA373",
"G c #EBDB57",
"H c #939393",
"J c #979797",
"K c #9F9F9F",
"L c #A7A7A7",
"P c gray67",
"I c gray70",
"U c #B7B7B7",
"Y c gray75",
"T c #DF8787",
"R c #E78F8F",
"E c #EB9797",
"W c #F3A3A3",
"Q c #F7ABAB",
"! c #FFB7B7",
"~ c #CBCBCB",
"^ c gray86",
"/ c white",
"( c #00FF00",
/* pixels */
"(((((((((((((((fsp:(((((((((((((((((((((",
"(((((((((((((((fsp:(((((((((((((((((((((",
"(((((((((((((((fCCa(((((((((((((((((((((",
"(((((((((((((VZmRZBTZCV((BCCCTTTTB((((((",
"(((((((((((CZTBammfMCZTZCBBVZTEERCn(((((",
"((((((((VCZCVBMaRCmddMVVVVVCBVZMnnff((((",
"((((VCBBMmnMMMMtBCmmVZZCVBmmVCTTZBfpm(((",
"((BVMMBVBMnMBVZtfBVVEEERZVMbpmMVVBnds(((",
"(BnMVCVVBbMVZZZBdRVEQQWEZBbdppbnmnfsp(((",
"MnnVCZCBmfVZTETMamZRWWERZMap;pasdfspi(((",
"sfnCZCVMbfBCEWEBaBVRRERZMpp;;;tttpp;;i((",
"::fBBMmbfdbBZETVtRMTZZBbspp;%;;;;;;**i((",
"*=tdfffddsafnVBBaffVVMfpisd;*@%%%%%%#i((",
";**ippasdai:pfmVdtpVMpttpsd**@@@....**((",
"(***;:tpdstttpfVb*fVRMppdsi**@@@@@..$*((",
"(s;**=-:pdp::fVVb:bmTZBMmfdsMsLLr8@.$&((",
"(sa;***fffsfBVCZbtTbmmnMMMndBtYUHw8@$&((",
"(ppp;eJJfBfBERRTbfMMmmMZTRVna;875ow@$&((",
"(tdeHI^~fBfMQ!!EbadMfMZEQQEn%%&@@.@@&@n(",
"(-ePr098ffpnRWQQdidMsZEQWEVm%;%%@...@$&(",
"(pK5;==&=-:amZZZaifVfVZZCBnpf%((@@%.$&&(",
"(sni*&%%#+-:fmBBatdVdnmnds;#d(((@%$@&&*(",
"(pi;&$$$((%=jiii*-dnp;tpt*j$p(((*&&$&;%(",
"sii&#$$#((:%kA/j%+%ii%%j/Ak;p(((($-&;-=(",
"fspi-%*#((:%tlAlj +*%-jlGlfi=((((($=*=-(",
"bfmmbii*((&:-tfft+*-#&tsffi;%((((($$*%i(",
"bnCCBbfpt(+:a::--:%%%#%**---#(((((#$-*-(",
"sbCECnBs:++=p-#%%--sst*;-::-$p((((#**-;(",
"ssBZEBZft++&:-%:p:*1z%z1#%i$$p((((#--iid",
"asdBZEEni+++&:=*1y gu y2 ;s$$tp(((*;-apd",
"(asfBEQBt++++&:%         ts#$=p(((t----i",
"(pasBEQZp++++*i*         is@@*tp(((iiii(",
"((paBZ!Cp+++++tt ***#=*  <b@@%=p((((((((",
"((isVBZ!B+++++a<;h*****h;3n@@$*tp(((((((",
"(((sVZmR!Bi+++b3:gD***Dg>4B@@@%;p(((((((",
"(((sBTZR!!Tf++nN>DxF9FxD>4m@@@$=af((((((",
"(((snBWW!TnBB:fCf2x2>2x,4Cf@@@$*tf((((((",
"(((admCQTs;pBf+fMfN33N4fCm;@@@&-pn((((((",
"(((asfmTBp+*pp+%fMCZRRCVm@@@&=;;anf(((((",
"((((iifZRp+++++(aafMBMda@@&=taitsnf(((((",
"((((tn:fCRff++((((((((((&@&tafaiffa(((((",
"((((inip%tp%++(((((((((((&&tfccpfsa(((((",
"((((iiinZ+%%+((((((((((((&&tmmaafa((((((",
"(((((iiiii%%+((((((((((((&=tmScssa((((((",
"(((((((+&&:%%((((((((((((&=pmCfsa(((((((",
"(((((((+*;:-&(((((((((((&&=pmScds(((((((",
"((((((&=;af-&&((((((((((&&=amTCfd(((((((",
"(((((6&;aVVa&&6(((((((((@&=aBZvcf(((((((",
"((((( +;f++b+% ((((((((&p&:aBTCMbn((((((",
"(((((((;+OqO+((((((((((pm;ptmZRZfab(((((",
"(((((((&XXO&&((((((((;bZm=taVREEVfam((((",
"((((((((((((((((((((wKafb&tkii:iiVaa0w((",
"(((((((((((((((((((00w*ta%tieHKHeifa80w(",
"(((((((((((((((((((000&###p&5rKr9&iiX80(",
"((((((((((((((((((((((((((iXoqrq6&((((((",
"((((((((((((((((((((((((((((XO96O((((((("
};
