/* XPM */
static char *result[] = {
/* columns rows colors chars-per-pixel */
"9 7 9 1 ",
"  c #430000",
". c #A70000",
"X c #B30000",
"o c #BF0000",
"O c #CB0000",
"+ c #D70000",
"@ c #E30000",
"# c #EF0000",
"$ c None",
/* pixels */
"   $$   $",
" # $ @+ $",
"    oo. $",
"$$ oO. $$",
"$ XO.    ",
"$ o. $ # ",
"$   $$   "
};
