/* XPM */
static char *result[] = {
/* columns rows colors chars-per-pixel */
"8 7 12 1 ",
"  c #430000",
". c #4F0000",
"X c #730000",
"o c #7F0000",
"O c #8B0000",
"+ c #9B0000",
"@ c #A70000",
"# c #B30000",
"$ c #BF0000",
"% c #CB0000",
"& c #D70000",
"* c None",
/* pixels */
"**    **",
"* +$#O *",
"* &.%o *",
" X$$# **",
" ##.$%  ",
" X@#%%% ",
"*       "
};
