/* XPM */
static char *result[] = {
/* columns rows colors chars-per-pixel */
"4 4 4 1 ",
"  c #430000",
". c #BF0000",
"X c #D70000",
"o c None",
/* pixels */
"    ",
" .X ",
"  X ",
"o  o"
};
