/* XPM */
static char *result[] = {
/* columns rows colors chars-per-pixel */
"7 7 5 1 ",
"  c #430000",
". c #9B0000",
"X c #B30000",
"o c #E30000",
"O c None",
/* pixels */
"OOO OOO",
"OO X OO",
"O XoX O",
" .ooo. ",
"O .o. O",
"OO . OO",
"OOO OOO"
};
