/* XPM */
static char *result[] = {
/* columns rows colors chars-per-pixel */
"7 7 7 1 ",
"  c #430000",
". c #BF0000",
"X c #CB0000",
"o c #D70000",
"O c #E30000",
"+ c #EF0000",
"@ c None",
/* pixels */
"       ",
" oX XX ",
" o. oo ",
" oo++o ",
"    OX ",
"@@@ oX ",
"@@@    "
};
