/* XPM */
static char *result[] = {
/* columns rows colors chars-per-pixel */
"7 7 7 1 ",
"  c #430000",
". c #8B0000",
"X c #B30000",
"o c #BF0000",
"O c #CB0000",
"+ c #D70000",
"@ c None",
/* pixels */
"   @@@@",
" X+ @@@",
" .+o @@",
"@ .oo @",
"@@ .oO ",
"@@@ .O ",
"@@@@   "
};
