/* XPM */
static char *result[] = {
/* columns rows colors chars-per-pixel */
"7 5 5 1 ",
"  c #430000",
". c #9B0000",
"X c #BF0000",
"o c #CB0000",
"O c None",
/* pixels */
"OOO OOO",
"OO . OO",
"O .X. O",
" .o o. ",
"   O   "
};
