/* XPM */
static char *result[] = {
/* columns rows colors chars-per-pixel */
"8 7 10 1 ",
"  c #430000",
". c #7F0000",
"X c #8B0000",
"o c #9B0000",
"O c #B30000",
"+ c #BF0000",
"@ c #CB0000",
"# c #D70000",
"$ c #EF0000",
"% c None",
/* pixels */
"%%      ",
"% .#$$@ ",
" X##    ",
" o++ %%%",
" .##    ",
"% .+$$O ",
"%%      "
};
