/* XPM */
static char *result[] = {
/* columns rows colors chars-per-pixel */
"8 7 9 1 ",
"  c #430000",
". c #7F0000",
"X c #8B0000",
"o c #9B0000",
"O c #B30000",
"+ c #BF0000",
"@ c #D70000",
"# c #E30000",
"$ c None",
/* pixels */
"$$$$    ",
"$$$$ #o ",
"$$$$ +o ",
"$$$$ Oo ",
"    XOo ",
" O@@@O. ",
"       $"
};
