/* XPM */
static char *result[] = {
/* columns rows colors chars-per-pixel */
"8 7 9 1 ",
"  c #430000",
". c #9B0000",
"X c #A70000",
"o c #B30000",
"O c #CB0000",
"+ c #D70000",
"@ c #E30000",
"# c #EF0000",
"$ c None",
/* pixels */
"    $   ",
" X#  #o ",
" XO @. $",
" X@OO $$",
" X@ .+ $",
" X+  .+ ",
"    $   "
};
