/* XPM */
static char *result[] = {
/* columns rows colors chars-per-pixel */
"8 8 8 1 ",
"  c #430000",
". c #7F0000",
"X c #8B0000",
"o c #A70000",
"O c #B30000",
"+ c #BF0000",
"@ c #D70000",
"# c None",
/* pixels */
"##    ##",
"# O++O #",
" O@XX+O ",
" O+  +O ",
" .@XXo. ",
"# .++o #",
"##   oo ",
"#####   "
};
