/* XPM */
static char *result[] = {
/* columns rows colors chars-per-pixel */
"7 7 10 1 ",
"  c #430000",
". c #8B0000",
"X c #9B0000",
"o c #B30000",
"O c #BF0000",
"+ c #CB0000",
"@ c #D70000",
"# c #E30000",
"$ c #EF0000",
"% c None",
/* pixels */
"%      ",
" .o#+. ",
" oo    ",
" .OoX. ",
"    +o ",
" X$@o. ",
"      %"
};
