/* XPM */
static char *result[] = {
/* columns rows colors chars-per-pixel */
"7 7 8 1 ",
"  c #430000",
". c #7F0000",
"X c #8B0000",
"o c #9B0000",
"O c #B30000",
"+ c #BF0000",
"@ c #CB0000",
"# c None",
/* pixels */
"####   ",
"### +O ",
"## +OX ",
"# +OX #",
" @OX ##",
" o. ###",
"   ####"
};
