/* XPM */
static char *result[] = {
/* columns rows colors chars-per-pixel */
"8 7 9 1 ",
"  c #430000",
". c #7F0000",
"X c #A70000",
"o c #B30000",
"O c #BF0000",
"+ c #CB0000",
"@ c #D70000",
"# c #E30000",
"$ c None",
/* pixels */
"        ",
" X#  +o ",
" oO  OX ",
" XO  OX ",
" .O@@O. ",
"$ .XX. $",
"$$    $$"
};
