/* XPM */
static char *result[] = {
/* columns rows colors chars-per-pixel */
"4 7 5 1 ",
"  c #430000",
". c #BF0000",
"X c #D70000",
"o c #EF0000",
"O c None",
/* pixels */
"    ",
" oo ",
"    ",
"    ",
" .X ",
"  X ",
"O   "
};
