/* XPM */
static char *result[] = {
/* columns rows colors chars-per-pixel */
"8 7 9 1 ",
"  c #430000",
". c #730000",
"X c #7F0000",
"o c #9B0000",
"O c #A70000",
"+ c #BF0000",
"@ c #CB0000",
"# c #E30000",
"$ c None",
/* pixels */
"$$      ",
"$ O@### ",
" O@o    ",
" O@. @@ ",
" X+o o# ",
"$ OO#+# ",
"$$      "
};
