/* XPM */
static char *result[] = {
/* columns rows colors chars-per-pixel */
"9 7 9 1 ",
"  c #430000",
". c #8B0000",
"X c #9B0000",
"o c #A70000",
"O c #B30000",
"+ c #BF0000",
"@ c #CB0000",
"# c #D70000",
"$ c None",
/* pixels */
"$  $$$  $",
" .@ $ #. ",
" o@o .+# ",
" +Oo@o+o ",
" OX O +o ",
" +o   +o ",
"    $    "
};
