/* XPM */
static char *result[] = {
/* columns rows colors chars-per-pixel */
"8 7 9 1 ",
"  c #430000",
". c #5B0000",
"X c #7F0000",
"o c #A70000",
"O c #BF0000",
"+ c #D70000",
"@ c #E30000",
"# c #EF0000",
"$ c None",
/* pixels */
"       $",
" o@###X ",
"    .OO ",
" ###++X ",
" ##    $",
" OO $$$$",
"    $$$$"
};
