/* XPM */
static char *Z1747079372[] = {
/* columns rows colors chars-per-pixel */
"7 7 9 1 ",
"  c #430000",
". c #7F0000",
"X c #B30000",
"o c #BF0000",
"O c #CB0000",
"+ c #D70000",
"@ c #E30000",
"# c #EF0000",
"$ c None",
/* pixels */
"       ",
" oO@@X ",
"   OX. ",
"$ Oo. $",
" XO.   ",
" oO+#o ",
"       "
};
