/* XPM */
static char *result[] = {
/* columns rows colors chars-per-pixel */
"14 16 14 1 ",
"  c #2F2F2F",
". c #430000",
"X c #730000",
"o c #7F0000",
"O c #8B0000",
"+ c #9B0000",
"@ c #A70000",
"# c #B30000",
"$ c #BF0000",
"% c #CB0000",
"& c #D70000",
"* c #E30000",
"= c #EF0000",
"- c #00FF00",
/* pixels */
"............--",
".X$@#%&&&@O. -",
".X$o++oO@Oo. -",
".o$+XoXXXOX. -",
".+$o........ -",
".+%o......   -",
".o#$%&*&$o.---",
".X$$#@O@#+o.--",
".XXOOoXO#@+o.-",
"-  .....o++#. ",
"........o@@#. ",
".#====%O@#+o. ",
".+*&$$++@$o.  ",
".O@@+OOoXo.  -",
".........   --",
"-         ----"
};
