/* XPM */
static char *result[] = {
/* columns rows colors chars-per-pixel */
"14 16 15 1 ",
"  c #2F2F2F",
". c #430000",
"X c #5B0000",
"o c #670000",
"O c #730000",
"+ c #7F0000",
"@ c #8B0000",
"# c #9B0000",
"$ c #A70000",
"% c #B30000",
"& c #BF0000",
"* c #CB0000",
"= c #D70000",
"- c #E30000",
"; c None",
/* pixels */
";;;.......;;;;",
";.XO#--%#OX.;;",
".o@@#%&##@@o.;",
".O#@#@#+#@#O. ",
".O#@*...&@#O. ",
".o$@*...*@$o. ",
";.o@#-=&#@o.  ",
";;.@$$$$$@.  ;",
";.o#$OOO$#o.;;",
".o#%*...**#o.;",
".@#%*...*%%@. ",
".@%##*-*$&%@. ",
".o##@&%##%#o. ",
";.OOOOOOOOO.  ",
";;.........  ;",
";;;         ;;"
};
