/* XPM */
static char *result[] = {
/* columns rows colors chars-per-pixel */
"60 58 236 2 ",
"   c #010202",
".  c #0A0703",
"X  c #0E0904",
"o  c #170000",
"O  c #160E07",
"+  c #190D03",
"@  c #161107",
"#  c #1B1106",
"$  c #1D1409",
"%  c #2F0500",
"&  c #3E0000",
"*  c #3A0E02",
"=  c #261705",
"-  c #221509",
";  c #241A0B",
":  c #2A1E0D",
">  c #381A00",
",  c #1B201A",
"<  c #2C210E",
"1  c #392302",
"2  c #2E2310",
"3  c #332511",
"4  c #372914",
"5  c #3C2C15",
"6  c #3F3117",
"7  c #193634",
"8  c #440100",
"9  c #4D0000",
"0  c #450D04",
"q  c #530000",
"w  c #5C0100",
"e  c #5C0C04",
"r  c #481708",
"t  c #581809",
"y  c #630000",
"u  c #6D0000",
"i  c #680F05",
"p  c #770301",
"a  c #6B1B0B",
"s  c #462800",
"d  c #58200E",
"f  c #4D320D",
"g  c #593403",
"h  c #422C16",
"j  c #482C15",
"k  c #492D18",
"l  c #582914",
"z  c #433117",
"x  c #443219",
"c  c #4A361B",
"v  c #4D381C",
"b  c #5A3912",
"n  c #53361B",
"m  c #5C321A",
"M  c #533B1E",
"N  c #5B3A1E",
"B  c #643806",
"V  c #662A15",
"C  c #643B16",
"Z  c #64331B",
"A  c #673A1C",
"S  c #75331A",
"D  c #563E20",
"F  c #5B3E21",
"G  c #653E21",
"H  c #733D21",
"J  c #724518",
"K  c #5C4122",
"L  c #594224",
"P  c #4F4735",
"I  c #644424",
"U  c #6A4526",
"Y  c #6B4927",
"T  c #694728",
"R  c #6E4A29",
"E  c #734426",
"W  c #7A4826",
"Q  c #734C2A",
"!  c #794D2B",
"~  c #72502D",
"^  c #7C522E",
"/  c #664D35",
"(  c #64513D",
")  c #7E5431",
"_  c #7C5839",
"`  c #164E4D",
"'  c #2D544E",
"]  c #3D5D55",
"[  c #37615B",
"{  c #156362",
"}  c #495C52",
"|  c #6C5E49",
" . c #48635B",
".. c #53645C",
"X. c #56685C",
"o. c #6D6958",
"O. c #786A56",
"+. c #50776F",
"@. c #6E7364",
"#. c #860402",
"$. c #9A0201",
"%. c #8F1307",
"&. c #A70201",
"*. c #BC0502",
"=. c #873219",
"-. c #AD2B16",
";. c #8D3A21",
":. c #A53C21",
">. c #CF0602",
",. c #E00A03",
"<. c #D12E18",
"1. c #D7301A",
"2. c #884F1A",
"3. c #844C2B",
"4. c #81542E",
"5. c #8A562A",
"6. c #985A2B",
"7. c #835531",
"8. c #865933",
"9. c #8C5B35",
"0. c #885C39",
"q. c #925D36",
"w. c #9C5C34",
"e. c #925E38",
"r. c #AC542F",
"t. c #B65B37",
"y. c #88603E",
"u. c #9C6134",
"i. c #956139",
"p. c #9B653C",
"a. c #9F683E",
"s. c #A4622F",
"d. c #A36537",
"f. c #A2693F",
"g. c #B36A3C",
"h. c #B8703E",
"j. c #CA4D2D",
"k. c #926F52",
"l. c #89745D",
"z. c #A56B41",
"x. c #AA6D42",
"c. c #B56E43",
"v. c #AE7144",
"b. c #A9734B",
"n. c #B37246",
"m. c #BB7343",
"M. c #B57549",
"N. c #BB7649",
"B. c #BC7A4C",
"V. c #A97B5A",
"C. c #BF7E50",
"Z. c #8D7A63",
"A. c #C77A48",
"S. c #C27B4D",
"D. c #C27E50",
"F. c #C97F50",
"G. c #58837C",
"H. c #638176",
"J. c #788778",
"K. c #958D77",
"L. c #A7886C",
"P. c #B98D6C",
"I. c #CC8354",
"U. c #C88456",
"Y. c #D18452",
"T. c #D28554",
"R. c #D28858",
"E. c #D48A5B",
"W. c #D98D5D",
"Q. c #C88D65",
"!. c #C9936E",
"~. c #DD9262",
"^. c #E19565",
"/. c #E39768",
"(. c #E69A6A",
"). c #EA9E6E",
"_. c #EEA272",
"`. c #F0A474",
"'. c #148685",
"]. c #159B9B",
"[. c #399895",
"{. c #37A29F",
"}. c #0FB3B3",
"|. c #31A6A3",
" X c #56958F",
".X c #76988D",
"XX c #4FA39E",
"oX c #65A59E",
"OX c #75A59B",
"+X c #43A4A1",
"@X c #4BA6A1",
"#X c #53ADA8",
"$X c #4BB2AE",
"%X c #48B9B6",
"&X c #78ACA2",
"*X c #6FB1A9",
"=X c #69BBB4",
"-X c #5EC0BB",
";X c #70C2BB",
":X c #10D3D3",
">X c #3DCECC",
",X c #2ED7D6",
"<X c #28D8D7",
"1X c #36D9D8",
"2X c #07EDED",
"3X c #08F7F7",
"4X c #00FFFF",
"5X c #0BFDFC",
"6X c #14F6F6",
"7X c #1AF6F6",
"8X c #13FCFB",
"9X c #1BFBFB",
"0X c #2BE8E8",
"qX c #36EAE9",
"wX c #2CF6F6",
"eX c #26F8F7",
"rX c #36F6F4",
"tX c #4EC9C5",
"yX c #46D9D7",
"uX c #58DAD7",
"iX c #6CD3CD",
"pX c #67DCD7",
"aX c #77DCD5",
"sX c #50E0DD",
"dX c #62E1DD",
"fX c #48EBE9",
"gX c #4FEEEB",
"hX c #8B9787",
"jX c #959F8D",
"kX c #B1A993",
"lX c #83B3A8",
"zX c #86B8AD",
"xX c #98B6A8",
"cX c #A4B4A4",
"vX c #90C5BA",
"bX c #80DAD3",
/* pixels */
"4X4X4X4X4X4X4X4X4X4X4X4X4X4X4X4XrXaXxXP.A.Y.R.W.R.W.R.W.W.R.W.W.E.E.W.E.E.E.Y.A.P.xXaXrX4X4X4X4X4X4X4X4X4X4X4X4X4X4X4X4X",
"4X4X4X4X4X4X4X4X4X4X5X8XeXwXeXrXgXbXcX!.F.T.W.W.W.W.W.W.W.W.W.W.W.W.E.W.W.E.T.A.Q.cXaXgXrXrXrXeX9X5X4X4X4X4X4X4X4X4X4X4X",
"4X4X4X4X4X4X4X4X4X4X8XrXgXdXdXaXbXvXkXQ.I.R.W.~.^.~.^.^.^.^.^.~.~.~.~.~.W.W.T.T.P.kXvXbXpXpXdXgXrX8X4X4X4X4X4X4X4X4X4X4X",
"4X4X4X4X4X4X4X4X4X4XeXgXiXzXxXxXcXkXP.Q.E.~.~./.(.(.(.(.(.).(.^.(./.~.^.~.~.W.R.!.!.kXcXxXxXzXaXgXeX4X4X4X4X4X4X4X4X4X4X",
"4X4X4X4X4X4X4X5X5XeXrXpXzXK.L.P.!.!.E.E.~.^.(.).).)._.).).).`.).).).(.(.^.~.~.W.W.Q.Q.P.P.L.K.xXdXfXeX8X5X4X4X4X4X4X4X4X",
"4X4X4X4X4X4X4X5XwXgXpX;XjXV.h.A.T.W.W.~.^.(.)._.`.`.`.`.`.`.`.`._._.).(./.^.~.~.W.R.I.A.m.h.V.jXvXpXgXrX8X4X4X4X4X4X4X4X",
"4X4X4X4X4X4X4XeXgXiXzXjXL.M.h.A.T.W.~.^.(.).)._.`.`.`.`.`.`.`.`._._._.).(.(./.~.W.W.Y.A.A.h.M.L.jXzXiXgXeX4X4X4X4X4X4X4X",
"4X4X4X4X5X5X9XrXpX*XK.L.b.M.S.I.W.W.^.^.).)._._._._.`.`.).`.`._._._._.).).(./.^.^.W.T.I.S.N.M.V.V.jXzXpXrX9X4X5X4X4X4X4X",
"4X4X4X4X8XwXfXpX;XjXV.g.h.B.U.I.E.W.~.(.(.).).).).)._.)._._._._._._.).).(.(././.~.W.W.T.I.S.N.h.g.V.jX;XdXgXwX8X4X4X4X4X",
"4X4X4X4XeXfXpX*XjXK.b.g.h.S.I.I.W.~.^.^.(.(.(.(.(.(.(.).).).).).)._.(.(.(.~./.~.^.~.W.E.I.F.S.m.h.b.K.jX*XiXgXeX4X4X4X4X",
"4X4X4X4XwXuX*XhXZ.b.b.n.N.S.I.I.E.W.~.~.~.~.~.~.^.^.^./.(.(.(.(.~.~.~.~.~.~.~.~.~.W.E.E.T.I.S.N.v.x.z.Z.K.=XuXwX4X4X4X4X",
"4X4X4X4XwXpXlXV.s.d.x.n.N.A.I.I.I.T.R.Q.E.E.E.E.R.E.W.~.~.~.~.~.~.E.E.R.Q.E.R.R.R.R.R.I.U.F.S.N.v.f.s.w.Z.&XuXwX4X4X4X4X",
"4X4X4X4XwXuXlXk.s.s.f.n.M.B.B.U.D.D.C.C.D.D.C.D.D.D.U.U.E.U.U.U.U.D.C.B.B.B.B.C.C.C.D.D.B.B.N.n.f.d.6.6.k.OXuXeX4X4X4X4X",
"4X4X4X4XwXpXlXZ.u.s.f.v.v.n.M.M.M.M.v.x.x.x.x.x.v.M.M.B.C.C.B.C.N.v.b.x.z.z.z.x.x.v.M.M.n.b.x.x.z.p.6.6.l.OXuXrX8X4X5X4X",
"4X4X4X4XwXuX&XZ.u.s.f.v.f.v.f.f.z.p.i.e.q.e.e.e.i.p.d.x.v.v.x.z.f.e.e.0.0.9.9.9.e.e.p.z.z.z.d.z.a.p.w.9.O..X-XsXqXwX8X4X",
"4X4X4X4XeXuX&XZ.6.d.f.f.f.a.i.e.7.) ! W E E E E W ! 7.9.i.i.i.e.0.3.W H H H E H W ! ) 7.e.e.e.z.f.f.u.q.k.J..X=XuXfX9X4X",
"4X4X4X5XrXuX&XO.w.d.z.z.e.9.7.~ T G m l l l l l l l H Q 7.8.7.4.W G l l d l l l l m G T Q ) 0.e.a.f.p.i.9.k.l..X=XyXeX4X",
"4X8XeXqXsX-X.Xk.w.w.p.w.q.^ E F n j r 0 8 8 8 8 8 r m U ! ) ^ ^ E m r 8 8 8 8 8 0 r j n G R 3.8.i.a.p.i.q.5.5.l.OXuXwX4X",
"4X9XqXuX=XOXK.k.e.w.e.9.3.H Z l j r * 8 & & & & & 0 Z E 4.8.8.4.Q m 0 & & & & & 8 * r j l Z H W 9.i.p.p.i.2.2.l.oXsXeX4X",
"4XeXyX=X.XZ.k.z.p.e.0.W H V d t r 0 0 8 8 8 8 8 8 r Z ! 8.9.9.8.! Z r & 8 8 8 8 8 8 0 r t t V H 4.5.i.p.a.6.5.O.oXyXeX4X",
"4XeXyX*Xl.9.u.f.p.0.7.H Z i q q 9 q 9 q q 9 9 9 9 r Z W 8.9.9.8.! Z t 9 9 9 9 q q q 9 9 q q t S E ^ 9.p.a.6.5.@.oXyX9X4X",
"4X7XyXoXO.2.6.f.p.7.R G d e w q q w y w y w w q q t Z W 4.8.8.) W Z t 9 q w w w y w w w q w e l Z R 7.p.a.u.5.O.oXyX7X4X",
"5XeXyXXXo.5.6.z.i.7.G m d e w y y p p p p u y y w t V E ! ^ ^ ~ E V t w w y u p p p u y y y e t m I ) i.a.u.5.O.oXyXwX5X",
"qXyX-X XO.4.w.z.i.! F j d e y u p #.$.&.$.#.u i a V Z I U Y Y Y G Z V a i u #.$.&.$.#.p u y e t j F ^ i.z.u.6.O..XtXsXqX",
"-X=XoXH.| 5.p.f.i.^ K l t y u p #.&.>.>.*.$.#.a V A A N M n n N N Z A V a #.$.*.>.*.&.#.p u w t l K ^ i.z.u.9.O.J.OX=X-X",
"J.J.@.O.8.9.p.f.i.7.U N V a p %.%.*.,.,.>.&.%.S H E A n h 3 3 5 n I E H S %.*.>.,.,.*.%.%.p a V m U ) i.f.a.i.8.O.J.J.K.",
"_ 8._ ) 4.9.a.f.i.8.^ E E ;.;.;.:.<.1.1.<.-.=.S H E N z : O o : x G E J S =.-.<.1.1.<.:.;.;.;.E W ^ 8.p.f.a.q.8.8.0.y.y.",
"J J 2.^ 8.i.i.a.p.i.9.9.6.w.d.t.c.j.j.j.:.-.=.E U I M z -   . - 5 D I Y H ;.:.-.j.j.t.t.r.s.w.i.9.9.i.i.a.p.i.8.5.4.2.2.",
"W ! ^ 5.9.i.i.p.p.p.p.f.x.c.c.N.A.A.t.r.6.3.3.E I D c 4 - X X ; 4 c K I E W 3.6.r.t.c.c.h.v.h.f.a.p.p.p.i.i.u.9.8.4.^ W ",
"~ ~ ^ 8.9.q.i.i.p.p.p.z.x.n.M.M.N.v.p.0.) ) W U I D x 3 $ X X $ 2 x M K R ! 3.^ 5.e.z.x.n.n.v.x.f.p.p.p.i.i.e.e.7.^ ^ Q ",
"Q Q ^ ) 8.q.i.i.e.i.e.p.p.p.z.z.z.e.7.~ ~ R Q T F c 5 : O   . @ < 5 c F T ~ Q ~ Q ) 0.e.p.p.p.p.p.p.i.i.i.i.9.8.7.! Q Q ",
"Y R ~ ) 4.8.8.q.q.9.8.8.7.7.7.) ^ / I F I R Q T D c 4 < ; $ $ ; < 4 x F Y Q R I L I R Q ^ ) ) 8.8.8.8.e.9.9.8.4.^ Q R T ",
"Y Y Y Q ^ ^ 4.4.7.^ ^ Q R Y I K D M v M K R ~ R I v x h h h 5 h h k c F T Q R I M v v L L I I R Q ! ) ) 7.7.^ ~ W Y U U ",
"J C J I Y Y R ~ R R Y I K L M v c c v F T ! ^ ~ I N N I I G G T F F F T ! ) ! I F v c c c M D F I I U R Q R R Y U I J C ",
"( / P I N N D N L F M N M M v x x v F I Q ^ 8.7.Q T R ! 7.7.7.) ! Q T ~ 7.7.7.~ I F v c x x c v M M M F D F N D L / / ( ",
"G.G.X.} P z z h z z c x x x z z x M K R ) 0.q.9.8.7.8.9.e.p.p.e.y.7.7.7.9.e.0.3.R K n z 5 5 5 5 5 5 5 5 6 h x P } +.+.G.",
"%X%XXX+.} 1 > 3 < 3 3 3 4 4 4 4 z M I ! 0.i.z.p.p.i.f.z.v.c.x.c.x.z.i.p.a.a.e.0.! I D 6 4 2 2 2 < < < < 2 > 1 P +.+X%X%X",
"0X<X}.[.} > = ; ; $ ; ; : : < 3 5 M U ^ 9.p.z.x.z.x.v.M.N.S.A.N.n.x.z.x.x.z.p.q.) I M 6 3 < ; ; # @ # $ ; = > ] [.|.<X0X",
"5X6X,X[.] > % ; # + X O @ $ < < 5 M U ^ 9.p.z.z.z.z.x.n.M.N.N.A.c.x.x.z.z.z.p.0.! T D 5 2 ; $ O X O O $ ; % >  .{.<X6X5X",
"4X3X<X{.] > * : ; + . . . @ ; < 5 M I Q ^ 0.9.q.e.e.e.p.p.f.p.p.p.e.e.e.e.0.0.3.Q I v 5 2 ; @ . . X @ $ 2 * > ] {.<X3X4X",
"4X2X<X{.] s > 4 < ; O O O # ; 3 6 v K I T Q Q R E / R R Q ! ! ! Q R R R R Q R Y I L v 6 3 : # X O O ; < 4 > 1 ] {.<X3X4X",
"4X6X<X{.} s s 5 4 < $ @ # ; 2 5 x v L I I K K L F F G G G / G G G I F F L L K I I F v z 4 2 : $ @ - : 4 h s s } {.<X6X4X",
"4X6X<X{. .j g c z 3 $ - 2 3 5 z c M L I I I I I T ! ! 0.e.e.e.0.8.^ Q U U I I I K K D c z 5 3 : - $ 3 h v g f } {.<X6X4X",
"4X6X,X+X .n f D x 4 ; : 3 z x c v N I I Y R Q ^ 7.0.p.z.M.M.M.n.z.p.9.4.^ Q R Y U K D M c x z 4 : ; 3 c D f n  .+X,X6X4X",
"4X6X,X+X..M b F n z 4 4 z c v D L L I Y Q Q ) 7.0.p.z.c.S.S.S.S.M.z.i.9.8.^ ~ W Y I K D D c c z 4 4 j M F b M ..+X,X6X4X",
"4X6X,X+X..N C I I N n n M D M D L I Y Q Q ! 7.7.9.i.z.c.v.M.N.M.x.z.e.q.5.^ ^ ~ ~ Y I K L D D M n n N K I b N ..+X,X6X4X",
"4X6X,X+X..N C I U U I I I K L L K T R Q ! ! ) 7.0.0.e.p.z.z.z.z.p.e.e.0.4.^ ^ Q Q Y I K K L L K I I U I T Z N ..+X,X6X4X",
"4X7X,X+X..N C U R R R Y I K K K F G T R R R E ! ! 3.7.7.7.7.3.7.7.7.3.! ! R R Q Y Y I K F L I I Y R Q R T C A ..+X,X6X4X",
"4X6X1X+X..B C U Y Y Y Y I K L D D D D F K N K I G U U U H T G T G T H I G F F G K N M M D F K Y Y Y Y Y Y B B X.+X,X7X4X",
"4X7X1X@XX.A C U Y I Y I K L v v x z z 6 j h h j k k k k k k k k k k k k h h h h 5 5 z x c D L K K Y Y Y Y C G X.@X1X7X4X",
"4X6X1X$XG.| ( / J K L L D v c 6 5 2 < < - # = + - # - - $ - - - - - - - # # + # $ < < 4 6 c v D L K I Y T | X.+.$X1X6X4X",
"4X8X0X>X$X X@./ J g g g f s 1 1 < ; $ @ X .                                     . @ ; < 1 1 s s g g B B / @. X#X>X0X8X4X",
"4X5X7X0X1X%X X| B g b f s 1 = $ ; $ # O O X . . . . . . . . . . . . . . . . . . O O @ - = : 1 s f b g B |  X%XyX0X7X3X4X",
"4X4X4X5XeX>X#X@.o.X.X. .[ ' ` 7 , O + O O O O O O O O O O O O O O O O O O + O $ O + + , 7 ` ' ]  ...X.o.+.#XyXwX5X4X5X4X",
"4X4X4X4X8XqXyX#X#X@X+X|.|.].'.{ 7 o o O O O O O O O $ @ O O O # O O O O O O O O O o o 7 { '.].|.|.+X@X#X$XtXqX6X4X4X4X4X",
"4X4X4X4X5X7XqX1X1X1X<X<X<X:X}.'.` o o O O O O O O O O O O O O O O O O O $ O O O # o o ` '.}.:X:X<X<X1X1X1XqX7X3X4X4X4X4X",
"4X4X4X4X4X5X7X7X7X6X6X6X3X2X:X].` o o O O O O O O O O O # O O @ O O O O O O $ O O o o ` ].:X2X3X8X6X6X7X7X8X5X5X4X4X4X4X",
"4X4X4X4X4X4X4X4X4X4X4X4X4X3X:X].` o o O @ O # O O @ O # O O O O O $ O O O O O O O o o ` }.:X2X4X4X4X4X4X4X4X4X4X4X4X4X4X"
};
