/* XPM */
static char *result[] = {
/* columns rows colors chars-per-pixel */
"215 85 17 1 ",
"  c #3F0000",
". c #420000",
"X c #4B0000",
"o c #530000",
"O c #570000",
"+ c #670000",
"@ c #730000",
"# c #7B0000",
"$ c #880000",
"% c #9C0000",
"& c #A50000",
"* c #B10000",
"= c #BD0000",
"- c #C90000",
"; c #D90000",
": c #E60000",
"> c #00FF00",
/* pixels */
"                              >>>>>>>>>>>>>>>>>>>>>>>>>>>>>>                              >>>>>>>>>>>>>>>>>>>>>>>>>>>>>>>>>>>>>>>>>>>>>>>>>>>>>>>>>>>>>>>>>>>>>>>>>>>>>>>>>>>>>>>>>>>>>>>>>>>>>>>>>>>>>>>>>>>>>>>>>>>>>",
"                              >>>>>>>>>>>>>>>>>>>>>>>>>>>>>>                              >>>>>>>>>>>>>>>>>>>>>>>>>>>>>>>>>>>>>>>>>>>>>>>>>>>>>>>>>>>>>>>>>>>>>>>>>>>>>>>>>>>>>>>>>>>>>>>>>>>>>>>>>>>>>>>>>>>>>>>>>>>>>",
"                              >>>>>>>>>>>>>>>>>>>>>>>>>>>>>>                              >>>>>>>>>>>>>>>>>>>>>>>>>>>>>>>>>>>>>>>>>>>>>>>>>>>>>>>>>>>>>>>>>>>>>>>>>>>>>>>>>>>>>>>>>>>>>>>>>>>>>>>>>>>>>>>>>>>>>>>>>>>>>",
"                              >>>>>>>>>>>>>>>>>>>>>>>>>>>>>>                              >>>>>>>>>>>>>>>>>>>>>>>>>>>>>>>>>>>>>>>>>>>>>>>>>>>>>>>>>>>>>>>>>>>>>>>>>>>>>>>>>>>>>>>>>>>>>>>>>>>>>>>>>>>>>>>>>>>>>>>>>>>>>",
"                              >>>>>>>>>>>>>>>>>>>>>>>>>>>>>>                              >>>>>>>>>>>>>>>>>>>>>>>>>>>>>>>>>>>>>>>>>>>>>>>>>>>>>>>>>>>>>>>>>>>>>>>>>>>>>>>>>>>>>>>>>>>>>>>>>>>>>>>>>>>>>>>>>>>>>>>>>>>>>",
"     %%%%%==========$$$$$     >>>>>>>>>>>>>>>>>>>>>>>>>     -----==========-----%%%%%     >>>>>>>>>>>>>>>>>>>>>>>>>>>>>>>>>>>>>>>>>>>>>>>>>>>>>>>>>>>>>>>>>>>>>>>>>>>>>>>>>>>>>>>>>>>>>>>>>>>>>>>>>>>>>>>>>>>>>>>>>>>>>",
"     %%%%%==========$$$$$     >>>>>>>>>>>>>>>>>>>>>>>>>     -----==========-----%%%%%     >>>>>>>>>>>>>>>>>>>>>>>>>>>>>>>>>>>>>>>>>>>>>>>>>>>>>>>>>>>>>>>>>>>>>>>>>>>>>>>>>>>>>>>>>>>>>>>>>>>>>>>>>>>>>>>>>>>>>>>>>>>>>",
"     %%%%%==========$$$$$     >>>>>>>>>>>>>>>>>>>>>>>>>     -----==========-----%%%%%     >>>>>>>>>>>>>>>>>>>>>>>>>>>>>>>>>>>>>>>>>>>>>>>>>>>>>>>>>>>>>>>>>>>>>>>>>>>>>>>>>>>>>>>>>>>>>>>>>>>>>>>>>>>>>>>>>>>>>>>>>>>>>",
"     %%%%%==========$$$$$     >>>>>>>>>>>>>>>>>>>>>>>>>     -----==========-----%%%%%     >>>>>>>>>>>>>>>>>>>>>>>>>>>>>>>>>>>>>>>>>>>>>>>>>>>>>>>>>>>>>>>>>>>>>>>>>>>>>>>>>>>>>>>>>>>>>>>>>>>>>>>>>>>>>>>>>>>>>>>>>>>>>",
"     %%%%%==========$$$$$     >>>>>>>>>>>>>>>>>>>>>>>>>     -----==========-----%%%%%     >>>>>>>>>>>>>>>>>>>>>>>>>>>>>>>>>>>>>>>>>>>>>>>>>>>>>>>>>>>>>>>>>>>>>>>>>>>>>>>>>>>>>>>>>>>>>>>>>>>>>>>>>>>>>>>>>>>>>>>>>>>>>",
"     $$$$$@@@@@+++++OOOOO     >>>>>>>>>>>>>>>>>>>>     *****#####$$$$$OOOOO+++++     >>>>>>>>>>>>>>>>>>>>>>>>>>>>>>>>>>>>>>>>>>>>>>>>>>>>>>>>>>>>>>>>>>>>>>>>>>>>>>>>>>>>>>>>>>>>>>>>>>>>>>>>>>>>>>>>>>>>>>>>>>>>>>>>>>",
"     $$$$$@@@@@+++++OOOOO     >>>>>>>>>>>>>>>>>>>>     *****#####$$$$$OOOOO+++++     >>>>>>>>>>>>>>>>>>>>>>>>>>>>>>>>>>>>>>>>>>>>>>>>>>>>>>>>>>>>>>>>>>>>>>>>>>>>>>>>>>>>>>>>>>>>>>>>>>>>>>>>>>>>>>>>>>>>>>>>>>>>>>>>>>",
"     $$$$$@@@@@+++++OOOOO     >>>>>>>>>>>>>>>>>>>>     *****#####$$$$$OOOOO+++++     >>>>>>>>>>>>>>>>>>>>>>>>>>>>>>>>>>>>>>>>>>>>>>>>>>>>>>>>>>>>>>>>>>>>>>>>>>>>>>>>>>>>>>>>>>>>>>>>>>>>>>>>>>>>>>>>>>>>>>>>>>>>>>>>>>",
"     $$$$$@@@@@+++++OOOOO     >>>>>>>>>>>>>>>>>>>>     *****#####$$$$$OOOOO+++++     >>>>>>>>>>>>>>>>>>>>>>>>>>>>>>>>>>>>>>>>>>>>>>>>>>>>>>>>>>>>>>>>>>>>>>>>>>>>>>>>>>>>>>>>>>>>>>>>>>>>>>>>>>>>>>>>>>>>>>>>>>>>>>>>>>",
"     $$$$$@@@@@+++++OOOOO     >>>>>>>>>>>>>>>>>>>>     *****#####$$$$$OOOOO+++++     >>>>>>>>>>>>>>>>>>>>>>>>>>>>>>>>>>>>>>>>>>>>>>>>>>>>>>>>>>>>>>>>>>>>>>>>>>>>>>>>>>>>>>>>>>>>>>>>>>>>>>>>>>>>>>>>>>>>>>>>>>>>>>>>>>",
"     $$$$$#####@@@@@OOOOO     >>>>>>>>>>>>>>>     -----%%%%%$$$$$$$$$$OOOOO     >>>>>                                                       >>>>>>>>>>>>>>>>>>>>                              >>>>>>>>>>>>>>>>>>>>>>>>>",
"     $$$$$#####@@@@@OOOOO     >>>>>>>>>>>>>>>     -----%%%%%$$$$$$$$$$OOOOO     >>>>>                                                       >>>>>>>>>>>>>>>>>>>>                              >>>>>>>>>>>>>>>>>>>>>>>>>",
"     $$$$$#####@@@@@OOOOO     >>>>>>>>>>>>>>>     -----%%%%%$$$$$$$$$$OOOOO     >>>>>                                                       >>>>>>>>>>>>>>>>>>>>                              >>>>>>>>>>>>>>>>>>>>>>>>>",
"     $$$$$#####@@@@@OOOOO     >>>>>>>>>>>>>>>     -----%%%%%$$$$$$$$$$OOOOO     >>>>>                                                       >>>>>>>>>>>>>>>>>>>>                              >>>>>>>>>>>>>>>>>>>>>>>>>",
"     $$$$$#####@@@@@OOOOO     >>>>>>>>>>>>>>>     -----%%%%%$$$$$$$$$$OOOOO     >>>>>                                                       >>>>>>>>>>>>>>>>>>>>                              >>>>>>>>>>>>>>>>>>>>>>>>>",
"     ###############OOOOO     >>>>>>>>>>     *****==========%%%%%@@@@@     >>>>>>>>>>     &&&&&;;;;;;;;;;%%%%%     #####-----:::::&&&&&     >>>>>>>>>>>>>>>>>>>>     #####-----:::::&&&&&     >>>>>>>>>>>>>>>>>>>>>>>>>",
"     ###############OOOOO     >>>>>>>>>>     *****==========%%%%%@@@@@     >>>>>>>>>>     &&&&&;;;;;;;;;;%%%%%     #####-----:::::&&&&&     >>>>>>>>>>>>>>>>>>>>     #####-----:::::&&&&&     >>>>>>>>>>>>>>>>>>>>>>>>>",
"     ###############OOOOO     >>>>>>>>>>     *****==========%%%%%@@@@@     >>>>>>>>>>     &&&&&;;;;;;;;;;%%%%%     #####-----:::::&&&&&     >>>>>>>>>>>>>>>>>>>>     #####-----:::::&&&&&     >>>>>>>>>>>>>>>>>>>>>>>>>",
"     ###############OOOOO     >>>>>>>>>>     *****==========%%%%%@@@@@     >>>>>>>>>>     &&&&&;;;;;;;;;;%%%%%     #####-----:::::&&&&&     >>>>>>>>>>>>>>>>>>>>     #####-----:::::&&&&&     >>>>>>>>>>>>>>>>>>>>>>>>>",
"     ###############OOOOO     >>>>>>>>>>     *****==========%%%%%@@@@@     >>>>>>>>>>     &&&&&;;;;;;;;;;%%%%%     #####-----:::::&&&&&     >>>>>>>>>>>>>>>>>>>>     #####-----:::::&&&&&     >>>>>>>>>>>>>>>>>>>>>>>>>",
"     $$$$$#####@@@@@@@@@@     >>>>>     *****$$$$$*****&&&&&#####     >>>>>>>>>>>>>>>     $$$$$$$$$$%%%%%@@@@@     +++++$$$$$*****@@@@@     >>>>>>>>>>>>>>>>>>>>     +++++$$$$$*****@@@@@     >>>>>>>>>>>>>>>>>>>>>>>>>",
"     $$$$$#####@@@@@@@@@@     >>>>>     *****$$$$$*****&&&&&#####     >>>>>>>>>>>>>>>     $$$$$$$$$$%%%%%@@@@@     +++++$$$$$*****@@@@@     >>>>>>>>>>>>>>>>>>>>     +++++$$$$$*****@@@@@     >>>>>>>>>>>>>>>>>>>>>>>>>",
"     $$$$$#####@@@@@@@@@@     >>>>>     *****$$$$$*****&&&&&#####     >>>>>>>>>>>>>>>     $$$$$$$$$$%%%%%@@@@@     +++++$$$$$*****@@@@@     >>>>>>>>>>>>>>>>>>>>     +++++$$$$$*****@@@@@     >>>>>>>>>>>>>>>>>>>>>>>>>",
"     $$$$$#####@@@@@@@@@@     >>>>>     *****$$$$$*****&&&&&#####     >>>>>>>>>>>>>>>     $$$$$$$$$$%%%%%@@@@@     +++++$$$$$*****@@@@@     >>>>>>>>>>>>>>>>>>>>     +++++$$$$$*****@@@@@     >>>>>>>>>>>>>>>>>>>>>>>>>",
"     $$$$$#####@@@@@@@@@@     >>>>>     *****$$$$$*****&&&&&#####     >>>>>>>>>>>>>>>     $$$$$$$$$$%%%%%@@@@@     +++++$$$$$*****@@@@@     >>>>>>>>>>>>>>>>>>>>     +++++$$$$$*****@@@@@     >>>>>>>>>>>>>>>>>>>>>>>>>",
"     $$$$$@@@@@OOOOO+++++          &&&&&@@@@@#####$$$$$@@@@@     >>>>>>>>>>>>>>>>>>>>     %%%%%#####%%%%%#####     @@@@@##########@@@@@     >>>>>>>>>>>>>>>>>>>>     @@@@@##########@@@@@     >>>>>>>>>>>>>>>>>>>>>>>>>",
"     $$$$$@@@@@OOOOO+++++          &&&&&@@@@@#####$$$$$@@@@@     >>>>>>>>>>>>>>>>>>>>     %%%%%#####%%%%%#####     @@@@@##########@@@@@     >>>>>>>>>>>>>>>>>>>>     @@@@@##########@@@@@     >>>>>>>>>>>>>>>>>>>>>>>>>",
"     $$$$$@@@@@OOOOO+++++          &&&&&@@@@@#####$$$$$@@@@@     >>>>>>>>>>>>>>>>>>>>     %%%%%#####%%%%%#####     @@@@@##########@@@@@     >>>>>>>>>>>>>>>>>>>>     @@@@@##########@@@@@     >>>>>>>>>>>>>>>>>>>>>>>>>",
"     $$$$$@@@@@OOOOO+++++          &&&&&@@@@@#####$$$$$@@@@@     >>>>>>>>>>>>>>>>>>>>     %%%%%#####%%%%%#####     @@@@@##########@@@@@     >>>>>>>>>>>>>>>>>>>>     @@@@@##########@@@@@     >>>>>>>>>>>>>>>>>>>>>>>>>",
"     $$$$$@@@@@OOOOO+++++          &&&&&@@@@@#####$$$$$@@@@@     >>>>>>>>>>>>>>>>>>>>     %%%%%#####%%%%%#####     @@@@@##########@@@@@     >>>>>>>>>>>>>>>>>>>>     @@@@@##########@@@@@     >>>>>>>>>>>>>>>>>>>>>>>>>",
"     $$$$$@@@@@OOOOO.....     @@@@@+++++@@@@@@@@@@#####     >>>>>>>>>>>>>>>>>>>>>>>>>     $$$$$###############     @@@@@@@@@@#####@@@@@     >>>>>>>>>>>>>>>>>>>>     @@@@@@@@@@#####@@@@@     >>>>>>>>>>>>>>>>>>>>>>>>>",
"     $$$$$@@@@@OOOOO.....     @@@@@+++++@@@@@@@@@@#####     >>>>>>>>>>>>>>>>>>>>>>>>>     $$$$$###############     @@@@@@@@@@#####@@@@@     >>>>>>>>>>>>>>>>>>>>     @@@@@@@@@@#####@@@@@     >>>>>>>>>>>>>>>>>>>>>>>>>",
"     $$$$$@@@@@OOOOO.....     @@@@@+++++@@@@@@@@@@#####     >>>>>>>>>>>>>>>>>>>>>>>>>     $$$$$###############     @@@@@@@@@@#####@@@@@     >>>>>>>>>>>>>>>>>>>>     @@@@@@@@@@#####@@@@@     >>>>>>>>>>>>>>>>>>>>>>>>>",
"     $$$$$@@@@@OOOOO.....     @@@@@+++++@@@@@@@@@@#####     >>>>>>>>>>>>>>>>>>>>>>>>>     $$$$$###############     @@@@@@@@@@#####@@@@@     >>>>>>>>>>>>>>>>>>>>     @@@@@@@@@@#####@@@@@     >>>>>>>>>>>>>>>>>>>>>>>>>",
"     $$$$$@@@@@OOOOO.....     @@@@@+++++@@@@@@@@@@#####     >>>>>>>>>>>>>>>>>>>>>>>>>     $$$$$###############     @@@@@@@@@@#####@@@@@     >>>>>>>>>>>>>>>>>>>>     @@@@@@@@@@#####@@@@@     >>>>>>>>>>>>>>>>>>>>>>>>>",
"     $$$$$@@@@@OOOOOooooo          @@@@@@@@@@@@@@@@@@@@*****     >>>>>>>>>>>>>>>>>>>>     $$$$$#####$$$$$#####     @@@@@%%%%%$$$$$#####     >>>>>>>>>>>>>>>>>>>>     @@@@@%%%%%$$$$$#####     >>>>>>>>>>>>>>>>>>>>>>>>>",
"     $$$$$@@@@@OOOOOooooo          @@@@@@@@@@@@@@@@@@@@*****     >>>>>>>>>>>>>>>>>>>>     $$$$$#####$$$$$#####     @@@@@%%%%%$$$$$#####     >>>>>>>>>>>>>>>>>>>>     @@@@@%%%%%$$$$$#####     >>>>>>>>>>>>>>>>>>>>>>>>>",
"     $$$$$@@@@@OOOOOooooo          @@@@@@@@@@@@@@@@@@@@*****     >>>>>>>>>>>>>>>>>>>>     $$$$$#####$$$$$#####     @@@@@%%%%%$$$$$#####     >>>>>>>>>>>>>>>>>>>>     @@@@@%%%%%$$$$$#####     >>>>>>>>>>>>>>>>>>>>>>>>>",
"     $$$$$@@@@@OOOOOooooo          @@@@@@@@@@@@@@@@@@@@*****     >>>>>>>>>>>>>>>>>>>>     $$$$$#####$$$$$#####     @@@@@%%%%%$$$$$#####     >>>>>>>>>>>>>>>>>>>>     @@@@@%%%%%$$$$$#####     >>>>>>>>>>>>>>>>>>>>>>>>>",
"     $$$$$@@@@@OOOOOooooo          @@@@@@@@@@@@@@@@@@@@*****     >>>>>>>>>>>>>>>>>>>>     $$$$$#####$$$$$#####     @@@@@%%%%%$$$$$#####     >>>>>>>>>>>>>>>>>>>>     @@@@@%%%%%$$$$$#####     >>>>>>>>>>>>>>>>>>>>>>>>>",
"     $$$$$$$$$$@@@@@#####     >>>>>     OOOOO$$$$$@@@@@#####-----     >>>>>>>>>>>>>>>     $$$$$@@@@@$$$$$@@@@@     #####%%%%%%%%%%$$$$$     >>>>>>>>>>>>>>>>>>>>     #####%%%%%%%%%%$$$$$     >>>>>>>>>>>>>>>>>>>>>>>>>",
"     $$$$$$$$$$@@@@@#####     >>>>>     OOOOO$$$$$@@@@@#####-----     >>>>>>>>>>>>>>>     $$$$$@@@@@$$$$$@@@@@     #####%%%%%%%%%%$$$$$     >>>>>>>>>>>>>>>>>>>>     #####%%%%%%%%%%$$$$$     >>>>>>>>>>>>>>>>>>>>>>>>>",
"     $$$$$$$$$$@@@@@#####     >>>>>     OOOOO$$$$$@@@@@#####-----     >>>>>>>>>>>>>>>     $$$$$@@@@@$$$$$@@@@@     #####%%%%%%%%%%$$$$$     >>>>>>>>>>>>>>>>>>>>     #####%%%%%%%%%%$$$$$     >>>>>>>>>>>>>>>>>>>>>>>>>",
"     $$$$$$$$$$@@@@@#####     >>>>>     OOOOO$$$$$@@@@@#####-----     >>>>>>>>>>>>>>>     $$$$$@@@@@$$$$$@@@@@     #####%%%%%%%%%%$$$$$     >>>>>>>>>>>>>>>>>>>>     #####%%%%%%%%%%$$$$$     >>>>>>>>>>>>>>>>>>>>>>>>>",
"     $$$$$$$$$$@@@@@#####     >>>>>     OOOOO$$$$$@@@@@#####-----     >>>>>>>>>>>>>>>     $$$$$@@@@@$$$$$@@@@@     #####%%%%%%%%%%$$$$$     >>>>>>>>>>>>>>>>>>>>     #####%%%%%%%%%%$$$$$     >>>>>>>>>>>>>>>>>>>>>>>>>",
"     $$$$$$$$$$##########     >>>>>>>>>>     @@@@@@@@@@#####&&&&&*****     >>>>>>>>>>     %%%%%$$$$$@@@@@@@@@@     $$$$$*****$$$$$@@@@@     >>>>>>>>>>>>>>>>>>>>     $$$$$*****$$$$$@@@@@     >>>>>>>>>>>>>>>>>>>>>>>>>",
"     $$$$$$$$$$##########     >>>>>>>>>>     @@@@@@@@@@#####&&&&&*****     >>>>>>>>>>     %%%%%$$$$$@@@@@@@@@@     $$$$$*****$$$$$@@@@@     >>>>>>>>>>>>>>>>>>>>     $$$$$*****$$$$$@@@@@     >>>>>>>>>>>>>>>>>>>>>>>>>",
"     $$$$$$$$$$##########     >>>>>>>>>>     @@@@@@@@@@#####&&&&&*****     >>>>>>>>>>     %%%%%$$$$$@@@@@@@@@@     $$$$$*****$$$$$@@@@@     >>>>>>>>>>>>>>>>>>>>     $$$$$*****$$$$$@@@@@     >>>>>>>>>>>>>>>>>>>>>>>>>",
"     $$$$$$$$$$##########     >>>>>>>>>>     @@@@@@@@@@#####&&&&&*****     >>>>>>>>>>     %%%%%$$$$$@@@@@@@@@@     $$$$$*****$$$$$@@@@@     >>>>>>>>>>>>>>>>>>>>     $$$$$*****$$$$$@@@@@     >>>>>>>>>>>>>>>>>>>>>>>>>",
"     $$$$$$$$$$##########     >>>>>>>>>>     @@@@@@@@@@#####&&&&&*****     >>>>>>>>>>     %%%%%$$$$$@@@@@@@@@@     $$$$$*****$$$$$@@@@@     >>>>>>>>>>>>>>>>>>>>     $$$$$*****$$$$$@@@@@     >>>>>>>>>>>>>>>>>>>>>>>>>",
"     %%%%%&&&&&$$$$$#####     >>>>>>>>>>>>>>>     +++++$$$$$&&&&&$$$$$-----     >>>>>     %%%%%&&&&&$$$$$#####     $$$$$*****%%%%%@@@@@$$$$$                         $$$$$*****%%%%%@@@@@$$$$$                         ",
"     %%%%%&&&&&$$$$$#####     >>>>>>>>>>>>>>>     +++++$$$$$&&&&&$$$$$-----     >>>>>     %%%%%&&&&&$$$$$#####     $$$$$*****%%%%%@@@@@$$$$$                         $$$$$*****%%%%%@@@@@$$$$$                         ",
"     %%%%%&&&&&$$$$$#####     >>>>>>>>>>>>>>>     +++++$$$$$&&&&&$$$$$-----     >>>>>     %%%%%&&&&&$$$$$#####     $$$$$*****%%%%%@@@@@$$$$$                         $$$$$*****%%%%%@@@@@$$$$$                         ",
"     %%%%%&&&&&$$$$$#####     >>>>>>>>>>>>>>>     +++++$$$$$&&&&&$$$$$-----     >>>>>     %%%%%&&&&&$$$$$#####     $$$$$*****%%%%%@@@@@$$$$$                         $$$$$*****%%%%%@@@@@$$$$$                         ",
"     %%%%%&&&&&$$$$$#####     >>>>>>>>>>>>>>>     +++++$$$$$&&&&&$$$$$-----     >>>>>     %%%%%&&&&&$$$$$#####     $$$$$*****%%%%%@@@@@$$$$$                         $$$$$*****%%%%%@@@@@$$$$$                         ",
"     %%%%%*****$$$$$+++++     >>>>>>>>>>>>>>>>>>>>     @@@@@&&&&&%%%%%&&&&&*****          %%%%%=====%%%%%$$$$$          %%%%%$$$$$$$$$$:::::;;;;;-----;;;;;*****          %%%%%$$$$$$$$$$:::::;;;;;-----;;;;;*****     ",
"     %%%%%*****$$$$$+++++     >>>>>>>>>>>>>>>>>>>>     @@@@@&&&&&%%%%%&&&&&*****          %%%%%=====%%%%%$$$$$          %%%%%$$$$$$$$$$:::::;;;;;-----;;;;;*****          %%%%%$$$$$$$$$$:::::;;;;;-----;;;;;*****     ",
"     %%%%%*****$$$$$+++++     >>>>>>>>>>>>>>>>>>>>     @@@@@&&&&&%%%%%&&&&&*****          %%%%%=====%%%%%$$$$$          %%%%%$$$$$$$$$$:::::;;;;;-----;;;;;*****          %%%%%$$$$$$$$$$:::::;;;;;-----;;;;;*****     ",
"     %%%%%*****$$$$$+++++     >>>>>>>>>>>>>>>>>>>>     @@@@@&&&&&%%%%%&&&&&*****          %%%%%=====%%%%%$$$$$          %%%%%$$$$$$$$$$:::::;;;;;-----;;;;;*****          %%%%%$$$$$$$$$$:::::;;;;;-----;;;;;*****     ",
"     %%%%%*****$$$$$+++++     >>>>>>>>>>>>>>>>>>>>     @@@@@&&&&&%%%%%&&&&&*****          %%%%%=====%%%%%$$$$$          %%%%%$$$$$$$$$$:::::;;;;;-----;;;;;*****          %%%%%$$$$$$$$$$:::::;;;;;-----;;;;;*****     ",
"     $$$$$$$$$$@@@@@XXXXX     >>>>>>>>>>>>>>>>>>>>>>>>>     +++++$$$$$#####@@@@@$$$$$     #####$$$$$##########               @@@@@@@@@@&&&&&$$$$$$$$$$%%%%%$$$$$               @@@@@@@@@@&&&&&$$$$$$$$$$%%%%%$$$$$     ",
"     $$$$$$$$$$@@@@@XXXXX     >>>>>>>>>>>>>>>>>>>>>>>>>     +++++$$$$$#####@@@@@$$$$$     #####$$$$$##########               @@@@@@@@@@&&&&&$$$$$$$$$$%%%%%$$$$$               @@@@@@@@@@&&&&&$$$$$$$$$$%%%%%$$$$$     ",
"     $$$$$$$$$$@@@@@XXXXX     >>>>>>>>>>>>>>>>>>>>>>>>>     +++++$$$$$#####@@@@@$$$$$     #####$$$$$##########               @@@@@@@@@@&&&&&$$$$$$$$$$%%%%%$$$$$               @@@@@@@@@@&&&&&$$$$$$$$$$%%%%%$$$$$     ",
"     $$$$$$$$$$@@@@@XXXXX     >>>>>>>>>>>>>>>>>>>>>>>>>     +++++$$$$$#####@@@@@$$$$$     #####$$$$$##########               @@@@@@@@@@&&&&&$$$$$$$$$$%%%%%$$$$$               @@@@@@@@@@&&&&&$$$$$$$$$$%%%%%$$$$$     ",
"     $$$$$$$$$$@@@@@XXXXX     >>>>>>>>>>>>>>>>>>>>>>>>>     +++++$$$$$#####@@@@@$$$$$     #####$$$$$##########               @@@@@@@@@@&&&&&$$$$$$$$$$%%%%%$$$$$               @@@@@@@@@@&&&&&$$$$$$$$$$%%%%%$$$$$     ",
"     OOOOO                    >>>>>>>>>>>>>>>>>>>>>>>>>>>>>>                                                       >>>>>>>>>>                                        >>>>>>>>>>                                        ",
"     OOOOO                    >>>>>>>>>>>>>>>>>>>>>>>>>>>>>>                                                       >>>>>>>>>>                                        >>>>>>>>>>                                        ",
"     OOOOO                    >>>>>>>>>>>>>>>>>>>>>>>>>>>>>>                                                       >>>>>>>>>>                                        >>>>>>>>>>                                        ",
"     OOOOO                    >>>>>>>>>>>>>>>>>>>>>>>>>>>>>>                                                       >>>>>>>>>>                                        >>>>>>>>>>                                        ",
"     OOOOO                    >>>>>>>>>>>>>>>>>>>>>>>>>>>>>>                                                       >>>>>>>>>>                                        >>>>>>>>>>                                        ",
">>>>>>>>>>>>>>>>>>>>>>>>>>>>>>>>>>>>>>>>>>>>>>>>>>>>>>>>>>>>>>>>>>>>>>>>>>>>>>>>>>>>>>>>>>>>>>>>>>>>>>>>>>>>>>>>>>>>>>>>>>>>>>>>>>>>>>>>>>>>>>>>>>>>>>>>>>>>>>>>>>>>>>>>>>>>>>>>>>>>>>>>>>>>>>>>>>>>>>>>>>>>>>>>>>>>>>>",
">>>>>>>>>>>>>>>>>>>>>>>>>>>>>>>>>>>>>>>>>>>>>>>>>>>>>>>>>>>>>>>>>>>>>>>>>>>>>>>>>>>>>>>>>>>>>>>>>>>>>>>>>>>>>>>>>>>>>>>>>>>>>>>>>>>>>>>>>>>>>>>>>>>>>>>>>>>>>>>>>>>>>>>>>>>>>>>>>>>>>>>>>>>>>>>>>>>>>>>>>>>>>>>>>>>>>>>",
">>>>>>>>>>>>>>>>>>>>>>>>>>>>>>>>>>>>>>>>>>>>>>>>>>>>>>>>>>>>>>>>>>>>>>>>>>>>>>>>>>>>>>>>>>>>>>>>>>>>>>>>>>>>>>>>>>>>>>>>>>>>>>>>>>>>>>>>>>>>>>>>>>>>>>>>>>>>>>>>>>>>>>>>>>>>>>>>>>>>>>>>>>>>>>>>>>>>>>>>>>>>>>>>>>>>>>>",
">>>>>>>>>>>>>>>>>>>>>>>>>>>>>>>>>>>>>>>>>>>>>>>>>>>>>>>>>>>>>>>>>>>>>>>>>>>>>>>>>>>>>>>>>>>>>>>>>>>>>>>>>>>>>>>>>>>>>>>>>>>>>>>>>>>>>>>>>>>>>>>>>>>>>>>>>>>>>>>>>>>>>>>>>>>>>>>>>>>>>>>>>>>>>>>>>>>>>>>>>>>>>>>>>>>>>>>",
">>>>>>>>>>>>>>>>>>>>>>>>>>>>>>>>>>>>>>>>>>>>>>>>>>>>>>>>>>>>>>>>>>>>>>>>>>>>>>>>>>>>>>>>>>>>>>>>>>>>>>>>>>>>>>>>>>>>>>>>>>>>>>>>>>>>>>>>>>>>>>>>>>>>>>>>>>>>>>>>>>>>>>>>>>>>>>>>>>>>>>>>>>>>>>>>>>>>>>>>>>>>>>>>>>>>>>>",
">>>>>>>>>>>>>>>>>>>>>>>>>>>>>>>>>>>>>>>>>>>>>>>>>>>>>>>>>>>>>>>>>>>>>>>>>>>>>>>>>>>>>>>>>>>>>>>>>>>>>>>>>>>>>>>>>>>>>>>>>>>>>>>>>>>>>>>>>>>>>>>>>>>>>>>>>>>>>>>>>>>>>>>>>>>>>>>>>>>>>>>>>>>>>>>>>>>>>>>>>>>>>>>>>>>>>>>",
">>>>>>>>>>>>>>>>>>>>>>>>>>>>>>>>>>>>>>>>>>>>>>>>>>>>>>>>>>>>>>>>>>>>>>>>>>>>>>>>>>>>>>>>>>>>>>>>>>>>>>>>>>>>>>>>>>>>>>>>>>>>>>>>>>>>>>>>>>>>>>>>>>>>>>>>>>>>>>>>>>>>>>>>>>>>>>>>>>>>>>>>>>>>>>>>>>>>>>>>>>>>>>>>>>>>>>>",
">>>>>>>>>>>>>>>>>>>>>>>>>>>>>>>>>>>>>>>>>>>>>>>>>>>>>>>>>>>>>>>>>>>>>>>>>>>>>>>>>>>>>>>>>>>>>>>>>>>>>>>>>>>>>>>>>>>>>>>>>>>>>>>>>>>>>>>>>>>>>>>>>>>>>>>>>>>>>>>>>>>>>>>>>>>>>>>>>>>>>>>>>>>>>>>>>>>>>>>>>>>>>>>>>>>>>>>",
">>>>>>>>>>>>>>>>>>>>>>>>>>>>>>>>>>>>>>>>>>>>>>>>>>>>>>>>>>>>>>>>>>>>>>>>>>>>>>>>>>>>>>>>>>>>>>>>>>>>>>>>>>>>>>>>>>>>>>>>>>>>>>>>>>>>>>>>>>>>>>>>>>>>>>>>>>>>>>>>>>>>>>>>>>>>>>>>>>>>>>>>>>>>>>>>>>>>>>>>>>>>>>>>>>>>>>>",
">>>>>>>>>>>>>>>>>>>>>>>>>>>>>>>>>>>>>>>>>>>>>>>>>>>>>>>>>>>>>>>>>>>>>>>>>>>>>>>>>>>>>>>>>>>>>>>>>>>>>>>>>>>>>>>>>>>>>>>>>>>>>>>>>>>>>>>>>>>>>>>>>>>>>>>>>>>>>>>>>>>>>>>>>>>>>>>>>>>>>>>>>>>>>>>>>>>>>>>>>>>>>>>>>>>>>>>"
};
