/* XPM */
static char *result[] = {
/* columns rows colors chars-per-pixel */
"65 73 155 2 ",
"   c #000000",
".  c #0A0604",
"X  c #0D0805",
"o  c #140E08",
"O  c #16100B",
"+  c #1A130D",
"@  c #20170F",
"#  c #21190F",
"$  c #2A1F0F",
"%  c #251B10",
"&  c #2A1E12",
"*  c #3E1211",
"=  c #2D2213",
"-  c #332514",
";  c #342C15",
":  c #3A2D17",
">  c #3C2D18",
",  c #3E3019",
"<  c #540F0F",
"1  c #5A0C0C",
"2  c #52100F",
"3  c #5C150F",
"4  c #431211",
"5  c #4B1211",
"6  c #481F16",
"7  c #511110",
"8  c #660C0C",
"9  c #60120E",
"0  c #6F0F10",
"q  c #6F1012",
"w  c #721112",
"e  c #472616",
"r  c #4D2216",
"t  c #4C2418",
"y  c #5A2617",
"u  c #532D1A",
"i  c #42321A",
"p  c #4B361C",
"a  c #4D381D",
"s  c #53301C",
"d  c #5D361E",
"f  c #523C1F",
"g  c #652B19",
"h  c #473927",
"j  c #493A26",
"k  c #483A28",
"l  c #5C3620",
"z  c #553D20",
"x  c #593F21",
"c  c #523E2C",
"v  c #713E23",
"b  c #564221",
"n  c #5C4223",
"m  c #57412C",
"M  c #5A432D",
"N  c #544231",
"B  c #5C4836",
"V  c #5E4C36",
"C  c #584738",
"Z  c #564838",
"A  c #624525",
"S  c #694626",
"D  c #674826",
"F  c #6A4927",
"G  c #61462C",
"H  c #63482E",
"J  c #6D4B28",
"K  c #734225",
"L  c #78462A",
"P  c #734D2B",
"I  c #794E2C",
"U  c #76512C",
"Y  c #79512D",
"T  c #634D35",
"R  c #684F34",
"E  c #604E38",
"W  c #704F31",
"Q  c #63523E",
"!  c #705032",
"~  c #7E5430",
"^  c #5D5348",
"/  c #665644",
"(  c #695B52",
")  c #726456",
"_  c #746759",
"`  c #821518",
"'  c red",
"]  c #814F2E",
"[  c #81532F",
"{  c #825531",
"}  c #865934",
"|  c #8A5D36",
" . c #845A3A",
".. c #8D5E39",
"X. c #905935",
"o. c #915F38",
"O. c #8C6037",
"+. c #8D6238",
"@. c #94623A",
"#. c #9A653D",
"$. c #9E693E",
"%. c #A26C3F",
"&. c #85654E",
"*. c #8B654E",
"=. c #9F6940",
"-. c #946C4D",
";. c #866650",
":. c #8A6951",
">. c #967154",
",. c #A46D41",
"<. c #AA6C43",
"1. c #B46C47",
"2. c #A47045",
"3. c #AA7144",
"4. c #AB7349",
"5. c #B37546",
"6. c #B27549",
"7. c #BA754D",
"8. c #B77849",
"9. c #BC7C4C",
"0. c #A2785F",
"q. c #887466",
"w. c #80766B",
"e. c #8F7768",
"r. c #957969",
"t. c #A37962",
"y. c #C27C4E",
"u. c #C87F4F",
"i. c #C57E51",
"p. c #CA7F53",
"a. c #00FF00",
"s. c #BE8258",
"d. c #9D8476",
"f. c #B3886E",
"g. c #B38A71",
"h. c #C8804F",
"j. c #C58152",
"k. c #CC8153",
"l. c #CE855A",
"z. c #CF885C",
"x. c #D18456",
"c. c #D28659",
"v. c #D7885D",
"b. c #D8895E",
"n. c #DB8D62",
"m. c #DE9165",
"M. c #E09367",
"N. c #E19468",
"B. c #E79A6E",
"V. c #E89B6F",
"C. c #EA9D71",
"Z. c #EFA276",
"A. c #A88F83",
"S. c #D09E85",
"D. c #D1AD9C",
/* pixels */
"a.a.a.a.a.a.a.a.a.a.a.a.a.a.a.a.a.a.a.a.a.a.a.a.a.a.a.a.a.a.a.a.a.a.a.a.a.a.a.a.a.a.a.a.a.a.a.a.a.a.a.a.a.a.a.a.a.a.a.a.a.a.a.a.a.",
"a.a.a.a.a.a.a.a.a.a.a.a.a.a.a.a.a.a.a.a.q.q.q.q.q.q.q.q.q.q.q.q.q.q.q.q.q.q.q.q.q.q.q.q.a.a.a.a.a.a.a.a.a.a.a.a.a.a.a.a.a.a.a.a.a.",
"a.a.a.a.a.a.a.a.a.a.a.a.a.a.a.a.a.a.a.a.j.9.j.v.v.v.v.v.v.v.v.v.v.v.v.v.v.v.v.v.v.k.9.s.D.a.a.a.a.a.a.a.a.a.a.a.a.a.a.a.a.a.a.a.a.",
"a.a.a.a.a.a.a.a.a.a.a.a.a.a.a.a.a.a.a.a.s.9.j.n.v.v.v.v.v.v.v.v.v.v.v.v.v.v.v.v.v.j.9.9.D.a.a.a.a.a.a.a.a.a.a.a.a.a.a.a.a.a.a.a.a.",
"a.a.a.a.a.a.a.a.a.a.a.a.a.a.a.a.a.a.a.a.s.s.h.v.v.v.v.v.v.v.v.v.v.v.v.v.v.v.v.v.b.k.9.9.D.a.a.a.a.a.a.a.a.a.a.a.a.a.a.a.a.a.a.a.a.",
"a.a.a.a.a.a.a.a.a.a.a.a.a.a.q.q.q.q.q.q.j.h.x.m.n.n.N.N.N.N.N.N.N.N.M.m.n.m.n.n.b.l.j.k.S.q.q.q.q.q.q.a.a.a.a.a.a.a.a.a.a.a.a.a.a.",
"a.a.a.a.a.a.a.a.a.a.a.a.a.q.%.%.9.h.h.k.v.v.b.V.C.B.Z.Z.Z.Z.Z.Z.Z.Z.Z.V.V.V.N.M.m.n.v.v.c.9.9.5.3.3.4.a.a.a.a.a.a.a.a.a.a.a.a.a.a.",
"a.a.a.a.a.a.a.a.a.a.a.a.a.q.%.%.y.k.k.h.v.v.n.B.B.B.C.Z.Z.Z.Z.Z.Z.Z.Z.V.V.V.N.m.n.n.v.v.c.9.y.5.3.3.3.a.a.a.a.a.a.a.a.a.a.a.a.a.a.",
"a.a.a.a.a.a.a.a.a.a.a.a.a.q.,.,.h.h.h.k.b.b.n.V.V.V.Z.Z.Z.Z.Z.Z.Z.Z.Z.C.C.V.B.m.N.b.v.b.p.u.u.7.3.3.4.a.a.a.a.a.a.a.a.a.a.a.a.a.a.",
"a.a.a.a.a.a.a.a.a.a.q.2.2.3.6.6.h.b.b.b.B.V.C.Z.Z.Z.Z.Z.Z.Z.Z.Z.Z.Z.Z.Z.Z.Z.C.V.B.N.m.M.M.p.p.i.6.6.6.4.4.g.a.a.a.a.a.a.a.a.a.a.a.",
"a.a.a.a.a.a.a.a.a.a.q.,.%.3.6.6.h.b.v.b.B.B.V.Z.Z.Z.Z.Z.Z.Z.Z.Z.Z.Z.Z.Z.Z.Z.C.B.B.N.m.m.n.p.p.y.6.6.6.3.3.f.a.a.a.a.a.a.a.a.a.a.a.",
"a.a.a.a.a.a.a.a.a.a.q.%.%.3.6.6.k.v.v.b.B.B.V.Z.Z.Z.Z.Z.Z.Z.Z.Z.Z.Z.Z.Z.Z.Z.C.B.B.N.m.m.M.p.p.u.6.6.6.3.3.f.a.a.a.a.a.a.a.a.a.a.a.",
"a.a.a.a.a.a.a.a.a.a.q.%.%.3.5.4.k.v.v.v.B.B.C.Z.Z.Z.Z.Z.Z.Z.Z.Z.Z.Z.Z.Z.Z.Z.C.V.B.N.m.m.b.p.p.p.6.6.6.3.2.f.a.a.a.a.a.a.a.a.a.a.a.",
"a.a.a.a.a.a.a.q.t.0.4.3.3.8.h.h.x.b.v.v.m.m.m.M.M.M.M.M.M.V.V.V.V.V.V.N.M.M.N.m.m.m.m.m.m.b.b.p.k.h.u.3.,.<.0.t.t.q.a.a.a.a.a.a.a.",
"a.a.a.a.a.a.a.q.#.#.3.3.3.8.h.k.x.b.v.v.m.m.m.m.m.m.m.m.M.B.V.V.B.B.B.M.m.m.m.m.m.m.m.m.m.b.p.v.h.h.h.<.%.%.#.#.#.q.a.a.a.a.a.a.a.",
"a.a.a.a.a.a.a.q.#.#.%.3.3.9.h.h.x.v.b.b.m.m.m.m.m.m.m.m.m.B.V.C.B.B.B.M.m.m.m.m.m.m.m.m.n.b.n.p.k.k.h.%.%.%.#.#.#.q.a.a.a.a.a.a.a.",
"a.a.a.a.a.a.a.q.#.#.,.,.3.5.u.y.k.l.l.l.c.c.z.z.z.z.c.z.c.m.N.M.m.m.m.b.z.z.z.c.z.z.z.c.z.l.x.j.h.u.y.%.,.%.o.o.o.e.a.a.a.a.a.a.a.",
"a.a.a.a.a.a.a.q.#.#.%.%.%.3.6.6.6.6.6.6.%.%.%.,.%.%.4.4.3.s.%.s.8.6.6.%.,.,.=.#.#.$.2.%.3.6.6.3.3.3.%.$.#.o.} } } q.a.a.a.a.a.a.a.",
"a.a.a.a.a.a.a.q.#.#.%.%.%.3.6.6.6.6.6.4.%.%.%.%.%.%.2.4.3.9.s.h.8.6.6.2.%.%.#.#.#.%.%.%.%.8.6.4.3.3.3.%.#.#.} } } q.a.a.a.a.a.a.a.",
"a.a.a.a.a.a.a.q.#.#.%.,.%.3.6.4.5.4.5.6.%.$.%.%.%.%.<.<.3.s.%.h.8.6.5.2.$.%.,.#.#.$.$.%.,.5.6.4.3.3.3.#.#.#.} } } q.a.a.a.a.a.a.a.",
"a.a.a.a.a.a.a.q.} } ,.2.<.,.X.| U G A n t e e r t t r t s Y { ~ ~ ~ ~ l 6 r r 6 e e r r s n D U } | | <.2.,.} }  .-.>.t.a.a.a.a.a.",
"a.a.a.a.a.a.a.q.} } =.<.3.$.{ } J b b b 6 * * * * * * * r Y Y Y U U Y s * * * * * * * * t b b U | { } <.3.2.} } } +.+.>.a.a.a.a.a.",
"a.a.a.a.a.a.a.q.} } =.3.3.=.} } J b b b 4 * * * * * * * e I Y Y Y Y Y u * * * * * * * * e b b P { } } <.3.%.} } } +...>.a.a.a.a.a.",
"a.a.a.a.a.a.a.q.} } ,.3.3.$.} } J b b b * * * * * * * 4 6 Y U U Y Y Y u * * * * * * * * e b b U | } } <.3.2.} } } ..o.>.a.a.a.a.a.",
"a.a.a.a.A.A.A.t.$.$.@...o.] g g u r r r 5 5 5 5 5 5 * * t O.O.O.O.| | l * * * 5 5 5 5 5 5 t r y g g g X...@.$.$.$.{ ~ :.a.a.a.a.a.",
"a.a.a.a. .} } @.,.%...} } L 1 1 < 5 5 5 5 5 5 5 5 5 * * t +.O.O.+.O.O.l * * 4 5 5 5 5 5 5 5 5 < 1 1 1 { } | %.%.2.{ Y ;.a.a.a.a.a.",
"a.a.a.a...} } @.%.%.+.} } L 1 1 < 5 5 5 5 5 5 5 5 5 * * r +.+.O.+.O.+.l * * 4 5 5 5 5 5 5 5 5 2 1 1 3 [ } ..%.%.%.{ Y ;.a.a.a.a.a.",
"a.a.a.a. .{ { @.,.%.| { Y K 1 1 < 5 5 2 7 7 7 7 7 7 4 4 r O.O.| O.O.O.l 4 4 5 5 7 7 7 7 5 5 2 < 1 1 1 Y Y } ,.,.%.{ Y ;.a.a.a.a.a.",
"a.a.a.a.W P J +.3.3.P j a u 1 1 1 1 1 1 ' ' ' ' ' 8 1 1 9 Y Y Y Y U Y g 1 1 1 8 ' ' ' ' ' 1 1 1 1 1 1 a a A 3.3.3.{ Y ;.a.a.a.a.a.",
"a.a.a.a.W J J o.3.3.P a a u 1 1 1 1 1 1 ' ' ' ' ' 8 1 1 y Y Y Y Y Y Y g 1 1 8 8 ' ' ' ' ' 1 1 1 1 1 1 s a A 3.3.3.{ Y ;.a.a.a.a.a.",
"a.a.a.a.W J J O.3.3.P a a u 1 1 1 1 1 1 ' ' ' ' ' 8 1 1 9 Y Y Y Y Y Y g 1 1 1 8 ' ' ' ' ' 1 1 1 1 1 1 a a A 3.3.3.{ Y ;.a.a.a.a.a.",
"a.a.a.a.! J J O.3.3.P f a u 1 1 1 1 1 1 ' ' ' ' ' 8 3 3 g U P U P U P g 3 3 9 8 ' ' ' ' ' 1 1 1 1 1 1 a a A 3.3.4.} Y &.a.a.a.a.a.",
"a.d.*.*.Y Y Y +.5.%.~ A A d 1 1 8 8 8 8 ' ' ' ' ' 8 P I P % % % $ % % S I I v 8 ' ' ' ' ' ` ` w 8 1 1 d A J 4.3.3.| { } >.>.>.q.a.",
"a.r.{ { Y Y Y @.3.%.~ A A g 1 1 8 8 8 8 w w w 8 8 8 I Y P + O + + + + S Y Y v 8 8 8 9 8 q ` ` w 1 1 1 A A J 3.3.3.} [ { +.+.O.q.a.",
"a.r.{ { Y Y U @.3.3.{ A A d 1 1 8 8 8 8 w w w 8 8 8 P Y J + + + + + + S I Y K 8 8 8 8 8 0 ` ` w 1 1 1 x A U 3.3.3.} [ [ +.+.O.q.a.",
"a.r.~ ~ } } O.@.%.%.@.@.+.@.%.%.<.1.1.1.} [ Y K K K D D n + + + + + + z D D S K K I [ [ o.%.%.%.%.%.%.#.@.@.$.%.%.O...| ~ { { q.a.",
"a.e.Y Y +.+.+.@.#.#.%.%.%.3.y.s.p.x.x.p.@.+.O.U Y Y n b b O + + + + + p b b D Y Y } +.+.%.h.8.s.y.7.9.%.%.%.#.#.#.O.+.+.Y Y Y q.a.",
"a.e.Y Y +.+.+.@.#.#.%.%.%.5.9.9.p.p.x.p.+.O.O.U Y I n b b + + + + + + p b b D Y Y } +.+.%.%.s.9.9.y.9.2.%.%.#.#.#.+.+.+.Y Y Y q.a.",
"a.e.Y Y O.O.+.@.#.#.$.%.%.3.8.9.i.p.p.p.+.O.| Y Y Y n b a + + + + + + p b z D U Y } O.O.$.8.8.s.7.8.8.%.%.%.#.#.#.O.+.+.Y U Y q.a.",
"a.q.J P { { Y O.+.+.{ { [ Y J J A b n x i i f Y Y Y i i , + + + + + + : i i n Y Y b , i a b b D J P P [ { { +.+.O.} { { J J J q.a.",
"a.q.J P { { { } +.+.} [ [ Y J J n b b b i i z U U Y p i > + + + + + + : i , n Y Y x i i p b b A J J J ] { { +.+.+.} { [ J J J q.a.",
"a.q.J J { { [ } +.+.} [ [ [ J J A b b b i , z U Y Y p , > + + + + + + : i i n Y Y x i i p b b A J J J { { { +.+.+.{ { [ J J J q.a.",
"a.q.J J { { { | o.+.} [ [ Y P J n b b b i i j U Y Y p , , + + + + + + : i , n U ~ x i > p b b A J J J { { { +.+.+.{ { [ J J J q.a.",
"a.w.T T f f z a a a f f f f f f p i p i S F P O.O.O.J F J | |  .|  .} W D J U O...U F S A i i i p i i p z p p p f f b f T T T q.a.",
"a.w.E B a p p p i i i a a a a a i i i i J J U O.+.+.U J P +.+.+.O.+.O.U J J ~ O.O.~ J J A i i i i > i i i i i i i p f j E E E q.a.",
"a.w.E B a f f i i i p a a a a a i i i i F J U O.+.+.J J P +.+.+.+.+.O.U J J ~ +.+.U J J A i , , i i i i i i i i i a a a E E E q.a.",
"a.q.q.q.j p i > = - - - - - ; : : : : , P U } ,.,.,.#.#.$.5.5.5.5.8.5.%.#.#.#.2.,...U U S : : - - = = & $ $ = - = i i C q.q.q.a.a.",
"a.a.a.a.h i i - + + .     . + + = ; ; , [ [ ..5.6.6.6.5.8.h.h.h.j.h.h.9.6.6.6.6.6.@.{ { P ; ; = + + +       + + + : i ^ a.a.a.a.a.",
"a.a.a.a.k i i - + + .     X + + = ; ; : ~ { o.6.6.6.6.6.7.k.h.x.k.h.k.7.6.6.6.6.6.#.{ { J ; ; = + + +       + + + > i ^ a.a.a.a.a.",
"a.a.a.a.k i i - + + .     X + + = ; ; : Y { o.6.6.6.6.6.6.p.h.h.h.h.h.7.6.6.6.6.6.@.{ { J ; ; = + + +     . + + + > i ^ a.a.a.a.a.",
"a.a.a.a.k i i : = = + X X o + + - : : > P Y ~ @.#.@.@.o.o.<.,.,.%.<.,.#.@.@.@.@.o.} P P D : : = + + + o X o = & = i i ^ a.a.a.a.a.",
"a.a.a.a.k i i i , i & + + + + + ; i i i A A n p p j i i i ; ; ; ; ; ; > i i i a j x A A n i i = + + + + + @ i i i i i ^ a.a.a.a.a.",
"a.a.a.a.j i i i i i & + + + + + - i i i A A n a p a i i i - ; ; ; ; ; i i i i a a A A A b i i - + + + + + % i i i i i ^ a.a.a.a.a.",
"a.a.a.a.j i i i i i & + + + + + ; , i i n A A a a a i i i ; ; ; ; ; ; , i i p a a x A A n , i = + + + + + @ i i i i i ^ a.a.a.a.a.",
"a.a.a.a.C c c n x x - + + - i i a b b f S J J I I I | | o.7.7.7.7.7.7.#.| X.} Y I J S J A b b p i p i @ + & A x n m c ( a.a.a.a.a.",
"a.a.a.a.C N N M A A : + + - f p f b b b J J P [ { { #.#.,.p.p.x.k.x.l.<.#.#.o.[ [ P J J A b b f p p p @ + & A A A N c ( a.a.a.a.a.",
"a.a.a.a.C N m M A A : + + - a a z b b b J J P { { { o.=.,.l.p.x.x.p.x.<.=.=...{ { I J J F b b f f p p @ + & A A A N N ( a.a.a.a.a.",
"a.a.a.a.C N N M S S x d s z z x x b n n P P U Y { ] o.o.o.1.7.1.1.6.1.#...o.| I Y I P P J n n b f x x f d f D F F M N ( a.a.a.a.a.",
"a.a.a.a.C m N G F J P Y U P A A A A A A Y Y Y Y I I } }  .} } } | } } } } } { I Y Y Y Y P A A A D A A P Y U J J J M N ( a.a.a.a.a.",
"a.a.a.a.C N m G J J W Y Y P A A A A A D Y Y Y Y P ~ { } } } } } } } } } } } { ~ Y Y Y Y U n A A A A D U U U J J J N N ( a.a.a.a.a.",
"a.a.a.a.C N N M J J U Y Y P A A A A A D U Y Y I Y I } } } } } { } } }  .} { { I I Y Y I P A A A A A A P U P J J J M N ( a.a.a.a.a.",
"a.a.a.a.V N Z H J J P P P J n n b b b b S S S D S D P P P P P P P L P P P P S S D D D A A b b n n A n P P P J J J B N ( a.a.a.a.a.",
"a.a.a.a.Q E T H J F G A A A b b p ; ; ; + + O                                           + ; ; p b b b A A A J J J T E ) a.a.a.a.a.",
"a.a.a.a.Q V Q R J J D A A n b b i ; ; ; + + O                                           + ; ; p b b b A A D J J J T E ) a.a.a.a.a.",
"a.a.a.a./ Q Q R J J D A A n b b , ; ; ; + + +                                           + ; ; p b b b b n D J J J T Q _ a.a.a.a.a.",
"a.a.a.a.a.a.a.q.J J n b b p # = # # + + + + + + + + + O + + + + o + + + + + + O + + + + + + + % # = = f b n J J J q.a.a.a.a.a.a.a.",
"a.a.a.a.a.a.a.q.J J n b b p # # # + + + + + + + + + + + + + + + + + + + + + + + + + + + + + + % + # = b b n J J J q.a.a.a.a.a.a.a.",
"a.a.a.a.a.a.a.q.J J A b b p # # + + + + + + + + + + + + + + + + + + + + + + + + + + + + + + + + # # + b b b J J J q.a.a.a.a.a.a.a.",
"a.a.a.a.a.a.a.q.J J n b b i @ % # + + + + + + + + + + + + + + + + + + + + + + + + + + + + + + + # # # f b n J J J q.a.a.a.a.a.a.a.",
"a.a.a.a.a.a.a.a.q.q.q.q.q.q.q.q.  + + + + + + + + + O + + + + + + + + + + + + + + + + + + + +   q.q.q.q.q.q.q.q.q.a.a.a.a.a.a.a.a.",
"a.a.a.a.a.a.a.a.a.a.a.a.a.a.a.a.  + + + + + + + + + + + + + + + + + + + + + + + + + + + + O +   a.a.a.a.a.a.a.a.a.a.a.a.a.a.a.a.a.",
"a.a.a.a.a.a.a.a.a.a.a.a.a.a.a.a.  + + + + + + + + + + + + + + + + + + + + + + + + + + + + + +   a.a.a.a.a.a.a.a.a.a.a.a.a.a.a.a.a.",
"a.a.a.a.a.a.a.a.a.a.a.a.a.a.a.a.a.a.a.a.a.a.a.a.a.a.a.a.a.a.a.a.a.a.a.a.a.a.a.a.a.a.a.a.a.a.a.a.a.a.a.a.a.a.a.a.a.a.a.a.a.a.a.a.a."
};
